<svg viewBox="0 0 330 200.00001525878906" xmlns="http://www.w3.org/2000/svg"><g><g><g><g><g><line x1="40" y1="160.62959848993856" x2="35" y2="160.62959848993856" style="visibility: inherit;" fill="rgb(0, 0, 0)" stroke="rgb(204, 204, 204)" stroke-width="1px"></line><line x1="40" y1="138.22252810577328" x2="35" y2="138.22252810577328" style="visibility: inherit;" fill="rgb(0, 0, 0)" stroke="rgb(204, 204, 204)" stroke-width="1px"></line><line x1="40" y1="115.81545772160801" x2="35" y2="115.81545772160801" style="visibility: inherit;" fill="rgb(0, 0, 0)" stroke="rgb(204, 204, 204)" stroke-width="1px"></line><line x1="40" y1="93.40838733744273" x2="35" y2="93.40838733744273" style="visibility: inherit;" fill="rgb(0, 0, 0)" stroke="rgb(204, 204, 204)" stroke-width="1px"></line><line x1="40" y1="71.00131695327745" x2="35" y2="71.00131695327745" style="visibility: inherit;" fill="rgb(0, 0, 0)" stroke="rgb(204, 204, 204)" stroke-width="1px"></line><line x1="40" y1="48.59424656911219" x2="35" y2="48.59424656911219" style="visibility: inherit;" fill="rgb(0, 0, 0)" stroke="rgb(204, 204, 204)" stroke-width="1px"></line><line x1="40" y1="26.187176184946907" x2="35" y2="26.187176184946907" style="visibility: inherit;" fill="rgb(0, 0, 0)" stroke="rgb(204, 204, 204)" stroke-width="1px"></line><line x1="40" y1="3.7801058007816266" x2="35" y2="3.7801058007816266" style="visibility: inherit;" fill="rgb(0, 0, 0)" stroke="rgb(204, 204, 204)" stroke-width="1px"></line></g><g transform="translate(30, 0)"><text x="0" y="160.62959848993856" dx="0em" dy="0.3em" style="text-anchor: end; visibility: inherit; font-family: &quot;Helvetica Neue&quot;, sans-serif; font-size: 12px; font-weight: 200;" fill="rgb(50, 49, 63)" stroke="none" stroke-width="1px">0</text><text x="0" y="138.22252810577328" dx="0em" dy="0.3em" style="text-anchor: end; visibility: hidden; font-family: &quot;Helvetica Neue&quot;, sans-serif; font-size: 12px; font-weight: 200;" fill="rgb(50, 49, 63)" stroke="none" stroke-width="1px">20</text><text x="0" y="115.81545772160801" dx="0em" dy="0.3em" style="text-anchor: end; visibility: inherit; font-family: &quot;Helvetica Neue&quot;, sans-serif; font-size: 12px; font-weight: 200;" fill="rgb(50, 49, 63)" stroke="none" stroke-width="1px">40</text><text x="0" y="93.40838733744273" dx="0em" dy="0.3em" style="text-anchor: end; visibility: hidden; font-family: &quot;Helvetica Neue&quot;, sans-serif; font-size: 12px; font-weight: 200;" fill="rgb(50, 49, 63)" stroke="none" stroke-width="1px">60</text><text x="0" y="71.00131695327745" dx="0em" dy="0.3em" style="text-anchor: end; visibility: inherit; font-family: &quot;Helvetica Neue&quot;, sans-serif; font-size: 12px; font-weight: 200;" fill="rgb(50, 49, 63)" stroke="none" stroke-width="1px">80</text><text x="0" y="48.59424656911219" dx="0em" dy="0.3em" style="text-anchor: end; visibility: hidden; font-family: &quot;Helvetica Neue&quot;, sans-serif; font-size: 12px; font-weight: 200;" fill="rgb(50, 49, 63)" stroke="none" stroke-width="1px">100</text><text x="0" y="26.187176184946907" dx="0em" dy="0.3em" style="text-anchor: end; visibility: inherit; font-family: &quot;Helvetica Neue&quot;, sans-serif; font-size: 12px; font-weight: 200;" fill="rgb(50, 49, 63)" stroke="none" stroke-width="1px">120</text><text x="0" y="3.7801058007816266" dx="0em" dy="0.3em" style="text-anchor: end; visibility: hidden; font-family: &quot;Helvetica Neue&quot;, sans-serif; font-size: 12px; font-weight: 200;" fill="rgb(50, 49, 63)" stroke="none" stroke-width="1px">140</text></g><line x1="40" y1="0" x2="40" y2="178" fill="rgb(0, 0, 0)" stroke="rgb(204, 204, 204)" stroke-width="1px"></line></g></g><g transform="translate(40, 0)" clip-path="url(#clip_0)"><clipPath id="clip_0"><rect width="290" height="178"></rect></clipPath><g><g><g><line x1="6.253038359801805" y1="0" x2="6.253038359801805" y2="178" fill="rgb(0, 0, 0)" stroke="rgb(60, 60, 60)" stroke-width="1px" opacity="0.25"></line><line x1="24.814943069805345" y1="0" x2="24.814943069805345" y2="178" fill="rgb(0, 0, 0)" stroke="rgb(60, 60, 60)" stroke-width="1px" opacity="0.25"></line><line x1="43.376847779808884" y1="0" x2="43.376847779808884" y2="178" fill="rgb(0, 0, 0)" stroke="rgb(60, 60, 60)" stroke-width="1px" opacity="0.25"></line><line x1="61.93875248981244" y1="0" x2="61.93875248981244" y2="178" fill="rgb(0, 0, 0)" stroke="rgb(60, 60, 60)" stroke-width="1px" opacity="0.25"></line><line x1="80.50065719981598" y1="0" x2="80.50065719981598" y2="178" fill="rgb(0, 0, 0)" stroke="rgb(60, 60, 60)" stroke-width="1px" opacity="0.25"></line><line x1="99.06256190981951" y1="0" x2="99.06256190981951" y2="178" fill="rgb(0, 0, 0)" stroke="rgb(60, 60, 60)" stroke-width="1px" opacity="0.25"></line><line x1="117.62446661982305" y1="0" x2="117.62446661982305" y2="178" fill="rgb(0, 0, 0)" stroke="rgb(60, 60, 60)" stroke-width="1px" opacity="0.25"></line><line x1="136.1863713298266" y1="0" x2="136.1863713298266" y2="178" fill="rgb(0, 0, 0)" stroke="rgb(60, 60, 60)" stroke-width="1px" opacity="0.25"></line><line x1="154.74827603983016" y1="0" x2="154.74827603983016" y2="178" fill="rgb(0, 0, 0)" stroke="rgb(60, 60, 60)" stroke-width="1px" opacity="0.25"></line><line x1="173.31018074983368" y1="0" x2="173.31018074983368" y2="178" fill="rgb(0, 0, 0)" stroke="rgb(60, 60, 60)" stroke-width="1px" opacity="0.25"></line><line x1="191.87208545983722" y1="0" x2="191.87208545983722" y2="178" fill="rgb(0, 0, 0)" stroke="rgb(60, 60, 60)" stroke-width="1px" opacity="0.25"></line><line x1="210.4339901698408" y1="0" x2="210.4339901698408" y2="178" fill="rgb(0, 0, 0)" stroke="rgb(60, 60, 60)" stroke-width="1px" opacity="0.25"></line><line x1="228.99589487984431" y1="0" x2="228.99589487984431" y2="178" fill="rgb(0, 0, 0)" stroke="rgb(60, 60, 60)" stroke-width="1px" opacity="0.25"></line><line x1="247.55779958984786" y1="0" x2="247.55779958984786" y2="178" fill="rgb(0, 0, 0)" stroke="rgb(60, 60, 60)" stroke-width="1px" opacity="0.25"></line><line x1="266.1197042998514" y1="0" x2="266.1197042998514" y2="178" fill="rgb(0, 0, 0)" stroke="rgb(60, 60, 60)" stroke-width="1px" opacity="0.25"></line><line x1="284.6816090098549" y1="0" x2="284.6816090098549" y2="178" fill="rgb(0, 0, 0)" stroke="rgb(60, 60, 60)" stroke-width="1px" opacity="0.25"></line></g><g><line x1="0" y1="160.62959848993856" x2="290" y2="160.62959848993856" fill="rgb(0, 0, 0)" stroke="rgb(60, 60, 60)" stroke-width="1px" opacity="0.25"></line><line x1="0" y1="138.22252810577328" x2="290" y2="138.22252810577328" fill="rgb(0, 0, 0)" stroke="rgb(60, 60, 60)" stroke-width="1px" opacity="0.25"></line><line x1="0" y1="115.81545772160801" x2="290" y2="115.81545772160801" fill="rgb(0, 0, 0)" stroke="rgb(60, 60, 60)" stroke-width="1px" opacity="0.25"></line><line x1="0" y1="93.40838733744273" x2="290" y2="93.40838733744273" fill="rgb(0, 0, 0)" stroke="rgb(60, 60, 60)" stroke-width="1px" opacity="0.25"></line><line x1="0" y1="71.00131695327745" x2="290" y2="71.00131695327745" fill="rgb(0, 0, 0)" stroke="rgb(60, 60, 60)" stroke-width="1px" opacity="0.25"></line><line x1="0" y1="48.59424656911219" x2="290" y2="48.59424656911219" fill="rgb(0, 0, 0)" stroke="rgb(60, 60, 60)" stroke-width="1px" opacity="0.25"></line><line x1="0" y1="26.187176184946907" x2="290" y2="26.187176184946907" fill="rgb(0, 0, 0)" stroke="rgb(60, 60, 60)" stroke-width="1px" opacity="0.25"></line><line x1="0" y1="3.7801058007816266" x2="290" y2="3.7801058007816266" fill="rgb(0, 0, 0)" stroke="rgb(60, 60, 60)" stroke-width="1px" opacity="0.25"></line></g></g></g><g><g><line x1="0" y1="160.62959848993856" x2="290" y2="160.62959848993856" fill="rgb(0, 0, 0)" stroke="rgb(153, 153, 153)" stroke-width="1.5px"></line></g></g><g><g><line x1="24.814943069805345" y1="0" x2="24.814943069805345" y2="178" fill="rgb(0, 0, 0)" stroke="rgb(153, 153, 153)" stroke-width="1.5px"></line></g></g><g><g><g><g><g><path stroke="rgb(255, 112, 67)" stroke-width="2px" d="M24.832056217852735,144.91308820627154L24.899640112901857,146.3228382308976L24.933422779474064,145.33913655083816L25.084813674288853,144.91224399401696L25.11859634086106,144.92723045481898L25.135710417003683,145.90814708886052L25.152156264576746,145.6439869674931L25.16936315024292,145.7090601985857L25.185920369244243,145.65644932205072L25.219795845340002,145.3091547024729L25.27048840710302,145.54066189996269L25.38852355915393,145.24730247101806L25.573919863397446,145.56488782353932L25.607516910922552,145.3748394295299L25.607646844255523,145.13844636000687L25.641095396542948,145.1976376284359L25.80978598654746,145.59715182926976L25.80984167226159,145.5670203548365L25.894019910121457,145.49047202284072L25.978550824170814,145.40558781656597L26.130424328508063,145.33165323704512L26.180894147414563,145.41692001434376L26.231623832987005,145.46028657311217L26.231642394891715,145.3770464567887L26.349547613609655,145.50675695841153L26.551890936853404,145.5374888293105L26.669666222238376,145.68557290479777L26.669963212713736,145.78635825865894L26.703690193571813,145.60704436837983L26.88897512638707,145.5010230377834L26.889012250196487,145.44840759448397L26.922572173912172,145.40700102724475L27.00695459272385,145.3130766218626L27.091040021060163,145.21809260439727L27.293531839541593,145.1875972868429L27.344020220352807,145.10999255176787L27.394675658306404,145.13154979259645L27.394991210686474,145.08738280853248L27.664621438503985,145.23830066391895L27.765542514412274,145.15272965485104L27.88367047598674,145.01727385729993L28.10279376108833,145.04738299270986L28.20410463699553,144.99075088150153L28.254593017806737,145.33909553265656L28.372788730333394,145.2255515639861L28.676200696627877,145.35646102930124L28.692750490867315,145.18061883750394L28.77711713205999,145.0468579608864L28.844563669014256,144.9519516357895L28.962458678684605,144.9216656637392L29.13156227106892,144.84719500179918L29.147936655308847,144.77777775028028L29.350426617599805,144.79115814534583L29.367457165171235,144.6540372605799L29.519057809509242,144.54784645752244L29.586649129320254,144.48584716699668L29.620118099702857,144.6752631558956L29.788933054468927,144.6187512617811L29.80545314966083,144.53683806758332L30.04166730852416,144.42420611508012L30.075515869858084,144.36432084870432L30.29456026686466,144.60386355019796L30.429601836010878,144.46642929317255L30.49678108153732,144.33961142204006L30.59788406411177,144.19498865816564L31.087023664648843,143.9533624931957L31.13782759784012,143.94570994586013L31.17145712869847,143.73092466828305L31.23876909184359,143.50332013256985L31.373470978133614,143.27983180493106L31.458066858849456,143.08888849919214L31.508486560613242,142.98232260550716L31.542467839565845,143.03943786792627L31.94704125843461,142.88624281588983L31.980556633578992,142.63645695385182L32.08154453234424,142.50595703326206L32.1324681898209,142.30938593761203L32.31759534644612,142.15081774591195L32.31772992025527,142.15495872002842L32.486144865974836,142.24775929720556L32.58754947950082,142.5010330554114L33.12695378989734,142.03676542416767L33.27864909994938,141.69774188007347L33.29581700561566,141.30421705952375L33.851805449775334,141.42131183360806L33.86891117306084,141.49539174419823L34.071331528209136,141.00999687731132L34.62771255665343,140.42991789174988L34.67837541936891,139.8420244765639L35.09966847390522,139.57719859779957L35.251218073005276,139.7745027178883L35.36952701315066,139.74954018639858L36.24640067260358,138.8244964050101L36.7350604479039,137.92880494771228L37.375633635636596,136.54921072628258L37.780349981171625,136.0698521626772L38.97749445687189,134.2658214549827L39.516819879173404,133.7806478405762L39.60111320084247,133.18089018100082L40.19158595157239,131.46275174014L40.258792111860664,130.47451580214516L40.849029126400765,129.40018691151107L40.89936158721242,129.87862120905302L43.98490886334678,129.83510894645642L46.47994348065609,127.0685295324528L46.682380541518626,126.48756984295777L47.96367077174551,126.03172494384086L48.36811054490037,126.088209365717L48.6381806898595,126.84373619971635L49.54877668969432,125.68668058382912L49.76743499908293,123.12119974007942L49.78476439332019,123.52639536224704L50.42504894343464,123.0375962834677L50.44211011814885,123.78848192154703L50.71160948453815,121.89599300888915L51.09968786678637,122.05992539699842L51.48714813760775,122.16556929442413L51.62248948151503,122.47447506045359L52.38108854034628,122.11634629612095L52.3976559683952,122.46617266112196L52.65047746340256,122.649158541602L53.42638549837589,122.22243297662243L53.66221356962125,122.23873556982676L53.98240828205928,120.39230305004428L54.35368535625925,120.54173150485295L56.309117978886874,119.99020750220224L58.01205672412526,120.35835071413578L58.38318251880184,121.80868630695726L58.51783707223485,122.63853975594958L61.94051679885512,122.28225296710448L61.9742911125702,122.38560482359095L62.15974031824215,122.19302106645202L62.547165321444574,119.35014093272935L62.81736168735574,117.67525513228881L63.08687868755452,118.48150822608287L63.508203297328826,119.83061540823414L63.98071143124574,117.73976860746356L64.0310754472954,118.72090154086357L64.09864542091597,117.38145454777795L65.5655676915762,117.5368363885639L66.00391635225529,117.5544815337201L66.03710596597202,114.69549858050839L66.17226725940361,114.647384713951L67.30168398529325,114.4185135778235L67.72356823649456,111.95261400425237L68.65076507580677,108.74754522722276L69.96571732022525,107.9646657747415L70.52229788914518,106.678774990305L72.29240288657672,107.03438588190913L72.44401281186708,105.99091229665234L72.74750737863754,107.32257607446904L74.45013892435296,107.91069865038136L76.54086462993563,103.9848810992544L76.5409657923163,104.55016317208742L77.94039140887953,104.37338519759987L79.1708897711532,105.35583306852479L79.57600705382998,106.16588993477002L79.7273701057877,105.91922701591969L80.3848847439492,107.2647640536814L80.70540707400538,106.59860789321111L82.74542258401554,102.34371903622132L83.13328193578819,103.68666693769732L84.73461003035831,104.94980297303857L84.81900451440805,104.7569984597555L85.05508038708128,105.76294597159914L85.5780509151428,106.53469819827127L85.78039331029132,106.28062231682776L86.48829887926432,107.22678355402715L87.0107116220893,108.13842479329347L87.82005985649293,109.1816722062736L88.39326261108067,110.26099810346223L88.49440086127407,106.54387552618232L88.91602803009516,106.52725413872723L89.4219875005852,107.49885159978713L89.89368633545674,107.29015149254059L90.43352685061396,103.62185165727355L90.80431110624387,105.34675566448497L90.83822741852998,105.89714039923028L93.48485247112973,105.50998348393715L93.60310943794192,106.24505132626417L95.2385171895596,106.46332679586739L95.45760799132796,107.22400903304818L95.72733474104996,106.47415832189465L96.50286968173862,106.09576563683251L97.37989276452446,107.01131332121703L97.81832309758425,105.82144065737714L98.2732920877407,106.77270872954388L98.67778104994302,108.2490081866009L99.1331491210507,109.26060541533924L99.1671034852415,110.26702437243384L99.6726564500184,111.10959935647583L100.22920731989078,111.8711836864664L100.9539578173881,112.79821880882636L101.0549549971057,113.28578764845368L102.25198438899676,114.2821478488616L102.28573085985478,114.73126757113035L102.35336208776091,115.25253212921903L102.42065363281087,114.45940241310049L102.62292178034053,114.23783562102787L102.72441085053295,114.47633629938099L102.84233555925084,115.64809477004752L103.24700735621455,113.84690010696512L104.46068770472573,114.02884971240135L105.1182793747918,114.05626976859662L105.42180828108594,114.86757708722959L108.08584996887508,116.0224376906493L108.16975905911666,114.79521659311088L108.23718796226146,115.53720126620422L108.67566470008303,114.70612923450787L109.78831445744814,115.37070576390313L110.05848019621652,116.51749276658408L110.47963125218179,115.85770879033367L110.81698737361945,116.5464663015436L113.00856918844393,116.96983681257598L113.1265430862093,117.51454640691608L113.51439779750577,115.48446614492767L113.78448836056009,116.65914186367624L115.06567278793013,117.90294739032426L116.09409419029262,118.19027140623045L117.07178033851129,118.41863807765624L117.47657093166517,118.87358521057419L119.38146969681505,119.71542240562157L119.41560318338627,117.91988399368608L120.27546114479154,118.00833229346841L120.67966146937562,117.35565977021339L121.11822916053029,117.52306147839181L122.23095502170469,118.34864031011838L123.61360160450532,117.8416894117636L124.22055639852249,118.67137021775966L124.32188398014392,119.61617820362866L124.7601955170136,119.88263431502429L125.68740627775433,120.47665276960419L126.41215955953737,117.64421362942653L126.96859163321962,116.39133952195948L126.9688208727428,116.37617645275876L127.15421996127202,116.86829697358431L127.38989860918446,115.54397908053933L128.165921727967,114.42314864187097L128.80626753236697,114.32855198268112L128.87374005598784,114.39407992441541L129.10976488342314,114.7246797836419L129.73373815977365,115.18508591793427L131.58840748268304,116.47596740604413L132.54922549999648,117.83268246002413L132.59994868890226,118.71047699328676L133.2064737748254,119.45205258803017L135.73557412775375,120.76578510298529L135.9885756732368,121.82207587496588L136.10649945385944,122.57340126832159L136.30901911519797,123.59332453664157L136.39309711877237,123.5629010531043L136.41024182205777,124.92230766437721L136.59543858582566,124.85088076672889L137.21913621789125,124.8719048820139L137.47213590718383,125.30571209981295L137.910784342624,126.47205088400486L137.92754388638664,127.39477420496209L138.06214275410554,127.55858155148618L138.24767548834868,127.2323558558019L139.90007944801408,126.61926351325434L140.3887735628381,127.30190220869497L141.34974657205586,126.75952900712795L141.51839632587001,127.62676427577159L141.88964926959386,127.79476937479532L142.34488276689243,127.77081962903509L144.26677681199476,127.6469365050362L144.31730881328204,128.0306465535907L144.53648128743112,127.78798827856711L147.25072643079415,127.88024321161662L148.17806062820122,128.34418552885853L148.3636935967298,127.71299288232893L148.46461838501904,126.91959078560329L148.56580211187895,127.44942623662374L148.6841045553577,127.89113218094292L149.07182933332118,127.55936032832933L149.29074008461384,126.77246752102181L149.3582794310917,126.94888206623227L149.6957914725289,127.50542215776474L150.06651354577804,127.93554222950631L150.21833878916306,127.47249956309822L151.16257824128476,128.5669680963559L153.55656370554325,128.57432830044849L153.8093211619794,127.26493059055724L154.24764197980141,128.01013739592744L156.0688070647092,127.40934734769718L156.22058497523722,127.07336807068386L156.62491244886857,127.57975611759204L156.7429559537766,128.19660557993458L157.0127133306414,128.90039792875677L158.41191991672903,129.01527429160478L159.13705278946338,128.27830793357782L159.71003744167078,127.8355416780439L160.23301910687513,127.3705968407385L160.6038358458383,128.26856188937833L162.67737508384994,128.09333237047377L163.1499314787191,128.44882798246977L163.30147086877156,128.47009543389072L164.2286547147505,129.29585538062497L164.41431923851707,127.02536415437896L165.00427132781988,127.28285089977271L165.59450462997904,128.1660548734509L166.4207497662402,128.15938840666198L166.55521962872135,129.18329002741044L167.16218091940516,127.94016440949342L167.22959033255,127.20437785973897L168.5786203778256,127.94982771451922L169.47184243485182,127.26290493400438L169.48890639385175,127.55949083050533L169.50566129713823,127.47580813010495L169.5224941604245,128.0053361621656L170.06196158129706,128.7247793720484L170.23068743892048,128.327553953285L171.07397518799112,129.3016174309278L171.52874463767193,129.20089559229572L173.28263766752974,128.88087473872736L173.75471423716215,129.568172288829L174.2601530462251,129.88007542769867L174.41203026294326,130.53820229649543L175.25493192439595,130.5146063299751L175.65940418088405,129.1576729243626L176.62059993295833,128.94102358738124L176.67096766138894,128.6227631326825L177.24464281645152,127.8893804571883L177.4296539611723,128.14387277368152L179.23365299660432,127.9881008340425L179.73987604614123,128.892657875037L179.7905593269519,128.45947661071594L180.09371699515188,128.34573698796606L180.6334405703094,129.08484614995868L180.7511722352183,128.94022911341492L181.35804628494998,129.68546522367285L182.30234513516675,128.28955438995473L182.3193060755955,128.32794059272408L182.8419981750864,128.2566338656949L183.75240855587413,124.37770063906189L185.48916059482747,125.13038749902847L185.97796793727022,126.12995485907848L186.34895637385196,126.88079716476601L186.68574078862457,126.62961347512828L186.9389381622023,127.13936640142497L187.03992606096756,127.81526873676725L187.1240885212084,128.09618753430414L188.99547098311868,128.7381958591366L189.16416899788507,126.91908665692884L189.61942384137404,126.4266801178979L190.4288194086347,127.32887403464127L190.51304590744678,127.93345454034352L192.51928246326568,128.67770284756986L192.53602437321888,129.50276842364215L192.6035163868397,128.8409273195603L192.90730237551406,129.41806794130872L193.58180301267572,129.45200739351625L196.09385054374695,128.90387347383023L196.3296433473734,126.9624578484933L196.85223242829312,127.53651619003668L197.67863348455384,126.66080981376768L199.38118707026948,125.97618461654109L199.6172258191333,126.81139759543791L200.66281512716208,127.66341312490738L200.78053565492817,127.53313520016962L201.91055935510184,127.87175958312179L202.4495933554994,128.33418891253888L203.15820056447043,126.14238645484902L203.88280163863485,126.04785140726526L204.16933433688126,125.09521288287466L204.75974304903997,124.85281876502668L205.45101900758326,125.46781117815762L206.32737478989478,125.31360042306686L206.79966482143135,124.79095636387531L207.8953619912248,124.5199346878446L208.48582360481188,124.40381735524593L209.26126202359606,124.7997934112194L210.55926260853812,124.27952743958846L210.72810819044696,123.47327973080237L211.82390745071632,123.50613860557239L211.97545983410205,122.86519234096849L213.42580539576102,122.25511102262189L214.30252684759532,122.6316469018652L216.12298379583845,123.56691545022682L216.67964418094863,123.66233484811931L216.78071468018982,124.26770333678782L216.96593279014814,121.37698855056723L218.4665207873809,122.28360502193904L221.40008040346405,122.00225477395603L221.4510300476073,121.42452739325668L221.80509188328395,122.62995010706996L221.99034618895644,123.69731815684153L222.5464673507348,122.86577717785752L224.63731463679332,123.06418124042887L224.68774361950943,123.38816195058337L225.56447249610565,122.26548032031842L225.63185499448863,121.17788382162001L226.42448359322475,121.33946656401399L226.7110450624235,122.17199488408082L227.1493426778646,122.74728705398881L229.08836750482385,123.19244452846036L229.57718412821896,121.59878638629803L229.83024878417802,121.67404906683694L230.74040765115694,122.46491894330889L231.04396625649863,123.12054170630266L232.7469597593559,121.42059321894752L233.1854392814632,120.87854114228787L233.28612183689597,121.47245245385666L233.6909820371925,118.73271529549122L234.43280299035638,119.2235583290996L234.60169404893176,120.06907727254256L234.66899765921977,120.95608815159184L234.7869260803186,121.25984005450417L234.8545619487009,122.45246658057182L235.68041821305837,123.15719372720662L235.68048225162963,124.45675169929191L236.01779011211505,125.09074793977547L236.0342489530214,125.6872531233115L236.52364192355776,126.40530589275127L237.09694212814526,123.37394116939424L237.63624898854204,123.01233462260825L238.1587053518431,123.60748116170367L238.74909457400182,122.63197830073847L239.27185999301628,121.61190282380934L240.9912872782086,120.65526470935856L241.12609032687928,121.04208552565062L241.32871022250322,120.52763453150953L241.42980763650624,120.12317784809181L242.3571492586752,120.95176148770844L245.10487729384937,118.18234617459332L246.0829523139717,117.7804732191882L247.1958981337169,117.88203273034135L247.26319710352874,116.06251580069193L247.5497539322513,114.27417730279905L248.7971779673348,115.08689480662926L249.42107606797128,113.98317568466148L249.82567176112565,115.23609358094298L250.6348761407678,115.37514999011131L250.80385072791438,115.41136659814723L251.34304528878766,114.30087541664807L251.56240895055527,113.54515339602342L251.96716613228068,113.65989482905927L252.4220413848183,114.98646050377349L252.4558713842475,116.12668271499778L253.48456471851404,116.50589336474914L254.76573336826507,117.96485091417085L256.18206609573343,118.01089616139508L257.0418980704721,118.55763869895479L257.29465923928916,119.8180323461677L259.26720315377366,120.401834036221L259.4863375760181,121.49595660372704L259.77302155378794,120.68814559765599L259.82343754317077,121.45630624003311L259.95843920422186,122.37421180019831L260.0429821835093,122.3292129740035L261.5094524717898,119.57866414690577L262.1332698281408,120.30106816433735L263.61724956113426,118.67117312716954L263.836377486712,119.57305289450392L263.8530108095227,120.7284749031864L264.10599008072006,121.64781369059966L264.35904731191727,120.96364239245466L265.2354123751811,121.18573787844487L265.302979564516,122.31916265158162L265.87626677577015,122.86170092884154L265.97769737596275,122.84864156635001L266.1459508331113,122.04943656485304L267.79830560372926,121.76411029239273L267.86601479163517,120.74050170115058L268.32073598036374,120.70227050364758L269.416814597299,121.28786647709875L269.8551484084543,119.0242571750176L269.9732745138383,119.71696986179819L271.6087620816462,119.81020481365928L274.49158922787126,119.19602942536201L274.6098202080168,119.59712765686152L274.9130725419308,120.51386629176429L275.72240035823927,121.35512938718486L275.87430634590976,121.11280660448392L276.3800347206861,122.10097907562061L278.35256842612307,122.38786837747614L279.009946634285,122.79938815100212L280.02142008955207,121.69034923315714L280.71280370714265,122.42420961319635L281.420927378496,121.90005776653051L281.67413774540705,121.85755295678993L282.11205112942065,122.67226767885496L282.7194291348652,122.56558552398718L282.8371413097742,123.32428639557314L282.93839928425297,123.13097814032275L283.2080935506417,124.00050216743851L283.6972294387979,123.2079644565334L284.3042436309101,123.65331298611389L284.4052278172944,124.27296231521132L284.5233019493452,124.36024573498017L284.89411404783215,124.00506341271604L285.1134461543618,120.8639112636532L285.93959384062316,121.30528738871132L288.0636576551602,122.1006166225382L288.0807930774933,123.01204284685579L288.31670003683365,123.81424756354693L288.670863034891,122.79322892354139L289.7499027513977,123.82721969836271L289.91811815664164,124.02469762873103L290.5082317345154,123.86243804615692" style="fill: none;" fill="none"></path></g></g></g></g><g opacity="0.2"><g><g><g><path stroke="rgb(255, 112, 67)" stroke-width="2px" d="M24.832056217852735,144.91308820627154L24.899640112901857,147.6719690044647L24.933422779474064,143.49681184304052L25.084813674288853,143.7385812468095L25.11859634086106,144.9810033131355L25.135710417003683,150.2151634583056L25.152156264576746,144.2811841017239L25.16936315024292,146.09261261809394L25.185920369244243,145.3093376600013L25.219795845340002,142.78397033406338L25.27048840710302,147.37312501164445L25.38852355915393,142.744359599107L25.573919863397446,148.46194102205365L25.607516910922552,143.5338647030074L25.607646844255523,142.72077458134675L25.641095396542948,145.83362189891952L25.80978598654746,150.08751011061557L25.80984167226159,145.21408299372584L25.894019910121457,144.55914091903472L25.978550824170814,144.3360117354273L26.130424328508063,144.3693506549332L26.180894147414563,146.56059689593386L26.231623832987005,146.0584488533533L26.231642394891715,144.19861089670587L26.349547613609655,147.38824788658232L26.551890936853404,145.99350618100095L26.669666222238376,147.93016052126146L26.669963212713736,147.34477683318943L26.703690193571813,142.7819808757382L26.88897512638707,143.80103549357682L26.889012250196487,144.59067522247665L26.922572173912172,144.72139396003502L27.00695459272385,143.73487051170568L27.091040021060163,143.59981065214131L27.293531839541593,144.66119307932988L27.344020220352807,143.75372976460443L27.394675658306404,145.5127261174993L27.394991210686474,144.29773336058452L27.664621438503985,147.96492475623774L27.765542514412274,143.59131004503337L27.88367047598674,142.52225399287636L28.10279376108833,145.60694331651715L28.20410463699553,143.92933632340703L28.254593017806737,151.92049518790898L28.372788730333394,143.06390806208037L28.676200696627877,147.86682159592635L28.692750490867315,141.78532956733144L28.77711713205999,142.4471546122324L28.844563669014256,143.09589432087756L28.962458678684605,144.32585609558805L29.13156227106892,143.3738778494978L29.147936655308847,143.39705792380735L29.350426617599805,145.05865736341178L29.367457165171235,141.89938472162493L29.519057809509242,142.40466226121643L29.586649129320254,143.22902562390223L29.620118099702857,148.53117994141215L29.788933054468927,143.46373148900972L29.80545314966083,142.85625220579033L30.04166730852416,142.1049506850664L30.075515869858084,143.12691042491684L30.29456026686466,149.5699453686936L30.429601836010878,141.60820153234462L30.49678108153732,141.69421835937231L30.59788406411177,141.16950780795585L31.087023664648843,138.88470787686327L31.13782759784012,143.78475975852461L31.17145712869847,139.20220918508312L31.23876909184359,138.69285229431787L31.373470978133614,138.5455917770655L31.458066858849456,139.03525709053068L31.508486560613242,140.71527878601182L31.542467839565845,144.25689924765697L31.94704125843461,139.61456555838956L31.980556633578992,137.29229713935564L32.08154453234424,139.70908512942995L32.1324681898209,138.08951433251005L32.31759534644612,138.74139422268993L32.31772992025527,142.2441294285424L32.486144865974836,144.24898522090376L32.58754947950082,147.97035676812018L33.12695378989734,131.9979297027661L33.27864909994938,134.3578268775979L33.29581700561566,132.77409197338795L33.851805449775334,143.96240065065217L33.86891117306084,143.10477636548393L34.071331528209136,130.45372326267955L34.62771255665343,127.80180095809473L34.67837541936891,127.03150021721072L35.09966847390522,133.80119737988394L35.251218073005276,144.08159399242456L35.36952701315066,139.20415804221795L36.24640067260358,118.59789148399017L36.7350604479039,118.32897484223744L37.375633635636596,106.3382979629114L37.780349981171625,125.5652972113276L38.97749445687189,94.70616805830326L39.516819879173404,123.13469840583382L39.60111320084247,120.01259508532289L40.19158595157239,93.71711024093672L40.258792111860664,108.75185067918947L40.849029126400765,105.77240711999738L40.89936158721242,140.40626098966192L43.98490886334678,128.87717904296392L46.47994348065609,66.13318294946123L46.682380541518626,113.68587827797319L47.96367077174551,115.98267051854032L48.36811054490037,127.33391497787346L48.6381806898595,143.51265806023736L49.54877668969432,100.14936022642442L49.76743499908293,66.47819904328234L49.78476439332019,132.47575229008942L50.42504894343464,112.23817231963316L50.44211011814885,140.38362262070726L50.71160948453815,80.05793813036789L51.09968786678637,125.68509422869275L51.48714813760775,124.50240292402621L51.62248948151503,129.30924836261798L52.38108854034628,114.19047414494844L52.3976559683952,130.21017381725122L52.65047746340256,126.7007992483308L53.42638549837589,112.77186000791751L53.66221356962125,122.59986106279229L53.98240828205928,79.48292270415803L54.35368535625925,123.85309586716909L56.309117978886874,107.76605805228571L58.01205672412526,128.51943981824263L58.38318251880184,153.96554295331956L58.51783707223485,141.04104991562627L61.94051679885512,114.38014581083613L61.9742911125702,124.67819325663757L62.15974031824215,117.92044993915334L62.547165321444574,56.27076918044206L62.81736168735574,80.50713260471352L63.08687868755452,136.3756547502631L63.508203297328826,149.77655093629744L63.98071143124574,71.32424599957024L64.0310754472954,140.5038341975945L64.09864542091597,87.64018905160876L65.5655676915762,120.9873014503674L66.00391635225529,117.94635349857077L66.03710596597202,51.1959964869983L66.17226725940361,113.5786569450802L67.30168398529325,109.3342939863212L67.72356823649456,57.169901771987455L68.65076507580677,37.53789282880601L69.96571732022525,90.56950937291145L70.52229788914518,78.10496959076964L72.29240288657672,114.93695480854933L72.44401281186708,82.80080923815062L72.74750737863754,136.91922775993544L74.45013892435296,120.98268146229114L76.54086462993563,16.7222608904857L76.5409657923163,117.11586683531489L77.94039140887953,100.44356927283516L79.1708897711532,127.19696075224545L79.57600705382998,124.17538811584544L79.7273701057877,100.43507293953671L80.3848847439492,137.18191746123753L80.70540707400538,91.78643816553262L82.74542258401554,7.7313110702684185L83.13328193578819,133.5498119047259L84.73461003035831,133.0391921032516L84.81900451440805,100.46929760606282L85.05508038708128,128.1345469448234L85.5780509151428,123.69849935589926L85.78039331029132,100.62979197445131L86.48829887926432,128.27070410497848L87.0107116220893,128.41513963414718L87.82005985649293,132.3861903380763L88.39326261108067,134.26860896725003L88.49440086127407,23.861326313546726L88.91602803009516,106.15752436841574L89.4219875005852,129.1117620360481L89.89368633545674,102.64757710902146L90.43352685061396,22.01813484492618L90.80431110624387,143.71912152367514L90.83822741852998,118.14127767634164L93.48485247112973,96.89693990644868L93.60310943794192,122.59831821756052L95.2385171895596,111.31944431150158L95.45760799132796,124.14767246119737L95.72733474104996,89.791223018965L96.50286968173862,97.67703408181629L97.37989276452446,127.38130725148835L97.81832309758425,79.34764808566598L98.2732920877407,127.93799230872587L98.67778104994302,141.09640002254181L99.1331491210507,131.7687188882313L99.1671034852415,132.66016930718916L99.6726564500184,129.8573622948907L100.22920731989078,128.81703158487758L100.9539578173881,133.42567697071192L101.0549549971057,124.13478265172651L102.25198438899676,136.4525619523282L102.28573085985478,124.72489744692196L102.35336208776091,126.85159420604481L102.42065363281087,96.81072007346945L102.62292178034053,109.30750574833598L102.72441085053295,119.7835188957875L102.84233555925084,141.72256440092255L103.24700735621455,73.76568532287666L104.46068770472573,118.0777218551741L105.1182793747918,114.66644403585079L105.42180828108594,132.9215768656394L108.08584996887508,141.72166049021197L108.16975905911666,87.48560536176743L108.23718796226146,132.04882650017612L108.67566470008303,96.21192517116678L109.78831445744814,130.15988176388635L110.05848019621652,142.03766810200938L110.47963125218179,101.1750574126881L110.81698737361945,131.87394862589434L113.00856918844393,126.39148228531545L113.1265430862093,129.63650464103586L113.51439779750577,70.30693402755784L113.78448836056009,142.80053668816203L115.06567278793013,145.58285612613986L116.09409419029262,124.58446006654636L117.07178033851129,123.5007886543303L117.47657093166517,128.99816417937177L119.38146969681505,138.4500614500769L119.41560318338627,77.9610276865989L120.27546114479154,119.97671218070835L120.67966146937562,102.83067138207902L121.11822916053029,121.24853378262785L122.23095502170469,136.72167732622296L123.61360160450532,106.55960864057391L124.22055639852249,137.1357710030937L124.32188398014392,140.6427543755954L124.7601955170136,125.8125905138834L125.68740627775433,133.69650186840917L126.41215955953737,54.608325663460136L126.96859163321962,88.50860150042317L126.9688208727428,116.03872153021489L127.15421996127202,127.82048177944658L127.38989860918446,86.07112827233856L128.165921727967,89.47890156786673L128.80626753236697,112.22328664112287L128.87374005598784,115.85241762621813L129.10976488342314,122.08225571967998L129.73373815977365,125.43154193211504L131.58840748268304,145.20489537173978L132.54922549999648,148.02678601193605L132.59994868890226,138.2460789330575L133.2064737748254,135.9560735019863L135.73557412775375,150.00338230738964L135.9885756732368,145.33023338312978L136.10649945385944,139.29445081565666L136.30901911519797,146.29214609941732L136.39309711877237,122.88581310923692L136.41024182205777,155.17651886352468L136.59543858582566,123.26124163150459L137.21913621789125,125.33980674796797L137.47213590718383,134.9603079405997L137.910784342624,152.42951765308035L137.92754388638664,147.93046609864115L138.06214275410554,131.20420207507354L138.24767548834868,119.97202381167997L139.90007944801408,112.97454969756126L140.3887735628381,142.49441653465735L141.34974657205586,114.68869776194987L141.51839632587001,146.92759853430752L141.88964926959386,131.53382390705315L142.34488276689243,127.237803412792L144.26677681199476,124.88984085100645L144.31730881328204,136.57035455303492L144.53648128743112,122.38747409937884L147.25072643079415,129.93343610410207L148.17806062820122,138.66952370512797L148.3636935967298,113.66538536139068L148.46461838501904,109.26189992709472L148.56580211187895,139.24126966706552L148.6841045553577,137.72159703044966L149.07182933332118,120.17555116798695L149.29074008461384,109.25962626043739L149.3582794310917,130.87511019547276L149.6957914725289,139.89161098582318L150.06651354577804,137.50816725751667L150.21833878916306,117.16715682319948L151.16257824128476,152.92514599925912L153.55656370554325,128.73813492448733L153.8093211619794,98.12333946093571L154.24764197980141,144.59525567781498L156.0688070647092,114.0383265265257L156.22058497523722,119.59590293227231L156.62491244886857,138.84979512700664L156.7429559537766,141.92504681080524L157.0127133306414,144.5638196719917L158.41191991672903,131.57193346642043L159.13705278946338,111.87656957111824L159.71003744167078,117.98144574842665L160.23301910687513,117.02289865712528L160.6038358458383,148.25345390981465L162.67737508384994,124.1934663300569L163.1499314787191,136.36065367889614L163.30147086877156,128.94341881650138L164.2286547147505,147.67377575743348L164.41431923851707,76.49383743071984L165.00427132781988,133.01341675811935L165.59450462997904,147.822441289561L166.4207497662402,128.01102102866406L166.55521962872135,151.97101482163006L167.16218091940516,100.27343746401007L167.22959033255,110.82887508732587L168.5786203778256,144.54039599054028L169.47184243485182,111.97490138023821L169.48890639385175,134.16024225340936L169.50566129713823,125.61338397898726L169.5224941604245,139.790398629096L170.06196158129706,144.7365542308061L170.23068743892048,119.48698917081487L171.07397518799112,150.98016894921136L171.52874463767193,126.95925146750744L173.28263766752974,121.75855738767606L173.75471423716215,144.86452384039956L174.2601530462251,136.82172720676442L174.41203026294326,145.18533841943912L175.25493192439595,129.98945933601485L175.65940418088405,98.95804010036476L176.62059993295833,124.11932000893286L176.67096766138894,121.53962294809904L177.24464281645152,111.56736372715005L177.4296539611723,133.80780255247586L179.23365299660432,124.52127179299634L179.73987604614123,149.02429849295834L179.7905593269519,118.81868075689292L180.09371699515188,125.81437055554275L180.6334405703094,145.53431312931542L180.7511722352183,125.72166094282828L181.35804628494998,146.27129311438392L182.30234513516675,97.22243751225473L182.3193060755955,129.18225638694906L182.8419981750864,126.66964531393494L183.75240855587413,38.048920779088206L185.48916059482747,141.8820394657438L185.97796793727022,148.37613147478703L186.34895637385196,143.59139765812824L186.68574078862457,121.03931798586805L186.9389381622023,138.48432885469808L187.03992606096756,142.85802049447355L187.1240885212084,134.3482620919229L188.99547098311868,143.02660945806687L189.16416899788507,86.43334217561286L189.61942384137404,115.46777477065498L190.4288194086347,147.40792877935863L190.51304590744678,141.38888244991202L192.51928246326568,145.24155076742255L192.53602437321888,147.8652702030756L192.6035163868397,114.11111805003625L192.90730237551406,142.26279956537047L193.58180301267572,130.2073573767866L196.09385054374695,116.70470926557493L196.3296433473734,83.75468078185213L196.85223242829312,140.3126496031416L197.67863348455384,107.17125488806188L199.38118707026948,110.73929604007472L199.6172258191333,145.39973941558242L200.66281512716208,146.62570945221404L200.78053565492817,124.63369435205843L201.91055935510184,135.4081198375701L202.4495933554994,138.6259287112594L203.15820056447043,77.36204473667794L203.88280163863485,123.94389722393903L204.16933433688126,103.89346950866651L204.75974304903997,119.45814095664761L205.45101900758326,139.15496649480093L206.32737478989478,121.88151488717108L206.79966482143135,113.15908851823194L207.8953619912248,118.48812723444095L208.48582360481188,121.81953182790184L209.26126202359606,133.61256211280153L210.55926260853812,112.70058568678166L210.72810819044696,105.52958208528038L211.82390745071632,124.23743955606679L211.97545983410205,108.60041251314476L213.42580539576102,108.67725560806727L214.30252684759532,131.01175884372105L216.12298379583845,144.3820769911905L216.67964418094863,125.78597109137368L216.78071468018982,137.74067104227606L216.96593279014814,57.04178151060887L218.4665207873809,142.4610915050323L221.40008040346405,115.74057630524888L221.4510300476073,108.56673489423545L221.80509188328395,149.45761255963112L221.99034618895644,147.45246187441384L222.5464673507348,104.35915661389681L224.63731463679332,127.47982497132185L224.68774361950943,130.59861608946542L225.56447249610565,97.27928772630696L225.63185499448863,96.97253932280486L226.42448359322475,124.93562189843747L226.7110450624235,140.70058970273882L227.1493426778646,135.5508821703171L229.08836750482385,133.0997861744313L229.57718412821896,86.13062824828467L229.83024878417802,123.34908123828669L230.74040765115694,140.06637133034354L231.04396625649863,137.71195959001304L232.7469597593559,83.58685683016044L233.1854392814632,108.81473123845504L233.28612183689597,134.69043182861284L233.6909820371925,57.75763605528793L234.43280299035638,130.14766935322223L234.60169404893176,138.8867892220928L234.66899765921977,140.69723689918115L234.7869260803186,128.02008577862682L234.8545619487009,148.9953402281963L235.68041821305837,138.84146974608845L235.68048225162963,153.3794717161432L236.01779011211505,139.20085011366012L236.0342489530214,138.96296132892283L236.52364192355776,142.3861545291496L237.09694212814526,55.908452705739606L237.63624898854204,114.96448668938865L238.1587053518431,136.85295165901715L238.74909457400182,100.92136835420618L239.27185999301628,98.90929302913638L240.9912872782086,99.36450502726684L241.12609032687928,129.65109756359496L241.32871022250322,109.07810902308763L241.42980763650624,111.12166522898053L242.3571492586752,139.3925646604918L245.10487729384937,56.54675470311811L246.0829523139717,108.83646355979435L247.1958981337169,120.1423222990758L247.26319710352874,75.56768581547588L247.5497539322513,74.47324867711356L248.7971779673348,133.17458425150505L249.42107606797128,89.41900840144605L249.82567176112565,143.12080101422765L250.6348761407678,118.46996354403936L250.80385072791438,116.21739668424297L251.34304528878766,89.58599041266503L251.56240895055527,96.72594478810333L251.96716613228068,116.21355880330636L252.4220413848183,144.5102592228069L252.4558713842475,141.50325600301372L253.48456471851404,124.94553499958724L254.76573336826507,150.4351385704974L256.18206609573343,119.03567061314459L257.0418980704721,130.7258388508477L257.29465923928916,147.86911876853597L259.26720315377366,133.39481579226725L259.4863375760181,145.84654483041405L259.77302155378794,102.70965419209985L259.82343754317077,138.55234653299016L259.95843920422186,142.80294711672354L260.0429821835093,121.3277274727788L261.5094524717898,58.36296133851616L262.1332698281408,136.37875753596467L263.61724956113426,82.39653250171574L263.836377486712,139.64512115945456L263.8530108095227,146.44333211070116L264.10599008072006,142.1084466612425L264.35904731191727,105.73685329871485L265.2354123751811,126.1286536852044L265.302979564516,147.54445348713125L265.87626677577015,134.9363318692696L265.97769737596275,122.55799482486898L266.1459508331113,104.26247876905576L267.79830560372926,115.41394186611416L267.86601479163517,97.95925936637148L268.32073598036374,119.85140408598488L269.416814597299,134.32078149679765L269.8551484084543,68.64578974866582L269.9732745138383,135.1338545232203L271.6087620816462,121.88522455382251L274.49158922787126,105.52705626386218L274.6098202080168,128.52389526465294L274.9130725419308,140.91663077328013L275.72240035823927,140.07812430648573L275.87430634590976,115.71971584104884L276.3800347206861,144.09356172749446L278.35256842612307,128.77282329934485L279.009946634285,131.95809566126303L280.02142008955207,97.00778542980296L280.71280370714265,138.7568696869121L281.420927378496,110.23463179214735L281.67413774540705,120.91157381972602L282.11205112942065,140.80440694636007L282.7194291348652,120.19128733458899L282.8371413097742,140.20979182975452L282.93839928425297,118.82874557828015L283.2080935506417,143.35246713232382L283.6972294387979,105.56939262083117L284.3042436309101,133.564906999902L284.4052278172944,138.0637624933301L284.5233019493452,126.30280928567961L284.89411404783215,116.10019173234338L285.1134461543618,50.95501346417849L285.93959384062316,131.12847230752743L288.0636576551602,139.80131607547975L288.0807930774933,143.29657532005336L288.31670003683365,141.66796648448013L288.670863034891,100.06962803627569L289.7499027513977,146.83952600490733L289.91811815664164,128.4197297055569L290.5082317345154,120.25121896529524" style="fill: none;" fill="none"></path></g></g></g></g></g></g><g transform="translate(40, 178)" clip-path="url(#clip_1)"><clipPath id="clip_1"><rect width="290" height="22"></rect></clipPath><g><g><line x1="6.253038359801805" y1="0" x2="6.253038359801805" y2="5" style="visibility: inherit;" fill="rgb(0, 0, 0)" stroke="rgb(204, 204, 204)" stroke-width="1px"></line><line x1="24.814943069805345" y1="0" x2="24.814943069805345" y2="5" style="visibility: inherit;" fill="rgb(0, 0, 0)" stroke="rgb(204, 204, 204)" stroke-width="1px"></line><line x1="43.376847779808884" y1="0" x2="43.376847779808884" y2="5" style="visibility: inherit;" fill="rgb(0, 0, 0)" stroke="rgb(204, 204, 204)" stroke-width="1px"></line><line x1="61.93875248981244" y1="0" x2="61.93875248981244" y2="5" style="visibility: inherit;" fill="rgb(0, 0, 0)" stroke="rgb(204, 204, 204)" stroke-width="1px"></line><line x1="80.50065719981598" y1="0" x2="80.50065719981598" y2="5" style="visibility: inherit;" fill="rgb(0, 0, 0)" stroke="rgb(204, 204, 204)" stroke-width="1px"></line><line x1="99.06256190981951" y1="0" x2="99.06256190981951" y2="5" style="visibility: inherit;" fill="rgb(0, 0, 0)" stroke="rgb(204, 204, 204)" stroke-width="1px"></line><line x1="117.62446661982305" y1="0" x2="117.62446661982305" y2="5" style="visibility: inherit;" fill="rgb(0, 0, 0)" stroke="rgb(204, 204, 204)" stroke-width="1px"></line><line x1="136.1863713298266" y1="0" x2="136.1863713298266" y2="5" style="visibility: inherit;" fill="rgb(0, 0, 0)" stroke="rgb(204, 204, 204)" stroke-width="1px"></line><line x1="154.74827603983016" y1="0" x2="154.74827603983016" y2="5" style="visibility: inherit;" fill="rgb(0, 0, 0)" stroke="rgb(204, 204, 204)" stroke-width="1px"></line><line x1="173.31018074983368" y1="0" x2="173.31018074983368" y2="5" style="visibility: inherit;" fill="rgb(0, 0, 0)" stroke="rgb(204, 204, 204)" stroke-width="1px"></line><line x1="191.87208545983722" y1="0" x2="191.87208545983722" y2="5" style="visibility: inherit;" fill="rgb(0, 0, 0)" stroke="rgb(204, 204, 204)" stroke-width="1px"></line><line x1="210.4339901698408" y1="0" x2="210.4339901698408" y2="5" style="visibility: inherit;" fill="rgb(0, 0, 0)" stroke="rgb(204, 204, 204)" stroke-width="1px"></line><line x1="228.99589487984431" y1="0" x2="228.99589487984431" y2="5" style="visibility: inherit;" fill="rgb(0, 0, 0)" stroke="rgb(204, 204, 204)" stroke-width="1px"></line><line x1="247.55779958984786" y1="0" x2="247.55779958984786" y2="5" style="visibility: inherit;" fill="rgb(0, 0, 0)" stroke="rgb(204, 204, 204)" stroke-width="1px"></line><line x1="266.1197042998514" y1="0" x2="266.1197042998514" y2="5" style="visibility: inherit;" fill="rgb(0, 0, 0)" stroke="rgb(204, 204, 204)" stroke-width="1px"></line><line x1="284.6816090098549" y1="0" x2="284.6816090098549" y2="5" style="visibility: inherit;" fill="rgb(0, 0, 0)" stroke="rgb(204, 204, 204)" stroke-width="1px"></line></g><g transform="translate(0, 8)"><text x="6.253038359801805" y="0" dx="0em" dy="0.95em" style="text-anchor: middle; visibility: hidden; font-family: &quot;Helvetica Neue&quot;, sans-serif; font-size: 12px; font-weight: 200;" fill="rgb(50, 49, 63)" stroke="none" stroke-width="1px">-20M</text><text x="24.814943069805345" y="0" dx="0em" dy="0.95em" style="text-anchor: middle; visibility: inherit; font-family: &quot;Helvetica Neue&quot;, sans-serif; font-size: 12px; font-weight: 200;" fill="rgb(50, 49, 63)" stroke="none" stroke-width="1px">0</text><text x="43.376847779808884" y="0" dx="0em" dy="0.95em" style="text-anchor: middle; visibility: hidden; font-family: &quot;Helvetica Neue&quot;, sans-serif; font-size: 12px; font-weight: 200;" fill="rgb(50, 49, 63)" stroke="none" stroke-width="1px">20M</text><text x="61.93875248981244" y="0" dx="0em" dy="0.95em" style="text-anchor: middle; visibility: inherit; font-family: &quot;Helvetica Neue&quot;, sans-serif; font-size: 12px; font-weight: 200;" fill="rgb(50, 49, 63)" stroke="none" stroke-width="1px">40M</text><text x="80.50065719981598" y="0" dx="0em" dy="0.95em" style="text-anchor: middle; visibility: hidden; font-family: &quot;Helvetica Neue&quot;, sans-serif; font-size: 12px; font-weight: 200;" fill="rgb(50, 49, 63)" stroke="none" stroke-width="1px">60M</text><text x="99.06256190981951" y="0" dx="0em" dy="0.95em" style="text-anchor: middle; visibility: inherit; font-family: &quot;Helvetica Neue&quot;, sans-serif; font-size: 12px; font-weight: 200;" fill="rgb(50, 49, 63)" stroke="none" stroke-width="1px">80M</text><text x="117.62446661982305" y="0" dx="0em" dy="0.95em" style="text-anchor: middle; visibility: hidden; font-family: &quot;Helvetica Neue&quot;, sans-serif; font-size: 12px; font-weight: 200;" fill="rgb(50, 49, 63)" stroke="none" stroke-width="1px">100M</text><text x="136.1863713298266" y="0" dx="0em" dy="0.95em" style="text-anchor: middle; visibility: inherit; font-family: &quot;Helvetica Neue&quot;, sans-serif; font-size: 12px; font-weight: 200;" fill="rgb(50, 49, 63)" stroke="none" stroke-width="1px">120M</text><text x="154.74827603983016" y="0" dx="0em" dy="0.95em" style="text-anchor: middle; visibility: hidden; font-family: &quot;Helvetica Neue&quot;, sans-serif; font-size: 12px; font-weight: 200;" fill="rgb(50, 49, 63)" stroke="none" stroke-width="1px">140M</text><text x="173.31018074983368" y="0" dx="0em" dy="0.95em" style="text-anchor: middle; visibility: inherit; font-family: &quot;Helvetica Neue&quot;, sans-serif; font-size: 12px; font-weight: 200;" fill="rgb(50, 49, 63)" stroke="none" stroke-width="1px">160M</text><text x="191.87208545983722" y="0" dx="0em" dy="0.95em" style="text-anchor: middle; visibility: hidden; font-family: &quot;Helvetica Neue&quot;, sans-serif; font-size: 12px; font-weight: 200;" fill="rgb(50, 49, 63)" stroke="none" stroke-width="1px">180M</text><text x="210.4339901698408" y="0" dx="0em" dy="0.95em" style="text-anchor: middle; visibility: inherit; font-family: &quot;Helvetica Neue&quot;, sans-serif; font-size: 12px; font-weight: 200;" fill="rgb(50, 49, 63)" stroke="none" stroke-width="1px">200M</text><text x="228.99589487984431" y="0" dx="0em" dy="0.95em" style="text-anchor: middle; visibility: hidden; font-family: &quot;Helvetica Neue&quot;, sans-serif; font-size: 12px; font-weight: 200;" fill="rgb(50, 49, 63)" stroke="none" stroke-width="1px">220M</text><text x="247.55779958984786" y="0" dx="0em" dy="0.95em" style="text-anchor: middle; visibility: inherit; font-family: &quot;Helvetica Neue&quot;, sans-serif; font-size: 12px; font-weight: 200;" fill="rgb(50, 49, 63)" stroke="none" stroke-width="1px">240M</text><text x="266.1197042998514" y="0" dx="0em" dy="0.95em" style="text-anchor: middle; visibility: hidden; font-family: &quot;Helvetica Neue&quot;, sans-serif; font-size: 12px; font-weight: 200;" fill="rgb(50, 49, 63)" stroke="none" stroke-width="1px">260M</text><text x="284.6816090098549" y="0" dx="0em" dy="0.95em" style="text-anchor: middle; visibility: hidden; font-family: &quot;Helvetica Neue&quot;, sans-serif; font-size: 12px; font-weight: 200;" fill="rgb(50, 49, 63)" stroke="none" stroke-width="1px">280M</text></g><line x1="0" y1="0" x2="290" y2="0" fill="rgb(0, 0, 0)" stroke="rgb(204, 204, 204)" stroke-width="1px"></line></g></g></g></g></svg>