<svg viewBox="0 0 330 200.00001525878906" xmlns="http://www.w3.org/2000/svg"><g><g><g><g><g><line x1="40" y1="166.61283081642392" x2="35" y2="166.61283081642392" style="visibility: inherit;" fill="rgb(0, 0, 0)" stroke="rgb(204, 204, 204)" stroke-width="1px"></line><line x1="40" y1="151.69081463641564" x2="35" y2="151.69081463641564" style="visibility: inherit;" fill="rgb(0, 0, 0)" stroke="rgb(204, 204, 204)" stroke-width="1px"></line><line x1="40" y1="136.76879845640738" x2="35" y2="136.76879845640738" style="visibility: inherit;" fill="rgb(0, 0, 0)" stroke="rgb(204, 204, 204)" stroke-width="1px"></line><line x1="40" y1="121.84678227639913" x2="35" y2="121.84678227639913" style="visibility: inherit;" fill="rgb(0, 0, 0)" stroke="rgb(204, 204, 204)" stroke-width="1px"></line><line x1="40" y1="106.92476609639087" x2="35" y2="106.92476609639087" style="visibility: inherit;" fill="rgb(0, 0, 0)" stroke="rgb(204, 204, 204)" stroke-width="1px"></line><line x1="40" y1="92.00274991638261" x2="35" y2="92.00274991638261" style="visibility: inherit;" fill="rgb(0, 0, 0)" stroke="rgb(204, 204, 204)" stroke-width="1px"></line><line x1="40" y1="77.08073373637434" x2="35" y2="77.08073373637434" style="visibility: inherit;" fill="rgb(0, 0, 0)" stroke="rgb(204, 204, 204)" stroke-width="1px"></line><line x1="40" y1="62.158717556366085" x2="35" y2="62.158717556366085" style="visibility: inherit;" fill="rgb(0, 0, 0)" stroke="rgb(204, 204, 204)" stroke-width="1px"></line><line x1="40" y1="47.23670137635784" x2="35" y2="47.23670137635784" style="visibility: inherit;" fill="rgb(0, 0, 0)" stroke="rgb(204, 204, 204)" stroke-width="1px"></line><line x1="40" y1="32.31468519634956" x2="35" y2="32.31468519634956" style="visibility: inherit;" fill="rgb(0, 0, 0)" stroke="rgb(204, 204, 204)" stroke-width="1px"></line><line x1="40" y1="17.3926690163413" x2="35" y2="17.3926690163413" style="visibility: inherit;" fill="rgb(0, 0, 0)" stroke="rgb(204, 204, 204)" stroke-width="1px"></line><line x1="40" y1="2.470652836333045" x2="35" y2="2.470652836333045" style="visibility: inherit;" fill="rgb(0, 0, 0)" stroke="rgb(204, 204, 204)" stroke-width="1px"></line></g><g transform="translate(30, 0)"><text x="0" y="166.61283081642392" dx="0em" dy="0.3em" style="text-anchor: end; visibility: inherit; font-family: &quot;Helvetica Neue&quot;, sans-serif; font-size: 12px; font-weight: 200;" fill="rgb(50, 49, 63)" stroke="none" stroke-width="1px">-50</text><text x="0" y="151.69081463641564" dx="0em" dy="0.3em" style="text-anchor: end; visibility: hidden; font-family: &quot;Helvetica Neue&quot;, sans-serif; font-size: 12px; font-weight: 200;" fill="rgb(50, 49, 63)" stroke="none" stroke-width="1px">0</text><text x="0" y="136.76879845640738" dx="0em" dy="0.3em" style="text-anchor: end; visibility: inherit; font-family: &quot;Helvetica Neue&quot;, sans-serif; font-size: 12px; font-weight: 200;" fill="rgb(50, 49, 63)" stroke="none" stroke-width="1px">50</text><text x="0" y="121.84678227639913" dx="0em" dy="0.3em" style="text-anchor: end; visibility: hidden; font-family: &quot;Helvetica Neue&quot;, sans-serif; font-size: 12px; font-weight: 200;" fill="rgb(50, 49, 63)" stroke="none" stroke-width="1px">100</text><text x="0" y="106.92476609639087" dx="0em" dy="0.3em" style="text-anchor: end; visibility: inherit; font-family: &quot;Helvetica Neue&quot;, sans-serif; font-size: 12px; font-weight: 200;" fill="rgb(50, 49, 63)" stroke="none" stroke-width="1px">150</text><text x="0" y="92.00274991638261" dx="0em" dy="0.3em" style="text-anchor: end; visibility: hidden; font-family: &quot;Helvetica Neue&quot;, sans-serif; font-size: 12px; font-weight: 200;" fill="rgb(50, 49, 63)" stroke="none" stroke-width="1px">200</text><text x="0" y="77.08073373637434" dx="0em" dy="0.3em" style="text-anchor: end; visibility: inherit; font-family: &quot;Helvetica Neue&quot;, sans-serif; font-size: 12px; font-weight: 200;" fill="rgb(50, 49, 63)" stroke="none" stroke-width="1px">250</text><text x="0" y="62.158717556366085" dx="0em" dy="0.3em" style="text-anchor: end; visibility: hidden; font-family: &quot;Helvetica Neue&quot;, sans-serif; font-size: 12px; font-weight: 200;" fill="rgb(50, 49, 63)" stroke="none" stroke-width="1px">300</text><text x="0" y="47.23670137635784" dx="0em" dy="0.3em" style="text-anchor: end; visibility: inherit; font-family: &quot;Helvetica Neue&quot;, sans-serif; font-size: 12px; font-weight: 200;" fill="rgb(50, 49, 63)" stroke="none" stroke-width="1px">350</text><text x="0" y="32.31468519634956" dx="0em" dy="0.3em" style="text-anchor: end; visibility: hidden; font-family: &quot;Helvetica Neue&quot;, sans-serif; font-size: 12px; font-weight: 200;" fill="rgb(50, 49, 63)" stroke="none" stroke-width="1px">400</text><text x="0" y="17.3926690163413" dx="0em" dy="0.3em" style="text-anchor: end; visibility: inherit; font-family: &quot;Helvetica Neue&quot;, sans-serif; font-size: 12px; font-weight: 200;" fill="rgb(50, 49, 63)" stroke="none" stroke-width="1px">450</text><text x="0" y="2.470652836333045" dx="0em" dy="0.3em" style="text-anchor: end; visibility: hidden; font-family: &quot;Helvetica Neue&quot;, sans-serif; font-size: 12px; font-weight: 200;" fill="rgb(50, 49, 63)" stroke="none" stroke-width="1px">500</text></g><line x1="40" y1="0" x2="40" y2="178" fill="rgb(0, 0, 0)" stroke="rgb(204, 204, 204)" stroke-width="1px"></line></g></g><g transform="translate(40, 0)" clip-path="url(#clip_0)"><clipPath id="clip_0"><rect width="290" height="178"></rect></clipPath><g><g><g><line x1="13.440144784513492" y1="0" x2="13.440144784513492" y2="178" fill="rgb(0, 0, 0)" stroke="rgb(60, 60, 60)" stroke-width="1px" opacity="0.25"></line><line x1="33.14362416693375" y1="0" x2="33.14362416693375" y2="178" fill="rgb(0, 0, 0)" stroke="rgb(60, 60, 60)" stroke-width="1px" opacity="0.25"></line><line x1="52.84710354935401" y1="0" x2="52.84710354935401" y2="178" fill="rgb(0, 0, 0)" stroke="rgb(60, 60, 60)" stroke-width="1px" opacity="0.25"></line><line x1="72.55058293177426" y1="0" x2="72.55058293177426" y2="178" fill="rgb(0, 0, 0)" stroke="rgb(60, 60, 60)" stroke-width="1px" opacity="0.25"></line><line x1="92.25406231419453" y1="0" x2="92.25406231419453" y2="178" fill="rgb(0, 0, 0)" stroke="rgb(60, 60, 60)" stroke-width="1px" opacity="0.25"></line><line x1="111.95754169661478" y1="0" x2="111.95754169661478" y2="178" fill="rgb(0, 0, 0)" stroke="rgb(60, 60, 60)" stroke-width="1px" opacity="0.25"></line><line x1="131.66102107903504" y1="0" x2="131.66102107903504" y2="178" fill="rgb(0, 0, 0)" stroke="rgb(60, 60, 60)" stroke-width="1px" opacity="0.25"></line><line x1="151.3645004614553" y1="0" x2="151.3645004614553" y2="178" fill="rgb(0, 0, 0)" stroke="rgb(60, 60, 60)" stroke-width="1px" opacity="0.25"></line><line x1="171.06797984387558" y1="0" x2="171.06797984387558" y2="178" fill="rgb(0, 0, 0)" stroke="rgb(60, 60, 60)" stroke-width="1px" opacity="0.25"></line><line x1="190.7714592262958" y1="0" x2="190.7714592262958" y2="178" fill="rgb(0, 0, 0)" stroke="rgb(60, 60, 60)" stroke-width="1px" opacity="0.25"></line><line x1="210.47493860871606" y1="0" x2="210.47493860871606" y2="178" fill="rgb(0, 0, 0)" stroke="rgb(60, 60, 60)" stroke-width="1px" opacity="0.25"></line><line x1="230.17841799113634" y1="0" x2="230.17841799113634" y2="178" fill="rgb(0, 0, 0)" stroke="rgb(60, 60, 60)" stroke-width="1px" opacity="0.25"></line><line x1="249.88189737355657" y1="0" x2="249.88189737355657" y2="178" fill="rgb(0, 0, 0)" stroke="rgb(60, 60, 60)" stroke-width="1px" opacity="0.25"></line><line x1="269.5853767559768" y1="0" x2="269.5853767559768" y2="178" fill="rgb(0, 0, 0)" stroke="rgb(60, 60, 60)" stroke-width="1px" opacity="0.25"></line><line x1="289.28885613839714" y1="0" x2="289.28885613839714" y2="178" fill="rgb(0, 0, 0)" stroke="rgb(60, 60, 60)" stroke-width="1px" opacity="0.25"></line></g><g><line x1="0" y1="166.61283081642392" x2="290" y2="166.61283081642392" fill="rgb(0, 0, 0)" stroke="rgb(60, 60, 60)" stroke-width="1px" opacity="0.25"></line><line x1="0" y1="151.69081463641564" x2="290" y2="151.69081463641564" fill="rgb(0, 0, 0)" stroke="rgb(60, 60, 60)" stroke-width="1px" opacity="0.25"></line><line x1="0" y1="136.76879845640738" x2="290" y2="136.76879845640738" fill="rgb(0, 0, 0)" stroke="rgb(60, 60, 60)" stroke-width="1px" opacity="0.25"></line><line x1="0" y1="121.84678227639913" x2="290" y2="121.84678227639913" fill="rgb(0, 0, 0)" stroke="rgb(60, 60, 60)" stroke-width="1px" opacity="0.25"></line><line x1="0" y1="106.92476609639087" x2="290" y2="106.92476609639087" fill="rgb(0, 0, 0)" stroke="rgb(60, 60, 60)" stroke-width="1px" opacity="0.25"></line><line x1="0" y1="92.00274991638261" x2="290" y2="92.00274991638261" fill="rgb(0, 0, 0)" stroke="rgb(60, 60, 60)" stroke-width="1px" opacity="0.25"></line><line x1="0" y1="77.08073373637434" x2="290" y2="77.08073373637434" fill="rgb(0, 0, 0)" stroke="rgb(60, 60, 60)" stroke-width="1px" opacity="0.25"></line><line x1="0" y1="62.158717556366085" x2="290" y2="62.158717556366085" fill="rgb(0, 0, 0)" stroke="rgb(60, 60, 60)" stroke-width="1px" opacity="0.25"></line><line x1="0" y1="47.23670137635784" x2="290" y2="47.23670137635784" fill="rgb(0, 0, 0)" stroke="rgb(60, 60, 60)" stroke-width="1px" opacity="0.25"></line><line x1="0" y1="32.31468519634956" x2="290" y2="32.31468519634956" fill="rgb(0, 0, 0)" stroke="rgb(60, 60, 60)" stroke-width="1px" opacity="0.25"></line><line x1="0" y1="17.3926690163413" x2="290" y2="17.3926690163413" fill="rgb(0, 0, 0)" stroke="rgb(60, 60, 60)" stroke-width="1px" opacity="0.25"></line><line x1="0" y1="2.470652836333045" x2="290" y2="2.470652836333045" fill="rgb(0, 0, 0)" stroke="rgb(60, 60, 60)" stroke-width="1px" opacity="0.25"></line></g></g></g><g><g><line x1="0" y1="151.69081463641564" x2="290" y2="151.69081463641564" fill="rgb(0, 0, 0)" stroke="rgb(153, 153, 153)" stroke-width="1.5px"></line></g></g><g><g><line x1="13.440144784513492" y1="0" x2="13.440144784513492" y2="178" fill="rgb(0, 0, 0)" stroke="rgb(153, 153, 153)" stroke-width="1.5px"></line></g></g><g><g><g><g><g><path stroke="rgb(255, 112, 67)" stroke-width="2px" d="M13.458887719276019,147.32270582531072L13.458946829714167,147.55007442220057L13.477355790501163,147.7476789473007L13.49570564085001,147.57446738599825L13.53276000417659,147.48564016924058L13.532937335491031,147.56402070220108L13.569952291858845,147.5508228038149L13.587947479578808,147.45136371342298L13.588361252645841,147.4832972823416L13.606612585597777,147.42037458220796L13.625198877699214,147.3808929925005L13.625238284657978,147.3554486947424L13.625395912493039,147.34391674046535L13.699012052161637,147.31021945383628L13.717677158180603,147.35502982885941L13.735849677215011,147.40295053220376L13.772864633582826,147.50060971626382L13.7912932978492,147.52053387562114L13.791608553519321,147.48588661617356L13.809643148198049,147.4351779080509L13.828485585531459,147.42275501414133L13.846638401086482,147.57095359639533L13.846914249797837,147.68284637539082L13.84711128459166,147.66098878807372L13.88375187485121,147.6504417292077L13.883909502686269,147.66264342814986L13.92066831382211,147.61843438266652L13.920944162533466,147.59428387811482L13.939175792006019,147.5874268512561L13.939294012882314,147.55999612263088L13.957742380628074,147.55277181383627L14.031476741172966,147.5232956368424L14.049885701959962,147.52416377215806L14.06862962189646,147.49668535422586L14.105447543470447,147.48898069745832L14.124092946010034,147.55645827278667L14.179280421412253,147.52026959044179L14.234566414211386,147.56343698140165L14.253546775900473,147.5243933396471L14.271502556661671,147.51304943159613L14.271778405373025,147.54105480387244L14.271857219290554,147.57647315553322L14.308596326947017,147.5387905726279L14.308734251302692,147.54625902822747L14.345394545041625,147.55902837546253L14.36388231974615,147.54044635502984L14.400798758717052,147.52230243468057L14.419266829942195,147.5958749127414L14.419582085612312,147.5604664845526L14.437794011605485,147.54301385502694L14.474690747097004,147.54172541582219L14.49359229486856,147.5607784128689L14.511843627820495,147.55756844001152L14.512020959134937,147.55027568294736L14.530193478169345,147.61741447693157L14.53023288512811,147.5964547692917L14.530291995566255,147.6272775678612L14.549055618982134,147.58776805104506L14.586090278829332,147.5749524280087L14.604164280466826,147.54392426358584L14.604420425698796,147.60542927620043L14.604479536136944,147.58064805691134L14.622533834295057,147.6288139968036L14.641218643793405,147.60240813701427L14.659450273265959,147.58677904089427L14.65970641849793,147.58660439812869L14.696563747030686,147.570232050959L14.715150039132123,147.54905497214926L14.733854552109854,147.5352324048772L14.752125588541173,147.5105706191702L14.80760861613413,147.49324460295082L14.825741728209772,147.51131146091657L14.82597816996236,147.49269328782913L14.844268909873062,147.48833287303054L14.844387130749356,147.46285146003567L14.862677870660058,147.44887979859146L14.862776388056968,147.44783300234295L14.88155971495223,147.43708639469597L14.899692827027872,147.4706986471448L14.91827911912931,147.44634464769456L14.936865411230745,147.50723423657308L14.936885114710128,147.49971457454228L14.973584815407824,147.483587862202L14.973919774557325,147.4873978684493L14.97395918151609,147.47388827670346L14.974057698913,147.51044770442982L14.992446956220615,147.49503568277277L14.992466659699996,147.4703257909299L15.010599771775638,147.44574712147235L15.01069828917255,147.4356002955459L15.029166360397694,147.4506612905588L15.02946191258843,147.4335625209024L15.047476803787777,147.46205209294783L15.121664344358464,147.46704022995837L15.158541376370604,147.44655084722078L15.195300187506447,147.42103888565816L15.251098470769522,147.39793993210898L15.306187428774829,147.40403966904708L15.324951052190709,147.45726664179884L15.343379716457088,147.44414909308958L15.343438826895234,147.42967432682985L15.38037496934552,147.41018761141459L15.417389925713334,147.43599652240965L15.453872888137823,147.47884165420786L15.472439476759877,147.54327304999958L15.472715325471233,147.5309701739295L15.472754732429998,147.52803196570298L15.472774435909379,147.4929124058101L15.509710578359664,147.5164414403781L15.583326718028262,147.55788805557512L15.602031231005995,147.54023609426392L15.620538709189903,147.5267084465106L15.694489808008003,147.5369269917034L15.712741140959936,147.52732500020934L15.712780547918701,147.50894396718735L15.749559062533928,147.48561698198503L15.786455798025447,147.4703784489451L15.786751350216184,147.45401854864923L15.823569271790173,147.50877900206004L15.841879715180257,147.4951819082123L15.842017639535934,147.47576310708257L15.915712593122063,147.4533957429603L15.934160960867823,147.4520489438156L15.952609328613583,147.44079037744763L15.97153057986452,147.4139762816351L16.008545536232337,147.47577878324753L16.026658944828593,147.4740637673923L16.082063158504024,147.49813505837102L16.082181379380316,147.5050693688873L16.10057063668793,147.5476470075713L16.10066915408484,147.53178803338176L16.11917663226875,147.5200690451278L16.13788114524648,147.52466543317098L16.156033960801505,147.5065618446521L16.156073367760268,147.48877153828332L16.211359360559403,147.496511411129L16.266862091631744,147.4749731369055L16.267197050781242,147.44136104333666L16.285507494171327,147.44045472546256L16.34112844611996,147.4226337016693L16.37763111202383,147.4867330949759L16.377709925941364,147.48333185729774L16.377867553776422,147.46826772222852L16.433015622219877,147.44085232952935L16.451661024759463,147.42788605053698L16.451936873470814,147.43209625938388L16.48847894633345,147.43173776789328L16.488715388086042,147.40937043793826L16.52533627486621,147.41510181765995L16.562469452110317,147.3975072980461L16.562646783424757,147.38368114282667L16.562705893862905,147.3641494164628L16.617893369265126,147.37390001302833L16.617932776223892,147.3733659036296L16.654790104756646,147.39790321632273L16.67323847250241,147.38051621297336L16.72899734880672,147.40779353116827L16.784460672920293,147.3950292820503L16.802672598913464,147.41528350676404L16.802948447624818,147.42634080425086L16.857840370836303,147.43889590403893L16.91340221234679,147.4528109758105L16.91344161930555,147.44274131351779L16.931968800968843,147.45122467254987L17.00582138239003,147.42832875039292L17.006116934580767,147.49331331109497L17.042777228319697,147.51913951375477L17.09814203503636,147.5079729238545L17.098476994185862,147.50052454331734L17.09853610462401,147.48869867009563L17.13503877052788,147.50224704540375L17.135176694883558,147.50527920991416L17.15378269046438,147.50630855724194L17.17210495594209,147.47885010753043L17.19049815394558,147.49023499874357L17.20918099309599,147.46167361443352L17.227491436486073,147.49394768672835L17.301374558300306,147.48600140807355L17.30158144483382,147.45932265944046L17.3384092181475,147.44540847515105L17.35669897288423,147.42577778708272L17.356967925377802,147.41690822666965L17.357092057297912,147.4019191673699L17.375257680114537,147.37408266562986L17.412230274001676,147.3455235182867L17.430602783351816,147.32611212881363L17.43070622661857,147.34325619240323L17.449099424622062,147.34783563750827L17.46772019781242,147.3678273740117L17.486113395815906,147.34492398538254L17.54178951750681,147.33682521609427L17.5601827155103,147.31823854771994L17.59709324343739,147.39246905833605L17.615589884707635,147.36351310341678L17.652500412634723,147.33274408965846L17.671203940438485,147.32603623660265L17.689162676721594,147.33771551697168L17.68941094056181,147.33881007419689L17.70794895913876,147.32112395755064L17.78168726037953,147.34100045724875L17.781852769606342,147.3532808940794L17.80005976972967,147.33613925432238L17.855756580073926,147.3015895744337L17.874191155384118,147.29945876593774L17.892542976080904,147.2909691594748L17.948136343158403,147.34641680579875L17.948301852385214,147.3962559124063L17.984943427818735,147.38753395599517L18.021998776319283,147.37826748068179L18.040536794896234,147.3716405483172L18.077654209356837,147.42558069321254L18.095923275440217,147.41676629282713L18.096130161973733,147.407530478821L18.096150850627083,147.3950984681291L18.114440605363814,147.36823151013917L18.132818040583796,147.33912236257495L18.151126513625943,147.38784018970136L18.18798187181076,147.35183234030907L18.188198610083965,147.32668629713135L18.188263631565928,147.2955179609693L18.206485409298793,147.26195977184946L18.225097315923428,147.24332172183546L18.317463286572334,147.23783734428383L18.33629193147018,147.23983263499957L18.35431864475715,147.21632638888028L18.39156413183374,147.213012796131L18.410067669321773,147.19477356101822L18.428181077918033,147.18482373918863L18.446836332197304,147.15779468649998L18.484081819273893,147.14438450145994L18.520568722394263,147.12441889421015L18.557640818852285,147.1655705545387L18.57629607313156,147.14575269171092L18.594691241482987,147.16775794133028L18.612956366870492,147.14817153252847L18.687013864477255,147.13388127193932L18.705669118756532,147.11187288610103L18.705799161720456,147.13717350912566L18.760984666774736,147.12499221325007L18.79773165582295,147.12685352923708L18.816266718877998,147.09258731389417L18.816380013884444,147.0597433623907L18.816583944896053,147.04122653056018L18.89020993630434,147.01585309372354L18.89027791330821,146.99094859524484L18.908809035667375,146.96912318243096L18.92693229600333,147.02673566593577L18.96403985872424,147.02833918846545L18.982729594092437,147.08758527239772L19.00137401145805,147.06483010077076L19.019293340782394,147.03416404643573L19.056446221505883,147.01880295486927L19.148739289281078,147.03501079007586L19.148807266284948,147.00833256230965L19.18586951100328,146.9826483028273L19.204355315359866,147.0497007912878L19.204423292363735,147.05244719983628L19.222795801713875,147.01725874727376L19.222954414722903,147.047840426771L19.277958647766866,147.02922594960972L19.278094601774608,147.00141006549362L19.31515684649294,147.00100987712096L19.315338118503252,146.9813310385664L19.44443630059084,147.02583654364855L19.44460180981765,147.01864114863707L19.463128991480943,147.01161595972974L19.5181430762646,147.11048484297322L19.536796360195936,147.07317992884379L19.591999598381662,147.05588063547242L19.59207053090744,147.02219177641405L19.592543414412617,147.04097413864162L19.610605593962482,147.09258227917374L19.62911701284227,147.05036802707832L19.684462116079548,147.0231710592096L19.68467491365688,146.98556513772024L19.684840422883692,146.96259842564785L19.703044467485107,147.02442028534958L19.72146130966386,147.04595352408165L19.740256458646748,147.05124142021737L19.77675912455062,147.01707781581823L19.795199610904625,146.9786408608468L19.795629146755164,146.94771023192138L19.851043212170282,146.92028624590793L19.90658042433154,146.89785332373532L19.943358938946766,146.88848097889692L19.96184671365129,146.88245806228946L20.01713763232027,146.8824384348612L20.072748732529213,146.86167264012974L20.07287187927535,146.85109786492802L20.09084243764609,146.8215617851612L20.10937947104907,146.81785035215506L20.16513834735338,146.79333528166705L20.18345371661331,146.77467632452334L20.238951521815803,146.72703511493071L20.2573604826028,146.73300516037943L20.257539784265177,146.706617679445L20.34991757700172,146.70681700645173L20.367891090894364,146.66456706807162L20.3684289958815,146.62069125350487L20.423630263719293,146.58392677926153L20.42388640895126,146.54351121646457L20.441885537367103,146.549169457238L20.46052502886287,146.59001528416417L20.47926697845143,146.59100982731138L20.53428894462684,146.5517198419358L20.53472439152119,146.63495780568766L20.55299050208266,146.67555684474902L20.571312767560375,146.62331136453219L20.589661632735254,146.6323811772479L20.608622290944957,146.5800191262335L20.663535887983763,146.6722131042999L20.663562487680927,146.6221266977928L20.682044351341638,146.6046837414681L20.70087201106551,146.58578470600582L20.719034678360227,146.54474073378466L20.719460273514887,146.51931110281487L20.737596341112436,146.52098491041517L20.755865407195813,146.47828399612692L20.774772866011187,146.43535232143813L20.774852665102685,146.43325872847672L20.81155039545244,146.3985941920566L20.81165679424111,146.40917694423027L20.830165257598985,146.39021000403605L20.848221526105036,146.44789264112984L20.848274725499365,146.50018240376687L20.867245235448763,146.4415370072278L20.885307414998625,146.37262325898885L20.885666018323384,146.37494678861145L20.903700613002112,146.34793415427617L20.959156055723938,146.31510125147287L20.977576838598562,146.32626523069564L20.977825102438782,146.32796743692586L21.014859762285976,146.26732814638711L21.03339088464514,146.22509057440368L21.033446054387415,146.22039617598114L21.03347363925855,146.17880347860816L21.088791157624694,146.27184804322928L21.236431298985107,146.21511062599686L21.2916355223448,146.1570379714588L21.310103593569945,146.17335539189116L21.328885935291236,146.1230634008323L21.34703973602023,146.08989142471088L21.347525426787005,146.04852838638203L21.365907787876836,146.0754555394262L21.40258679992118,146.04666770714786L21.439849034955245,145.99652923444825L21.45842547531699,146.07191098744218L21.476735918707075,146.14855992896332L21.55050968621073,146.20560440815743L21.66125900312344,146.16280646622783L21.753642706903793,146.11611373132985L21.753795408869006,146.0464519363594L21.79068820366465,146.0058545575293L21.82742829649508,146.0081349716212L21.919874066235487,145.96350467710946L21.938578579213218,145.89301880810487L21.93870468148127,145.86083152020834L21.95710576087651,145.8961973035758L22.012119845660166,145.83270075824333L22.06782749291808,145.78685388571532L22.06792206961912,145.73384559049657L22.08632314901436,145.75787607494593L22.178859554759928,145.68090701937723L22.23427263500108,145.63628644346048L22.344741177332587,145.73506757383785L22.473941817512962,145.68202986162305L22.492776373454618,145.63785137394768L22.566339313728886,145.62413081597157L22.584772903865105,145.52633485698559L22.603738487944653,145.42375254271707L22.695702507614165,145.37017097413886L22.714254318626683,145.4439834188582L22.751530346096313,145.3613045230821L22.788022175086525,145.27760628715805L22.843769229303206,145.20748681414918L22.86226882609536,145.19046154016849L22.899019755839447,145.2616890374483L22.917661217683158,145.30714885079837L22.93598348316087,145.21885220610739L22.95441214742725,145.20962814816306L22.954554012478802,145.1963924386181L22.97306838688049,145.1035631518404L23.010173979253466,145.1224814894783L23.065322047696924,145.06080872081668L23.102318285759324,145.05756577123935L23.23167458342682,145.03983498292183L23.28734873476979,144.98432405058114L23.305395151536146,144.89845726834875L23.324051390989393,144.8853225636158L23.37962406941354,144.8722891325544L23.416531641818718,144.79146384030628L23.471835367749296,144.6985744236804L23.545426878068668,144.65693622542733L23.56422990844331,144.72430065411535L23.638141600302646,144.61900524385214L23.63826277670085,144.59695292951366L23.730371616943817,144.5812750462749L23.767336329439203,144.4985248901113L23.804512854337954,144.57327112146055L23.85965107104172,144.6036989472018L23.878499419418947,144.5389193390253L23.914954796972296,144.4456991933284L23.97085947902404,144.34409440493448L24.007500069283587,144.24857317906554L24.025947451855377,144.14717558962914L24.02620162673941,144.09157086922875L24.062926941960306,144.0571799455582L24.17383585705601,143.95100897232535L24.376903856267113,143.9564471084256L24.469373270182775,143.9653054111192L24.487587166523888,143.91876923373124L24.487995028547104,143.84375158563188L24.52455976041103,143.75050260323664L24.54301206885267,143.67286199014873L24.543289887911957,143.54012044417314L24.635505126943592,143.45438530139512L24.709444403674063,143.50458268031718L24.783253637440605,143.45907022971238L24.838681495291294,143.41928085163485L24.87563044500318,143.299651745936L24.87577526557664,143.19215983416902L24.986830971593744,143.08441114731946L25.005023194107533,142.9434364818217L25.042308088142885,143.1130870132451L25.060656953317768,143.0004253264205L25.07875459913052,142.85433770840987L25.07905606236507,142.7696699935602L25.22690111991106,142.66539671095123L25.226952348957454,142.72928152460617L25.245258851651663,142.61942856229786L25.245463767837236,142.5869266325153L25.28213489848983,142.54831596121716L25.39285860087934,142.49386365013225L25.411766059694713,142.49870987415682L25.467264850071174,142.36943761785287L25.52224346859194,142.32181720284393L25.651717001961764,142.1853174126581L25.762598332186332,142.14535691452716L25.85467663203626,142.15801685999952L25.928777477297665,142.02896454898035L25.965674212789185,141.99733471858954L26.09487386779559,142.0525845672795L26.205690176538198,142.01178083441587L26.242869656958856,142.0594332224268L26.408920729454202,142.01072376500548L26.464361394566488,141.99220136891577L26.483329934167944,141.84527305501675L26.501352706759043,141.70866237649957L26.557077101974436,141.4854552944206L26.630650879162364,141.39389865449752L26.741831702273547,141.71104417660328L27.055730787836787,141.53809580681343L27.111091653857578,141.38027906236778L27.129599132041484,141.21884679241282L27.147915486475384,140.96921027136827L27.240649912188744,140.92070313959226L27.25876233561103,140.70055275992388L27.295922112552308,140.4891928931258L27.33307203775389,140.33624970592666L27.60989902685911,140.08748229017618L27.64675438504393,139.87906497584277L27.88732401656359,139.9159347539134L27.94264449045164,139.61593401086307L28.127450319797145,139.44978104882216L28.29361764282085,139.30429731470056L28.496619635376017,139.14492412649477L28.552239602150685,138.92733523774442L28.607436929292593,138.61880263827558L28.736823767353133,138.33605187093156L28.82941534284097,138.23535531283108L29.03222818199407,138.1160828028024L29.19848909654484,137.7118428594217L29.2726263932431,137.74515244994365L29.291015650550715,137.58611986278353L29.51293101296507,137.27138593399852L29.641931662829712,137.00166263472394L29.808163022161406,136.67979670725626L30.01161129852459,136.22723631713674L30.01172163800913,135.9283982648023L30.140708495438208,135.4490056999839L30.178087966174594,135.2230665576639L30.343989292226638,134.7911728078236L30.990604286163336,134.36503057702643L31.11986305160789,133.97578502840116L31.249521797683904,133.5005729353914L31.508215674713487,132.9346057045475L31.56329675132704,132.62398344253347L31.72959411731467,132.42311239092584L31.766534200460832,132.3720223673383L31.87753572190963,132.04741714632308L31.96966722115389,131.46168351041138L31.96996277334463,131.0954672725703L32.080578106597535,130.64604575227693L32.08072883821481,130.6287687612334L32.080879569832085,130.1384183071208L32.099228435006964,129.6265628594268L32.19159834635175,130.24268240436572L32.37598547676038,129.86126612971714L32.524072887102776,130.06622733792273L32.63478673775259,130.56740103758727L32.7271783229247,129.94908507741104L32.78252342616198,129.50981495837067L33.262990800554356,129.13942464042375L33.33707883855416,129.41304398852674L33.4479581984308,128.56717647614474L33.503165377312406,128.41266570776202L33.540248310684085,127.8379546386115L33.55833019371333,127.00340498653665L33.72474775092519,126.41096533248182L33.78015984599237,126.65921596117869L33.89138598710613,126.95046074777053L34.33464334068481,126.06139858228121L34.66690705420645,125.9190021600336L34.667027245430674,126.16796548653849L34.888713062310224,125.676483721432L35.14758624100218,126.14344534464894L35.97870461587587,125.1697191312531L36.163544926310294,125.09212227760023L36.20012049508787,124.7365531371563L36.27402824625133,124.88828115767805L36.49583326918115,124.09814245664006L36.79139432648318,123.70211342480671L36.90214167304794,122.8307891247089L37.25336407443134,121.14714328998102L37.49330220943679,120.95242721465809L37.64136794595186,119.75629165980206L38.324914156469,119.71789365715333L38.56505622248607,118.43274575543268L38.841957099638975,116.69008211053418L39.414659416542364,116.48920281720294L41.04036394516679,117.55630086805127L41.040450640476074,118.7026860629692L42.352403859632616,117.34344341808728L43.03562299239201,117.0347834446533L45.10491786339667,114.40407562685473L45.234042645181425,112.7167032499916L47.26656195709277,113.62069095429804L48.06061907242209,113.97325855155573L48.744065780368345,113.53682392684645L49.15091602991816,113.1119562639172L49.48297482725421,111.1564455406121L49.55729044044089,109.1280149362452L49.98189155456632,107.97366292178529L50.31430107383538,105.25694387505864L50.665451557519035,104.19061714253186L51.81074880736318,104.9394597252745L52.64202579524591,101.65753661160569L53.602722131930136,98.55727029501953L54.36046967545353,97.233008905588L54.41587980017277,95.66088664413583L54.85888297886742,93.70383592686231L57.796377187769515,93.32521072967144L58.01817728482948,94.7033836963905L58.07339135992886,93.96807991460317L58.42468469383804,93.49097529324338L58.51691274013127,92.23344042191799L59.31121023790906,93.80297368516237L59.551550323893906,93.83205356432754L60.23524431050642,92.8761844616598L60.45689170560117,94.44455421719358L60.65978138832386,94.16793239379038L60.82596545930504,95.52424046691057L61.583800683311686,95.98031018605462L61.75004879060086,95.56204118944417L61.84236451737734,94.3911513962006L62.76611683021953,95.64685895347341L63.15418769356996,94.38970489310952L63.46813012678785,94.94297745409992L64.39180855158236,94.94257872809956L64.70563276392394,97.10819743430226L65.14904577498974,98.76609130643705L65.38919572239855,100.21637137308342L65.46340887749244,101.42934981409658L66.10973423028223,102.31130774368339L66.29437356522695,102.63284901657593L66.34981324516527,102.9738372965437L66.42362050858387,103.22952417850611L66.47906412921806,104.23244238474214L67.56891283255818,104.3759759386081L67.58740060726271,103.11827235064906L67.60593172962187,102.15152628588285L68.19725284936769,99.40267909132996L68.23431115339015,101.3569702360957L68.71437263610726,98.59775552229532L69.12096772559906,97.97268061492532L69.17643104971263,97.54091730636239L69.25032500844053,97.79819499221836L70.1371677785296,96.12823609350221L70.37708818040362,97.64946597529321L70.46944232896489,99.81865420512733L70.48789463740653,101.79863739796762L71.22681156568414,102.11031896098582L71.44889834836913,100.17203064720893L72.15070869909981,98.18091543323831L72.83437510084116,97.38924364162052L73.42519082634082,97.49172617241773L73.6101917201322,97.72471479071865L73.62867949483675,98.6402421317017L73.96126338989833,97.06501162647153L73.99823893930738,94.94604991642376L74.07229545174017,95.70929678042236L74.27552009361237,95.12957695597218L76.15976875282307,94.42948230206578L76.47382645139534,96.54721148637834L77.67457323291751,94.19070270715935L77.69306100762203,92.67113586880184L77.73007596398985,95.06321514332934L77.74856373869437,94.16664374425913L78.45013961802039,92.33265342530338L78.56148102448854,92.36310596066691L78.96767219265301,92.01299898743747L79.50340979706102,92.37252798730715L79.94652725593608,90.40386800148462L80.5382217566162,89.86100126737372L81.16630365784579,89.5318579882854L81.8679120479128,88.73617055646872L81.99751956494241,87.70934364362788L82.55138042968638,85.35056605437087L82.77323077061877,83.93365950015507L83.8449256732299,81.71476655418508L84.99035986225576,82.09541993328972L85.39673427277847,82.7850640327267L86.83777877780484,82.58499210823847L86.8932421019184,82.34669430749695L87.00357764576408,81.12926749996556L88.18590068888972,83.24218018120426L88.48194743695852,81.88510901725155L89.7748976354247,82.94074222446875L90.40319824527543,85.48972599334898L90.42154415492841,86.68993025492792L93.15592701696475,85.07172708791504L93.8948715301135,84.89381266195845L93.91335930481803,85.10455917883947L95.04018946861102,85.82956964580049L95.15111611683817,87.0622812658197L95.50185479780272,86.2985592039091L95.61274992046286,86.5566607853736L95.98235172741418,87.58140997418025L96.09315818441709,85.65689991678428L97.14594464303887,86.10676417013819L97.97761274498734,88.79364825257518L98.42063661233534,89.14753509564473L98.51326463926003,91.12800541235042L101.83840608670583,91.93713554613664L102.22612524294928,91.47758539169655L102.39262851029645,93.01978355755274L102.83625136341767,91.88884963361501L102.9835466938889,91.46625160544205L103.16848847724214,92.6533276274926L103.22381092147812,91.39952601503478L103.33493263415116,92.43996587335597L103.53832968146794,91.95980422459381L103.98139985199249,92.7599198465238L105.03419616235398,94.0420075610804L105.08961515363895,95.2248332995208L105.71790295622809,96.09816023992461L106.23520992602178,96.66885441815832L106.88212244249715,95.8655817655295L108.50742797566407,96.40886224424807L108.74798184440023,95.44566451391346L110.61383435008553,93.18805137172772L110.74316503322983,93.84434968014764L110.96447451365317,94.37588839254725L111.83263050389596,93.08159346230094L112.01769149329947,90.77012260186157L112.03617926800399,88.92007525992364L113.51372742410818,91.33663934262843L113.56919074822176,91.77716981308825L115.85994583126704,91.32622703608392L115.91581406188192,90.60976627720717L115.93430183658644,88.45691790271822L116.22967275531242,89.50491680874843L116.41461256831774,90.39202814966814L116.58040848075508,90.22150310535862L116.747143263985,89.22919298068398L116.83922747487874,87.33111307803817L116.91332043874839,86.75457488947521L116.98686170519534,86.72578399873115L117.02432590089307,84.98782754427376L117.4118253633414,86.35306909787562L117.54160035994578,86.37178560873495L117.9292249394882,86.48750789701619L117.9476496630587,88.73260776751647L118.57605568652413,86.95747025909175L118.94523288349475,85.84753194215658L119.70280112535578,84.11477824451735L120.03519685218926,85.4043801234323L120.31259228667467,87.23386634556708L120.55280134452163,85.73395941748555L121.03275051740626,85.83941344676607L122.73247707737455,87.36637050906448L123.54556578343934,85.159648222947L124.61667352236489,86.7168932763932L124.93078639067943,83.96830222510687L125.1155705461976,84.80573741247007L125.46660970522275,84.2615729011238L126.46398209842943,82.84403101349614L126.66763627615214,84.44983632258878L127.29530735983661,86.98316671048124L127.62834344975003,85.93153372674173L127.83155725470856,86.70892599375068L129.29082649298968,87.66969053025015L129.47566877377204,88.75866807626376L131.9325734467096,89.61757783932259L132.5790288424633,90.48952530375907L132.59788507223226,91.62626505558539L133.11504229558264,92.2602176283737L133.76153709829512,91.60140429489718L134.4821544200963,93.07542064367736L135.25808630474174,92.2031913468405L135.29492097427323,93.39180181944937L135.44238575466713,91.37715948513039L135.9042717628279,93.78608041528537L136.29270319985102,92.2713026307038L136.5139062814857,92.90837355393057L137.4747060614367,92.44237853915577L139.11908948851567,92.61065683854984L139.85776701951877,93.52033117169253L139.93159792711265,93.57949585301536L140.89261641568478,90.08787973993327L141.57604637567357,89.90776768314288L142.01915890867878,87.60783155025769L142.37031431823226,88.18857899895113L142.46260935635542,90.12176438250935L144.2732231575921,90.40767038561877L144.77195565737196,90.43119040938504L145.1598285007546,89.18113595275346L145.75099002231744,89.0420912804827L146.23144163392632,86.12966299971687L147.02588690779945,83.8146669014881L147.65383581054323,86.49656962383983L149.07652356900294,86.78315267862352L150.29566847439844,88.34698241483453L150.72082424146848,89.32325805055319L150.90534338518896,89.91126493701354L151.05298845241924,87.98894360639838L152.29082703387883,86.90564428362703L153.10355319592298,86.2575797233116L154.72936412333604,84.50792906071169L154.95103319225814,85.64627372617593L155.6718721782024,85.77513574644773L155.9859407136883,88.4443487711884L156.72484384953034,87.48836237189089L157.05722282840637,87.22343342410598L158.29497471455664,88.99695835523781L158.81236443896378,90.75950556471844L159.36657208494483,90.12809397019619L159.846983304421,91.03834994629294L160.41934081043522,91.04376685626794L161.8420128061114,93.01405660353647L162.06333509379635,91.58013487178557L162.35898974262543,90.32338462819588L162.4887657244038,91.50705226696108L162.71048897789416,90.1863579539024L163.79989238260023,90.55367064440767L163.81838015730477,90.39539522412366L164.0400600631405,90.2936266349874L165.79512285978035,91.86451188153089L165.98023409305628,89.13967960491215L166.12782793124015,90.92916149089126L167.45795958047492,92.83146333180959L167.60595438446418,91.18686980149245L168.714254411072,92.27552671050533L169.4349298581374,92.93665006661875L171.96590483594326,93.04037430819616L173.20334540711934,93.11487798826255L173.24032095652836,91.1363547324591L173.85003231875575,92.93232683805174L173.86833192523218,92.1462527641914L173.8868196999367,90.57579535471439L174.12699427669475,91.31636076945905L174.33041102749092,90.40941400330124L174.36735012546313,91.34043607147768L175.9557874931836,92.38982680243281L178.22808435674347,91.48574250677287L179.2259237224115,89.16125755909293L179.33667500967215,88.1858350339372L179.41081427671833,89.98700736895701L179.48465996192175,88.68798747805918L179.50284528821774,89.18470172234524L180.61167533842092,89.51499649959881L181.23981930561058,90.91431101944654L182.20042599146365,90.08476525747822L184.04785180323046,89.53117772166387L184.2510183198385,90.30821717138942L184.3801894047998,89.45925031259391L185.17444256974895,91.845095150384L185.59921411897105,89.51290918124198L186.28288249106035,88.60087023230632L186.33834581517397,87.11342982799431L186.85597493685552,87.11308131599728L187.0402901495644,86.6811023375334L187.169547929835,84.71975027854886L187.4652341042311,86.58290323054699L188.42611171292566,84.54868370497907L188.77728288526265,84.71056469624016L188.83263488471772,86.09816187091666L189.16518823938628,87.24565380869157L190.5137850043243,84.95350110218877L192.01021007885078,84.00773363545146L192.0650822985829,83.75863371571474L192.54571222668017,83.19253688814341L192.84123092150153,85.84461088825485L197.16421666048518,83.66561381540532L197.5152725674678,86.12551519833765L198.1803960247624,84.31916486545637L199.10390105893836,85.93282274814965L200.17534474218735,85.4373037243898L200.3972157717731,85.76096817088096L202.02302669918615,86.14305068538806L202.50290986541486,87.09613308154599L203.13134642927332,87.93190638929374L204.1290350633241,86.69024500558766L207.87883082428968,87.3573344310673L209.28321010970726,87.66937546869043L209.7452025166567,85.38193737057571L210.1141787381376,85.32062147046796L210.44674095937188,83.76406035639482L210.7426980566095,84.19555639318611L210.816604822599,85.03228960777327L211.09353032910113,86.40401721190726L211.2784898455858,87.55516221603656L211.55521634694617,88.24753831617326L211.99879782276068,89.3680689130534L213.01481463333297,87.45788324363423L213.79088641268203,85.1462656377573L214.0126283844778,83.02880992372408L214.14156499803445,84.00334888321187L214.78843613720315,81.785017644529L215.71215988000023,82.71864644856586L216.93129394848205,82.30808393293829L217.48585034604824,82.9169582581092L217.63308656608132,84.23895817820524L217.781132599117,84.90248950893032L218.64936346258145,85.04157998378648L218.7048041276937,84.9907873356458L219.07405521271204,83.36627604086091L219.29590850916634,83.76530622795565L219.62854264810034,85.56163566184745L219.9425501028002,85.6569357875407L222.25212102348172,86.51959029224126L223.60064291519808,88.09774134844979L223.61890804058555,90.16349761918438L224.19160838714103,91.35407476487512L224.48746007076394,89.15716792695804L225.29984142191893,86.7254952628516L226.57500923024244,87.16531181911886L226.64891895175384,89.40419963480014L227.11076259743396,86.91767273301514L227.9420454963605,84.55838033939122L228.2190419353884,82.71270662068194L229.03166859486169,80.80158225684377L229.60451868786046,79.22688404427701L230.32474588076988,81.93346198321443L230.63889027465143,84.72914325998893L230.73138924378617,85.19610955060485L230.9531558449312,83.50212196060133L231.39662993678309,83.23612629572642L232.1355123839718,83.20624367454121L232.76328494057506,83.61208808883185L233.81652359404868,83.50172679643524L234.2044929844803,85.5760797428978L234.31532899670228,87.46440742719498L234.38928009552038,88.13902629515498L235.86737502317743,86.30383653001613L235.90436239467408,85.51087158139485L236.2182338953662,84.03649991618278L236.5139171142404,85.02674154266427L237.0124515940525,87.54713465243681L238.00996191161485,86.5926367853187L238.19513915154673,85.45800259051668L238.43509699003155,87.90398488373104L238.45350792116648,87.39682459166792L238.98904257973683,89.76055302363751L240.55947096730182,90.53626001723242L241.00309185007512,92.22164495576328L243.34930139066824,93.3211238879561L244.23596781461683,94.16828485872657L246.00928982560038,95.71121485904675L246.21239723177027,96.11169843985357L248.35553778797834,96.90027269045078L249.29798870275442,96.6874621933774L249.94441848398492,97.39531035859423L250.31384000409992,95.87156839394308L250.8681215381287,96.45995885324965L251.4776063103432,95.7494491502826L251.49593350169073,96.35086361474825L251.8843265169291,95.24255053831715L252.99272900162964,96.08429053307621L253.10363299085552,95.61461312683228L253.34344403841894,96.54605822369271L254.13794054133848,98.47558268461897L254.50725369231685,96.76000222339286L254.78440283330997,95.72206608976288L255.13544987372688,94.36285301748954L255.9486045864476,96.16919365433591L256.8908289112108,94.72028065852192L256.9827564794435,94.59936210818275L257.09357968440384,95.96424202266891L257.81435364886613,97.30066927057587L257.9436124143107,99.50068517661462L258.8490198026739,97.37932831391416L259.07048198506243,96.74195886824535L261.4723105072563,96.00890169283359L261.6381487821743,94.58710424457381L262.1739149566274,95.49151419844944L262.2108323807723,92.66535752396679L262.876237597822,90.77536585520656L264.00310716857376,92.41032794447456L265.2961046553905,91.8394854003423L266.1642842898085,90.91096656385562L266.79251692265535,90.70001466893767L267.29141985753193,89.94020655165646L267.8088204188527,89.88723118190559L268.0305939162155,92.34563284082152L268.08605724032907,90.19705174555544L269.2313052314748,88.43233540320114L269.2866798899311,86.55949447831806L270.0438461808127,87.7461606172681L270.6908788885123,88.52711456885582L270.85716640276024,87.12085366712438L270.89385428137035,86.94507540075818L271.8173120271958,87.25592764881131L273.64671408119756,86.26953613410804L273.9605008569283,88.94274141644817L274.0899014874244,89.73348804856825L274.108389262129,90.89572565771408L274.2007572031258,92.81988243222628L275.27230137411965,93.29421199640966L275.3459638169648,90.56124576251558L275.73399133266054,90.50199861362131L275.9188671093579,92.58436570683392L276.1218168876927,91.38484748557191L276.23293958553967,91.22708974727L277.48901472234166,92.30889967066953L278.02464494278706,91.78901821191504L278.07994768354365,92.62584283779763L278.46812297533484,93.31473361394234L278.4682855290397,95.72245526078977L279.5209301226099,97.33795239588237L279.5953757787605,98.09831102692362L279.8721929161261,99.30233738064767L280.94380112342793,99.32185272981243L281.0915979074494,98.1080865372389L281.3503410431775,95.19029505086381L281.4793111526491,94.92831491437995L281.497946703449,96.65367328811062L281.7381656130356,96.420393265409L281.9411025841088,94.98468286778981L284.0470823782016,93.03455870820741L284.50922945746424,92.9397993024667L285.26681740280463,94.63389435084807L285.39568406900946,95.7291687656328L286.43042214051695,95.81523125171617L286.81836591642536,96.42033596403915L286.9846701786308,95.0594062662989L287.20612349445366,94.4706105524424L287.5022214715688,93.79320042789128L287.7975519981621,92.7865780182049L288.0379176986701,95.02640554589553L288.6842686659831,97.17642575896969L288.86923606385955,98.51036204856779L289.33088464509376,96.8001912959683L289.84802413531276,95.19155826036766L289.97727797488744,92.57548346995287L290.9197505634909,93.4008478584246" style="fill: none;" fill="none"></path></g></g></g></g><g opacity="0.2"><g><g><g><path stroke="rgb(255, 112, 67)" stroke-width="2px" d="M13.458887719276019,147.32270582531072L13.458946829714167,147.76766616942413L13.477355790501163,148.11776238453L13.49570564085001,147.09825398373104L13.53276000417659,147.1669195984229L13.532937335491031,147.9081745546195L13.569952291858845,147.48273480608947L13.587947479578808,146.86513533469633L13.588361252645841,147.69398592530962L13.606612585597777,146.96286268931215L13.625198877699214,147.06838194526767L13.625238284657978,147.13835792682835L13.625395912493039,147.23872081515515L13.699012052161637,146.98379810542224L13.717677158180603,147.81332067174733L13.735849677215011,147.9178375141251L13.772864633582826,148.59825461844338L13.7912932978492,147.75391044806497L13.791608553519321,147.0643480986925L13.809643148198049,146.7962272281339L13.828485585531459,147.2610636518053L13.846638401086482,149.55873005257226L13.846914249797837,149.22620240195292L13.84711128459166,147.35154955024302L13.88375187485121,147.49745337955926L13.883909502686269,147.84369932468218L13.92066831382211,146.9483348078063L13.920944162533466,147.22085070121216L13.939175792006019,147.47939541980102L13.939294012882314,147.12016107501276L13.957742380628074,147.435001761359L14.031476741172966,147.0352311434835L14.049885701959962,147.53875099742805L14.06862962189646,147.02852419403428L14.105447543470447,147.35598441917227L14.124092946010034,148.73573327833057L14.179280421412253,146.8803793072191L14.234566414211386,148.33521497718738L14.253546775900473,146.8189941409427L14.271502556661671,147.30605642455203L14.271778405373025,148.05689806346862L14.271857219290554,148.23470209682324L14.308596326947017,146.8325332703846L14.308734251302692,147.6873632218624L14.345394545041625,147.80213046884074L14.36388231974615,147.18411175974174L14.400798758717052,147.17196638932606L14.419266829942195,149.02578941704323L14.419582085612312,146.86799343723692L14.437794011605485,147.19967193938686L14.474690747097004,147.51623511493597L14.49359229486856,147.93974545925144L14.511843627820495,147.49339505610516L14.512020959134937,147.40376983303912L14.530193478169345,148.97243579782844L14.53023288512811,147.1715690669653L14.530291995566255,148.25473329148627L14.549055618982134,146.7802517953911L14.586090278829332,147.31201853688225L14.604164280466826,146.90500930897738L14.604420425698796,148.87630854802077L14.604479536136944,147.06689597102306L14.622533834295057,148.63052368335536L14.641218643793405,147.0515876755393L14.659450273265959,147.25982130789077L14.65970641849793,147.58294087162201L14.696563747030686,147.22588496906098L14.715150039132123,147.1025394298527L14.733854552109854,147.24308965343417L14.752125588541173,146.9881504360387L14.80760861613413,147.12542189629937L14.825741728209772,147.89565918487074L14.82597816996236,147.09583077271427L14.844268909873062,147.39521061000556L14.844387130749356,146.9176775169122L14.862677870660058,147.149439406854L14.862776388056968,147.42536100181337L14.88155971495223,147.20602027409782L14.899692827027872,148.19449654621678L14.91827911912931,146.92115551064313L14.936865411230745,148.82211531493476L14.936885114710128,147.33711729933407L14.973584815407824,147.13444191081004L14.973919774557325,147.5699843488223L14.97395918151609,147.18071488124923L14.974057698913,148.3047005629588L14.992446956220615,147.1598580188437L14.992466659699996,146.9324000749902L15.010599771775638,146.91016425353178L15.01069828917255,147.21429232072595L15.029166360397694,147.77943840974314L15.02946191258843,147.0599880834745L15.047476803787777,148.0849926820589L15.121664344358464,147.57619236840156L15.158541376370604,146.99786604929554L15.195300187506447,146.86197554039185L15.251098470769522,146.8914149642504L15.306187428774829,147.53788349129943L15.324951052190709,148.62591946857754L15.343379716457088,147.15597074892742L15.343438826895234,147.1115008136998L15.38037496934552,146.98161510935708L15.417389925713334,148.00390505129616L15.453872888137823,148.4220845590666L15.472439476759877,148.96240796205745L15.472715325471233,147.2598711154933L15.472754732429998,147.46325946427066L15.472774435909379,146.7183867684412L15.509710578359664,148.0355542250178L15.583326718028262,148.4726543602223L15.602031231005995,147.15050016648044L15.620538709189903,147.2279299269134L15.694489808008003,147.76269337838758L15.712741140959936,147.31511372361086L15.712780547918701,147.10258667592137L15.749559062533928,146.9697685845566L15.786455798025447,147.13330345132366L15.786751350216184,147.09204340261792L15.823569271790173,148.72070162850204L15.841879715180257,147.19418712619628L15.842017639535934,147.04579547828743L15.915712593122063,146.9580319210965L15.934160960867823,147.42221543825246L15.952609328613583,147.19134666977774L15.97153057986452,146.81977057031241L16.008545536232337,148.8455886418549L16.026658944828593,147.4360448748634L16.082063158504024,148.03184398555166L16.082181379380316,147.65884196557963L16.10057063668793,148.49197914077402L16.10066915408484,147.17999850561742L16.11917663226875,147.26007717666033L16.13788114524648,147.6266525928317L16.156033960801505,147.1048172026701L16.156073367760268,147.09392982998685L16.211359360559403,147.66831224081716L16.266862091631744,146.996836597305L16.267197050781242,146.6951115334717L16.285507494171327,147.42033071857276L16.34112844611996,147.0268936354349L16.37763111202383,148.9102835944731L16.377709925941364,147.4077885950261L16.377867553776422,147.13365608914955L16.433015622219877,146.8318376716384L16.451661024759463,147.13982568572118L16.451936873470814,147.52563793644896L16.48847894633345,147.42377228160012L16.488715388086042,146.91234554190768L16.52533627486621,147.5424674984214L16.562469452110317,147.00648760298597L16.562646783424757,147.07639043852467L16.562705893862905,146.9300249638867L16.617893369265126,147.5906351500608L16.617932776223892,147.36149314001204L16.654790104756646,147.9433734450197L16.67323847250241,146.99397991783874L16.72899734880672,148.01423344037156L16.784460672920293,147.11123669109895L16.802672598913464,147.86562320824132L16.802948447624818,147.67220292611188L16.857840370836303,147.71807316650776L16.91340221234679,147.76224055612687L16.91344161930555,147.218813997191L16.931968800968843,147.63988263052303L17.00582138239003,146.91913872966296L17.006116934580767,148.93857260502065L17.042777228319697,148.09353283589604L17.09814203503636,147.2596126851899L17.098476994185862,147.33485774186846L17.09853610462401,147.22566069254216L17.13503877052788,147.80360562772023L17.135176694883558,147.57272575926552L17.15378269046438,147.5292055838644L17.17210495594209,146.8680446679138L17.19049815394558,147.74349411299423L17.20918099309599,146.82630703545354L17.227491436486073,148.2119195301965L17.301374558300306,147.3092244726878L17.30158144483382,146.8658030411851L17.3384092181475,147.13585559287728L17.35669897288423,146.98904099597192L17.356967925377802,147.21957818812123L17.357092057297912,147.0684374451676L17.375257680114537,146.75475770288264L17.412230274001676,146.71011187566438L17.430602783351816,146.8942229745736L17.43070622661857,147.72470383917138L17.449099424622062,147.44972745020058L17.46772019781242,147.81264499604217L17.486113395815906,146.83531623459908L17.54178951750681,147.15662308621313L17.5601827155103,146.9046706172802L17.59709324343739,149.04417212236996L17.615589884707635,146.71920816696064L17.652500412634723,146.6480903105351L17.671203940438485,147.17677581142632L17.689162676721594,147.59760024519852L17.68941094056181,147.36316610622728L17.70794895913876,146.92757044523404L17.78168726037953,147.783297787402L17.781852769606342,147.62655041609278L17.80005976972967,146.95469367326754L17.855756580073926,146.53276550302328L17.874191155384118,147.25204221422027L17.892542976080904,147.1020501768884L17.948136343158403,148.58029855080918L17.948301852385214,148.5053361166981L17.984943427818735,147.1934414352327L18.021998776319283,147.17205661224037L18.040536794896234,147.22416788754063L18.077654209356837,148.6259447993011L18.095923275440217,147.22061304779436L18.096130161973733,147.2019983813473L18.096150850627083,147.11843773196523L18.114440605363814,146.77033467480516L18.132818040583796,146.69132558644972L18.151126513625943,148.47201340753145L18.18798187181076,146.55050611719972L18.188198610083965,146.76707924990384L18.188263631565928,146.60188707073945L18.206485409298793,146.51514215017397L18.225097315923428,146.8285418314253L18.317463286572334,147.11578512136197L18.33629193147018,147.28423699465074L18.35431864475715,146.6932034753725L18.39156413183374,147.13926983287695L18.410067669321773,146.78886424140566L18.428181077918033,146.96339264220305L18.446836332197304,146.5562678606603L18.484081819273893,146.84594261544504L18.520568722394263,146.68008614517032L18.557640818852285,148.08139856546035L18.57629607313156,146.704706470023L18.594691241482987,147.6574852064867L18.612956366870492,146.71227494868853L18.687013864477255,146.81585028507104L18.705669118756532,146.62207366512237L18.705799161720456,147.70024261403194L18.760984666774736,146.8538953241872L18.79773165582295,147.1682774959753L18.816266718877998,146.32998480699678L18.816380013884444,146.3287928399145L18.816583944896053,146.62912926778927L18.89020993630434,146.4511595885794L18.89027791330821,146.43669090696687L18.908809035667375,146.4833910843283L18.92693229600333,148.30892253996407L18.96403985872424,147.06402619927275L18.982729594092437,148.4061307570541L19.00137401145805,146.55840417988654L19.019293340782394,146.35167758328018L19.056446221505883,146.676934889312L19.148739289281078,147.39572377061904L19.148807266284948,146.414595685255L19.18586951100328,146.4110323070626L19.204355315359866,148.54198825063267L19.204423292363735,147.1135699638163L19.222795801713875,146.23412082594533L19.222954414722903,147.7284525016452L19.277958647766866,146.61495032411602L19.278094601774608,146.38235166645174L19.31515684649294,146.99210345199032L19.315338118503252,146.54336683776057L19.44443630059084,148.0163333288942L19.44460180981765,146.85850323895838L19.463128991480943,146.85526602940882L19.5181430762646,149.31087390317882L19.536796360195936,146.2429353485187L19.591999598381662,146.67087373100648L19.59207053090744,146.2724242953649L19.592543414412617,147.45898796427775L19.610605593962482,148.2411557390367L19.62911701284227,146.11086152504313L19.684462116079548,146.41788412548144L19.68467491365688,146.14861967236874L19.684840422883692,146.45145843419456L19.703044467485107,148.4003086752407L19.72146130966386,147.52519080648565L19.740256458646748,147.16892727172714L19.77675912455062,146.25674258516963L19.795199610904625,146.12319901049713L19.795629146755164,146.25932688820373L19.851043212170282,146.30994564311735L19.90658042433154,146.39859236025484L19.943358938946766,146.67989260705764L19.96184671365129,146.74841363739472L20.01713763232027,146.8820016119872L20.072748732529213,146.3995145124388L20.07287187927535,146.61574838421598L20.09084243764609,146.1642142904133L20.10937947104907,146.73524963035362L20.16513834735338,146.24773395525384L20.18345371661331,146.35940715396305L20.238951521815803,145.66674392556453L20.2573604826028,146.86587305644352L20.257539784265177,146.11934418667622L20.34991757700172,146.7112531812995L20.367891090894364,145.7242623141954L20.3684289958815,145.64420128927452L20.423630263719293,145.7657050856487L20.42388640895126,145.64403165881106L20.441885537367103,146.67509798493072L20.46052502886287,147.49907084587454L20.47926697845143,146.61314415814087L20.53428894462684,145.67729061424643L20.53472439152119,148.48748364887715L20.55299050208266,147.57912020158568L20.571312767560375,145.4605472818491L20.589661632735254,146.83423697500598L20.608622290944957,145.41466053379065L20.663535887983763,148.72406264552075L20.663562487680927,145.50741424352532L20.682044351341638,146.21647698082526L20.70087201106551,146.16517173484135L20.719034678360227,145.6312746510363L20.719460273514887,145.9533545166416L20.737596341112436,146.55823682634204L20.755865407195813,145.52794123729467L20.774772866011187,145.47987377009005L20.774852665102685,146.38666415098618L20.81155039545244,145.6271073200864L20.81165679424111,146.64470453202256L20.830165257598985,145.96808561316575L20.848221526105036,147.73166580354552L20.848274725499365,147.6639328717879L20.867245235448763,145.136336789315L20.885307414998625,144.83889261776542L20.885666018323384,146.4266588019728L20.903700613002112,145.74674631982185L20.959156055723938,145.5843786586432L20.977576838598562,146.57472855046188L20.977825102438782,146.36585140388576L21.014859762285976,144.91775199869844L21.03339088464514,145.28505944431953L21.033446054387415,146.11591856208167L21.03347363925855,145.25312451726683L21.088791157624694,148.34262976382223L21.236431298985107,144.95237369013904L21.2916355223448,144.8645842329948L21.310103593569945,146.53651274242276L21.328885935291236,145.00377456671978L21.34703973602023,145.35162232434004L21.347525426787005,145.1279605736439L21.365907787876836,146.67474107788172L21.40258679992118,145.4059712417608L21.439849034955245,144.88065700402365L21.45842547531699,147.74959284046284L21.476735918707075,147.8544441053147L21.55050968621073,147.47517543509986L21.66125900312344,145.21030364060525L21.753642706903793,145.07692912716647L21.753795408869006,144.49607229723708L21.79068820366465,145.10232701984836L21.82742829649508,146.05888743411097L21.919874066235487,144.97022131950717L21.938578579213218,144.32429868378188L21.93870468148127,145.14447734387244L21.95710576087651,146.68329147785425L22.012119845660166,144.4195336659671L22.06782749291808,144.76649456364746L22.06792206961912,144.55410299263684L22.08632314901436,146.29269399729034L22.178859554759928,143.96789824927012L22.23427263500108,144.64321932431244L22.344741177332587,147.93352178585423L22.473941817512962,144.5016325333686L22.492776373454618,144.6546232729876L22.566339313728886,145.3187686604818L22.584772903865105,143.3498063941491L22.603738487944653,143.14069984798647L22.695702507614165,144.1776696557728L22.714254318626683,147.08673931987082L22.751530346096313,143.5212185467174L22.788022175086525,143.4148340615522L22.843769229303206,143.6469209816774L22.86226882609536,144.81155023628082L22.899019755839447,146.8469148598464L22.917661217683158,146.31889393468037L22.93598348316087,143.2537386288496L22.95441214742725,145.00433924262504L22.954554012478802,144.90182096587563L22.97306838688049,143.0375719261821L23.010173979253466,145.54352447074436L23.065322047696924,143.6882311226005L23.102318285759324,144.9853912921633L23.23167458342682,144.645221874549L23.28734873476979,143.74888312096766L23.305395151536146,142.9874222165769L23.324051390989393,144.5929990302191L23.37962406941354,144.5822195265722L23.416531641818718,142.99263123795686L23.471835367749296,142.63124492012446L23.545426878068668,143.73024426225652L23.56422990844331,146.22355079884395L23.638141600302646,142.2755702535353L23.63826277670085,144.1061607385137L23.730371616943817,144.2323510033636L23.767336329439203,142.65685285858157L23.804512854337954,146.23680929802242L23.85965107104172,145.28089495951832L23.878499419418947,143.0971964648628L23.914954796972296,142.37100901996857L23.97085947902404,142.0827971856239L24.007500069283587,142.1226705906752L24.025947451855377,141.8904897476424L24.02620162673941,142.85404258007043L24.062926941960306,143.29178196027655L24.17383585705601,141.5880875850296L24.376903856267113,144.07747725175412L24.469373270182775,144.1624541447372L24.487587166523888,142.88306874313542L24.487995028547104,142.17417279015024L24.52455976041103,141.67517062806252L24.54301206885267,141.94490697263234L24.543289887911957,140.5858493300243L24.635505126943592,141.5462799373109L24.709444403674063,144.62176619375091L24.783253637440605,142.44615360759747L24.838681495291294,142.5337358651152L24.87563044500318,140.6372086528338L24.87577526557664,140.79983986738355L24.986830971593744,140.68637644113198L25.005023194107533,139.80593058198068L25.042308088142885,146.8887976458912L25.060656953317768,140.49304780499122L25.07875459913052,139.60303888615422L25.07905606236507,140.88532109791913L25.22690111991106,140.3447099492931L25.226952348957454,144.15109004214406L25.245258851651663,140.17456148675473L25.245463767837236,141.86356973462722L25.28213489848983,141.68900404928166L25.39285860087934,141.28198315216707L25.411766059694713,142.606566533838L25.467264850071174,139.49237834715817L25.52224346859194,141.26198611128862L25.651717001961764,139.1474034920518L25.762598332186332,141.25600350668765L25.85467663203626,142.43977424986548L25.928777477297665,139.15680033665248L25.965674212789185,141.2933871008422L26.09487386779559,143.28221491598268L26.205690176538198,141.1036605505164L26.242869656958856,143.11997590072596L26.408920729454202,140.9266551464915L26.464361394566488,141.57997036889162L26.483329934167944,138.5752638464097L26.501352706759043,138.6682805402857L26.557077101974436,136.51780001652406L26.630650879162364,139.3562311156403L26.741831702273547,148.7693758946129L27.055730787836787,137.68898907468807L27.111091653857578,137.86793896751573L27.129599132041484,137.6260402343071L27.147915486475384,135.41334631499274L27.240649912188744,139.84113744159728L27.25876233561103,135.80092687791773L27.295922112552308,135.78520702932965L27.33307203775389,136.93237459233086L27.60989902685911,134.55096097713349L27.64675438504393,135.24056801104078L27.88732401656359,140.73650167385824L27.94264449045164,132.93917329776332L28.127450319797145,135.7519116431907L28.29361764282085,136.06643839933355L28.496619635376017,135.59794410533237L28.552239602150685,134.08471741753692L28.607436929292593,131.752158514279L28.736823767353133,132.04320340505558L28.82941534284097,135.99427145249132L29.03222818199407,135.46157601267416L29.19848909654484,128.7151538961682L29.2726263932431,138.48648449874207L29.291015650550715,134.04672019371915L29.51293101296507,130.26672617638422L29.641931662829712,130.99875107229494L29.808163022161406,129.51640851344624L30.01161129852459,126.15513647982704L30.01172163800913,129.27751417482222L30.140708495438208,124.77973397437287L30.178087966174594,130.19460704484044L30.343989292226638,125.17902587003437L30.990604286163336,124.8808883766576L31.11986305160789,125.312808521199L31.249521797683904,122.92434101102398L31.508215674713487,120.33854431807302L31.56329675132704,125.71083217299267L31.72959411731467,127.95256363996691L31.766534200460832,131.23497230804492L31.87753572190963,124.82306374242488L31.96966722115389,118.42570468904088L31.96996277334463,122.9450268198917L32.080578106597535,120.64380401399666L32.08072883821481,130.24425526304188L32.080879569832085,119.22526983244114L32.099228435006964,118.23480324852511L32.19159834635175,143.95492436496323L32.37598547676038,121.37253648507271L32.524072887102776,134.62780585400532L32.63478673775259,141.721429652373L32.7271783229247,116.18796010718799L32.78252342616198,119.73350091635527L33.262990800554356,120.89608663618063L33.33707883855416,135.50266529245692L33.4479581984308,109.74170649578252L33.503165377312406,124.9739027936146L33.540248310684085,115.0472920093946L33.55833019371333,108.429823198912L33.72474775092519,113.22573861581915L33.78015984599237,132.18423576622953L33.89138598710613,133.43235053188891L34.33464334068481,106.27459643755161L34.66690705420645,122.74985387938297L34.667027245430674,131.7088469615788L34.888713062310224,114.73815699737928L35.14758624100218,136.53605635284782L35.97870461587587,103.49864968734586L36.163544926310294,123.36514113955924L36.20012049508787,116.82307250086026L36.27402824625133,128.2651117535224L36.49583326918115,106.51296253097395L36.79139432648318,114.88816497314394L36.90214167304794,103.43875761068587L37.25336407443134,83.67623483260756L37.49330220943679,116.61886246894858L37.64136794595186,93.13532129030878L38.324914156469,118.86331485409528L38.56505622248607,89.83073315451693L38.841957099638975,77.90568424940211L39.414659416542364,112.01847063807196L41.04036394516679,141.30543655604617L41.040450640476074,144.21642167823003L42.352403859632616,87.09239199806562L43.03562299239201,110.16530450147845L45.10491786339667,55.85553187169627L45.234042645181425,75.16285756257443L47.26656195709277,133.7396731164019L48.06061907242209,121.81993740171006L48.744065780368345,103.82361611697891L49.15091602991816,103.65618060339659L49.48297482725421,67.63496270082592L49.55729044044089,63.98364079002124L49.98189155456632,82.28261925229013L50.31430107383538,44.79415020982236L50.665451557519035,80.45864777076561L51.81074880736318,121.60556092658491L52.64202579524591,28.615666386903087L53.602722131930136,29.55831994930972L54.36046967545353,67.7604937976332L54.41587980017277,60.67202608227939L54.85888297886742,50.148079267064475L57.796377187769515,84.89859878314427L58.01817728482948,125.3757448385256L58.07339135992886,77.60329574830315L58.42468469383804,82.87262360419267L58.51691274013127,64.24597828638902L59.31121023790906,128.73421398488932L59.551550323893906,94.4792499448022L60.23524431050642,71.6025395492738L60.45689170560117,129.34989970588583L60.65978138832386,88.01148855677988L60.82596545930504,125.70998060529683L61.583800683311686,106.13051300495411L61.75004879060086,86.25312421853701L61.84236451737734,68.33204599818033L62.76611683021953,123.5936527276674L63.15418769356996,66.4107180152177L63.46813012678785,107.2565086368869L64.39180855158236,94.93370475641723L64.70563276392394,145.30580445308053L65.14904577498974,135.66386887881075L65.38919572239855,132.4935347164109L65.46340887749244,128.4251723265519L66.10973423028223,121.93999933914472L66.29437356522695,109.78901176436099L66.34981324516527,110.5628090157463L66.42362050858387,108.92004385375145L66.47906412921806,126.55320339308116L67.56891283255818,107.57043200950197L67.58740060726271,75.12705528864645L67.60593172962187,80.63580572836169L68.19725284936769,38.22484734328995L68.23431115339015,144.85131036461323L68.71437263610726,37.1891861946832L69.12096772559906,84.06112976960416L69.17643104971263,87.93167343910807L69.25032500844053,103.52411930297538L70.1371677785296,58.961941533935345L70.37708818040362,131.50567520471867L70.46944232896489,148.0957038781366L70.48789463740653,145.86477496861383L71.22681156568414,109.04704584021515L71.44889834836913,57.033846547785586L72.15070869909981,53.86702567136072L72.83437510084116,79.76994353523101L73.42519082634082,99.77255831131305L73.6101917201322,102.91006613288235L73.62867949483675,119.01604830187037L73.96126338989833,62.00697456834416L73.99823893930738,47.78683232320904L74.07229545174017,112.69597698609842L74.27552009361237,82.22744039790379L76.15976875282307,78.84830593494313L76.47382645139534,143.6789982161659L77.67457323291751,41.74468173725455L77.69306100762203,58.85193902452241L77.73007596398985,148.30088643906453L77.74856373869437,74.2127174905853L78.45013961802039,51.5157060942266L78.56148102448854,93.04085192212817L78.96767219265301,84.22108332744193L79.50340979706102,100.37413851927319L79.94652725593608,46.58973761943224L80.5382217566162,77.77906023148789L81.16630365784579,82.20650640486807L81.8679120479128,71.02749910886038L81.99751956494241,64.85647490904657L82.55138042968638,32.85405087029747L82.77323077061877,52.39925084009988L83.8449256732299,32.331497966044566L84.99035986225576,90.56717071939687L85.39673427277847,98.13365480389604L86.83777877780484,78.13222857951779L86.8932421019184,77.04318278867527L87.00357764576408,54.034442969591254L88.18590068888972,130.2667717147637L88.48194743695852,51.68238567070995L89.7748976354247,106.43471848739335L90.40319824527543,142.21943452395064L90.42154415492841,113.4014530067865L93.15592701696475,49.05729846396471L93.8948715301135,80.93418229823061L93.91335930481803,89.79489444988538L95.04018946861102,101.96526771280335L95.15111611683817,114.49728173924893L95.50185479780272,69.30130308186493L95.61274992046286,92.30092156354398L95.98235172741418,110.38803726923368L96.09315818441709,42.825362127791095L97.14594464303887,96.11885929710078L97.97761274498734,148.59244050584638L98.42063661233534,97.02357483558296L98.51326463926003,135.2049843213342L101.83840608670583,109.94498526783434L102.22612524294928,81.24992265218596L102.39262851029645,127.34265901624228L102.83625136341767,66.71899462878027L102.9835466938889,82.06098851331772L103.16848847724214,119.07267072288545L103.22381092147812,63.49515059360111L103.33493263415116,115.5958017899372L103.53832968146794,81.27341590214711L103.98139985199249,110.56714426947048L105.03419616235398,122.57591320829542L105.08961515363895,121.54958287363914L105.71790295622809,115.53476214611491L106.23520992602178,109.37011787326284L106.88212244249715,77.9880950547029L108.50742797566407,108.50001150316692L108.74798184440023,74.00891502716975L110.61383435008553,42.943033300304336L110.74316503322983,108.4508027303272L110.96447451365317,106.20571508478707L111.83263050389596,64.27600629380204L112.01769149329947,39.326457173024295L112.03617926800399,47.745765812615986L113.51372742410818,145.11923997397815L113.56919074822176,101.58153400448286L115.85994583126704,81.29012848740732L115.91581406188192,74.66434892267407L115.93430183658644,40.54352501003032L116.22967275531242,112.8289854848123L116.41461256831774,110.1354131092038L116.58040848075508,86.42632944479635L116.747143263985,67.1445234617651L116.83922747487874,45.0877998959038L116.91332043874839,73.92324822773789L116.98686170519534,86.08501929077669L117.02432590089307,46.3081920346101L117.4118253633414,116.7376311164067L117.54160035994578,86.78833679227857L117.9292249394882,89.0630016152751L117.9476496630587,138.69913279236687L118.57605568652413,47.45034012973579L118.94523288349475,61.14495126060159L119.70280112535578,45.55093432264306L120.03519685218926,114.10551961463042L120.31259228667467,127.95057133586573L120.55280134452163,52.352309878557065L121.03275051740626,88.18637870307907L122.73247707737455,121.35004280254061L123.54556578343934,36.04724757610302L124.61667352236489,121.37464946587944L124.93078639067943,22.796171153458772L125.1155705461976,103.44353914052871L125.46660970522275,72.15074877651199L126.46398209842943,51.29548249117936L126.66763627615214,120.1883405272767L127.29530735983661,143.36449650613173L127.62834344975003,62.52658569328423L127.83155725470856,104.01042365718163L129.29082649298968,109.05228730769049L129.47566877377204,112.99474973986861L131.9325734467096,108.73331372879379L132.5790288424633,109.89542584947282L132.59788507223226,116.92533348576572L133.11504229558264,106.36934814368486L133.76153709829512,76.93897731496703L134.4821544200963,125.88085426652806L135.25808630474174,72.79101839165762L135.29492097427323,119.84529536099978L135.44238575466713,46.53965450970696L135.9042717628279,147.39857646547708L136.29270319985102,58.558690076180184L136.5139062814857,107.0869054964425L137.4747060614367,82.07128018707468L139.11908948851567,96.35582736227384L139.85776701951877,113.76587388837986L139.93159792711265,94.89625399315295L140.89261641568478,12.379121130177964L141.57604637567357,85.89922725643584L142.01915890867878,36.42088087186025L142.37031431823226,101.11358617103515L142.46260935635542,133.1463786165837L144.2732231575921,96.77074119900757L144.77195565737196,90.95464768250861L145.1598285007546,61.36015653423283L145.75099002231744,85.94753892320026L146.23144163392632,21.311201030115512L147.02588690779945,32.292544436258254L147.65383581054323,146.18449765385256L149.07652356900294,93.16129182811231L150.29566847439844,123.15128607887888L150.72082424146848,111.05106696643121L150.90534338518896,102.99783680544505L151.05298845241924,45.20611771340532L152.29082703387883,62.795936100088184L153.10355319592298,71.83437543908222L154.72936412333604,45.56802943029069L154.95103319225814,110.98106081569414L155.6718721782024,88.64306489528742L155.9859407136883,147.84985725204405L156.72484384953034,66.21210692706008L157.05722282840637,81.32722405131183L158.29497471455664,128.46819926438053L158.81236443896378,129.9864283431592L159.36657208494483,76.07551499443366L159.846983304421,111.29683760035303L160.41934081043522,91.16432459687393L161.8420128061114,136.86445865321076L162.06333509379635,59.667039586073926L162.35898974262543,62.353385020862845L162.4887657244038,117.85053901808396L162.71048897789416,60.79323103303838L163.79989238260023,98.72851354704854L163.81838015730477,86.87284691687226L164.0400600631405,88.0286838488623L165.79512285978035,126.8258416708818L165.98023409305628,28.496319402025875L166.12782793124015,130.75553741837953L167.45795958047492,135.168739186666L167.60595438446418,54.58510216164416L168.714254411072,116.5044723366751L169.4349298581374,107.6504884805849L171.96590483594326,95.3488417312103L173.20334540711934,94.77301803067023L173.24032095652836,47.1027092486477L173.85003231875575,132.90314788577598L173.86833192523218,74.65153442269528L173.8868196999367,55.623987427516354L174.12699427669475,107.79824686040446L174.33041102749092,70.22457550997528L174.36735012546313,112.06109000740445L175.9557874931836,115.74487167508508L178.22808435674347,71.36461062429422L179.2259237224115,37.42795302584477L179.33667500967215,66.47701278802914L179.41081427671833,130.0735637553285L179.48465996192175,59.77724246435646L179.50284528821774,100.239481531223L180.61167533842092,96.86597561196307L181.23981930561058,122.05719463559267L182.20042599146365,71.62254911320659L184.04785180323046,77.21063651760936L184.2510183198385,107.60186259900223L184.3801894047998,70.56480185056388L185.17444256974895,144.94401398213046L185.59921411897105,37.60821214708179L186.28288249106035,68.30270106645915L186.33834581517397,54.009232922724635L186.85597493685552,87.105324897831L187.0402901495644,77.06705856102383L187.169547929835,41.06826375649709L187.4652341042311,128.04888869711036L188.42611171292566,39.275472403385805L188.77728288526265,88.31335792035304L188.83263488471772,116.98026643290301L189.16518823938628,112.78402088893786L190.5137850043243,33.93977691327768L192.01021007885078,62.958908852483844L192.0650822985829,78.2147122462257L192.54571222668017,70.59359121405572L192.84123092150153,144.86867642561862L197.16421666048518,35.17026035687135L197.5152725674678,140.87262272080795L198.1803960247624,44.117367922029246L199.10390105893836,121.84609236995038L200.17534474218735,74.40912452117725L200.3972157717731,92.96438387534633L202.02302669918615,94.64660804313945L202.50290986541486,108.3077575727813L203.13134642927332,106.53272163381973L204.1290350633241,59.05606025659415L207.87883082428968,102.2039525748819L209.28321010970726,94.61410274788406L209.7452025166567,34.473140628813354L210.1141787381376,83.95598620527916L210.44674095937188,49.121525794348855L210.7426980566095,93.79885190968032L210.816604822599,103.65446836032906L211.09353032910113,116.9329315643779L211.2784898455858,113.17483126142575L211.55521634694617,103.65693198665761L211.99879782276068,114.30638940640904L213.01481463333297,44.945146368421206L213.79088641268203,33.69933426975217L214.0126283844778,35.903109497450174L214.14156499803445,105.69250665599846L214.78843613720315,32.41425030919126L215.71215988000023,103.49731541282782L216.93129394848205,73.17068096885477L217.48585034604824,96.4679519601694L217.63308656608132,113.66114244638892L217.781132599117,99.66991935785809L218.64936346258145,88.13715171488758L218.7048041276937,83.86035560842241L219.07405521271204,47.21145489878765L219.29590850916634,92.64604783376203L219.62854264810034,125.54040934171806L219.9425501028002,87.7779176547142L222.25212102348172,105.71866845499568L223.60064291519808,123.22077764592811L223.61890804058555,136.13858485390506L224.19160838714103,117.8513382166434L224.48746007076394,40.26321806912938L225.29984142191893,32.60664085471524L226.57500923024244,96.95378726906726L226.64891895175384,139.23247032333435L227.11076259743396,31.57799261654469L227.9420454963605,32.050407765016985L228.2190419353884,41.635735718245L229.03166859486169,38.2679539732826L229.60451868786046,44.180693592500205L230.32474588076988,142.17055704282146L230.63889027465143,146.94930562913333L230.73138924378617,95.58882443710331L230.9531558449312,45.80104931796495L231.39662993678309,77.31617626583565L232.1355123839718,82.54118161700103L232.76328494057506,92.64448586734669L233.81652359404868,81.04554640518926L234.2044929844803,131.74249299323955L234.31532899670228,129.49067705213486L234.38928009552038,103.15321830998548L235.86737502317743,45.46019454773986L235.90436239467408,67.86279121324226L236.2182338953662,51.22315843692799L236.5139171142404,107.0653749506359L237.0124515940525,143.64053479318846L238.00996191161485,65.34950983573637L238.19513915154673,60.20579504573713L238.43509699003155,142.34131173503636L238.45350792116648,76.10955948691466L238.98904257973683,142.36725324212296L240.55947096730182,107.80025054910051L241.00309185007512,129.73125858771772L243.34930139066824,117.79092244861967L244.23596781461683,113.02254181285035L246.00928982560038,130.05037788942866L246.21239723177027,105.02478650571699L248.35553778797834,114.4506345002536L249.29798870275442,91.95119136316299L249.94441848398492,113.14904743097799L250.31384000409992,61.95945071554429L250.8681215381287,109.55506744758378L251.4776063103432,79.93647738890012L251.49593350169073,109.73583204483275L251.8843265169291,70.57614090704834L252.99272900162964,114.81789925364397L253.10363299085552,85.16156015531058L253.34344403841894,117.27612700730702L254.13794054133848,141.41872010569887L254.50725369231685,58.578362656105L254.78440283330997,72.6219526040908L255.13544987372688,64.11245975782522L255.9486045864476,136.37077480461375L256.8908289112108,62.473542588894375L256.9827564794435,91.90822134830869L257.09357968440384,126.34075546832597L257.81435364886613,127.04394546236537L257.9436124143107,148.46382987612841L258.8490198026739,50.16680464869664L259.07048198506243,82.55678306580252L261.4723105072563,79.6941175795995L261.6381487821743,62.943844756559926L262.1739149566274,115.61989386958817L262.2108323807723,29.766940373271694L262.876237597822,48.71206290163599L264.00310716857376,128.79774002422988L265.2961046553905,79.13491994139869L266.1642842898085,70.24602408669885L266.79251692265535,86.00510854250801L267.29141985753193,73.0300584530959L267.8088204188527,88.70822120861249L268.0305939162155,147.0593627846016L268.08605724032907,42.37863062533174L269.2313052314748,49.157136807083134L269.2866798899311,44.8778952896412L270.0438461808127,114.15638143064437L270.6908788885123,105.90788042163368L270.85716640276024,55.82337266812472L270.89385428137035,83.03298700744554L271.8173120271958,94.17419744850508L273.64671408119756,64.31659009757284L273.9605008569283,148.43710083969208L274.0899014874244,107.33219797738005L274.108389262129,116.76226965661115L274.2007572031258,135.64355762311408L275.27230137411965,103.8508025295139L275.3459638169648,29.73685771980331L275.73399133266054,89.1834050905557L275.9188671093579,138.92914031624014L276.1218168876927,64.68859311934558L276.23293958553967,87.71606287389967L277.48901472234166,116.38546005888688L278.02464494278706,80.21863318800696L278.07994768354365,111.25005602313831L278.46812297533484,108.64655856209295L278.4682855290397,149.30826028481295L279.5209301226099,133.29215607689693L279.5953757787605,115.02071125730637L279.8721929161261,126.09892390422705L280.94380112342793,99.75618271006081L281.0915979074494,71.09473197228861L281.3503410431775,30.252470575027218L281.4793111526491,89.09773373728589L281.497946703449,135.05292825695352L281.7381656130356,91.22855648109604L281.9411025841088,63.03177936728869L284.0470823782016,49.63295822633873L284.50922945746424,90.83085159795857L285.26681740280463,132.33735856714895L285.39568406900946,120.10539236909833L286.43042214051695,97.73062193036226L286.81836591642536,109.88743386387837L286.9846701786308,64.7708081096147L287.20612349445366,81.36648268824048L287.5022214715688,78.71688672567224L287.7975519981621,70.3833769468128L288.0379176986701,144.87559029007946L288.6842686659831,145.02687561738787L288.86923606385955,128.19819993566932L289.33088464509376,58.7389491974172L289.84802413531276,59.390120700604484L289.97727797488744,34.352609646070306L290.9197505634909,111.77000413208637" style="fill: none;" fill="none"></path></g></g></g></g></g></g><g transform="translate(40, 178)" clip-path="url(#clip_1)"><clipPath id="clip_1"><rect width="290" height="22"></rect></clipPath><g><g><line x1="13.440144784513492" y1="0" x2="13.440144784513492" y2="5" style="visibility: inherit;" fill="rgb(0, 0, 0)" stroke="rgb(204, 204, 204)" stroke-width="1px"></line><line x1="33.14362416693375" y1="0" x2="33.14362416693375" y2="5" style="visibility: inherit;" fill="rgb(0, 0, 0)" stroke="rgb(204, 204, 204)" stroke-width="1px"></line><line x1="52.84710354935401" y1="0" x2="52.84710354935401" y2="5" style="visibility: inherit;" fill="rgb(0, 0, 0)" stroke="rgb(204, 204, 204)" stroke-width="1px"></line><line x1="72.55058293177426" y1="0" x2="72.55058293177426" y2="5" style="visibility: inherit;" fill="rgb(0, 0, 0)" stroke="rgb(204, 204, 204)" stroke-width="1px"></line><line x1="92.25406231419453" y1="0" x2="92.25406231419453" y2="5" style="visibility: inherit;" fill="rgb(0, 0, 0)" stroke="rgb(204, 204, 204)" stroke-width="1px"></line><line x1="111.95754169661478" y1="0" x2="111.95754169661478" y2="5" style="visibility: inherit;" fill="rgb(0, 0, 0)" stroke="rgb(204, 204, 204)" stroke-width="1px"></line><line x1="131.66102107903504" y1="0" x2="131.66102107903504" y2="5" style="visibility: inherit;" fill="rgb(0, 0, 0)" stroke="rgb(204, 204, 204)" stroke-width="1px"></line><line x1="151.3645004614553" y1="0" x2="151.3645004614553" y2="5" style="visibility: inherit;" fill="rgb(0, 0, 0)" stroke="rgb(204, 204, 204)" stroke-width="1px"></line><line x1="171.06797984387558" y1="0" x2="171.06797984387558" y2="5" style="visibility: inherit;" fill="rgb(0, 0, 0)" stroke="rgb(204, 204, 204)" stroke-width="1px"></line><line x1="190.7714592262958" y1="0" x2="190.7714592262958" y2="5" style="visibility: inherit;" fill="rgb(0, 0, 0)" stroke="rgb(204, 204, 204)" stroke-width="1px"></line><line x1="210.47493860871606" y1="0" x2="210.47493860871606" y2="5" style="visibility: inherit;" fill="rgb(0, 0, 0)" stroke="rgb(204, 204, 204)" stroke-width="1px"></line><line x1="230.17841799113634" y1="0" x2="230.17841799113634" y2="5" style="visibility: inherit;" fill="rgb(0, 0, 0)" stroke="rgb(204, 204, 204)" stroke-width="1px"></line><line x1="249.88189737355657" y1="0" x2="249.88189737355657" y2="5" style="visibility: inherit;" fill="rgb(0, 0, 0)" stroke="rgb(204, 204, 204)" stroke-width="1px"></line><line x1="269.5853767559768" y1="0" x2="269.5853767559768" y2="5" style="visibility: inherit;" fill="rgb(0, 0, 0)" stroke="rgb(204, 204, 204)" stroke-width="1px"></line><line x1="289.28885613839714" y1="0" x2="289.28885613839714" y2="5" style="visibility: inherit;" fill="rgb(0, 0, 0)" stroke="rgb(204, 204, 204)" stroke-width="1px"></line></g><g transform="translate(0, 8)"><text x="13.440144784513492" y="0" dx="0em" dy="0.95em" style="text-anchor: middle; visibility: inherit; font-family: &quot;Helvetica Neue&quot;, sans-serif; font-size: 12px; font-weight: 200;" fill="rgb(50, 49, 63)" stroke="none" stroke-width="1px">0</text><text x="33.14362416693375" y="0" dx="0em" dy="0.95em" style="text-anchor: middle; visibility: hidden; font-family: &quot;Helvetica Neue&quot;, sans-serif; font-size: 12px; font-weight: 200;" fill="rgb(50, 49, 63)" stroke="none" stroke-width="1px">20M</text><text x="52.84710354935401" y="0" dx="0em" dy="0.95em" style="text-anchor: middle; visibility: inherit; font-family: &quot;Helvetica Neue&quot;, sans-serif; font-size: 12px; font-weight: 200;" fill="rgb(50, 49, 63)" stroke="none" stroke-width="1px">40M</text><text x="72.55058293177426" y="0" dx="0em" dy="0.95em" style="text-anchor: middle; visibility: hidden; font-family: &quot;Helvetica Neue&quot;, sans-serif; font-size: 12px; font-weight: 200;" fill="rgb(50, 49, 63)" stroke="none" stroke-width="1px">60M</text><text x="92.25406231419453" y="0" dx="0em" dy="0.95em" style="text-anchor: middle; visibility: inherit; font-family: &quot;Helvetica Neue&quot;, sans-serif; font-size: 12px; font-weight: 200;" fill="rgb(50, 49, 63)" stroke="none" stroke-width="1px">80M</text><text x="111.95754169661478" y="0" dx="0em" dy="0.95em" style="text-anchor: middle; visibility: hidden; font-family: &quot;Helvetica Neue&quot;, sans-serif; font-size: 12px; font-weight: 200;" fill="rgb(50, 49, 63)" stroke="none" stroke-width="1px">100M</text><text x="131.66102107903504" y="0" dx="0em" dy="0.95em" style="text-anchor: middle; visibility: inherit; font-family: &quot;Helvetica Neue&quot;, sans-serif; font-size: 12px; font-weight: 200;" fill="rgb(50, 49, 63)" stroke="none" stroke-width="1px">120M</text><text x="151.3645004614553" y="0" dx="0em" dy="0.95em" style="text-anchor: middle; visibility: hidden; font-family: &quot;Helvetica Neue&quot;, sans-serif; font-size: 12px; font-weight: 200;" fill="rgb(50, 49, 63)" stroke="none" stroke-width="1px">140M</text><text x="171.06797984387558" y="0" dx="0em" dy="0.95em" style="text-anchor: middle; visibility: inherit; font-family: &quot;Helvetica Neue&quot;, sans-serif; font-size: 12px; font-weight: 200;" fill="rgb(50, 49, 63)" stroke="none" stroke-width="1px">160M</text><text x="190.7714592262958" y="0" dx="0em" dy="0.95em" style="text-anchor: middle; visibility: hidden; font-family: &quot;Helvetica Neue&quot;, sans-serif; font-size: 12px; font-weight: 200;" fill="rgb(50, 49, 63)" stroke="none" stroke-width="1px">180M</text><text x="210.47493860871606" y="0" dx="0em" dy="0.95em" style="text-anchor: middle; visibility: inherit; font-family: &quot;Helvetica Neue&quot;, sans-serif; font-size: 12px; font-weight: 200;" fill="rgb(50, 49, 63)" stroke="none" stroke-width="1px">200M</text><text x="230.17841799113634" y="0" dx="0em" dy="0.95em" style="text-anchor: middle; visibility: hidden; font-family: &quot;Helvetica Neue&quot;, sans-serif; font-size: 12px; font-weight: 200;" fill="rgb(50, 49, 63)" stroke="none" stroke-width="1px">220M</text><text x="249.88189737355657" y="0" dx="0em" dy="0.95em" style="text-anchor: middle; visibility: inherit; font-family: &quot;Helvetica Neue&quot;, sans-serif; font-size: 12px; font-weight: 200;" fill="rgb(50, 49, 63)" stroke="none" stroke-width="1px">240M</text><text x="269.5853767559768" y="0" dx="0em" dy="0.95em" style="text-anchor: middle; visibility: hidden; font-family: &quot;Helvetica Neue&quot;, sans-serif; font-size: 12px; font-weight: 200;" fill="rgb(50, 49, 63)" stroke="none" stroke-width="1px">260M</text><text x="289.28885613839714" y="0" dx="0em" dy="0.95em" style="text-anchor: middle; visibility: hidden; font-family: &quot;Helvetica Neue&quot;, sans-serif; font-size: 12px; font-weight: 200;" fill="rgb(50, 49, 63)" stroke="none" stroke-width="1px">280M</text></g><line x1="0" y1="0" x2="290" y2="0" fill="rgb(0, 0, 0)" stroke="rgb(204, 204, 204)" stroke-width="1px"></line></g></g></g></g></svg>