<svg viewBox="0 0 330 200" xmlns="http://www.w3.org/2000/svg"><g><g><g><g><g><line x1="51.3120002746582" y1="178.07699966430664" x2="46.3120002746582" y2="178.07699966430664" style="visibility: inherit;" fill="rgb(0, 0, 0)" stroke="rgb(204, 204, 204)" stroke-width="1px"></line><line x1="51.3120002746582" y1="161.88818151300603" x2="46.3120002746582" y2="161.88818151300603" style="visibility: inherit;" fill="rgb(0, 0, 0)" stroke="rgb(204, 204, 204)" stroke-width="1px"></line><line x1="51.3120002746582" y1="145.6993633617054" x2="46.3120002746582" y2="145.6993633617054" style="visibility: inherit;" fill="rgb(0, 0, 0)" stroke="rgb(204, 204, 204)" stroke-width="1px"></line><line x1="51.3120002746582" y1="129.51054521040479" x2="46.3120002746582" y2="129.51054521040479" style="visibility: inherit;" fill="rgb(0, 0, 0)" stroke="rgb(204, 204, 204)" stroke-width="1px"></line><line x1="51.3120002746582" y1="113.32172705910435" x2="46.3120002746582" y2="113.32172705910435" style="visibility: inherit;" fill="rgb(0, 0, 0)" stroke="rgb(204, 204, 204)" stroke-width="1px"></line><line x1="51.3120002746582" y1="97.13290890780372" x2="46.3120002746582" y2="97.13290890780372" style="visibility: inherit;" fill="rgb(0, 0, 0)" stroke="rgb(204, 204, 204)" stroke-width="1px"></line><line x1="51.3120002746582" y1="80.9440907565031" x2="46.3120002746582" y2="80.9440907565031" style="visibility: inherit;" fill="rgb(0, 0, 0)" stroke="rgb(204, 204, 204)" stroke-width="1px"></line><line x1="51.3120002746582" y1="64.75527260520248" x2="46.3120002746582" y2="64.75527260520248" style="visibility: inherit;" fill="rgb(0, 0, 0)" stroke="rgb(204, 204, 204)" stroke-width="1px"></line><line x1="51.3120002746582" y1="48.566454453901855" x2="46.3120002746582" y2="48.566454453901855" style="visibility: inherit;" fill="rgb(0, 0, 0)" stroke="rgb(204, 204, 204)" stroke-width="1px"></line><line x1="51.3120002746582" y1="32.377636302601246" x2="46.3120002746582" y2="32.377636302601246" style="visibility: inherit;" fill="rgb(0, 0, 0)" stroke="rgb(204, 204, 204)" stroke-width="1px"></line><line x1="51.3120002746582" y1="16.188818151300637" x2="46.3120002746582" y2="16.188818151300637" style="visibility: inherit;" fill="rgb(0, 0, 0)" stroke="rgb(204, 204, 204)" stroke-width="1px"></line><line x1="51.3120002746582" y1="0" x2="46.3120002746582" y2="0" style="visibility: inherit;" fill="rgb(0, 0, 0)" stroke="rgb(204, 204, 204)" stroke-width="1px"></line></g><g transform="translate(41.3120002746582, 0)"><text style="text-anchor: end; visibility: hidden; font-family: &quot;Helvetica Neue&quot;, sans-serif; font-size: 12px; font-weight: 200;" x="0" y="178.07699966430664" dx="0em" dy="0.3em" fill="rgb(50, 49, 63)" stroke="none" stroke-width="1px">1.3</text><text style="text-anchor: end; visibility: inherit; font-family: &quot;Helvetica Neue&quot;, sans-serif; font-size: 12px; font-weight: 200;" x="0" y="161.88818151300603" dx="0em" dy="0.3em" fill="rgb(50, 49, 63)" stroke="none" stroke-width="1px">1.32</text><text style="text-anchor: end; visibility: hidden; font-family: &quot;Helvetica Neue&quot;, sans-serif; font-size: 12px; font-weight: 200;" x="0" y="145.6993633617054" dx="0em" dy="0.3em" fill="rgb(50, 49, 63)" stroke="none" stroke-width="1px">1.34</text><text style="text-anchor: end; visibility: inherit; font-family: &quot;Helvetica Neue&quot;, sans-serif; font-size: 12px; font-weight: 200;" x="0" y="129.51054521040479" dx="0em" dy="0.3em" fill="rgb(50, 49, 63)" stroke="none" stroke-width="1px">1.36</text><text style="text-anchor: end; visibility: hidden; font-family: &quot;Helvetica Neue&quot;, sans-serif; font-size: 12px; font-weight: 200;" x="0" y="113.32172705910435" dx="0em" dy="0.3em" fill="rgb(50, 49, 63)" stroke="none" stroke-width="1px">1.38</text><text style="text-anchor: end; visibility: inherit; font-family: &quot;Helvetica Neue&quot;, sans-serif; font-size: 12px; font-weight: 200;" x="0" y="97.13290890780372" dx="0em" dy="0.3em" fill="rgb(50, 49, 63)" stroke="none" stroke-width="1px">1.4</text><text style="text-anchor: end; visibility: hidden; font-family: &quot;Helvetica Neue&quot;, sans-serif; font-size: 12px; font-weight: 200;" x="0" y="80.9440907565031" dx="0em" dy="0.3em" fill="rgb(50, 49, 63)" stroke="none" stroke-width="1px">1.42</text><text style="text-anchor: end; visibility: inherit; font-family: &quot;Helvetica Neue&quot;, sans-serif; font-size: 12px; font-weight: 200;" x="0" y="64.75527260520248" dx="0em" dy="0.3em" fill="rgb(50, 49, 63)" stroke="none" stroke-width="1px">1.44</text><text style="text-anchor: end; visibility: hidden; font-family: &quot;Helvetica Neue&quot;, sans-serif; font-size: 12px; font-weight: 200;" x="0" y="48.566454453901855" dx="0em" dy="0.3em" fill="rgb(50, 49, 63)" stroke="none" stroke-width="1px">1.46</text><text style="text-anchor: end; visibility: inherit; font-family: &quot;Helvetica Neue&quot;, sans-serif; font-size: 12px; font-weight: 200;" x="0" y="32.377636302601246" dx="0em" dy="0.3em" fill="rgb(50, 49, 63)" stroke="none" stroke-width="1px">1.48</text><text style="text-anchor: end; visibility: hidden; font-family: &quot;Helvetica Neue&quot;, sans-serif; font-size: 12px; font-weight: 200;" x="0" y="16.188818151300637" dx="0em" dy="0.3em" fill="rgb(50, 49, 63)" stroke="none" stroke-width="1px">1.5</text><text style="text-anchor: end; visibility: hidden; font-family: &quot;Helvetica Neue&quot;, sans-serif; font-size: 12px; font-weight: 200;" x="0" y="0" dx="0em" dy="0.3em" fill="rgb(50, 49, 63)" stroke="none" stroke-width="1px">1.52</text></g><line x1="51.3120002746582" y1="0" x2="51.3120002746582" y2="178.07699966430664" fill="rgb(0, 0, 0)" stroke="rgb(204, 204, 204)" stroke-width="1px"></line></g></g><g transform="translate(51, 0)" clip-path="url(#clip_0)"><clipPath id="clip_0"><rect width="278" height="178"></rect></clipPath><g><g><g><line x1="0" y1="0" x2="0" y2="178.07699966430664" fill="rgb(0, 0, 0)" stroke="rgb(60, 60, 60)" stroke-width="1px" opacity="0.25"></line><line x1="25.3352727023038" y1="0" x2="25.3352727023038" y2="178.07699966430664" fill="rgb(0, 0, 0)" stroke="rgb(60, 60, 60)" stroke-width="1px" opacity="0.25"></line><line x1="50.6705454046076" y1="0" x2="50.6705454046076" y2="178.07699966430664" fill="rgb(0, 0, 0)" stroke="rgb(60, 60, 60)" stroke-width="1px" opacity="0.25"></line><line x1="76.00581810691139" y1="0" x2="76.00581810691139" y2="178.07699966430664" fill="rgb(0, 0, 0)" stroke="rgb(60, 60, 60)" stroke-width="1px" opacity="0.25"></line><line x1="101.3410908092152" y1="0" x2="101.3410908092152" y2="178.07699966430664" fill="rgb(0, 0, 0)" stroke="rgb(60, 60, 60)" stroke-width="1px" opacity="0.25"></line><line x1="126.676363511519" y1="0" x2="126.676363511519" y2="178.07699966430664" fill="rgb(0, 0, 0)" stroke="rgb(60, 60, 60)" stroke-width="1px" opacity="0.25"></line><line x1="152.01163621382278" y1="0" x2="152.01163621382278" y2="178.07699966430664" fill="rgb(0, 0, 0)" stroke="rgb(60, 60, 60)" stroke-width="1px" opacity="0.25"></line><line x1="177.3469089161266" y1="0" x2="177.3469089161266" y2="178.07699966430664" fill="rgb(0, 0, 0)" stroke="rgb(60, 60, 60)" stroke-width="1px" opacity="0.25"></line><line x1="202.6821816184304" y1="0" x2="202.6821816184304" y2="178.07699966430664" fill="rgb(0, 0, 0)" stroke="rgb(60, 60, 60)" stroke-width="1px" opacity="0.25"></line><line x1="228.0174543207342" y1="0" x2="228.0174543207342" y2="178.07699966430664" fill="rgb(0, 0, 0)" stroke="rgb(60, 60, 60)" stroke-width="1px" opacity="0.25"></line><line x1="253.352727023038" y1="0" x2="253.352727023038" y2="178.07699966430664" fill="rgb(0, 0, 0)" stroke="rgb(60, 60, 60)" stroke-width="1px" opacity="0.25"></line><line x1="278.6879997253418" y1="0" x2="278.6879997253418" y2="178.07699966430664" fill="rgb(0, 0, 0)" stroke="rgb(60, 60, 60)" stroke-width="1px" opacity="0.25"></line></g><g><line x1="0" y1="178.07699966430664" x2="278.6879997253418" y2="178.07699966430664" fill="rgb(0, 0, 0)" stroke="rgb(60, 60, 60)" stroke-width="1px" opacity="0.25"></line><line x1="0" y1="161.88818151300603" x2="278.6879997253418" y2="161.88818151300603" fill="rgb(0, 0, 0)" stroke="rgb(60, 60, 60)" stroke-width="1px" opacity="0.25"></line><line x1="0" y1="145.6993633617054" x2="278.6879997253418" y2="145.6993633617054" fill="rgb(0, 0, 0)" stroke="rgb(60, 60, 60)" stroke-width="1px" opacity="0.25"></line><line x1="0" y1="129.51054521040479" x2="278.6879997253418" y2="129.51054521040479" fill="rgb(0, 0, 0)" stroke="rgb(60, 60, 60)" stroke-width="1px" opacity="0.25"></line><line x1="0" y1="113.32172705910435" x2="278.6879997253418" y2="113.32172705910435" fill="rgb(0, 0, 0)" stroke="rgb(60, 60, 60)" stroke-width="1px" opacity="0.25"></line><line x1="0" y1="97.13290890780372" x2="278.6879997253418" y2="97.13290890780372" fill="rgb(0, 0, 0)" stroke="rgb(60, 60, 60)" stroke-width="1px" opacity="0.25"></line><line x1="0" y1="80.9440907565031" x2="278.6879997253418" y2="80.9440907565031" fill="rgb(0, 0, 0)" stroke="rgb(60, 60, 60)" stroke-width="1px" opacity="0.25"></line><line x1="0" y1="64.75527260520248" x2="278.6879997253418" y2="64.75527260520248" fill="rgb(0, 0, 0)" stroke="rgb(60, 60, 60)" stroke-width="1px" opacity="0.25"></line><line x1="0" y1="48.566454453901855" x2="278.6879997253418" y2="48.566454453901855" fill="rgb(0, 0, 0)" stroke="rgb(60, 60, 60)" stroke-width="1px" opacity="0.25"></line><line x1="0" y1="32.377636302601246" x2="278.6879997253418" y2="32.377636302601246" fill="rgb(0, 0, 0)" stroke="rgb(60, 60, 60)" stroke-width="1px" opacity="0.25"></line><line x1="0" y1="16.188818151300637" x2="278.6879997253418" y2="16.188818151300637" fill="rgb(0, 0, 0)" stroke="rgb(60, 60, 60)" stroke-width="1px" opacity="0.25"></line><line x1="0" y1="0" x2="278.6879997253418" y2="0" fill="rgb(0, 0, 0)" stroke="rgb(60, 60, 60)" stroke-width="1px" opacity="0.25"></line></g></g></g><g><g><line x1="0" y1="1230.350179498846" x2="278.6879997253418" y2="1230.350179498846" fill="rgb(0, 0, 0)" stroke="rgb(153, 153, 153)" stroke-width="1.5px"></line></g></g><g><g><line x1="25.3352727023038" y1="0" x2="25.3352727023038" y2="178.07699966430664" fill="rgb(0, 0, 0)" stroke="rgb(153, 153, 153)" stroke-width="1.5px"></line></g></g><g><g><g><g><g><path style="fill: none;" stroke="rgb(255, 112, 67)" stroke-width="2px" d="M25.54808899300315,299.76634387615934L27.469009369291825,152.96187083890197L27.485730649275347,-5.549259557393157L27.504985456529095,18.190118214990008L27.51258603833979,103.49594675307534L27.52525367469094,91.76141969332562L27.57187057646318,98.14363089176938L27.578964452819825,121.70815566700351L27.595685732803343,141.80356038025172L27.678785427266902,141.29831473739677L29.51001893818942,143.2636948292518L29.51913963636225,177.3979617531058L29.52674021817294,192.69838417177598L33.65638966864846,188.2026113707422L33.66652377772938,176.00151450148422L33.73847595220393,128.8524618277184L33.779519093981655,140.75425703782588L33.7997873121435,128.68020221865868L33.80941471577037,127.00943679001571L33.88592723933133,122.07217530845041L33.8899808829637,129.54566300743363L33.91886309384433,139.09972777325513L35.74654966658852,139.65471674361606L35.75465695385326,142.62051774936344L35.79316656836077,150.719851576625L35.813434786522606,133.0152139870396L35.82154207378734,134.7281223777241L35.85802486647866,143.97622019848566L35.86815897555958,152.69440680132146L35.935044095493666,127.3396759235793L35.99939568815751,125.17473679569477L36.00699626996821,130.33786466556623L36.01206332450867,136.70560657565733L37.82910908271789,138.09674969199654L37.92943676261902,141.6243794497051L37.97858719166149,143.2633051283212L38.02520409343372,154.31966624355485L38.052059482498166,154.38339531146102L39.930923306101015,154.90995770849153L39.97855361878135,154.4683837176681L40.01706323328885,163.2911261384333L40.041385095083065,165.45139521205118L40.075841065958194,166.98389217075507L40.11181715319547,141.13212709832314L40.13208537135731,132.67521414893463L40.17110169131886,127.57306337381016L42.07327396580783,130.33803048545064L42.121410983942205,134.42693376182402L42.128504860298854,137.10461186628527L42.16853459116849,140.35479310656098L42.202990562043624,146.31947931713654L42.2116045547624,144.1253601487263L42.229339245654025,135.9684878377522L44.08134768019243,137.37560937696264L44.08996167291121,142.3518806741244L44.13961880740773,122.95771768694841L44.14671268376437,124.75695924659146L44.154819971029106,130.2832262432108L44.175594894645,140.56144895728528L44.25464094547618,127.3829701061658L44.30784501815102,133.54030202199237L46.219137990812825,119.9644751130829L46.25258055077987,122.68481886475674L46.31034497254112,118.83362669284031L46.342267416146015,123.33882847619945L46.36253563430786,107.73206323578677L48.247479923359265,112.10177124132507L48.255587210624,112.24601128583342L48.39797144321095,106.46263692601372L50.287982786802814,110.89658540593975L50.29811689588374,116.29880239019695L50.31838511404558,120.48991851065095L50.37462941944469,109.36089678623732L50.45519558663801,116.79559933361172L50.472930277529635,122.07730744179736L50.480024153886276,107.42785029159667L50.50687954295071,107.36994840978548L50.56160373198769,93.18856722249028L52.41867922106656,93.44438717169703L52.4465480210391,95.54462167668684L52.45516201375788,95.84065352220509L52.538768413675484,100.4837750212665L52.543835468215946,106.08825208077606L54.46070220087225,112.69424936040815L54.47793018630981,111.2624341676389L54.494651466293334,116.74283006375452L54.61778089162653,119.75542858576634L54.66186426612854,122.71275527088815L54.68162577883634,121.55041181174622L54.70949457880887,115.92713390313742L56.5594761915311,119.22125647817535L56.61318696965998,118.2704468846657L56.63345518782182,120.31901093021207L56.65980387143222,124.38148361399729L56.71706158773942,126.50664738312618L56.75658461315502,128.2138442260734L56.76570531132785,123.13591298104319L58.63038138221741,125.8493076633061L58.64760936765497,127.84003690294767L58.683078749438195,122.89908893426667L58.69067933124889,124.64854397943648L58.734762705750896,123.98992859546897L58.76921867662603,125.32509682274264L58.779352785706955,126.83191984868256L58.825969687479194,129.47548949671557L58.84421108382485,126.49912582035444L58.85434519290577,130.06735111511952L58.87207988379738,132.79035150895677L60.67291106747714,121.07342824676198L60.681525060195916,121.76071137883693L60.723581612881745,124.3757592185737L60.72915537287626,127.47483842383909L60.81884223824241,124.8926242189485L60.87762007091175,125.75149590296859L60.8978882890736,125.10003525375609L60.940958252667514,126.82639421828969L62.769151530865756,116.77183161485101L62.78637951630333,117.08901741030901L62.88721390165849,118.57661086579522L62.953592316138526,111.47372164109997L62.96372642521945,112.57100058003437L62.9829812324732,112.75921356348833L62.99311534155412,114.77424063333468L62.99970251245672,118.41454081697043L63.009836621537644,120.76142349887749L63.02706460697521,120.19119556823476L63.04429259241277,119.92548506585268L64.86235176153009,119.76175795599593L64.89883455422141,122.15709255915387L64.92923688146418,125.73579360725981L64.96825320142572,127.2396184776401L64.99713541230635,130.1315346103263L65.0052426995711,132.3249698188235L65.02348409591674,133.25456560069154L65.03209808863552,133.1575546299966L65.06098029951616,134.86937893494138L65.07060770314303,130.90966000002933L65.09847650311556,133.35003961464074L65.10506367401817,136.0841545973827L66.93579047948664,133.0042707235893L66.94592458856756,126.79911348513937L67.01280970850165,124.3922746288309L67.03966509756609,125.90353035598241L67.07412106844122,129.02050665616713L67.09996304659757,129.89514737665004L67.12023126475941,132.16135121577963L67.13796595565103,133.54021668217695L67.17698227561257,136.46800379281507L68.99757497200012,129.60181451471516L69.02797729924289,117.0799494250179L69.03456447014548,117.13596773267076L69.04216505195618,113.70623940857739L69.0522991610371,110.6269145586622L69.09891606280934,101.89992383911301L69.15313354639227,104.2367686819988L69.1688414154677,104.91135556365556L69.17694870273243,108.17729299988211L69.21697843360207,107.56951867751778L69.25599475356361,109.28001935840443L71.06442651905407,109.29773713430635L71.07456062813499,109.66702892937028L71.08266791539972,110.05428098041489L71.09837578447515,112.3936325786855L71.11712388627485,115.30667612284697L71.19718334801415,118.59714791170526L71.20731745709506,115.33365870227568L71.23569296252164,118.43572723313869L71.2417734279702,119.28352649115645L71.25190753705111,120.46842539121475L71.27116234430487,119.14974094225259L71.28129645338579,119.14256063622119L71.33906087514704,120.98990520872955L73.15864016062649,120.55092407969599L73.16877426970743,122.30025906694779L73.18650896059904,125.12679090400871L73.20677717876087,127.1866668869496L73.23464597873341,123.20186541525862L73.24478008781433,124.07502156297909L73.25491419689524,125.87629994106885L73.26302148415999,125.49789844530977L73.28886346231634,128.21741074310575L73.32686637136979,125.95378882149699L73.35017482225592,126.19472218878063L73.36233575315302,129.0741833786485L73.37246986223394,130.39736230086808L73.38007044404463,130.23662299952812L73.42719405127092,131.20993066409088L73.43530133853567,125.69659072979292L75.26197450037175,123.78158697639914L75.30251093669544,121.76890743961488L75.32835291485179,124.30629551470253L75.36483570754312,126.57107079042217L75.39827826751016,126.87036859723955L75.41449284203962,128.53066012427416L75.46212315471996,121.58333324930521L75.48948524923846,120.4005825149917L77.46259628729386,121.46310757329317L77.48134438909358,123.23454629770401L77.49147849817449,125.35269242042085L77.5289747017739,127.22298415845819L77.54468257084933,126.26292318475222L77.57812513081637,128.33887355834227L79.37895631449612,129.86171171972177L79.39061053993919,130.41073759128946L79.43722744171143,132.33506324564382L79.48131081621342,132.1137029311999L79.5172869034507,132.89442830419586L79.57910496884433,130.09795400268794L79.58619884520098,132.4001139102766L79.59481283791976,132.4800819411869L79.60494694700067,134.2738481873363L79.65156384877291,135.74599451330087L79.67132536148073,129.50446878751683L81.48178394878735,127.62786239998762L81.48837111968994,130.14435842266568L81.49799852331681,130.1549965504415L81.50610581058156,130.95478501222942L81.57501775233182,126.51397408836927L81.58261833414252,127.14922617713893L81.61048713411505,125.1143132730676L81.67737225404912,124.75972063796468L81.7077745812919,127.31933113547379L83.57093053581931,129.39229060309685L83.58562499398666,130.92093578312173L83.59322557579733,132.0619208690452L83.60234627397017,134.1392194791265L83.63274860121294,134.83975631333817L83.64186929938577,135.94872441636528L83.67733868116899,136.4625893082497L83.71888852840077,136.3082684058436L83.72648911021146,137.3457835153752L83.7589182592704,138.6558032118338L83.76854566289728,139.82648076556188L83.7786797719782,141.07541459559536L83.78881388105913,142.7076372650586L83.82073632466404,143.7764996105712L83.82985702283686,144.45626174399507L85.63423514469493,146.34594956544566L85.64436925377586,138.5084911510929L85.71480131188825,141.04666060539873L85.74571034458508,140.6059573494117L85.76192491911453,140.92886068055424L85.7801663154602,140.95567877958746L85.79030042454113,141.37389431582355L85.85515872265903,140.0010964241178L85.8637727153778,140.56039413322534L85.87188000264254,142.64541551553714L85.89924209716104,142.47064937600453L87.75479746987776,142.46333474596742L87.77202545531533,144.42816926305582L87.8090149534607,146.57394715494362L87.81712224072542,145.9258940840456L87.84296421888179,145.1723875428138L87.86120561522743,143.7335039990138L87.92353038607511,145.74495360963698L89.80492773694819,145.86073451042864L89.82316913329385,146.4384206097215L89.87738661687678,149.0967028369911L89.8875207259577,149.331614922996L89.90272188957907,147.21505398196928L89.92299010774092,145.18250606158253L89.95845948952415,146.8340863719239L89.99696910403165,146.93922258475618L90.01673061673944,147.96992096689763L90.05625364215504,149.2760434751868L91.84796412766197,147.88503028492752L91.85809823674289,149.57502869608876L91.93106382212552,150.83736310752403L91.98781483297869,151.10343283799511L92.02379092021596,151.59020738624474L92.03037809111855,152.6043192411275L92.04000549474542,151.27249914304898L92.11753142921448,143.82636417909288L92.1352661201061,142.47657021266463L93.94420459105059,143.71159944079315L93.99740866372542,144.32881724568006L94.00450254008207,145.02744764210289L94.06480048911355,145.77493358568884L94.08050835818898,144.0809145235379L96.05564621806057,145.02104431210566L96.06375350532532,145.18937580528512L96.07388761440623,139.9085439913532L96.10124970892473,141.54617004072367L96.11138381800565,143.09896846097234L96.12151792708657,135.5441821113807L96.27656979602467,136.63861555076116L98.08500156151511,136.11422800414795L98.10324295786079,131.95070165417522L98.1574604414437,131.40013174040413L98.16708784507058,131.85031011898513L98.20154381594571,129.9393779661699L98.21978521229137,129.35052911297564L98.23751990318297,129.19336203524324L98.28616362677141,129.87653090130823L98.30541843402516,130.67481744957348L98.32213971400869,128.39110770608463L98.34646157580289,130.61617439782717L100.2238052830436,130.14424866612976L100.29575745751815,126.36005742592259L100.30335803932884,127.93624262907207L100.31197203204762,128.1351022766113L100.32261284658259,128.8397306209454L100.34896153019298,129.00185697097945L100.37683033016552,123.35972401919761L100.38899126106261,123.68379688487019L100.41787347194324,124.04902484349645L102.25417403740623,125.19630494970485L102.26633496830334,125.72089715510842L102.28508307010304,126.49609716594192L102.29521717918396,122.02225967074261L102.32055245188626,123.3391496000426L102.3408206700481,122.75500132366648L102.37020958638277,123.12997337740222L102.44824222630587,122.09276949704267L102.5090468807914,122.41847359616098L104.34078709716798,122.87374583202518L104.37777659531334,124.31842970401583L104.38233694439974,126.36796814015547L104.39247105348068,120.0150726321826L104.40057834074541,118.69732372415763L104.45631594069047,118.96335056694778L104.48671826793323,115.93123018526852L104.54802962787281,114.65237927772544L104.56576431876442,114.6795467552906L104.59413982419102,113.67163997362094L104.60427393327193,113.72652467450341L106.41422581512451,114.76999321434337L106.46945670961554,114.04427398782028L106.48617798959906,115.2640223187864L106.51354008411754,116.55564541461322L106.53786194591176,117.01983565381877L106.54799605499268,117.0287561962235L106.56826427315453,117.37510720516322L106.57637156041926,117.9480398241848L106.63666950945074,118.63703603093137L108.53174790758305,117.87783837384438L108.63866275838677,119.04059682652797L108.67261202380787,120.05211221969058L108.73899043828791,121.26167787910309L108.75925865644976,122.5953650051581L110.58998546191823,123.77037252430716L110.60011957099914,122.74641613759852L110.62849507642574,123.39665736570993L110.63862918550664,123.99841274713586L110.65889740366849,120.6151456479844L110.66903151274941,121.18734289376769L110.697407018176,121.62441992883954L110.83928454530889,121.18625056597574L110.84840524348172,117.9053096123302L112.64011572898865,114.82621155145355L112.6902795689392,115.74221018978498L112.71916177981983,116.75956919032598L112.75868480523543,117.34499417551513L112.76881891431634,111.90756307118949L112.77641949612705,111.71291714119116L112.81188887791026,112.10420385516672L112.81594252154264,113.95052531863317L112.84381132151518,113.44191221393397L112.87978740875245,108.21767158794476L112.89802880509811,108.72170438722556L114.79969437413303,109.19347322220436L114.80476142867349,111.00686630851153L114.88887453404513,106.05536722561487L114.89647511585584,107.21271500647401L114.99426926848672,106.74002715893688L116.8493179357494,103.45188409336386L116.85945204483033,104.37972816319466L116.8868141393488,104.81981211560016L116.90556224114852,105.0576109239346L116.9141762338673,106.28393531440948L116.98714181924994,106.07279155115678L116.99626251742275,106.73393798332759L117.00639662650369,101.43849964754384L117.04389283010309,102.05968705286767L117.06010740463257,103.10309215062868L117.07936221188632,104.11602903376459L118.93694440641923,104.935720186886L118.97849425365101,105.81325988580126L118.98862836273193,107.06475376563058L119.01599045725042,107.47412218824775L119.07679511173595,108.0570440755793L120.96427292805758,108.93821663956422L121.00784959710555,110.72551699654709L121.01798370618647,110.0448589959059L121.03521169162403,110.36419019793603L121.04534580070495,106.86647452653706L121.10209681155811,107.40833193894747L121.16746181513007,108.3215840904785L121.17759592421098,107.1525323456127L123.0417652896465,105.92539456047064L123.06912738416499,107.90706467247009L123.08736878051064,108.22667849277985L123.11726440229937,110.15809017254156L123.20188421312506,108.54976235893831L123.24596758762706,108.05203140068417L123.26370227851868,108.25145115887048L123.2738363875996,104.2928548945758L125.1060833094302,104.73180096824451L125.18107571662904,104.42162384150407L125.20033052388278,103.53793310019984L125.26873576017901,101.26619065049032L125.2753229310816,101.80291368780163L125.30825878559459,102.89721685457386L125.35132874918851,103.28384255576593L125.37818413825296,103.77669159253492L125.39693224005265,104.81221688565924L127.20688412190525,105.32576335518587L127.23424621642373,105.5080273374005L127.27275583093123,107.12317941589369L127.34521471085982,107.86717153702344L127.41564676897222,102.01220817618051L127.43591498713407,96.68304366193213L127.4561832052959,96.55616267184003L129.26258814897017,96.98706368372832L129.2727222580511,96.41252637021763L129.32845985799617,97.04963635923959L129.3355537343528,98.81462086748095L129.4069992033733,100.43862323088237L129.43182777062157,100.58109519863999L129.44044176334035,100.62949978246216L129.45057587242127,97.33026277569157L129.45716304332387,98.31010000511078L129.47591114512358,98.61601029136689L129.5037799450961,98.81114141109391L131.3492012087319,99.65018787612263L131.35933531781282,98.99621985646088L131.4018985759527,96.62075094701873L131.42216679411456,97.64886069492006L131.43230090319545,98.08811099629985L131.43888807409806,98.30826308061387L131.5174274194752,99.34723889423573L131.5579638557989,100.39918708618195L131.5767119575986,101.12021125926096L131.58684606667953,97.69253298621592L131.60508746302517,98.49899912919834L133.43480085758557,98.33147204519409L133.439867912126,99.96759604521641L133.46013613028785,100.89898144850144L133.46875012300663,101.75417644057244L133.47888423208758,99.94285321030993L133.50472621024392,100.99119821515346L133.52347431204362,100.54477539942135L133.54272911929738,100.97225487028773L133.64255009374446,101.64337790270436L135.50671945917998,101.38969960200511L135.56245705912502,96.32586341275648L135.57259116820597,95.73996390993938L135.62427512451865,97.65169046123432L135.63440923359957,97.61899015713378L135.70534799716603,98.35964168732971L135.76716606255965,93.56997535794238L137.6242415516385,94.30092238296157L137.63437566071943,94.5078585525126L137.66072434432985,94.64223898345904L137.7240625260856,94.82472112163525L137.73977039516103,96.23625169044918L137.77726659876043,94.74207379409229L137.87100710775897,95.3102013771689L139.66271759326588,95.66491377641414L139.6926132150546,95.96733538889866L139.74075023318898,96.72406985789335L139.77469949861006,98.2778424903912L139.89022834213256,97.91868666332039L139.90796303302417,94.7325234508195L139.9180971421051,95.04833084353457L141.75743794029236,96.27332559646364L141.76757204937329,96.37230576070272L141.77466592572992,96.64760734907262L141.7949341438918,97.33586596214154L141.81418895114552,93.53601948173566L141.91755686377093,94.7376437873211L141.99254927096973,94.34900613048195L143.8111151455411,94.34333893640743L143.8617856909457,95.69460419108509L143.8703996836645,96.54099948673449L143.9165098799827,96.16214724805432L143.9773145344682,97.04818866822433L143.98086147264652,98.76819983474147L144.03811918895374,94.8208001944424L144.07764221436935,94.27730685976589L144.09436349435288,94.96252236615925L145.8962080889407,94.6039716545126L145.95093227797767,94.84238688391733L145.97930778340427,91.8552966335535L145.9995760015661,91.98643129282499L146.02541797972245,92.3934692904938L146.05379348514904,93.01961999899981L146.08166228512158,93.3501909483089L146.09990368146723,93.70432202740324L146.163241863223,94.69447318338334L146.18148325956867,95.50556744833878L148.0801085958793,95.7194984587778L148.09024270496022,97.02737998619497L148.09936340313305,92.92172474967079L148.2366805811795,93.81949083765791L148.2615091484278,94.49623642095048L150.0760213793668,94.90649112500556L150.0861554884477,90.82649848559105L150.11402428842024,90.14814816456963L150.12415839750116,89.87023037166239L150.14848025929535,90.72789312670119L150.1631747174627,90.66805856100417L150.1819228192624,91.21845656862602L150.22448607740228,92.33564267395886L150.2477945282884,90.45238472469659L150.26806274645025,90.79016948278985L150.29694495733088,90.22189602503586L150.32684057911962,90.13569084094985L152.13780587188026,90.46537496889087L152.15655397368,91.51176301311267L152.1854361845606,92.08018246025527L152.21178486817098,91.83538092306091L152.22090556634382,92.46766811006238L152.36176968256865,91.8896744461526L154.20415071348015,91.3169556174668L154.24367373889578,91.12842582585947L154.25380784797667,92.205306658857L154.2639419570576,92.66532839199918L154.2781297097709,93.96509759964378L154.28826381885182,93.34409022061257L154.3054918042894,90.66616341076637L154.32576002245122,90.6255494236218L154.3551489387859,90.35444773612495L154.3652830478668,90.30157859458203L154.40531277873646,89.33952137993114L154.44787603687632,88.87914052869573L154.4640906114058,87.85143492497339L156.3115386968578,87.79376058433525L156.32927338774942,88.15264278105737L156.3378873804682,89.19535230067294L156.3677830022569,89.94799009138136L156.38805122041876,90.56833937964714L156.42453401311008,86.7051949634288L156.44784246399618,88.09350270387591L156.46811068215806,87.66893494260421L156.48229843487135,88.9735319850843L156.49243254395225,87.72537033258727L158.36724272392271,87.45647724651457L158.37737683300364,87.89549788011648L158.41284621478687,88.55668454121668L158.43919489839726,88.3260025888393L158.4680771092779,88.88121648243057L158.47618439654264,89.44153449659858L158.48631850562356,89.61498743584066L158.50506660742326,89.47727700127564L158.51520071650418,90.08486630968622L158.5319219964877,88.88633388034134L158.57651207644378,85.6580993490641L158.5836059528004,87.26885429153037L158.64846425091832,85.56378318869062L160.4401747364252,84.74317543911528L160.47767094002464,85.68874227949384L160.4969257472784,86.00191513699804L160.51618055453213,86.05239473494952L160.5557035799477,86.33135830623726L160.65147091076244,83.5584681624011L160.66616536892977,84.2510086745255L160.6864335870916,83.71540349509598L160.69656769617254,85.11048265805749L160.72950355068554,84.74298657456548L162.5247609743708,84.81742203132312L162.5328682616355,85.29332232056666L162.53996213799215,86.17938739590846L162.60279361429386,85.243626602231L162.6402898178933,85.41579694539634L162.66714520695774,85.4764533857089L162.77507346866955,85.51658452918419L162.81003614499872,85.0094558757549L164.61188073958655,84.61863635644532L164.6407629504672,85.18316421620024L164.65647081954262,86.37566233881883L164.66609822316948,85.6230141993087L164.68433961951516,86.17618381519584L164.69447372859608,84.15345467707652L164.704607837677,83.90718967955786L164.71322183039578,83.94704738826448L164.73349004855763,83.8748207377074L164.75223815035733,83.95279575380336L164.76237225943825,83.11574150944178L164.79784164122148,84.04397012705846L164.80696233939432,84.80529612008444L164.82723055755613,83.74617820383595L164.85509935752867,84.14592303618932L166.6777188757324,84.18401117614415L166.78564713744424,81.37829241538604L166.81807628650319,83.0634685328396L166.84493167556764,83.6433875139416L166.9138436173179,82.32251068226725L166.94373923910663,81.77179473626288L168.78155992093173,81.98858381214454L168.7901739136505,82.85122061371399L168.80790860454212,83.63013218664473L168.83425728815251,84.36609311119224L168.86465961539528,84.03565206198945L168.8747937244762,84.5257413139437L168.88290101174093,83.51955243447546L168.9736012880152,83.37073086156025L168.98373539709613,83.75302274630968L168.99386950617705,83.00996859364598L169.01363101888484,81.48265439452818L170.84385111889924,82.33153958381989L170.91124294428738,81.82719512715362L170.9213770533683,81.43400463970616L170.93151116244923,80.66430295943223L170.94012515516803,80.25207902570939L171.01765108963704,80.79230924866103L171.083016093209,81.94789030433152L172.9107026659532,82.56027806620706L172.98366825133584,83.01814951453252L172.9887353058763,84.60933755889461L173.01761751675693,84.70781840454738L173.11895860756613,84.70361461219699L173.1493609348089,85.1573249515569L173.17874985114358,85.5588071932015L173.18888396022447,82.35195018487076L173.19901806930542,79.08974016863355L174.99630231480685,79.83737464245172L175.06977460564352,80.16160409547133L175.0900428238054,80.62164629596265L175.1103110419672,80.90747441122215L175.13057926012908,81.5537601419237L175.22279965276545,81.96599439944268L177.07784832002815,80.90346822722185L177.08595560729287,82.26798117237654L177.12699874907062,80.32157275964643L177.18172293810755,81.01374406627592L177.26279581075494,77.06225552358649L177.31245294525147,77.17245840529752L177.3225870543324,77.44581255589682L177.3327211634133,77.07008536771777L177.3428552724942,77.32217522698991L177.3590698470237,77.89402049159325L179.187769830676,77.29306432764909L179.3661301505002,77.62854716343186L179.38437154684587,76.99998590482703L179.42136104499122,76.41340941238568L179.4309884486181,76.58425733509638L181.23283304320594,76.04174397725708L181.27792982861604,75.72271020157265L181.30782545040478,75.7585955035607L181.3255601412964,75.22705447385123L181.35494905763105,75.01012507697536L181.36508316671197,74.37426714717994L181.37319045397672,75.2799017405543L181.4664242575212,75.41581593586149L181.47655836660212,70.44420227110525L181.49581317385588,68.54168946529849L181.50493387202872,68.89603257526694L183.30475164480038,69.26622093024696L183.33971432112955,68.77352779346573L183.35947583383734,69.04523171728236L183.3853178119937,68.6606174192495L183.40558603015552,69.17140317732328L183.42230731013905,68.55440957807276L183.4415621173928,68.03424227242232L183.52668863367253,68.81260063806042L183.56519824818002,66.03219279661492L185.38427082820544,66.53468380436529L185.40453904636732,66.54742884597094L185.43190114088577,66.42603597722429L185.46078335176642,66.79876192887639L185.51398742444124,66.89775654780111L185.5241215335222,66.4161558104824L185.55908420985136,64.84414719149879L185.58289936619153,65.66043331616703L185.6133016934343,66.4460834788959L185.6335699115961,66.86805889791104L187.45922966252414,66.83601112695126L187.4972325715776,67.22819368329712L187.52459466609608,67.96953892542878L187.534728775177,66.3264354057483L187.54486288425792,66.39555929357405L187.55499699333885,65.91424142217835L187.58387920421947,66.33935128323044L187.6239089350891,65.64908231410702L187.68167335685035,66.4638743401032L187.6918074659313,66.84042450453336L187.7206896768119,67.23778635064694L189.57877857679887,66.8958947774655L189.62590218402516,67.03921214602471L189.65377098399767,68.2993261607834L189.67961296215407,68.01888192803605L189.68518672214853,68.69393608403256L189.70393482394826,68.62279345921418L189.73281703482888,67.35008147892195L189.74295114390978,64.59076319988877L189.75865901298522,64.82962977465964L189.80730273657366,65.50624741370538L191.61725461842624,66.25685841148342L191.647656945669,64.95261188493912L191.65779105474994,65.78825225396344L191.69224702562505,66.2615726446918L191.7500114473863,66.84884271473989L191.8751676945357,66.30002613910084L191.91063707631892,67.05995163355654L193.70893473272844,66.99809796212695L193.75757845631688,67.4963231757119L193.80672888535935,67.50122401034402L193.8371312126021,68.46359464919487L193.88526823073647,68.1308784430588L193.9227644343359,68.28892555979051L193.95772711066508,67.87085483734381L193.98812943790782,66.6953646345682L195.91209004692078,67.11404981445249L196.0078573777355,66.94400875310991L196.0179914868164,67.31232321262202L196.0281255958973,67.13432996834085L196.05548769041582,65.80478058228697L197.89280166678688,66.1306080061231L197.9500593830941,66.32393945235957L197.95563314308862,66.88416778692175L197.96475384126143,67.39446583718221L197.97286112852618,67.69503476518922L197.98046171033684,67.5272924352848L197.99008911396373,64.67877106937819L198.00022322304466,64.77580405904956L198.07876256842178,64.92023992342538L200.0812625228119,64.36327702558161L200.09139663189282,63.79994426832695L200.10153074097371,63.88233062759133L200.16892256636186,64.65453446464761L202.05386685541325,64.83628567786555L202.07362836812106,64.56868821254524L202.1136580989907,64.12612737666488L202.19270414982188,63.64716759749868L202.2028382589028,61.96926942386041L202.23324058614557,62.58800950578369L202.25097527703718,62.95192734822416L202.2611093861181,62.512771339149566L202.28036419337187,62.78297808338506L204.2403008896221,63.06230655470884L204.28337085321598,63.67494594383757L204.31275976955067,64.07488629638871L204.34214868588535,64.23662444250829L206.20935828404512,63.723761869217455L206.21949239312607,64.20735981782515L206.27522999307112,64.10862769725124L206.29144456760062,64.42544697544194L206.29955185486534,64.67682108702806L206.35883639298874,63.268201645303904L206.38417166569104,63.67567119676241L206.39278565840982,64.1777509028965L206.4419360874523,64.21802389547362L208.24378068204015,62.31366907864995L208.25948855111557,63.06565276313839L208.2883707619962,63.41692623075603L208.29850487107709,63.10550140322357L208.37704421645427,63.620511449839015L208.42771476185885,61.3580816443793L208.4469695691126,59.51143263655946L208.45710367819353,59.948737649266064L208.4657176709123,60.23363781555466L208.50220046360363,60.25503360676744L210.3506619599637,60.07482915908356L210.45200305077293,60.89493786464773L210.5264887525177,61.30287394570975L212.46869075787632,60.96006341979901L212.5117607214702,61.32354955435099L212.53202893963208,61.250940248343156L212.53760269962658,61.74048550786837L212.56091115051268,61.97712042635028L212.6511047213329,61.81015795273741L214.4899388140661,61.94610437077547L214.52844842857363,58.536370799157L214.5775988576161,58.628813373325954L214.5978670757779,58.45951189618921L214.61661517757764,58.72944218833703L214.63333645756114,59.748118268044536L214.65005773754464,60.727040929218774L214.68856735205216,60.58225447142617L214.6987014611331,59.97144143283447L214.7250501447435,60.25459488666803L214.7351842538244,60.03001440599131L214.74531836290532,58.63899051351879L216.567431175655,58.228483431742134L216.58567257200068,58.219786970615445L216.61506148833533,57.691520976866656L216.62519559741628,57.865038582839574L216.64090346649172,58.39483059211081L216.68397343008562,58.795325273276234L216.69968129916106,59.54940782135277L216.70981540824195,59.97960426052917L216.71994951732287,59.73505901052722L216.77670052817604,59.67066302133735L216.79190169179742,59.320720426951155L216.8223040190402,58.05756446329714L218.68799350083785,58.41298486960851L218.71839582808062,57.646458822519506L218.73714392988032,55.854923515167926L218.75639873713408,56.357067188331754L218.77666695529592,56.71687190001546L218.79693517345774,56.200112314972756L218.8866220388239,53.42460104937402L218.92361153696928,53.277657545338144L220.7198823715626,53.1989244074597L220.74775117153513,53.66976837157755L220.82781063327442,54.07508077544314L220.86530683687383,53.17191381493221L220.90330974592732,52.17449809002055L220.96006075678045,51.48002983224694L222.80396190405412,51.700888502357216L222.82068318403765,52.25012475910684L222.86831349671795,51.73784114185813L222.93621202756015,50.40803562213367L222.96560094389483,51.02310553334617L222.97573505297575,51.592288849077846L223.02437877656416,51.497624300232744L223.03451288564509,51.6463752869729L223.0436335838179,51.38926861153497L223.06390180197977,50.96199773731398L223.08822366377396,51.31860114688442L224.9174303528803,50.64564033306105L224.9417522146745,51.249841093841326L224.95188632375545,50.5976743230343L224.97063442555515,51.322723512066474L225.02535861459214,51.130462958817375L225.12061923995276,51.89226904699986L226.9670539144967,51.90570550488316L226.99390930356114,52.36696568786158L227.00404341264206,52.624072715272604L227.07244864893826,52.567144164252795L227.08258275801919,49.408681123196146L227.09221016164605,49.9469309907079L227.1003174489108,50.555756211437625L227.13984047432638,50.71654085690933L227.17024280156917,50.78753366318077L229.16514217414857,49.519067011829065L229.19351767957517,49.48669002078168L229.21327919228293,48.89131295601038L229.2634430322335,45.95544598657466L229.28827159948173,46.08229532153777L229.29840570856268,46.646056944477834L229.31766051581644,46.59994595255537L229.32424768671902,47.21401626567578L231.16764212853866,47.75368818838504L231.1868969357924,48.28140408612467L231.20716515395426,48.3929529097266L231.2938117865961,47.57387435958324L231.3389085720062,47.781794106866926L231.34904268108716,47.6243499225514L231.40174004830794,47.64487922653774L233.20307793744175,47.75648154813851L233.22334615560356,46.91715683695182L233.239054024679,46.662356748870735L233.27908375554864,46.933696080585804L233.3094860827914,47.23925924073265L233.34698228639084,48.18809925467397L233.43008198085437,46.226134932776006L233.44021608993532,44.98647109093881L233.44984349356218,45.0628003608104L235.29019770265754,44.31456668186553L235.36975045894278,42.73635833323229L235.4097801898124,42.19450526847015L235.43004840797423,40.77503129333499L235.44018251705515,40.31809744365151L235.4503166261361,40.04453163376121L235.4888262406436,40.659788039380345L235.53899008059415,40.5314625369775L237.3915052205866,40.31952260849599L237.4300148350941,39.855026554115994L237.4659909223314,36.54337426146677L237.47359150414206,37.39067720946716L237.49994018775246,37.081361497914685L237.53490286408163,36.9309846645817L237.5531442604273,37.16601146711568L237.60837515491832,37.343654375702044L237.63624395489083,37.65519548490764L239.4380885494787,34.27697634039018L239.45835676764057,34.685675221110984L239.47457134217004,35.648160787403214L239.5039602585047,35.881462677460746L239.51966812758013,37.02880237387993L239.5490570439148,36.99159715678107L239.58959348023848,35.64839440672938L239.60884828749224,35.770897961279246L239.66103894925897,35.155284470370134L239.70765585103123,35.01611361092708L239.71778996011216,33.31919352071219L241.5399027728618,31.90175456245393L241.60374766007163,31.632450003484365L241.6838071218109,31.711365876648898L241.7142094490537,32.00860374891863L241.7405581326641,32.71983086644718L241.75069224174499,32.86651908615846L241.78109456898778,31.708459762857217L243.61131466900218,31.772940935422724L243.67211932348772,31.697370548400784L243.68124002166053,30.800373771580098L243.71721610889782,31.916441883409476L243.73647091615157,32.81412774860064L243.79119510518856,33.76699891218885L243.79980909790734,34.51858617630231L243.818050494253,34.3192722255223L243.85098634876599,35.23281983963497L245.69488749603966,35.58597371805604L245.753665328709,33.23476716621394L245.78204083413559,30.572175125858195L245.83372479044826,31.1573204669194L245.91125072491732,31.104770449051955L245.9416530521601,31.572835197478753L247.73691047584532,32.825460604869306L247.74704458492627,30.907351926359013L247.79264807579042,29.617770884778025L247.79974195214706,29.943605202611025L247.82862416302768,30.541260997970426L247.84889238118953,30.47839431064176L247.85902649027045,30.007970436517382L247.8772678866161,29.23399286558498L247.92743172656668,29.691102965865298L248.02826611192182,30.161136669916573L249.86811361556312,30.423851403907463L249.87976784100618,30.954496538222315L249.8899019500871,31.16959103788156L249.92537133187034,30.884680282387166L249.93094509186486,32.059869754021946L249.9709748227345,32.47180655596159L249.99124304089634,32.27761998478229L250.05154098992782,32.52886290565755L250.06167509900874,29.21044737299482L250.0920774262515,28.62221852384937L251.90861647900667,28.79051549662978L252.02262520616705,28.363753857854476L252.06873540248523,29.09325625161179L252.07886951156615,28.78977499682341L252.09761761336586,29.398864217863405L252.13815404968955,27.04054771607406L252.18578436236987,26.652091165002872L253.9774948478768,26.615268675821625L254.03424585872995,27.171140689779293L254.04235314599472,27.613989822729394L254.0621146587025,27.733146854875542L254.16396245496574,27.531417045310377L254.20095195311112,27.8210749460836L254.21665982218656,28.048764576286118L254.23338110217009,28.098420338398824L254.26226331305068,27.484240654059676L256.0732286058114,27.816221515781052L256.1548081839128,26.75984700037685L256.2140927220362,26.918379447539706L256.2318274129278,26.91418874995881L256.33266179828297,25.754834494975142L256.3407690855477,26.322597061023885L258.1826434110052,23.73362120629207L258.2510486473014,23.9678892193306L260.2646961216805,24.911154582787304L260.27483023076144,25.432041085875255L260.29357833256114,25.3729227364403L260.32246054344176,25.56988188821842L260.3396885288793,26.125153456863984L262.32850743601017,25.31366856145678L262.35890976325294,25.25187523947153L262.39944619957663,25.500844609758616L262.40958030865755,24.832134058317507L262.4197144177385,23.85861437317962L262.43694240317603,24.405715460879748L262.4703849631431,24.810525245557756L262.49774705766157,24.43120892915877L262.5180152758234,24.739503958685987L262.53372314489883,25.461215157179595L264.3796511139887,25.11003490308542L264.4059997975991,25.402692999373244L264.41613390668005,24.96108213430267L264.4460295284687,23.67729118410199L264.4956866629653,23.402861583703412L264.569665659256,20.362151359278556L264.6015881028609,20.178894029891268L264.62185632102273,20.049370559180886L264.6421245391846,19.820242926077185L264.65073853190336,19.609235129190694L266.4895726246366,18.949752538176625L266.52858894459814,18.90275916071448L266.5483504573059,19.174394545842546L266.56861867546775,18.74308398970848L266.5990210027105,17.158705528243246L266.681107286266,16.92856201709148L266.6978285662495,16.139241171194953L266.7079626753304,15.777000189411268L268.52754196080986,14.425561656618072L268.57770580076044,14.334971515659333L268.59696060801423,14.707666982475644L268.68462065156416,13.522729731597508L268.704888869726,11.582979138246174L268.7231302660717,11.165054669146258L268.81332383689187,8.649615094908455" fill="none"></path></g></g></g></g><g opacity="0.2"><g><g><g><path style="fill: none;" stroke="rgb(255, 112, 67)" stroke-width="2px" d="M25.4705630585341,285.4506434154798L25.497925153052588,59.784588791745776L25.54808899300315,473.4845730776644L27.485730649275347,-795.7304124286924L27.504985456529095,160.1286879638332L27.51258603833979,698.2529544803971L27.52525367469094,-1.693338033713502L27.57187057646318,155.2970967005871L27.578964452819825,356.06123493779944L27.595685732803343,361.53112657263785L27.678785427266902,135.27463204357144L29.51001893818942,168.63549987004373L29.51913963636225,651.7090852604999L33.7997873121435,-263.06175660138933L33.80941471577037,71.18666942805896L33.88592723933133,-47.65646488226858L33.91886309384433,485.9635142048272L35.74654966658852,160.33807750372063L35.75465695385326,256.00246519863697L35.935044095493666,-987.761848938092L35.99939568815751,27.893114473755503L36.00699626996821,367.26917190855795L38.02520409343372,714.2705788316578L38.052059482498166,157.67140039573474L39.930923306101015,182.57601858277116L39.97855361878135,130.8497582506597L40.01706323328885,643.5383097933022L42.202990562043624,527.0820714983782L42.2116045547624,2.0093830787753575L42.229339245654025,-399.9832171126716L48.247479923359265,455.94129987149114L48.255587210624,123.7285840369762L48.39797144321095,-359.2538638325474L50.480024153886276,-1166.1495788198765L50.50687954295071,102.28333193035668L50.56160373198769,-1165.551515977378L52.41867922106656,116.38383583070319L52.4465480210391,285.7830613716606L52.45516201375788,122.9240264408557L52.538768413675484,529.4875423923202L54.66186426612854,412.00317250868625L54.68162577883634,6.800640320052338L54.70949457880887,-444.2809734225551L56.5594761915311,450.35445887151735L56.61318696965998,21.83847601324058L56.63345518782182,329.92498168757254L58.69067933124889,316.1559308146516L58.734762705750896,51.30749669119666L58.76921867662603,273.85596299962043L60.87762007091175,229.64205899856745L60.8978882890736,45.72625227800333L60.940958252667514,338.6797802838802L62.769151530865756,-1125.903365367502L62.78637951630333,156.56867981424458L62.88721390165849,305.0361883321221L62.96372642521945,252.02367796927348L62.9829812324732,136.8432202280923L62.99311534155412,374.3751967407842L63.009836621537644,427.19848457472995L63.02706460697521,45.24021766398809L63.04429259241277,84.7698750227204L64.86235176153009,97.95745982773276L64.89883455422141,443.22884598555976L65.02348409591674,261.8702934521371L65.03209808863552,119.6519530318312L65.06098029951616,374.65666645868816L69.02797729924289,-1786.5455043729805L69.03456447014548,125.69954751243283L69.04216505195618,-413.50206195935846L69.17694870273243,623.9837390897032L69.21697843360207,11.06938864036593L69.25599475356361,382.3041128154805L71.06442651905407,112.14065812240348L71.07456062813499,169.23172934790756L71.08266791539972,172.84027341388483L71.09837578447515,493.63537325912716L71.27116234430487,-103.44903148184397L71.28129645338579,117.92453757419756L71.33906087514704,435.8942295312168L73.15864016062649,45.357070536247875L73.16877426970743,423.3948801608806L73.25491419689524,443.34372075387125L73.26302148415999,58.494961510365286L73.28886346231634,611.9922799696885L73.32686637136979,-278.58128472919424L73.35017482225592,169.4498997394677L73.36233575315302,648.3883794422111L73.37246986223394,370.11744860828037L73.38007044404463,100.98405536142378L73.42719405127092,309.13510919151315L79.43722744171143,512.142996263289L79.48131081621342,88.24593437060298L79.5172869034507,288.23880505375064L79.58619884520098,594.1527736356559L79.59481283791976,148.58341190024214L79.60494694700067,496.91907405965236L81.48837111968994,646.9125209110691L81.49799852331681,132.34800312892344L81.50610581058156,296.4620243987957L81.61048713411505,-300.81855035811606L81.67737225404912,50.259005105751086L81.7077745812919,667.1185632637694L83.67733868116899,247.65853326631122L83.71888852840077,102.79377924187953L83.72648911021146,363.47825630784007L85.71480131188825,712.0261063005279L85.74571034458508,41.12547197301106L85.76192491911453,214.0679159032159L85.7801663154602,147.0508155582918L85.79030042454113,236.747408380665L85.87188000264254,622.9493837105219L85.89924209716104,102.0773196411126L87.75479746987776,140.76710301128253L87.77202545531533,601.5722073275847L87.92353038607511,621.426436656124L89.80492773694819,173.3296852785434L89.82316913329385,283.93416138374204L89.95845948952415,546.2002531724193L89.99696910403165,172.4416613450945L90.01673061673944,398.7616481862558L98.21978521229137,-26.222116470583302L98.23751990318297,87.55465941034787L98.28616362677141,311.37181404616337L98.34646157580289,726.6327635794364L100.2238052830436,3.3870118626338694L100.29575745751815,-892.8215437811091L100.32261284658259,320.15546401225276L100.34896153019298,173.13920834225868L100.37683033016552,-1416.7575943734748L104.54802962787281,-251.91538208521519L104.56576431876442,122.48614177172703L104.59413982419102,-176.66840438683488L104.60427393327193,129.57576281511413L106.41422581512451,416.8369831080694L106.53786194591176,252.71070724300557L106.54799605499268,119.64268971578088L106.56826427315453,219.1088002134739L112.76881891431634,-1564.9610018910432L112.77641949612705,51.55094821614415L112.81188887791026,233.31467433389278L116.9141762338673,497.92380612604774L116.98714181924994,38.49826045111456L116.99626251742275,318.77638783526135L123.24596758762706,-59.25992614980069L123.26370227851868,175.41846655501504L123.2738363875996,-1231.6321529653399L127.20688412190525,282.0165584684503L127.23424621642373,168.33714389892302L127.27275583093123,664.9469911000981L127.43591498713407,-1754.28581324199L127.4561832052959,52.40413822152884L129.26258814897017,247.212446702763L129.4069992033733,670.8344074073295L129.43182777062157,150.71358862031366L129.44044176334035,117.69324415156613L129.45057587242127,-1067.860584910703L129.47591114512358,207.04921712333902L129.5037799450961,168.10324516865242L131.3492012087319,398.14033056075573L131.43230090319545,255.47957030617152L131.43888807409806,177.33385013416975L131.5174274194752,472.96201591026323L131.60508746302517,390.56303452446946L133.43480085758557,37.55436714273716L133.439867912126,694.5774926052438L133.64255009374446,348.52379045910465L135.50671945917998,7.911080331584429L135.56245705912502,-1772.8539372791054L135.62427512451865,805.7215568703735L135.63440923359957,85.48681708786495L135.70534799716603,373.61463989590277L137.6242415516385,366.86602467461796L137.63437566071943,171.8024925376224L137.66072434432985,144.91996338809162L137.7240625260856,163.21346870146527L137.73977039516103,626.1160386530362L141.75743794029236,563.7335876124134L141.76757204937329,134.20442956113288L141.77466592572992,202.0429737553942L141.99254927096973,-55.39191274153893L143.8111151455411,92.15630815121985L143.8617856909457,617.9907595766483L145.97930778340427,-1080.9392292592486L145.9995760015661,143.55217687753657L146.02541797972245,252.69854914068952L150.14848025929535,436.23513886044367L150.1631747174627,66.52818638350323L150.1819228192624,313.6007994707716L150.29694495733088,-140.73320313425336L150.32684057911962,55.04949040402386L152.13780587188026,224.84462621325693L154.20415071348015,-144.1504018280662L154.24367373889578,13.505544268724606L154.25380784797667,536.2190783746371L154.3054918042894,-1019.7573425758974L154.32576002245122,73.76090636129267L154.3551489387859,-22.376682395194194L154.3652830478668,68.28638306842907L154.40531277873646,-311.83041380580954L154.4640906114058,-341.8890059532183L156.3115386968578,63.64343537683273L156.32927338774942,238.63780030505896L158.47618439654264,328.90987663705835L158.48631850562356,163.84433912164226L158.50506660742326,30.465325056603206L158.51520071650418,350.79687312782744L160.4969257472784,221.62765023615674L160.51618055453213,107.94215661547145L160.5557035799477,207.45767146543284L160.72950355068554,-75.85998149772522L162.5247609743708,117.38900211503844L162.5328682616355,293.8056720284909L162.60279361429386,-325.8024856888333L162.6402898178933,161.14041576370408L162.66714520695774,112.18851858866346L162.77507346866955,103.21207585727679L162.81003614499872,-138.88768039697817L164.704607837677,-25.77689834291479L164.71322183039578,101.72135742330393L164.73349004855763,51.6258266875509L164.75223815035733,118.81150008601571L164.76237225943825,-291.5510851141485L164.85509935752867,263.95270619882416L166.6777188757324,101.3371227929667L166.78564713744424,-1183.7251771393505L168.88290101174093,-376.2089164695252L168.9736012880152,15.293364266436356L168.98373539709613,258.83675043140835L172.9887353058763,823.622336180364L173.01761751675693,130.49900664812935L173.11895860756613,82.74670890160519L173.1493609348089,296.6058952762022L177.26279581075494,-1793.7944351538579L177.31245294525147,129.40661080432028L177.3225870543324,207.15420137190932L179.42136104499122,-204.0682318420507L179.4309884486181,158.36711402826398L181.23283304320594,-183.93518634968433L181.27792982861604,-77.32676969856809L181.30782545040478,92.99241891763675L181.3255601412964,-180.31988778242044L181.37319045397672,512.0849557986612L181.4664242575212,141.0400813561404L181.47655836660212,-2332.595985163726L185.38427082820544,312.5070527267052L185.40453904636732,72.79269684828319L185.43190114088577,6.8798609708576635L185.46078335176642,249.81949121367495L185.51398742444124,115.55766383046527L185.5241215335222,-170.55471228649918L185.6335699115961,275.35478683513736L187.45922966252414,50.98588593707461L187.4972325715776,261.39091684653306L187.534728775177,-748.8005234602606L187.54486288425792,100.72198071150014L187.55499699333885,-173.34654065403993L189.57877857679887,-104.08376161704194L189.62590218402516,138.78359546200775L189.65377098399767,699.7378833418385L189.68518672214853,407.63301017619665L189.70393482394826,32.86732220702629L189.73281703482888,-572.932222558412L191.91063707631892,453.11873852309594L193.70893473272844,35.54471002419535L193.75757845631688,321.0946291697295L193.80672888535935,69.99816668022778L193.8371312126021,559.2561252023411L193.88526823073647,-101.71138777940473L193.9227644343359,149.04474433812317L193.95772711066508,-145.9507658995961L197.89280166678688,233.8832103564812L197.9500593830941,165.95444532360474L197.95563314308862,355.8605297567092L197.99008911396373,-1410.1395340127744L198.00022322304466,115.06120798589342L198.07876256842178,139.840674913375L200.0812625228119,-224.80686662120678L200.09139663189282,-228.9476653885754L200.10153074097371,106.73560969991726L200.16892256636186,466.6862640254847L202.05386685541325,159.5481868246798L202.07362836812106,-75.00621253508737L204.31275976955067,274.57869463729645L204.34214868588535,149.4420055066562L206.20935828404512,-206.69988203622137L206.21949239312607,319.42839019517817L206.27522999307112,11.955772194930944L206.29144456760062,231.92672081235315L206.39278565840982,330.56868566019426L206.4419360874523,85.60473138175549L208.24378068204015,-949.8725704632707L208.4657176709123,212.72309469703558L208.50220046360363,71.71680128618873L210.3506619599637,-36.544538322656564L212.5117607214702,256.8841206023013L212.53202893963208,22.152656815947267L212.53760269962658,325.57373195868576L212.6511047213329,-28.32537167838356L214.4899388140661,135.3998797960018L214.52844842857363,-1785.354975274763L214.5775988576161,108.66160749537964L214.5978670757779,-33.24921013063076L216.567431175655,-165.82144726341227L216.58567257200068,53.469419567315626L216.61506148833533,-231.10843035018803L216.62519559741628,152.80458923292235L216.64090346649172,348.50806212039424L216.71994951732287,-74.61840766835576L216.77670052817604,24.262473539283178L216.79190169179742,-133.25268945211786L218.92361153696928,-28.176386678574232L220.7198823715626,9.520388509576492L220.74775117153513,315.08756169684796L220.96006075678045,-335.32739392469944L222.80396190405412,174.81316674685195L222.82068318403765,358.65100722399256L223.02437877656416,-1.5210017580273245L223.03451288564509,135.02239966695126L223.0436335838179,-92.83365725967928L225.12061923995276,481.8846156171074L226.9670539144967,59.4955926295509L226.99390930356114,313.1204579364123L227.00404341264206,198.07991486474114L227.07244864893826,20.335695969827214L227.08258275801919,-1740.1970814724573L227.1003174489108,396.04633866900576L227.13984047432638,142.02652802262395L227.17024280156917,91.13512404954758L229.16514217414857,-671.9393164472366L229.19351767957517,31.05788780519711L229.21327919228293,-290.2498786877051L229.2634430322335,-1627.6460545893096L229.28827159948173,118.44762545241407L229.29840570856268,368.50379825088964L229.31766051581644,20.254931433013468L229.32424768671902,398.31903536622644L231.1868969357924,350.4625253141362L231.20716515395426,112.31569619860431L231.2938117865961,-422.1457007630622L231.3389085720062,167.10666675023884L231.34904268108716,-42.799592485635145L231.40174004830794,59.444065434021L233.20307793744175,111.94709341410199L233.22334615560356,-436.195256425132L233.44021608993532,-671.701172030443L233.44984349356218,89.22321421391175L235.29019770265754,-388.8917470426708L237.53490286408163,-50.94918776665523L237.5531442604273,174.61304052301483L237.60837515491832,141.30534027095632L237.63624395489083,220.10682602502033L239.47457134217004,600.5127155543294L239.5039602585047,172.8980726463238L239.51966812758013,711.3259539957245L239.5490570439148,15.110606760193576L239.58959348023848,-754.8627848579421L239.60884828749224,107.91784041083936L239.66103894925897,-327.65505240602187L241.60374766007163,-127.52217056048863L241.6838071218109,78.38156419864293L241.7142094490537,207.91379328803558L241.7405581326641,453.91321261372417L241.75069224174499,119.79592040211325L241.78109456898778,-655.043606928706L243.61131466900218,70.0377287591927L243.67211932348772,-13.178692021604064L249.87976784100618,351.3792076316158L249.8899019500871,161.1372314988118L249.92537133187034,-141.38086331477155L250.0920774262515,-328.42689891733966L251.90861647900667,131.0110943385361L252.02262520616705,-231.01077956015757L252.18578436236987,-210.19996811010947L253.9774948478768,4.149305579274795L254.03424585872995,366.5333172398107L254.04235314599472,298.1472724698252L254.0621146587025,100.57154831855796L254.16396245496574,-95.86034928624582L254.20095195311112,205.1078769606683L254.21665982218656,167.49562953147674L254.23338110217009,58.52892700254979L254.26226331305068,-349.14025256310833L256.1548081839128,-621.8400224893381L256.2140927220362,124.31622564891838L256.2318274129278,24.337930967943095L256.33266179828297,-687.4109841087816L258.1826434110052,-1570.837032038963L258.2510486473014,168.34515280759152L260.2646961216805,606.5980869956986L260.29357833256114,-11.128990359719666L260.32246054344176,147.25509097577645L260.3396885288793,369.3944274919777" fill="none"></path></g></g></g></g></g></g><g transform="translate(51, 178)" clip-path="url(#clip_1)"><clipPath id="clip_1"><rect width="278" height="21"></rect></clipPath><g><g><line x1="0" y1="0" x2="0" y2="5" style="visibility: inherit;" fill="rgb(0, 0, 0)" stroke="rgb(204, 204, 204)" stroke-width="1px"></line><line x1="25.3352727023038" y1="0" x2="25.3352727023038" y2="5" style="visibility: inherit;" fill="rgb(0, 0, 0)" stroke="rgb(204, 204, 204)" stroke-width="1px"></line><line x1="50.6705454046076" y1="0" x2="50.6705454046076" y2="5" style="visibility: inherit;" fill="rgb(0, 0, 0)" stroke="rgb(204, 204, 204)" stroke-width="1px"></line><line x1="76.00581810691139" y1="0" x2="76.00581810691139" y2="5" style="visibility: inherit;" fill="rgb(0, 0, 0)" stroke="rgb(204, 204, 204)" stroke-width="1px"></line><line x1="101.3410908092152" y1="0" x2="101.3410908092152" y2="5" style="visibility: inherit;" fill="rgb(0, 0, 0)" stroke="rgb(204, 204, 204)" stroke-width="1px"></line><line x1="126.676363511519" y1="0" x2="126.676363511519" y2="5" style="visibility: inherit;" fill="rgb(0, 0, 0)" stroke="rgb(204, 204, 204)" stroke-width="1px"></line><line x1="152.01163621382278" y1="0" x2="152.01163621382278" y2="5" style="visibility: inherit;" fill="rgb(0, 0, 0)" stroke="rgb(204, 204, 204)" stroke-width="1px"></line><line x1="177.3469089161266" y1="0" x2="177.3469089161266" y2="5" style="visibility: inherit;" fill="rgb(0, 0, 0)" stroke="rgb(204, 204, 204)" stroke-width="1px"></line><line x1="202.6821816184304" y1="0" x2="202.6821816184304" y2="5" style="visibility: inherit;" fill="rgb(0, 0, 0)" stroke="rgb(204, 204, 204)" stroke-width="1px"></line><line x1="228.0174543207342" y1="0" x2="228.0174543207342" y2="5" style="visibility: inherit;" fill="rgb(0, 0, 0)" stroke="rgb(204, 204, 204)" stroke-width="1px"></line><line x1="253.352727023038" y1="0" x2="253.352727023038" y2="5" style="visibility: inherit;" fill="rgb(0, 0, 0)" stroke="rgb(204, 204, 204)" stroke-width="1px"></line><line x1="278.6879997253418" y1="0" x2="278.6879997253418" y2="5" style="visibility: inherit;" fill="rgb(0, 0, 0)" stroke="rgb(204, 204, 204)" stroke-width="1px"></line></g><g transform="translate(0, 8)"><text style="text-anchor: middle; visibility: hidden; font-family: &quot;Helvetica Neue&quot;, sans-serif; font-size: 12px; font-weight: 200;" x="0" y="0" dx="0em" dy="0.95em" fill="rgb(50, 49, 63)" stroke="none" stroke-width="1px">-50k</text><text style="text-anchor: middle; visibility: inherit; font-family: &quot;Helvetica Neue&quot;, sans-serif; font-size: 12px; font-weight: 200;" x="25.3352727023038" y="0" dx="0em" dy="0.95em" fill="rgb(50, 49, 63)" stroke="none" stroke-width="1px">0</text><text style="text-anchor: middle; visibility: hidden; font-family: &quot;Helvetica Neue&quot;, sans-serif; font-size: 12px; font-weight: 200;" x="50.6705454046076" y="0" dx="0em" dy="0.95em" fill="rgb(50, 49, 63)" stroke="none" stroke-width="1px">50k</text><text style="text-anchor: middle; visibility: inherit; font-family: &quot;Helvetica Neue&quot;, sans-serif; font-size: 12px; font-weight: 200;" x="76.00581810691139" y="0" dx="0em" dy="0.95em" fill="rgb(50, 49, 63)" stroke="none" stroke-width="1px">100k</text><text style="text-anchor: middle; visibility: hidden; font-family: &quot;Helvetica Neue&quot;, sans-serif; font-size: 12px; font-weight: 200;" x="101.3410908092152" y="0" dx="0em" dy="0.95em" fill="rgb(50, 49, 63)" stroke="none" stroke-width="1px">150k</text><text style="text-anchor: middle; visibility: inherit; font-family: &quot;Helvetica Neue&quot;, sans-serif; font-size: 12px; font-weight: 200;" x="126.676363511519" y="0" dx="0em" dy="0.95em" fill="rgb(50, 49, 63)" stroke="none" stroke-width="1px">200k</text><text style="text-anchor: middle; visibility: hidden; font-family: &quot;Helvetica Neue&quot;, sans-serif; font-size: 12px; font-weight: 200;" x="152.01163621382278" y="0" dx="0em" dy="0.95em" fill="rgb(50, 49, 63)" stroke="none" stroke-width="1px">250k</text><text style="text-anchor: middle; visibility: inherit; font-family: &quot;Helvetica Neue&quot;, sans-serif; font-size: 12px; font-weight: 200;" x="177.3469089161266" y="0" dx="0em" dy="0.95em" fill="rgb(50, 49, 63)" stroke="none" stroke-width="1px">300k</text><text style="text-anchor: middle; visibility: hidden; font-family: &quot;Helvetica Neue&quot;, sans-serif; font-size: 12px; font-weight: 200;" x="202.6821816184304" y="0" dx="0em" dy="0.95em" fill="rgb(50, 49, 63)" stroke="none" stroke-width="1px">350k</text><text style="text-anchor: middle; visibility: inherit; font-family: &quot;Helvetica Neue&quot;, sans-serif; font-size: 12px; font-weight: 200;" x="228.0174543207342" y="0" dx="0em" dy="0.95em" fill="rgb(50, 49, 63)" stroke="none" stroke-width="1px">400k</text><text style="text-anchor: middle; visibility: hidden; font-family: &quot;Helvetica Neue&quot;, sans-serif; font-size: 12px; font-weight: 200;" x="253.352727023038" y="0" dx="0em" dy="0.95em" fill="rgb(50, 49, 63)" stroke="none" stroke-width="1px">450k</text><text style="text-anchor: middle; visibility: hidden; font-family: &quot;Helvetica Neue&quot;, sans-serif; font-size: 12px; font-weight: 200;" x="278.6879997253418" y="0" dx="0em" dy="0.95em" fill="rgb(50, 49, 63)" stroke="none" stroke-width="1px">500k</text></g><line x1="0" y1="0" x2="278.6879997253418" y2="0" fill="rgb(0, 0, 0)" stroke="rgb(204, 204, 204)" stroke-width="1px"></line></g></g></g></g></svg>