<svg viewBox="0 0 330 200" xmlns="http://www.w3.org/2000/svg"><g><g><g><g><g><line x1="71.9680004119873" y1="178.07699966430664" x2="66.9680004119873" y2="178.07699966430664" style="visibility: inherit;" fill="rgb(0, 0, 0)" stroke="rgb(204, 204, 204)" stroke-width="1px"></line><line x1="71.9680004119873" y1="166.2051996866862" x2="66.9680004119873" y2="166.2051996866862" style="visibility: inherit;" fill="rgb(0, 0, 0)" stroke="rgb(204, 204, 204)" stroke-width="1px"></line><line x1="71.9680004119873" y1="154.33339970906576" x2="66.9680004119873" y2="154.33339970906576" style="visibility: inherit;" fill="rgb(0, 0, 0)" stroke="rgb(204, 204, 204)" stroke-width="1px"></line><line x1="71.9680004119873" y1="142.46159973144532" x2="66.9680004119873" y2="142.46159973144532" style="visibility: inherit;" fill="rgb(0, 0, 0)" stroke="rgb(204, 204, 204)" stroke-width="1px"></line><line x1="71.9680004119873" y1="130.58979975382488" x2="66.9680004119873" y2="130.58979975382488" style="visibility: inherit;" fill="rgb(0, 0, 0)" stroke="rgb(204, 204, 204)" stroke-width="1px"></line><line x1="71.9680004119873" y1="118.71799977620442" x2="66.9680004119873" y2="118.71799977620442" style="visibility: inherit;" fill="rgb(0, 0, 0)" stroke="rgb(204, 204, 204)" stroke-width="1px"></line><line x1="71.9680004119873" y1="106.84619979858398" x2="66.9680004119873" y2="106.84619979858398" style="visibility: inherit;" fill="rgb(0, 0, 0)" stroke="rgb(204, 204, 204)" stroke-width="1px"></line><line x1="71.9680004119873" y1="94.97439982096354" x2="66.9680004119873" y2="94.97439982096354" style="visibility: inherit;" fill="rgb(0, 0, 0)" stroke="rgb(204, 204, 204)" stroke-width="1px"></line><line x1="71.9680004119873" y1="83.1025998433431" x2="66.9680004119873" y2="83.1025998433431" style="visibility: inherit;" fill="rgb(0, 0, 0)" stroke="rgb(204, 204, 204)" stroke-width="1px"></line><line x1="71.9680004119873" y1="71.23079986572264" x2="66.9680004119873" y2="71.23079986572264" style="visibility: inherit;" fill="rgb(0, 0, 0)" stroke="rgb(204, 204, 204)" stroke-width="1px"></line><line x1="71.9680004119873" y1="59.358999888102204" x2="66.9680004119873" y2="59.358999888102204" style="visibility: inherit;" fill="rgb(0, 0, 0)" stroke="rgb(204, 204, 204)" stroke-width="1px"></line><line x1="71.9680004119873" y1="47.48719991048179" x2="66.9680004119873" y2="47.48719991048179" style="visibility: inherit;" fill="rgb(0, 0, 0)" stroke="rgb(204, 204, 204)" stroke-width="1px"></line><line x1="71.9680004119873" y1="35.61539993286132" x2="66.9680004119873" y2="35.61539993286132" style="visibility: inherit;" fill="rgb(0, 0, 0)" stroke="rgb(204, 204, 204)" stroke-width="1px"></line><line x1="71.9680004119873" y1="23.743599955240853" x2="66.9680004119873" y2="23.743599955240853" style="visibility: inherit;" fill="rgb(0, 0, 0)" stroke="rgb(204, 204, 204)" stroke-width="1px"></line><line x1="71.9680004119873" y1="11.87179997762044" x2="66.9680004119873" y2="11.87179997762044" style="visibility: inherit;" fill="rgb(0, 0, 0)" stroke="rgb(204, 204, 204)" stroke-width="1px"></line><line x1="71.9680004119873" y1="0" x2="66.9680004119873" y2="0" style="visibility: inherit;" fill="rgb(0, 0, 0)" stroke="rgb(204, 204, 204)" stroke-width="1px"></line></g><g transform="translate(61.968000411987305, 0)"><text style="text-anchor: end; visibility: hidden; font-family: &quot;Helvetica Neue&quot;, sans-serif; font-size: 12px; font-weight: 200;" x="0" y="178.07699966430664" dx="0em" dy="0.3em" fill="rgb(50, 49, 63)" stroke="none" stroke-width="1px">-0.014</text><text style="text-anchor: end; visibility: inherit; font-family: &quot;Helvetica Neue&quot;, sans-serif; font-size: 12px; font-weight: 200;" x="0" y="166.2051996866862" dx="0em" dy="0.3em" fill="rgb(50, 49, 63)" stroke="none" stroke-width="1px">-0.012</text><text style="text-anchor: end; visibility: hidden; font-family: &quot;Helvetica Neue&quot;, sans-serif; font-size: 12px; font-weight: 200;" x="0" y="154.33339970906576" dx="0em" dy="0.3em" fill="rgb(50, 49, 63)" stroke="none" stroke-width="1px">-0.01</text><text style="text-anchor: end; visibility: hidden; font-family: &quot;Helvetica Neue&quot;, sans-serif; font-size: 12px; font-weight: 200;" x="0" y="142.46159973144532" dx="0em" dy="0.3em" fill="rgb(50, 49, 63)" stroke="none" stroke-width="1px">-8e-3</text><text style="text-anchor: end; visibility: inherit; font-family: &quot;Helvetica Neue&quot;, sans-serif; font-size: 12px; font-weight: 200;" x="0" y="130.58979975382488" dx="0em" dy="0.3em" fill="rgb(50, 49, 63)" stroke="none" stroke-width="1px">-6e-3</text><text style="text-anchor: end; visibility: hidden; font-family: &quot;Helvetica Neue&quot;, sans-serif; font-size: 12px; font-weight: 200;" x="0" y="118.71799977620442" dx="0em" dy="0.3em" fill="rgb(50, 49, 63)" stroke="none" stroke-width="1px">-4e-3</text><text style="text-anchor: end; visibility: hidden; font-family: &quot;Helvetica Neue&quot;, sans-serif; font-size: 12px; font-weight: 200;" x="0" y="106.84619979858398" dx="0em" dy="0.3em" fill="rgb(50, 49, 63)" stroke="none" stroke-width="1px">-2e-3</text><text style="text-anchor: end; visibility: inherit; font-family: &quot;Helvetica Neue&quot;, sans-serif; font-size: 12px; font-weight: 200;" x="0" y="94.97439982096354" dx="0em" dy="0.3em" fill="rgb(50, 49, 63)" stroke="none" stroke-width="1px">0</text><text style="text-anchor: end; visibility: hidden; font-family: &quot;Helvetica Neue&quot;, sans-serif; font-size: 12px; font-weight: 200;" x="0" y="83.1025998433431" dx="0em" dy="0.3em" fill="rgb(50, 49, 63)" stroke="none" stroke-width="1px">2e-3</text><text style="text-anchor: end; visibility: hidden; font-family: &quot;Helvetica Neue&quot;, sans-serif; font-size: 12px; font-weight: 200;" x="0" y="71.23079986572264" dx="0em" dy="0.3em" fill="rgb(50, 49, 63)" stroke="none" stroke-width="1px">4e-3</text><text style="text-anchor: end; visibility: inherit; font-family: &quot;Helvetica Neue&quot;, sans-serif; font-size: 12px; font-weight: 200;" x="0" y="59.358999888102204" dx="0em" dy="0.3em" fill="rgb(50, 49, 63)" stroke="none" stroke-width="1px">6e-3</text><text style="text-anchor: end; visibility: hidden; font-family: &quot;Helvetica Neue&quot;, sans-serif; font-size: 12px; font-weight: 200;" x="0" y="47.48719991048179" dx="0em" dy="0.3em" fill="rgb(50, 49, 63)" stroke="none" stroke-width="1px">8e-3</text><text style="text-anchor: end; visibility: hidden; font-family: &quot;Helvetica Neue&quot;, sans-serif; font-size: 12px; font-weight: 200;" x="0" y="35.61539993286132" dx="0em" dy="0.3em" fill="rgb(50, 49, 63)" stroke="none" stroke-width="1px">0.01</text><text style="text-anchor: end; visibility: inherit; font-family: &quot;Helvetica Neue&quot;, sans-serif; font-size: 12px; font-weight: 200;" x="0" y="23.743599955240853" dx="0em" dy="0.3em" fill="rgb(50, 49, 63)" stroke="none" stroke-width="1px">0.012</text><text style="text-anchor: end; visibility: hidden; font-family: &quot;Helvetica Neue&quot;, sans-serif; font-size: 12px; font-weight: 200;" x="0" y="11.87179997762044" dx="0em" dy="0.3em" fill="rgb(50, 49, 63)" stroke="none" stroke-width="1px">0.014</text><text style="text-anchor: end; visibility: hidden; font-family: &quot;Helvetica Neue&quot;, sans-serif; font-size: 12px; font-weight: 200;" x="0" y="0" dx="0em" dy="0.3em" fill="rgb(50, 49, 63)" stroke="none" stroke-width="1px">0.016</text></g><line x1="71.9680004119873" y1="0" x2="71.9680004119873" y2="178.07699966430664" fill="rgb(0, 0, 0)" stroke="rgb(204, 204, 204)" stroke-width="1px"></line></g></g><g transform="translate(71, 0)" clip-path="url(#clip_0)"><clipPath id="clip_0"><rect width="258" height="178"></rect></clipPath><g><g><g><line x1="0" y1="0" x2="0" y2="178.07699966430664" fill="rgb(0, 0, 0)" stroke="rgb(60, 60, 60)" stroke-width="1px" opacity="0.25"></line><line x1="23.457454508001156" y1="0" x2="23.457454508001156" y2="178.07699966430664" fill="rgb(0, 0, 0)" stroke="rgb(60, 60, 60)" stroke-width="1px" opacity="0.25"></line><line x1="46.91490901600231" y1="0" x2="46.91490901600231" y2="178.07699966430664" fill="rgb(0, 0, 0)" stroke="rgb(60, 60, 60)" stroke-width="1px" opacity="0.25"></line><line x1="70.37236352400346" y1="0" x2="70.37236352400346" y2="178.07699966430664" fill="rgb(0, 0, 0)" stroke="rgb(60, 60, 60)" stroke-width="1px" opacity="0.25"></line><line x1="93.82981803200462" y1="0" x2="93.82981803200462" y2="178.07699966430664" fill="rgb(0, 0, 0)" stroke="rgb(60, 60, 60)" stroke-width="1px" opacity="0.25"></line><line x1="117.28727254000577" y1="0" x2="117.28727254000577" y2="178.07699966430664" fill="rgb(0, 0, 0)" stroke="rgb(60, 60, 60)" stroke-width="1px" opacity="0.25"></line><line x1="140.74472704800692" y1="0" x2="140.74472704800692" y2="178.07699966430664" fill="rgb(0, 0, 0)" stroke="rgb(60, 60, 60)" stroke-width="1px" opacity="0.25"></line><line x1="164.20218155600807" y1="0" x2="164.20218155600807" y2="178.07699966430664" fill="rgb(0, 0, 0)" stroke="rgb(60, 60, 60)" stroke-width="1px" opacity="0.25"></line><line x1="187.65963606400925" y1="0" x2="187.65963606400925" y2="178.07699966430664" fill="rgb(0, 0, 0)" stroke="rgb(60, 60, 60)" stroke-width="1px" opacity="0.25"></line><line x1="211.1170905720104" y1="0" x2="211.1170905720104" y2="178.07699966430664" fill="rgb(0, 0, 0)" stroke="rgb(60, 60, 60)" stroke-width="1px" opacity="0.25"></line><line x1="234.57454508001155" y1="0" x2="234.57454508001155" y2="178.07699966430664" fill="rgb(0, 0, 0)" stroke="rgb(60, 60, 60)" stroke-width="1px" opacity="0.25"></line><line x1="258.0319995880127" y1="0" x2="258.0319995880127" y2="178.07699966430664" fill="rgb(0, 0, 0)" stroke="rgb(60, 60, 60)" stroke-width="1px" opacity="0.25"></line></g><g><line x1="0" y1="178.07699966430664" x2="258.0319995880127" y2="178.07699966430664" fill="rgb(0, 0, 0)" stroke="rgb(60, 60, 60)" stroke-width="1px" opacity="0.25"></line><line x1="0" y1="166.2051996866862" x2="258.0319995880127" y2="166.2051996866862" fill="rgb(0, 0, 0)" stroke="rgb(60, 60, 60)" stroke-width="1px" opacity="0.25"></line><line x1="0" y1="154.33339970906576" x2="258.0319995880127" y2="154.33339970906576" fill="rgb(0, 0, 0)" stroke="rgb(60, 60, 60)" stroke-width="1px" opacity="0.25"></line><line x1="0" y1="142.46159973144532" x2="258.0319995880127" y2="142.46159973144532" fill="rgb(0, 0, 0)" stroke="rgb(60, 60, 60)" stroke-width="1px" opacity="0.25"></line><line x1="0" y1="130.58979975382488" x2="258.0319995880127" y2="130.58979975382488" fill="rgb(0, 0, 0)" stroke="rgb(60, 60, 60)" stroke-width="1px" opacity="0.25"></line><line x1="0" y1="118.71799977620442" x2="258.0319995880127" y2="118.71799977620442" fill="rgb(0, 0, 0)" stroke="rgb(60, 60, 60)" stroke-width="1px" opacity="0.25"></line><line x1="0" y1="106.84619979858398" x2="258.0319995880127" y2="106.84619979858398" fill="rgb(0, 0, 0)" stroke="rgb(60, 60, 60)" stroke-width="1px" opacity="0.25"></line><line x1="0" y1="94.97439982096354" x2="258.0319995880127" y2="94.97439982096354" fill="rgb(0, 0, 0)" stroke="rgb(60, 60, 60)" stroke-width="1px" opacity="0.25"></line><line x1="0" y1="83.1025998433431" x2="258.0319995880127" y2="83.1025998433431" fill="rgb(0, 0, 0)" stroke="rgb(60, 60, 60)" stroke-width="1px" opacity="0.25"></line><line x1="0" y1="71.23079986572264" x2="258.0319995880127" y2="71.23079986572264" fill="rgb(0, 0, 0)" stroke="rgb(60, 60, 60)" stroke-width="1px" opacity="0.25"></line><line x1="0" y1="59.358999888102204" x2="258.0319995880127" y2="59.358999888102204" fill="rgb(0, 0, 0)" stroke="rgb(60, 60, 60)" stroke-width="1px" opacity="0.25"></line><line x1="0" y1="47.48719991048179" x2="258.0319995880127" y2="47.48719991048179" fill="rgb(0, 0, 0)" stroke="rgb(60, 60, 60)" stroke-width="1px" opacity="0.25"></line><line x1="0" y1="35.61539993286132" x2="258.0319995880127" y2="35.61539993286132" fill="rgb(0, 0, 0)" stroke="rgb(60, 60, 60)" stroke-width="1px" opacity="0.25"></line><line x1="0" y1="23.743599955240853" x2="258.0319995880127" y2="23.743599955240853" fill="rgb(0, 0, 0)" stroke="rgb(60, 60, 60)" stroke-width="1px" opacity="0.25"></line><line x1="0" y1="11.87179997762044" x2="258.0319995880127" y2="11.87179997762044" fill="rgb(0, 0, 0)" stroke="rgb(60, 60, 60)" stroke-width="1px" opacity="0.25"></line><line x1="0" y1="0" x2="258.0319995880127" y2="0" fill="rgb(0, 0, 0)" stroke="rgb(60, 60, 60)" stroke-width="1px" opacity="0.25"></line></g></g></g><g><g><line x1="0" y1="94.97439982096354" x2="258.0319995880127" y2="94.97439982096354" fill="rgb(0, 0, 0)" stroke="rgb(153, 153, 153)" stroke-width="1.5px"></line></g></g><g><g><line x1="23.457454508001156" y1="0" x2="23.457454508001156" y2="178.07699966430664" fill="rgb(0, 0, 0)" stroke="rgb(153, 153, 153)" stroke-width="1.5px"></line></g></g><g><g><g><g><g><path style="fill: none;" stroke="rgb(255, 112, 67)" stroke-width="2px" d="M23.470121533435474,130.0450337037721L23.479035366148512,-204.56892218036154L23.483257707959957,140.60274807778495L23.500616224295875,168.32316160648438L23.504838566107317,-144.18584651822187L23.513752398820355,121.49490659328087L23.517974740631796,99.92276154938456L25.38190407583757,198.4994163686896L25.38612641764901,119.01725474465992L25.39034875946045,31.754335653847477L25.39457110127189,67.38984890746538L25.39926259217349,154.75791947383138L25.40348493398493,106.20244223353023L25.420843450320852,65.10501865706553L25.42506579213229,-12.723623276902543L27.319020669108305,43.569096143846394L27.323712160009904,-18.703288733476114L27.332156843632784,72.1319036957888L27.345293018157264,120.72211977070693L27.349515359968702,-14.19709695567596L27.358429192681747,1.868117745147515L27.36265153449319,-21.046657816014147L29.248161727846316,-14.264224392913832L29.25238406965776,56.93256619081299L29.26552024418224,65.02263164318887L29.26974258599368,49.75027225993756L29.27396492780512,1.0626643837621828L29.27818726961656,-20.99349335223269L31.207328328354574,-42.224663537390796L31.211550670166016,8.975777587962625L31.215773011977454,8.323082321194931L33.083924688994664,-1.3133965037257553L33.12708640528939,-5.962079366948956L33.13177789619099,23.293514192643073L33.13600023800243,29.442092847064828L33.14022257981387,52.5793220537157L35.02151043135556,63.45018686930055L35.05622746402741,44.626167929075876L35.064672147650285,19.74354588738501L36.92860148285605,23.57965035670358L36.932823824667494,3.1519332070531334L36.9633185155279,-0.25687297060633796L36.97598554096222,39.710332470930865L36.98489937367526,-0.08308503963351654L36.9891217154867,-0.7740188851841481L38.85305105069247,4.616074709695596L38.87040956702839,32.71279213805818L38.87463190883984,32.265535773314355L38.87885425065127,32.987436986894664L38.891990425175756,33.76487454623779L38.89621276698719,45.52685549323493L38.909348941511674,39.7967410930178L40.78594530215177,53.915955789769654L40.79485913486481,64.30047435986796L40.80330381848769,47.62452640677674L40.807526160299126,42.52490034602391L40.81221765120073,44.292127156897465L40.81643999301217,44.73893044659388L40.82066233482361,59.016794457859135L40.824884676635044,56.26709256951783L40.833798509348085,29.32332626463125L42.701950186365295,20.964709998346706L42.71461721179962,2.9901947994743523L42.71930870270123,1.4434829415749277L42.72353104451266,5.633195643017189L42.73197572813554,10.035418229996452L42.736667219037145,19.716809280263988L42.740889560848586,32.929810273849284L42.74933424447146,36.019517155096395L42.75402573537306,40.45322400891496L42.76247041899594,40.56620308551868L44.626399754201714,41.902902274472126L44.6348444378246,43.19913342069847L44.63906677963604,19.058005183867408L44.652202954160515,14.160650268430913L44.66956147049643,31.672161944218345L44.673783812307875,40.696501416336986L44.678475303209474,49.56967160832497L44.682697645020916,32.18041018365827L46.550849322038125,38.55561320942513L46.555071663849574,41.89590157967595L46.56351634747245,54.13007123616184L46.57243018018549,36.83193469062928L46.576652521996934,46.84331031065409L46.58087486380837,46.00054153311041L46.585566354709975,48.06113143441891L46.59401103833285,57.81345182134906L46.598233380144286,58.95814888280728L48.48796591530886,66.65687911690694L48.50532443164479,76.47575051602175L48.52268294798071,76.97182560334237L48.527374438882305,77.0442813658625L48.53159678069375,77.2890454855366L50.40819314133384,63.787341797047105L50.41241548314528,64.96748138720245L50.41710697404688,75.75239614773405L50.42132931585832,81.00145949528381L50.4344654903828,73.60668509809015L50.43868783219424,53.98251292342384L50.451824006718724,44.765627153716224L50.45604634853016,46.0375878720763L52.324198025547375,52.008072389885484L52.32842036735882,53.19700297319838L52.33264270917025,67.71275195490355L52.34155654188329,75.0908314508311L52.345778883694734,63.27394596157528L52.350001225506176,74.59976563080647L52.35422356731761,70.80903503043741L52.35891505821922,78.90204417288469L52.36313740003065,76.85945229724466L52.376273574555135,71.22560623630895L52.380495916366584,72.37020035984835L54.248647593383794,79.9580564513957L54.26600610971971,94.33452866068087L54.270228451531146,84.94463563343652L54.27867313515404,87.9900806996398L54.28758696786707,75.33734273409347L54.29180930967851,90.9081664629755L56.173097161220205,78.2065692102847L56.185764186654524,86.04753270188634L56.19045567755612,83.80814796765853L56.194678019367565,84.20783843308116L56.198900361179,87.59835747779591L56.20781419389204,80.57814736158498L56.225172710227966,84.42102200933361L56.23361739385085,73.4074601989948L58.10176907086806,79.82812905868289L58.1059914126795,68.28970923264026L58.110213754490935,81.7201344482235L58.12757227082686,82.58550632944107L58.13226376172846,80.00876077151676L58.14070844535134,74.18328907038578L58.14962227806438,82.62796751198563L58.15806696168726,67.53588793924007L60.039354813228954,66.82283488109233L60.04779949685183,74.03282175367433L60.05202183866328,69.83283361101289L60.065158013187755,71.1672975970977L60.0740718459008,75.60840429766941L60.07829418771224,79.4331077164638L60.08251652952368,82.37870305431082L61.95066820654089,88.46869566193637L61.954890548352324,91.20702562198099L61.95911289016377,94.20576289884276L61.97647140649969,85.23383163004262L61.98116289740128,90.17965565881396L61.989607581024174,88.69270193087438L62.00274375554865,90.38382703902002L63.87934011618874,101.84406973161614L63.883562458000185,110.39433390349345L63.888253948901784,119.5571551469875L63.89247629071322,121.56005943873913L63.9009209743361,120.57450203491675L63.914057148860586,121.86338509065183L63.91827949067203,115.800031530537L63.92297098157363,122.34341047833122L65.79534500040228,123.01421887940097L65.79956734221372,122.14565016547618L65.8080120258366,125.35649509158401L65.83428437488556,114.71583665282981L65.84272905850844,122.11975701718217L65.84742054941003,124.26859950510847L65.85164289122147,137.24148102257735L65.85586523303293,136.83720399765724L67.7197945682387,139.60053668221303L67.72823925186157,150.03769556322644L67.73246159367301,142.04041718265557L67.75451160091053,139.27876200707684L67.75873394272197,140.36428346459684L67.76717862634486,136.37246822335834L67.77609245905789,132.85870434925062L67.78031480086933,134.52649741142773L69.64424413607512,138.67121380185023L69.65268881969799,139.46310540732483L69.65691116150943,143.16206786287125L69.66160265241102,148.45771710875977L69.66582499422246,157.27361099733105L69.67426967784534,157.80496752830857L69.67896116874695,154.80688192817126L69.68740585236984,159.76531434196886L69.69162819418126,156.75318469680988L69.70054202689431,153.7198082325369L71.56869370391152,155.70196115789963L71.5771383875344,157.9213825170801L71.58136072934583,166.3726098698474L71.58605222024745,170.22735353733609L71.59449690387032,171.85131742417482L71.59871924568176,175.48791956669126L71.61185542020625,172.44076466572753L71.6160777620177,172.98584198774174L71.62076925291929,169.69177901545757L71.62499159473073,160.7091361258335L73.49314327174794,157.6258914966549L73.49736561355938,157.068466404446L73.50158795537082,160.02925925949262L73.50581029718225,152.53196376760224L73.52786030441978,154.43773972436125L73.5452188207557,158.0318873498503L73.54944116256715,159.68350356489586L75.41759283958434,159.205433844037L75.43025986501867,154.50318034767324L75.46075455587908,150.3226784085915L75.46497689769052,155.25318705145077L77.34204240742076,156.54142079004464L77.3462647492322,151.43058620668597L77.35048709104365,145.44009811749237L77.35940092375668,150.36786860053513L77.36784560737956,151.10360781525594L77.37675944009261,152.12217311373064L77.38520412371548,150.71631925558984L79.2838504915931,154.06917352740027L79.28807283340454,150.17590128495826L79.29229517521598,151.4593022535539L79.29651751702743,147.93973535202224L79.30543134974047,143.24484734030247L79.3096536915519,149.64949434071713L79.32278986607638,145.4746511694711L81.19516388490504,142.96074921274817L81.22096708486384,141.9815228694596L81.22565857576544,135.3806341168723L81.22988091757688,139.73752607777948L81.23410325938832,140.1620228368903L81.23832560119975,143.23579471925265L81.2472394339128,138.98421507947978L81.25146177572424,144.27078846364668L83.11539111093,146.3131387695533L83.12383579455289,147.31930007618314L83.12805813636433,148.49034880280257L83.13274962726594,148.6732578608295L83.1411943108888,146.149741155663L83.15010814360184,151.89399531914026L83.1543304854133,153.16354407503155L83.17168900174921,152.41756342468003L85.04828536238931,148.241180951191L85.0614215369138,152.2734533748528L85.06564387872523,149.42300627369607L85.07455771143826,145.09555389177314L85.0787800532497,137.5502163161594L85.08722473687259,140.4097562015417L85.09613856958563,138.2863362272754L86.96851258841427,138.6087603991645L86.9990072792747,141.42353635301546L87.011674304709,143.4417285269139L87.0163657956106,141.46536610605133L88.88873981443926,141.62260819747576L88.89296215625069,136.8148148012918L88.89718449806213,130.75753671831103L88.90609833077517,129.2121922778619L88.91032067258662,134.82404561032405L88.91454301439806,135.34984677454156L88.9187653562095,134.05952402480028L88.92767918892254,139.65733888397776L88.9492600470699,139.398001453036L90.81318938227567,131.19389984316362L90.83899258223447,134.210934568565L90.84790641494752,132.6364888806704L90.85212875675896,136.88562335436097L90.8563510985704,129.55501124174646L90.86057344038183,131.31211254215074L90.86526493128343,132.4678311646824L90.86948727309486,130.4875719937241L90.8737096149063,132.12413660254165L92.73763895011209,137.07214174342516L92.74186129192353,139.15600871605184L92.74608363373495,143.56891636964977L92.754997466448,137.92126918047416L92.76766449188233,140.12323999084336L92.77235598278392,135.18809646015706L92.77657832459536,138.90840671615538L92.78502300821823,128.6027709117788L92.78971449911985,130.62355793358265L94.66208851794849,133.594130830758L94.67053320157139,120.70424918263843L94.67944703428442,121.55527826076587L94.68366937609585,119.85179319264583L94.69680555062034,121.27213152493536L94.70102789243178,120.41439996961009L94.70525023424322,120.16913585616972L94.71416406695626,126.01061607496678L94.7183864087677,126.56272697937959L94.72260875057913,126.03557388241578L96.59076042759635,126.07588629430703L96.59920511121923,125.2182507102568L96.60389660212084,126.71252849998459L96.61656362755515,126.8953096681363L96.62125511845674,129.1356818544623L96.62547746026819,131.23226033558566L96.62969980207963,135.3584727485756L96.63392214389107,136.66286469963077L96.63861363479268,129.54473213746454L96.64283597660412,130.23355333486873L96.64705831841556,129.1982534572203L98.51520999543277,129.18335511313575L98.51943233724421,127.30912937864987L98.53679085358013,126.539316819417L98.54101319539156,129.5793993545392L98.54570468629318,135.962536339818L98.55414936991605,127.38852549733343L98.55837171172749,126.00877278169268L98.56306320262908,125.65330222833323L98.56728554444052,122.68215108250104L100.43543722145775,125.20522675506689L100.44388190508062,130.06497110290272L100.44810424689206,130.52115393883062L100.45279573779366,132.40078803272093L100.46124042141655,128.19868955415305L100.47015425412958,126.55486386577053L100.47859893775245,122.78574493772089L100.48282127956391,118.19125286648054L100.4875127704655,120.25687467124752L102.35988678929417,124.25106997107679L102.37724530563007,125.77547457366936L102.38146764744151,121.02724175800904L102.3899123310644,117.34295247027931L102.394603821966,119.59124399183199L102.40304850558888,123.25998593777348L102.4204070219248,125.60388907119523L104.28433635713057,130.4716635190102L104.29278104075345,123.16471947464306L104.3016948734665,122.60428253926003L104.3190533898024,125.32966020412907L104.33172041523675,120.94016164160436L104.33641190613834,122.05061751451768L104.3448565897612,114.90490629822523L106.20878592496699,111.48870112066213L106.21300826677843,117.09504682726741L106.21723060858987,118.81146576846328L106.22145295040131,115.48223691953515L106.2261444413029,117.50031789646775L106.23036678311435,116.68084992996796L106.23458912492578,118.95231546209838L106.23881146673723,124.6010452907168L106.25616998307315,126.49401741658617L106.26086147397474,122.99322420615809L106.26930615759764,120.80556486742366L108.13745783461484,118.89192886696995L108.15059400913933,114.7024414325404L108.15903869276221,115.8165552530096L108.16326103457364,114.3581303080374L108.16795252547524,116.92386501101642L108.18061955090957,112.48778311017261L108.18531104181116,114.917579330776L108.1895333836226,112.67157098705387L108.19375572543404,113.95558474612379L110.05768506063983,119.44583939624957L110.0661297442627,120.33204536711949L110.07035208607414,117.96513502328676L110.07504357697573,119.42234420736989L110.08348826059861,118.1506948313791L110.08771060241006,121.28759722477247L110.09240209331166,112.14070262646632L110.0966244351231,112.69228452618181L110.10084677693453,111.26140181102512L110.10506911874597,114.60605763847798L110.11398295145902,111.49501505988233L110.11820529327046,115.46901125909936L111.9905793120991,121.407704436817L112.00793782843503,119.5583007237986L112.02107400295952,116.63485845674407L112.02529634477095,114.42232030516246L112.02951868658239,114.31014491051599L112.034210177484,116.50843926378525L112.03843251929543,119.08829507068998L112.04265486110687,119.14946025088409L113.90658419631265,122.0923035182571L113.91080653812409,125.22946985245467L113.91925122174696,123.25939218979198L113.92394271264855,116.04617444837166L113.92816505446,113.88182486259552L113.94552357079593,114.26199685556456L113.96288208713185,115.67737258778018L113.96710442894329,117.58230768207557L115.8352561059605,117.41297360749829L115.83947844777194,119.04909224393089L115.84370078958338,120.78410533161987L115.84839228048499,126.7323407758623L115.85261462229641,123.87763947350726L115.85683696410786,121.84906392244827L115.86997313863235,121.70101249132354L115.87419548044379,121.77829449492077L115.87841782225523,117.93470769152518L117.75970567379692,115.44026677133408L117.7681503574198,117.56888016033834L117.77284184832139,113.36370930393002L117.77706419013283,109.7758577892979L117.78128653194427,111.8905439353011L117.79020036465731,110.89406541542941L117.80286739009163,111.87950895310202L117.80755888099324,115.75155587997622L119.67993289982188,121.15628587882466L119.68415524163332,123.15521632900456L119.68837758344476,121.74074381656283L119.69259992525622,125.7974475975509L119.69729141615781,126.87883525352765L119.7057360997807,125.42734483115677L119.71887227430517,126.70788871141585L119.72309461611661,124.98212196963098L119.73200844882965,124.88613814779652L121.60438246765831,126.05617398236316L121.60860480946974,125.55779138381376L121.61282715128118,130.67566565545485L121.62174098399421,128.6390342291399L121.62596332580567,129.53621407423307L121.63018566761711,131.63229489669118L121.63440800942855,132.82189193068922L121.63909950033015,130.09749375409464L121.64332184214159,125.41569372872598L121.64754418395302,126.18419651965719L121.65176652576446,127.99929975155823L121.66490270028895,127.24565321359128L123.52883203549472,124.80367167576557L123.54619055183063,123.76920109182662L123.55041289364208,122.70488556288531L123.55885757726496,119.9046775540831L123.56777140997801,120.62972420246544L123.57621609360088,124.65214031713467L123.58090758450248,123.8772484038773L123.58512992631391,125.21865795772274L123.58935226812535,124.85354086645646L125.45328160333113,127.26871745866382L125.45750394514258,131.82419290940751L125.46594862876545,128.0642285288542L125.4748624614785,126.80706923991298L125.48330714510138,127.78749054738711L125.49644331962585,127.22758940322657L125.5006656614373,128.5602179522435L125.5053571523389,128.8446285360396L125.50957949415034,125.91897293378858L125.51380183596177,120.93462286778734L127.381953512979,124.81678816046053L127.39039819660188,120.86566829865436L127.39931202931491,124.46173222140797L127.40353437112634,126.5019607911313L127.41244820383939,124.52679519910436L127.42511522927371,126.08085344733584L127.43402906198675,122.01879104292283L127.43825140379819,119.5755523809355L129.30218073900397,121.54062098142444L129.3148477644383,122.86901842031745L129.32798393896277,123.83373924555312L129.3322062807742,124.09477632018121L129.34112011348725,124.39359431693376L129.3495647971101,124.42320886143739L129.35847862982317,124.29924490595681L129.36270097163458,126.19169372094285L131.2392973322747,122.41495896925784L131.24821116498774,122.19716137441112L131.25243350679918,121.92190190145152L131.25665584861062,121.14752390155886L131.2613473395122,126.11338364349467L131.2697920231351,124.56759055181651L131.27401436494654,123.25384837980539L131.27870585584816,118.76098422934842L131.28292819765957,118.53662806364582L133.1595245582997,121.76125159695921L133.1684383910127,110.70141216109182L133.17266073282417,110.57335167390002L133.17688307463558,109.71905382942951L133.18110541644702,106.91284879652144L133.18579690734862,106.98203880894437L133.20315542368456,110.17227494469536L133.20737776549598,109.6332540903924L133.21160010730745,110.00253596015821L135.07552944251321,110.52110698864934L135.0881964679475,105.7230149344521L135.09288795884913,108.23049711117008L135.09711030066057,109.22905983833087L135.10133264247202,112.88330875483156L135.10555498428343,110.95886001207502L135.1144688169965,105.58224018121777L135.1186911588079,107.19088200236892L135.12291350061938,110.30217824665604L135.12760499152097,110.36935112541246L135.13604967514385,109.82644490078988L137.0084236939725,110.59352273873372L137.01733752668554,110.89238546197709L137.02155986849698,110.39581562630921L137.03000455211986,113.84309001267275L137.03469604302148,113.24371176069994L137.0389183848329,113.39628021866913L137.04736306845578,112.36038115914837L137.05205455935737,112.01295903455232L137.06049924298028,115.88154776316748L138.92442857818602,119.77623731253333L138.9460094363334,123.91881077371103L138.9544541199563,122.65055719943801L138.9591456108579,124.03872422245729L138.9633679526693,119.77110257586122L138.96759029448074,120.88241515779096L138.9718126362922,124.3917996669374L138.9765041271938,118.71287272045043L138.98072646900522,118.23630443949122L140.84887814602246,115.48630150015288L140.8531004878339,112.13598288772953L140.85732282964534,114.25464812536498L140.87045900416982,110.99538105682544L140.87468134598123,116.64587197343181L140.8789036877927,114.11133565653759L140.8835951786943,113.78988291172504L140.89203986231718,115.9859003613775L142.7775500556703,116.04045662702237L142.78177239748175,117.07992868378483L142.78599473929316,121.28099847481845L142.79490857200622,119.96073330138591L142.81226708834214,122.01577660192984L142.82540326286662,119.21315952725138L144.69777728169527,119.86329087993876L144.71044430712962,115.39396114750096L144.7151357980312,116.78545969378297L144.72358048165407,118.39320162061392L144.72780282346554,119.16370678197671L144.73249431436713,119.68913809714793L144.73671665617854,120.87769243230846L144.74516133980143,122.02272606100587L144.74985283070302,120.02815172361173L144.7540751725145,123.19873910310525L144.75829751432593,122.93740619915721L146.62222684953167,123.75417398766582L146.62644919134314,122.93999780420513L146.63067153315455,121.62289631900563L146.63489387496602,123.11387467757555L146.63958536586762,121.36800501707889L146.6480300494905,121.80282103920035L146.65225239130194,124.49495159007286L146.66116622401498,125.22049495589187L146.66961090763786,126.90392824744615L146.67430239853945,126.20056762003733L146.68274708216234,122.25661003078662L148.55089875917955,122.77560067217274L148.555121100991,125.25950749982226L148.55934344280243,125.1697779229122L148.56403493370402,127.24233632936543L148.57670195913835,127.23496863174476L148.58139345003994,126.25920474101105L148.5856157918514,125.92570456866949L148.58983813366282,128.33384644549452L148.59875196637586,129.87577580605185L148.60297430818733,130.1550403885376L150.49692918516334,127.14971294818614L150.51006535968781,126.59434858617426L150.51428770149926,131.05165299749595L150.5232015342123,132.27138562668782L150.52742387602373,133.90484328679113L150.53164621783515,131.81949185542243L152.39557555304094,129.45670579316163L152.40824257847527,130.81746545701125L152.41293406937686,130.46902576409997L152.42137875299974,127.19314708623472L152.42560109481119,126.7036855526717L152.43029258571278,125.61208871351771L152.43451492752422,128.11532756836218L152.44765110204872,130.7338401869307L154.34160597902473,129.85302981603576L154.34582832083615,129.4859661233281L154.3500506626476,130.10847784125505L154.35896449536065,128.6038641320734L154.36740917898354,129.42294944954847L154.37210066988513,125.02060434111775L154.37632301169654,125.0479222368144L156.24447468871378,125.10660392403477L156.2486970305252,127.07485252865948L156.25291937233666,127.6134922119991L156.25714171414808,128.90506421737402L156.26183320504967,129.05104070698405L156.274500230484,127.53960006454798L156.27919172138562,126.33806723398169L156.28341406319706,125.85321535535455L156.30499492134442,128.67427016798916L158.1731465983616,126.58079415579948L158.17736894017307,130.669567324232L158.1862827728861,128.53840802981114L158.19050511469754,125.73050048757474L158.1989497983204,127.18690786358661L158.22522214736938,126.71580925795618L158.22944448918082,121.26414075197647L160.09759616619803,121.48058502415532L160.10181850800947,121.5709857265706L160.10604084982091,121.72805360379046L160.12339936615686,123.79863605378506L160.12809085705845,123.26954907327851L160.13231319886987,124.74047461718578L160.1365355406813,124.09970156249659L160.14075788249275,124.67722630437216L160.14967171520578,122.04147411792187L162.017823392223,121.58401886320567L162.02204573403446,123.57625220433766L162.0262680758459,124.70914671479014L162.03049041765732,126.80796029737301L162.0351819085589,128.10774234931236L162.03940425037038,128.19515144747965L162.0436265921818,129.6046028758854L162.06098510851774,126.17664210119949L162.06989894123078,127.09242894590454L162.0741212830422,123.65206620562022L163.95963147639537,120.75834208447382L163.96807616001823,121.53013575173887L163.97698999273126,122.79447611639006L163.9812123345427,123.53766713514055L163.98543467635415,128.05066588089574L163.99434850906718,130.7647163370838L165.86672252789583,129.56135967632906L165.8709448697073,130.09474824123672L165.88408104423178,126.78083292295331L165.89252572785463,125.4025338871144L165.9056619023791,125.30183790931056L165.91879807690358,129.5288236001727L165.92302041871505,129.05166672738352L167.79117209573224,127.29829916066703L167.7953944375437,127.61304694562625L167.79961677935512,126.59710100580583L167.8038391211666,125.79562253984822L167.80853061206818,125.60467194904803L167.81275295387962,127.15193561904013L167.81697529569107,131.16308336507495L167.8258891284041,131.38286442506845L167.8301114702155,130.0225210155775L167.83433381202698,129.15201539500134L167.84746998655146,129.69729002910648L167.8516923283629,131.7839145495007L169.7198440053801,134.33347465588122L169.75456103805197,137.7546014525035L169.7587833798634,136.38549087112543L169.76300572167483,139.1205513018289L169.76769721257642,137.68427935318084L169.77191955438786,138.76725927821008L171.6400712314051,140.76172829660013L171.64429357321652,142.7947058660139L171.64851591502796,145.37212203395254L171.6527382568394,144.31675315053943L171.66165208955243,144.94693464355845L171.6658744313639,142.55780154748226L171.67009677317532,143.6137559452397L171.67901060588838,144.4406957648518L171.6832329476998,144.27471018142563L171.69214678041286,143.9902491804199L173.59454634101172,145.9008904814687L173.60768251553623,144.17259409382584L173.61190485734767,143.46094006808778L173.61659634824926,143.20881630393666L173.6208186900607,144.13181713417956L175.4889703670779,142.1795590851258L175.49319270888935,146.03512635301897L175.4974150507008,143.8726765325802L175.50632888341383,144.25006597293944L175.51899590884815,147.22715436251957L175.52368739974975,145.9929319070713L175.5279097415612,143.01368491801946L175.53213208337263,142.35994552201308L175.5363544251841,146.3895139798646L175.5410459160857,145.5165408299573L175.5452682578971,144.87156936912663L175.54949059970855,143.33906455726856L177.41764227672576,140.97008209454648L177.42608696034864,142.9934344710294L177.43077845125023,143.72286328391345L177.43922313487312,142.99678193769887L177.44813696758615,144.78827958482853L177.45658165120904,145.09037662949936L177.4608039930205,146.9122331507029L177.4654954839221,144.5243976766045L177.46971782573354,145.4287795823774L177.47394016754498,146.67096006437504L179.33786950275075,144.9065947436978L179.35522801908667,142.41112265182514L179.37680887723403,142.4874743822775L179.38103121904547,140.26575089388533L179.3899450517585,141.05809894468288L179.39416739356994,140.1318837317229L179.3983897353814,142.8366210783654L181.27076375421004,144.6536200791245L181.27498609602148,143.0232353313935L181.27967758692307,145.14571836513994L181.28812227054595,144.22962731892363L181.29703610325902,142.30842341252793L181.30125844507043,142.0935108269167L181.31439461959494,143.40521989402427L181.32283930321782,144.08114274582857L183.19099098023503,141.3143462847131L183.19521332204644,140.0414816923639L183.20412715475948,139.43844439596543L183.20834949657095,139.61827102510787L183.22148567109542,142.6189537091953L183.22570801290686,139.5715504266047L183.2299303547183,139.2252054134603L183.23884418743134,139.56558187674366L183.24306652924275,138.3724713272738L183.24728887105422,137.35700398682678L185.11544054807143,139.23887978709203L185.11966288988287,136.2513375421995L185.1238852316943,139.4609886067717L185.1285767225959,139.23555867683547L185.13279906440735,139.19152493192962L185.1370214062188,140.0962630442785L185.14593523893183,133.9863075444955L185.15860226436615,133.47278051257888L185.16329375526774,136.48765201942828L185.17173843889063,136.41005550189243L187.04833479953075,134.42835835272209L187.05302629043234,133.05401584982081L187.0614709740552,131.8453516421639L187.06569331586664,131.80836320017497L187.07882949039114,132.96813421306592L187.08774332310415,133.39410172585428L187.09618800672703,133.6856924225642L188.96433968374427,132.83437457537866L188.96856202555568,132.980348098261L188.97278436736715,133.62186423326062L188.97747585826875,135.5437896738632L188.98592054189163,133.63606740430174L188.99905671641608,133.73133426303923L189.00327905822755,134.76291599217325L189.01219289094058,136.47542804484712L189.01641523275202,137.15548572258226L189.02063757456347,136.0316721167135L190.88878925158068,136.51582019065017L190.9061477679166,134.57186651729558L190.91459245153948,133.2222521086481L190.91928394244107,134.6382236406711L190.92772862606395,134.28529309676577L190.9319509678754,134.4573195245028L190.936642458777,136.41391023038858L190.94086480058843,135.09180597881777L190.94508714239987,135.57607549735945L192.80901647760567,135.1924355017776L192.82637499394156,137.3699555710873L192.830597335753,139.24243319069856L192.83481967756447,139.30114140745334L192.83904201937588,138.26635291656532L192.84373351027747,136.2900975858032L192.85217819390036,132.81808362077246L192.86109202661342,133.36961652168702L192.86531436842486,130.63754771894313L192.86953671023628,131.48279163395677L194.73346604544207,132.5208459001143L194.73768838725348,132.3230431584645L194.74191072906493,128.4487441181896L194.7550469035894,127.18536907640696L194.7681830781139,127.25887860671453L194.7766277617368,127.07251394470424L194.78554159444982,127.58341339812515L194.78976393626127,126.77045994507765L194.79398627807268,126.22534099099815L196.65791561327848,125.36755521656549L196.66213795508992,127.70550359880787L196.67949647142584,126.80001205354526L196.69685498776175,129.0465247190795L196.70529967138464,127.06456652197974L196.70999116228626,129.11922154890507L196.71421350409767,130.27563044919546L198.58236518111488,127.76596604863455L198.58658752292632,132.07840908765547L198.5908098647378,132.4489235965736L198.60394603926227,132.92226042854085L198.61708221378672,134.08696430775518L198.6213045555982,136.60607093704843L198.6255268974096,134.26664512669308L198.63444073012266,132.81576820467743L198.63866307193408,126.72717567442737L198.64288541374555,127.74244637121214L200.51103709076273,123.67768455962988L200.5152594325742,124.588014593645L200.52417326528723,127.66057952897096L200.52839560709867,123.60933274760336L200.53261794891012,123.73364230901343L200.53684029072153,124.53810942664626L200.54153178162315,125.30787673261398L200.5457541234346,125.42302225734514L200.55419880705747,127.04103730021376L200.55889029795907,129.3139032877518L202.43126431678772,129.96853726746673L202.45284517493508,129.50368182629572L202.470203691271,129.4141440251504L204.364158568247,130.13338013858635L204.36838091005845,130.86880864090978L204.37307240096004,132.7100056402525L204.3772947427715,132.56803429626893L204.38151708458292,133.77136942335187L204.3946532591074,128.81479780602453L204.39887560091887,130.46843699496623L204.4077894336319,127.60166919644502L204.41201177544332,126.63109724625556L206.28016345246056,124.94083569910508L206.284385794272,121.54900151038811L206.28860813608344,121.05061300694831L206.29283047789485,120.64706320521968L206.30174431060792,120.86943021231612L206.3101889942308,119.60528845255877L206.3148804851324,122.09587016879104L206.31910282694383,120.28780105189645L206.32754751056672,122.72409741550132L206.3322390014683,122.61383708648557L206.33646134327975,126.05891947153538L208.20461302029696,124.25554350001076L208.21305770391984,125.8714078931896L208.2393300529688,126.98517328694341L208.2477747365917,125.49787480585627L208.2651332529276,127.27145637165886L210.12906258813337,125.82582839154118L210.13328492994484,125.69842120312597L210.15064344628072,124.88910474210219L210.1722243044281,124.0629309649244L210.17644664623953,126.66217451770429L212.05351215596977,126.10553299877819L212.06617918140412,123.24626127827355L212.07087067230572,119.96756100438574L212.08353769774004,121.98425780711975L212.08822918864163,124.26151277787038L212.09667387226452,123.00611137434916L212.10089621407596,123.74037974065659L212.10558770497755,124.07642643255815L212.109810046789,125.26515806758705L213.97796172380623,125.5995461395738L213.98218406561764,125.27166297760067L213.99532024014212,122.10849530445233L213.99954258195356,124.36831934333469L214.003764923765,126.83198777752247L214.00798726557645,124.81858372813775L214.01267875647804,123.19410391823337L214.03003727281396,125.63473631717818L215.90241129164264,125.86894080057503L215.90663363345405,123.23835092306798L215.9108559752655,123.87088597759575L215.91507831707693,123.97398978056164L215.92399214978997,123.85239719387428L215.92821449160144,122.4775675441872L215.93243683341285,121.07998723701381L215.93712832431444,121.13867143350835L215.9413506661259,122.30190244991093L215.94557300793736,122.1725858662602L215.94979534974877,120.9816743459155L215.9544868406504,124.17924148253812L215.95870918246183,125.7722961720102L217.83108320129048,126.88969978486287L217.83952788491337,125.4239379876775L217.86157789215088,126.59421248683478L217.86580023396232,128.04121294271602L217.87002257577376,124.05979599524474L217.87893640848682,124.70903380960809L219.7555327691269,126.2373292283727L219.76866894365136,124.79658831620247L219.77711362727425,125.25139943186497L219.79447214361016,125.73350224111326L219.79869448542163,122.97023211692012L219.80338597632323,122.60847973437649L219.80760831813464,121.27690973662075L221.6799823369633,122.59482546940092L221.68842702058618,124.24001076390343L221.69311851148777,123.89178455746162L221.69734085329924,123.07895913203419L221.70156319511068,121.08033411312317L221.7057855369221,122.7103405273134L221.71469936963516,124.64338015506974L221.71892171144657,122.59501169232857L221.73205788597107,117.16635528664057L221.73628022778252,119.89883742221707L223.6044319047997,122.26544060712547L223.60865424661117,121.66155378569852L223.6128765884226,121.4784205376474L223.63492659566015,119.98999268098063L223.63914893747156,121.30017210237526L223.643371279283,120.47868084491927L225.537326156259,121.85253917066873L225.5420176471606,122.23061317724635L225.54623998897208,122.14663803339823L225.55468467259496,120.65952960865485L225.55937616349655,118.95779342159867L225.56359850530797,119.13744516343985L225.56782084711944,117.5852847889204L225.57204318893085,116.3422450882575L225.57673467983247,117.29771967811803L225.58095702164388,118.92152529250018L227.4491086986611,116.17017115524669L227.457553382284,114.7821696222447L227.46177572409542,115.52170555598065L227.46646721499704,116.41266514547974L227.4749118986199,118.15191867214867L227.47913424043136,119.5760387449127L227.4880480731444,117.1048502312077L227.49649275676728,117.697665988761L227.50118424766887,117.30052652446068L227.50962893129176,117.23735827607425L229.37355826649753,116.8534101436957L229.39091678283347,118.2902167636338L229.39513912464488,119.97807855903329L229.39936146645633,120.67570086342745L229.40358380826777,122.17703399319471L229.40827529916936,121.43728308196164L229.4124976409808,118.53347449659483L229.41671998279224,116.4220909688414L229.42563381550528,114.23024941825844L229.42985615731675,114.45008730187914L229.43407849912816,115.52611239939031L231.29800783433393,115.86291829634212L231.31536635066988,116.6785545297349L231.32381103429273,118.39522268845877L231.32803337610417,117.60234325960042L231.3327248670058,116.87617078120556L231.34116955062868,120.6553111700978L231.35008338334168,119.4508011591447L231.35852806696457,120.11372080521805L233.2266797439818,120.28917683317346L233.23090208579322,120.75076535143128L233.2351244276047,118.06140038756195L233.24403826031772,120.37042245172239L233.24826060212916,119.60733601105287L233.2524829439406,117.93422977623024L233.2571744348422,117.97261730204596L233.2613967766536,120.37398958192924L233.26561911846508,122.44495647249767L233.2698414602765,120.66703863644818L233.27453295117812,122.98209342653985L233.27875529298956,123.0877963919111L235.1511293118182,122.32238808634382L235.15535165362965,125.56388424082708L235.16426548634269,124.97726098450559L235.16848782815413,124.30175902457405L235.1816240026786,120.35405681500043L235.18584634449007,121.45309310076055L235.1900686863015,121.22372431540302L235.19429102811293,123.26665244151661L235.19898251901452,120.83081207324797L235.2074272026374,121.15424014036171L237.0840235632775,120.02950169817464L237.09293739599053,120.33688534469742L237.097159737802,121.57301767014172L237.10138207961342,118.1182279672093L237.1145182541379,116.01350624605462L237.11874059594933,119.17505859171413L237.1276544286624,118.2965062584015L237.1318767704738,117.98629562380907L238.9958061056796,116.4263339800255L239.0042507893025,117.3725659928075L239.00847313111393,117.968347470564L239.01316462201552,118.38202422741765L239.01738696382694,119.24275107930653L239.02583164744982,118.86865567435112L239.03474548016288,120.45668034905734L239.04319016378577,119.5677306362104L239.04788165468736,119.38697099463003L239.05632633831024,119.3874551299858L240.920255673516,118.6855437433833L240.92447801532745,118.95666722677015L240.9287003571389,118.3368594723439L240.93761418985193,115.07033719661948L240.95028121528625,114.60382854528271L240.95497270618785,113.01638304459743L240.9591950479993,112.99954264651073L240.96341738981073,112.57143568286038L240.9676397316222,116.62187383736145L240.9765535643352,115.60526018038217L240.98077590614668,116.00029851729298L242.84470524135244,115.51079150792778L242.84892758316386,114.95042164056369L242.85314992497533,117.87389735982093L242.85737226678674,115.8938211851744L242.86206375768833,117.65240236393672L242.8662860994998,116.49429661204846L242.87473078312266,116.42543688969889L242.87942227402428,117.48430084586077L242.88364461583572,115.10026246086879L242.90100313217164,114.89570573236773L244.77337715100026,115.34186874104074L244.77759949281173,117.0229748521815L244.78182183462314,117.3228761457004L244.79495800914765,117.11021307240307L244.7991803509591,116.13438321167713L244.80387184186068,117.32615149186795L244.80809418367213,115.2275682973178L244.81231652548357,112.14202302155357L244.8212303581966,113.10542811312307L244.82545270000804,109.02874005303883L244.82967504181948,109.5173958995818L246.70204906064814,110.7918141147872L246.70627140245958,111.99902951878605L246.7151852351726,109.99755249662292L246.71940757698405,108.06313026292611L246.72362991879552,109.97919642327344L246.73676609332,108.06603248763132L246.745679926033,106.47971572151037L246.74990226784445,107.44973078499626L246.75412460965592,110.44544723716893L248.61805394486166,109.98055688404865L248.62227628667313,109.74399199010534L248.62649862848454,109.88430459080024" fill="none"></path></g></g></g></g><g opacity="0.2"><g><g><g><path style="fill: none;" stroke="rgb(255, 112, 67)" stroke-width="2px" d="M23.470121533435474,130.0450337037721L23.479035366148512,-538.8482641086025L27.366873876304627,-323.9011406651529L29.2308032115104,60.83273099458151L29.23924789513328,-556.4575585443166L33.12286406347795,322.81664620478466L33.12708640528939,38.88873711711764L33.13177789619099,1421.5462300963097L38.87040956702839,1720.9355916674594L38.87463190883984,4.971699935702901L38.87885425065127,77.71860992449275L38.891990425175756,82.66573444454075L38.89621276698719,796.3664129247609L40.807526160299126,-306.8128715724409L40.81221765120073,166.9962026632264L40.81643999301217,76.1772114974114L40.82066233482361,1076.9046609781017L42.75402573537306,401.55759072053024L42.76247041899594,49.87147680368281L44.626399754201714,153.2224658550378L44.6348444378246,152.3355264613044L44.63906677963604,-2035.592650014185L46.59401103833285,1003.0036221950434L46.598233380144286,170.93424276049745L48.48796591530886,826.6968898311048L48.50532443164479,1054.661686187378L48.52268294798071,126.83849830606033L48.527374438882305,84.39281048094622L48.53159678069375,102.33293953531854L50.40819314133384,-1329.7932604922378L56.19045567755612,-200.79423143813773L56.194678019367565,135.35281077435818L56.198900361179,524.4073705574924L65.85164289122147,2251.418732110578L65.85586523303293,70.61460201952016L67.7197945682387,594.5561954239911L73.49314327174794,-421.0670821398561L73.49736561355938,51.99332498243565L73.50158795537082,720.5411494028278L73.54944116256715,477.69446994289564L75.41759283958434,66.76980670686434L75.43025986501867,-758.4742225522705L87.0163657956106,-309.24153694133696L88.88873981443926,177.60269049463574L88.89296215625069,-967.0057156262599L88.92767918892254,1450.6363473753013L88.9492600470699,78.46418675301616L90.81318938227567,-1802.7066607186684L94.70102789243178,-96.6664918260933L94.70525023424322,57.912978453732265L94.71416406695626,1613.124696883707L94.72260875057913,-8.950619316079951L96.59076042759635,136.42848973004976L96.59920511121923,-95.66709702187535L96.60389660212084,512.673973591994L96.61656362755515,174.2417873526183L96.62125511845674,711.1253223422053L96.64705831841556,-144.32582672812288L98.51520999543277,125.23629617501345L98.51943233724421,-370.61041475584443L98.55837171172749,-245.59469351655144L98.56306320262908,29.656414377389183L98.56728554444052,-681.8602785327771L112.02529634477095,-577.0551971296495L112.02951868658239,79.17531989679746L112.034210177484,806.5510188273668L112.03843251929543,930.6701262570209L112.04265486110687,138.43292090501794L113.90658419631265,1051.8904912130538L113.96710442894329,728.531841020542L115.8352561059605,62.989404306474995L115.83947844777194,646.0023731232841L115.85683696410786,-536.9894052518225L115.86997313863235,73.51721702362266L115.87419548044379,146.98201428055518L115.87841782225523,-1138.147570334892L119.72309461611661,-457.4200211532643L119.73200844882965,92.43055707556492L121.60438246765831,522.4605906089639L129.34112011348725,233.93951209186162L129.3495647971101,135.29855388584176L129.35847862982317,78.69766219618045L129.36270097163458,823.5453963316572L131.2392973322747,-1271.6657432085826L131.24821116498774,41.665814136312605L131.25243350679918,19.970637943579618L131.25665584861062,-166.15524511595947L131.27870585584816,-1559.4100711649955L131.28292819765957,34.59496045464789L133.1595245582997,1330.251940405299L133.1684383910127,-4041.0934505178257L133.17266073282417,62.42038280410662L133.17688307463558,-212.04399606016779L133.18110541644702,-951.7637010084625L133.18579690734862,133.12786925559837L133.20315542368456,1317.6944379953136L135.12291350061938,1309.075252094482L135.12760499152097,136.2920832299022L135.13604967514385,-100.01972177423835L137.03469604302148,-120.2620936945736L137.0389183848329,172.9268849686552L137.04736306845578,-292.467183295924L140.89203986231718,999.3354374909192L142.7775500556703,138.0183086087377L142.78177239748175,536.4482702146038L144.7540751725145,1428.6164480306434L144.75829751432593,15.186014587494924L146.62222684953167,460.9987057240606L148.555121100991,1168.242026696961L148.55934344280243,87.44072553753217L148.56403493370402,999.9005560574994L148.57670195913835,124.12851474322885L148.58139345003994,-285.7170282091674L154.37210066988513,-1793.9347185548093L154.37632301169654,136.97100886107495L156.24447468871378,150.75164767398238L156.2486970305252,988.3440626971287L160.09759616619803,218.00263116959817L160.10181850800947,161.93464224155207L160.10604084982091,191.94519450626038L162.0351819085589,717.0270919646711L162.03940425037038,167.84713111684098L162.0436265921818,769.7522385031358L165.89252572785463,-510.29986989441295L165.9056619023791,78.8044442527662L165.91879807690358,2083.6534365130174L167.8038391211666,-246.8722913527833L167.80853061206818,36.715338122183084L167.81275295387962,848.2434835802436L171.67901060588838,538.5615164555574L171.6832329476998,65.07900903907449L171.69214678041286,8.1186326390808L173.59454634101172,1059.5068990282189L173.61190485734767,-197.56961041092046L173.61659634824926,22.257951803741037L173.6208186900607,587.4005772742819L181.29703610325902,-813.6769925323503L181.30125844507043,35.045882215880596L181.31439461959494,797.4225274473729L185.1238852316943,1762.1309572899277L185.1285767225959,25.156053001793964L185.13279906440735,116.88640731532524L185.1370214062188,598.8332823369645L185.16329375526774,1669.5886126647417L185.17173843889063,96.91316762554797L187.04833479953075,-875.2331670387869L187.0614709740552,-485.1437349862499L187.06569331586664,112.90873390020853L187.07882949039114,726.1312148730586L192.830597335753,1118.5783739488352L192.83481967756447,170.03442810125338L192.83904201937588,-403.9292800377085L194.73346604544207,679.3789089804197L194.73768838725348,28.025048028565692L194.74191072906493,-1916.2303036228082L194.7550469035894,-540.1619502802803L194.7681830781139,166.1231170330696L194.7766277617368,28.454503642963687L194.78554159444982,398.1745304019705L202.45284517493508,-123.36412052343735L202.470203691271,80.66744928779133L204.364158568247,522.0310686557141L204.37307240096004,1137.613644119582L204.3772947427715,55.017403660290086L204.38151708458292,791.6276960542068L206.32754751056672,1468.8728977688968L206.3322390014683,61.64147623072964L206.33646134327975,2032.676009141411L210.12906258813337,-678.0853325029584L210.13328492994484,54.79108037459875L210.15064344628072,-325.88688363271064L215.91507831707693,182.43785852764802L215.92399214978997,54.852145287793746L215.92821449160144,-658.2914996734243L215.93243683341285,-673.2117266334945L215.93712832431444,154.51613980638558L215.9413506661259,784.4064908928966L215.94557300793736,48.51072874480337L215.94979534974877,-557.9017111247762L223.60865424661117,-229.49007480720104L223.6128765884226,14.91257136810654L223.63492659566015,-746.7519705138951L225.5420176471606,343.0200329931399L225.54623998897208,73.07159131406846L225.55468467259496,-749.0227051893136L227.50118424766887,-117.40244691768527L227.50962893129176,79.88017572671555L229.37355826649753,-110.36685786405525L233.2524829439406,-888.3733014722602L233.2571744348422,141.07646334352984L233.2613967766536,1566.613201023548L239.04319016378577,-426.2355420931665L239.04788165468736,8.333365974517477L239.05632633831024,119.68508039493994L240.920255673516,-313.08861541614647L240.95497270618785,-866.5264138534171L240.9591950479993,102.60164159988356L240.96341738981073,-151.92140414378446L242.8662860994998,-602.9632165855064L242.87473078312266,73.62125431021009L242.87942227402428,776.088792961104" fill="none"></path></g></g></g></g></g></g><g transform="translate(71, 178)" clip-path="url(#clip_1)"><clipPath id="clip_1"><rect width="258" height="21"></rect></clipPath><g><g><line x1="0" y1="0" x2="0" y2="5" style="visibility: inherit;" fill="rgb(0, 0, 0)" stroke="rgb(204, 204, 204)" stroke-width="1px"></line><line x1="23.457454508001156" y1="0" x2="23.457454508001156" y2="5" style="visibility: inherit;" fill="rgb(0, 0, 0)" stroke="rgb(204, 204, 204)" stroke-width="1px"></line><line x1="46.91490901600231" y1="0" x2="46.91490901600231" y2="5" style="visibility: inherit;" fill="rgb(0, 0, 0)" stroke="rgb(204, 204, 204)" stroke-width="1px"></line><line x1="70.37236352400346" y1="0" x2="70.37236352400346" y2="5" style="visibility: inherit;" fill="rgb(0, 0, 0)" stroke="rgb(204, 204, 204)" stroke-width="1px"></line><line x1="93.82981803200462" y1="0" x2="93.82981803200462" y2="5" style="visibility: inherit;" fill="rgb(0, 0, 0)" stroke="rgb(204, 204, 204)" stroke-width="1px"></line><line x1="117.28727254000577" y1="0" x2="117.28727254000577" y2="5" style="visibility: inherit;" fill="rgb(0, 0, 0)" stroke="rgb(204, 204, 204)" stroke-width="1px"></line><line x1="140.74472704800692" y1="0" x2="140.74472704800692" y2="5" style="visibility: inherit;" fill="rgb(0, 0, 0)" stroke="rgb(204, 204, 204)" stroke-width="1px"></line><line x1="164.20218155600807" y1="0" x2="164.20218155600807" y2="5" style="visibility: inherit;" fill="rgb(0, 0, 0)" stroke="rgb(204, 204, 204)" stroke-width="1px"></line><line x1="187.65963606400925" y1="0" x2="187.65963606400925" y2="5" style="visibility: inherit;" fill="rgb(0, 0, 0)" stroke="rgb(204, 204, 204)" stroke-width="1px"></line><line x1="211.1170905720104" y1="0" x2="211.1170905720104" y2="5" style="visibility: inherit;" fill="rgb(0, 0, 0)" stroke="rgb(204, 204, 204)" stroke-width="1px"></line><line x1="234.57454508001155" y1="0" x2="234.57454508001155" y2="5" style="visibility: inherit;" fill="rgb(0, 0, 0)" stroke="rgb(204, 204, 204)" stroke-width="1px"></line><line x1="258.0319995880127" y1="0" x2="258.0319995880127" y2="5" style="visibility: inherit;" fill="rgb(0, 0, 0)" stroke="rgb(204, 204, 204)" stroke-width="1px"></line></g><g transform="translate(0, 8)"><text style="text-anchor: middle; visibility: hidden; font-family: &quot;Helvetica Neue&quot;, sans-serif; font-size: 12px; font-weight: 200;" x="0" y="0" dx="0em" dy="0.95em" fill="rgb(50, 49, 63)" stroke="none" stroke-width="1px">-50k</text><text style="text-anchor: middle; visibility: hidden; font-family: &quot;Helvetica Neue&quot;, sans-serif; font-size: 12px; font-weight: 200;" x="23.457454508001156" y="0" dx="0em" dy="0.95em" fill="rgb(50, 49, 63)" stroke="none" stroke-width="1px">0</text><text style="text-anchor: middle; visibility: hidden; font-family: &quot;Helvetica Neue&quot;, sans-serif; font-size: 12px; font-weight: 200;" x="46.91490901600231" y="0" dx="0em" dy="0.95em" fill="rgb(50, 49, 63)" stroke="none" stroke-width="1px">50k</text><text style="text-anchor: middle; visibility: hidden; font-family: &quot;Helvetica Neue&quot;, sans-serif; font-size: 12px; font-weight: 200;" x="70.37236352400346" y="0" dx="0em" dy="0.95em" fill="rgb(50, 49, 63)" stroke="none" stroke-width="1px">100k</text><text style="text-anchor: middle; visibility: hidden; font-family: &quot;Helvetica Neue&quot;, sans-serif; font-size: 12px; font-weight: 200;" x="93.82981803200462" y="0" dx="0em" dy="0.95em" fill="rgb(50, 49, 63)" stroke="none" stroke-width="1px">150k</text><text style="text-anchor: middle; visibility: hidden; font-family: &quot;Helvetica Neue&quot;, sans-serif; font-size: 12px; font-weight: 200;" x="117.28727254000577" y="0" dx="0em" dy="0.95em" fill="rgb(50, 49, 63)" stroke="none" stroke-width="1px">200k</text><text style="text-anchor: middle; visibility: hidden; font-family: &quot;Helvetica Neue&quot;, sans-serif; font-size: 12px; font-weight: 200;" x="140.74472704800692" y="0" dx="0em" dy="0.95em" fill="rgb(50, 49, 63)" stroke="none" stroke-width="1px">250k</text><text style="text-anchor: middle; visibility: hidden; font-family: &quot;Helvetica Neue&quot;, sans-serif; font-size: 12px; font-weight: 200;" x="164.20218155600807" y="0" dx="0em" dy="0.95em" fill="rgb(50, 49, 63)" stroke="none" stroke-width="1px">300k</text><text style="text-anchor: middle; visibility: hidden; font-family: &quot;Helvetica Neue&quot;, sans-serif; font-size: 12px; font-weight: 200;" x="187.65963606400925" y="0" dx="0em" dy="0.95em" fill="rgb(50, 49, 63)" stroke="none" stroke-width="1px">350k</text><text style="text-anchor: middle; visibility: hidden; font-family: &quot;Helvetica Neue&quot;, sans-serif; font-size: 12px; font-weight: 200;" x="211.1170905720104" y="0" dx="0em" dy="0.95em" fill="rgb(50, 49, 63)" stroke="none" stroke-width="1px">400k</text><text style="text-anchor: middle; visibility: hidden; font-family: &quot;Helvetica Neue&quot;, sans-serif; font-size: 12px; font-weight: 200;" x="234.57454508001155" y="0" dx="0em" dy="0.95em" fill="rgb(50, 49, 63)" stroke="none" stroke-width="1px">450k</text><text style="text-anchor: middle; visibility: hidden; font-family: &quot;Helvetica Neue&quot;, sans-serif; font-size: 12px; font-weight: 200;" x="258.0319995880127" y="0" dx="0em" dy="0.95em" fill="rgb(50, 49, 63)" stroke="none" stroke-width="1px">500k</text></g><line x1="0" y1="0" x2="258.0319995880127" y2="0" fill="rgb(0, 0, 0)" stroke="rgb(204, 204, 204)" stroke-width="1px"></line></g></g></g></g></svg>