<svg viewBox="0 0 330 200" xmlns="http://www.w3.org/2000/svg"><g><g><g><g><g><line x1="51.3120002746582" y1="178.07699966430664" x2="46.3120002746582" y2="178.07699966430664" style="visibility: inherit;" fill="rgb(0, 0, 0)" stroke="rgb(204, 204, 204)" stroke-width="1px"></line><line x1="51.3120002746582" y1="163.23724969228107" x2="46.3120002746582" y2="163.23724969228107" style="visibility: inherit;" fill="rgb(0, 0, 0)" stroke="rgb(204, 204, 204)" stroke-width="1px"></line><line x1="51.3120002746582" y1="148.39749972025555" x2="46.3120002746582" y2="148.39749972025555" style="visibility: inherit;" fill="rgb(0, 0, 0)" stroke="rgb(204, 204, 204)" stroke-width="1px"></line><line x1="51.3120002746582" y1="133.55774974822998" x2="46.3120002746582" y2="133.55774974822998" style="visibility: inherit;" fill="rgb(0, 0, 0)" stroke="rgb(204, 204, 204)" stroke-width="1px"></line><line x1="51.3120002746582" y1="118.71799977620444" x2="46.3120002746582" y2="118.71799977620444" style="visibility: inherit;" fill="rgb(0, 0, 0)" stroke="rgb(204, 204, 204)" stroke-width="1px"></line><line x1="51.3120002746582" y1="103.87824980417886" x2="46.3120002746582" y2="103.87824980417886" style="visibility: inherit;" fill="rgb(0, 0, 0)" stroke="rgb(204, 204, 204)" stroke-width="1px"></line><line x1="51.3120002746582" y1="89.0384998321533" x2="46.3120002746582" y2="89.0384998321533" style="visibility: inherit;" fill="rgb(0, 0, 0)" stroke="rgb(204, 204, 204)" stroke-width="1px"></line><line x1="51.3120002746582" y1="74.19874986012782" x2="46.3120002746582" y2="74.19874986012782" style="visibility: inherit;" fill="rgb(0, 0, 0)" stroke="rgb(204, 204, 204)" stroke-width="1px"></line><line x1="51.3120002746582" y1="59.35899988810226" x2="46.3120002746582" y2="59.35899988810226" style="visibility: inherit;" fill="rgb(0, 0, 0)" stroke="rgb(204, 204, 204)" stroke-width="1px"></line><line x1="51.3120002746582" y1="44.51924991607669" x2="46.3120002746582" y2="44.51924991607669" style="visibility: inherit;" fill="rgb(0, 0, 0)" stroke="rgb(204, 204, 204)" stroke-width="1px"></line><line x1="51.3120002746582" y1="29.679499944051116" x2="46.3120002746582" y2="29.679499944051116" style="visibility: inherit;" fill="rgb(0, 0, 0)" stroke="rgb(204, 204, 204)" stroke-width="1px"></line><line x1="51.3120002746582" y1="14.839749972025572" x2="46.3120002746582" y2="14.839749972025572" style="visibility: inherit;" fill="rgb(0, 0, 0)" stroke="rgb(204, 204, 204)" stroke-width="1px"></line><line x1="51.3120002746582" y1="0" x2="46.3120002746582" y2="0" style="visibility: inherit;" fill="rgb(0, 0, 0)" stroke="rgb(204, 204, 204)" stroke-width="1px"></line></g><g transform="translate(41.3120002746582, 0)"><text style="text-anchor: end; visibility: hidden; font-family: &quot;Helvetica Neue&quot;, sans-serif; font-size: 12px; font-weight: 200;" x="0" y="178.07699966430664" dx="0em" dy="0.3em" fill="rgb(50, 49, 63)" stroke="none" stroke-width="1px">0.22</text><text style="text-anchor: end; visibility: inherit; font-family: &quot;Helvetica Neue&quot;, sans-serif; font-size: 12px; font-weight: 200;" x="0" y="163.23724969228107" dx="0em" dy="0.3em" fill="rgb(50, 49, 63)" stroke="none" stroke-width="1px">0.23</text><text style="text-anchor: end; visibility: hidden; font-family: &quot;Helvetica Neue&quot;, sans-serif; font-size: 12px; font-weight: 200;" x="0" y="148.39749972025555" dx="0em" dy="0.3em" fill="rgb(50, 49, 63)" stroke="none" stroke-width="1px">0.24</text><text style="text-anchor: end; visibility: inherit; font-family: &quot;Helvetica Neue&quot;, sans-serif; font-size: 12px; font-weight: 200;" x="0" y="133.55774974822998" dx="0em" dy="0.3em" fill="rgb(50, 49, 63)" stroke="none" stroke-width="1px">0.25</text><text style="text-anchor: end; visibility: hidden; font-family: &quot;Helvetica Neue&quot;, sans-serif; font-size: 12px; font-weight: 200;" x="0" y="118.71799977620444" dx="0em" dy="0.3em" fill="rgb(50, 49, 63)" stroke="none" stroke-width="1px">0.26</text><text style="text-anchor: end; visibility: inherit; font-family: &quot;Helvetica Neue&quot;, sans-serif; font-size: 12px; font-weight: 200;" x="0" y="103.87824980417886" dx="0em" dy="0.3em" fill="rgb(50, 49, 63)" stroke="none" stroke-width="1px">0.27</text><text style="text-anchor: end; visibility: hidden; font-family: &quot;Helvetica Neue&quot;, sans-serif; font-size: 12px; font-weight: 200;" x="0" y="89.0384998321533" dx="0em" dy="0.3em" fill="rgb(50, 49, 63)" stroke="none" stroke-width="1px">0.28</text><text style="text-anchor: end; visibility: inherit; font-family: &quot;Helvetica Neue&quot;, sans-serif; font-size: 12px; font-weight: 200;" x="0" y="74.19874986012782" dx="0em" dy="0.3em" fill="rgb(50, 49, 63)" stroke="none" stroke-width="1px">0.29</text><text style="text-anchor: end; visibility: hidden; font-family: &quot;Helvetica Neue&quot;, sans-serif; font-size: 12px; font-weight: 200;" x="0" y="59.35899988810226" dx="0em" dy="0.3em" fill="rgb(50, 49, 63)" stroke="none" stroke-width="1px">0.3</text><text style="text-anchor: end; visibility: inherit; font-family: &quot;Helvetica Neue&quot;, sans-serif; font-size: 12px; font-weight: 200;" x="0" y="44.51924991607669" dx="0em" dy="0.3em" fill="rgb(50, 49, 63)" stroke="none" stroke-width="1px">0.31</text><text style="text-anchor: end; visibility: hidden; font-family: &quot;Helvetica Neue&quot;, sans-serif; font-size: 12px; font-weight: 200;" x="0" y="29.679499944051116" dx="0em" dy="0.3em" fill="rgb(50, 49, 63)" stroke="none" stroke-width="1px">0.32</text><text style="text-anchor: end; visibility: inherit; font-family: &quot;Helvetica Neue&quot;, sans-serif; font-size: 12px; font-weight: 200;" x="0" y="14.839749972025572" dx="0em" dy="0.3em" fill="rgb(50, 49, 63)" stroke="none" stroke-width="1px">0.33</text><text style="text-anchor: end; visibility: hidden; font-family: &quot;Helvetica Neue&quot;, sans-serif; font-size: 12px; font-weight: 200;" x="0" y="0" dx="0em" dy="0.3em" fill="rgb(50, 49, 63)" stroke="none" stroke-width="1px">0.34</text></g><line x1="51.3120002746582" y1="0" x2="51.3120002746582" y2="178.07699966430664" fill="rgb(0, 0, 0)" stroke="rgb(204, 204, 204)" stroke-width="1px"></line></g></g><g transform="translate(51, 0)" clip-path="url(#clip_0)"><clipPath id="clip_0"><rect width="278" height="178"></rect></clipPath><g><g><g><line x1="0" y1="0" x2="0" y2="178.07699966430664" fill="rgb(0, 0, 0)" stroke="rgb(60, 60, 60)" stroke-width="1px" opacity="0.25"></line><line x1="25.3352727023038" y1="0" x2="25.3352727023038" y2="178.07699966430664" fill="rgb(0, 0, 0)" stroke="rgb(60, 60, 60)" stroke-width="1px" opacity="0.25"></line><line x1="50.6705454046076" y1="0" x2="50.6705454046076" y2="178.07699966430664" fill="rgb(0, 0, 0)" stroke="rgb(60, 60, 60)" stroke-width="1px" opacity="0.25"></line><line x1="76.00581810691139" y1="0" x2="76.00581810691139" y2="178.07699966430664" fill="rgb(0, 0, 0)" stroke="rgb(60, 60, 60)" stroke-width="1px" opacity="0.25"></line><line x1="101.3410908092152" y1="0" x2="101.3410908092152" y2="178.07699966430664" fill="rgb(0, 0, 0)" stroke="rgb(60, 60, 60)" stroke-width="1px" opacity="0.25"></line><line x1="126.676363511519" y1="0" x2="126.676363511519" y2="178.07699966430664" fill="rgb(0, 0, 0)" stroke="rgb(60, 60, 60)" stroke-width="1px" opacity="0.25"></line><line x1="152.01163621382278" y1="0" x2="152.01163621382278" y2="178.07699966430664" fill="rgb(0, 0, 0)" stroke="rgb(60, 60, 60)" stroke-width="1px" opacity="0.25"></line><line x1="177.3469089161266" y1="0" x2="177.3469089161266" y2="178.07699966430664" fill="rgb(0, 0, 0)" stroke="rgb(60, 60, 60)" stroke-width="1px" opacity="0.25"></line><line x1="202.6821816184304" y1="0" x2="202.6821816184304" y2="178.07699966430664" fill="rgb(0, 0, 0)" stroke="rgb(60, 60, 60)" stroke-width="1px" opacity="0.25"></line><line x1="228.0174543207342" y1="0" x2="228.0174543207342" y2="178.07699966430664" fill="rgb(0, 0, 0)" stroke="rgb(60, 60, 60)" stroke-width="1px" opacity="0.25"></line><line x1="253.352727023038" y1="0" x2="253.352727023038" y2="178.07699966430664" fill="rgb(0, 0, 0)" stroke="rgb(60, 60, 60)" stroke-width="1px" opacity="0.25"></line><line x1="278.6879997253418" y1="0" x2="278.6879997253418" y2="178.07699966430664" fill="rgb(0, 0, 0)" stroke="rgb(60, 60, 60)" stroke-width="1px" opacity="0.25"></line></g><g><line x1="0" y1="178.07699966430664" x2="278.6879997253418" y2="178.07699966430664" fill="rgb(0, 0, 0)" stroke="rgb(60, 60, 60)" stroke-width="1px" opacity="0.25"></line><line x1="0" y1="163.23724969228107" x2="278.6879997253418" y2="163.23724969228107" fill="rgb(0, 0, 0)" stroke="rgb(60, 60, 60)" stroke-width="1px" opacity="0.25"></line><line x1="0" y1="148.39749972025555" x2="278.6879997253418" y2="148.39749972025555" fill="rgb(0, 0, 0)" stroke="rgb(60, 60, 60)" stroke-width="1px" opacity="0.25"></line><line x1="0" y1="133.55774974822998" x2="278.6879997253418" y2="133.55774974822998" fill="rgb(0, 0, 0)" stroke="rgb(60, 60, 60)" stroke-width="1px" opacity="0.25"></line><line x1="0" y1="118.71799977620444" x2="278.6879997253418" y2="118.71799977620444" fill="rgb(0, 0, 0)" stroke="rgb(60, 60, 60)" stroke-width="1px" opacity="0.25"></line><line x1="0" y1="103.87824980417886" x2="278.6879997253418" y2="103.87824980417886" fill="rgb(0, 0, 0)" stroke="rgb(60, 60, 60)" stroke-width="1px" opacity="0.25"></line><line x1="0" y1="89.0384998321533" x2="278.6879997253418" y2="89.0384998321533" fill="rgb(0, 0, 0)" stroke="rgb(60, 60, 60)" stroke-width="1px" opacity="0.25"></line><line x1="0" y1="74.19874986012782" x2="278.6879997253418" y2="74.19874986012782" fill="rgb(0, 0, 0)" stroke="rgb(60, 60, 60)" stroke-width="1px" opacity="0.25"></line><line x1="0" y1="59.35899988810226" x2="278.6879997253418" y2="59.35899988810226" fill="rgb(0, 0, 0)" stroke="rgb(60, 60, 60)" stroke-width="1px" opacity="0.25"></line><line x1="0" y1="44.51924991607669" x2="278.6879997253418" y2="44.51924991607669" fill="rgb(0, 0, 0)" stroke="rgb(60, 60, 60)" stroke-width="1px" opacity="0.25"></line><line x1="0" y1="29.679499944051116" x2="278.6879997253418" y2="29.679499944051116" fill="rgb(0, 0, 0)" stroke="rgb(60, 60, 60)" stroke-width="1px" opacity="0.25"></line><line x1="0" y1="14.839749972025572" x2="278.6879997253418" y2="14.839749972025572" fill="rgb(0, 0, 0)" stroke="rgb(60, 60, 60)" stroke-width="1px" opacity="0.25"></line><line x1="0" y1="0" x2="278.6879997253418" y2="0" fill="rgb(0, 0, 0)" stroke="rgb(60, 60, 60)" stroke-width="1px" opacity="0.25"></line></g></g></g><g><g><line x1="0" y1="504.5514990488688" x2="278.6879997253418" y2="504.5514990488688" fill="rgb(0, 0, 0)" stroke="rgb(153, 153, 153)" stroke-width="1.5px"></line></g></g><g><g><line x1="25.3352727023038" y1="0" x2="25.3352727023038" y2="178.07699966430664" fill="rgb(0, 0, 0)" stroke="rgb(153, 153, 153)" stroke-width="1.5px"></line></g></g><g><g><g><g><g><path style="fill: none;" stroke="rgb(255, 112, 67)" stroke-width="2px" d="M33.64929579229182,181.17214729205426L33.65385614137823,177.393234486215L33.66297683955106,174.6305783383886L33.672604243177936,173.07950841668534L33.67716459226435,169.3873971866969L33.681724941350765,167.6707355093972L33.68679199589123,166.05748063795366L33.70047304315047,164.66724509514557L33.70554009769093,164.55476494277065L33.710100446777346,166.3263879156463L33.71466079586376,165.31234541512137L35.73236191387523,162.10083346472476L35.74148261204806,156.51151235696338L35.74654966658852,155.0685109072819L35.76985811747465,152.24121855843586L35.77441846656105,151.14606341740432L35.77897881564747,149.72789240375172L35.78404587018793,150.48483842013937L35.78860621927435,148.7256792483774L35.79316656836077,147.6765163675844L37.825055439085524,145.6158405381123L37.86255164268494,141.9575932693701L37.871672340857764,139.03829540543705L39.884813109782826,137.9828857766173L39.889373458869244,134.92172896302654L39.922309313382236,132.72113836248218L39.93599036064148,134.38540364641415L39.945617764268356,129.31534455027924L39.95017811335477,128.48225252285866L41.96331888227983,128.11905703904893L41.98206698407954,129.61974008138623L41.986627333165956,129.59434687921305L41.99118768225236,129.15363551887233L42.00537543496566,128.96816872716005L42.00993578405207,128.69986094260545L42.02412353676536,128.7965367661884L44.05094535294966,129.76707786595205L44.06057275657653,129.94620636504442L44.06969345474937,128.59821852349202L44.07425380383578,128.80199224562492L44.07932085837625,129.76638202377202L44.08388120746265,129.41753382044897L44.08844155654907,129.6002302323434L44.09300190563548,129.1361627401372L44.10262930926236,125.97165722744543L46.120330427273835,125.33364816211605L46.13401147453308,122.92088672985008L46.139078529073544,122.23859604129657L46.143638878159955,122.98080778915775L46.152759576332784,123.03981443692612L46.157826630873245,123.16303656123637L46.16238697995966,123.17680172264281L46.17150767813249,123.15916465389336L46.176574732672954,122.95688927495898L46.185695430845776,122.00686920659024L48.198836199770845,121.39100953492768L48.20795689794367,121.62877535476416L48.212517247030085,119.0809147629802L48.226704999743376,117.61540054913904L48.24545310154308,119.10449000623603L48.250013450629496,119.06658384102622L48.25508050516995,119.68138508648505L48.25964085425637,117.51577296695034L50.27734197226784,118.03166923783573L50.28190232135426,117.29604385671504L50.29102301952709,117.15664485891463L50.30065042315396,115.9933765994875L50.30521077224038,116.08485268891266L50.30977112132679,115.3950152083948L50.31483817586726,114.7561199808345L50.32395887404009,115.25665248700156L50.32851922312649,114.38433349176005L52.36952879202409,115.3228139318393L52.3882768938238,116.30095794967708L52.4070249956235,116.7538319741854L52.41209205016396,116.74672034636941L52.41665239925038,117.73252670348599L54.443474215434684,116.38228238913506L54.4480345645211,116.58732809216949L54.453101619061556,116.81111377041725L54.457661968147974,117.76255845839513L54.47184972086126,117.1255570582409L54.476410069947676,115.19789516535587L54.49059782266097,115.36332510168975L54.49515817174738,115.31258277913709L56.51285928975885,116.33425537819005L56.51741963884527,117.20269434647369L56.52197998793168,117.76146577369582L56.53160739155856,118.61972710604101L56.53616774064498,117.98558062108268L56.540728089731395,119.00856373607957L56.5452884388178,118.16578147813226L56.55035549335827,119.19394543337242L56.55491584244468,118.7441537727474L56.56910359515797,117.62533775509878L56.57366394424439,118.14678807026904L58.59136506225586,118.26879883847633L58.61011316405556,118.77393183795674L58.61467351314197,118.39424621977264L58.62379421131481,119.05200575717478L58.63342161494169,118.05626850618955L58.6379819640281,119.50736599672182L60.669870834752864,118.34797322039034L60.68355188201211,118.50206751446049L60.688618936552565,118.40809371681496L60.69317928563898,118.550970186433L60.697739634725394,117.66639148276246L60.70736703835227,116.8500126437402L60.72611514015198,116.11232727881432L60.73523583832481,115.30346669194273L62.752936956336285,116.03450646052524L62.7574973054227,116.35715066624391L62.76205765450911,116.95058494931679L62.780805756308816,117.66112094210581L62.78587281084928,118.65605740712726L62.794993509022106,117.84777743215592L62.80462091264898,118.10258320205813L62.81374161082181,116.92209447935946L64.84563048154658,117.03762463909919L64.8547511797194,117.38260113746347L64.85931152880582,117.27164664078785L64.8734992815191,117.39940694537253L64.88312668514598,117.25424079639241L64.8876870342324,117.67852064159095L64.89224738331882,117.78402200147414L66.90994850133029,117.96571464470381L66.9145088504167,118.34094818043675L66.91906919950311,118.97735588715403L66.93781730130283,117.883618384702L66.94288435584328,117.65909076323845L66.95200505401611,117.213864648991L66.9661928067294,117.50897368343286L68.9930146229137,118.58337375860785L68.99757497200012,118.5423444781029L69.00264202654058,118.94804119668657L69.007202375627,119.08173728446633L69.01632307379982,118.03438118513435L69.03051082651312,118.23664271970696L69.03507117559954,117.2346703872912L69.04013823013999,117.10152606797638L71.06239969723788,116.8961102961218L71.0669600463243,116.68495514826984L71.07608074449713,116.93547753783508L71.1044562499237,116.6247677590166L71.11357694809654,116.531218380473L71.118644002637,116.79603872819779L71.12320435172342,117.52605941772546L71.12776470080983,117.06608846978884L73.14090546973489,117.94246390870924L73.15002616790771,118.39434198651063L73.15458651699413,118.20759283567881L73.17840167333429,118.14027088606255L73.18296202242071,117.86160062013835L73.19208272059353,117.22623752326619L73.20171012422041,117.59028138997442L73.20627047330683,117.21214167809548L75.2194112422319,117.08019525294247L75.22853194040471,117.00086097540805L75.23309228949113,117.28651971923175L75.23815934403159,118.13287741401538L75.242719693118,118.9145397151733L75.25184039129084,118.66363904578711L75.2569074458313,118.19328526433924L75.26602814400414,118.2078132931367L75.27058849309054,118.23880233385019L75.28021589671741,118.4170343266214L77.2979170147289,118.6224456932027L77.30703771290173,118.54375968016903L77.31159806198814,118.719962234148L77.31666511652861,118.45063368124167L77.32578581470142,119.07187255819014L77.33034616378784,119.33291719277841L77.34453391650113,119.14623385910988L77.34909426558755,118.99538712668834L77.35416132012801,119.10592844830319L77.35872166921443,118.71485631477972L79.37642278722589,117.86774710499719L79.38098313631231,117.05762366164416L79.38554348539873,117.15429512213521L79.39010383448513,116.98651362456835L79.4139189908253,117.80255721308836L79.43266709262501,118.24281682000401L79.43722744171143,118.33798256177859L81.4549285597229,118.15512064147174L81.46860960698216,117.58721110743866L81.50154546149514,117.07071396870606L81.50610581058156,116.62148737364825L83.5334343322199,117.00003484098372L83.53799468130632,117.14900657508093L83.54255503039273,117.14508502814081L83.55218243401961,117.32058408507977L83.56130313219245,118.31661043213785L83.57093053581931,118.59709449846437L83.58005123399214,118.79227401605873L85.63068820651661,118.92449257297024L85.63524855560303,118.67021618153657L85.63980890468945,118.71471987924738L85.64436925377586,118.08024843699329L85.65399665740274,118.04734280605533L85.65855700648913,118.537453527581L85.67274475920243,118.02651834241264L87.69500622630034,117.61384410712274L87.72287502627286,117.24272547086362L87.72794208081332,115.98292013311098L87.73250242989974,115.68591605779955L87.73706277898616,115.88687195417853L87.74162312807256,116.0640147786759L87.75125053169944,115.54797209826313L87.75581088078586,115.84744167132997L89.76895164971091,115.20998111681104L89.77807234788375,115.0690859010042L89.78263269697015,115.49233786987085L89.78769975151063,115.6061449030382L89.79682044968345,115.91944338886671L89.80644785331032,116.87303424614892L89.81100820239674,116.6952202465614L89.82975630419645,117.44657077781739L91.85657812038075,117.04714681106788L91.87076587309404,117.16172767861082L91.87532622218045,117.25946092396202L91.88495362580733,117.27498507360579L91.88951397489375,117.00830986862852L91.89863467306658,117.64919865861073L91.90826207669345,117.48242331510318L93.93052354379134,117.75272976615076L93.96345939830434,117.98769485468804L93.97714044556358,118.04912223743906L93.98220750010404,118.09539749065948L96.00446896720193,118.40673016428377L96.00902931628833,118.24121760210899L96.01358966537475,117.8300893315164L96.02321706900163,118.10163736731042L96.02777741808805,117.80083025786637L96.03233776717447,117.87050764616887L96.03689811626089,118.114744209451L96.04652551988775,117.68779375745814L96.06983397077387,117.61947562107507L98.08297473969894,117.07686960589753L98.11084353967146,117.13652092159903L98.12047094329834,116.7604838966595L98.12503129238476,117.00502867563061L98.12959164147118,116.85738732081197L98.13415199055758,116.78712191066944L98.13921904509805,116.72575575892336L98.14377939418445,116.55298176022052L98.14833974327087,116.79320030617917L100.16148051219594,117.18404479618371L100.16604086128235,117.44661657222767L100.17060121036876,117.66036148050664L100.18022861399564,117.2169653206177L100.19390966125488,117.57077581236824L100.19897671579534,117.16887785100621L100.20353706488176,117.08132195480535L100.21265776305458,116.55144415088652L100.21772481759506,117.33145175807817L102.23998628469293,117.4426883832881L102.24910698286577,117.09010164914557L102.25873438649265,116.5782444135811L102.26329473557905,116.44412471945384L102.27748248829235,116.38732986434427L102.28204283737877,115.94225192918412L102.28660318646517,115.86962211154867L102.29623059009205,116.05227692659498L102.30079093917847,116.29298512116796L102.30535128826487,116.3442862642556L104.32305240627636,116.21268325201194L104.3321731044492,115.15921025585124L104.33724015898964,114.41217798424861L104.35092120624888,114.1874803220739L104.35598826078935,114.32098705813802L104.36054860987576,114.09552520320226L104.36510895896218,114.3181353076543L104.3696693080486,113.96359662325636L104.37473636258906,112.62754705649068L104.37929671167548,112.34921765264461L104.38385706076188,111.93519294336289L106.40155817877336,111.63645250002361L106.40611852785977,111.50840837618713L106.42486662965949,111.42014693604682L106.4294269787459,111.44952848561479L106.43449403328636,111.1603087768888L106.44361473145918,110.4107365591738L106.4481750805456,110.52560405216418L106.45324213508606,110.54208240993857L106.45780248417248,110.53912140167728L108.47550360218395,111.26284845024762L108.48462430035677,111.75105376102395L108.48918464944319,112.42499053127558L108.49425170398365,113.05146360192927L108.50337240215649,112.92435761317228L108.51299980578337,113.13612806009264L108.52212050395619,113.41644269235721L108.5266808530426,113.5730125409206L108.53174790758305,113.41533906105047L110.55400937468096,114.00741554853575L110.57275747648065,113.64127775639261L110.57731782556706,113.25154800386859L110.5864385237399,112.7870161402003L110.59150557828036,113.0706135361129L110.6006262764532,113.67885682905779L110.6193743782529,113.88659096530381L112.63251514717795,113.6117027897215L112.64163584535079,112.94604534015888L112.65126324897767,112.8631391186555L112.67001135077736,113.23721138503656L112.68369239803661,113.12354303303475L112.68875945257707,113.30139985341815L112.6978801507499,112.73358800384257L114.71102091967495,111.97693800153002L114.71558126876137,112.08190042465272L114.72014161784779,112.07863077857564L114.7247019669342,111.76241419125529L114.72976902147467,111.85354840480052L114.73432937056108,111.37516724242454L114.73888971964749,111.35779267329119L114.7434500687339,111.29984483451375L114.76219817053362,111.43878833503513L114.76726522507407,110.7752171016075L114.7763859232469,110.55635614517004L116.79408704125838,110.41428955836159L116.80827479397166,109.97932404960176L116.8173954921445,109.32437979323234L116.8219558412309,108.7088020433024L116.82702289577138,108.47189387110132L116.84070394303062,108.08469785817454L116.84577099757108,108.22465584954234L116.8503313466575,108.08868257522383L116.85489169574392,107.92916303874686L118.86803246466897,108.36594491405575L118.8771531628418,108.61746630947486L118.88171351192821,108.50722875067912L118.88678056646867,108.36421856744914L118.89590126464151,108.56063417131094L118.90046161372791,108.38068232302457L118.90552866826839,107.81737328447893L118.91008901735479,108.13972055056438L118.9146493664412,108.64069119800763L118.91920971552761,108.88699298115154L118.9288371191545,108.92674741510002L118.93339746824091,109.37593738474918L120.9556589353388,109.65041750150392L120.9744070371385,109.48172632828083L120.9885947898518,109.25160711161132L120.9931551389382,109.12739722175358L120.99771548802462,109.3199202024444L121.0027825425651,109.6444384288308L121.00734289165149,109.71084959463249L121.01190324073791,110.02972639110791L123.02504400966298,109.63706878239621L123.0296043587494,109.99205794309604L123.03872505692222,109.95025091518563L123.04379211146268,109.0976133057019L123.0483524605491,108.54692874993883L123.0671005623488,108.17943830176641L123.0858486641485,108.25654447516563L123.09040901323492,108.1711486952471L125.10811013124639,108.1850117947009L125.11267048033281,107.96539407662284L125.11723082941921,108.01236617522089L125.12229788395969,108.02595223154376L125.1268582330461,107.77196455127005L125.13141858213251,107.17775022828502L125.14560633484581,107.0125116623659L125.15016668393223,106.8518208919017L125.15472703301864,106.16507872813033L127.1866159037434,105.80594461831531L127.19573660191624,105.6408943258396L127.20080365645669,104.61763050978526L127.2053640055431,104.49026501172708L127.2099243546295,104.5180065140337L127.21955175825639,104.66964721928264L127.23323280551564,104.47396583994284L127.2382998600561,104.65725638456337L129.260561327154,104.71032152754368L129.2651216762404,105.02977976036432L129.2696820253268,105.18239732620101L129.27424237441323,105.62773421988116L129.2793094289537,105.88800632380938L129.28843012712653,105.52124440705781L129.3026178798398,105.2392133784203L129.30717822892623,104.91819108600563L129.3168056325531,104.82033797126878L131.339067099651,104.73322578420625L131.3436274487374,104.54055286920126L131.3481877978238,104.61430517529112L131.3578152014507,104.4061242284884L131.3623755505371,104.7248943699706L131.36693589962354,104.89089661830924L131.37149624870995,105.04510007628632L131.3765633032504,104.51092989341379L131.3811236523368,104.27750836016818L131.38568400142321,104.3633482433864L131.39024435050965,104.22055828316512L131.40443210322294,104.06226963020399L133.41757287214799,104.19019233793198L133.4363209739477,103.70457916238745L133.44088132303412,103.80892151414105L133.45000202120696,103.70189013695152L133.45962942483382,103.74688307350743L133.46875012300663,103.77131179168873L133.47381717754712,103.47350958635731L133.47837752663352,103.49107764206245L133.48293787571993,103.41713231780071L135.496078644645,103.79094083076122L135.50063899373143,103.68313066458752L135.50975969190424,103.05853979644226L135.5193870955311,102.74400972916176L135.52850779370394,102.63185611083055L135.54269554641724,102.52564356483721L135.54725589550367,102.50308833530534L135.55232295004413,102.25905689542688L135.55688329913053,101.75437706990267L135.56144364821694,101.19318401422903L137.5791447662284,101.4423774089969L137.58826546440125,101.47213204577449L137.59789286802814,101.80240760187594L137.60245321711454,102.02751622684036L137.6120806207414,101.8565108858133L137.62576166800065,101.91012963791721L137.63538907162754,101.59572203199662L137.63994942071395,101.2653608648539L139.65309018963902,101.22267178649636L139.66677123689826,101.36801979076351L139.68095898961155,100.78478512918468L139.68551933869796,100.85577320153865L139.69514674232485,100.31579917355859L139.70426744049763,99.77820053255576L139.71389484412452,99.43970010315645L139.71845519321093,99.65548507273247L141.74527700939527,99.4459644315131L141.7549044130221,99.32335539376719L141.75946476210854,99.11213100478324L141.76402511119494,99.08203096669415L141.7690921657354,99.49818421046768L141.77821286390824,99.36330593764977L141.78277321299467,99.04395188076869L141.78784026753513,98.9031128751492L141.79240061662153,98.88813024770029L143.81922243280584,98.55421812617338L143.8288498364327,97.35587698179121L143.83341018551914,96.91335544261383L143.83797053460555,96.85860821746726L143.84253088369195,95.56592235208471L143.8475979382324,94.83829416775393L143.86634604003214,94.47702755507892L143.87090638911855,94.28491571438252L143.87546673820498,94.1466134049429L145.88860750713002,94.13015050544985L145.90228855438926,93.65601218681063L145.90735560892972,93.33244296981478L145.91191595801615,93.02250050233694L145.91647630710256,92.8341876276247L145.92103665618896,92.56690215621938L145.93066405981585,92.18547912334657L145.93522440890226,92.34305620151646L145.9397847579887,92.09909825528614L145.94485181252912,92.35283986160083L145.95397251070196,92.15794808201663L147.97623397779986,92.26066992576146L147.9858613814267,92.01492094796453L147.99042173051316,91.95107788448172L147.99954242868597,91.91284642979481L148.00460948322643,91.69167885466591L148.00916983231284,91.63289915398816L148.01829053048567,91.40055688610025L148.02335758502613,90.84494932348541L148.03247828319897,90.95959979880799L150.045619052124,91.27975703023684L150.06892750301014,91.62885325421593L150.07804820118298,91.3910176688389L150.08311525572344,91.2859733113742L150.08767560480985,91.25482768496514L150.09223595389625,91.41402708703804L150.09679630298268,91.48420539140737L150.10186335752314,91.02954783594221L150.10642370660955,90.93650604352592L152.12412482462102,91.24864106141676L152.12868517370745,91.13931924920495L152.13324552279386,91.30209190290594L152.14743327550715,91.24490455650887L152.15199362459356,91.30038792263478L152.15655397368,91.43448734737922L152.16162102822045,91.27849591457081L152.1707417263933,91.45498541801932L154.20719094620446,91.31221215119679L154.21175129529087,91.19999168772627L154.21631164437727,91.29008326865419L154.22593904800416,91.00060776290397L154.24468714980384,90.61899529623074L154.25887490251714,90.83284818588986L156.281136369615,90.58970249884729L156.29481741687428,90.1961360638182L156.29988447141474,90.48274960672775L156.30900516958755,90.04706439384847L156.31356551867398,90.1757984490961L156.31863257321444,90.00620360110392L156.32319292230085,89.92586419586311L156.33231362047368,89.70886540999626L156.33738067501415,89.55149642152064L156.34194102410058,89.26647909144711L156.34650137318698,89.22003723926714L158.35964214211202,89.040543625721L158.36420249119845,89.01979723567545L158.36876284028486,88.57135765533496L158.3733231893713,88.54069373333874L158.37839024391175,88.11174230174903L158.3875109420846,88.24588845660234L158.392071291171,88.22821595041083L158.40169869479786,88.21348890468533L158.4108193929707,88.16104194412405L158.41588644751116,88.2006283904751L158.42500714568396,87.83310606655327L160.44270826369547,87.16977267778306L160.44726861278187,86.57209675710801L160.4518289618683,86.4403119697373L160.45689601640876,86.31958096459348L160.470577063668,85.86106094869922L160.47564411820844,85.51023548508456L160.48020446729487,85.54186038584287L160.48476481638127,85.58892800177084L160.49439222000814,85.57172043999772L160.49895256909457,85.64162074694671L162.54452248707858,85.69343692760016L162.55871023979188,85.35757327836761L162.56327058887828,85.40848425711972L162.57289799250518,85.64910154147164L162.57745834159158,85.6910079415586L162.58201869067798,85.3010979996654L164.59515945960305,85.33216894311296L164.6088405068623,85.3297751386956L164.61390756140275,85.31644301438784L164.6230282595756,85.04386209168514L164.627588608662,84.95567960268468L164.63265566320246,84.75309428869379L164.6372160122889,84.60836637462806L164.6514037650022,84.4978973167794L166.6969736829862,84.31284919527305L166.7015340320726,84.14880095727455L166.706094381159,84.0888816135243L166.71572178478587,83.81979924753533L166.7248424829587,83.47862506201565L166.72990953749917,82.94226946485284L166.73446988658557,83.2304992395974L168.75217100459707,83.21764489147537L168.75673135368345,83.7008207596859L168.7612917027699,83.89296579950769L168.76585205185629,83.96552387285294L168.77091910639675,83.78164161958982L168.784600153656,83.70207348554703L168.78966720819648,83.7329753829083L168.79422755728288,83.81836147680792L168.81753600816901,83.66579444594673L170.83523712618046,83.12150596567452L170.8397974752669,83.08286956958571L170.84942487889376,82.93413549599592L170.8539852279802,82.59976381115696L170.863105926153,82.61316963041706L170.8914814315796,82.23621127342795L170.89604178066602,81.82055520864036L172.91374289867747,81.6496285500264L172.9183032477639,81.31324520407914L172.9228635968503,81.36335086535205L172.94161169865004,81.26635799187699L172.9466787531905,80.82363918291956L172.95123910227687,80.29392616497086L172.95579945136328,79.7942448922296L172.9603598004497,79.48078696203567L172.96998720407657,78.79336959830613L174.98768832208808,78.62094038099835L174.9922486711745,78.63721519746599L174.9968090202609,78.63475926167072L175.0013693693473,78.51022271773518L175.00643642388775,78.26074550290139L175.01099677297418,78.33130431019862L175.01555712206059,78.29279141587364L175.03430522386031,78.08262464926554L175.04393262748718,78.00750200489755L175.04849297657358,77.2535684599815L177.0849421963848,77.05608088048687L177.0940628945576,77.33362558405403L177.1036902981845,77.29709121121537L177.1082506472709,76.92716956721453L177.11281099635733,77.20166684876953L177.1224383999842,77.05505830016894L179.14469986708207,76.95469527269242L179.1492602161685,77.20273849500595L179.1634479688818,77.34201221164149L179.1725686670546,77.53104623006462L179.1867564197679,77.39602407248735L179.20094417248117,77.41841790258356L179.2055045215676,77.11514949437361L181.22320563957908,76.884532955116L181.2277659886655,76.70189396850711L181.2323263377519,76.65885830308648L181.23688668683835,76.21603610240557L181.24195374137878,75.88036672011724L181.24651409046518,75.56830980253977L181.25107443955162,75.50093372484099L181.26070184317848,74.8147269511284L181.26526219226488,74.62845033621922L181.26982254135132,73.97453505684724L181.28401029406461,73.6780023348469L181.28857064315102,73.4256574916642L183.3062717611625,73.66222663499659L183.34376796476192,73.36934604865903L183.34832831384833,73.17450561409977L183.35288866293473,73.30441477233153L183.3579557174752,72.96717822455211L183.36251606656162,72.96965178988869L185.3802171845731,72.87256662776242L185.3847775336595,72.4966510740776L185.3893378827459,72.77606195574889L185.39389823183234,72.5944926006837L185.4035256354592,72.72551474923125L185.40808598454564,72.73136914127974L185.41264633363204,72.94708694115593L185.42227373725893,73.17208374581945L185.42683408634534,73.14294397497356L185.4364614899722,73.06136020543612L187.49115210612902,73.03376512056944L187.50533985884232,72.78317382319663L187.50990020792875,72.1669562943645L187.5149672624692,72.10653572580422L187.51952761155562,71.90783255060849L189.5372287295671,71.94670043248479L189.5417890786535,71.89338809169553L189.54634942773993,71.7319732578858L189.5559768313668,71.81242156240589L189.56965787862603,71.99802919915294L189.5747249331665,71.84507603012908L189.57928528225293,71.86419974709608L189.58384563133933,72.1341361317039L189.58840598042576,72.1098485935838L189.59347303496622,72.15226141775014L189.59803338405263,71.9804750704665L189.60259373313903,71.6113750721451L191.6202948511505,71.52466027622576L191.62941554932334,71.32138184877441L191.6344826038638,71.29329756617278L191.64360330203664,71.21509942778721L191.6532307056635,71.26526709502606L191.66235140383634,71.30108141302229L191.66691175292277,71.34977619507379L191.6719788074632,71.36802856566857L191.6765391565496,71.45079981586528L191.68109950563604,71.61331440257638L193.6942402745611,71.20335954938088L193.7129883763608,70.73402791412397L193.73629682724692,70.40343729770703L193.74085717633332,70.02710296912991L193.75048457996022,69.67944300304588L193.75504492904662,69.03720562958631L193.75960527813305,69.35116398253682L195.78186674523093,69.8029754805887L195.78642709431733,69.74173794298912L195.7914941488578,69.66956980120598L195.80061484703063,69.78283159846032L195.81024225065752,69.65017151074103L195.81480259974393,69.44992344079037L195.82899035245723,69.6877700267645L195.83811105063006,69.39522982365956L197.85581216864153,69.0918225832107L197.86037251772794,69.20007068287977L197.8699999213548,69.1969222493313L197.87456027044124,69.07267894054168L197.88874802315453,69.12511880469043L197.89330837224094,69.00596517802437L197.89786872132737,68.98357265505722L197.90749612495424,68.80486816644185L197.9120564740406,68.85755361411464L197.91661682312704,68.70761422058466L199.93431794113854,68.5934878813646L199.93887829022495,67.94524993722163L199.94343863931135,67.89971626777407L199.94850569385184,67.6079420285331L199.95306604293825,67.13328917775866L199.95762639202465,66.91411721692124L199.96725379565152,66.06628195855446L199.98093484291076,65.66931300596404L199.98600189745122,65.44249975064005L199.99512259562405,64.94596481681806L202.02194441180836,64.42702543011865L202.02701146634882,64.22513560117821L202.03613216452163,63.630097250587625L202.04069251360806,63.261604460387176L202.05488026632136,63.189055128363066L202.06450766994823,63.00706616018586L202.07362836812106,62.99328400206802L204.09132948613254,62.905189288064406L204.09588983521894,62.693185894169005L204.10045018430537,62.52019387926295L204.10551723884583,62.404414385215915L204.11463793701867,61.99195251712429L204.12882568973194,61.76323262237031L204.13338603881837,61.71423583376432L204.14301344244524,61.69447129773552L204.14757379153167,61.433825129169435L204.15213414061807,60.89182658235681L206.16983525862955,60.776886662781195L206.18858336042925,60.83538741489362L206.19770405860208,60.78789007942625L206.20277111314252,60.58262570914715L206.21189181131535,60.54376759003766L206.21645216040176,60.42777522907603L206.22151921494222,60.3491502862685L206.22607956402865,60.15525257962797L206.23063991311506,59.759112448069914L208.24378068204015,59.54506281100424L208.26252878383983,59.36656753635236L208.26708913292623,59.03960827627736L208.27164948201266,58.5863740972335L208.27620983109907,58.30765617793442L208.28127688563953,57.74008472658468L208.29039758381236,57.365779168482774L208.30002498743926,57.20903117486472L208.30458533652566,56.797554204624674L208.30914568561207,56.63295504339162L210.32228645453714,56.55506118971016L210.32684680362354,56.40894655901937L210.33140715270994,56.01235551172357L210.34559490542324,55.76111109846026L210.35978265813654,55.38692685414655L210.36890335630937,54.92586147252554L210.37853075993627,54.44467406155805L210.38309110902267,54.079116444018155L210.38765145810908,53.88359598455233L212.40079222703415,53.646055522082236L212.40535257612055,53.80239544025048L212.42410067792025,53.480627049289254L212.44284877971995,53.677936868177696L212.4519694778928,53.647912841009926L212.45703653243325,53.53257104722046L212.46159688151965,53.770827649223065L214.47929799953116,53.467306901102276L214.48385834861756,53.500796048676094L214.488418697704,53.30818267817483L214.50260645041726,53.254618423734385L214.51679420313053,52.94333809705073L214.52135455221696,52.65703299613779L214.52591490130337,51.95056075453695L214.53554230493026,51.54804657959005L214.54010265401666,51.152937887238764L214.5446630031031,51.14280885356733L216.56236412111454,50.40623487867374L216.56692447020097,50.04484434713942L216.57655187382784,50.1930545425228L216.58111222291427,49.97539220590596L216.58567257200068,49.70138139237312L216.59023292108708,49.616629683334196L216.59529997562757,49.46395926663749L216.59986032471397,49.25845749413156L216.6089810228868,49.06222728330084L216.61404807742727,49.08059771010187L218.63630954452515,48.95244168235314L218.65961799541128,48.55392284840627L218.67836609721098,48.32171513364207L220.723936015195,48.11148093910805L220.7284963642814,47.772331043391034L220.73356341882183,47.78367763390568L220.73812376790826,47.99538735430568L220.74268411699467,47.60746518687367L220.75687186970796,47.07389785989599L220.7614322187944,47.35142205271103L220.77105962242126,47.25765360756617L220.77561997150767,47.17916503697836L222.79332108951914,47.15942961566128L222.79788143860557,47.119727745660924L222.80244178769198,46.90028042613167L222.80700213677838,47.02982982725459L222.81662954040527,47.10784231541902L222.8257502385781,47.06202715074872L222.83081729311857,47.19241566940241L222.83537764220497,47.261055029570315L222.8444983403778,47.455306380911736L222.84956539491827,47.413068516773706L222.8541257440047,47.672361618399606L224.87182686201615,47.70103578336247L224.880947560189,47.79860379464378L224.90932306561558,47.69933363202705L224.91844376378842,47.65453051213163L224.9371918655881,47.56866401576906L226.95033263451316,47.51517575445081L226.9548929835996,47.52860051714788L226.97364108539927,47.587808925899935L226.9969495362854,47.13611854144753L227.0015098853718,47.30828815379971L229.02883840701014,47.1815679615693L229.0425194542694,46.97491461473277L229.04758650880987,46.67873256066497L229.0612675560691,46.334047436056466L229.06633461060957,46.46030787600506L229.0754553087824,46.15867002471677L229.0800156578688,46.05872258391199L229.08508271240927,45.98184773385637L229.0896430614957,45.7799606709209L231.10734417950718,45.897617631879456L231.11190452859358,45.729458712430784L231.12609228130688,45.75424112236195L231.13065263039329,45.89029936640688L231.13521297947972,46.08006685747455L231.13977332856612,46.181128520522066L231.14484038310658,46.32297000463774L231.16358848490626,46.51084750008951L233.1858499520042,46.47128898129219L233.1904103010906,46.05231373768652L233.194970650177,45.75050952130354L233.19953099926343,45.66026112689232L233.20915840289027,45.46538640130194L233.21371875197673,44.998188464206464L233.2182791010631,44.6742617389159L233.22334615560356,44.499740769957924L233.22790650469,44.469465357296485L233.2324668537764,44.394407096897254L233.2370272028628,44.06462689375638L233.2420942574033,44.00659442967347L233.2466546064897,43.969494546712355L235.26891607358758,43.86870815639486L235.2780367717604,43.42320277264682L235.30185192810058,43.12596650482527L235.306412277187,42.84576795243399L235.3109726262734,42.40946095822531L235.3206000299003,42.24859400874615L237.3474218460846,41.974134101971316L237.36160959879788,41.53407307195704L237.37073029697072,41.21377379160211L237.38947839877042,41.205975836556405L237.39403874785685,40.7066117268069L237.39910580239732,40.46741660162485L237.4036661514837,40.21669458259609L239.4259276185816,40.051534904983384L239.43504831675443,40.02401638760509L239.4401153712949,39.627423026046614L239.44467572038133,39.44697019224023L239.44923606946773,38.85333996077958L239.4537964185541,38.538348534454826L239.463423822181,38.40148654253366L239.4679841712674,38.324225388407285L239.4821719239807,37.70767643706111L239.48673227306713,37.34711067875344L241.50443339107858,37.13955009918692L241.508993740165,36.94374581896949L241.51355408925141,36.696575892421066L241.5373692455916,36.23771058894488L241.541929594678,35.971309043709994L241.5464899437644,35.67824106426605L243.59205986174842,35.841740072564534L243.5971269162889,35.795957632182365L243.60168726537532,36.02385599563166L243.61080796354815,35.94135751159209L243.61587501808862,35.62354527688851L243.62043536717502,35.45647615759697L243.62499571626145,35.136441053650174L243.62955606534786,35.15957144815724L243.63462311988832,35.441336513226304L243.63918346897472,35.34089491421912L245.6568845869862,35.085643673268834L245.66600528515903,34.860075547387055L245.67056563424543,34.975523052141085L245.67563268878592,35.024634509453676L245.68475338695873,35.132040651010925L245.68931373604516,34.84365656874897L245.698941139672,34.79167798156345L245.70806183784484,34.92035783200106L245.7131288923853,34.84263915487941L245.72224959055814,34.98906255694041L247.73539035948318,34.938059605577166L247.7541384612829,34.953402362114645L247.7586988103693,34.850598238134836L247.7632591594557,34.75242600359073L247.76781950854215,34.929103012664314L247.7728865630826,35.01833444238656L247.777446912169,35.10305483118918L247.78200726125544,34.7333969889996L247.7916346648823,34.474565092638244L247.79619501396874,34.633481943688366L247.80075536305515,34.871468204558454L249.8138961319802,34.65844707729829L249.83264423377992,34.51437909920185L249.84176493195272,34.3700703581456L249.84632528103916,34.28411157571651L249.85139233557962,34.18244248686469L249.86051303375245,34.077556008701094L249.87014043737932,33.93396849986439L249.87926113555216,33.86636140577309L251.89696225356363,33.64538650545413L251.90152260265003,33.44522122311767L251.90608295173647,33.28612059562866L251.91571035536333,32.95094060807597L251.92027070444976,32.76469998233699L251.92483105353617,32.84584907573148L251.9298981080766,32.48264922104357L251.934458457163,32.548541217332115L251.93901880624944,32.53554499490926L251.94357915533584,32.314258418741446L251.9486462098763,32.05320786911659L251.95320655896273,31.76228432112319L253.97546802606064,31.59261993520863L253.98002837514701,31.69301927426926L253.9896557787739,31.722827959967077L253.9942161278603,31.680350428594636L254.0084038805736,31.344362365846848L254.01296422966004,31.300278033050034L254.01752457874645,31.283631791068558L254.02208492783285,31.397467680518048L254.0271519823733,31.255063441328502L254.03627268054615,31.23357589660114L256.06309449673046,30.846503102551083L256.0727219003573,30.66116072579902L256.0772822494438,30.48829790119126L256.08184259853016,30.140615070531823L256.0960303512434,29.851097133848327L256.10059070032986,29.58439738728734L256.11021810395675,29.069991717839088L256.11477845304313,28.746024894745347L258.1279192219682,28.388723585208936L258.13703992014104,28.067320684095932L258.14160026922747,28.169183898912365L258.14666732376793,28.128409888666198L258.1512276728543,28.26404948252039L258.16034837102717,28.015106652163183L258.16997577465406,27.67624492344035L258.17909647282687,27.494269028380273L258.18416352736733,27.244566672943563L258.19328422554014,27.1821143763824L260.20642499446524,26.78626959371985L260.2109853435516,26.795141295675364L260.21554569263805,26.70166489439964L260.22517309626494,26.24521372561469L260.2388541435242,26.18515161431941L260.24392119806464,26.064757553256015L260.2484815471511,25.700907698475078L260.25304189623745,25.461816920230007L260.2576022453239,25.372662478993874L260.2672296489507,25.099747895935792L260.2717899980372,24.961289555924452L262.28493076696225,24.820329516339285L262.2894911160486,24.74878222616323L262.29405146513506,24.83355275404253L262.2986118142215,24.549755834689194L262.30367886876195,24.531516446999007L262.3082392178484,24.03184778808466L262.31735991602113,24.09301255600218L262.32242697056165,23.985657265684353L262.326987319648,23.827409730655177L262.3457354214477,23.83224912198554L264.36799688854563,23.58151458026356L264.37255723763207,23.643536756652765L264.37711758671844,23.434065652895356L264.39130533943177,23.394047815381583L264.3958656885182,23.23472116068183L264.40093274305866,23.15220142058584L264.40549309214504,22.64672452772507L264.41005344123147,21.81194801985785L264.41968084485836,21.740081966636012L264.42424119394474,20.953710215594185L264.42880154303117,20.93487353836744L266.4510630101291,20.74097249239867L266.45562335921545,20.167154570096102L266.46525076284235,19.912444668274475L266.4698111119288,19.43469826207334L266.4743714610152,19.245776715968503L266.4885592137285,19.068793846932408L266.4981866173554,18.824148980128996L266.50274696644175,18.55552230440574L266.5073073155282,18.561637393364464L268.5204480844532,18.01725851773577L268.52500843353965,17.952802961451027L268.5295687826261,17.529760673468218" fill="none"></path></g></g></g></g><g opacity="0.2"><g><g><g><path style="fill: none;" stroke="rgb(255, 112, 67)" stroke-width="2px" d="M27.413778474800804,218.9977020958996L27.41833882388722,143.41718471166064L27.422899172973633,166.4952993092413L27.427459522060047,162.80172893778132L27.43252657660051,319.2955560522579L27.45583502748663,218.515440755371L27.460395376573043,58.37867086992692L29.50596529455705,259.5913079925755L29.511032349097512,86.618899003984L29.52015304727034,313.4231192588174L29.538901149070043,-10.225387490695937L29.548528552696922,147.40629466843697L29.553088901783337,97.54251971701059L29.55764925086975,170.39792551606084L31.57079001979481,43.3107736254764L31.57991071796764,56.653330009117056L31.589538121594515,100.99090169176367L31.594098470680933,169.8918706406426L31.60828622339422,67.56293111143727L31.612846572480635,28.77535623246007L31.61740692156705,-38.86696567888632L31.621967270653464,14.720585934575553L31.627034325193925,117.57707412722215L33.64929579229182,-38.35045137781489L33.65385614137823,54.78664316781021L33.66297683955106,82.32611189605542L33.672604243177936,119.75825135254465L33.67716459226435,38.90189352668281L33.681724941350765,105.34671070901896L33.68679199589123,105.93460561475939L33.70047304315047,111.518833266021L33.70554009769093,160.14660484137121L33.710100446777346,237.45770385572195L33.71466079586376,123.62585064554895L35.73236191387523,27.00180913925294L35.74148261204806,-83.96367495703691L35.74654966658852,91.60528092171677L35.76985811747465,25.196728978431793L35.77441846656105,100.89037621814988L35.77897881564747,83.29762226951513L35.78404587018793,186.66259776215048L35.78860621927435,62.974449627537865L35.79316656836077,95.53749425649393L37.825055439085524,41.252632857520155L37.86255164268494,-46.78415384867L37.871672340857764,-14.34423412888276L39.884813109782826,81.53181470903232L39.889373458869244,-31.705819291516917L39.922309313382236,10.858072620218678L39.93599036064148,228.11858662087297L39.945617764268356,-161.0151900438135L39.95017811335477,79.9917361486924L41.96331888227983,106.63739941203022L41.98206698407954,219.78996489146374L41.986627333165956,128.04472579803223L41.99118768225236,101.84583258944426L42.00537543496566,117.30229860255764L42.00993578405207,111.57212547706571L42.02412353676536,135.05835669167584L44.05094535294966,193.53700551855863L44.06057275657653,141.88312087389502L44.06969345474937,37.51306754872701L44.07425380383578,142.76102712729158L44.07932085837625,196.7269755521215L44.08388120746265,104.87163607744868L44.08844155654907,142.62489980314587L44.09300190563548,95.6216561466334L44.10262930926236,-105.49868152003984L46.120330427273835,78.0752509425421L46.13401147453308,-58.02801431287887L46.139078529073544,70.43867611639219L46.143638878159955,180.0150909922692L46.152759576332784,127.62851584106818L46.157826630873245,132.8590247338771L46.16238697995966,124.27261022589559L46.17150767813249,121.73890834145499L46.176574732672954,106.48252030574096L46.185695430845776,43.76055104151342L48.198836199770845,70.10255926664965L48.20795689794367,141.64750738481564L48.212517247030085,-97.76741903924534L48.24545310154308,248.56121342221272L48.250013450629496,115.73656901947419L48.25508050516995,174.25117350409917L48.25964085425637,-76.67529065167946L50.27734197226784,164.76135651063208L50.28190232135426,49.99512057112554L50.29102301952709,104.276797705207L50.30065042315396,7.4579411037641705L50.30521077224038,124.7026186640596L50.30977112132679,49.78274779316979L50.31483817586726,53.41161567105435L50.32395887404009,163.76802065488977L50.32851922312649,29.052696859398935L52.36952879202409,207.97220701927012L52.3882768938238,213.74665027194524L52.4070249956235,162.2778289111958L52.41209205016396,116.0254526066476L52.41665239925038,218.5987402404355L54.443474215434684,-22.983410137093585L54.4480345645211,137.93483142400189L54.453101619061556,140.30991711349492L54.457661968147974,218.5203940563146L54.47184972086126,49.09830774493096L54.476410069947676,-92.38265020276515L54.49059782266097,133.32512150748715L54.49515817174738,109.75797900648178L56.51285928975885,229.082379574559L56.53160739155856,215.6201479020495L56.53616774064498,45.75270676475705L56.540728089731395,236.4375671038028L56.5452884388178,20.676974545124438L56.55035549335827,239.03497639903998L56.55491584244468,65.9202926860246L56.56910359515797,-14.755535010804522L56.57366394424439,180.3052129046785L58.59136506225586,132.92018915535L58.61011316405556,179.87566883847796L58.61467351314197,72.13345687941623L58.62379421131481,199.770204045231L60.669870834752864,-26.973913209760298L60.68355188201211,137.95134979813068L60.688618936552565,106.46500684883333L60.69317928563898,136.83365070798362L60.697739634725394,3.703913925251811L60.70736703835227,10.963507168874742L60.72611514015198,19.79130664605293L60.73523583832481,8.986520929770819L62.752936956336285,212.7568746012561L62.7574973054227,159.32517506391167L62.76205765450911,196.49478957039148L62.78587281084928,253.7380984097173L62.794993509022106,7.410265582182262L62.80462091264898,153.13713118244812L62.81374161082181,-46.406331974018656L64.84563048154658,133.12141700618267L64.8547511797194,165.70588908430983L64.85931152880582,101.63416742590904L64.8734992815191,135.51505546126347L64.88312668514598,96.54611016112916L64.8876870342324,178.56589665906355L64.89224738331882,133.0145230027843L66.90994850133029,144.3507050359192L66.9145088504167,173.15187238888538L66.91906919950311,212.4811924456153L66.93781730130283,-43.745082590281015L66.94288435584328,84.2880613287235L66.95200505401611,50.66231251786441L66.9661928067294,161.872012041033L68.9930146229137,281.0071920904756L68.99757497200012,112.30490443540567L69.00264202654058,180.96734098572063L69.007202375627,139.63312814617785L69.01632307379982,-43.84759822945247L69.03051082651312,149.6694888276868L69.03507117559954,-39.324040368634854L69.04013823013999,96.1854479361752L71.06239969723788,84.45373155492554L71.0669600463243,83.15853180998353L71.07608074449713,156.92297889693282L71.1044562499237,66.76956266834111L71.11357694809654,101.44222701434555L71.118644002637,159.7319206780014L71.12320435172342,236.49678558561925L71.12776470080983,41.72054289308278L73.14090546973489,262.2290955356831L73.15002616790771,193.16867009973222L73.15458651699413,87.1496982711695L73.17840167333429,106.8880275945948L73.18296202242071,71.05262007798764L73.19208272059353,9.974616016211257L73.20171012422041,179.3444494252303L73.20627047330683,52.75322467867056L75.2194112422319,94.47885885750885L75.22853194040471,103.34588670912407L75.23309228949113,166.69015863028937L75.23815934403159,265.20649377473444L75.242719693118,255.39093090537548L75.25184039129084,74.65013179186333L75.2569074458313,35.29549240664949L75.26602814400414,120.7802677052683L75.27058849309054,123.75145220518957L75.28021589671741,150.26912571021757L77.2979170147289,155.5002979915457L77.30703771290173,104.35264512590547L77.31159806198814,150.64254710769137L77.31666511652861,69.43616338613386L77.32578581470142,232.63723540664827L77.33034616378784,167.26615676858498L77.34453391650113,84.71506240560036L77.34909426558755,91.05090924914803L77.35416132012801,139.6737496365053L77.35872166921443,45.63227963556642L79.37642278722589,-41.12584781276118L79.38098313631231,-35.65138884848122L79.38554348539873,135.4553062686316L79.39010383448513,85.08770984980171L79.4139189908253,273.60974671255696L79.43266709262501,202.657337219766L79.43722744171143,136.66170040379956L81.4549285597229,82.79844452174622L81.46860960698216,7.3233616861633095L81.50154546149514,16.37326363957925L81.50610581058156,28.678059249639887L83.5334343322199,191.41093376623337L83.53799468130632,146.55185025567047L83.54255503039273,116.36793798617472L83.55218243401961,152.24040680805612L83.56130313219245,317.2972197593101L83.57093053581931,174.85481283069595L83.58005123399214,158.0959824766329L85.63068820651661,145.6550816553772L85.63524855560303,67.06061332467733L85.63980890468945,127.78290846244333L85.64436925377586,-11.70584953610782L85.65399665740274,111.29009690459097L85.65855700648913,219.57177640748944L85.67274475920243,12.294220312546145L87.69500622630034,31.8886827791014L87.72287502627286,39.856288476346435L87.72794208081332,-147.71018145036123L87.73250242989974,53.28468733437525L87.73706277898616,158.26669445558107L87.74162312807256,153.56147870524805L87.75125053169944,5.906142679584519L87.75581088078586,179.71026396768363L89.76895164971091,-21.231356831909437L89.77807234788375,84.80143559080393L89.78263269697015,206.7488522509606L89.78769975151063,140.2330082711657L89.79682044968345,183.95973180530657L89.80644785331032,324.7137265006813L89.81100820239674,77.80074077328528L89.82975630419645,282.380892810193L91.85657812038075,29.05539463937714L91.87076587309404,142.49273069716486L91.87532622218045,138.94189942209226L91.88495362580733,120.73113272894409L91.88951397489375,57.43126361266583L91.89863467306658,261.32516233938213L91.90826207669345,79.96511215612067L93.93052354379134,178.76933580496035L93.96345939830434,171.2083430441012L93.97714044556358,132.01015278467213L93.98220750010404,128.6484093505303L96.00446896720193,189.64576748131915L96.00902931628833,80.24121445782363L96.01358966537475,23.12288801552046L96.02321706900163,180.86396294147417L96.02777741808805,48.044935228198426L96.03233776717447,134.08184879137127L96.03689811626089,175.12669155882648L96.04652551988775,17.698227416083967L96.06983397077387,101.56747476677592L98.08297473969894,-10.82818652516832L98.11084353967146,131.2432756564438L98.12047094329834,27.545920402724278L98.12503129238476,175.2094161071743L98.12959164147118,81.60474322024619L98.13415199055758,99.95628095717467L98.13921904509805,101.97996974803229L98.14377939418445,74.90571327537147L98.14833974327087,174.88008793327856L100.16148051219594,211.9895109881137L100.16604086128235,181.33614077651046L100.17060121036876,169.830750445071L100.18022861399564,8.659072356679559L100.19390966125488,204.46199723452494L100.19897671579534,18.16520870771967L100.20353706488176,95.4468753847673L100.21265776305458,-14.776055828999318L100.21772481759506,311.23824917073784L102.23998628469293,145.17914461873193L102.24910698286577,28.909537616949393L102.25873438649265,-11.818581358475456L102.26329473557905,82.70052837630807L102.27748248829235,102.05568449102692L102.28204283737877,3.2987162177069536L102.28660318646517,97.43376822575837L102.29623059009205,162.55222851569943L102.30079093917847,177.75125555745078L102.30535128826487,129.48078503855714L104.32305240627636,82.41580202385514L104.3321731044492,-156.1643605135098L104.33724015898964,-78.54100452315811L104.35092120624888,55.98321915289354L104.35598826078935,149.0025180104543L104.36054860987576,55.35981084842376L104.36510895896218,172.47532666402535L104.3696693080486,21.07832459925777L104.37473636258906,-238.3875640443904L104.37929671167548,39.01988823130296L104.38385706076188,2.5507235493260225L106.40155817877336,32.49033194014049L106.40611852785977,77.49133636791704L106.42486662965949,87.90728796012861L106.4294269787459,119.2983019792128L106.43449403328636,33.68858850947257L106.44361473145918,-90.92116106900312L106.4481750805456,141.46242198795085L106.45324213508606,114.99215864909706L106.45780248417248,109.73732551058312L108.47550360218395,307.7641277214387L108.49425170398365,284.51291294624065L108.50337240215649,78.04411590803963L108.51299980578337,171.4033129299025L108.52212050395619,190.74599734045987L108.5266808530426,156.87868665679898L108.53174790758305,69.69050654440612L110.55400937468096,278.62494180497487L110.57275747648065,11.578468326199697L110.57731782556706,4.331656368047248L110.5864385237399,-17.37247004145769L110.6006262764532,284.9795404306661L110.6193743782529,172.54016183530464L112.63251514717795,35.800242617979904L112.64163584535079,-75.95542565651382L112.65126324897767,89.2765660897178L112.67001135077736,219.9269325077338L112.68369239803661,80.62288398588653L112.68875945257707,164.28199196663746L112.6978801507499,-50.42757204807626L114.71102091967495,-105.98547601544982L114.71558126876137,142.39224944945238L114.72014161784779,111.132121985212L114.7247019669342,19.99854921945996L114.72976902147467,138.36466295856076L114.73432937056108,-28.12555567914123L114.73888971964749,106.27890425623906L114.7434500687339,94.31973406469655L114.76219817053362,152.25066721715353L114.76726522507407,-84.60357952268487L114.7763859232469,45.96176260011663L116.79408704125838,68.38478103495899L116.80827479397166,-19.00834190397424L116.8219558412309,-74.70325771351915L116.82702289577138,37.71876221558915L116.84070394303062,-7.8233903402728515L116.84577099757108,150.21934945832476L116.8503313466575,67.19457357966026L116.85489169574392,59.84210594334532L118.86803246466897,240.3382252580153L118.8771531628418,184.7891443579475L118.88171351192821,75.04573247882999L118.88678056646867,64.85546566086005L118.89590126464151,168.45366644390555L118.90046161372791,53.38304573882624L118.90552866826839,-64.73407617605741L118.91920971552761,184.8448689935627L118.9288371191545,121.21421224864639L118.93339746824091,248.52333393776476L120.9556589353388,194.86641399814218L120.9744070371385,56.99316183456723L120.9885947898518,37.49130840529631L120.9931551389382,70.30847506301822L120.99771548802462,169.62067741398192L121.0027825425651,211.51041179952676L121.00734289165149,130.6027519281779L121.01190324073791,210.56156720047403L123.0296043587494,222.39418497549835L123.03872505692222,96.68413919903L123.04379211146268,-162.04065601683715L123.0671005623488,-9.182584964369738L123.0858486641485,132.93363382933967L123.09040901323492,80.78307020032959L125.10811013124639,112.64057902613537L125.11267048033281,37.23196772017917L125.11723082941921,123.1727120610145L125.12229788395969,112.42006868234377L125.1268582330461,25.453548787175833L125.13141858213251,-85.8105043686682L125.14560633484581,53.23511009903825L125.15016668393223,54.44628063154461L125.15472703301864,-118.26192282278873L127.1866159037434,-11.80031606124598L127.19573660191624,51.48075704698745L127.20080365645669,-231.84593408217796L127.2053640055431,62.52533560002007L127.2099243546295,113.67696879677564L127.21955175825639,154.83582593773565L127.23323280551564,39.60738510393185L127.2382998600561,165.53873729041487L129.260561327154,122.37173676289783L129.2651216762404,211.56633545169774L129.2696820253268,156.18060291801467L129.27424237441323,254.73618854984744L129.28843012712653,-17.765549852051294L129.3026178798398,10.247710956627031L129.30717822892623,-3.418623250298481L129.3168056325531,71.73268176199959L131.339067099651,75.21989407807816L131.3436274487374,39.13637925527951L131.3481877978238,129.6986860541731L131.3578152014507,33.46316909063867L131.3623755505371,213.5637540571939L131.36693589962354,161.678811191283L131.37149624870995,157.89804945544572L131.3765633032504,-78.92546028300177L131.3811236523368,23.9664970824729L131.38568400142321,133.953637903555L131.39024435050965,54.90530126094957L131.40443210322294,49.290778867309825L133.41757287214799,148.5379028045372L133.4363209739477,-64.96254718207976L133.44088132303412,140.1179545889808L133.45000202120696,66.38745088126541L133.45962942483382,119.46207049165969L133.46875012300663,112.31967588643383L133.47381717754712,-0.9299875592641342L133.47837752663352,109.66147808988464L133.48293787571993,77.39753323129811L135.496078644645,235.56715714067352L135.50063899373143,65.6078366934679L135.50975969190424,-117.93146688841034L135.5193870955311,-8.74457163807375L135.52850779370394,62.805506684640946L135.54269554641724,64.74061099523091L135.54725589550367,94.46457389139479L135.55232295004413,15.131267653879377L135.55688329913053,-78.75802102074846L137.5791447662284,190.8926062032094L137.58826546440125,112.17187292434969L137.59789286802814,220.78038183772145L137.60245321711454,183.26410260404342L137.6120806207414,40.03544760243943L137.62576166800065,121.32831507395372L137.63538907162754,-12.468127170602855L137.63994942071395,-18.79645561093261L139.65309018963902,85.68122144500497L139.66677123689826,154.37592079030506L139.68095898961155,-112.288772595654L139.68551933869796,126.83488204256432L139.69514674232485,-97.63730643767394L139.71845519321093,179.17068585909368L141.74527700939527,22.107019063075L141.7549044130221,53.98827719786915L141.75946476210854,20.878335073660992L141.76402511119494,87.91458523384013L141.7690921657354,254.15696192075828L141.77821286390824,49.15266137760642L141.78277321299467,-20.040972473005553L141.78784026753513,46.29703915773479L141.79240061662153,93.28245977603063L143.81922243280584,-26.58587515191283L143.83341018551914,-69.48243429309093L143.83797053460555,76.23859348820567L143.84253088369195,-392.11626618949344L143.86634604003214,-42.264399415362675L143.87090638911855,21.45030865493993L143.87546673820498,41.626872434167694L145.88860750713002,87.86823648929666L145.90228855438926,-86.98302146345418L145.91191595801615,-25.44347589589981L145.91647630710256,20.741234779687062L145.92103665618896,-9.924297554768685L145.93066405981585,-54.306802753117694L145.93522440890226,152.9602275773205L145.9397847579887,-1.8971637943982103L145.94485181252912,190.27443866804148L145.95397251070196,16.82764054934958L147.97623397779986,132.02802004879L147.9858613814267,-3.273783423600179L147.99042173051316,67.15702578947192L147.99954242868597,77.04195698499156L148.00460948322643,5.529205322958802L148.00916983231284,68.69767928652853L148.01829053048567,0.6015996280297031L148.02335758502613,-126.62344862275177L148.03247828319897,135.904199166643L150.045619052124,216.98022704417207L150.07804820118298,-2.276533575594442L150.08311525572344,49.85244781359009L150.08767560480985,78.95096801382519L150.09223595389625,154.4007757468255L150.09679630298268,119.292375708441L150.10186335752314,-89.40266474848875L150.10642370660955,53.95656722665002L152.12412482462102,215.4960721360031L152.12868517370745,47.55734466656537L152.13324552279386,156.29037160499638L152.14743327550715,68.37810292386543L152.15199362459356,113.51908232919922L152.15655397368,145.21578577794398L152.16162102822045,28.624015198273383L152.1707417263933,162.4480101793286L154.20719094620446,33.79636703089659L154.21175129529087,45.925364683361636L154.21631164437727,127.69060900646798L154.22593904800416,-26.13105598312967L154.24468714980384,-64.02124309919563L154.25887490251714,177.61910856442043L156.281136369615,-8.228455370113863L156.30900516958755,-87.7958935290157L156.31356551867398,142.79999014632094L156.31863257321444,20.578748818377335L156.32319292230085,56.98975644016855L156.33231362047368,0.6197764734565681L156.33738067501415,24.85088243040724L156.34194102410058,-28.08296613620675L156.34650137318698,70.0713800062459L158.35964214211202,14.927386248969754L158.36420249119845,80.44142511292684L158.36876284028486,-97.11535235074484L158.3733231893713,75.8256562479365L158.37839024391175,-90.00701168950604L158.3875109420846,144.0273473586965L158.392071291171,80.86922225602675L158.40169869479786,82.07243212630239L158.4108193929707,66.26056677048759L158.41588644751116,104.75390672823625L158.42500714568396,-66.06173773254034L160.44726861278187,-164.38962631162326L160.4518289618683,31.02809096605671L160.45689601640876,35.485354200852726L160.470577063668,-107.46545157594767L160.47564411820844,-62.61140981813091L160.48020446729487,98.91241700921775L160.48476481638127,105.51556520011329L160.49439222000814,78.27678837468376L160.49895256909457,115.31518463206015L162.54452248707858,107.71982834590496L162.55871023979188,-57.606497247760984L162.56327058887828,107.10849371248511L162.57289799250518,188.3462778239528L162.57745834159158,103.60093748181686L162.58201869067798,-81.56123554760103L164.59515945960305,98.64675202021732L164.6088405068623,84.30261165024525L164.61390756140275,79.58813057359369L164.6230282595756,-32.229100155484474L164.627588608662,46.96661930314292L164.63265566320246,-2.635869023509912L164.6372160122889,22.095122295630176L164.6514037650022,36.719654879729546L166.6969736829862,4.174079481779813L166.7015340320726,13.011608657240004L166.706094381159,58.07183156683301L166.71572178478587,-33.1680602656007L166.73446988658557,209.0304001592424L168.75217100459707,77.60004363326797L168.75673135368345,295.12965013027207L168.7612917027699,168.0799575780734L168.76585205185629,115.79702582652655L168.77091910639675,3.008771208902772L168.784600153656,48.70611245236299L168.78966720819648,97.34164567338816L168.79422755728288,121.46864385872124L168.81753600816901,16.30749972437303L170.83523712618046,-157.48512282939276L170.8397974752669,65.98185514060901L170.84942487889376,17.01958096091306L170.8539852279802,-65.76975833227718L170.863105926153,88.56912857281237L170.8914814315796,-85.44855959257706L170.89604178066602,-103.30870334036223L172.91374289867747,5.42589361756427L172.9183032477639,-68.880962035657L172.9228635968503,103.76306963591634L172.94161169865004,37.85219175975669L172.9466787531905,-117.58212649418454L172.96998720407657,-230.78716600548904L174.98768832208808,0.8723063697762541L174.9922486711745,85.984478450095L174.9968090202609,77.5246826974836L175.0013693693473,22.15190835287615L175.00643642388775,-34.775096840481496L175.01099677297418,110.33937270473376L175.01555712206059,60.800923483137126L175.03430522386031,-17.485865252344496L175.04393262748718,43.8063248493402L175.04849297657358,-266.4006037235623L177.0940628945576,204.14401300430802L177.1036902981845,60.584703051769864L177.1082506472709,-92.49118056451096L177.11281099635733,203.06565285335122L177.1224383999842,9.752071280960678L179.14469986708207,30.827261148335566L179.1492602161685,191.33864653058808L179.1634479688818,141.50319826893278L179.1725686670546,164.71777188491876L179.1867564197679,15.048167185370659L179.20094417248117,87.77102795827905L179.2055045215676,-63.24782053757755L181.2277659886655,-8.025414257328606L181.2323263377519,56.6713299509388L181.23688668683835,-129.68547312390604L181.24651409046518,-69.863661562141L181.25107443955162,44.064869468234235L181.26070184317848,-245.71827253727463L183.34832831384833,-18.56037774988974L183.35288866293473,134.53693331556212L183.3579557174752,-86.16678822939525L183.36251606656162,74.13817275862392L185.3802171845731,26.958069722885114L185.3847775336595,-105.4828928732822L185.39389823183234,-13.561391450291666L185.4035256354592,134.96512849177356L185.40808598454564,75.51545577634518L185.41264633363204,175.64572673627097L185.42227373725893,180.40591528189742L185.42683408634534,59.23966071608312L185.4364614899722,34.09321128030075L187.49115210612902,59.83870054894659L187.50533985884232,-47.171882325208514L187.50990020792875,-223.1296281021315L187.5149672624692,43.1210887348783L187.51952761155562,-23.518853123913658L189.5372287295671,90.63306293383654L189.5417890786535,46.23499021823628L189.54634942773993,-6.038034931423425L189.5559768313668,110.61419245529954L189.56965787862603,161.6160767503146L189.5747249331665,-2.085168100747609L189.57928528225293,81.11755069172467L189.58384563133933,202.8867148567646L189.58840598042576,60.33288076987067L189.59347303496622,92.73994064500545L189.59803338405263,-11.494847761091876L189.60259373313903,-107.93300780430002L191.6202948511505,29.298814000032763L191.62941554932334,-27.769316044315445L191.6344826038638,57.58888472483456L191.64360330203664,33.0164432617901L191.6532307056635,95.79705607111745L191.66235140383634,88.83240536314358L191.66691175292277,95.21097442732959L191.6719788074632,80.32126333914388L191.6765391565496,112.09421224169866L191.68109950563604,151.4958858729258L193.6942402745611,-130.51426651392904L195.78186674523093,293.71462030580676L195.78642709431733,39.36241783673134L195.7914941488578,33.83139394471186L195.80061484703063,126.08472230502056L195.81024225065752,3.6389018503674038L195.81480259974393,-30.293332456375282L197.85581216864153,-82.49033328173141L197.86037251772794,123.33484421511397L197.8699999213548,67.62082281621531L197.87456027044124,6.814808047322629L197.88874802315453,95.42865431343915L197.89330837224094,9.179920796076601L197.89786872132737,57.72934618730592L197.90749612495424,-21.098679128063708L197.9120564740406,95.38893945408799L197.91661682312704,-6.873285303033583L199.93431794113854,11.00861758818229L199.93887829022495,-259.4574910295127L199.94343863931135,44.87973169935344L199.94850569385184,-80.04530432936099L202.04069251360806,-125.02362086977996L202.05488026632136,26.08381210634434L202.06450766994823,-30.159637556800106L202.07362836812106,55.93098836347963L204.09132948613254,17.72056149623134L204.09588983521894,-46.14845074364379L204.10045018430537,-26.377173123763498L204.10551723884583,2.851327000339154L204.11463793701867,-150.36448736759758L204.12882568973194,-56.10418760711579L204.13338603881837,36.44076634624582L204.14301344244524,51.49000026035537L204.14757379153167,-73.26414688580576L204.15213414061807,-219.46613134354322L206.16983525862955,1.2668898610134534L206.18858336042925,91.15223078898488L206.19770405860208,36.15051175613263L206.20277111314252,-45.988795240016145L206.21189181131535,40.35033601956664L206.21645216040176,0.0943285403261882L206.22151921494222,19.41472309663746L206.22607956402865,-40.886276105517084L208.30914568561207,-30.001839541026214L210.32228645453714,15.519747970739672L210.32684680362354,-20.634793649517718L212.40079222703415,-72.49824272740565L212.40535257612055,136.89883968647314L212.42410067792025,-117.69335463590852L212.44284877971995,158.73473716884752L212.4519694778928,37.647735418130424L212.45703653243325,-7.988264500251802L214.47929799953116,-108.70665149542447L214.48385834861756,71.40992113444419L214.488418697704,-49.785854220475784L214.50260645041726,24.560141355379983L214.51679420313053,-113.95436426383202L214.54010265401666,-161.42100691397633L214.5446630031031,45.68857920789827L216.56236412111454,-346.5595190862084L216.56692447020097,-144.88755175284587L216.57655187382784,130.20507262385098L216.58111222291427,-67.63065158051609L216.58567257200068,-98.47622755909049L216.59023292108708,3.7463707904824446L216.59529997562757,-33.23590279816719L216.6089810228868,-57.412876251948774L216.61404807742727,59.05683084018371L218.63630954452515,-20.702326600775194L220.7284963642814,-137.1778272859757L220.73356341882183,53.97651310812819L220.73812376790826,163.64000878362927L220.74268411699467,-164.46733122017554L220.77105962242126,-4.132119715679522L220.77561997150767,4.1281287703478995L222.79332108951914,36.32564632520899L222.79788143860557,25.307470635241685L222.80244178769198,-73.7630150522657L222.80700213677838,118.3208653349813L222.81662954040527,90.07311879770629L222.8257502385781,21.808848036632355L222.83081729311857,119.12055808196078L222.83537764220497,85.15630422268995L222.8444983403778,154.78675730026336L222.84956539491827,24.05614298437132L222.8541257440047,191.1733301115963L224.87182686201615,63.58299802917692L224.880947560189,101.88271699111337L224.90932306561558,-7.372463050802452L224.91844376378842,22.779341214362603L224.9371918655881,-0.14347413086665028L226.95033263451316,17.770448312877335L226.9548929835996,55.00003314149542L226.97364108539927,80.56592102503541L226.9969495362854,-204.64766818232272L227.0015098853718,143.35606451608902L229.02883840701014,-23.567368937619875L229.0612675560691,-146.56176747177386L229.06633461060957,117.1747953291619L229.0754553087824,-122.91156872816106L229.0800156578688,-10.006380827547872L229.08508271240927,2.8255432998918195L229.0896430614957,-67.64453851351865L231.10734417950718,112.05126889155392L231.11190452859358,-48.89280059589018L231.12609228130688,59.71000317621623L231.13065263039329,122.5683208940959L231.13521297947972,153.10951210709757L231.13977332856612,103.22417702879626L231.14484038310658,126.44534030407326L231.16358848490626,152.719262754186L233.1858499520042,24.091435253594284L233.1904103010906,-191.16044887558888L233.22334615560356,-54.76153347009833L233.22790650469,27.236869804566282L233.2324668537764,1.6394046275109986L233.2370272028628,-143.92776124322586L233.2420942574033,10.900087226436483L233.2466546064897,22.78876133133565L235.26891607358758,-13.714501520529637L237.37073029697072,-142.87774989499076L237.38947839877042,36.72080475316287L237.39403874785685,-246.725650116674L239.4259276185816,-55.22338455718531L239.43504831675443,24.13791667584158L239.4401153712949,-189.4882675481199L241.5464899437644,-135.22534219618194L243.59205986174842,131.2547301648758L243.5971269162889,9.05971479639237L243.60168726537532,169.20758538305824L243.61080796354815,-12.304933594872608L243.62499571626145,-152.4219205211333L243.62955606534786,48.724820008605235L243.63462311988832,200.8039181488437L245.66600528515903,-97.80019043209523L245.67056563424543,102.91950479486519L245.67563268878592,63.94821552196295L245.68475338695873,98.43159301048082L245.68931373604516,-135.2329490512024L245.698941139672,4.115657066186401L245.70806183784484,110.9155035207332L245.7131288923853,-11.087836791594412L245.72224959055814,121.58265823222598L247.73539035948318,4.754544436104879L247.7541384612829,44.03948380089844L247.7586988103693,-26.072500889832412L247.7632591594557,-23.46564936467152L247.76781950854215,139.773788625205L247.7728865630826,88.0067520121116L247.777446912169,85.44700107181595L247.78200726125544,-185.0804046450557L247.7916346648823,-119.54221843899876L247.79619501396874,129.26045159837065L247.80075536305515,176.67632291384334L249.8138961319802,-92.35673382461391L251.92027070444976,-79.17759214620992L251.92483105353617,81.65383397066911L251.9298981080766,-186.11215069606146L251.934458457163,72.2323459946826L251.93901880624944,24.703344823730788L251.94357915533584,-101.13225828647688L253.97546802606064,-70.92455248209146L253.98002837514701,92.39745526547834L253.9896557787739,49.75780438484679L253.9942161278603,5.9636805771522745L254.0084038805736,-172.20115880324443L254.01296422966004,4.576137150333636L254.01752457874645,21.1860588947805L254.02208492783285,100.49473130528192L254.0271519823733,-55.2387309449301L254.03627268054615,18.174009662074752L256.06309449673046,-204.55762424731273L258.13703992014104,-168.52470385558053L258.14160026922747,90.51515668101898L258.14666732376793,3.1566626227894687L258.1512276728543,111.38796882412784L258.16034837102717,-124.64049188697476L260.20642499446524,-216.71390928086873L260.2109853435516,32.25589043744509L260.21554569263805,-30.871188082524753L262.2894911160486,-19.590620120251828L262.29405146513506,77.39983297816477L262.2986118142215,-151.54049830858486L262.30367886876195,13.2074409481163L262.3082392178484,-286.3805391456907L262.31735991602113,62.113902040394464L262.32242697056165,-42.788432119652015L262.326987319648,-74.66088930009104L262.3457354214477,26.845957063135472L264.36799688854563,-132.65656917202477L264.37255723763207,62.31420114730021L264.37711758671844,-107.24927537048166L264.42424119394474,-471.70104090169787L264.42880154303117,9.12684971453831L266.4510630101291,-100.88065713408412L266.50274696644175,-150.6336462027993L266.5073073155282,22.415362046812476L268.5204480844532,-325.25068378236125" fill="none"></path></g></g></g></g></g><g><g opacity="0.61966"><span fill="rgb(0, 0, 0)" stroke="none" stroke-width="1px">Alt + Scroll to Zoom</span></g></g></g><g transform="translate(51, 178)" clip-path="url(#clip_1)"><clipPath id="clip_1"><rect width="278" height="21"></rect></clipPath><g><g><line x1="0" y1="0" x2="0" y2="5" style="visibility: inherit;" fill="rgb(0, 0, 0)" stroke="rgb(204, 204, 204)" stroke-width="1px"></line><line x1="25.3352727023038" y1="0" x2="25.3352727023038" y2="5" style="visibility: inherit;" fill="rgb(0, 0, 0)" stroke="rgb(204, 204, 204)" stroke-width="1px"></line><line x1="50.6705454046076" y1="0" x2="50.6705454046076" y2="5" style="visibility: inherit;" fill="rgb(0, 0, 0)" stroke="rgb(204, 204, 204)" stroke-width="1px"></line><line x1="76.00581810691139" y1="0" x2="76.00581810691139" y2="5" style="visibility: inherit;" fill="rgb(0, 0, 0)" stroke="rgb(204, 204, 204)" stroke-width="1px"></line><line x1="101.3410908092152" y1="0" x2="101.3410908092152" y2="5" style="visibility: inherit;" fill="rgb(0, 0, 0)" stroke="rgb(204, 204, 204)" stroke-width="1px"></line><line x1="126.676363511519" y1="0" x2="126.676363511519" y2="5" style="visibility: inherit;" fill="rgb(0, 0, 0)" stroke="rgb(204, 204, 204)" stroke-width="1px"></line><line x1="152.01163621382278" y1="0" x2="152.01163621382278" y2="5" style="visibility: inherit;" fill="rgb(0, 0, 0)" stroke="rgb(204, 204, 204)" stroke-width="1px"></line><line x1="177.3469089161266" y1="0" x2="177.3469089161266" y2="5" style="visibility: inherit;" fill="rgb(0, 0, 0)" stroke="rgb(204, 204, 204)" stroke-width="1px"></line><line x1="202.6821816184304" y1="0" x2="202.6821816184304" y2="5" style="visibility: inherit;" fill="rgb(0, 0, 0)" stroke="rgb(204, 204, 204)" stroke-width="1px"></line><line x1="228.0174543207342" y1="0" x2="228.0174543207342" y2="5" style="visibility: inherit;" fill="rgb(0, 0, 0)" stroke="rgb(204, 204, 204)" stroke-width="1px"></line><line x1="253.352727023038" y1="0" x2="253.352727023038" y2="5" style="visibility: inherit;" fill="rgb(0, 0, 0)" stroke="rgb(204, 204, 204)" stroke-width="1px"></line><line x1="278.6879997253418" y1="0" x2="278.6879997253418" y2="5" style="visibility: inherit;" fill="rgb(0, 0, 0)" stroke="rgb(204, 204, 204)" stroke-width="1px"></line></g><g transform="translate(0, 8)"><text style="text-anchor: middle; visibility: hidden; font-family: &quot;Helvetica Neue&quot;, sans-serif; font-size: 12px; font-weight: 200;" x="0" y="0" dx="0em" dy="0.95em" fill="rgb(50, 49, 63)" stroke="none" stroke-width="1px">-50k</text><text style="text-anchor: middle; visibility: hidden; font-family: &quot;Helvetica Neue&quot;, sans-serif; font-size: 12px; font-weight: 200;" x="25.3352727023038" y="0" dx="0em" dy="0.95em" fill="rgb(50, 49, 63)" stroke="none" stroke-width="1px">0</text><text style="text-anchor: middle; visibility: hidden; font-family: &quot;Helvetica Neue&quot;, sans-serif; font-size: 12px; font-weight: 200;" x="50.6705454046076" y="0" dx="0em" dy="0.95em" fill="rgb(50, 49, 63)" stroke="none" stroke-width="1px">50k</text><text style="text-anchor: middle; visibility: hidden; font-family: &quot;Helvetica Neue&quot;, sans-serif; font-size: 12px; font-weight: 200;" x="76.00581810691139" y="0" dx="0em" dy="0.95em" fill="rgb(50, 49, 63)" stroke="none" stroke-width="1px">100k</text><text style="text-anchor: middle; visibility: hidden; font-family: &quot;Helvetica Neue&quot;, sans-serif; font-size: 12px; font-weight: 200;" x="101.3410908092152" y="0" dx="0em" dy="0.95em" fill="rgb(50, 49, 63)" stroke="none" stroke-width="1px">150k</text><text style="text-anchor: middle; visibility: hidden; font-family: &quot;Helvetica Neue&quot;, sans-serif; font-size: 12px; font-weight: 200;" x="126.676363511519" y="0" dx="0em" dy="0.95em" fill="rgb(50, 49, 63)" stroke="none" stroke-width="1px">200k</text><text style="text-anchor: middle; visibility: hidden; font-family: &quot;Helvetica Neue&quot;, sans-serif; font-size: 12px; font-weight: 200;" x="152.01163621382278" y="0" dx="0em" dy="0.95em" fill="rgb(50, 49, 63)" stroke="none" stroke-width="1px">250k</text><text style="text-anchor: middle; visibility: hidden; font-family: &quot;Helvetica Neue&quot;, sans-serif; font-size: 12px; font-weight: 200;" x="177.3469089161266" y="0" dx="0em" dy="0.95em" fill="rgb(50, 49, 63)" stroke="none" stroke-width="1px">300k</text><text style="text-anchor: middle; visibility: hidden; font-family: &quot;Helvetica Neue&quot;, sans-serif; font-size: 12px; font-weight: 200;" x="202.6821816184304" y="0" dx="0em" dy="0.95em" fill="rgb(50, 49, 63)" stroke="none" stroke-width="1px">350k</text><text style="text-anchor: middle; visibility: hidden; font-family: &quot;Helvetica Neue&quot;, sans-serif; font-size: 12px; font-weight: 200;" x="228.0174543207342" y="0" dx="0em" dy="0.95em" fill="rgb(50, 49, 63)" stroke="none" stroke-width="1px">400k</text><text style="text-anchor: middle; visibility: hidden; font-family: &quot;Helvetica Neue&quot;, sans-serif; font-size: 12px; font-weight: 200;" x="253.352727023038" y="0" dx="0em" dy="0.95em" fill="rgb(50, 49, 63)" stroke="none" stroke-width="1px">450k</text><text style="text-anchor: middle; visibility: hidden; font-family: &quot;Helvetica Neue&quot;, sans-serif; font-size: 12px; font-weight: 200;" x="278.6879997253418" y="0" dx="0em" dy="0.95em" fill="rgb(50, 49, 63)" stroke="none" stroke-width="1px">500k</text></g><line x1="0" y1="0" x2="278.6879997253418" y2="0" fill="rgb(0, 0, 0)" stroke="rgb(204, 204, 204)" stroke-width="1px"></line></g></g></g></g></svg>