<svg viewBox="0 0 330 200" xmlns="http://www.w3.org/2000/svg"><g><g><g><g><g><line x1="51.3120002746582" y1="178.07699966430664" x2="46.3120002746582" y2="178.07699966430664" style="visibility: inherit;" fill="rgb(0, 0, 0)" stroke="rgb(204, 204, 204)" stroke-width="1px"></line><line x1="51.3120002746582" y1="164.37876892089844" x2="46.3120002746582" y2="164.37876892089844" style="visibility: inherit;" fill="rgb(0, 0, 0)" stroke="rgb(204, 204, 204)" stroke-width="1px"></line><line x1="51.3120002746582" y1="150.68053817749023" x2="46.3120002746582" y2="150.68053817749023" style="visibility: inherit;" fill="rgb(0, 0, 0)" stroke="rgb(204, 204, 204)" stroke-width="1px"></line><line x1="51.3120002746582" y1="136.98230743408203" x2="46.3120002746582" y2="136.98230743408203" style="visibility: inherit;" fill="rgb(0, 0, 0)" stroke="rgb(204, 204, 204)" stroke-width="1px"></line><line x1="51.3120002746582" y1="123.28407669067383" x2="46.3120002746582" y2="123.28407669067383" style="visibility: inherit;" fill="rgb(0, 0, 0)" stroke="rgb(204, 204, 204)" stroke-width="1px"></line><line x1="51.3120002746582" y1="109.58584594726561" x2="46.3120002746582" y2="109.58584594726561" style="visibility: inherit;" fill="rgb(0, 0, 0)" stroke="rgb(204, 204, 204)" stroke-width="1px"></line><line x1="51.3120002746582" y1="95.88761520385742" x2="46.3120002746582" y2="95.88761520385742" style="visibility: inherit;" fill="rgb(0, 0, 0)" stroke="rgb(204, 204, 204)" stroke-width="1px"></line><line x1="51.3120002746582" y1="82.1893844604492" x2="46.3120002746582" y2="82.1893844604492" style="visibility: inherit;" fill="rgb(0, 0, 0)" stroke="rgb(204, 204, 204)" stroke-width="1px"></line><line x1="51.3120002746582" y1="68.49115371704099" x2="46.3120002746582" y2="68.49115371704099" style="visibility: inherit;" fill="rgb(0, 0, 0)" stroke="rgb(204, 204, 204)" stroke-width="1px"></line><line x1="51.3120002746582" y1="54.79292297363281" x2="46.3120002746582" y2="54.79292297363281" style="visibility: inherit;" fill="rgb(0, 0, 0)" stroke="rgb(204, 204, 204)" stroke-width="1px"></line><line x1="51.3120002746582" y1="41.09469223022458" x2="46.3120002746582" y2="41.09469223022458" style="visibility: inherit;" fill="rgb(0, 0, 0)" stroke="rgb(204, 204, 204)" stroke-width="1px"></line><line x1="51.3120002746582" y1="27.396461486816378" x2="46.3120002746582" y2="27.396461486816378" style="visibility: inherit;" fill="rgb(0, 0, 0)" stroke="rgb(204, 204, 204)" stroke-width="1px"></line><line x1="51.3120002746582" y1="13.698230743408203" x2="46.3120002746582" y2="13.698230743408203" style="visibility: inherit;" fill="rgb(0, 0, 0)" stroke="rgb(204, 204, 204)" stroke-width="1px"></line><line x1="51.3120002746582" y1="0" x2="46.3120002746582" y2="0" style="visibility: inherit;" fill="rgb(0, 0, 0)" stroke="rgb(204, 204, 204)" stroke-width="1px"></line></g><g transform="translate(41.3120002746582, 0)"><text style="text-anchor: end; visibility: hidden; font-family: &quot;Helvetica Neue&quot;, sans-serif; font-size: 12px; font-weight: 200;" x="0" y="178.07699966430664" dx="0em" dy="0.3em" fill="rgb(50, 49, 63)" stroke="none" stroke-width="1px">-1.2</text><text style="text-anchor: end; visibility: inherit; font-family: &quot;Helvetica Neue&quot;, sans-serif; font-size: 12px; font-weight: 200;" x="0" y="164.37876892089844" dx="0em" dy="0.3em" fill="rgb(50, 49, 63)" stroke="none" stroke-width="1px">-1</text><text style="text-anchor: end; visibility: hidden; font-family: &quot;Helvetica Neue&quot;, sans-serif; font-size: 12px; font-weight: 200;" x="0" y="150.68053817749023" dx="0em" dy="0.3em" fill="rgb(50, 49, 63)" stroke="none" stroke-width="1px">-0.8</text><text style="text-anchor: end; visibility: inherit; font-family: &quot;Helvetica Neue&quot;, sans-serif; font-size: 12px; font-weight: 200;" x="0" y="136.98230743408203" dx="0em" dy="0.3em" fill="rgb(50, 49, 63)" stroke="none" stroke-width="1px">-0.6</text><text style="text-anchor: end; visibility: hidden; font-family: &quot;Helvetica Neue&quot;, sans-serif; font-size: 12px; font-weight: 200;" x="0" y="123.28407669067383" dx="0em" dy="0.3em" fill="rgb(50, 49, 63)" stroke="none" stroke-width="1px">-0.4</text><text style="text-anchor: end; visibility: inherit; font-family: &quot;Helvetica Neue&quot;, sans-serif; font-size: 12px; font-weight: 200;" x="0" y="109.58584594726561" dx="0em" dy="0.3em" fill="rgb(50, 49, 63)" stroke="none" stroke-width="1px">-0.2</text><text style="text-anchor: end; visibility: hidden; font-family: &quot;Helvetica Neue&quot;, sans-serif; font-size: 12px; font-weight: 200;" x="0" y="95.88761520385742" dx="0em" dy="0.3em" fill="rgb(50, 49, 63)" stroke="none" stroke-width="1px">0</text><text style="text-anchor: end; visibility: inherit; font-family: &quot;Helvetica Neue&quot;, sans-serif; font-size: 12px; font-weight: 200;" x="0" y="82.1893844604492" dx="0em" dy="0.3em" fill="rgb(50, 49, 63)" stroke="none" stroke-width="1px">0.2</text><text style="text-anchor: end; visibility: hidden; font-family: &quot;Helvetica Neue&quot;, sans-serif; font-size: 12px; font-weight: 200;" x="0" y="68.49115371704099" dx="0em" dy="0.3em" fill="rgb(50, 49, 63)" stroke="none" stroke-width="1px">0.4</text><text style="text-anchor: end; visibility: inherit; font-family: &quot;Helvetica Neue&quot;, sans-serif; font-size: 12px; font-weight: 200;" x="0" y="54.79292297363281" dx="0em" dy="0.3em" fill="rgb(50, 49, 63)" stroke="none" stroke-width="1px">0.6</text><text style="text-anchor: end; visibility: hidden; font-family: &quot;Helvetica Neue&quot;, sans-serif; font-size: 12px; font-weight: 200;" x="0" y="41.09469223022458" dx="0em" dy="0.3em" fill="rgb(50, 49, 63)" stroke="none" stroke-width="1px">0.8</text><text style="text-anchor: end; visibility: inherit; font-family: &quot;Helvetica Neue&quot;, sans-serif; font-size: 12px; font-weight: 200;" x="0" y="27.396461486816378" dx="0em" dy="0.3em" fill="rgb(50, 49, 63)" stroke="none" stroke-width="1px">1</text><text style="text-anchor: end; visibility: hidden; font-family: &quot;Helvetica Neue&quot;, sans-serif; font-size: 12px; font-weight: 200;" x="0" y="13.698230743408203" dx="0em" dy="0.3em" fill="rgb(50, 49, 63)" stroke="none" stroke-width="1px">1.2</text><text style="text-anchor: end; visibility: hidden; font-family: &quot;Helvetica Neue&quot;, sans-serif; font-size: 12px; font-weight: 200;" x="0" y="0" dx="0em" dy="0.3em" fill="rgb(50, 49, 63)" stroke="none" stroke-width="1px">1.4</text></g><line x1="51.3120002746582" y1="0" x2="51.3120002746582" y2="178.07699966430664" fill="rgb(0, 0, 0)" stroke="rgb(204, 204, 204)" stroke-width="1px"></line></g></g><g transform="translate(51, 0)" clip-path="url(#clip_0)"><clipPath id="clip_0"><rect width="278" height="178"></rect></clipPath><g><g><g><line x1="0" y1="0" x2="0" y2="178.07699966430664" fill="rgb(0, 0, 0)" stroke="rgb(60, 60, 60)" stroke-width="1px" opacity="0.25"></line><line x1="25.3352727023038" y1="0" x2="25.3352727023038" y2="178.07699966430664" fill="rgb(0, 0, 0)" stroke="rgb(60, 60, 60)" stroke-width="1px" opacity="0.25"></line><line x1="50.6705454046076" y1="0" x2="50.6705454046076" y2="178.07699966430664" fill="rgb(0, 0, 0)" stroke="rgb(60, 60, 60)" stroke-width="1px" opacity="0.25"></line><line x1="76.00581810691139" y1="0" x2="76.00581810691139" y2="178.07699966430664" fill="rgb(0, 0, 0)" stroke="rgb(60, 60, 60)" stroke-width="1px" opacity="0.25"></line><line x1="101.3410908092152" y1="0" x2="101.3410908092152" y2="178.07699966430664" fill="rgb(0, 0, 0)" stroke="rgb(60, 60, 60)" stroke-width="1px" opacity="0.25"></line><line x1="126.676363511519" y1="0" x2="126.676363511519" y2="178.07699966430664" fill="rgb(0, 0, 0)" stroke="rgb(60, 60, 60)" stroke-width="1px" opacity="0.25"></line><line x1="152.01163621382278" y1="0" x2="152.01163621382278" y2="178.07699966430664" fill="rgb(0, 0, 0)" stroke="rgb(60, 60, 60)" stroke-width="1px" opacity="0.25"></line><line x1="177.3469089161266" y1="0" x2="177.3469089161266" y2="178.07699966430664" fill="rgb(0, 0, 0)" stroke="rgb(60, 60, 60)" stroke-width="1px" opacity="0.25"></line><line x1="202.6821816184304" y1="0" x2="202.6821816184304" y2="178.07699966430664" fill="rgb(0, 0, 0)" stroke="rgb(60, 60, 60)" stroke-width="1px" opacity="0.25"></line><line x1="228.0174543207342" y1="0" x2="228.0174543207342" y2="178.07699966430664" fill="rgb(0, 0, 0)" stroke="rgb(60, 60, 60)" stroke-width="1px" opacity="0.25"></line><line x1="253.352727023038" y1="0" x2="253.352727023038" y2="178.07699966430664" fill="rgb(0, 0, 0)" stroke="rgb(60, 60, 60)" stroke-width="1px" opacity="0.25"></line><line x1="278.6879997253418" y1="0" x2="278.6879997253418" y2="178.07699966430664" fill="rgb(0, 0, 0)" stroke="rgb(60, 60, 60)" stroke-width="1px" opacity="0.25"></line></g><g><line x1="0" y1="178.07699966430664" x2="278.6879997253418" y2="178.07699966430664" fill="rgb(0, 0, 0)" stroke="rgb(60, 60, 60)" stroke-width="1px" opacity="0.25"></line><line x1="0" y1="164.37876892089844" x2="278.6879997253418" y2="164.37876892089844" fill="rgb(0, 0, 0)" stroke="rgb(60, 60, 60)" stroke-width="1px" opacity="0.25"></line><line x1="0" y1="150.68053817749023" x2="278.6879997253418" y2="150.68053817749023" fill="rgb(0, 0, 0)" stroke="rgb(60, 60, 60)" stroke-width="1px" opacity="0.25"></line><line x1="0" y1="136.98230743408203" x2="278.6879997253418" y2="136.98230743408203" fill="rgb(0, 0, 0)" stroke="rgb(60, 60, 60)" stroke-width="1px" opacity="0.25"></line><line x1="0" y1="123.28407669067383" x2="278.6879997253418" y2="123.28407669067383" fill="rgb(0, 0, 0)" stroke="rgb(60, 60, 60)" stroke-width="1px" opacity="0.25"></line><line x1="0" y1="109.58584594726561" x2="278.6879997253418" y2="109.58584594726561" fill="rgb(0, 0, 0)" stroke="rgb(60, 60, 60)" stroke-width="1px" opacity="0.25"></line><line x1="0" y1="95.88761520385742" x2="278.6879997253418" y2="95.88761520385742" fill="rgb(0, 0, 0)" stroke="rgb(60, 60, 60)" stroke-width="1px" opacity="0.25"></line><line x1="0" y1="82.1893844604492" x2="278.6879997253418" y2="82.1893844604492" fill="rgb(0, 0, 0)" stroke="rgb(60, 60, 60)" stroke-width="1px" opacity="0.25"></line><line x1="0" y1="68.49115371704099" x2="278.6879997253418" y2="68.49115371704099" fill="rgb(0, 0, 0)" stroke="rgb(60, 60, 60)" stroke-width="1px" opacity="0.25"></line><line x1="0" y1="54.79292297363281" x2="278.6879997253418" y2="54.79292297363281" fill="rgb(0, 0, 0)" stroke="rgb(60, 60, 60)" stroke-width="1px" opacity="0.25"></line><line x1="0" y1="41.09469223022458" x2="278.6879997253418" y2="41.09469223022458" fill="rgb(0, 0, 0)" stroke="rgb(60, 60, 60)" stroke-width="1px" opacity="0.25"></line><line x1="0" y1="27.396461486816378" x2="278.6879997253418" y2="27.396461486816378" fill="rgb(0, 0, 0)" stroke="rgb(60, 60, 60)" stroke-width="1px" opacity="0.25"></line><line x1="0" y1="13.698230743408203" x2="278.6879997253418" y2="13.698230743408203" fill="rgb(0, 0, 0)" stroke="rgb(60, 60, 60)" stroke-width="1px" opacity="0.25"></line><line x1="0" y1="0" x2="278.6879997253418" y2="0" fill="rgb(0, 0, 0)" stroke="rgb(60, 60, 60)" stroke-width="1px" opacity="0.25"></line></g></g></g><g><g><line x1="0" y1="95.88761520385742" x2="278.6879997253418" y2="95.88761520385742" fill="rgb(0, 0, 0)" stroke="rgb(153, 153, 153)" stroke-width="1.5px"></line></g></g><g><g><line x1="25.3352727023038" y1="0" x2="25.3352727023038" y2="178.07699966430664" fill="rgb(0, 0, 0)" stroke="rgb(153, 153, 153)" stroke-width="1.5px"></line></g></g><g><g><g><g><g><path style="fill: none;" stroke="rgb(255, 112, 67)" stroke-width="2px" d="M25.34895374956304,90.45898192778847L25.358581153189917,90.45898192778847L25.363141502276335,90.45898192778847L25.38188960407604,90.45898192778847L25.38644995316245,90.45898192778847L25.396077356789327,90.45898192778847L25.40063770587574,90.45898192778847L27.413778474800804,90.45898192778847L27.41833882388722,90.45898192778847L27.422899172973633,90.45898192778847L27.427459522060047,90.45898192778847L27.43252657660051,90.45898192778847L27.437086925686923,90.45898192778847L27.45583502748663,90.45898192778847L27.460395376573043,90.45898192778847L29.50596529455705,90.45898192778847L29.511032349097512,90.45898192778847L29.52015304727034,90.45898192778847L29.53434079998363,90.45898192778847L29.538901149070043,90.45898192778847L29.548528552696922,90.45898192778847L29.553088901783337,90.45898192778847L29.55764925086975,90.45898192778847L31.57079001979481,90.45898192778847L31.57991071796764,90.45898192778847L31.589538121594515,90.45898192778847L31.594098470680933,90.45898192778847L31.60828622339422,90.45898192778847L31.612846572480635,90.45898192778847L31.61740692156705,90.45898192778847L31.621967270653464,90.45898192778847L31.627034325193925,90.45898192778847L33.64929579229182,90.45898192778847L33.65385614137823,90.45898192778847L33.66297683955106,90.45898192778847L33.672604243177936,90.45898192778847L33.67716459226435,90.45898192778847L33.681724941350765,90.45898192778847L33.68679199589123,90.45898192778847L33.70047304315047,90.45898192778847L33.70554009769093,90.45898192778847L33.710100446777346,90.45898192778847L33.71466079586376,90.45898192778847L35.73236191387523,90.45898192778847L35.74148261204806,90.45898192778847L35.74654966658852,90.45898192778847L35.76985811747465,90.45898192778847L35.77441846656105,90.45898192778847L35.77897881564747,90.45898192778847L35.78404587018793,90.45898192778847L35.78860621927435,90.45898192778847L35.79316656836077,90.45898192778847L37.825055439085524,90.45898192778847L37.86255164268494,90.45898192778847L37.871672340857764,90.45898192778847L39.884813109782826,90.45898192778847L39.889373458869244,90.45898192778847L39.922309313382236,90.45898192778847L39.93599036064148,90.45898192778847L39.945617764268356,90.45898192778847L39.95017811335477,90.45898192778847L41.96331888227983,90.45898192778847L41.98206698407954,90.45898192778847L41.986627333165956,90.45898192778847L41.99118768225236,90.45898192778847L42.00537543496566,90.45898192778847L42.00993578405207,90.45898192778847L42.02412353676536,90.45898192778847L44.05094535294966,90.45898192778847L44.06057275657653,90.45898192778847L44.06969345474937,90.45898192778847L44.07425380383578,90.45898192778847L44.07932085837625,90.45898192778847L44.08388120746265,90.45898192778847L44.08844155654907,90.45898192778847L44.09300190563548,90.45898192778847L44.10262930926236,90.45898192778847L46.120330427273835,90.45898192778847L46.13401147453308,90.45898192778847L46.139078529073544,90.45898192778847L46.143638878159955,90.45898192778847L46.152759576332784,90.45898192778847L46.157826630873245,90.45898192778847L46.16238697995966,90.45898192778847L46.17150767813249,90.45898192778847L46.176574732672954,90.45898192778847L46.185695430845776,90.45898192778847L48.198836199770845,90.45898192778847L48.20795689794367,90.45898192778847L48.212517247030085,90.45898192778847L48.226704999743376,90.45898192778847L48.24545310154308,90.45898192778847L48.250013450629496,90.45898192778847L48.25508050516995,90.45898192778847L48.25964085425637,90.45898192778847L50.27734197226784,90.45898192778847L50.28190232135426,90.45898192778847L50.29102301952709,90.45898192778847L50.30065042315396,90.45898192778847L50.30521077224038,90.45898192778847L50.30977112132679,90.45898192778847L50.31483817586726,90.45898192778847L50.32395887404009,90.45898192778847L50.32851922312649,90.45898192778847L52.36952879202409,90.45898192778847L52.3882768938238,90.45898192778847L52.4070249956235,90.45898192778847L52.41209205016396,90.45898192778847L52.41665239925038,90.45898192778847L54.443474215434684,90.45898192778847L54.4480345645211,90.45898192778847L54.453101619061556,90.45898192778847L54.457661968147974,90.45898192778847L54.47184972086126,90.45898192778847L54.476410069947676,90.45898192778847L54.49059782266097,90.45898192778847L54.49515817174738,90.45898192778847L56.51285928975885,90.45898192778847L56.51741963884527,90.45898192778847L56.52197998793168,90.45898192778847L56.53160739155856,90.45898192778847L56.53616774064498,90.45898192778847L56.540728089731395,90.45898192778847L56.5452884388178,90.45898192778847L56.55035549335827,90.45898192778847L56.55491584244468,90.45898192778847L56.56910359515797,90.45898192778847L56.57366394424439,90.45898192778847L58.59136506225586,90.45898192778847L58.61011316405556,90.45898192778847L58.61467351314197,90.45898192778847L58.62379421131481,90.45898192778847L58.63342161494169,90.45898192778847L58.6379819640281,90.45898192778847L60.669870834752864,90.45898192778847L60.68355188201211,90.45898192778847L60.688618936552565,90.45898192778847L60.69317928563898,90.45898192778847L60.697739634725394,90.45898192778847L60.70736703835227,90.45898192778847L60.72611514015198,90.45898192778847L60.73523583832481,90.45898192778847L62.752936956336285,90.45898192778847L62.7574973054227,90.45898192778847L62.76205765450911,90.45898192778847L62.780805756308816,90.45898192778847L62.78587281084928,90.45898192778847L62.794993509022106,90.45898192778847L62.80462091264898,90.45898192778847L62.81374161082181,90.45898192778847L64.84563048154658,90.45898192778847L64.8547511797194,90.45898192778847L64.85931152880582,90.45898192778847L64.8734992815191,90.45898192778847L64.88312668514598,90.45898192778847L64.8876870342324,90.45898192778847L64.89224738331882,90.45898192778847L66.90994850133029,90.45898192778847L66.9145088504167,90.45898192778847L66.91906919950311,90.45898192778847L66.93781730130283,90.45898192778847L66.94288435584328,90.45898192778847L66.95200505401611,90.45898192778847L66.9661928067294,90.45898192778847L68.9930146229137,90.45898192778847L68.99757497200012,90.45898192778847L69.00264202654058,90.45898192778847L69.007202375627,90.45898192778847L69.01632307379982,90.45898192778847L69.03051082651312,90.45898192778847L69.03507117559954,90.45898192778847L69.04013823013999,90.45898192778847L71.06239969723788,90.45898192778847L71.0669600463243,90.45898192778847L71.07608074449713,90.45898192778847L71.1044562499237,90.45898192778847L71.11357694809654,90.45898192778847L71.118644002637,90.45898192778847L71.12320435172342,90.45898192778847L71.12776470080983,90.45898192778847L73.14090546973489,90.45898192778847L73.15002616790771,90.45898192778847L73.15458651699413,90.45898192778847L73.17840167333429,90.45898192778847L73.18296202242071,90.45898192778847L73.19208272059353,90.45898192778847L73.20171012422041,90.45898192778847L73.20627047330683,90.45898192778847L75.2194112422319,90.45898192778847L75.22853194040471,90.45898192778847L75.23309228949113,90.45898192778847L75.23815934403159,90.45898192778847L75.242719693118,90.45898192778847L75.25184039129084,90.45898192778847L75.2569074458313,90.45898192778847L75.26602814400414,90.45898192778847L75.27058849309054,90.45898192778847L75.28021589671741,90.45898192778847L77.2979170147289,90.45898192778847L77.30703771290173,90.45898192778847L77.31159806198814,90.45898192778847L77.31666511652861,90.45898192778847L77.32578581470142,90.45898192778847L77.33034616378784,90.45898192778847L77.34453391650113,90.45898192778847L77.34909426558755,90.45898192778847L77.35416132012801,90.45898192778847L77.35872166921443,90.45898192778847L79.37642278722589,90.45898192778847L79.38098313631231,90.45898192778847L79.38554348539873,90.45898192778847L79.39010383448513,90.45898192778847L79.4139189908253,90.45898192778847L79.43266709262501,90.45898192778847L79.43722744171143,90.45898192778847L81.4549285597229,90.45898192778847L81.46860960698216,90.45898192778847L81.50154546149514,90.45898192778847L81.50610581058156,90.45898192778847L83.5334343322199,90.45898192778847L83.53799468130632,90.45898192778847L83.54255503039273,90.45898192778847L83.55218243401961,90.45898192778847L83.56130313219245,90.45898192778847L83.57093053581931,90.45898192778847L83.58005123399214,90.45898192778847L85.63068820651661,90.45898192778847L85.63524855560303,90.45898192778847L85.63980890468945,90.45898192778847L85.64436925377586,90.45898192778847L85.65399665740274,90.45898192778847L85.65855700648913,90.45898192778847L85.67274475920243,90.45898192778847L87.69500622630034,90.45898192778847L87.72287502627286,90.45898192778847L87.72794208081332,90.45898192778847L87.73250242989974,90.45898192778847L87.73706277898616,90.45898192778847L87.74162312807256,90.45898192778847L87.75125053169944,90.45898192778847L87.75581088078586,90.45898192778847L89.76895164971091,90.45898192778847L89.77807234788375,90.45898192778847L89.78263269697015,90.45898192778847L89.78769975151063,90.45898192778847L89.79682044968345,90.45898192778847L89.80644785331032,90.45898192778847L89.81100820239674,90.45898192778847L89.82975630419645,90.45898192778847L91.85657812038075,90.45898192778847L91.87076587309404,90.45898192778847L91.87532622218045,90.45898192778847L91.88495362580733,90.45898192778847L91.88951397489375,90.45898192778847L91.89863467306658,90.45898192778847L91.90826207669345,90.45898192778847L93.93052354379134,90.45898192778847L93.96345939830434,90.45898192778847L93.97714044556358,90.45898192778847L93.98220750010404,90.45898192778847L96.00446896720193,90.45898192778847L96.00902931628833,90.45898192778847L96.01358966537475,90.45898192778847L96.02321706900163,90.45898192778847L96.02777741808805,90.45898192778847L96.03233776717447,90.45898192778847L96.03689811626089,90.45898192778847L96.04652551988775,90.45898192778847L96.06983397077387,90.45898192778847L98.08297473969894,90.45898192778847L98.11084353967146,90.45898192778847L98.12047094329834,90.45898192778847L98.12503129238476,90.45898192778847L98.12959164147118,90.45898192778847L98.13415199055758,90.45898192778847L98.13921904509805,90.45898192778847L98.14377939418445,90.45898192778847L98.14833974327087,90.45898192778847L100.16148051219594,90.45898192778847L100.16604086128235,90.45898192778847L100.17060121036876,90.45898192778847L100.18022861399564,90.45898192778847L100.19390966125488,90.45898192778847L100.19897671579534,90.45898192778847L100.20353706488176,90.45898192778847L100.21265776305458,90.45898192778847L100.21772481759506,90.45898192778847L102.23998628469293,90.45898192778847L102.24910698286577,90.45898192778847L102.25873438649265,90.45898192778847L102.26329473557905,90.45898192778847L102.27748248829235,90.45898192778847L102.28204283737877,90.45898192778847L102.28660318646517,90.45898192778847L102.29623059009205,90.45898192778847L102.30079093917847,90.45898192778847L102.30535128826487,90.45898192778847L104.32305240627636,90.45898192778847L104.3321731044492,90.45898192778847L104.33724015898964,90.45898192778847L104.35092120624888,90.45898192778847L104.35598826078935,90.45898192778847L104.36054860987576,90.45898192778847L104.36510895896218,90.45898192778847L104.3696693080486,90.45898192778847L104.37473636258906,90.45898192778847L104.37929671167548,90.45898192778847L104.38385706076188,90.45898192778847L106.40155817877336,90.45898192778847L106.40611852785977,90.45898192778847L106.42486662965949,90.45898192778847L106.4294269787459,90.45898192778847L106.43449403328636,90.45898192778847L106.44361473145918,90.45898192778847L106.4481750805456,90.45898192778847L106.45324213508606,90.45898192778847L106.45780248417248,90.45898192778847L108.47550360218395,90.45898192778847L108.48462430035677,90.45898192778847L108.48918464944319,90.45898192778847L108.49425170398365,90.45898192778847L108.50337240215649,90.45898192778847L108.51299980578337,90.45898192778847L108.52212050395619,90.45898192778847L108.5266808530426,90.45898192778847L108.53174790758305,90.45898192778847L110.55400937468096,90.45898192778847L110.57275747648065,90.45898192778847L110.57731782556706,90.45898192778847L110.5864385237399,90.45898192778847L110.59150557828036,90.45898192778847L110.6006262764532,90.45898192778847L110.6193743782529,90.45898192778847L112.63251514717795,90.45898192778847L112.64163584535079,90.45898192778847L112.65126324897767,90.45898192778847L112.67001135077736,90.45898192778847L112.68369239803661,90.45898192778847L112.68875945257707,90.45898192778847L112.6978801507499,90.45898192778847L114.71102091967495,90.45898192778847L114.71558126876137,90.45898192778847L114.72014161784779,90.45898192778847L114.7247019669342,90.45898192778847L114.72976902147467,90.45898192778847L114.73432937056108,90.45898192778847L114.73888971964749,90.45898192778847L114.7434500687339,90.45898192778847L114.76219817053362,90.45898192778847L114.76726522507407,90.45898192778847L114.7763859232469,90.45898192778847L116.79408704125838,90.45898192778847L116.80827479397166,90.45898192778847L116.8173954921445,90.45898192778847L116.8219558412309,90.45898192778847L116.82702289577138,90.45898192778847L116.84070394303062,90.45898192778847L116.84577099757108,90.45898192778847L116.8503313466575,90.45898192778847L116.85489169574392,90.45898192778847L118.86803246466897,90.45898192778847L118.8771531628418,90.45898192778847L118.88171351192821,90.45898192778847L118.88678056646867,90.45898192778847L118.89590126464151,90.45898192778847L118.90046161372791,90.45898192778847L118.90552866826839,90.45898192778847L118.91008901735479,90.45898192778847L118.9146493664412,90.45898192778847L118.91920971552761,90.45898192778847L118.9288371191545,90.45898192778847L118.93339746824091,90.45898192778847L120.9556589353388,90.45898192778847L120.9744070371385,90.45898192778847L120.9885947898518,90.45898192778847L120.9931551389382,90.45898192778847L120.99771548802462,90.45898192778847L121.0027825425651,90.45898192778847L121.00734289165149,90.45898192778847L121.01190324073791,90.45898192778847L123.02504400966298,90.45898192778847L123.0296043587494,90.45898192778847L123.03872505692222,90.45898192778847L123.04379211146268,90.45898192778847L123.0483524605491,90.45898192778847L123.0671005623488,90.45898192778847L123.0858486641485,90.45898192778847L123.09040901323492,90.45898192778847L125.10811013124639,90.45898192778847L125.11267048033281,90.45898192778847L125.11723082941921,90.45898192778847L125.12229788395969,90.45898192778847L125.1268582330461,90.45898192778847L125.13141858213251,90.45898192778847L125.14560633484581,90.45898192778847L125.15016668393223,90.45898192778847L125.15472703301864,90.45898192778847L127.1866159037434,90.45898192778847L127.19573660191624,90.45898192778847L127.20080365645669,90.45898192778847L127.2053640055431,90.45898192778847L127.2099243546295,90.45898192778847L127.21955175825639,90.45898192778847L127.23323280551564,90.45898192778847L127.2382998600561,90.45898192778847L129.260561327154,90.45898192778847L129.2651216762404,90.45898192778847L129.2696820253268,90.45898192778847L129.27424237441323,90.45898192778847L129.2793094289537,90.45898192778847L129.28843012712653,90.45898192778847L129.3026178798398,90.45898192778847L129.30717822892623,90.45898192778847L129.3168056325531,90.45898192778847L131.339067099651,90.45898192778847L131.3436274487374,90.45898192778847L131.3481877978238,90.45898192778847L131.3578152014507,90.45898192778847L131.3623755505371,90.45898192778847L131.36693589962354,90.45898192778847L131.37149624870995,90.45898192778847L131.3765633032504,90.45898192778847L131.3811236523368,90.45898192778847L131.38568400142321,90.45898192778847L131.39024435050965,90.45898192778847L131.40443210322294,90.45898192778847L133.41757287214799,90.45898192778847L133.4363209739477,90.45898192778847L133.44088132303412,90.45898192778847L133.45000202120696,90.45898192778847L133.45962942483382,90.45898192778847L133.46875012300663,90.45898192778847L133.47381717754712,90.45898192778847L133.47837752663352,90.45898192778847L133.48293787571993,90.45898192778847L135.496078644645,90.45898192778847L135.50063899373143,90.45898192778847L135.50975969190424,90.45898192778847L135.5193870955311,90.45898192778847L135.52850779370394,90.45898192778847L135.54269554641724,90.45898192778847L135.54725589550367,90.45898192778847L135.55232295004413,90.45898192778847L135.55688329913053,90.45898192778847L135.56144364821694,90.45898192778847L137.5791447662284,90.45898192778847L137.58826546440125,90.45898192778847L137.59789286802814,90.45898192778847L137.60245321711454,90.45898192778847L137.6120806207414,90.45898192778847L137.62576166800065,90.45898192778847L137.63538907162754,90.45898192778847L137.63994942071395,90.45898192778847L139.65309018963902,90.45898192778847L139.66677123689826,90.45898192778847L139.68095898961155,90.45898192778847L139.68551933869796,90.45898192778847L139.69514674232485,90.45898192778847L139.70426744049763,90.45898192778847L139.71389484412452,90.45898192778847L139.71845519321093,90.45898192778847L141.74527700939527,90.45898192778847L141.7549044130221,90.45898192778847L141.75946476210854,90.45898192778847L141.76402511119494,90.45898192778847L141.7690921657354,90.45898192778847L141.77821286390824,90.45898192778847L141.78277321299467,90.45898192778847L141.78784026753513,90.45898192778847L141.79240061662153,90.45898192778847L143.81922243280584,90.45898192778847L143.8288498364327,90.45898192778847L143.83341018551914,90.45898192778847L143.83797053460555,90.45898192778847L143.84253088369195,90.45898192778847L143.8475979382324,90.45898192778847L143.86634604003214,90.45898192778847L143.87090638911855,90.45898192778847L143.87546673820498,90.45898192778847L145.88860750713002,90.45898192778847L145.90228855438926,90.45898192778847L145.90735560892972,90.45898192778847L145.91191595801615,90.45898192778847L145.91647630710256,90.45898192778847L145.92103665618896,90.45898192778847L145.93066405981585,90.45898192778847L145.93522440890226,90.45898192778847L145.9397847579887,90.45898192778847L145.94485181252912,90.45898192778847L145.95397251070196,90.45898192778847L147.97623397779986,90.45898192778847L147.9858613814267,90.45898192778847L147.99042173051316,90.45898192778847L147.99954242868597,90.45898192778847L148.00460948322643,90.45898192778847L148.00916983231284,90.45898192778847L148.01829053048567,90.45898192778847L148.02335758502613,90.45898192778847L148.03247828319897,90.45898192778847L150.045619052124,90.45898192778847L150.06892750301014,90.45898192778847L150.07804820118298,90.45898192778847L150.08311525572344,90.45898192778847L150.08767560480985,90.45898192778847L150.09223595389625,90.45898192778847L150.09679630298268,90.45898192778847L150.10186335752314,90.45898192778847L150.10642370660955,90.45898192778847L152.12412482462102,90.45898192778847L152.12868517370745,90.45898192778847L152.13324552279386,90.45898192778847L152.14743327550715,90.45898192778847L152.15199362459356,90.45898192778847L152.15655397368,90.45898192778847L152.16162102822045,90.45898192778847L152.1707417263933,90.45898192778847L154.20719094620446,90.45898192778847L154.21175129529087,90.45898192778847L154.21631164437727,90.45898192778847L154.22593904800416,90.45898192778847L154.24468714980384,90.45898192778847L154.25887490251714,90.45898192778847L156.281136369615,90.45898192778847L156.29481741687428,90.45898192778847L156.29988447141474,90.45898192778847L156.30900516958755,90.45898192778847L156.31356551867398,90.45898192778847L156.31863257321444,90.45898192778847L156.32319292230085,90.45898192778847L156.33231362047368,90.45898192778847L156.33738067501415,90.45898192778847L156.34194102410058,90.45898192778847L156.34650137318698,90.45898192778847L158.35964214211202,90.45898192778847L158.36420249119845,90.45898192778847L158.36876284028486,90.45898192778847L158.3733231893713,90.45898192778847L158.37839024391175,90.45898192778847L158.3875109420846,90.45898192778847L158.392071291171,90.45898192778847L158.40169869479786,90.45898192778847L158.4108193929707,90.45898192778847L158.41588644751116,90.45898192778847L158.42500714568396,90.45898192778847L160.44270826369547,90.45898192778847L160.44726861278187,90.45898192778847L160.4518289618683,90.45898192778847L160.45689601640876,90.45898192778847L160.470577063668,90.45898192778847L160.47564411820844,90.45898192778847L160.48020446729487,90.45898192778847L160.48476481638127,90.45898192778847L160.49439222000814,90.45898192778847L160.49895256909457,90.45898192778847L162.54452248707858,90.45898192778847L162.55871023979188,90.45898192778847L162.56327058887828,90.45898192778847L162.57289799250518,90.45898192778847L162.57745834159158,90.45898192778847L162.58201869067798,90.45898192778847L164.59515945960305,90.45898192778847L164.6088405068623,90.45898192778847L164.61390756140275,90.45898192778847L164.6230282595756,90.45898192778847L164.627588608662,90.45898192778847L164.63265566320246,90.45898192778847L164.6372160122889,90.45898192778847L164.6514037650022,90.45898192778847L166.6969736829862,90.45898192778847L166.7015340320726,90.45898192778847L166.706094381159,90.45898192778847L166.71572178478587,90.45898192778847L166.7248424829587,90.45898192778847L166.72990953749917,90.45898192778847L166.73446988658557,90.45898192778847L168.75217100459707,90.45898192778847L168.75673135368345,90.45898192778847L168.7612917027699,90.45898192778847L168.76585205185629,90.45898192778847L168.77091910639675,90.45898192778847L168.784600153656,90.45898192778847L168.78966720819648,90.45898192778847L168.79422755728288,90.45898192778847L168.81753600816901,90.45898192778847L170.83523712618046,90.45898192778847L170.8397974752669,90.45898192778847L170.84942487889376,90.45898192778847L170.8539852279802,90.45898192778847L170.863105926153,90.45898192778847L170.8914814315796,90.45898192778847L170.89604178066602,90.45898192778847L172.91374289867747,90.45898192778847L172.9183032477639,90.45898192778847L172.9228635968503,90.45898192778847L172.94161169865004,90.45898192778847L172.9466787531905,90.45898192778847L172.95123910227687,90.45898192778847L172.95579945136328,90.45898192778847L172.9603598004497,90.45898192778847L172.96998720407657,90.45898192778847L174.98768832208808,90.45898192778847L174.9922486711745,90.45898192778847L174.9968090202609,90.45898192778847L175.0013693693473,90.45898192778847L175.00643642388775,90.45898192778847L175.01099677297418,90.45898192778847L175.01555712206059,90.45898192778847L175.03430522386031,90.45898192778847L175.04393262748718,90.45898192778847L175.04849297657358,90.45898192778847L177.0849421963848,90.45898192778847L177.0940628945576,90.45898192778847L177.1036902981845,90.45898192778847L177.1082506472709,90.45898192778847L177.11281099635733,90.45898192778847L177.1224383999842,90.45898192778847L179.14469986708207,90.45898192778847L179.1492602161685,90.45898192778847L179.1634479688818,90.45898192778847L179.1725686670546,90.45898192778847L179.1867564197679,90.45898192778847L179.20094417248117,90.45898192778847L179.2055045215676,90.45898192778847L181.22320563957908,90.45898192778847L181.2277659886655,90.45898192778847L181.2323263377519,90.45898192778847L181.23688668683835,90.45898192778847L181.24195374137878,90.45898192778847L181.24651409046518,90.45898192778847L181.25107443955162,90.45898192778847L181.26070184317848,90.45898192778847L181.26526219226488,90.45898192778847L181.26982254135132,90.45898192778847L181.28401029406461,90.45898192778847L181.28857064315102,90.45898192778847L183.3062717611625,90.45898192778847L183.34376796476192,90.45898192778847L183.34832831384833,90.45898192778847L183.35288866293473,90.45898192778847L183.3579557174752,90.45898192778847L183.36251606656162,90.45898192778847L185.3802171845731,90.45898192778847L185.3847775336595,90.45898192778847L185.3893378827459,90.45898192778847L185.39389823183234,90.45898192778847L185.4035256354592,90.45898192778847L185.40808598454564,90.45898192778847L185.41264633363204,90.45898192778847L185.42227373725893,90.45898192778847L185.42683408634534,90.45898192778847L185.4364614899722,90.45898192778847L187.49115210612902,90.45898192778847L187.50533985884232,90.45898192778847L187.50990020792875,90.45898192778847L187.5149672624692,90.45898192778847L187.51952761155562,90.45898192778847L189.5372287295671,90.45898192778847L189.5417890786535,90.45898192778847L189.54634942773993,90.45898192778847L189.5559768313668,90.45898192778847L189.56965787862603,90.45898192778847L189.5747249331665,90.45898192778847L189.57928528225293,90.45898192778847L189.58384563133933,90.45898192778847L189.58840598042576,90.45898192778847L189.59347303496622,90.45898192778847L189.59803338405263,90.45898192778847L189.60259373313903,90.45898192778847L191.6202948511505,90.45898192778847L191.62941554932334,90.45898192778847L191.6344826038638,90.45898192778847L191.64360330203664,90.45898192778847L191.6532307056635,90.45898192778847L191.66235140383634,90.45898192778847L191.66691175292277,90.45898192778847L191.6719788074632,90.45898192778847L191.6765391565496,90.45898192778847L191.68109950563604,90.45898192778847L193.6942402745611,90.45898192778847L193.7129883763608,90.45898192778847L193.73629682724692,90.45898192778847L193.74085717633332,90.45898192778847L193.75048457996022,90.45898192778847L193.75504492904662,90.45898192778847L193.75960527813305,90.45898192778847L195.78186674523093,90.45898192778847L195.78642709431733,90.45898192778847L195.7914941488578,90.45898192778847L195.80061484703063,90.45898192778847L195.81024225065752,90.45898192778847L195.81480259974393,90.45898192778847L195.82899035245723,90.45898192778847L195.83811105063006,90.45898192778847L197.85581216864153,90.45898192778847L197.86037251772794,90.45898192778847L197.8699999213548,90.45898192778847L197.87456027044124,90.45898192778847L197.88874802315453,90.45898192778847L197.89330837224094,90.45898192778847L197.89786872132737,90.45898192778847L197.90749612495424,90.45898192778847L197.9120564740406,90.45898192778847L197.91661682312704,90.45898192778847L199.93431794113854,90.45898192778847L199.93887829022495,90.45898192778847L199.94343863931135,90.45898192778847L199.94850569385184,90.45898192778847L199.95306604293825,90.45898192778847L199.95762639202465,90.45898192778847L199.96725379565152,90.45898192778847L199.98093484291076,90.45898192778847L199.98600189745122,90.45898192778847L199.99512259562405,90.45898192778847L202.02194441180836,90.45898192778847L202.02701146634882,90.45898192778847L202.03613216452163,90.45898192778847L202.04069251360806,90.45898192778847L202.05488026632136,90.45898192778847L202.06450766994823,90.45898192778847L202.07362836812106,90.45898192778847L204.09132948613254,90.45898192778847L204.09588983521894,90.45898192778847L204.10045018430537,90.45898192778847L204.10551723884583,90.45898192778847L204.11463793701867,90.45898192778847L204.12882568973194,90.45898192778847L204.13338603881837,90.45898192778847L204.14301344244524,90.45898192778847L204.14757379153167,90.45898192778847L204.15213414061807,90.45898192778847L206.16983525862955,90.45898192778847L206.18858336042925,90.45898192778847L206.19770405860208,90.45898192778847L206.20277111314252,90.45898192778847L206.21189181131535,90.45898192778847L206.21645216040176,90.45898192778847L206.22151921494222,90.45898192778847L206.22607956402865,90.45898192778847L206.23063991311506,90.45898192778847L208.24378068204015,90.45898192778847L208.26252878383983,90.45898192778847L208.26708913292623,90.45898192778847L208.27164948201266,90.45898192778847L208.27620983109907,90.45898192778847L208.28127688563953,90.45898192778847L208.29039758381236,90.45898192778847L208.30002498743926,90.45898192778847L208.30458533652566,90.45898192778847L208.30914568561207,90.45898192778847L210.32228645453714,90.45898192778847L210.32684680362354,90.45898192778847L210.33140715270994,90.45898192778847L210.34559490542324,90.45898192778847L210.35978265813654,90.45898192778847L210.36890335630937,90.45898192778847L210.37853075993627,90.45898192778847L210.38309110902267,90.45898192778847L210.38765145810908,90.45898192778847L212.40079222703415,90.45898192778847L212.40535257612055,90.45898192778847L212.42410067792025,90.45898192778847L212.44284877971995,90.45898192778847L212.4519694778928,90.45898192778847L212.45703653243325,90.45898192778847L212.46159688151965,90.45898192778847L214.47929799953116,90.45898192778847L214.48385834861756,90.45898192778847L214.488418697704,90.45898192778847L214.50260645041726,90.45898192778847L214.51679420313053,90.45898192778847L214.52135455221696,90.45898192778847L214.52591490130337,90.45898192778847L214.53554230493026,90.45898192778847L214.54010265401666,90.45898192778847L214.5446630031031,90.45898192778847L216.56236412111454,90.45898192778847L216.56692447020097,90.45898192778847L216.57655187382784,90.45898192778847L216.58111222291427,90.45898192778847L216.58567257200068,90.45898192778847L216.59023292108708,90.45898192778847L216.59529997562757,90.45898192778847L216.59986032471397,90.45898192778847L216.6089810228868,90.45898192778847L216.61404807742727,90.45898192778847L218.63630954452515,90.45898192778847L218.65961799541128,90.45898192778847L218.67836609721098,90.45898192778847L220.723936015195,90.45898192778847L220.7284963642814,90.45898192778847L220.73356341882183,90.45898192778847L220.73812376790826,90.45898192778847L220.74268411699467,90.45898192778847L220.75687186970796,90.45898192778847L220.7614322187944,90.45898192778847L220.77105962242126,90.45898192778847L220.77561997150767,90.45898192778847L222.79332108951914,90.45898192778847L222.79788143860557,90.45898192778847L222.80244178769198,90.45898192778847L222.80700213677838,90.45898192778847L222.81662954040527,90.45898192778847L222.8257502385781,90.45898192778847L222.83081729311857,90.45898192778847L222.83537764220497,90.45898192778847L222.8444983403778,90.45898192778847L222.84956539491827,90.45898192778847L222.8541257440047,90.45898192778847L224.87182686201615,90.45898192778847L224.880947560189,90.45898192778847L224.90932306561558,90.45898192778847L224.91844376378842,90.45898192778847L224.9371918655881,90.45898192778847L226.95033263451316,90.45898192778847L226.9548929835996,90.45898192778847L226.97364108539927,90.45898192778847L226.9969495362854,90.45898192778847L227.0015098853718,90.45898192778847L229.02883840701014,90.45898192778847L229.0425194542694,90.45898192778847L229.04758650880987,90.45898192778847L229.0612675560691,90.45898192778847L229.06633461060957,90.45898192778847L229.0754553087824,90.45898192778847L229.0800156578688,90.45898192778847L229.08508271240927,90.45898192778847L229.0896430614957,90.45898192778847L231.10734417950718,90.45898192778847L231.11190452859358,90.45898192778847L231.12609228130688,90.45898192778847L231.13065263039329,90.45898192778847L231.13521297947972,90.45898192778847L231.13977332856612,90.45898192778847L231.14484038310658,90.45898192778847L231.16358848490626,90.45898192778847L233.1858499520042,90.45898192778847L233.1904103010906,90.45898192778847L233.194970650177,90.45898192778847L233.19953099926343,90.45898192778847L233.20915840289027,90.45898192778847L233.21371875197673,90.45898192778847L233.2182791010631,90.45898192778847L233.22334615560356,90.45898192778847L233.22790650469,90.45898192778847L233.2324668537764,90.45898192778847L233.2370272028628,90.45898192778847L233.2420942574033,90.45898192778847L233.2466546064897,90.45898192778847L235.26891607358758,90.45898192778847L235.2780367717604,90.45898192778847L235.30185192810058,90.45898192778847L235.306412277187,90.45898192778847L235.3109726262734,90.45898192778847L235.3206000299003,90.45898192778847L237.3474218460846,90.45898192778847L237.36160959879788,90.45898192778847L237.37073029697072,90.45898192778847L237.38947839877042,90.45898192778847L237.39403874785685,90.45898192778847L237.39910580239732,90.45898192778847L237.4036661514837,90.45898192778847L239.4259276185816,90.45898192778847L239.43504831675443,90.45898192778847L239.4401153712949,90.45898192778847L239.44467572038133,90.45898192778847L239.44923606946773,90.45898192778847L239.4537964185541,90.45898192778847L239.463423822181,90.45898192778847L239.4679841712674,90.45898192778847L239.4821719239807,90.45898192778847L239.48673227306713,90.45898192778847L241.50443339107858,90.45898192778847L241.508993740165,90.45898192778847L241.51355408925141,90.45898192778847L241.5373692455916,90.45898192778847L241.541929594678,90.45898192778847L241.5464899437644,90.45898192778847L243.59205986174842,90.45898192778847L243.5971269162889,90.45898192778847L243.60168726537532,90.45898192778847L243.61080796354815,90.45898192778847L243.61587501808862,90.45898192778847L243.62043536717502,90.45898192778847L243.62499571626145,90.45898192778847L243.62955606534786,90.45898192778847L243.63462311988832,90.45898192778847L243.63918346897472,90.45898192778847L245.6568845869862,90.45898192778847L245.66600528515903,90.45898192778847L245.67056563424543,90.45898192778847L245.67563268878592,90.45898192778847L245.68475338695873,90.45898192778847L245.68931373604516,90.45898192778847L245.698941139672,90.45898192778847L245.70806183784484,90.45898192778847L245.7131288923853,90.45898192778847L245.72224959055814,90.45898192778847L247.73539035948318,90.45898192778847L247.7541384612829,90.45898192778847L247.7586988103693,90.45898192778847L247.7632591594557,90.45898192778847L247.76781950854215,90.45898192778847L247.7728865630826,90.45898192778847L247.777446912169,90.45898192778847L247.78200726125544,90.45898192778847L247.7916346648823,90.45898192778847L247.79619501396874,90.45898192778847L247.80075536305515,90.45898192778847L249.8138961319802,90.45898192778847L249.83264423377992,90.45898192778847L249.84176493195272,90.45898192778847L249.84632528103916,90.45898192778847L249.85139233557962,90.45898192778847L249.86051303375245,90.45898192778847L249.87014043737932,90.45898192778847L249.87926113555216,90.45898192778847L251.89696225356363,90.45898192778847L251.90152260265003,90.45898192778847L251.90608295173647,90.45898192778847L251.91571035536333,90.45898192778847L251.92027070444976,90.45898192778847L251.92483105353617,90.45898192778847L251.9298981080766,90.45898192778847L251.934458457163,90.45898192778847L251.93901880624944,90.45898192778847L251.94357915533584,90.45898192778847L251.9486462098763,90.45898192778847L251.95320655896273,90.45898192778847L253.97546802606064,90.45898192778847L253.98002837514701,90.45898192778847L253.9896557787739,90.45898192778847L253.9942161278603,90.45898192778847L254.0084038805736,90.45898192778847L254.01296422966004,90.45898192778847L254.01752457874645,90.45898192778847L254.02208492783285,90.45898192778847L254.0271519823733,90.45898192778847L254.03627268054615,90.45898192778847L256.06309449673046,90.45898192778847L256.0727219003573,90.45898192778847L256.0772822494438,90.45898192778847L256.08184259853016,90.45898192778847L256.0960303512434,90.45898192778847L256.10059070032986,90.45898192778847L256.11021810395675,90.45898192778847L256.11477845304313,90.45898192778847L258.1279192219682,90.45898192778847L258.13703992014104,90.45898192778847L258.14160026922747,90.45898192778847L258.14666732376793,90.45898192778847L258.1512276728543,90.45898192778847L258.16034837102717,90.45898192778847L258.16997577465406,90.45898192778847L258.17909647282687,90.45898192778847L258.18416352736733,90.45898192778847L258.19328422554014,90.45898192778847L260.20642499446524,90.45898192778847L260.2109853435516,90.45898192778847L260.21554569263805,90.45898192778847L260.22517309626494,90.45898192778847L260.2388541435242,90.45898192778847L260.24392119806464,90.45898192778847L260.2484815471511,90.45898192778847L260.25304189623745,90.45898192778847L260.2576022453239,90.45898192778847L260.2672296489507,90.45898192778847L260.2717899980372,90.45898192778847L262.28493076696225,90.45898192778847L262.2894911160486,90.45898192778847L262.29405146513506,90.45898192778847L262.2986118142215,90.45898192778847L262.30367886876195,90.45898192778847L262.3082392178484,90.45898192778847L262.31735991602113,90.45898192778847L262.32242697056165,90.45898192778847L262.326987319648,90.45898192778847L262.3457354214477,90.45898192778847L264.36799688854563,90.45898192778847L264.37255723763207,90.45898192778847L264.37711758671844,90.45898192778847L264.39130533943177,90.45898192778847L264.3958656885182,90.45898192778847L264.40093274305866,90.45898192778847L264.40549309214504,90.45898192778847L264.41005344123147,90.45898192778847L264.41968084485836,90.45898192778847L264.42424119394474,90.45898192778847L264.42880154303117,90.45898192778847L266.4510630101291,90.45898192778847L266.45562335921545,90.45898192778847L266.46525076284235,90.45898192778847L266.4698111119288,90.45898192778847L266.4743714610152,90.45898192778847L266.4885592137285,90.45898192778847L266.4981866173554,90.45898192778847L266.50274696644175,90.45898192778847L266.5073073155282,90.45898192778847L268.5204480844532,90.45898192778847L268.52500843353965,90.45898192778847L268.5295687826261,90.45898192778847" fill="none"></path></g></g></g></g><g opacity="0.2"><g><g><g><path style="fill: none;" stroke="rgb(255, 112, 67)" stroke-width="2px" d="M25.34895374956304,90.45898192778847L25.358581153189917,90.45898192778847L25.363141502276335,90.45898192778847L25.38188960407604,90.45898192778847L25.38644995316245,90.45898192778847L25.396077356789327,90.45898192778847L25.40063770587574,90.45898192778847L27.413778474800804,90.45898192778847L27.41833882388722,90.45898192778847L27.422899172973633,90.45898192778847L27.427459522060047,90.45898192778847L27.43252657660051,90.45898192778847L27.437086925686923,90.45898192778847L27.45583502748663,90.45898192778847L27.460395376573043,90.45898192778847L29.50596529455705,90.45898192778847L29.511032349097512,90.45898192778847L29.52015304727034,90.45898192778847L29.53434079998363,90.45898192778847L29.538901149070043,90.45898192778847L29.548528552696922,90.45898192778847L29.553088901783337,90.45898192778847L29.55764925086975,90.45898192778847L31.57079001979481,90.45898192778847L31.57991071796764,90.45898192778847L31.589538121594515,90.45898192778847L31.594098470680933,90.45898192778847L31.60828622339422,90.45898192778847L31.612846572480635,90.45898192778847L31.61740692156705,90.45898192778847L31.621967270653464,90.45898192778847L31.627034325193925,90.45898192778847L33.64929579229182,90.45898192778847L33.65385614137823,90.45898192778847L33.66297683955106,90.45898192778847L33.672604243177936,90.45898192778847L33.67716459226435,90.45898192778847L33.681724941350765,90.45898192778847L33.68679199589123,90.45898192778847L33.70047304315047,90.45898192778847L33.70554009769093,90.45898192778847L33.710100446777346,90.45898192778847L33.71466079586376,90.45898192778847L35.73236191387523,90.45898192778847L35.74148261204806,90.45898192778847L35.74654966658852,90.45898192778847L35.76985811747465,90.45898192778847L35.77441846656105,90.45898192778847L35.77897881564747,90.45898192778847L35.78404587018793,90.45898192778847L35.78860621927435,90.45898192778847L35.79316656836077,90.45898192778847L37.825055439085524,90.45898192778847L37.86255164268494,90.45898192778847L37.871672340857764,90.45898192778847L39.884813109782826,90.45898192778847L39.889373458869244,90.45898192778847L39.922309313382236,90.45898192778847L39.93599036064148,90.45898192778847L39.945617764268356,90.45898192778847L39.95017811335477,90.45898192778847L41.96331888227983,90.45898192778847L41.98206698407954,90.45898192778847L41.986627333165956,90.45898192778847L41.99118768225236,90.45898192778847L42.00537543496566,90.45898192778847L42.00993578405207,90.45898192778847L42.02412353676536,90.45898192778847L44.05094535294966,90.45898192778847L44.06057275657653,90.45898192778847L44.06969345474937,90.45898192778847L44.07425380383578,90.45898192778847L44.07932085837625,90.45898192778847L44.08388120746265,90.45898192778847L44.08844155654907,90.45898192778847L44.09300190563548,90.45898192778847L44.10262930926236,90.45898192778847L46.120330427273835,90.45898192778847L46.13401147453308,90.45898192778847L46.139078529073544,90.45898192778847L46.143638878159955,90.45898192778847L46.152759576332784,90.45898192778847L46.157826630873245,90.45898192778847L46.16238697995966,90.45898192778847L46.17150767813249,90.45898192778847L46.176574732672954,90.45898192778847L46.185695430845776,90.45898192778847L48.198836199770845,90.45898192778847L48.20795689794367,90.45898192778847L48.212517247030085,90.45898192778847L48.226704999743376,90.45898192778847L48.24545310154308,90.45898192778847L48.250013450629496,90.45898192778847L48.25508050516995,90.45898192778847L48.25964085425637,90.45898192778847L50.27734197226784,90.45898192778847L50.28190232135426,90.45898192778847L50.29102301952709,90.45898192778847L50.30065042315396,90.45898192778847L50.30521077224038,90.45898192778847L50.30977112132679,90.45898192778847L50.31483817586726,90.45898192778847L50.32395887404009,90.45898192778847L50.32851922312649,90.45898192778847L52.36952879202409,90.45898192778847L52.3882768938238,90.45898192778847L52.4070249956235,90.45898192778847L52.41209205016396,90.45898192778847L52.41665239925038,90.45898192778847L54.443474215434684,90.45898192778847L54.4480345645211,90.45898192778847L54.453101619061556,90.45898192778847L54.457661968147974,90.45898192778847L54.47184972086126,90.45898192778847L54.476410069947676,90.45898192778847L54.49059782266097,90.45898192778847L54.49515817174738,90.45898192778847L56.51285928975885,90.45898192778847L56.51741963884527,90.45898192778847L56.52197998793168,90.45898192778847L56.53160739155856,90.45898192778847L56.53616774064498,90.45898192778847L56.540728089731395,90.45898192778847L56.5452884388178,90.45898192778847L56.55035549335827,90.45898192778847L56.55491584244468,90.45898192778847L56.56910359515797,90.45898192778847L56.57366394424439,90.45898192778847L58.59136506225586,90.45898192778847L58.61011316405556,90.45898192778847L58.61467351314197,90.45898192778847L58.62379421131481,90.45898192778847L58.63342161494169,90.45898192778847L58.6379819640281,90.45898192778847L60.669870834752864,90.45898192778847L60.68355188201211,90.45898192778847L60.688618936552565,90.45898192778847L60.69317928563898,90.45898192778847L60.697739634725394,90.45898192778847L60.70736703835227,90.45898192778847L60.72611514015198,90.45898192778847L60.73523583832481,90.45898192778847L62.752936956336285,90.45898192778847L62.7574973054227,90.45898192778847L62.76205765450911,90.45898192778847L62.780805756308816,90.45898192778847L62.78587281084928,90.45898192778847L62.794993509022106,90.45898192778847L62.80462091264898,90.45898192778847L62.81374161082181,90.45898192778847L64.84563048154658,90.45898192778847L64.8547511797194,90.45898192778847L64.85931152880582,90.45898192778847L64.8734992815191,90.45898192778847L64.88312668514598,90.45898192778847L64.8876870342324,90.45898192778847L64.89224738331882,90.45898192778847L66.90994850133029,90.45898192778847L66.9145088504167,90.45898192778847L66.91906919950311,90.45898192778847L66.93781730130283,90.45898192778847L66.94288435584328,90.45898192778847L66.95200505401611,90.45898192778847L66.9661928067294,90.45898192778847L68.9930146229137,90.45898192778847L68.99757497200012,90.45898192778847L69.00264202654058,90.45898192778847L69.007202375627,90.45898192778847L69.01632307379982,90.45898192778847L69.03051082651312,90.45898192778847L69.03507117559954,90.45898192778847L69.04013823013999,90.45898192778847L71.06239969723788,90.45898192778847L71.0669600463243,90.45898192778847L71.07608074449713,90.45898192778847L71.1044562499237,90.45898192778847L71.11357694809654,90.45898192778847L71.118644002637,90.45898192778847L71.12320435172342,90.45898192778847L71.12776470080983,90.45898192778847L73.14090546973489,90.45898192778847L73.15002616790771,90.45898192778847L73.15458651699413,90.45898192778847L73.17840167333429,90.45898192778847L73.18296202242071,90.45898192778847L73.19208272059353,90.45898192778847L73.20171012422041,90.45898192778847L73.20627047330683,90.45898192778847L75.2194112422319,90.45898192778847L75.22853194040471,90.45898192778847L75.23309228949113,90.45898192778847L75.23815934403159,90.45898192778847L75.242719693118,90.45898192778847L75.25184039129084,90.45898192778847L75.2569074458313,90.45898192778847L75.26602814400414,90.45898192778847L75.27058849309054,90.45898192778847L75.28021589671741,90.45898192778847L77.2979170147289,90.45898192778847L77.30703771290173,90.45898192778847L77.31159806198814,90.45898192778847L77.31666511652861,90.45898192778847L77.32578581470142,90.45898192778847L77.33034616378784,90.45898192778847L77.34453391650113,90.45898192778847L77.34909426558755,90.45898192778847L77.35416132012801,90.45898192778847L77.35872166921443,90.45898192778847L79.37642278722589,90.45898192778847L79.38098313631231,90.45898192778847L79.38554348539873,90.45898192778847L79.39010383448513,90.45898192778847L79.4139189908253,90.45898192778847L79.43266709262501,90.45898192778847L79.43722744171143,90.45898192778847L81.4549285597229,90.45898192778847L81.46860960698216,90.45898192778847L81.50154546149514,90.45898192778847L81.50610581058156,90.45898192778847L83.5334343322199,90.45898192778847L83.53799468130632,90.45898192778847L83.54255503039273,90.45898192778847L83.55218243401961,90.45898192778847L83.56130313219245,90.45898192778847L83.57093053581931,90.45898192778847L83.58005123399214,90.45898192778847L85.63068820651661,90.45898192778847L85.63524855560303,90.45898192778847L85.63980890468945,90.45898192778847L85.64436925377586,90.45898192778847L85.65399665740274,90.45898192778847L85.65855700648913,90.45898192778847L85.67274475920243,90.45898192778847L87.69500622630034,90.45898192778847L87.72287502627286,90.45898192778847L87.72794208081332,90.45898192778847L87.73250242989974,90.45898192778847L87.73706277898616,90.45898192778847L87.74162312807256,90.45898192778847L87.75125053169944,90.45898192778847L87.75581088078586,90.45898192778847L89.76895164971091,90.45898192778847L89.77807234788375,90.45898192778847L89.78263269697015,90.45898192778847L89.78769975151063,90.45898192778847L89.79682044968345,90.45898192778847L89.80644785331032,90.45898192778847L89.81100820239674,90.45898192778847L89.82975630419645,90.45898192778847L91.85657812038075,90.45898192778847L91.87076587309404,90.45898192778847L91.87532622218045,90.45898192778847L91.88495362580733,90.45898192778847L91.88951397489375,90.45898192778847L91.89863467306658,90.45898192778847L91.90826207669345,90.45898192778847L93.93052354379134,90.45898192778847L93.96345939830434,90.45898192778847L93.97714044556358,90.45898192778847L93.98220750010404,90.45898192778847L96.00446896720193,90.45898192778847L96.00902931628833,90.45898192778847L96.01358966537475,90.45898192778847L96.02321706900163,90.45898192778847L96.02777741808805,90.45898192778847L96.03233776717447,90.45898192778847L96.03689811626089,90.45898192778847L96.04652551988775,90.45898192778847L96.06983397077387,90.45898192778847L98.08297473969894,90.45898192778847L98.11084353967146,90.45898192778847L98.12047094329834,90.45898192778847L98.12503129238476,90.45898192778847L98.12959164147118,90.45898192778847L98.13415199055758,90.45898192778847L98.13921904509805,90.45898192778847L98.14377939418445,90.45898192778847L98.14833974327087,90.45898192778847L100.16148051219594,90.45898192778847L100.16604086128235,90.45898192778847L100.17060121036876,90.45898192778847L100.18022861399564,90.45898192778847L100.19390966125488,90.45898192778847L100.19897671579534,90.45898192778847L100.20353706488176,90.45898192778847L100.21265776305458,90.45898192778847L100.21772481759506,90.45898192778847L102.23998628469293,90.45898192778847L102.24910698286577,90.45898192778847L102.25873438649265,90.45898192778847L102.26329473557905,90.45898192778847L102.27748248829235,90.45898192778847L102.28204283737877,90.45898192778847L102.28660318646517,90.45898192778847L102.29623059009205,90.45898192778847L102.30079093917847,90.45898192778847L102.30535128826487,90.45898192778847L104.32305240627636,90.45898192778847L104.3321731044492,90.45898192778847L104.33724015898964,90.45898192778847L104.35092120624888,90.45898192778847L104.35598826078935,90.45898192778847L104.36054860987576,90.45898192778847L104.36510895896218,90.45898192778847L104.3696693080486,90.45898192778847L104.37473636258906,90.45898192778847L104.37929671167548,90.45898192778847L104.38385706076188,90.45898192778847L106.40155817877336,90.45898192778847L106.40611852785977,90.45898192778847L106.42486662965949,90.45898192778847L106.4294269787459,90.45898192778847L106.43449403328636,90.45898192778847L106.44361473145918,90.45898192778847L106.4481750805456,90.45898192778847L106.45324213508606,90.45898192778847L106.45780248417248,90.45898192778847L108.47550360218395,90.45898192778847L108.48462430035677,90.45898192778847L108.48918464944319,90.45898192778847L108.49425170398365,90.45898192778847L108.50337240215649,90.45898192778847L108.51299980578337,90.45898192778847L108.52212050395619,90.45898192778847L108.5266808530426,90.45898192778847L108.53174790758305,90.45898192778847L110.55400937468096,90.45898192778847L110.57275747648065,90.45898192778847L110.57731782556706,90.45898192778847L110.5864385237399,90.45898192778847L110.59150557828036,90.45898192778847L110.6006262764532,90.45898192778847L110.6193743782529,90.45898192778847L112.63251514717795,90.45898192778847L112.64163584535079,90.45898192778847L112.65126324897767,90.45898192778847L112.67001135077736,90.45898192778847L112.68369239803661,90.45898192778847L112.68875945257707,90.45898192778847L112.6978801507499,90.45898192778847L114.71102091967495,90.45898192778847L114.71558126876137,90.45898192778847L114.72014161784779,90.45898192778847L114.7247019669342,90.45898192778847L114.72976902147467,90.45898192778847L114.73432937056108,90.45898192778847L114.73888971964749,90.45898192778847L114.7434500687339,90.45898192778847L114.76219817053362,90.45898192778847L114.76726522507407,90.45898192778847L114.7763859232469,90.45898192778847L116.79408704125838,90.45898192778847L116.80827479397166,90.45898192778847L116.8173954921445,90.45898192778847L116.8219558412309,90.45898192778847L116.82702289577138,90.45898192778847L116.84070394303062,90.45898192778847L116.84577099757108,90.45898192778847L116.8503313466575,90.45898192778847L116.85489169574392,90.45898192778847L118.86803246466897,90.45898192778847L118.8771531628418,90.45898192778847L118.88171351192821,90.45898192778847L118.88678056646867,90.45898192778847L118.89590126464151,90.45898192778847L118.90046161372791,90.45898192778847L118.90552866826839,90.45898192778847L118.91008901735479,90.45898192778847L118.9146493664412,90.45898192778847L118.91920971552761,90.45898192778847L118.9288371191545,90.45898192778847L118.93339746824091,90.45898192778847L120.9556589353388,90.45898192778847L120.9744070371385,90.45898192778847L120.9885947898518,90.45898192778847L120.9931551389382,90.45898192778847L120.99771548802462,90.45898192778847L121.0027825425651,90.45898192778847L121.00734289165149,90.45898192778847L121.01190324073791,90.45898192778847L123.02504400966298,90.45898192778847L123.0296043587494,90.45898192778847L123.03872505692222,90.45898192778847L123.04379211146268,90.45898192778847L123.0483524605491,90.45898192778847L123.0671005623488,90.45898192778847L123.0858486641485,90.45898192778847L123.09040901323492,90.45898192778847L125.10811013124639,90.45898192778847L125.11267048033281,90.45898192778847L125.11723082941921,90.45898192778847L125.12229788395969,90.45898192778847L125.1268582330461,90.45898192778847L125.13141858213251,90.45898192778847L125.14560633484581,90.45898192778847L125.15016668393223,90.45898192778847L125.15472703301864,90.45898192778847L127.1866159037434,90.45898192778847L127.19573660191624,90.45898192778847L127.20080365645669,90.45898192778847L127.2053640055431,90.45898192778847L127.2099243546295,90.45898192778847L127.21955175825639,90.45898192778847L127.23323280551564,90.45898192778847L127.2382998600561,90.45898192778847L129.260561327154,90.45898192778847L129.2651216762404,90.45898192778847L129.2696820253268,90.45898192778847L129.27424237441323,90.45898192778847L129.2793094289537,90.45898192778847L129.28843012712653,90.45898192778847L129.3026178798398,90.45898192778847L129.30717822892623,90.45898192778847L129.3168056325531,90.45898192778847L131.339067099651,90.45898192778847L131.3436274487374,90.45898192778847L131.3481877978238,90.45898192778847L131.3578152014507,90.45898192778847L131.3623755505371,90.45898192778847L131.36693589962354,90.45898192778847L131.37149624870995,90.45898192778847L131.3765633032504,90.45898192778847L131.3811236523368,90.45898192778847L131.38568400142321,90.45898192778847L131.39024435050965,90.45898192778847L131.40443210322294,90.45898192778847L133.41757287214799,90.45898192778847L133.4363209739477,90.45898192778847L133.44088132303412,90.45898192778847L133.45000202120696,90.45898192778847L133.45962942483382,90.45898192778847L133.46875012300663,90.45898192778847L133.47381717754712,90.45898192778847L133.47837752663352,90.45898192778847L133.48293787571993,90.45898192778847L135.496078644645,90.45898192778847L135.50063899373143,90.45898192778847L135.50975969190424,90.45898192778847L135.5193870955311,90.45898192778847L135.52850779370394,90.45898192778847L135.54269554641724,90.45898192778847L135.54725589550367,90.45898192778847L135.55232295004413,90.45898192778847L135.55688329913053,90.45898192778847L135.56144364821694,90.45898192778847L137.5791447662284,90.45898192778847L137.58826546440125,90.45898192778847L137.59789286802814,90.45898192778847L137.60245321711454,90.45898192778847L137.6120806207414,90.45898192778847L137.62576166800065,90.45898192778847L137.63538907162754,90.45898192778847L137.63994942071395,90.45898192778847L139.65309018963902,90.45898192778847L139.66677123689826,90.45898192778847L139.68095898961155,90.45898192778847L139.68551933869796,90.45898192778847L139.69514674232485,90.45898192778847L139.70426744049763,90.45898192778847L139.71389484412452,90.45898192778847L139.71845519321093,90.45898192778847L141.74527700939527,90.45898192778847L141.7549044130221,90.45898192778847L141.75946476210854,90.45898192778847L141.76402511119494,90.45898192778847L141.7690921657354,90.45898192778847L141.77821286390824,90.45898192778847L141.78277321299467,90.45898192778847L141.78784026753513,90.45898192778847L141.79240061662153,90.45898192778847L143.81922243280584,90.45898192778847L143.8288498364327,90.45898192778847L143.83341018551914,90.45898192778847L143.83797053460555,90.45898192778847L143.84253088369195,90.45898192778847L143.8475979382324,90.45898192778847L143.86634604003214,90.45898192778847L143.87090638911855,90.45898192778847L143.87546673820498,90.45898192778847L145.88860750713002,90.45898192778847L145.90228855438926,90.45898192778847L145.90735560892972,90.45898192778847L145.91191595801615,90.45898192778847L145.91647630710256,90.45898192778847L145.92103665618896,90.45898192778847L145.93066405981585,90.45898192778847L145.93522440890226,90.45898192778847L145.9397847579887,90.45898192778847L145.94485181252912,90.45898192778847L145.95397251070196,90.45898192778847L147.97623397779986,90.45898192778847L147.9858613814267,90.45898192778847L147.99042173051316,90.45898192778847L147.99954242868597,90.45898192778847L148.00460948322643,90.45898192778847L148.00916983231284,90.45898192778847L148.01829053048567,90.45898192778847L148.02335758502613,90.45898192778847L148.03247828319897,90.45898192778847L150.045619052124,90.45898192778847L150.06892750301014,90.45898192778847L150.07804820118298,90.45898192778847L150.08311525572344,90.45898192778847L150.08767560480985,90.45898192778847L150.09223595389625,90.45898192778847L150.09679630298268,90.45898192778847L150.10186335752314,90.45898192778847L150.10642370660955,90.45898192778847L152.12412482462102,90.45898192778847L152.12868517370745,90.45898192778847L152.13324552279386,90.45898192778847L152.14743327550715,90.45898192778847L152.15199362459356,90.45898192778847L152.15655397368,90.45898192778847L152.16162102822045,90.45898192778847L152.1707417263933,90.45898192778847L154.20719094620446,90.45898192778847L154.21175129529087,90.45898192778847L154.21631164437727,90.45898192778847L154.22593904800416,90.45898192778847L154.24468714980384,90.45898192778847L154.25887490251714,90.45898192778847L156.281136369615,90.45898192778847L156.29481741687428,90.45898192778847L156.29988447141474,90.45898192778847L156.30900516958755,90.45898192778847L156.31356551867398,90.45898192778847L156.31863257321444,90.45898192778847L156.32319292230085,90.45898192778847L156.33231362047368,90.45898192778847L156.33738067501415,90.45898192778847L156.34194102410058,90.45898192778847L156.34650137318698,90.45898192778847L158.35964214211202,90.45898192778847L158.36420249119845,90.45898192778847L158.36876284028486,90.45898192778847L158.3733231893713,90.45898192778847L158.37839024391175,90.45898192778847L158.3875109420846,90.45898192778847L158.392071291171,90.45898192778847L158.40169869479786,90.45898192778847L158.4108193929707,90.45898192778847L158.41588644751116,90.45898192778847L158.42500714568396,90.45898192778847L160.44270826369547,90.45898192778847L160.44726861278187,90.45898192778847L160.4518289618683,90.45898192778847L160.45689601640876,90.45898192778847L160.470577063668,90.45898192778847L160.47564411820844,90.45898192778847L160.48020446729487,90.45898192778847L160.48476481638127,90.45898192778847L160.49439222000814,90.45898192778847L160.49895256909457,90.45898192778847L162.54452248707858,90.45898192778847L162.55871023979188,90.45898192778847L162.56327058887828,90.45898192778847L162.57289799250518,90.45898192778847L162.57745834159158,90.45898192778847L162.58201869067798,90.45898192778847L164.59515945960305,90.45898192778847L164.6088405068623,90.45898192778847L164.61390756140275,90.45898192778847L164.6230282595756,90.45898192778847L164.627588608662,90.45898192778847L164.63265566320246,90.45898192778847L164.6372160122889,90.45898192778847L164.6514037650022,90.45898192778847L166.6969736829862,90.45898192778847L166.7015340320726,90.45898192778847L166.706094381159,90.45898192778847L166.71572178478587,90.45898192778847L166.7248424829587,90.45898192778847L166.72990953749917,90.45898192778847L166.73446988658557,90.45898192778847L168.75217100459707,90.45898192778847L168.75673135368345,90.45898192778847L168.7612917027699,90.45898192778847L168.76585205185629,90.45898192778847L168.77091910639675,90.45898192778847L168.784600153656,90.45898192778847L168.78966720819648,90.45898192778847L168.79422755728288,90.45898192778847L168.81753600816901,90.45898192778847L170.83523712618046,90.45898192778847L170.8397974752669,90.45898192778847L170.84942487889376,90.45898192778847L170.8539852279802,90.45898192778847L170.863105926153,90.45898192778847L170.8914814315796,90.45898192778847L170.89604178066602,90.45898192778847L172.91374289867747,90.45898192778847L172.9183032477639,90.45898192778847L172.9228635968503,90.45898192778847L172.94161169865004,90.45898192778847L172.9466787531905,90.45898192778847L172.95123910227687,90.45898192778847L172.95579945136328,90.45898192778847L172.9603598004497,90.45898192778847L172.96998720407657,90.45898192778847L174.98768832208808,90.45898192778847L174.9922486711745,90.45898192778847L174.9968090202609,90.45898192778847L175.0013693693473,90.45898192778847L175.00643642388775,90.45898192778847L175.01099677297418,90.45898192778847L175.01555712206059,90.45898192778847L175.03430522386031,90.45898192778847L175.04393262748718,90.45898192778847L175.04849297657358,90.45898192778847L177.0849421963848,90.45898192778847L177.0940628945576,90.45898192778847L177.1036902981845,90.45898192778847L177.1082506472709,90.45898192778847L177.11281099635733,90.45898192778847L177.1224383999842,90.45898192778847L179.14469986708207,90.45898192778847L179.1492602161685,90.45898192778847L179.1634479688818,90.45898192778847L179.1725686670546,90.45898192778847L179.1867564197679,90.45898192778847L179.20094417248117,90.45898192778847L179.2055045215676,90.45898192778847L181.22320563957908,90.45898192778847L181.2277659886655,90.45898192778847L181.2323263377519,90.45898192778847L181.23688668683835,90.45898192778847L181.24195374137878,90.45898192778847L181.24651409046518,90.45898192778847L181.25107443955162,90.45898192778847L181.26070184317848,90.45898192778847L181.26526219226488,90.45898192778847L181.26982254135132,90.45898192778847L181.28401029406461,90.45898192778847L181.28857064315102,90.45898192778847L183.3062717611625,90.45898192778847L183.34376796476192,90.45898192778847L183.34832831384833,90.45898192778847L183.35288866293473,90.45898192778847L183.3579557174752,90.45898192778847L183.36251606656162,90.45898192778847L185.3802171845731,90.45898192778847L185.3847775336595,90.45898192778847L185.3893378827459,90.45898192778847L185.39389823183234,90.45898192778847L185.4035256354592,90.45898192778847L185.40808598454564,90.45898192778847L185.41264633363204,90.45898192778847L185.42227373725893,90.45898192778847L185.42683408634534,90.45898192778847L185.4364614899722,90.45898192778847L187.49115210612902,90.45898192778847L187.50533985884232,90.45898192778847L187.50990020792875,90.45898192778847L187.5149672624692,90.45898192778847L187.51952761155562,90.45898192778847L189.5372287295671,90.45898192778847L189.5417890786535,90.45898192778847L189.54634942773993,90.45898192778847L189.5559768313668,90.45898192778847L189.56965787862603,90.45898192778847L189.5747249331665,90.45898192778847L189.57928528225293,90.45898192778847L189.58384563133933,90.45898192778847L189.58840598042576,90.45898192778847L189.59347303496622,90.45898192778847L189.59803338405263,90.45898192778847L189.60259373313903,90.45898192778847L191.6202948511505,90.45898192778847L191.62941554932334,90.45898192778847L191.6344826038638,90.45898192778847L191.64360330203664,90.45898192778847L191.6532307056635,90.45898192778847L191.66235140383634,90.45898192778847L191.66691175292277,90.45898192778847L191.6719788074632,90.45898192778847L191.6765391565496,90.45898192778847L191.68109950563604,90.45898192778847L193.6942402745611,90.45898192778847L193.7129883763608,90.45898192778847L193.73629682724692,90.45898192778847L193.74085717633332,90.45898192778847L193.75048457996022,90.45898192778847L193.75504492904662,90.45898192778847L193.75960527813305,90.45898192778847L195.78186674523093,90.45898192778847L195.78642709431733,90.45898192778847L195.7914941488578,90.45898192778847L195.80061484703063,90.45898192778847L195.81024225065752,90.45898192778847L195.81480259974393,90.45898192778847L195.82899035245723,90.45898192778847L195.83811105063006,90.45898192778847L197.85581216864153,90.45898192778847L197.86037251772794,90.45898192778847L197.8699999213548,90.45898192778847L197.87456027044124,90.45898192778847L197.88874802315453,90.45898192778847L197.89330837224094,90.45898192778847L197.89786872132737,90.45898192778847L197.90749612495424,90.45898192778847L197.9120564740406,90.45898192778847L197.91661682312704,90.45898192778847L199.93431794113854,90.45898192778847L199.93887829022495,90.45898192778847L199.94343863931135,90.45898192778847L199.94850569385184,90.45898192778847L199.95306604293825,90.45898192778847L199.95762639202465,90.45898192778847L199.96725379565152,90.45898192778847L199.98093484291076,90.45898192778847L199.98600189745122,90.45898192778847L199.99512259562405,90.45898192778847L202.02194441180836,90.45898192778847L202.02701146634882,90.45898192778847L202.03613216452163,90.45898192778847L202.04069251360806,90.45898192778847L202.05488026632136,90.45898192778847L202.06450766994823,90.45898192778847L202.07362836812106,90.45898192778847L204.09132948613254,90.45898192778847L204.09588983521894,90.45898192778847L204.10045018430537,90.45898192778847L204.10551723884583,90.45898192778847L204.11463793701867,90.45898192778847L204.12882568973194,90.45898192778847L204.13338603881837,90.45898192778847L204.14301344244524,90.45898192778847L204.14757379153167,90.45898192778847L204.15213414061807,90.45898192778847L206.16983525862955,90.45898192778847L206.18858336042925,90.45898192778847L206.19770405860208,90.45898192778847L206.20277111314252,90.45898192778847L206.21189181131535,90.45898192778847L206.21645216040176,90.45898192778847L206.22151921494222,90.45898192778847L206.22607956402865,90.45898192778847L206.23063991311506,90.45898192778847L208.24378068204015,90.45898192778847L208.26252878383983,90.45898192778847L208.26708913292623,90.45898192778847L208.27164948201266,90.45898192778847L208.27620983109907,90.45898192778847L208.28127688563953,90.45898192778847L208.29039758381236,90.45898192778847L208.30002498743926,90.45898192778847L208.30458533652566,90.45898192778847L208.30914568561207,90.45898192778847L210.32228645453714,90.45898192778847L210.32684680362354,90.45898192778847L210.33140715270994,90.45898192778847L210.34559490542324,90.45898192778847L210.35978265813654,90.45898192778847L210.36890335630937,90.45898192778847L210.37853075993627,90.45898192778847L210.38309110902267,90.45898192778847L210.38765145810908,90.45898192778847L212.40079222703415,90.45898192778847L212.40535257612055,90.45898192778847L212.42410067792025,90.45898192778847L212.44284877971995,90.45898192778847L212.4519694778928,90.45898192778847L212.45703653243325,90.45898192778847L212.46159688151965,90.45898192778847L214.47929799953116,90.45898192778847L214.48385834861756,90.45898192778847L214.488418697704,90.45898192778847L214.50260645041726,90.45898192778847L214.51679420313053,90.45898192778847L214.52135455221696,90.45898192778847L214.52591490130337,90.45898192778847L214.53554230493026,90.45898192778847L214.54010265401666,90.45898192778847L214.5446630031031,90.45898192778847L216.56236412111454,90.45898192778847L216.56692447020097,90.45898192778847L216.57655187382784,90.45898192778847L216.58111222291427,90.45898192778847L216.58567257200068,90.45898192778847L216.59023292108708,90.45898192778847L216.59529997562757,90.45898192778847L216.59986032471397,90.45898192778847L216.6089810228868,90.45898192778847L216.61404807742727,90.45898192778847L218.63630954452515,90.45898192778847L218.65961799541128,90.45898192778847L218.67836609721098,90.45898192778847L220.723936015195,90.45898192778847L220.7284963642814,90.45898192778847L220.73356341882183,90.45898192778847L220.73812376790826,90.45898192778847L220.74268411699467,90.45898192778847L220.75687186970796,90.45898192778847L220.7614322187944,90.45898192778847L220.77105962242126,90.45898192778847L220.77561997150767,90.45898192778847L222.79332108951914,90.45898192778847L222.79788143860557,90.45898192778847L222.80244178769198,90.45898192778847L222.80700213677838,90.45898192778847L222.81662954040527,90.45898192778847L222.8257502385781,90.45898192778847L222.83081729311857,90.45898192778847L222.83537764220497,90.45898192778847L222.8444983403778,90.45898192778847L222.84956539491827,90.45898192778847L222.8541257440047,90.45898192778847L224.87182686201615,90.45898192778847L224.880947560189,90.45898192778847L224.90932306561558,90.45898192778847L224.91844376378842,90.45898192778847L224.9371918655881,90.45898192778847L226.95033263451316,90.45898192778847L226.9548929835996,90.45898192778847L226.97364108539927,90.45898192778847L226.9969495362854,90.45898192778847L227.0015098853718,90.45898192778847L229.02883840701014,90.45898192778847L229.0425194542694,90.45898192778847L229.04758650880987,90.45898192778847L229.0612675560691,90.45898192778847L229.06633461060957,90.45898192778847L229.0754553087824,90.45898192778847L229.0800156578688,90.45898192778847L229.08508271240927,90.45898192778847L229.0896430614957,90.45898192778847L231.10734417950718,90.45898192778847L231.11190452859358,90.45898192778847L231.12609228130688,90.45898192778847L231.13065263039329,90.45898192778847L231.13521297947972,90.45898192778847L231.13977332856612,90.45898192778847L231.14484038310658,90.45898192778847L231.16358848490626,90.45898192778847L233.1858499520042,90.45898192778847L233.1904103010906,90.45898192778847L233.194970650177,90.45898192778847L233.19953099926343,90.45898192778847L233.20915840289027,90.45898192778847L233.21371875197673,90.45898192778847L233.2182791010631,90.45898192778847L233.22334615560356,90.45898192778847L233.22790650469,90.45898192778847L233.2324668537764,90.45898192778847L233.2370272028628,90.45898192778847L233.2420942574033,90.45898192778847L233.2466546064897,90.45898192778847L235.26891607358758,90.45898192778847L235.2780367717604,90.45898192778847L235.30185192810058,90.45898192778847L235.306412277187,90.45898192778847L235.3109726262734,90.45898192778847L235.3206000299003,90.45898192778847L237.3474218460846,90.45898192778847L237.36160959879788,90.45898192778847L237.37073029697072,90.45898192778847L237.38947839877042,90.45898192778847L237.39403874785685,90.45898192778847L237.39910580239732,90.45898192778847L237.4036661514837,90.45898192778847L239.4259276185816,90.45898192778847L239.43504831675443,90.45898192778847L239.4401153712949,90.45898192778847L239.44467572038133,90.45898192778847L239.44923606946773,90.45898192778847L239.4537964185541,90.45898192778847L239.463423822181,90.45898192778847L239.4679841712674,90.45898192778847L239.4821719239807,90.45898192778847L239.48673227306713,90.45898192778847L241.50443339107858,90.45898192778847L241.508993740165,90.45898192778847L241.51355408925141,90.45898192778847L241.5373692455916,90.45898192778847L241.541929594678,90.45898192778847L241.5464899437644,90.45898192778847L243.59205986174842,90.45898192778847L243.5971269162889,90.45898192778847L243.60168726537532,90.45898192778847L243.61080796354815,90.45898192778847L243.61587501808862,90.45898192778847L243.62043536717502,90.45898192778847L243.62499571626145,90.45898192778847L243.62955606534786,90.45898192778847L243.63462311988832,90.45898192778847L243.63918346897472,90.45898192778847L245.6568845869862,90.45898192778847L245.66600528515903,90.45898192778847L245.67056563424543,90.45898192778847L245.67563268878592,90.45898192778847L245.68475338695873,90.45898192778847L245.68931373604516,90.45898192778847L245.698941139672,90.45898192778847L245.70806183784484,90.45898192778847L245.7131288923853,90.45898192778847L245.72224959055814,90.45898192778847L247.73539035948318,90.45898192778847L247.7541384612829,90.45898192778847L247.7586988103693,90.45898192778847L247.7632591594557,90.45898192778847L247.76781950854215,90.45898192778847L247.7728865630826,90.45898192778847L247.777446912169,90.45898192778847L247.78200726125544,90.45898192778847L247.7916346648823,90.45898192778847L247.79619501396874,90.45898192778847L247.80075536305515,90.45898192778847L249.8138961319802,90.45898192778847L249.83264423377992,90.45898192778847L249.84176493195272,90.45898192778847L249.84632528103916,90.45898192778847L249.85139233557962,90.45898192778847L249.86051303375245,90.45898192778847L249.87014043737932,90.45898192778847L249.87926113555216,90.45898192778847L251.89696225356363,90.45898192778847L251.90152260265003,90.45898192778847L251.90608295173647,90.45898192778847L251.91571035536333,90.45898192778847L251.92027070444976,90.45898192778847L251.92483105353617,90.45898192778847L251.9298981080766,90.45898192778847L251.934458457163,90.45898192778847L251.93901880624944,90.45898192778847L251.94357915533584,90.45898192778847L251.9486462098763,90.45898192778847L251.95320655896273,90.45898192778847L253.97546802606064,90.45898192778847L253.98002837514701,90.45898192778847L253.9896557787739,90.45898192778847L253.9942161278603,90.45898192778847L254.0084038805736,90.45898192778847L254.01296422966004,90.45898192778847L254.01752457874645,90.45898192778847L254.02208492783285,90.45898192778847L254.0271519823733,90.45898192778847L254.03627268054615,90.45898192778847L256.06309449673046,90.45898192778847L256.0727219003573,90.45898192778847L256.0772822494438,90.45898192778847L256.08184259853016,90.45898192778847L256.0960303512434,90.45898192778847L256.10059070032986,90.45898192778847L256.11021810395675,90.45898192778847L256.11477845304313,90.45898192778847L258.1279192219682,90.45898192778847L258.13703992014104,90.45898192778847L258.14160026922747,90.45898192778847L258.14666732376793,90.45898192778847L258.1512276728543,90.45898192778847L258.16034837102717,90.45898192778847L258.16997577465406,90.45898192778847L258.17909647282687,90.45898192778847L258.18416352736733,90.45898192778847L258.19328422554014,90.45898192778847L260.20642499446524,90.45898192778847L260.2109853435516,90.45898192778847L260.21554569263805,90.45898192778847L260.22517309626494,90.45898192778847L260.2388541435242,90.45898192778847L260.24392119806464,90.45898192778847L260.2484815471511,90.45898192778847L260.25304189623745,90.45898192778847L260.2576022453239,90.45898192778847L260.2672296489507,90.45898192778847L260.2717899980372,90.45898192778847L262.28493076696225,90.45898192778847L262.2894911160486,90.45898192778847L262.29405146513506,90.45898192778847L262.2986118142215,90.45898192778847L262.30367886876195,90.45898192778847L262.3082392178484,90.45898192778847L262.31735991602113,90.45898192778847L262.32242697056165,90.45898192778847L262.326987319648,90.45898192778847L262.3457354214477,90.45898192778847L264.36799688854563,90.45898192778847L264.37255723763207,90.45898192778847L264.37711758671844,90.45898192778847L264.39130533943177,90.45898192778847L264.3958656885182,90.45898192778847L264.40093274305866,90.45898192778847L264.40549309214504,90.45898192778847L264.41005344123147,90.45898192778847L264.41968084485836,90.45898192778847L264.42424119394474,90.45898192778847L264.42880154303117,90.45898192778847L266.4510630101291,90.45898192778847L266.45562335921545,90.45898192778847L266.46525076284235,90.45898192778847L266.4698111119288,90.45898192778847L266.4743714610152,90.45898192778847L266.4885592137285,90.45898192778847L266.4981866173554,90.45898192778847L266.50274696644175,90.45898192778847L266.5073073155282,90.45898192778847L268.5204480844532,90.45898192778847L268.52500843353965,90.45898192778847L268.5295687826261,90.45898192778847" fill="none"></path></g></g></g></g></g></g><g transform="translate(51, 178)" clip-path="url(#clip_1)"><clipPath id="clip_1"><rect width="278" height="21"></rect></clipPath><g><g><line x1="0" y1="0" x2="0" y2="5" style="visibility: inherit;" fill="rgb(0, 0, 0)" stroke="rgb(204, 204, 204)" stroke-width="1px"></line><line x1="25.3352727023038" y1="0" x2="25.3352727023038" y2="5" style="visibility: inherit;" fill="rgb(0, 0, 0)" stroke="rgb(204, 204, 204)" stroke-width="1px"></line><line x1="50.6705454046076" y1="0" x2="50.6705454046076" y2="5" style="visibility: inherit;" fill="rgb(0, 0, 0)" stroke="rgb(204, 204, 204)" stroke-width="1px"></line><line x1="76.00581810691139" y1="0" x2="76.00581810691139" y2="5" style="visibility: inherit;" fill="rgb(0, 0, 0)" stroke="rgb(204, 204, 204)" stroke-width="1px"></line><line x1="101.3410908092152" y1="0" x2="101.3410908092152" y2="5" style="visibility: inherit;" fill="rgb(0, 0, 0)" stroke="rgb(204, 204, 204)" stroke-width="1px"></line><line x1="126.676363511519" y1="0" x2="126.676363511519" y2="5" style="visibility: inherit;" fill="rgb(0, 0, 0)" stroke="rgb(204, 204, 204)" stroke-width="1px"></line><line x1="152.01163621382278" y1="0" x2="152.01163621382278" y2="5" style="visibility: inherit;" fill="rgb(0, 0, 0)" stroke="rgb(204, 204, 204)" stroke-width="1px"></line><line x1="177.3469089161266" y1="0" x2="177.3469089161266" y2="5" style="visibility: inherit;" fill="rgb(0, 0, 0)" stroke="rgb(204, 204, 204)" stroke-width="1px"></line><line x1="202.6821816184304" y1="0" x2="202.6821816184304" y2="5" style="visibility: inherit;" fill="rgb(0, 0, 0)" stroke="rgb(204, 204, 204)" stroke-width="1px"></line><line x1="228.0174543207342" y1="0" x2="228.0174543207342" y2="5" style="visibility: inherit;" fill="rgb(0, 0, 0)" stroke="rgb(204, 204, 204)" stroke-width="1px"></line><line x1="253.352727023038" y1="0" x2="253.352727023038" y2="5" style="visibility: inherit;" fill="rgb(0, 0, 0)" stroke="rgb(204, 204, 204)" stroke-width="1px"></line><line x1="278.6879997253418" y1="0" x2="278.6879997253418" y2="5" style="visibility: inherit;" fill="rgb(0, 0, 0)" stroke="rgb(204, 204, 204)" stroke-width="1px"></line></g><g transform="translate(0, 8)"><text style="text-anchor: middle; visibility: hidden; font-family: &quot;Helvetica Neue&quot;, sans-serif; font-size: 12px; font-weight: 200;" x="0" y="0" dx="0em" dy="0.95em" fill="rgb(50, 49, 63)" stroke="none" stroke-width="1px">-50k</text><text style="text-anchor: middle; visibility: inherit; font-family: &quot;Helvetica Neue&quot;, sans-serif; font-size: 12px; font-weight: 200;" x="25.3352727023038" y="0" dx="0em" dy="0.95em" fill="rgb(50, 49, 63)" stroke="none" stroke-width="1px">0</text><text style="text-anchor: middle; visibility: hidden; font-family: &quot;Helvetica Neue&quot;, sans-serif; font-size: 12px; font-weight: 200;" x="50.6705454046076" y="0" dx="0em" dy="0.95em" fill="rgb(50, 49, 63)" stroke="none" stroke-width="1px">50k</text><text style="text-anchor: middle; visibility: inherit; font-family: &quot;Helvetica Neue&quot;, sans-serif; font-size: 12px; font-weight: 200;" x="76.00581810691139" y="0" dx="0em" dy="0.95em" fill="rgb(50, 49, 63)" stroke="none" stroke-width="1px">100k</text><text style="text-anchor: middle; visibility: hidden; font-family: &quot;Helvetica Neue&quot;, sans-serif; font-size: 12px; font-weight: 200;" x="101.3410908092152" y="0" dx="0em" dy="0.95em" fill="rgb(50, 49, 63)" stroke="none" stroke-width="1px">150k</text><text style="text-anchor: middle; visibility: inherit; font-family: &quot;Helvetica Neue&quot;, sans-serif; font-size: 12px; font-weight: 200;" x="126.676363511519" y="0" dx="0em" dy="0.95em" fill="rgb(50, 49, 63)" stroke="none" stroke-width="1px">200k</text><text style="text-anchor: middle; visibility: hidden; font-family: &quot;Helvetica Neue&quot;, sans-serif; font-size: 12px; font-weight: 200;" x="152.01163621382278" y="0" dx="0em" dy="0.95em" fill="rgb(50, 49, 63)" stroke="none" stroke-width="1px">250k</text><text style="text-anchor: middle; visibility: inherit; font-family: &quot;Helvetica Neue&quot;, sans-serif; font-size: 12px; font-weight: 200;" x="177.3469089161266" y="0" dx="0em" dy="0.95em" fill="rgb(50, 49, 63)" stroke="none" stroke-width="1px">300k</text><text style="text-anchor: middle; visibility: hidden; font-family: &quot;Helvetica Neue&quot;, sans-serif; font-size: 12px; font-weight: 200;" x="202.6821816184304" y="0" dx="0em" dy="0.95em" fill="rgb(50, 49, 63)" stroke="none" stroke-width="1px">350k</text><text style="text-anchor: middle; visibility: inherit; font-family: &quot;Helvetica Neue&quot;, sans-serif; font-size: 12px; font-weight: 200;" x="228.0174543207342" y="0" dx="0em" dy="0.95em" fill="rgb(50, 49, 63)" stroke="none" stroke-width="1px">400k</text><text style="text-anchor: middle; visibility: hidden; font-family: &quot;Helvetica Neue&quot;, sans-serif; font-size: 12px; font-weight: 200;" x="253.352727023038" y="0" dx="0em" dy="0.95em" fill="rgb(50, 49, 63)" stroke="none" stroke-width="1px">450k</text><text style="text-anchor: middle; visibility: hidden; font-family: &quot;Helvetica Neue&quot;, sans-serif; font-size: 12px; font-weight: 200;" x="278.6879997253418" y="0" dx="0em" dy="0.95em" fill="rgb(50, 49, 63)" stroke="none" stroke-width="1px">500k</text></g><line x1="0" y1="0" x2="278.6879997253418" y2="0" fill="rgb(0, 0, 0)" stroke="rgb(204, 204, 204)" stroke-width="1px"></line></g></g></g></g></svg>