<svg viewBox="0 0 330 200" xmlns="http://www.w3.org/2000/svg"><g><g><g><g><g><line x1="71.9680004119873" y1="178.07699966430664" x2="66.9680004119873" y2="178.07699966430664" style="visibility: inherit;" fill="rgb(0, 0, 0)" stroke="rgb(204, 204, 204)" stroke-width="1px"></line><line x1="71.9680004119873" y1="166.2051996866862" x2="66.9680004119873" y2="166.2051996866862" style="visibility: inherit;" fill="rgb(0, 0, 0)" stroke="rgb(204, 204, 204)" stroke-width="1px"></line><line x1="71.9680004119873" y1="154.33339970906576" x2="66.9680004119873" y2="154.33339970906576" style="visibility: inherit;" fill="rgb(0, 0, 0)" stroke="rgb(204, 204, 204)" stroke-width="1px"></line><line x1="71.9680004119873" y1="142.46159973144532" x2="66.9680004119873" y2="142.46159973144532" style="visibility: inherit;" fill="rgb(0, 0, 0)" stroke="rgb(204, 204, 204)" stroke-width="1px"></line><line x1="71.9680004119873" y1="130.58979975382488" x2="66.9680004119873" y2="130.58979975382488" style="visibility: inherit;" fill="rgb(0, 0, 0)" stroke="rgb(204, 204, 204)" stroke-width="1px"></line><line x1="71.9680004119873" y1="118.71799977620442" x2="66.9680004119873" y2="118.71799977620442" style="visibility: inherit;" fill="rgb(0, 0, 0)" stroke="rgb(204, 204, 204)" stroke-width="1px"></line><line x1="71.9680004119873" y1="106.84619979858398" x2="66.9680004119873" y2="106.84619979858398" style="visibility: inherit;" fill="rgb(0, 0, 0)" stroke="rgb(204, 204, 204)" stroke-width="1px"></line><line x1="71.9680004119873" y1="94.97439982096354" x2="66.9680004119873" y2="94.97439982096354" style="visibility: inherit;" fill="rgb(0, 0, 0)" stroke="rgb(204, 204, 204)" stroke-width="1px"></line><line x1="71.9680004119873" y1="83.1025998433431" x2="66.9680004119873" y2="83.1025998433431" style="visibility: inherit;" fill="rgb(0, 0, 0)" stroke="rgb(204, 204, 204)" stroke-width="1px"></line><line x1="71.9680004119873" y1="71.23079986572264" x2="66.9680004119873" y2="71.23079986572264" style="visibility: inherit;" fill="rgb(0, 0, 0)" stroke="rgb(204, 204, 204)" stroke-width="1px"></line><line x1="71.9680004119873" y1="59.358999888102204" x2="66.9680004119873" y2="59.358999888102204" style="visibility: inherit;" fill="rgb(0, 0, 0)" stroke="rgb(204, 204, 204)" stroke-width="1px"></line><line x1="71.9680004119873" y1="47.48719991048179" x2="66.9680004119873" y2="47.48719991048179" style="visibility: inherit;" fill="rgb(0, 0, 0)" stroke="rgb(204, 204, 204)" stroke-width="1px"></line><line x1="71.9680004119873" y1="35.61539993286132" x2="66.9680004119873" y2="35.61539993286132" style="visibility: inherit;" fill="rgb(0, 0, 0)" stroke="rgb(204, 204, 204)" stroke-width="1px"></line><line x1="71.9680004119873" y1="23.743599955240853" x2="66.9680004119873" y2="23.743599955240853" style="visibility: inherit;" fill="rgb(0, 0, 0)" stroke="rgb(204, 204, 204)" stroke-width="1px"></line><line x1="71.9680004119873" y1="11.87179997762044" x2="66.9680004119873" y2="11.87179997762044" style="visibility: inherit;" fill="rgb(0, 0, 0)" stroke="rgb(204, 204, 204)" stroke-width="1px"></line><line x1="71.9680004119873" y1="0" x2="66.9680004119873" y2="0" style="visibility: inherit;" fill="rgb(0, 0, 0)" stroke="rgb(204, 204, 204)" stroke-width="1px"></line></g><g transform="translate(61.968000411987305, 0)"><text style="text-anchor: end; visibility: hidden; font-family: &quot;Helvetica Neue&quot;, sans-serif; font-size: 12px; font-weight: 200;" x="0" y="178.07699966430664" dx="0em" dy="0.3em" fill="rgb(50, 49, 63)" stroke="none" stroke-width="1px">-0.012</text><text style="text-anchor: end; visibility: inherit; font-family: &quot;Helvetica Neue&quot;, sans-serif; font-size: 12px; font-weight: 200;" x="0" y="166.2051996866862" dx="0em" dy="0.3em" fill="rgb(50, 49, 63)" stroke="none" stroke-width="1px">-0.01</text><text style="text-anchor: end; visibility: hidden; font-family: &quot;Helvetica Neue&quot;, sans-serif; font-size: 12px; font-weight: 200;" x="0" y="154.33339970906576" dx="0em" dy="0.3em" fill="rgb(50, 49, 63)" stroke="none" stroke-width="1px">-8e-3</text><text style="text-anchor: end; visibility: hidden; font-family: &quot;Helvetica Neue&quot;, sans-serif; font-size: 12px; font-weight: 200;" x="0" y="142.46159973144532" dx="0em" dy="0.3em" fill="rgb(50, 49, 63)" stroke="none" stroke-width="1px">-6e-3</text><text style="text-anchor: end; visibility: inherit; font-family: &quot;Helvetica Neue&quot;, sans-serif; font-size: 12px; font-weight: 200;" x="0" y="130.58979975382488" dx="0em" dy="0.3em" fill="rgb(50, 49, 63)" stroke="none" stroke-width="1px">-4e-3</text><text style="text-anchor: end; visibility: hidden; font-family: &quot;Helvetica Neue&quot;, sans-serif; font-size: 12px; font-weight: 200;" x="0" y="118.71799977620442" dx="0em" dy="0.3em" fill="rgb(50, 49, 63)" stroke="none" stroke-width="1px">-2e-3</text><text style="text-anchor: end; visibility: hidden; font-family: &quot;Helvetica Neue&quot;, sans-serif; font-size: 12px; font-weight: 200;" x="0" y="106.84619979858398" dx="0em" dy="0.3em" fill="rgb(50, 49, 63)" stroke="none" stroke-width="1px">0</text><text style="text-anchor: end; visibility: inherit; font-family: &quot;Helvetica Neue&quot;, sans-serif; font-size: 12px; font-weight: 200;" x="0" y="94.97439982096354" dx="0em" dy="0.3em" fill="rgb(50, 49, 63)" stroke="none" stroke-width="1px">2e-3</text><text style="text-anchor: end; visibility: hidden; font-family: &quot;Helvetica Neue&quot;, sans-serif; font-size: 12px; font-weight: 200;" x="0" y="83.1025998433431" dx="0em" dy="0.3em" fill="rgb(50, 49, 63)" stroke="none" stroke-width="1px">4e-3</text><text style="text-anchor: end; visibility: hidden; font-family: &quot;Helvetica Neue&quot;, sans-serif; font-size: 12px; font-weight: 200;" x="0" y="71.23079986572264" dx="0em" dy="0.3em" fill="rgb(50, 49, 63)" stroke="none" stroke-width="1px">6e-3</text><text style="text-anchor: end; visibility: inherit; font-family: &quot;Helvetica Neue&quot;, sans-serif; font-size: 12px; font-weight: 200;" x="0" y="59.358999888102204" dx="0em" dy="0.3em" fill="rgb(50, 49, 63)" stroke="none" stroke-width="1px">8e-3</text><text style="text-anchor: end; visibility: hidden; font-family: &quot;Helvetica Neue&quot;, sans-serif; font-size: 12px; font-weight: 200;" x="0" y="47.48719991048179" dx="0em" dy="0.3em" fill="rgb(50, 49, 63)" stroke="none" stroke-width="1px">0.01</text><text style="text-anchor: end; visibility: hidden; font-family: &quot;Helvetica Neue&quot;, sans-serif; font-size: 12px; font-weight: 200;" x="0" y="35.61539993286132" dx="0em" dy="0.3em" fill="rgb(50, 49, 63)" stroke="none" stroke-width="1px">0.012</text><text style="text-anchor: end; visibility: inherit; font-family: &quot;Helvetica Neue&quot;, sans-serif; font-size: 12px; font-weight: 200;" x="0" y="23.743599955240853" dx="0em" dy="0.3em" fill="rgb(50, 49, 63)" stroke="none" stroke-width="1px">0.014</text><text style="text-anchor: end; visibility: hidden; font-family: &quot;Helvetica Neue&quot;, sans-serif; font-size: 12px; font-weight: 200;" x="0" y="11.87179997762044" dx="0em" dy="0.3em" fill="rgb(50, 49, 63)" stroke="none" stroke-width="1px">0.016</text><text style="text-anchor: end; visibility: hidden; font-family: &quot;Helvetica Neue&quot;, sans-serif; font-size: 12px; font-weight: 200;" x="0" y="0" dx="0em" dy="0.3em" fill="rgb(50, 49, 63)" stroke="none" stroke-width="1px">0.018</text></g><line x1="71.9680004119873" y1="0" x2="71.9680004119873" y2="178.07699966430664" fill="rgb(0, 0, 0)" stroke="rgb(204, 204, 204)" stroke-width="1px"></line></g></g><g transform="translate(71, 0)" clip-path="url(#clip_0)"><clipPath id="clip_0"><rect width="258" height="178"></rect></clipPath><g><g><g><line x1="0" y1="0" x2="0" y2="178.07699966430664" fill="rgb(0, 0, 0)" stroke="rgb(60, 60, 60)" stroke-width="1px" opacity="0.25"></line><line x1="23.457454508001156" y1="0" x2="23.457454508001156" y2="178.07699966430664" fill="rgb(0, 0, 0)" stroke="rgb(60, 60, 60)" stroke-width="1px" opacity="0.25"></line><line x1="46.91490901600231" y1="0" x2="46.91490901600231" y2="178.07699966430664" fill="rgb(0, 0, 0)" stroke="rgb(60, 60, 60)" stroke-width="1px" opacity="0.25"></line><line x1="70.37236352400346" y1="0" x2="70.37236352400346" y2="178.07699966430664" fill="rgb(0, 0, 0)" stroke="rgb(60, 60, 60)" stroke-width="1px" opacity="0.25"></line><line x1="93.82981803200462" y1="0" x2="93.82981803200462" y2="178.07699966430664" fill="rgb(0, 0, 0)" stroke="rgb(60, 60, 60)" stroke-width="1px" opacity="0.25"></line><line x1="117.28727254000577" y1="0" x2="117.28727254000577" y2="178.07699966430664" fill="rgb(0, 0, 0)" stroke="rgb(60, 60, 60)" stroke-width="1px" opacity="0.25"></line><line x1="140.74472704800692" y1="0" x2="140.74472704800692" y2="178.07699966430664" fill="rgb(0, 0, 0)" stroke="rgb(60, 60, 60)" stroke-width="1px" opacity="0.25"></line><line x1="164.20218155600807" y1="0" x2="164.20218155600807" y2="178.07699966430664" fill="rgb(0, 0, 0)" stroke="rgb(60, 60, 60)" stroke-width="1px" opacity="0.25"></line><line x1="187.65963606400925" y1="0" x2="187.65963606400925" y2="178.07699966430664" fill="rgb(0, 0, 0)" stroke="rgb(60, 60, 60)" stroke-width="1px" opacity="0.25"></line><line x1="211.1170905720104" y1="0" x2="211.1170905720104" y2="178.07699966430664" fill="rgb(0, 0, 0)" stroke="rgb(60, 60, 60)" stroke-width="1px" opacity="0.25"></line><line x1="234.57454508001155" y1="0" x2="234.57454508001155" y2="178.07699966430664" fill="rgb(0, 0, 0)" stroke="rgb(60, 60, 60)" stroke-width="1px" opacity="0.25"></line><line x1="258.0319995880127" y1="0" x2="258.0319995880127" y2="178.07699966430664" fill="rgb(0, 0, 0)" stroke="rgb(60, 60, 60)" stroke-width="1px" opacity="0.25"></line></g><g><line x1="0" y1="178.07699966430664" x2="258.0319995880127" y2="178.07699966430664" fill="rgb(0, 0, 0)" stroke="rgb(60, 60, 60)" stroke-width="1px" opacity="0.25"></line><line x1="0" y1="166.2051996866862" x2="258.0319995880127" y2="166.2051996866862" fill="rgb(0, 0, 0)" stroke="rgb(60, 60, 60)" stroke-width="1px" opacity="0.25"></line><line x1="0" y1="154.33339970906576" x2="258.0319995880127" y2="154.33339970906576" fill="rgb(0, 0, 0)" stroke="rgb(60, 60, 60)" stroke-width="1px" opacity="0.25"></line><line x1="0" y1="142.46159973144532" x2="258.0319995880127" y2="142.46159973144532" fill="rgb(0, 0, 0)" stroke="rgb(60, 60, 60)" stroke-width="1px" opacity="0.25"></line><line x1="0" y1="130.58979975382488" x2="258.0319995880127" y2="130.58979975382488" fill="rgb(0, 0, 0)" stroke="rgb(60, 60, 60)" stroke-width="1px" opacity="0.25"></line><line x1="0" y1="118.71799977620442" x2="258.0319995880127" y2="118.71799977620442" fill="rgb(0, 0, 0)" stroke="rgb(60, 60, 60)" stroke-width="1px" opacity="0.25"></line><line x1="0" y1="106.84619979858398" x2="258.0319995880127" y2="106.84619979858398" fill="rgb(0, 0, 0)" stroke="rgb(60, 60, 60)" stroke-width="1px" opacity="0.25"></line><line x1="0" y1="94.97439982096354" x2="258.0319995880127" y2="94.97439982096354" fill="rgb(0, 0, 0)" stroke="rgb(60, 60, 60)" stroke-width="1px" opacity="0.25"></line><line x1="0" y1="83.1025998433431" x2="258.0319995880127" y2="83.1025998433431" fill="rgb(0, 0, 0)" stroke="rgb(60, 60, 60)" stroke-width="1px" opacity="0.25"></line><line x1="0" y1="71.23079986572264" x2="258.0319995880127" y2="71.23079986572264" fill="rgb(0, 0, 0)" stroke="rgb(60, 60, 60)" stroke-width="1px" opacity="0.25"></line><line x1="0" y1="59.358999888102204" x2="258.0319995880127" y2="59.358999888102204" fill="rgb(0, 0, 0)" stroke="rgb(60, 60, 60)" stroke-width="1px" opacity="0.25"></line><line x1="0" y1="47.48719991048179" x2="258.0319995880127" y2="47.48719991048179" fill="rgb(0, 0, 0)" stroke="rgb(60, 60, 60)" stroke-width="1px" opacity="0.25"></line><line x1="0" y1="35.61539993286132" x2="258.0319995880127" y2="35.61539993286132" fill="rgb(0, 0, 0)" stroke="rgb(60, 60, 60)" stroke-width="1px" opacity="0.25"></line><line x1="0" y1="23.743599955240853" x2="258.0319995880127" y2="23.743599955240853" fill="rgb(0, 0, 0)" stroke="rgb(60, 60, 60)" stroke-width="1px" opacity="0.25"></line><line x1="0" y1="11.87179997762044" x2="258.0319995880127" y2="11.87179997762044" fill="rgb(0, 0, 0)" stroke="rgb(60, 60, 60)" stroke-width="1px" opacity="0.25"></line><line x1="0" y1="0" x2="258.0319995880127" y2="0" fill="rgb(0, 0, 0)" stroke="rgb(60, 60, 60)" stroke-width="1px" opacity="0.25"></line></g></g></g><g><g><line x1="0" y1="106.84619979858398" x2="258.0319995880127" y2="106.84619979858398" fill="rgb(0, 0, 0)" stroke="rgb(153, 153, 153)" stroke-width="1.5px"></line></g></g><g><g><line x1="23.457454508001156" y1="0" x2="23.457454508001156" y2="178.07699966430664" fill="rgb(0, 0, 0)" stroke="rgb(153, 153, 153)" stroke-width="1.5px"></line></g></g><g><g><g><g><g><path style="fill: none;" stroke="rgb(255, 112, 67)" stroke-width="2px" d="M23.479035366148512,394.95472112724156L23.483257707959957,98.84500022337116L23.500616224295875,48.61134841985486L23.504838566107317,347.03244626117896L23.513752398820355,83.02629316102897L23.517974740631796,108.30671919954045L25.38190407583757,8.926146145641155L25.38612641764901,86.985623330262L25.39034875946045,173.77917034447083L25.39457110127189,142.67826625823758L25.39926259217349,55.70879183130717L25.40348493398493,97.7725763872011L25.420843450320852,136.70351209820168L25.42506579213229,213.13466669797165L27.319020669108305,163.70499982407614L27.323712160009904,224.06107763429569L27.332156843632784,134.59198617515324L27.345293018157264,86.91513835355838L27.349515359968702,213.99052378322725L29.248161727846316,206.10552989733765L29.25238406965776,131.37279166098966L29.26552024418224,123.03992805078761L29.26974258599368,139.54377862146907L29.27396492780512,189.02281238132403L33.12708640528939,197.36651792700542L33.13177789619099,165.71228955054772L33.13600023800243,161.1546139506703L33.14022257981387,139.9864222569076L35.02151043135556,126.06384661727438L35.05622746402741,142.8618701673601L35.064672147650285,166.5313930867183L36.92860148285605,162.9805962859069L36.932823824667494,184.02885029969312L36.9633185155279,184.43404118389313L36.97598554096222,144.77061460412995L36.98489937367526,181.26453160115938L38.85305105069247,178.72450820303416L38.87040956702839,150.90695295886616L38.87463190883984,150.98769892207L38.87885425065127,150.4081045077694L38.891990425175756,148.62924147131713L38.89621276698719,134.87613895272557L38.909348941511674,136.86617513423002L40.78594530215177,123.13753819024984L40.79485913486481,111.85944721777832L40.80330381848769,129.56649424671667L40.807526160299126,136.66092006790768L40.81221765120073,135.7064782760171L40.81643999301217,133.43701179179368L40.82066233482361,117.18187803673052L40.824884676635044,122.65692834575087L40.833798509348085,150.26898349415978L42.701950186365295,158.92369400921865L42.71461721179962,179.01483389820305L42.71930870270123,181.54812435820153L42.72353104451266,176.696582979544L42.73197572813554,172.70557326235152L42.736667219037145,161.7704406396065L42.740889560848586,148.14798543535989L42.74933424447146,142.49867528506667L42.75402573537306,137.49427608003924L42.76247041899594,135.6956885207542L44.626399754201714,134.66225080552758L44.6348444378246,135.23891423374215L44.63906677963604,158.76525917038026L44.652202954160515,163.53497814616586L44.66956147049643,145.3925402887282L44.673783812307875,136.8101463272855L44.678475303209474,127.92843902555092L44.682697645020916,145.13170558208392L46.550849322038125,139.02412197123118L46.555071663849574,136.28076067703492L46.56351634747245,124.413624497348L46.57243018018549,141.3034805864374L46.576652521996934,130.81231212768887L46.58087486380837,130.62967567607834L46.585566354709975,128.38567705835356L46.59401103833285,119.74683571730014L46.598233380144286,117.2903135861533L48.48796591530886,109.33434331858383L48.50532443164479,99.43584696856095L48.52268294798071,97.64937364773712L48.527374438882305,96.67151430244954L48.53159678069375,97.21721184762505L50.40819314133384,112.00907725005705L50.41241548314528,112.26447240699046L50.41710697404688,100.90022458863682L50.42132931585832,94.87636851142362L50.4344654903828,101.4391974555112L50.43868783219424,119.74381388649519L50.451824006718724,129.35324074152754L50.45604634853016,128.27065028801175L52.324198025547375,122.54723157000282L52.32842036735882,121.7159074725663L52.33264270917025,107.18989711564528L52.34155654188329,100.50685926008529L52.345778883694734,110.83950078248724L52.350001225506176,99.4631218824071L52.35422356731761,102.6275842396465L52.35891505821922,95.11534209470454L52.36313740003065,97.2728119742131L52.376273574555135,103.51463799982538L52.380495916366584,101.43626090228521L54.248647593383794,94.07976836216169L54.26600610971971,80.01786918602843L54.270228451531146,90.90693100384856L54.27867313515404,89.20752156290294L54.28758696786707,102.28912633713345L54.29180930967851,86.67175541543448L56.173097161220205,99.56521654874336L56.185764186654524,91.34020453933546L56.19045567755612,94.26266280090141L56.194678019367565,93.54716906932326L56.198900361179,90.7765649988878L56.20781419389204,97.71461626999073L56.225172710227966,95.38809966936564L56.23361739385085,106.33502882137908L58.10176907086806,99.93223446355053L58.1059914126795,111.34443965551804L58.110213754490935,97.80131145668517L58.12757227082686,96.06438897621494L58.13226376172846,99.07909007251064L58.14070844535134,102.95907042694913L58.14962227806438,95.75058059892133L58.15806696168726,110.99644175037719L60.039354813228954,111.92992451750546L60.04779949685183,105.70579564625213L60.05202183866328,109.21993590717994L60.065158013187755,108.6775486810514L60.0740718459008,104.38948654404791L60.07829418771224,99.51712262745023L60.08251652952368,95.97590534373842L61.95066820654089,90.00437898159683L61.954890548352324,88.02750507638038L61.95911289016377,84.21010865889913L61.97647140649969,92.57576181139544L61.98116289740128,87.27090723110753L61.989607581024174,89.2794207441467L62.00274375554865,88.40449716857293L63.87934011618874,77.23424111895204L63.883562458000185,69.07086025455541L63.888253948901784,59.315308118155926L63.89247629071322,56.58961550682804L63.9009209743361,58.17924537607479L63.914057148860586,58.05405277599128L63.91827949067203,62.11628612285446L63.92297098157363,54.19318676682218L65.79534500040228,53.681462093789065L65.79956734221372,54.800865242399965L65.8080120258366,51.85669868476239L65.83428437488556,63.24330624551564L65.84272905850844,55.95795129671963L65.84742054941003,52.85414991742543L65.85164289122147,40.35967809881615L65.85586523303293,41.27068347286357L67.7197945682387,38.650508738378164L67.72823925186157,28.10739112992593L67.73246159367301,35.32063305012508L67.75451160091053,38.62342629826844L67.75873394272197,37.15065108382083L67.76717862634486,41.02547516132245L67.77609245905789,44.064631755891355L67.78031480086933,42.93322591264652L69.64424413607512,38.9299026754324L69.65268881969799,38.18366865080617L69.65691116150943,34.945727415389285L69.66160265241102,29.195877464313213L69.66582499422246,20.186100409480588L69.67426967784534,19.657026537456204L69.67896116874695,23.818615682102063L69.68740585236984,19.25921117320499L69.69162819418126,22.45360225653957L69.70054202689431,24.790453345744112L71.56869370391152,22.93742088927499L71.5771383875344,21.026684764125463L71.58136072934583,12.89907155572422L71.58605222024745,8.47139891806816L71.59449690387032,7.211278487374926L71.59871924568176,3.696724464742374L71.61185542020625,5.789002949216012L71.6160777620177,5.335010740806894L71.62076925291929,7.75134748018624L71.62499159473073,17.60010921365506L73.49314327174794,20.807957177471167L73.49736561355938,21.641075023830638L73.50158795537082,18.234102452764773L73.50581029718225,26.135533393983053L73.52786030441978,24.852319499039766L73.5452188207557,21.112812392217307L73.54944116256715,19.691991148963353L75.41759283958434,20.285547879808547L75.43025986501867,25.18204736282496L75.46075455587908,28.10273929599373L75.46497689769052,23.285649233985822L77.34204240742076,22.115256353565627L77.3462647492322,27.569155800351382L77.35048709104365,33.77321772598495L77.35940092375668,28.824206243750695L77.36784560737956,27.640868111363943L77.37675944009261,27.66176195034612L77.38520412371548,29.608205380933782L79.2838504915931,26.141412544245924L79.28807283340454,29.723834348892808L79.29229517521598,29.50064777794475L79.29651751702743,33.482267497919025L79.30543134974047,38.03501573776413L79.3096536915519,31.8059842298577L79.32278986607638,35.89823620115433L81.19516388490504,38.554754201709954L81.22096708486384,39.961418959337834L81.22565857576544,46.75615769297494L81.22988091757688,41.84616259951406L81.23410325938832,41.71102237653548L81.23832560119975,39.135413025859236L81.2472394339128,43.02555016881101L81.25146177572424,37.36840741271169L83.11539111093,35.41990713293296L83.12383579455289,34.891867417753076L83.12805813636433,34.423028570496456L83.13274962726594,34.2836048007145L83.1411943108888,36.82815917003907L83.15010814360184,31.402710769414142L83.1543304854133,30.023830198775926L83.17168900174921,31.09674131012423L85.04828536238931,35.45489181283446L85.0614215369138,31.718696401265646L85.06564387872523,35.30882838751191L85.07455771143826,39.11848548810016L85.0787800532497,46.74449410869718L85.08722473687259,43.16871702584109L85.09613856958563,45.27750682054267L86.96851258841427,45.13019371095845L86.9990072792747,42.68195914624951L87.011674304709,40.86289222188975L87.0163657956106,42.61538981138992L88.88873981443926,42.53533799822924L88.89296215625069,47.32193952447591L88.89718449806213,52.86480859289631L88.90609833077517,54.50644456725978L88.91032067258662,48.065662158102924L88.91454301439806,48.39853336120467L88.9187653562095,49.51262979328129L88.92767918892254,43.48419683365853L88.9492600470699,44.41913216738973L90.81318938227567,52.69928645725592L90.83899258223447,50.000841980329L90.84790641494752,50.769232961998725L90.85212875675896,47.15751831555616L90.8563510985704,54.660251762773115L90.86057344038183,53.142446112880364L90.86526493128343,51.97668124589876L90.86948727309486,54.55296951965063L90.8737096149063,51.64063489835496L92.73763895011209,46.766761001446014L92.74186129192353,44.815746242763566L92.74608363373495,40.3086578557988L92.754997466448,46.09432348611L92.76766449188233,45.101663681471905L92.77235598278392,50.2673513447846L92.77657832459536,47.21071677052501L92.78502300821823,57.66023161994036L92.78971449911985,55.845980481332376L94.66208851794849,52.936726855751346L94.67053320157139,65.56997366353826L94.67944703428442,64.98519524390845L94.68366937609585,66.99559516017764L94.69680555062034,65.50517393074006L94.70102789243178,66.1927793602063L94.70525023424322,67.21971358981212L94.71416406695626,60.851017756622014L94.7183864087677,60.15478648791971L94.72260875057913,60.92418261233631L96.59076042759635,60.91680970501075L96.59920511121923,62.35342820430873L96.60389660212084,60.990036019775616L96.61656362755515,61.138351165071356L96.62125511845674,58.337622401795585L96.62547746026819,56.04823817567272L96.62969980207963,51.501567848198434L96.63392214389107,49.89075151992293L96.63861363479268,57.602506377111936L96.64283597660412,56.486638353530736L96.64705831841556,57.22307483890273L98.51520999543277,57.38829289574733L98.51943233724421,59.11901347549883L98.53679085358013,59.949463896607156L98.54101319539156,57.137893752289685L98.54570468629318,50.38110867692512L98.55414936991605,58.321833343411555L98.55837171172749,59.520879715124835L98.56306320262908,59.75903357244019L98.56728554444052,62.70286210226091L100.43543722145775,60.240097638115955L100.44388190508062,55.612902474972174L100.44810424689206,55.17869050011048L100.45279573779366,53.88996734820006L100.46124042141655,58.493395453304686L100.47015425412958,59.860826592365086L100.47859893775245,63.36448966938052L100.48282127956391,67.06372039404805L100.4875127704655,64.86743472371917L102.35988678929417,60.93307541832377L102.37724530563007,58.94043445993495L102.38146764744151,64.30952264614857L102.3899123310644,67.36827866679381L102.394603821966,64.71402559878486L102.40304850558888,61.043153405359035L102.4204070219248,59.149819335562995L104.28433635713057,54.34212564049976L104.29278104075345,62.021495465894475L104.3016948734665,62.69498650753782L104.3190533898024,59.528355161725L104.33172041523675,63.753958595459565L104.33641190613834,63.13990957163648L104.3448565897612,71.08034101303546L106.20878592496699,74.55132796928994L106.21300826677843,69.01990480944508L106.21723060858987,67.19977068723372L106.22145295040131,70.86961335346872L106.2261444413029,68.97949723942727L106.23036678311435,69.96011320915673L106.23458912492578,68.18819383055775L106.23881146673723,62.72727847785369L106.25616998307315,61.42923289474771L106.26086147397474,64.31559718229052L106.26930615759764,66.59068619567923L108.13745783461484,68.52102791714148L108.15059400913933,72.00924200008572L108.15903869276221,70.35109129181384L108.16326103457364,71.29477622461272L108.16795252547524,68.56844629215075L108.18061955090957,72.341137198862L108.18531104181116,70.27640032692153L108.1895333836226,72.43302629174315L108.19375572543404,71.46271869818507L110.05768506063983,66.02657081056266L110.0661297442627,65.19872326245081L110.07035208607414,67.42573982456177L110.07504357697573,65.79673443778299L110.08348826059861,66.55978028908932L110.08771060241006,62.27130522127537L110.09240209331166,71.92078668350915L110.0966244351231,71.07219027788578L110.10084677693453,73.66580284187076L110.10506911874597,70.4785527286762L110.11398295145902,74.21745389313621L110.11820529327046,70.06230846236282L111.9905793120991,64.11284531440762L112.00793782843503,65.36982076130577L112.02107400295952,68.94606186251794L112.02529634477095,71.0474159305324L112.02951868658239,70.97833151007256L112.034210177484,69.22455677596169L112.03843251929543,66.8686645018405L112.04265486110687,66.77160247325742L113.90658419631265,63.87892301722522L113.91080653812409,60.67308984749987L113.91925122174696,62.55268296027421L113.92394271264855,69.94335415035276L113.92816505446,72.62973195935552L113.94552357079593,72.41350290515798L113.96288208713185,70.9662216676486L113.96710442894329,69.53243553276097L115.8352561059605,69.72139701255526L115.83947844777194,68.09815182833016L115.84370078958338,66.14141196010453L115.84839228048499,60.166307877115074L115.85261462229641,62.797019218179784L115.85683696410786,65.07641081148134L115.86997313863235,65.05328757192913L115.87419548044379,65.16044360487285L115.87841782225523,69.67644435535996L117.75970567379692,72.21397651678328L117.7681503574198,70.03889374945173L117.77284184832139,73.71405267842555L117.77706419013283,77.51920769170987L117.78128653194427,75.21229600300275L117.79020036465731,75.91765779623168L117.80286739009163,75.34531865610772L117.80755888099324,71.00591880840929L119.67993289982188,65.64631160521346L119.68415524163332,63.601269179472524L119.68837758344476,65.11581586745628L119.69259992525622,61.169835982261475L119.69729141615781,59.84485117670471L119.7057360997807,61.41756500559954L119.71887227430517,59.739472574582095L119.72309461611661,60.987682806700235L119.73200844882965,61.179099655549365L121.60438246765831,60.05543082921828L121.60860480946974,60.62898184456229L121.61282715128118,55.45779731284016L121.62174098399421,57.36819751748838L121.62596332580567,56.9486838596557L121.63018566761711,55.25847239452557L121.63440800942855,53.64392027063427L121.63909950033015,56.56493627092179L121.64332184214159,61.01018836509357L121.64754418395302,60.711362592145804L121.65176652576446,58.720734708912474L121.66490270028895,60.03952092930754L123.52883203549472,62.52330987609497L123.54619055183063,63.54093761516805L123.55041289364208,65.09175303169877L123.55885757726496,67.73273279387764L123.56777140997801,67.25533495801358L123.57621609360088,63.472313891850845L123.58090758450248,64.16020439104233L123.58512992631391,62.91204234353147L123.58935226812535,62.21158486750224L125.45328160333113,59.838146608364355L125.45750394514258,55.20454958973917L125.46594862876545,58.96005236238908L125.4748624614785,59.95051179323957L125.48330714510138,59.020426243543724L125.49644331962585,59.56998616441395L125.5006656614373,58.328092579382144L125.5053571523389,58.36630766097656L125.50957949415034,61.92051007813103L125.51380183596177,66.56593323371926L127.381953512979,62.55954747935375L127.39039819660188,66.46880126701531L127.39931202931491,63.03800148679956L127.40353437112634,60.966291940254735L127.41244820383939,62.88492673308863L127.42511522927371,61.045674122391446L127.43402906198675,65.80208605467948L127.43825140379819,68.0920722811957L129.30218073900397,66.16577242119796L129.3148477644383,64.80495236735631L129.32798393896277,63.80007953694111L129.3322062807742,63.328837514060226L129.34112011348725,62.801614033844515L129.3495647971101,62.59551573556156L129.35847862982317,62.590432351869964L129.36270097163458,60.396965608831295L131.2392973322747,64.17756229085569L131.24821116498774,64.55686940270122L131.25243350679918,64.70470513745683L131.25665584861062,65.74683096050441L131.2613473395122,61.06922793238191L131.2697920231351,62.588164163635824L131.27401436494654,64.00158281861837L131.27870585584816,68.01220811240218L131.28292819765957,68.10223185423878L133.1595245582997,64.7859738548675L133.1684383910127,75.70151474509255L133.17266073282417,75.77213916567364L133.17688307463558,76.56034656023371L133.18110541644702,79.38768939192296L133.18579690734862,78.79638776809013L133.20315542368456,75.61004002012046L133.20737776549598,76.18768480972777L133.21160010730745,75.93664431316424L135.07552944251321,75.4597168836503L135.0881964679475,80.7523782642392L135.09288795884913,78.35621273149313L135.09711030066057,77.67928486990377L135.10133264247202,74.2964293443215L135.10555498428343,75.78437089683095L135.1144688169965,81.54660136207438L135.1186911588079,80.65691351339814L135.12291350061938,77.6944452441219L135.12760499152097,77.41982186759425L135.13604967514385,78.45474308231718L137.0084236939725,77.99425572483352L137.01733752668554,77.58238216697693L137.02155986849698,78.38275005868157L137.03000455211986,74.54816305778964L137.03469604302148,74.41266470334176L137.0389183848329,74.9293027309236L137.04736306845578,75.82109219718964L137.05205455935737,76.42352631302724L137.06049924298028,72.33436139051396L138.92442857818602,68.47423475461082L138.9460094363334,63.891265763814985L138.9544541199563,65.39430781796837L138.9591456108579,63.929999400413635L138.9633679526693,68.17082789379627L138.96759029448074,67.28836890584448L138.9718126362922,63.84138050787831L138.9765041271938,69.36681840290498L138.98072646900522,70.00426965272999L140.84887814602246,72.78830290899944L140.8531004878339,76.21356708482357L140.85732282964534,74.04588189374327L140.87045900416982,77.51009158303049L140.87468134598123,72.15003740499708L140.8789036877927,75.22175370479682L140.8835951786943,76.10396613562442L140.89203986231718,73.89557641714387L142.7775500556703,74.01818887754509L142.78177239748175,73.10005054959181L142.78599473929316,69.1001186463678L142.79490857200622,70.48512431461786L142.81226708834214,68.43828894739634L142.82540326286662,70.9205791601734L144.69777728169527,70.29913317431148L144.71044430712962,75.02992489584045L144.7151357980312,73.74329987922087L144.72358048165407,72.15901793795253L144.72780282346554,71.19663730497803L144.73249431436713,70.62532596503205L144.73671665617854,69.32459248121657L144.74516133980143,68.09259829780301L144.74985283070302,69.34866237630507L144.7540751725145,65.95237272046217L144.75829751432593,65.96563504210971L146.62222684953167,65.18007652128236L146.62644919134314,66.04304043005315L146.63067153315455,67.04576142365082L146.63489387496602,65.52367368797925L146.63958536586762,67.16808074803075L146.6480300494905,66.097347243095L146.65225239130194,63.3858748480736L146.66116622401498,63.05267051862761L146.66961090763786,60.58924773892154L146.67430239853945,61.90531093151941L146.68274708216234,65.8582311709847L148.55089875917955,65.37387411990898L148.555121100991,62.97923094461733L148.55934344280243,63.02436479803315L148.56403493370402,60.98037796774494L148.57670195913835,60.808178932452634L148.58139345003994,61.32674634732233L148.5856157918514,62.01570951271792L148.58983813366282,59.11916659747082L148.59875196637586,58.087294041928615L148.60297430818733,57.9404617959421L150.49692918516334,61.06861190785703L150.51006535968781,61.51071474378716L150.51428770149926,56.64717641277409L150.5232015342123,55.360783804620596L150.52742387602373,53.77383704425726L150.53164621783515,55.8970787905256L152.39557555304094,58.29270142160098L152.40824257847527,57.15350837848156L152.41293406937686,57.574888613337734L152.42137875299974,60.74405402036045L152.42560109481119,61.40415623720919L152.43029258571278,62.68678635555689L152.43451492752422,60.20986794800818L152.44765110204872,57.65021164359999L154.34160597902473,58.80925063134667L154.34582832083615,59.02951157415514L154.3500506626476,58.388711150614256L154.35896449536065,59.44276476736833L154.36740917898354,58.3814292939218L154.37210066988513,62.2769730369522L154.37632301169654,62.146991530858045L156.24447468871378,62.121700331123265L156.2486970305252,60.21007123994144L156.25291937233666,59.80832310420267L156.25714171414808,58.42185437463169L156.26183320504967,58.21029192164073L156.274500230484,59.47525062479414L156.27919172138562,60.73092785441226L156.28341406319706,61.007045455906905L156.30499492134442,58.37355307536855L158.1731465983616,60.51425086117966L158.17736894017307,56.35157555580187L158.1862827728861,58.429159333763266L158.19050511469754,60.689328522135185L158.1989497983204,59.31267702493592L158.22522214736938,59.613140332112394L158.22944448918082,64.97624463882624L160.09759616619803,64.71224933462479L160.10181850800947,64.65392943063814L160.10604084982091,64.41391118980364L160.12339936615686,62.51481031067013L160.12809085705845,63.443725769464336L160.13231319886987,62.137967799692774L160.1365355406813,62.78177759323454L160.14075788249275,62.22888642665566L160.14967171520578,65.38759342359835L162.017823392223,65.876895274206L162.02204573403446,63.88774894934163L162.0262680758459,62.665023567922404L162.03049041765732,60.446085751970514L162.0351819085589,59.46381175374381L162.03940425037038,59.38614352438337L162.0436265921818,58.38798586945745L162.06098510851774,61.72587337671159L162.06989894123078,60.76557513355428L162.0741212830422,63.655236605456864L163.95963147639537,66.34882308393155L163.96807616001823,65.53146234390509L163.97698999273126,63.907928223801264L163.9812123345427,62.964851922400726L163.98543467635415,58.22803726402765L163.99434850906718,55.407291599491586L165.86672252789583,56.64462219224849L165.8709448697073,56.118152081509805L165.88408104423178,59.57747021408352L165.89252572785463,60.912028091955804L165.9056619023791,61.12600726394932L165.91879807690358,57.100506505347454L165.92302041871505,58.089991667433225L167.79117209573224,59.874969656561404L167.7953944375437,59.64171647325723L167.79961677935512,60.61268698260912L167.8038391211666,61.618578525366075L167.80853061206818,61.734524556440505L167.81275295387962,60.59997051262539L167.81697529569107,56.772886644795136L167.8258891284041,56.10598066923474L167.8301114702155,57.366246818012186L167.83433381202698,57.84004258700399L167.84746998655146,57.228069534930825L167.8516923283629,55.12731280876095L169.7198440053801,52.58128584732802L169.75456103805197,49.546732826546986L169.7587833798634,51.18779298659355L169.76300572167483,48.15627419682568L169.76769721257642,50.03531253342797L169.77191955438786,49.12618259454257L171.6400712314051,47.1611000981338L171.64429357321652,45.22878914272758L171.64851591502796,42.75216022031438L171.6527382568394,43.85346823050432L171.66165208955243,43.22560386623496L171.6658744313639,45.6549329368396L171.67009677317532,44.25120890042737L171.67901060588838,43.59403009006999L171.6832329476998,43.73778010662744L171.69214678041286,43.814108455903636L173.59454634101172,42.019443105101715L173.60768251553623,43.70424651436002L173.61190485734767,44.32694700061106L173.61659634824926,44.34680774502496L173.6208186900607,43.68189200627975L175.4889703670779,45.663224098934336L175.49319270888935,41.74714809881752L175.4974150507008,43.94676648968371L175.50632888341383,43.66541829222041L175.51899590884815,40.77281658220181L175.52368739974975,41.92817683003179L175.5279097415612,44.756982646634725L175.53213208337263,45.11855984196865L175.5363544251841,40.90156434167548L175.5410459160857,41.80291709990851L175.5452682578971,42.507529894654596L175.54949059970855,43.61613295548523L177.41764227672576,46.00051649473613L177.42608696034864,44.246676127955084L177.43077845125023,43.489805394749595L177.43922313487312,44.17421586333964L177.44813696758615,42.04614398575109L177.45658165120904,41.5809255296607L177.4608039930205,40.26090180697102L177.4654954839221,42.544802010702114L177.46971782573354,41.70701577105157L177.47394016754498,40.303873912508664L179.33786950275075,42.0983493925566L179.35522801908667,44.76264006251401L179.37680887723403,44.41045778132184L179.38103121904547,46.42879530580959L179.3899450517585,45.87899654984079L179.39416739356994,46.55039743149953L179.3983897353814,43.992706479113565L181.27076375421004,42.1168530407098L181.27498609602148,43.947027215551884L181.27967758692307,41.90876888387564L181.28812227054595,42.77130596139645L181.29703610325902,44.74649401050826L181.30125844507043,44.888865549048745L181.31439461959494,43.61796632937964L181.32283930321782,42.72796251544091L183.19099098023503,45.42561241962292L183.19521332204644,46.7178843859009L183.20412715475948,47.2360336465334L183.20834949657095,46.97742413895412L183.22148567109542,43.927615573354984L183.22570801290686,46.973950060009656L183.2299303547183,47.33111758617164L183.23884418743134,47.14175824005173L183.24306652924275,48.34564640728098L183.24728887105422,49.46302415820216L185.11544054807143,47.60357281945255L185.11966288988287,50.63627343043818L185.1238852316943,47.4101410598098L185.1285767225959,47.5669413533131L185.13279906440735,47.82265891060578L185.1370214062188,46.87618372612255L185.14593523893183,52.94251520797232L185.15860226436615,53.46279936372834L185.16329375526774,50.49982266157495L185.17173843889063,50.581174961541166L187.04833479953075,52.67628037209704L187.05302629043234,53.93706965332376L187.0614709740552,55.19292301719271L187.06569331586664,55.40676455335486L187.07882949039114,54.45067737032922L187.08774332310415,53.81393028460238L187.09618800672703,53.5536059954501L188.96433968374427,54.42729812211695L188.96856202555568,54.15104037227559L188.97278436736715,53.47862356100589L188.97747585826875,51.726401149496354L188.98592054189163,53.55160166779203L188.99905671641608,53.64852089822445L189.00327905822755,52.520526664052966L189.01219289094058,50.96301054042843L189.01641523275202,50.294010405520154L189.02063757456347,51.37145337654175L190.88878925158068,50.9460999496588L190.9061477679166,52.97036062913217L190.91459245153948,54.615391815015L190.91928394244107,53.03421313645268L190.92772862606395,53.217669221147204L190.9319509678754,52.784919034357L190.936642458777,50.89432672705625L190.94086480058843,51.864374809755645L190.94508714239987,51.41535753538504L192.80901647760567,51.82734817906024L192.82637499394156,49.656378789770514L192.830597335753,47.772892960492584L192.83481967756447,47.80780429640225L192.83904201937588,48.40726767212803L192.84373351027747,50.355756973043256L192.85217819390036,53.70302273213318L192.86109202661342,53.17221074586131L192.86531436842486,56.19564124311765L192.86953671023628,55.62945004054775L194.73346604544207,54.61926250538107L194.73768838725348,54.86278398264467L194.74191072906493,58.670482657062706L194.7550469035894,60.038602742409196L194.7681830781139,60.0246537996305L194.7766277617368,60.239981869014386L194.78554159444982,59.70779156084082L194.78976393626127,60.7817003026729L194.79398627807268,61.62433511937749L196.65791561327848,62.50837988533402L196.66213795508992,60.17451792049657L196.67949647142584,61.037225223308596L196.69685498776175,58.83888499529846L196.70529967138464,60.29210591825374L196.70999116228626,58.12367489975463L196.71421350409767,56.75862926666581L198.58236518111488,59.29591571659111L198.58658752292632,55.01355072928837L198.5908098647378,54.662179177037615L198.60394603926227,54.368615697910585L198.61708221378672,52.922219837715346L198.6213045555982,50.328458397707465L198.6255268974096,52.68386266337852L198.63444073012266,53.968635983199505L198.63866307193408,59.92864112491854L198.64288541374555,58.625234351961L200.51103709076273,62.732811044121334L200.5152594325742,61.841256938614066L200.52417326528723,59.001225942056124L200.52839560709867,63.092709992440476L200.53261794891012,62.97993877989366L200.53684029072153,62.2353677814793L200.54153178162315,61.87107416550755L200.5457541234346,61.639450970402805L200.55419880705747,60.091058525926286L200.55889029795907,58.152352845732864L202.43126431678772,57.52408055349777L202.45284517493508,58.39264303493884L202.470203691271,58.277150737728576L204.364158568247,57.424187874990636L204.36838091005845,56.69240634468443L204.37307240096004,54.80359135400312L204.3772947427715,54.89892844758522L204.38151708458292,53.64439754035831L204.3946532591074,57.96021629653873L204.39887560091887,56.544767152669806L204.4077894336319,59.283520120549454L204.41201177544332,60.35565886072938L206.28016345246056,62.07289342550183L206.284385794272,65.53072922811033L206.28860813608344,66.06871825782122L206.29283047789485,66.39226942373239L206.30174431060792,66.33638754302389L206.3101889942308,67.66033483471243L206.3148804851324,64.819265646386L206.31910282694383,66.32839092748992L206.32754751056672,63.9709016949279L206.3322390014683,64.29737060878958L206.33646134327975,60.68114713848365L208.20461302029696,62.51170126178543L208.21305770391984,60.90103116796345L208.2393300529688,59.794325289511775L208.2477747365917,61.07644577101185L208.2651332529276,59.165068138336736L210.12906258813337,60.63831077289554L210.13328492994484,60.7795581950523L210.15064344628072,61.71629233796277L210.1722243044281,62.353041164575686L210.17644664623953,59.8329743687985L212.05351215596977,60.41701660812153L212.06617918140412,63.60183981751314L212.07087067230572,66.6639163296713L212.08353769774004,64.47596924765504L212.08822918864163,62.31467733059014L212.09667387226452,63.57591286528883L212.10089621407596,62.89135009013985L212.10558770497755,62.803942040572494L212.109810046789,62.11135773225875L213.97796172380623,61.80261344265213L213.98218406561764,62.108026437299614L213.99532024014212,65.44607313247222L213.99954258195356,63.457640132378486L214.003764923765,60.69685880024137L214.00798726557645,62.44904251140319L214.01267875647804,63.53657990563673L214.03003727281396,61.439122580175834L215.90241129164264,61.23093836946241L215.90663363345405,63.8492358799876L215.9108559752655,63.40080744071483L215.91507831707693,63.31094839728411L215.92399214978997,63.51100251691305L215.92821449160144,64.82506922341491L215.93243683341285,65.75535796949609L215.93712832431444,65.58259954412391L215.9413506661259,64.2876545361747L215.94557300793736,64.76876554681259L215.94979534974877,65.94177852033344L215.9544868406504,62.73547536978994L215.95870918246183,61.344134656636484L217.83108320129048,60.28354825808951L217.83952788491337,61.67269581969224L217.86157789215088,60.74857553488691L217.86580023396232,59.26630084305265L217.87002257577376,63.54563301335993L217.87893640848682,62.851595374531826L219.7555327691269,61.39527570105932L219.76866894365136,62.85352385401521L219.77711362727425,62.388771121346664L219.79447214361016,61.80870846947272L219.79869448542163,64.51102619997583L219.80338597632323,64.63294521634715L219.80760831813464,66.21968638281054L221.6799823369633,64.8679391968083L221.68842702058618,63.15303713009992L221.69311851148777,63.62330185264871L221.69734085329924,64.27532534361376L221.70156319511068,66.6441430139778L221.7057855369221,65.23552630902914L221.71469936963516,62.99620833988985L221.71892171144657,64.81869001485347L221.73205788597107,70.56285770300089L221.73628022778252,67.87270464579264L223.6044319047997,65.55692977216955L223.60865424661117,66.21645671552005L223.6128765884226,66.61584789524146L223.63492659566015,68.04796355761789L223.63914893747156,66.72046825410534L223.643371279283,67.596305869679L225.537326156259,66.32442157371918L225.5420176471606,66.04176740091167L225.54623998897208,65.9871595191479L225.55468467259496,67.71902937730714L225.55937616349655,69.58740918421317L225.56359850530797,69.420912641404L225.56782084711944,70.60809253136169L225.57204318893085,72.03102585618522L225.57673467983247,71.10592225330578L225.58095702164388,69.45815628970561L227.4491086986611,72.23234176101953L227.457553382284,73.75735129885729L227.46177572409542,73.13474942403117L227.46646721499704,72.0655761848918L227.4749118986199,70.04315936311745L227.47913424043136,68.7631931585921L227.4880480731444,71.26488069691835L227.49649275676728,70.44330201575693L227.50118424766887,70.44323836938568L227.50962893129176,70.28233894831855L229.37355826649753,70.69041143506568L229.39091678283347,69.354619235429L229.39513912464488,67.66730911906525L229.39936146645633,67.01426506435247L229.40358380826777,65.39223976376614L229.40827529916936,66.39448392552885L229.4124976409808,69.43418996384064L229.41671998279224,71.47131842078295L229.42563381550528,74.0283317294793L229.42985615731675,73.5818480629001L229.43407849912816,72.2294363493515L231.29800783433393,71.9161798930401L231.31536635066988,71.17993211692496L231.32381103429273,69.28007095777687L231.32803337610417,69.8906900021763L231.3327248670058,70.70309352353891L231.34116955062868,66.77214579874656L231.35008338334168,68.41323409993676L231.35852806696457,67.63333323966658L233.2266797439818,67.44166760288938L233.23090208579322,66.95953104056028L233.2351244276047,69.73800357776125L233.24403826031772,67.37914844692821L233.24826060212916,68.31857131777033L233.2524829439406,69.79592007403798L233.2571744348422,69.66046752938729L233.2613967766536,66.52960901326887L233.26561911846508,64.2900561152018L233.2698414602765,66.20159582976468L233.27453295117812,63.93032846659035L233.27875529298956,63.75092112760932L235.1511293118182,64.5842583733729L235.15535165362965,61.363322608967266L235.16426548634269,61.87352132416565L235.16848782815413,62.7028378952737L235.1816240026786,65.85477525987811L235.18584634449007,64.84379124975585L235.1900686863015,65.12234623516714L235.19429102811293,63.16221858834324L235.19898251901452,65.2796365936473L235.2074272026374,65.28066562965161L237.0840235632775,66.494393755967L237.09293739599053,66.14864662766328L237.097159737802,64.8447287345544L237.10138207961342,68.41201066063607L237.1145182541379,70.49850742038524L237.11874059594933,67.0481729657742L237.1276544286624,68.09488694042776L237.1318767704738,68.32709172387506L238.9958061056796,69.91238033074882L239.0042507893025,69.04874534056104L239.00847313111393,68.69153958980714L239.01316462201552,68.21449163210033L239.01738696382694,67.4395225868893L239.02583164744982,67.85046007407539L239.03474548016288,66.0673595998448L239.04319016378577,66.67448330741921L239.04788165468736,66.52385042879096L239.05632633831024,66.57567865467752L240.920255673516,67.30332680821397L240.92447801532745,66.95550463486265L240.9287003571389,67.54304068294185L240.93761418985193,70.88244026251482L240.95028121528625,71.49560614054558L240.95497270618785,73.06388167647411L240.9591950479993,73.21561887197267L240.96341738981073,73.67446393528246L240.9676397316222,69.74280807518225L240.9765535643352,70.9905554768818L240.98077590614668,70.29337296861014L242.84470524135244,70.80790960544793L242.84892758316386,71.4282153295934L242.85314992497533,68.4070739980182L242.85737226678674,70.42474628569083L242.86206375768833,68.63683034569999L242.8662860994998,69.72752736298307L242.87473078312266,69.98225502150606L242.87942227402428,69.01176406126761L242.88364461583572,71.40004234993178L242.90100313217164,71.33292794973816L244.77337715100026,70.91212414695379L244.77759949281173,69.34163207619055L244.78182183462314,68.93385314032793L244.79495800914765,69.18016185433763L244.7991803509591,70.14075503049064L244.80387184186068,68.95320654868264L244.80809418367213,71.52533666708432L244.81231652548357,74.41528620218125L244.8212303581966,73.41577263243744L244.82545270000804,77.79290075799034L244.82967504181948,77.3127863977432L246.70204906064814,76.19397351725888L246.70627140245958,74.98285751763302L246.7151852351726,77.20639284386752L246.71940757698405,79.39936752040177L246.72362991879552,77.58885532232281L246.73676609332,79.23032129089998L246.745679926033,80.86909672158274L246.74990226784445,79.6639132569487L246.75412460965592,76.59365545414778L248.61805394486166,77.08195024679013L248.62227628667313,77.33082251035978L248.62649862848454,77.18600437442932" fill="none"></path></g></g></g></g><g opacity="0.2"><g><g><g><path style="fill: none;" stroke="rgb(255, 112, 67)" stroke-width="2px" d="M27.366873876304627,357.70984106159176L29.2308032115104,140.98786862496604L29.23924789513328,740.6125199299169L31.211550670166016,-1774.0721827335735L31.215773011977454,87.8225029933789L33.083924688994664,636.983980178592L38.87040956702839,-1520.5420734304769L38.87463190883984,155.9152242474991L38.87885425065127,114.49468935895113L38.891990425175756,36.73867086740728L38.89621276698719,-743.0689499658306L40.807526160299126,622.6477120190481L40.81221765120073,69.4366044952732L40.81643999301217,-26.248753312789603L42.76247041899594,-12.441028899465806L44.626399754201714,48.598133764509726L44.6348444378246,183.79118574564777L46.576652521996934,-857.5381426393772L46.58087486380837,113.25863968388457L46.585566354709975,-87.07528889987702L48.527374438882305,-2.5038669145322388L48.53159678069375,153.052158255618L50.40819314133384,1638.7539364248937L50.41241548314528,138.85390531338078L50.41710697404688,-1092.412174649318L50.451824006718724,1172.7107646072L50.45604634853016,9.762850194524674L52.324198025547375,-509.0687333134175L52.32842036735882,29.235210475878233L52.33264270917025,-1521.652497359863L56.19045567755612,465.6765436955605L56.194678019367565,1.9915522165947266L56.198900361179,-266.1672579617971L60.05202183866328,604.4886896303997L60.065158013187755,31.77027783502095L60.0740718459008,-507.3078790538782L63.9009209743361,303.87641554995304L63.914057148860586,38.598253923320755L63.91827949067203,696.8424107866184L73.54944116256715,-253.88048440650886L75.41759283958434,135.05079291268316L75.43025986501867,975.8737497055808L77.36784560737956,-208.75984891576474L77.37675944009261,31.85251589845464L77.38520412371548,421.56759780959067L81.22988091757688,-989.7549241419465L81.23410325938832,13.211143717475181L81.23832560119975,-506.06769633013096L83.12805813636433,-66.66238190419878L83.13274962726594,4.1134999036254385L83.1411943108888,589.4392345867839L85.09613856958563,519.6649146523403L86.96851258841427,11.87702517940508L86.9990072792747,-511.85416902795475L87.0163657956106,442.27020657161614L88.88873981443926,24.217909124911756L88.89296215625069,1146.277031862805L88.91032067258662,-1445.5245075436553L88.91454301439806,125.84530285649808L88.9187653562095,309.5752767373374L94.72260875057913,257.9406745856327L96.59076042759635,59.02337832422815L96.59920511121923,432.35670544386835L96.60389660212084,-291.1645776584569L96.61656362755515,99.5569682908051L96.62125511845674,-669.2178864512207L96.64705831841556,251.7880667075713L98.51520999543277,101.15996337844136L98.51943233724421,518.9140030744747L98.55837171172749,382.45540481520425L98.56306320262908,124.07386616801773L98.56728554444052,859.8467438852804L112.02529634477095,727.7769250526708L112.02951868658239,49.34017252093062L112.034210177484,-481.2837223812552L112.03843251929543,-674.2577817095046L112.04265486110687,36.17099272679036L113.90658419631265,-850.0698915935063L113.92816505446,928.7257546741728L113.94552357079593,3.3584310910393924L113.96288208713185,-392.2222215423632L113.96710442894329,-390.31051273355126L115.8352561059605,130.45316772369372L115.83947844777194,-454.70890901177097L115.85683696410786,805.3746300202789L115.86997313863235,57.52775785115185L115.87419548044379,100.10688005764143L115.87841782225523,1545.5032697647766L119.72309461611661,482.22671624737546L119.73200844882965,125.90401826868748L121.60438246765831,-320.63999098941645L125.5006656614373,-384.2734560790641L125.5053571523389,72.01043309277065L125.50957949415034,1333.1771943607994L129.3495647971101,-13.089933436024637L129.35847862982317,60.720450541762375L129.36270097163458,-747.8796666036716L131.24821116498774,204.80686966284784L131.25243350679918,119.46045924256771L131.25665584861062,452.3869920546062L131.27870585584816,1566.0577880963594L131.28292819765957,101.7841366527974L133.1595245582997,-1178.0465219460725L133.1684383910127,4173.3276018315755L133.17266073282417,102.3281487535057L133.17688307463558,373.43106543272927L137.03000455211986,-1416.9911943618029L137.03469604302148,21.625209888161066L137.0389183848329,276.51601749599826L140.89203986231718,-814.4307144008869L142.7775500556703,123.4123047313358L142.78177239748175,-297.3169754634872L144.7540751725145,-1332.3931483838865L144.75829751432593,71.43388489482787L146.62222684953167,-259.17810610451306L148.555121100991,-942.5218384764721L148.55934344280243,82.00202610570696L148.56403493370402,-799.6476761865931L154.34160597902473,560.7541381117319L154.34582832083615,154.54254625174886L154.3500506626476,-219.8475919484485L154.37210066988513,1760.3206786397664L154.37632301169654,5.41565417154402L156.24447468871378,51.06895194556513L156.2486970305252,-776.2834863465705L160.09759616619803,-53.014898987694664L160.10181850800947,38.61425817134713L160.10604084982091,-42.886161454883165L162.0351819085589,-385.5955451719856L162.03940425037038,24.152979973592267L162.0436265921818,-394.9573724071429L165.89252572785463,676.4400295554452L165.9056619023791,159.9330699836334L165.91879807690358,-1803.878140450714L167.8038391211666,529.3335811905915L167.80853061206818,115.70851551862356L167.81275295387962,-468.1511063509996L171.67901060588838,-269.6184261683309L171.6832329476998,112.32435922694773L171.69214678041286,80.27202770466835L173.59454634101172,-816.1306695943609L173.61190485734767,342.7302187160999L173.61659634824926,53.874565727562256L173.6208186900607,-275.6421708265322L181.29703610325902,1027.5942606705257L181.30125844507043,115.80391009665894L181.31439461959494,-590.0515772169457L185.1238852316943,-1583.5921104304136L185.1285767225959,126.91620956102948L185.13279906440735,177.35536625225234L185.1370214062188,-433.02313635129804L185.16329375526774,-1456.2119619438365L185.17173843889063,91.98976870111291L187.04833479953075,1120.1185611279886L187.0614709740552,696.2707467866485L187.06569331586664,164.671322482224L187.07882949039114,-434.53862531052516L188.98592054189163,993.258066981474L188.99905671641608,103.59441508459345L189.00327905822755,-529.3202157694169L190.91928394244107,-767.8995822405589L190.92772862606395,148.55444766998085L190.9319509678754,-172.3101657433025L192.830597335753,-937.3205186785092L192.83481967756447,66.08361226134755L192.83904201937588,362.5066486534796L194.7550469035894,782.7149587876771L194.7681830781139,52.64989523868957L194.7766277617368,174.1844686386173L194.78554159444982,-222.15974418041736L200.52839560709867,2273.7795006434267L200.53261794891012,1.9963286139331728L200.53684029072153,-340.7495967541033L204.37307240096004,-976.0893860012441L204.3772947427715,106.97599923412977L204.38151708458292,-632.2003648192493L206.29283047789485,244.44247619890567L206.30174431060792,35.559514359191354L206.3101889942308,797.4160464068955L210.12906258813337,879.9059321225059L210.13328492994484,139.38955837323195L210.15064344628072,583.4618386731261L212.10089621407596,-321.11130641937774L212.10558770497755,13.734468807344001L212.109810046789,-326.9974200727897L215.9108559752655,-190.6816714746597L215.91507831707693,12.357373749703214L215.92399214978997,177.03588939786715L215.92821449160144,811.0867147521466L219.79869448542163,1619.9558055368204L219.80338597632323,134.86073210192416L219.80760831813464,980.8854288388469L225.5420176471606,-99.02393332691446L225.54623998897208,34.07433119881756L225.55468467259496,1080.5412443298205L227.49649275676728,-414.760802257255L227.50118424766887,70.40562439766697L227.50962893129176,-24.87225530481612L235.19898251901452,1351.3615581908823L235.2074272026374,65.90608672948315L237.0840235632775,804.6413645770249L239.04788165468736,-26.020724565780057L239.05632633831024,98.43740756662594L240.920255673516,514.9092150356939L240.95497270618785,1040.7777364872554L240.9591950479993,166.90392337426206L240.96341738981073,357.1579018135935L242.88364461583572,1557.7894904962989L242.90100313217164,29.537754338310123L244.77337715100026,-191.2997726709757" fill="none"></path></g></g></g></g></g></g><g transform="translate(71, 178)" clip-path="url(#clip_1)"><clipPath id="clip_1"><rect width="258" height="21"></rect></clipPath><g><g><line x1="0" y1="0" x2="0" y2="5" style="visibility: inherit;" fill="rgb(0, 0, 0)" stroke="rgb(204, 204, 204)" stroke-width="1px"></line><line x1="23.457454508001156" y1="0" x2="23.457454508001156" y2="5" style="visibility: inherit;" fill="rgb(0, 0, 0)" stroke="rgb(204, 204, 204)" stroke-width="1px"></line><line x1="46.91490901600231" y1="0" x2="46.91490901600231" y2="5" style="visibility: inherit;" fill="rgb(0, 0, 0)" stroke="rgb(204, 204, 204)" stroke-width="1px"></line><line x1="70.37236352400346" y1="0" x2="70.37236352400346" y2="5" style="visibility: inherit;" fill="rgb(0, 0, 0)" stroke="rgb(204, 204, 204)" stroke-width="1px"></line><line x1="93.82981803200462" y1="0" x2="93.82981803200462" y2="5" style="visibility: inherit;" fill="rgb(0, 0, 0)" stroke="rgb(204, 204, 204)" stroke-width="1px"></line><line x1="117.28727254000577" y1="0" x2="117.28727254000577" y2="5" style="visibility: inherit;" fill="rgb(0, 0, 0)" stroke="rgb(204, 204, 204)" stroke-width="1px"></line><line x1="140.74472704800692" y1="0" x2="140.74472704800692" y2="5" style="visibility: inherit;" fill="rgb(0, 0, 0)" stroke="rgb(204, 204, 204)" stroke-width="1px"></line><line x1="164.20218155600807" y1="0" x2="164.20218155600807" y2="5" style="visibility: inherit;" fill="rgb(0, 0, 0)" stroke="rgb(204, 204, 204)" stroke-width="1px"></line><line x1="187.65963606400925" y1="0" x2="187.65963606400925" y2="5" style="visibility: inherit;" fill="rgb(0, 0, 0)" stroke="rgb(204, 204, 204)" stroke-width="1px"></line><line x1="211.1170905720104" y1="0" x2="211.1170905720104" y2="5" style="visibility: inherit;" fill="rgb(0, 0, 0)" stroke="rgb(204, 204, 204)" stroke-width="1px"></line><line x1="234.57454508001155" y1="0" x2="234.57454508001155" y2="5" style="visibility: inherit;" fill="rgb(0, 0, 0)" stroke="rgb(204, 204, 204)" stroke-width="1px"></line><line x1="258.0319995880127" y1="0" x2="258.0319995880127" y2="5" style="visibility: inherit;" fill="rgb(0, 0, 0)" stroke="rgb(204, 204, 204)" stroke-width="1px"></line></g><g transform="translate(0, 8)"><text style="text-anchor: middle; visibility: hidden; font-family: &quot;Helvetica Neue&quot;, sans-serif; font-size: 12px; font-weight: 200;" x="0" y="0" dx="0em" dy="0.95em" fill="rgb(50, 49, 63)" stroke="none" stroke-width="1px">-50k</text><text style="text-anchor: middle; visibility: hidden; font-family: &quot;Helvetica Neue&quot;, sans-serif; font-size: 12px; font-weight: 200;" x="23.457454508001156" y="0" dx="0em" dy="0.95em" fill="rgb(50, 49, 63)" stroke="none" stroke-width="1px">0</text><text style="text-anchor: middle; visibility: hidden; font-family: &quot;Helvetica Neue&quot;, sans-serif; font-size: 12px; font-weight: 200;" x="46.91490901600231" y="0" dx="0em" dy="0.95em" fill="rgb(50, 49, 63)" stroke="none" stroke-width="1px">50k</text><text style="text-anchor: middle; visibility: hidden; font-family: &quot;Helvetica Neue&quot;, sans-serif; font-size: 12px; font-weight: 200;" x="70.37236352400346" y="0" dx="0em" dy="0.95em" fill="rgb(50, 49, 63)" stroke="none" stroke-width="1px">100k</text><text style="text-anchor: middle; visibility: hidden; font-family: &quot;Helvetica Neue&quot;, sans-serif; font-size: 12px; font-weight: 200;" x="93.82981803200462" y="0" dx="0em" dy="0.95em" fill="rgb(50, 49, 63)" stroke="none" stroke-width="1px">150k</text><text style="text-anchor: middle; visibility: hidden; font-family: &quot;Helvetica Neue&quot;, sans-serif; font-size: 12px; font-weight: 200;" x="117.28727254000577" y="0" dx="0em" dy="0.95em" fill="rgb(50, 49, 63)" stroke="none" stroke-width="1px">200k</text><text style="text-anchor: middle; visibility: hidden; font-family: &quot;Helvetica Neue&quot;, sans-serif; font-size: 12px; font-weight: 200;" x="140.74472704800692" y="0" dx="0em" dy="0.95em" fill="rgb(50, 49, 63)" stroke="none" stroke-width="1px">250k</text><text style="text-anchor: middle; visibility: hidden; font-family: &quot;Helvetica Neue&quot;, sans-serif; font-size: 12px; font-weight: 200;" x="164.20218155600807" y="0" dx="0em" dy="0.95em" fill="rgb(50, 49, 63)" stroke="none" stroke-width="1px">300k</text><text style="text-anchor: middle; visibility: hidden; font-family: &quot;Helvetica Neue&quot;, sans-serif; font-size: 12px; font-weight: 200;" x="187.65963606400925" y="0" dx="0em" dy="0.95em" fill="rgb(50, 49, 63)" stroke="none" stroke-width="1px">350k</text><text style="text-anchor: middle; visibility: hidden; font-family: &quot;Helvetica Neue&quot;, sans-serif; font-size: 12px; font-weight: 200;" x="211.1170905720104" y="0" dx="0em" dy="0.95em" fill="rgb(50, 49, 63)" stroke="none" stroke-width="1px">400k</text><text style="text-anchor: middle; visibility: hidden; font-family: &quot;Helvetica Neue&quot;, sans-serif; font-size: 12px; font-weight: 200;" x="234.57454508001155" y="0" dx="0em" dy="0.95em" fill="rgb(50, 49, 63)" stroke="none" stroke-width="1px">450k</text><text style="text-anchor: middle; visibility: hidden; font-family: &quot;Helvetica Neue&quot;, sans-serif; font-size: 12px; font-weight: 200;" x="258.0319995880127" y="0" dx="0em" dy="0.95em" fill="rgb(50, 49, 63)" stroke="none" stroke-width="1px">500k</text></g><line x1="0" y1="0" x2="258.0319995880127" y2="0" fill="rgb(0, 0, 0)" stroke="rgb(204, 204, 204)" stroke-width="1px"></line></g></g></g></g></svg>