<svg viewBox="0 0 330 200" xmlns="http://www.w3.org/2000/svg"><g><g><g><g><g><line x1="51.3120002746582" y1="178.07699966430664" x2="46.3120002746582" y2="178.07699966430664" style="visibility: inherit;" fill="rgb(0, 0, 0)" stroke="rgb(204, 204, 204)" stroke-width="1px"></line><line x1="51.3120002746582" y1="161.88818151300603" x2="46.3120002746582" y2="161.88818151300603" style="visibility: inherit;" fill="rgb(0, 0, 0)" stroke="rgb(204, 204, 204)" stroke-width="1px"></line><line x1="51.3120002746582" y1="145.69936336170542" x2="46.3120002746582" y2="145.69936336170542" style="visibility: inherit;" fill="rgb(0, 0, 0)" stroke="rgb(204, 204, 204)" stroke-width="1px"></line><line x1="51.3120002746582" y1="129.51054521040484" x2="46.3120002746582" y2="129.51054521040484" style="visibility: inherit;" fill="rgb(0, 0, 0)" stroke="rgb(204, 204, 204)" stroke-width="1px"></line><line x1="51.3120002746582" y1="113.32172705910422" x2="46.3120002746582" y2="113.32172705910422" style="visibility: inherit;" fill="rgb(0, 0, 0)" stroke="rgb(204, 204, 204)" stroke-width="1px"></line><line x1="51.3120002746582" y1="97.13290890780361" x2="46.3120002746582" y2="97.13290890780361" style="visibility: inherit;" fill="rgb(0, 0, 0)" stroke="rgb(204, 204, 204)" stroke-width="1px"></line><line x1="51.3120002746582" y1="80.94409075650303" x2="46.3120002746582" y2="80.94409075650303" style="visibility: inherit;" fill="rgb(0, 0, 0)" stroke="rgb(204, 204, 204)" stroke-width="1px"></line><line x1="51.3120002746582" y1="64.75527260520242" x2="46.3120002746582" y2="64.75527260520242" style="visibility: inherit;" fill="rgb(0, 0, 0)" stroke="rgb(204, 204, 204)" stroke-width="1px"></line><line x1="51.3120002746582" y1="48.5664544539018" x2="46.3120002746582" y2="48.5664544539018" style="visibility: inherit;" fill="rgb(0, 0, 0)" stroke="rgb(204, 204, 204)" stroke-width="1px"></line><line x1="51.3120002746582" y1="32.377636302601246" x2="46.3120002746582" y2="32.377636302601246" style="visibility: inherit;" fill="rgb(0, 0, 0)" stroke="rgb(204, 204, 204)" stroke-width="1px"></line><line x1="51.3120002746582" y1="16.18881815130061" x2="46.3120002746582" y2="16.18881815130061" style="visibility: inherit;" fill="rgb(0, 0, 0)" stroke="rgb(204, 204, 204)" stroke-width="1px"></line><line x1="51.3120002746582" y1="0" x2="46.3120002746582" y2="0" style="visibility: inherit;" fill="rgb(0, 0, 0)" stroke="rgb(204, 204, 204)" stroke-width="1px"></line></g><g transform="translate(41.3120002746582, 0)"><text style="text-anchor: end; visibility: hidden; font-family: &quot;Helvetica Neue&quot;, sans-serif; font-size: 12px; font-weight: 200;" x="0" y="178.07699966430664" dx="0em" dy="0.3em" fill="rgb(50, 49, 63)" stroke="none" stroke-width="1px">0.12</text><text style="text-anchor: end; visibility: inherit; font-family: &quot;Helvetica Neue&quot;, sans-serif; font-size: 12px; font-weight: 200;" x="0" y="161.88818151300603" dx="0em" dy="0.3em" fill="rgb(50, 49, 63)" stroke="none" stroke-width="1px">0.13</text><text style="text-anchor: end; visibility: hidden; font-family: &quot;Helvetica Neue&quot;, sans-serif; font-size: 12px; font-weight: 200;" x="0" y="145.69936336170542" dx="0em" dy="0.3em" fill="rgb(50, 49, 63)" stroke="none" stroke-width="1px">0.14</text><text style="text-anchor: end; visibility: inherit; font-family: &quot;Helvetica Neue&quot;, sans-serif; font-size: 12px; font-weight: 200;" x="0" y="129.51054521040484" dx="0em" dy="0.3em" fill="rgb(50, 49, 63)" stroke="none" stroke-width="1px">0.15</text><text style="text-anchor: end; visibility: hidden; font-family: &quot;Helvetica Neue&quot;, sans-serif; font-size: 12px; font-weight: 200;" x="0" y="113.32172705910422" dx="0em" dy="0.3em" fill="rgb(50, 49, 63)" stroke="none" stroke-width="1px">0.16</text><text style="text-anchor: end; visibility: inherit; font-family: &quot;Helvetica Neue&quot;, sans-serif; font-size: 12px; font-weight: 200;" x="0" y="97.13290890780361" dx="0em" dy="0.3em" fill="rgb(50, 49, 63)" stroke="none" stroke-width="1px">0.17</text><text style="text-anchor: end; visibility: hidden; font-family: &quot;Helvetica Neue&quot;, sans-serif; font-size: 12px; font-weight: 200;" x="0" y="80.94409075650303" dx="0em" dy="0.3em" fill="rgb(50, 49, 63)" stroke="none" stroke-width="1px">0.18</text><text style="text-anchor: end; visibility: inherit; font-family: &quot;Helvetica Neue&quot;, sans-serif; font-size: 12px; font-weight: 200;" x="0" y="64.75527260520242" dx="0em" dy="0.3em" fill="rgb(50, 49, 63)" stroke="none" stroke-width="1px">0.19</text><text style="text-anchor: end; visibility: hidden; font-family: &quot;Helvetica Neue&quot;, sans-serif; font-size: 12px; font-weight: 200;" x="0" y="48.5664544539018" dx="0em" dy="0.3em" fill="rgb(50, 49, 63)" stroke="none" stroke-width="1px">0.2</text><text style="text-anchor: end; visibility: inherit; font-family: &quot;Helvetica Neue&quot;, sans-serif; font-size: 12px; font-weight: 200;" x="0" y="32.377636302601246" dx="0em" dy="0.3em" fill="rgb(50, 49, 63)" stroke="none" stroke-width="1px">0.21</text><text style="text-anchor: end; visibility: hidden; font-family: &quot;Helvetica Neue&quot;, sans-serif; font-size: 12px; font-weight: 200;" x="0" y="16.18881815130061" dx="0em" dy="0.3em" fill="rgb(50, 49, 63)" stroke="none" stroke-width="1px">0.22</text><text style="text-anchor: end; visibility: hidden; font-family: &quot;Helvetica Neue&quot;, sans-serif; font-size: 12px; font-weight: 200;" x="0" y="0" dx="0em" dy="0.3em" fill="rgb(50, 49, 63)" stroke="none" stroke-width="1px">0.23</text></g><line x1="51.3120002746582" y1="0" x2="51.3120002746582" y2="178.07699966430664" fill="rgb(0, 0, 0)" stroke="rgb(204, 204, 204)" stroke-width="1px"></line></g></g><g transform="translate(51, 0)" clip-path="url(#clip_0)"><clipPath id="clip_0"><rect width="278" height="178"></rect></clipPath><g><g><g><line x1="0" y1="0" x2="0" y2="178.07699966430664" fill="rgb(0, 0, 0)" stroke="rgb(60, 60, 60)" stroke-width="1px" opacity="0.25"></line><line x1="25.3352727023038" y1="0" x2="25.3352727023038" y2="178.07699966430664" fill="rgb(0, 0, 0)" stroke="rgb(60, 60, 60)" stroke-width="1px" opacity="0.25"></line><line x1="50.6705454046076" y1="0" x2="50.6705454046076" y2="178.07699966430664" fill="rgb(0, 0, 0)" stroke="rgb(60, 60, 60)" stroke-width="1px" opacity="0.25"></line><line x1="76.00581810691139" y1="0" x2="76.00581810691139" y2="178.07699966430664" fill="rgb(0, 0, 0)" stroke="rgb(60, 60, 60)" stroke-width="1px" opacity="0.25"></line><line x1="101.3410908092152" y1="0" x2="101.3410908092152" y2="178.07699966430664" fill="rgb(0, 0, 0)" stroke="rgb(60, 60, 60)" stroke-width="1px" opacity="0.25"></line><line x1="126.676363511519" y1="0" x2="126.676363511519" y2="178.07699966430664" fill="rgb(0, 0, 0)" stroke="rgb(60, 60, 60)" stroke-width="1px" opacity="0.25"></line><line x1="152.01163621382278" y1="0" x2="152.01163621382278" y2="178.07699966430664" fill="rgb(0, 0, 0)" stroke="rgb(60, 60, 60)" stroke-width="1px" opacity="0.25"></line><line x1="177.3469089161266" y1="0" x2="177.3469089161266" y2="178.07699966430664" fill="rgb(0, 0, 0)" stroke="rgb(60, 60, 60)" stroke-width="1px" opacity="0.25"></line><line x1="202.6821816184304" y1="0" x2="202.6821816184304" y2="178.07699966430664" fill="rgb(0, 0, 0)" stroke="rgb(60, 60, 60)" stroke-width="1px" opacity="0.25"></line><line x1="228.0174543207342" y1="0" x2="228.0174543207342" y2="178.07699966430664" fill="rgb(0, 0, 0)" stroke="rgb(60, 60, 60)" stroke-width="1px" opacity="0.25"></line><line x1="253.352727023038" y1="0" x2="253.352727023038" y2="178.07699966430664" fill="rgb(0, 0, 0)" stroke="rgb(60, 60, 60)" stroke-width="1px" opacity="0.25"></line><line x1="278.6879997253418" y1="0" x2="278.6879997253418" y2="178.07699966430664" fill="rgb(0, 0, 0)" stroke="rgb(60, 60, 60)" stroke-width="1px" opacity="0.25"></line></g><g><line x1="0" y1="178.07699966430664" x2="278.6879997253418" y2="178.07699966430664" fill="rgb(0, 0, 0)" stroke="rgb(60, 60, 60)" stroke-width="1px" opacity="0.25"></line><line x1="0" y1="161.88818151300603" x2="278.6879997253418" y2="161.88818151300603" fill="rgb(0, 0, 0)" stroke="rgb(60, 60, 60)" stroke-width="1px" opacity="0.25"></line><line x1="0" y1="145.69936336170542" x2="278.6879997253418" y2="145.69936336170542" fill="rgb(0, 0, 0)" stroke="rgb(60, 60, 60)" stroke-width="1px" opacity="0.25"></line><line x1="0" y1="129.51054521040484" x2="278.6879997253418" y2="129.51054521040484" fill="rgb(0, 0, 0)" stroke="rgb(60, 60, 60)" stroke-width="1px" opacity="0.25"></line><line x1="0" y1="113.32172705910422" x2="278.6879997253418" y2="113.32172705910422" fill="rgb(0, 0, 0)" stroke="rgb(60, 60, 60)" stroke-width="1px" opacity="0.25"></line><line x1="0" y1="97.13290890780361" x2="278.6879997253418" y2="97.13290890780361" fill="rgb(0, 0, 0)" stroke="rgb(60, 60, 60)" stroke-width="1px" opacity="0.25"></line><line x1="0" y1="80.94409075650303" x2="278.6879997253418" y2="80.94409075650303" fill="rgb(0, 0, 0)" stroke="rgb(60, 60, 60)" stroke-width="1px" opacity="0.25"></line><line x1="0" y1="64.75527260520242" x2="278.6879997253418" y2="64.75527260520242" fill="rgb(0, 0, 0)" stroke="rgb(60, 60, 60)" stroke-width="1px" opacity="0.25"></line><line x1="0" y1="48.5664544539018" x2="278.6879997253418" y2="48.5664544539018" fill="rgb(0, 0, 0)" stroke="rgb(60, 60, 60)" stroke-width="1px" opacity="0.25"></line><line x1="0" y1="32.377636302601246" x2="278.6879997253418" y2="32.377636302601246" fill="rgb(0, 0, 0)" stroke="rgb(60, 60, 60)" stroke-width="1px" opacity="0.25"></line><line x1="0" y1="16.18881815130061" x2="278.6879997253418" y2="16.18881815130061" fill="rgb(0, 0, 0)" stroke="rgb(60, 60, 60)" stroke-width="1px" opacity="0.25"></line><line x1="0" y1="0" x2="278.6879997253418" y2="0" fill="rgb(0, 0, 0)" stroke="rgb(60, 60, 60)" stroke-width="1px" opacity="0.25"></line></g></g></g><g><g><line x1="0" y1="372.34281747991383" x2="278.6879997253418" y2="372.34281747991383" fill="rgb(0, 0, 0)" stroke="rgb(153, 153, 153)" stroke-width="1.5px"></line></g></g><g><g><line x1="25.3352727023038" y1="0" x2="25.3352727023038" y2="178.07699966430664" fill="rgb(0, 0, 0)" stroke="rgb(153, 153, 153)" stroke-width="1.5px"></line></g></g><g><g><g><g><g><path style="fill: none;" stroke="rgb(255, 112, 67)" stroke-width="2px" d="M29.553088901783337,-8.081269955998124L29.55764925086975,0.1724860901479417L31.57079001979481,-2.36853303563592L31.57991071796764,9.081838730944412L31.589538121594515,3.4302606806784013L31.594098470680933,-10.29876477933604L31.612846572480635,-2.7856540657149083L31.61740692156705,2.3664253720923796L31.621967270653464,7.607334342300419L31.627034325193925,7.898338369403177L33.64929579229182,11.687616477161725L33.65385614137823,17.085431077970327L33.66297683955106,24.557729980210212L33.672604243177936,22.178237410857633L33.67716459226435,26.647215668552292L33.681724941350765,26.462902855147405L33.68679199589123,30.916652303264385L33.70047304315047,30.791707030094983L33.70554009769093,29.473699860537238L33.710100446777346,19.60163553839027L33.71466079586376,20.788746619698287L35.73236191387523,20.06789477425744L35.74148261204806,27.31626492906142L35.74654966658852,22.473602404212244L35.76985811747465,23.94764704471143L35.77441846656105,21.095989752548462L35.77897881564747,23.861663424027284L35.78404587018793,17.592544310712128L35.78860621927435,18.47705832975501L35.79316656836077,14.294516144802003L37.825055439085524,11.54859536333592L37.86255164268494,14.685019655087501L37.871672340857764,20.62705924374353L39.884813109782826,22.111592409225636L39.889373458869244,28.856717328856718L39.922309313382236,31.18156628602037L39.93599036064148,22.90930471688597L39.945617764268356,31.630589015318037L39.95017811335477,32.956898442680625L41.96331888227983,33.16870293682396L41.98206698407954,28.554103299043334L41.986627333165956,31.297808963016166L41.99118768225236,32.9479897998074L42.00537543496566,34.66958792396966L42.00993578405207,33.08035572782441L42.02412353676536,35.120681244628685L44.05094535294966,32.342232494599415L44.06057275657653,31.32637464824103L44.06969345474937,35.599256479694645L44.07425380383578,38.955291263034724L44.07932085837625,40.14292177868043L44.08388120746265,41.01180242751326L44.08844155654907,38.002642138598986L44.09300190563548,38.472278624729285L44.10262930926236,42.954360481695346L46.120330427273835,43.212601275235386L46.13401147453308,46.44533903299069L46.139078529073544,46.172690202841665L46.143638878159955,46.162197692275925L46.152759576332784,46.94037522803896L46.157826630873245,46.04587042599795L46.16238697995966,43.669090568450315L46.17150767813249,43.20297277479358L46.176574732672954,43.68513188112129L46.185695430845776,42.89117374603563L48.198836199770845,44.16418427761715L48.20795689794367,45.747949148520945L48.212517247030085,51.84387891502813L48.226704999743376,53.93788314041336L48.24545310154308,50.67058261209094L48.250013450629496,49.94749301275303L48.25508050516995,49.31597281466637L48.25964085425637,55.145955836379315L50.27734197226784,53.66760127714569L50.28190232135426,53.599160902133406L50.29102301952709,51.7243611535994L50.30065042315396,55.8024785713L50.30521077224038,53.92974784966651L50.30977112132679,54.48197533038072L50.31483817586726,54.93932453295605L50.32395887404009,53.26927531196414L50.32851922312649,52.68871869220892L52.36952879202409,52.005200093901124L52.3882768938238,50.707307577351L52.4070249956235,51.36955422188987L52.41209205016396,52.378241029605675L52.41665239925038,53.9179449978744L54.443474215434684,59.00869201363035L54.4480345645211,59.950979643146965L54.453101619061556,58.23155963647322L54.457661968147974,57.874982504860924L54.47184972086126,60.528133074570775L54.476410069947676,65.96554505891777L54.49059782266097,68.97340973036923L54.49515817174738,69.79636167054959L56.51285928975885,69.4635054824579L56.51741963884527,70.43477318316006L56.52197998793168,67.74120844481592L56.53160739155856,67.1178750858127L56.53616774064498,70.24978543264997L56.540728089731395,68.06151217181873L56.5452884388178,69.68408014897392L56.55035549335827,68.88567148005808L56.55491584244468,70.16094902484463L56.56910359515797,72.58202924530048L56.57366394424439,71.92289041377414L58.59136506225586,70.98968441466033L58.61011316405556,68.19390753425884L58.61467351314197,72.13159938344312L58.62379421131481,72.75031766130863L58.63342161494169,75.49680445325612L58.6379819640281,72.37236276669391L60.669870834752864,75.99717226412496L60.68355188201211,74.81155055821296L60.688618936552565,76.39683286300857L60.69317928563898,77.16309059654816L60.697739634725394,77.33833638799418L60.70736703835227,79.7512167831088L60.72611514015198,79.56275260031822L60.73523583832481,82.44583716503665L62.752936956336285,81.61497594930037L62.7574973054227,85.67945547156687L62.76205765450911,82.63209282272675L62.780805756308816,82.91809871673416L62.78587281084928,84.60713461013086L62.794993509022106,86.07524298130741L62.80462091264898,84.67486902237056L62.81374161082181,87.86560229278685L64.84563048154658,88.78060142247575L64.8547511797194,87.92657063504396L64.85931152880582,89.41956969118543L64.8734992815191,89.99094600075968L64.88312668514598,89.52246833131301L64.8876870342324,89.0352576133914L64.89224738331882,88.84418366048517L66.90994850133029,88.07185611987434L66.9145088504167,88.2169773314431L66.91906919950311,87.90242049947356L66.93781730130283,89.0792643475185L66.94288435584328,88.4163446242799L66.95200505401611,89.52318537277728L66.9661928067294,89.9985334647387L68.9930146229137,87.74981264873401L68.99757497200012,85.8918797768196L69.00264202654058,83.73503702445005L69.007202375627,83.61051255900374L69.01632307379982,84.52817275667338L69.03051082651312,85.0476280438243L69.03507117559954,85.71043185507257L69.04013823013999,83.90937903398336L71.06239969723788,84.38082950410762L71.0669600463243,85.2617629135083L71.07608074449713,85.08363789271506L71.1044562499237,88.6422342999202L71.11357694809654,87.12625725510205L71.118644002637,86.82098825001373L71.12320435172342,83.98514689369986L71.12776470080983,84.65893476671324L73.14090546973489,84.5347162143262L73.15002616790771,82.2225125413379L73.15458651699413,84.76735937665758L73.17840167333429,86.25496824988326L73.18296202242071,86.34660810449506L73.19208272059353,87.34295826572004L73.20171012422041,88.7039043559329L73.20627047330683,88.91875783317545L75.2194112422319,88.30535598833539L75.22853194040471,88.58577404409229L75.23309228949113,88.14872877270702L75.23815934403159,87.0187733645785L75.242719693118,85.10509616060159L75.25184039129084,85.24004636756605L75.2569074458313,86.02662138775241L75.26602814400414,85.23766653385981L75.27058849309054,86.68975834842635L75.28021589671741,87.77669659590977L77.2979170147289,87.69283439675704L77.30703771290173,87.54518877242405L77.31159806198814,85.6655598634941L77.31666511652861,84.47610530780413L77.32578581470142,84.71422798275066L77.33034616378784,84.2652213179093L77.34453391650113,84.4511777114256L77.34909426558755,84.67232435404838L77.35416132012801,85.737267147517L77.35872166921443,88.06261145482684L79.37642278722589,88.33005060441897L79.38098313631231,88.86525098372161L79.38554348539873,88.35363568770137L79.39010383448513,90.31245029918114L79.4139189908253,90.42842640245675L79.43266709262501,89.85923001634025L79.43722744171143,89.91185864184973L81.4549285597229,90.19449319749329L81.46860960698216,91.5318973722047L81.50154546149514,92.05562243782441L81.50610581058156,91.03122367038013L83.5334343322199,91.21271394656817L83.53799468130632,93.1540450541934L83.54255503039273,95.16843473952726L83.55218243401961,94.23243156553886L83.56130313219245,94.39221005607361L83.57093053581931,94.79715715860665L83.58005123399214,95.55142206827878L85.63068820651661,94.85503312270785L85.63524855560303,96.00997404289029L85.63980890468945,95.8174672554824L85.64436925377586,96.81423017182604L85.65399665740274,97.89792711476629L85.65855700648913,96.60493969641139L85.67274475920243,97.77336427360632L87.69500622630034,98.68454397132551L87.72287502627286,98.84138507699043L87.72794208081332,100.14018398160698L87.73250242989974,99.16933205786937L87.73706277898616,99.50201961708709L87.74162312807256,99.09080830911456L87.75125053169944,99.66251760276428L87.75581088078586,98.49392698447475L89.76895164971091,98.2349744098574L89.77807234788375,98.18009724511063L89.78263269697015,98.43426849115883L89.78769975151063,98.41483971342886L89.79682044968345,99.38378938699314L89.80644785331032,98.29459291747634L89.81100820239674,98.13066496540176L89.82975630419645,98.82546933349025L91.85657812038075,99.92299526549003L91.87076587309404,99.23140286969264L91.87532622218045,100.27848285049214L91.88495362580733,101.17724344264494L91.88951397489375,103.31688106504248L91.89863467306658,102.75858851252141L91.90826207669345,103.579284687399L93.93052354379134,103.56175705149802L93.96345939830434,103.29357020351685L93.97714044556358,103.12540108506136L93.98220750010404,103.73952777866872L96.00446896720193,104.11830487579275L96.00902931628833,105.65658114816019L96.01358966537475,106.44811055280115L96.02321706900163,107.06976675554496L96.02777741808805,105.58384246983532L96.03233776717447,105.49552313469168L96.03689811626089,106.11738904898331L96.04652551988775,104.64841483626735L96.06983397077387,105.30963555158499L98.08297473969894,107.78211749630161L98.11084353967146,107.23507848664178L98.12047094329834,107.53300630779553L98.12503129238476,106.82854744723579L98.12959164147118,108.7369363958638L98.13415199055758,108.53594657034553L98.13921904509805,108.54257925077333L98.14377939418445,109.48956492789367L98.14833974327087,108.90656133555387L100.16148051219594,107.81136288542535L100.16604086128235,107.57081693622317L100.17060121036876,106.66206738681298L100.18022861399564,108.02186184539536L100.19390966125488,107.93699623441165L100.19897671579534,109.45237242969495L100.20353706488176,108.77622036863745L100.21265776305458,111.46456361478936L100.21772481759506,111.35026314521849L102.23998628469293,110.85072155376848L102.24910698286577,114.06308518394313L102.25873438649265,113.75493116952185L102.26329473557905,114.49452334961913L102.27748248829235,114.45643374610908L102.28204283737877,114.97588360024847L102.28660318646517,115.48165363096302L102.29623059009205,113.95914320840862L102.30079093917847,113.99833651973509L102.30535128826487,114.48022371115145L104.32305240627636,114.7746136551836L104.3321731044492,114.46140780574746L104.33724015898964,114.16760015930276L104.35092120624888,114.44446016855352L104.35598826078935,113.80268388827831L104.36054860987576,113.41463988527556L104.36510895896218,112.44440881729479L104.3696693080486,112.22213051150122L104.37473636258906,113.87590976231193L104.37929671167548,113.66901359254662L104.38385706076188,114.13791690980645L106.40155817877336,114.1339998899021L106.40611852785977,114.85535306570196L106.42486662965949,115.28585448422702L106.4294269787459,114.73910126982798L106.43449403328636,113.13181485772546L106.44361473145918,115.27204201165195L106.4481750805456,115.88554875013998L106.45324213508606,116.17749921134649L106.45780248417248,117.26894884583528L108.47550360218395,116.88736988372557L108.48462430035677,115.88797129904447L108.48918464944319,116.0350484916611L108.49425170398365,115.91876738499806L108.50337240215649,117.47308068037314L108.51299980578337,118.12018930963657L108.52212050395619,119.36947139386697L108.5266808530426,120.68666481313866L108.53174790758305,120.33581704927973L110.55400937468096,119.52227709447769L110.57275747648065,119.12640052532896L110.57731782556706,120.40151347897495L110.5864385237399,121.31537690287777L110.59150557828036,120.74569924217448L110.6006262764532,120.01581341936381L110.6193743782529,119.70818807862861L112.63251514717795,118.51582261564155L112.64163584535079,120.49429785708165L112.65126324897767,120.89549577447147L112.67001135077736,120.28592965075488L112.68369239803661,121.35653756428039L112.68875945257707,121.37316983948463L112.6978801507499,123.25685479633131L114.71102091967495,123.90844123134582L114.71558126876137,122.62742791566069L114.72014161784779,122.30880977902268L114.7247019669342,123.13384311609403L114.72976902147467,122.7995012118194L114.73432937056108,123.21189608544887L114.73888971964749,122.99144157548645L114.7434500687339,121.66386612037212L114.76219817053362,121.46790442392955L114.76726522507407,122.25876039748825L114.7763859232469,122.67910681286165L116.79408704125838,122.98963149022111L116.80827479397166,123.91065987827963L116.8173954921445,123.24439234561883L116.8219558412309,123.65747901299504L116.82702289577138,123.12674796269954L116.84070394303062,124.07137102615965L116.84577099757108,123.72179582656256L116.8503313466575,124.40515074878593L116.85489169574392,124.3451379804627L118.86803246466897,123.13489315528156L118.8771531628418,123.10059578395486L118.88171351192821,123.89571815961529L118.88678056646867,123.5311720521859L118.89590126464151,123.8743233195174L118.90046161372791,122.83089249879447L118.90552866826839,125.4829791221085L118.91008901735479,125.50479821392904L118.9146493664412,126.37240034626889L118.91920971552761,125.73369582164705L118.9288371191545,126.96833768164899L118.93339746824091,126.08662342988822L120.9556589353388,124.70207291461016L120.9744070371385,125.27387428830745L120.9885947898518,126.37087176774851L120.9931551389382,127.04166548189234L120.99771548802462,127.28252387536956L121.0027825425651,126.99922986716813L121.00734289165149,126.4511225020936L121.01190324073791,126.68538243609632L123.02504400966298,125.95551817569735L123.0296043587494,125.27553251313178L123.03872505692222,125.83868321734235L123.04379211146268,127.71438229414912L123.0483524605491,128.43440746116744L123.0671005623488,128.4592150000738L123.0858486641485,128.3105463942915L123.09040901323492,128.0894401428991L125.10811013124639,128.20683951530745L125.11267048033281,127.783136945926L125.11723082941921,127.4543500745065L125.12229788395969,125.99604717780238L125.1268582330461,126.68417388777328L125.13141858213251,127.36017526634274L125.14560633484581,127.49425809664922L125.15016668393223,127.70191554802358L125.15472703301864,129.09721707504664L127.1866159037434,129.92967729893496L127.19573660191624,129.51605083385437L127.20080365645669,129.91281744420505L127.2053640055431,130.86480467590405L127.2099243546295,130.37177634062277L127.21955175825639,130.74867528118648L127.23323280551564,130.680310175995L127.2382998600561,129.73894081261676L129.260561327154,128.43849888550642L129.2651216762404,128.0786096608099L129.2696820253268,128.68497307894387L129.27424237441323,127.8154638509333L129.2793094289537,127.68274309912593L129.28843012712653,128.10495432332118L129.3026178798398,127.74059078450426L129.30717822892623,128.25688359843844L129.3168056325531,128.46781584437892L131.339067099651,128.34135196705992L131.3436274487374,128.65713565463523L131.3481877978238,127.33825048453235L131.3578152014507,128.07098849269096L131.3623755505371,128.13374811488836L131.36693589962354,127.83446407217184L131.37149624870995,127.5264455449749L131.3765633032504,128.43058524564913L131.3811236523368,129.782080609033L131.38568400142321,129.8940073989926L131.39024435050965,129.44242836064623L131.40443210322294,129.92332700893698L133.41757287214799,130.75599032831158L133.4363209739477,131.1354748298511L133.44088132303412,131.714348176266L133.45000202120696,132.48511933315356L133.45962942483382,132.48336017114323L133.46875012300663,131.56433244939723L133.47381717754712,131.8841146594886L133.47837752663352,131.7298056359283L133.48293787571993,131.63103819583415L135.496078644645,131.1238668116618L135.50063899373143,129.98312724410744L135.50975969190424,130.87576444305788L135.5193870955311,131.11279075195188L135.52850779370394,130.75197042090056L135.54269554641724,130.96991081336995L135.54725589550367,130.80664801851623L135.55232295004413,131.0018595162748L135.55688329913053,131.9151027591557L135.56144364821694,132.73127177974033L137.5791447662284,131.806707960575L137.58826546440125,133.05461190224048L137.59789286802814,132.21329858153555L137.60245321711454,131.75042633643565L137.6120806207414,132.4471209494535L137.62576166800065,131.93971109896563L137.63538907162754,133.2448950864921L137.63994942071395,133.97794109337832L139.65309018963902,133.5684559309521L139.66677123689826,133.3144934664835L139.68095898961155,132.94012972979306L139.68551933869796,132.86664841904548L139.69514674232485,132.88115015972954L139.70426744049763,132.87137384794477L139.71389484412452,132.9309642237578L139.71845519321093,132.5062478147674L141.74527700939527,133.25584591180353L141.7549044130221,133.40440353213782L141.75946476210854,133.3787611168343L141.76402511119494,133.8215340449318L141.7690921657354,132.64666545120423L141.77821286390824,133.01402110856083L141.78277321299467,133.44349280455089L141.78784026753513,134.5762687202547L141.79240061662153,134.64797128029417L143.81922243280584,133.6833402253677L143.8288498364327,135.99892293572265L143.83341018551914,136.0356420573843L143.83797053460555,136.36063302164115L143.84253088369195,136.76331758098655L143.8475979382324,136.44163895343334L143.86634604003214,135.59475790935318L143.87090638911855,135.67931244172232L143.87546673820498,135.62305184067844L145.88860750713002,135.59266359929188L145.90228855438926,136.89853759504888L145.90735560892972,136.1943971608121L145.91191595801615,136.10138820769447L145.91647630710256,135.27524223444453L145.92103665618896,135.75583790995177L145.93066405981585,137.35196686838617L145.93522440890226,137.27585132070226L145.9397847579887,136.55470270071024L145.94485181252912,136.66343784769833L145.95397251070196,136.97927804086868L147.97623397779986,136.93516364543183L147.9858613814267,136.95035999231044L147.99042173051316,137.33020426128874L147.99954242868597,136.37470514758613L148.00460948322643,136.29183042002884L148.00916983231284,136.26885004889107L148.01829053048567,136.4859360815011L148.02335758502613,136.7536546924273L148.03247828319897,135.71671166428516L150.045619052124,134.7931088953454L150.06892750301014,133.66332075953034L150.07804820118298,134.18437615336916L150.08311525572344,133.92493490424934L150.08767560480985,135.21497229054893L150.09223595389625,135.04731391878593L150.09679630298268,134.23580479972597L150.10186335752314,135.80217575723418L150.10642370660955,136.06558836464475L152.12412482462102,137.01350030009604L152.12868517370745,138.05367818525758L152.13324552279386,137.57002562509712L152.14743327550715,138.47026490494585L152.15199362459356,137.07725779508382L152.15655397368,137.9812587553067L152.16162102822045,138.2681343173925L152.1707417263933,137.77300862145808L154.20719094620446,137.91632771950998L154.21175129529087,137.77679719628273L154.21631164437727,136.77968175027257L154.22593904800416,137.30611480489628L154.24468714980384,136.83474792446162L154.25887490251714,137.66495280907267L156.281136369615,137.61667475072528L156.29481741687428,138.8662538524689L156.29988447141474,138.6645926923103L156.30900516958755,138.2485124951554L156.31356551867398,138.02865985906715L156.31863257321444,137.9119166244206L156.32319292230085,137.6290196183094L156.33231362047368,137.34704368897357L156.33738067501415,137.48355113090724L156.34194102410058,136.63164784805258L156.34650137318698,136.48369159467512L158.35964214211202,136.16581738433766L158.36420249119845,136.53317361775692L158.36876284028486,136.60101778609038L158.3733231893713,136.33136677987565L158.37839024391175,136.73497997170972L158.3875109420846,136.46292841822753L158.392071291171,135.80745316396926L158.40169869479786,135.85154438609567L158.4108193929707,135.21856314685598L158.41588644751116,135.5631687867011L158.42500714568396,136.6839631080809L160.44270826369547,136.441789270566L160.44726861278187,135.72918196328396L160.4518289618683,135.8148082668628L160.45689601640876,135.25377929467925L160.470577063668,135.24326938356202L160.47564411820844,135.37552878987998L160.48020446729487,135.5929713288835L160.48476481638127,134.9088274230859L160.49439222000814,134.72749590376523L160.49895256909457,134.82204091757035L162.54452248707858,135.77132231754348L162.55871023979188,135.88984750387007L162.56327058887828,134.57452377707654L162.57289799250518,134.35832437848072L162.57745834159158,134.00902621527098L162.58201869067798,134.7541361624485L164.59515945960305,135.4878074013728L164.6088405068623,135.27220796879212L164.61390756140275,135.43992091058286L164.6230282595756,136.11150152503447L164.627588608662,136.40496573715183L164.63265566320246,136.85155693206676L164.6372160122889,136.15635682938267L164.6514037650022,135.50676760346585L166.6969736829862,135.88319294365812L166.7015340320726,136.00185943055678L166.706094381159,135.94763569910708L166.71572178478587,136.30309665630853L166.7248424829587,136.13840653819966L166.72990953749917,137.17526936528998L166.73446988658557,137.12889266662927L168.75217100459707,137.2412841114496L168.75673135368345,136.84274386482377L168.7612917027699,136.8778891188879L168.76585205185629,136.60151972923845L168.77091910639675,136.6736019562884L168.784600153656,137.0231527574192L168.78966720819648,137.47918876861056L168.79422755728288,137.66643848314138L168.81753600816901,137.0098192776741L170.83523712618046,137.56277487568752L170.8397974752669,136.48495775593338L170.84942487889376,137.19677100309463L170.8539852279802,137.78428541721223L170.863105926153,137.52141551384685L170.8914814315796,137.63719686873225L170.89604178066602,138.91988236672094L172.91374289867747,138.89383237183355L172.9183032477639,138.8990454642113L172.9228635968503,138.91755384957563L172.94161169865004,138.46418377485344L172.9466787531905,138.4958564345252L172.95123910227687,138.07859784368563L172.95579945136328,138.0100450793612L172.9603598004497,137.84620861958368L172.96998720407657,138.38754134574484L174.98768832208808,138.59956310061995L174.9922486711745,137.9688216584133L174.9968090202609,137.69637141922533L175.0013693693473,137.15596004471993L175.00643642388775,136.94185011878415L175.01099677297418,136.99769411848976L175.01555712206059,136.82714524632945L175.03430522386031,137.7007300062063L175.04393262748718,137.5138305674959L175.04849297657358,138.33575918538077L177.0849421963848,139.1888078090482L177.0940628945576,139.11645989795997L177.1036902981845,138.74647350149837L177.1082506472709,138.38765471652766L177.11281099635733,137.13280248791432L177.1224383999842,136.37247382891715L179.14469986708207,136.8017573526879L179.1492602161685,136.72539939053544L179.1634479688818,137.79713662813552L179.1725686670546,138.27525935645284L179.1867564197679,138.46277206229007L179.20094417248117,137.4413982312851L179.2055045215676,137.77455179203125L181.22320563957908,138.21024978797072L181.2277659886655,138.14545833884523L181.2323263377519,138.47056790214646L181.23688668683835,138.7513521542357L181.24195374137878,138.80007667600003L181.24651409046518,138.32757218955084L181.25107443955162,137.29552905907735L181.26070184317848,136.96458665479543L181.26526219226488,137.18520140961616L181.26982254135132,137.367907224249L181.28401029406461,136.90722968111277L181.28857064315102,136.39746106524342L183.3062717611625,135.82058300926846L183.34376796476192,134.94070174362025L183.34832831384833,135.4608907260128L183.35288866293473,134.75319418853147L183.3579557174752,135.13734808747117L183.36251606656162,134.94908249148966L185.3802171845731,134.4563655402309L185.3847775336595,133.85200680050747L185.3893378827459,133.21017200786224L185.39389823183234,133.6013347183565L185.4035256354592,133.5053278551406L185.40808598454564,134.1999880627874L185.41264633363204,133.88227425058818L185.42227373725893,133.76847994008148L185.42683408634534,133.83151219162613L185.4364614899722,133.89001884706494L187.49115210612902,133.45376344718343L187.50533985884232,133.96123958434066L187.50990020792875,134.14753175830225L187.5149672624692,134.188317920467L187.51952761155562,134.09162181320988L189.5372287295671,134.73335438556526L189.5417890786535,133.63296350034423L189.54634942773993,134.28684153470988L189.5559768313668,134.26642465311545L189.56965787862603,133.50372367013102L189.5747249331665,133.92214722036272L189.57928528225293,134.73642647478545L189.58384563133933,134.85207606703756L189.58840598042576,133.7255265318417L189.59347303496622,133.98560204837617L189.59803338405263,134.29260818476135L189.60259373313903,134.45596032611067L191.6202948511505,135.17552971272818L191.62941554932334,134.76929184221717L191.6344826038638,134.65780258106213L191.64360330203664,134.84258198516216L191.6532307056635,134.35906801050135L191.66235140383634,134.34976623701112L191.66691175292277,134.04327726827128L191.6719788074632,134.54457719475005L191.6765391565496,134.36380385703723L191.68109950563604,134.0003697638464L193.6942402745611,134.43464654275138L193.7129883763608,134.89096378682143L193.73629682724692,134.61454610578292L193.74085717633332,134.95407038474724L193.75048457996022,134.65513161510398L193.75504492904662,134.66750347705732L193.75960527813305,133.94978969428382L195.78186674523093,133.41934349426901L195.78642709431733,133.96683095251484L195.7914941488578,133.44711342238963L195.80061484703063,133.69585411172199L195.81024225065752,134.01758354624945L195.81480259974393,134.15015733369955L195.82899035245723,133.9036674507454L195.83811105063006,133.7295133006903L197.85581216864153,134.4784445353048L197.86037251772794,134.92374083718002L197.8699999213548,135.17536748701792L197.87456027044124,135.21868812287696L197.88874802315453,134.45698276710587L197.89330837224094,135.3816093360995L197.89786872132737,135.57653683319126L197.90749612495424,135.56316706926853L197.9120564740406,136.03855956479742L197.91661682312704,136.3957886092859L199.93431794113854,135.96283799490254L199.93887829022495,136.48141651305696L199.94343863931135,135.6687463088316L199.94850569385184,135.64503564376406L199.95306604293825,135.51769833469731L199.95762639202465,135.32257184472775L199.96725379565152,136.51151556694802L199.98093484291076,136.67935848780124L199.98600189745122,135.85822915585675L199.99512259562405,135.50264852078226L202.02194441180836,136.0681332980649L202.02701146634882,136.46476623504248L202.03613216452163,136.8710567082739L202.04069251360806,136.92582122279484L202.05488026632136,136.70094718207474L202.06450766994823,136.65477672100803L202.07362836812106,136.64303636337485L204.09132948613254,136.92766574937116L204.09588983521894,136.7443112316691L204.10045018430537,136.59002583457024L204.10551723884583,136.19619674566192L204.11463793701867,136.7116464989165L204.12882568973194,136.7129273911546L204.13338603881837,136.4263696299634L204.14301344244524,136.03171023176714L204.14757379153167,135.85242636393588L204.15213414061807,136.15999319883736L206.16983525862955,136.10274708850957L206.18858336042925,136.7714774023274L206.19770405860208,137.34992605395465L206.20277111314252,136.9732326327947L206.21189181131535,137.06066506629787L206.21645216040176,136.998583598157L206.22151921494222,136.60330371758997L206.22607956402865,136.92386607872035L206.23063991311506,136.88288310265256L208.24378068204015,137.0128659729692L208.26252878383983,136.4126063716716L208.26708913292623,135.9167758701957L208.27164948201266,135.90156843494862L208.27620983109907,136.064525791014L208.28127688563953,136.59602281922722L208.29039758381236,137.39946403813087L208.30002498743926,137.2674974673357L208.30458533652566,138.0304949745743L208.30914568561207,137.91858342822295L210.32228645453714,137.64394842514142L210.32684680362354,137.58431044209397L210.33140715270994,138.39943144954646L210.34559490542324,138.62575573955945L210.35978265813654,138.50180928613355L210.36890335630937,138.60132869995462L210.37853075993627,138.3577733258904L210.38309110902267,138.5685469545666L210.38765145810908,138.77298093911185L212.40079222703415,138.9515820267785L212.40535257612055,138.41251522250957L212.42410067792025,138.52529797446132L212.44284877971995,138.01652803386742L212.4519694778928,138.45212255065138L212.45703653243325,137.9227653080011L212.46159688151965,137.64570363464858L214.47929799953116,138.41476943145034L214.48385834861756,137.3001291134716L214.488418697704,137.12228368303073L214.50260645041726,137.06604176870061L214.51679420313053,136.7377871231962L214.52135455221696,136.0885037454363L214.52591490130337,136.71927704633703L214.53554230493026,137.14076349660542L214.54010265401666,138.66633825936864L214.5446630031031,138.34298443633872L216.56236412111454,139.44986356865118L216.56692447020097,139.1914224540229L216.57655187382784,138.41023750139917L216.58111222291427,139.55965639386866L216.58567257200068,139.58057114956344L216.59023292108708,139.39792864826217L216.59529997562757,139.32462689939337L216.59986032471397,139.32021417120168L216.6089810228868,138.9881611093912L216.61404807742727,138.51093578653274L218.63630954452515,138.38641514667282L218.65961799541128,138.4648104739661L218.67836609721098,138.45616318957502L220.723936015195,138.1822008985588L220.7284963642814,138.01892000585667L220.73356341882183,137.55663756514267L220.73812376790826,137.67189097059395L220.74268411699467,137.33175519746777L220.75687186970796,138.31072591942683L220.7614322187944,137.96334482284786L220.77105962242126,138.72368971736134L220.77561997150767,139.09264855539755L222.79332108951914,139.60474631213145L222.79788143860557,140.54949545867316L222.80244178769198,140.7686147120842L222.80700213677838,140.88583922156874L222.81662954040527,140.88130072328028L222.8257502385781,141.29533429422943L222.83081729311857,140.54240086473288L222.83537764220497,140.9766406934848L222.8444983403778,140.34705145227477L222.84956539491827,140.3862999491989L222.8541257440047,139.45740827721713L224.87182686201615,139.92761698407057L224.880947560189,139.53901618470098L224.90932306561558,139.24015317695589L224.91844376378842,139.60723999420367L224.9371918655881,139.1258630283457L226.95033263451316,139.55883032783711L226.9548929835996,139.55634045964842L226.97364108539927,139.7930191674346L226.9969495362854,140.01386469455207L227.0015098853718,139.40132404319473L229.02883840701014,139.6214847741337L229.0425194542694,140.38399361840237L229.04758650880987,141.23314025005428L229.0612675560691,140.56406643368905L229.06633461060957,140.03145077746115L229.0754553087824,140.3898519832908L229.0800156578688,140.1529189151529L229.08508271240927,140.16911090363752L229.0896430614957,140.0235156665519L231.10734417950718,139.9770862926721L231.11190452859358,140.11250976541567L231.12609228130688,140.9647015632577L231.13065263039329,140.46236499843593L231.13521297947972,139.72160979550733L231.13977332856612,140.2543516236147L231.14484038310658,140.6119811698663L231.16358848490626,140.00782140983245L233.1858499520042,139.97781771517714L233.1904103010906,140.68081239620412L233.194970650177,140.5783017583742L233.19953099926343,140.55594398049763L233.20915840289027,140.55950750118137L233.21371875197673,140.875063849988L233.2182791010631,141.08097716316496L233.22334615560356,141.07190810812207L233.22790650469,140.76082809995557L233.2324668537764,140.90926348332107L233.2370272028628,141.27461478226166L233.2420942574033,140.42833550118573L233.2466546064897,140.05901186733442L235.26891607358758,139.64113673164832L235.2780367717604,139.9183760984805L235.30185192810058,139.6850742024003L235.306412277187,139.36465414746428L235.3109726262734,140.59468746359818L235.3206000299003,140.475368340669L237.3474218460846,140.0764574990464L237.36160959879788,140.47258076079444L237.37073029697072,140.33785176227977L237.38947839877042,140.2213800520028L237.39403874785685,140.90000254591808L237.39910580239732,140.99465858948673L237.4036661514837,141.44199252765412L239.4259276185816,141.08026863609706L239.43504831675443,140.66312417362246L239.4401153712949,140.7944558849544L239.44467572038133,140.93243061541403L239.44923606946773,141.5388289954841L239.4537964185541,141.09659802510524L239.463423822181,140.36583133977703L239.4679841712674,140.87308965177112L239.4821719239807,142.30919900905397L239.48673227306713,141.59515043779086L241.50443339107858,140.98500043846704L241.508993740165,141.16860425584787L241.51355408925141,141.31197387383816L241.5373692455916,141.77514280524392L241.541929594678,141.44221491153465L241.5464899437644,141.66913408164316L243.59205986174842,141.33664718520447L243.5971269162889,141.18982844715134L243.60168726537532,141.27062448256987L243.61080796354815,141.72545266327234L243.61587501808862,142.16430193842808L243.62043536717502,142.114797626075L243.62499571626145,142.38656957134341L243.62955606534786,142.82388458971025L243.63462311988832,142.61100719518666L243.63918346897472,142.1633272728745L245.6568845869862,142.65952261024404L245.66600528515903,143.00248027158068L245.67056563424543,142.86754257758795L245.67563268878592,142.55792127449743L245.68475338695873,142.03323367208537L245.68931373604516,141.60377076553283L245.698941139672,142.26450293685346L245.70806183784484,142.09522999300845L245.7131288923853,142.09932641212703L245.72224959055814,142.1034467308924L247.73539035948318,142.22910925847822L247.7541384612829,141.88403354570033L247.7586988103693,141.41148907259003L247.7632591594557,141.24855217353314L247.76781950854215,140.8577141962411L247.7728865630826,141.140544467227L247.777446912169,142.0185643600056L247.78200726125544,142.50459193859643L247.7916346648823,143.13475835529815L247.79619501396874,143.00613637564305L247.80075536305515,142.59720011677052L249.8138961319802,142.4442997930108L249.83264423377992,142.26179425016204L249.84176493195272,141.72928272855793L249.84632528103916,141.94517814659383L249.85139233557962,142.08048699575113L249.86051303375245,140.98448356770012L249.87014043737932,141.35311084243494L249.87926113555216,141.15730053766495L251.89696225356363,141.10272253371815L251.90152260265003,140.98646603641433L251.90608295173647,141.73923581034387L251.91571035536333,141.11049878883546L251.92027070444976,141.40776003706975L251.92483105353617,141.87726899014243L251.9298981080766,141.85989864483474L251.934458457163,140.97402632958097L251.93901880624944,140.36229892207945L251.94357915533584,140.80949892522514L251.9486462098763,140.17861594978027L251.95320655896273,140.13682304237972L253.97546802606064,140.27763907908044L253.98002837514701,139.34378009294272L253.9896557787739,139.51335434423146L253.9942161278603,139.78295835881357L254.0084038805736,140.4964591357818L254.01296422966004,140.25528951249962L254.01752457874645,140.350257796618L254.02208492783285,139.87239328810494L254.0271519823733,140.42586678497366L254.03627268054615,140.44521012186638L256.06309449673046,140.67279696914449L256.0727219003573,140.59710138130833L256.0772822494438,140.287137122748L256.08184259853016,141.145882645615L256.0960303512434,141.7237728343119L256.10059070032986,140.81753192176726L256.11021810395675,140.92655152571285L256.11477845304313,140.98018173671375L258.1279192219682,141.34257702360122L258.13703992014104,141.19383598585603L258.14160026922747,141.1737100561758L258.14666732376793,141.09630322673627L258.1512276728543,140.97591463906477L258.16034837102717,141.1147960746216L258.16997577465406,140.67945258543665L258.17909647282687,140.89445738686604L258.18416352736733,140.8749895846472L258.19328422554014,140.9427698370883L260.20642499446524,141.14918256206462L260.2109853435516,141.10795549732956L260.21554569263805,141.2474781619371L260.22517309626494,142.0174984433361L260.2388541435242,142.23941993797348L260.24392119806464,142.71200263757396L260.2484815471511,142.7647918572936L260.25304189623745,142.92318172472443L260.2576022453239,141.87313817085777L260.2672296489507,142.27410306096775L260.2717899980372,142.11524868376856L262.28493076696225,142.3013973899643L262.2894911160486,142.55093691570005L262.29405146513506,141.68964033119448L262.2986118142215,142.06735463761L262.30367886876195,141.63841923077135L262.3082392178484,141.79710117412705L262.31735991602113,141.82508361241958L262.32242697056165,141.57630152023492L262.326987319648,142.17094251734582L262.3457354214477,142.19110529421033L264.36799688854563,142.14070147471247L264.37255723763207,141.7041041127711L264.37711758671844,141.58694877127823L264.39130533943177,141.69176476424397L264.3958656885182,141.92411218112068L264.40093274305866,141.64356224068268L264.40549309214504,142.231275004826L264.41005344123147,142.77578409358193L264.41968084485836,142.54484480236226L264.42424119394474,143.60466393528816L264.42880154303117,143.4717875971268L266.4510630101291,143.18270467146854L266.45562335921545,142.86832591990566L266.46525076284235,143.4621696322433L266.4698111119288,143.99154764845488L266.4743714610152,143.502583891947L266.4885592137285,143.9530943104038L266.4981866173554,144.42033013522092L266.50274696644175,144.11425290698415L266.5073073155282,143.29366146293233L268.5204480844532,143.39045248369186L268.52500843353965,143.49550737144378L268.5295687826261,143.42157030727927" fill="none"></path></g></g></g></g><g opacity="0.2"><g><g><g><path style="fill: none;" stroke="rgb(255, 112, 67)" stroke-width="2px" d="M25.34895374956304,-141.3239788347925L25.358581153189917,94.58450504720524L25.363141502276335,-367.48084446988025L25.38188960407604,16.974272087924845L25.38644995316245,373.2174289036649L25.396077356789327,-321.18611985458637L25.40063770587574,45.68616141808056L27.413778474800804,-219.71966380083967L27.41833882388722,24.28162930493224L27.422899172973633,86.21394108123481L27.427459522060047,-227.60491684936125L27.43252657660051,-243.29002675156562L27.437086925686923,149.51941884590292L27.45583502748663,114.67588974056403L27.460395376573043,-37.89418224275559L29.548528552696922,-10.250179566025821L29.553088901783337,81.11906900712104L29.55764925086975,179.681463417483L31.594098470680933,-362.47445636262216L31.60828622339422,33.222466165250495L31.612846572480635,161.0806886036121L31.61740692156705,149.5563514940098L31.621967270653464,162.42097464464277L31.627034325193925,16.77655818597583L33.64929579229182,130.96429722376436L33.65385614137823,192.21719060189184L33.67716459226435,184.58852417099843L33.681724941350765,19.771359317181634L33.68679199589123,196.89924203129436L33.70047304315047,26.015075567286118L33.70554009769093,-22.17973850639183L33.710100446777346,-376.76538895281556L33.71466079586376,69.5899555001803L35.73236191387523,-10.256258617183818L35.74654966658852,-190.50678346096242L35.76985811747465,90.18389921248784L35.77441846656105,-109.76400579066552L35.77897881564747,153.4119414445478L35.78404587018793,-282.0360654681661L35.78860621927435,61.59320493399049L35.79316656836077,-193.56039699980028L37.825055439085524,-127.51893611930103L37.86255164268494,176.50409776578547L37.871672340857764,332.82715158813255L39.884813109782826,101.51534706391733L39.889373458869244,396.0132194193395L39.922309313382236,159.92574125324444L39.93599036064148,-442.9932258223897L39.945617764268356,531.0439261579446L39.95017811335477,110.15536738478899L41.96331888227983,45.69614843069729L41.98206698407954,-248.71929488580844L41.986627333165956,198.73254635820632L41.99118768225236,135.198163369576L42.00537543496566,142.95819278888615L42.00993578405207,-68.37010607680634L42.02412353676536,167.27524173363702L44.05094535294966,-150.21724470747733L44.07425380383578,268.85248367009495L44.07932085837625,122.60381676328623L44.08388120746265,102.14858155954467L44.08844155654907,-176.52438684025753L44.09300190563548,72.38897258694756L44.10262930926236,370.7998964002825L46.120330427273835,62.340928226427266L46.13401147453308,288.88967555223746L46.139078529073544,25.47302683902913L46.143638878159955,45.355914551599085L46.152759576332784,107.45600331521929L46.157826630873245,-24.340093373283565L46.16238697995966,-145.54013853794544L46.17150767813249,5.668008877007168L46.176574732672954,82.95470122465503L46.185695430845776,-22.501445753389447L48.198836199770845,150.17979196277145L48.20795689794367,179.09329109472543L50.27734197226784,-80.24119033460471L50.28190232135426,47.33768522911444L50.29102301952709,-121.498793861786L50.30521077224038,-122.49619246964158L50.30977112132679,107.00579168124241L50.31483817586726,98.85240905485801L50.32395887404009,-108.59108664223152L52.3882768938238,-78.59270604914985L52.4070249956235,117.94019547310884L52.41209205016396,154.6801714307808L52.41665239925038,211.45812327520895L54.443474215434684,584.4509958888116L54.4480345645211,158.0534417430113L54.453101619061556,-122.31758415704633L54.457661968147974,20.113523053790317L54.47184972086126,343.8658702092454L54.49059782266097,395.5566995636252L54.49515817174738,159.88234358247746L56.51285928975885,32.73069022514156L56.51741963884527,178.48350436785046L58.61467351314197,551.8988710369356L58.62379421131481,148.67749438373568L58.63342161494169,414.94379482014256L60.688618936552565,277.86963433334336L60.69317928563898,175.21454285406162L60.697739634725394,99.91568817347769L60.70736703835227,392.7082178165424L60.72611514015198,54.954615714022225L60.73523583832481,461.39957810629573L62.76205765450911,-325.83780015141764L62.780805756308816,121.50184400158136L62.78587281084928,313.92671814932135L64.85931152880582,299.83683449608725L64.8734992815191,171.00869582698033L64.88312668514598,22.693549559555493L64.8876870342324,19.11682401928232L64.89224738331882,61.26015977411883L66.90994850133029,-24.083784172672495L66.9145088504167,109.4150499205487L66.91906919950311,41.68633874185278L66.93781730130283,262.98913027369724L66.95200505401611,254.97163373926975L66.9661928067294,161.45648010734095L68.9930146229137,-252.203459635235L69.00264202654058,-245.98386660401155L69.007202375627,64.46895798001835L69.01632307379982,226.3640290843368L69.03051082651312,165.77458453348518L69.03507117559954,189.27388048138764L69.04013823013999,-199.02392010485408L71.06239969723788,158.83944858381227L71.0669600463243,225.133069471275L71.07608074449713,56.6519495177112L71.1044562499237,659.6398848761262L71.11357694809654,-157.39235843857887L71.118644002637,37.327080104297494L71.12320435172342,-378.16902256662786L71.12776470080983,195.0287638240867L73.14090546973489,64.0833483262049L73.15002616790771,-300.38838318917175L73.17840167333429,334.8950783418816L73.18296202242071,101.7395965066355L73.19208272059353,255.53052047430572L73.20171012422041,319.56644930669177L73.20627047330683,125.54337572325446L75.2194112422319,-16.76533027497979L75.22853194040471,136.8511828201805L75.23309228949113,12.56334151552636L75.23815934403159,-109.33630111990465L75.242719693118,-249.01842279993326L75.25184039129084,108.91328696782303L75.2569074458313,224.65702186987653L75.28021589671741,282.02496734008776L77.2979170147289,72.63691103060692L77.30703771290173,60.91712760163041L77.31159806198814,-254.86647001395096L77.31666511652861,-131.98993350671327L77.32578581470142,128.24416306273812L77.33034616378784,1.8182326222194831L77.34453391650113,118.74827505918597L77.34909426558755,125.63991684521636L77.35416132012801,283.88536807260783L77.35872166921443,522.6171068455435L79.37642278722589,138.52559956593248L79.38098313631231,189.75101362763576L79.39010383448513,462.72444941046143L79.4139189908253,112.57174197366517L79.43266709262501,-19.277377549938223L79.43722744171143,100.04525398208777L81.4549285597229,144.84238504602766L81.46860960698216,351.1988402538997L81.50610581058156,-109.51153218185652L83.5334343322199,126.88817280621586L83.53799468130632,476.3183777759155L83.55218243401961,-92.00825527258803L83.56130313219245,126.3118691071478L83.57093053581931,176.0188833412122L83.58005123399214,247.43932750619666L85.63524855560303,330.4243523406817L85.63980890468945,56.591786209821876L85.64436925377586,300.70988394141574L87.69500622630034,287.96465866263446L87.72287502627286,131.54622163283173L87.72794208081332,371.99512952618136L87.73250242989974,-104.80885540031073L87.73706277898616,169.66288556882589L87.74162312807256,12.045898470528016L87.75125053169944,221.13164260099165L87.75581088078586,-150.7116742016632L89.76895164971091,42.80905747179534L89.77807234788375,86.39117437035382L89.78263269697015,153.2356248377463L89.78769975151063,94.21061927776798L89.79682044968345,309.8144752423032L89.80644785331032,-139.10213388297308L89.81100820239674,62.27357619931139L89.82975630419645,251.34693917825163L91.90826207669345,288.20078275984685L93.93052354379134,99.60522234647868L93.96345939830434,42.54804424350246L93.97714044556358,64.90443032725892L93.98220750010404,243.7903288021559L96.02777741808805,-238.99570781923808L96.03233776717447,84.94689313272697L96.03689811626089,251.2790564403204L98.12959164147118,564.4070736286012L98.13415199055758,60.39237522131111L98.13921904509805,110.13635828831072L98.14377939418445,337.760989114606L100.16148051219594,-157.84621267860678L100.16604086128235,49.04066386602156L100.17060121036876,-115.14353184757556L100.18022861399564,440.94405342392764L100.19390966125488,87.0951140205215L100.19897671579534,482.7506169815753L100.21265776305458,777.7566690659456L100.21772481759506,82.93561975852013L102.23998628469293,-13.708194746185399L102.24910698286577,917.4626727326664L102.25873438649265,36.456038916940855L102.26329473557905,300.57084976939484L102.27748248829235,104.84488198031646L102.28204283737877,246.44200126799774L102.29623059009205,-273.63896596142655L102.30079093917847,124.00527928739922L102.30535128826487,237.87533965574332L104.32305240627636,190.37669755575334L104.3321731044492,33.79476540998431L104.33724015898964,38.27915118387557L104.35092120624888,186.16052579099093L104.35598826078935,-52.91387727534527L104.36054860987576,12.32418392353972L104.36510895896218,-141.02977205731935L104.3696693080486,53.987636485175656L104.37473636258906,548.3669061292962L104.37929671167548,59.159654613271016L104.38385706076188,238.02120069870756L106.40155817877336,113.09625312179567L106.40611852785977,306.4949394001303L106.45780248417248,412.8168687038153L108.47550360218395,13.283733200970914L108.48462430035677,-156.18875455572817L108.48918464944319,156.1823001472844L108.49425170398365,84.09341364871572L108.50337240215649,544.0054884636511L108.5266808530426,485.00935839667335L108.53174790758305,23.04133400616348L110.55400937468096,-106.66967225835651L110.57275747648065,8.77375269184688L110.57731782556706,476.7642592921032L110.6006262764532,-85.5432808589066L110.6193743782529,32.85041376044819L112.63251514717795,-219.00214277844196L112.68369239803661,427.47043961264274L112.68875945257707,126.14061837631127L112.6978801507499,664.5351373139995L114.71558126876137,-247.29506004307171L114.72014161784779,30.07409662264797L114.7247019669342,362.55280713015463L114.72976902147467,25.538810856917735L114.73432937056108,243.47035842691776L114.73888971964749,58.54875821832751L114.7434500687339,-267.34767872368866L114.76219817053362,63.90806901781525L114.76726522507407,355.11467794359305L116.84070394303062,406.8466313553605L116.84577099757108,18.83101212197974L116.8503313466575,329.9248810937497L116.85489169574392,106.2543292898791L118.86803246466897,-242.53680336522393L118.8771531628418,112.71385185609338L118.88171351192821,365.2470751697357L118.88678056646867,12.623360084102416L118.89590126464151,228.51147802912715L118.90552866826839,937.8636789403635L118.91008901735479,132.2034828544646L118.9146493664412,393.3355119695203L120.99771548802462,202.72257500756837L121.0027825425651,38.07350074291469L121.00734289165149,-45.974785117775895L123.0483524605491,357.8923339200412L123.0671005623488,136.3817691039743L123.0858486641485,80.73058869026075L123.09040901323492,57.17638829618505L125.10811013124639,165.93871891475177L125.11267048033281,-8.680964177814076L125.11723082941921,21.33767991912768L125.12229788395969,-345.66052455609827L125.13141858213251,346.91113711435025L125.14560633484581,171.13192929063413L125.15016668393223,195.4245414146585L127.21955175825639,255.4353784990389L127.23323280551564,108.01790545261541L127.2382998600561,-182.944733299009L129.260561327154,-304.3813066247995L129.2651216762404,8.058668114556156L129.2696820253268,331.3054649719212L129.27424237441323,-163.31509113825223L129.2793094289537,83.15680555244039L129.28843012712653,270.03099940530933L129.3026178798398,5.01849120863514L129.30717822892623,302.4925053854586L129.3168056325531,199.79159185191236L131.339067099651,85.49579285514619L131.3436274487374,235.85212528819036L131.3578152014507,377.77011052561073L131.3623755505371,149.56199632722794L131.36693589962354,25.45201551538375L131.37149624870995,21.95366631325507L131.3765633032504,438.91613502869285L131.3811236523368,594.7775669345324L131.38568400142321,168.47684338932058L131.39024435050965,-26.519071365151405L133.45000202120696,401.19971750956825L133.45962942483382,131.86891793180345L133.46875012300663,-190.03189377407028L133.47381717754712,243.99336187386817L133.47837752663352,77.53209109882341L133.48293787571993,96.87712752322167L135.496078644645,-47.665871007774655L135.5193870955311,215.12932740222973L135.52850779370394,2.6227419719022294L135.54269554641724,208.50203991030725L135.54725589550367,72.6210138293643L135.55232295004413,200.69921590070211L139.65309018963902,-15.509330760719507L139.66677123689826,40.69528454056294L139.68095898961155,-3.826455856630986L139.68551933869796,105.97510303133103L139.69514674232485,138.1974514194937L139.70426744049763,129.2812202424341L139.71389484412452,154.8519769956516L139.71845519321093,-23.99867745646017L141.7549044130221,188.33405193539167L141.75946476210854,123.8812618191318L141.76402511119494,298.0951682468996L141.78784026753513,557.6898306534713L141.79240061662153,161.4751032323171L143.81922243280584,-227.83099965671437L143.8288498364327,1005.2542549600038L143.83341018551914,149.84266997890887L143.83797053460555,258.7653476333779L143.84253088369195,288.68119063305807L143.8475979382324,14.884284650509159L143.86634604003214,-184.95443866398858L143.87090638911855,167.7361399535782L143.87546673820498,114.25831682173319L145.88860750713002,124.03403416430544L145.90228855438926,634.4154169299461L145.90735560892972,-132.50689408733405L145.91191595801615,100.55157622318195L145.91647630710256,-181.00320015058725L145.93066405981585,750.3736072478521L145.93522440890226,107.9955191054938L145.9397847579887,-141.30168898054643L145.95397251070196,259.0590237000357L147.97623397779986,119.85688170608313L147.9858613814267,142.8427149401026L147.99042173051316,284.8462863427105L147.99954242868597,-235.2857979875227L148.00460948322643,104.00549045613174L148.00916983231284,127.30215136543345L148.01829053048567,221.3227829257956L150.07804820118298,339.39329275099635L150.08311525572344,31.591350597389976L150.08767560480985,644.8351277237666L150.09223595389625,68.71380019042086L150.09679630298268,-187.32488264411523L154.20719094620446,195.65205955353505L154.21175129529087,81.48410155522896L154.21631164437727,-266.0939950384409L154.25887490251714,474.58056521094414L156.281136369615,117.995727122973L156.29481741687428,647.4549575406854L156.29988447141474,56.467503386146745L156.30900516958755,-31.591846570770144L156.31356551867398,48.15681324943907L156.31863257321444,90.12045514683071L156.32319292230085,21.65198133792876L156.33231362047368,21.581517415577224L156.33738067501415,193.60715841220804L156.34194102410058,-214.12027872704772L156.34650137318698,75.479156925609L158.35964214211202,4.915123215729864L158.36420249119845,288.43036946474245L158.36876284028486,164.69345423289354L158.3733231893713,24.51844694468744L158.37839024391175,304.332226488593L158.3875109420846,23.336819314237374L158.392071291171,-137.13845561961847L158.40169869479786,154.23722088568712L158.4108193929707,-129.0978007950652L158.42500714568396,606.0009427653747L160.44270826369547,34.894349973019956L160.44726861278187,-163.49176959333698L160.4518289618683,171.81853640803578L160.45689601640876,-100.96950037607968L160.470577063668,130.8119590965306L160.47564411820844,191.21663185236287L160.48476481638127,-154.73166388887552L160.49439222000814,57.85425074674231L160.49895256909457,174.9575943881502L162.54452248707858,539.2986263036294L162.56327058887828,-426.06166920060184L162.57289799250518,42.08287621381933L162.57745834159158,-15.273791651565006L164.59515945960305,449.88207992924623L164.6088405068623,42.76011146068569L164.61390756140275,207.49986490511324L166.7015340320726,187.45989885279937L166.706094381159,112.40362726128319L166.71572178478587,290.8454293381896L166.7248424829587,64.4438215859443L166.72990953749917,589.1374377440504L166.73446988658557,116.88745820114016L168.75217100459707,186.35854123317597L168.75673135368345,-37.551101823829384L168.7612917027699,152.2765339014738L168.76585205185629,15.357220356671974L168.77091910639675,168.3367357340595L168.784600153656,290.7639230123953L170.8539852279802,398.47990298119214L170.863105926153,20.73315205396878L170.8914814315796,189.14094948374364L170.89604178066602,710.2158053926763L172.91374289867747,127.27699084814051L172.9183032477639,141.22667638404272L172.9228635968503,147.19172120963344L172.94161169865004,-64.46499115790553L172.9466787531905,152.69005411953265L172.95123910227687,-49.14694015419511L172.95579945136328,107.21243117417742L172.9603598004497,64.1519306374837L172.96998720407657,382.1784086517488L174.9922486711745,-146.7793000454268L174.9968090202609,14.549574988534715L175.0013693693473,-107.40417602684647L175.00643642388775,39.93060262525282L175.01099677297418,162.3305849434955L175.01555712206059,59.366897186678045L175.03430522386031,534.943251504314L175.04393262748718,52.42389706764989L175.04849297657358,512.983101352288L177.0849421963848,528.484476757885L177.0940628945576,106.06064396548321L177.1036902981845,-30.501163475501585L179.14469986708207,334.1029743575084L179.1492602161685,101.58964657807094L179.1634479688818,631.5294356391128L181.22320563957908,340.09975930834185L181.2277659886655,108.08832112852916L181.2323263377519,289.46478515197094L181.23688668683835,269.3091723883414L181.24195374137878,161.48180948716606L181.24651409046518,-81.87988059319389L183.3579557174752,316.4105050733606L183.36251606656162,46.01175250331798L185.3802171845731,-98.5643189607643L185.39389823183234,319.2106800746342L185.4035256354592,87.89906853616998L185.40808598454564,464.549268395132L185.41264633363204,-17.374489798163864L185.42227373725893,79.53393229444778L185.42683408634534,163.90571052033312L185.4364614899722,161.835479999181L187.49115210612902,-75.14926129319443L187.50990020792875,223.42029680750215L187.5149672624692,153.75458764553412L187.51952761155562,87.65356653761762L189.5372287295671,443.256661986787L189.54634942773993,449.3266609069244L189.5559768313668,124.4189683679902L189.56965787862603,-234.7557626222685L191.62941554932334,-63.25661087771638L191.6344826038638,80.25388976195246L191.64360330203664,225.1046402578237L191.6532307056635,-102.07733507997261L191.66235140383634,129.79649219773316L191.66691175292277,-16.141069616776207L191.6719788074632,380.4444678634079L191.6765391565496,45.59813579238363L191.68109950563604,-44.642363246100416L193.75048457996022,-13.042490397944135L193.75504492904662,140.78635526980707L193.75960527813305,-221.37774912740912L195.81480259974393,200.18495712059607L195.82899035245723,11.003968400618078L195.83811105063006,46.80921787308745L197.85581216864153,508.6442388962967L197.8699999213548,261.1391568025385L197.87456027044124,156.92650144976454L197.88874802315453,-247.61006103522033L197.89786872132737,233.54487207992258L197.90749612495424,128.83703941317748L197.9120564740406,375.4371464891193L199.94343863931135,-275.1844923486972L199.94850569385184,123.64618105113604L199.95306604293825,71.01549299673657L199.95762639202465,36.38593684287255L199.96725379565152,739.9366242293128L202.03613216452163,344.2709171466722L202.04069251360806,164.90831974346696L202.05488026632136,21.68946882006989L202.06450766994823,113.0184557409043L202.07362836812106,130.62700637736964L204.09132948613254,282.916820834534L204.09588983521894,42.61088522868758L204.10045018430537,57.30564050294966L204.10551723884583,-66.37627378985044L204.11463793701867,402.09151069596726L204.12882568973194,137.3730162910152L204.13338603881837,-11.38553886266206L204.14301344244524,-67.7317574587762L204.14757379153167,43.20125276436332L204.15213414061807,295.2541646976699L206.16983525862955,106.46364646010989L206.18858336042925,483.3275720075532L206.21189181131535,182.49675161538553L206.21645216040176,104.7068971683169L206.22151921494222,-69.19087447601487L206.22607956402865,303.97128282608537L206.23063991311506,115.50676576848375L208.24378068204015,204.8720744259636L208.26708913292623,-123.41055895810854L208.27164948201266,127.9405964763391L208.27620983109907,221.44889911410567L208.29039758381236,559.1395637385651L208.30002498743926,67.93341405961917L208.30458533652566,539.2640818541918L208.30914568561207,79.01528308850538L210.32228645453714,-7.036701455663348L210.32684680362354,106.13822423740463L210.33140715270994,568.5832732196777L210.34559490542324,258.1760897657707L210.35978265813654,72.97174130867576L210.36890335630937,191.26370831400922L210.37853075993627,9.361900891385545L210.38309110902267,250.30093228435078L214.48385834861756,-458.7805216797741L214.488418697704,41.93261268340933L214.50260645041726,106.93713700030698L214.51679420313053,-39.26095557811763L216.58111222291427,760.6069661758165L216.58567257200068,150.89070322319574L216.59023292108708,40.54613067822146L216.59529997562757,99.61788703639122L216.59986032471397,136.92787053300333L216.6089810228868,-41.184830530318465L216.61404807742727,-120.65076622524185L218.63630954452515,70.70753598450119L218.65961799541128,181.10958209845955L218.67836609721098,133.7483579148254L220.723936015195,-11.094492226862286L220.7284963642814,48.976206625171415L220.73356341882183,-114.75167428007194L222.80700213677838,205.39448685405142L222.81662954040527,138.38172868852595L222.8257502385781,369.5093765598033L222.8444983403778,-207.52556964222407L222.84956539491827,162.09014882090815L222.8541257440047,-374.62049706922664L226.95033263451316,380.33117919673776L226.9548929835996,138.17062640009797L226.97364108539927,271.6191756435616L229.0754553087824,341.2763693092646L229.0800156578688,7.246294595518208L229.08508271240927,149.25903282130096L229.0896430614957,58.22497637450617L231.10734417950718,113.87176636238338L231.11190452859358,216.31468206999693L231.16358848490626,-201.52776548539288L233.1858499520042,123.0035143769262L233.1904103010906,538.6979099070536L233.194970650177,82.49510565853342L233.19953099926343,127.8782138323127L233.20915840289027,142.58170171180973L233.21371875197673,320.08027386885794L233.2182791010631,258.1084120751999L233.22334615560356,135.91375453446324L233.22790650469,-36.30417263986837L235.2780367717604,298.4346422446031L235.30185192810058,6.191120878442547L235.306412277187,-44.1145472169832L235.3109726262734,845.4618601062324L235.3206000299003,72.0490523096948L237.3474218460846,-88.85795587247503L237.36160959879788,367.9755981801278L237.37073029697072,62.902565008415664L237.38947839877042,73.23002861323509L237.39403874785685,531.5127729785071L243.59205986174842,-52.69247437245508L243.5971269162889,55.44993776730665L243.60168726537532,188.48780127093L243.61587501808862,398.9913875911269L243.62043536717502,113.12298164831586L243.62499571626145,301.66003722509276L243.62955606534786,399.295382364661L243.63462311988832,17.677295055775033L243.63918346897472,-120.7560399524387L245.66600528515903,344.7014321724327L245.67056563424543,63.45305686328105L245.67563268878592,-39.78968828955229L245.698941139672,532.2064964454787L245.70806183784484,42.12680459540172L245.7131288923853,144.52024358109023L245.72224959055814,144.54016935988597L247.73539035948318,216.5961156030726L247.7586988103693,-138.62468713487948L247.7632591594557,44.62375073534059L247.76781950854215,-91.07560338420922L247.7916346648823,518.1125178758396L247.79619501396874,66.41823468170094L247.80075536305515,-101.06874329855629L249.8138961319802,51.276524408010914L249.83264423377992,33.36821865372974L249.84176493195272,-176.21276309875225L249.87014043737932,362.03798145440487L249.87926113555216,23.85380401807697L251.89696225356363,108.38501259754709L251.90152260265003,71.24808907318759L251.90608295173647,593.6010534264851L251.92483105353617,424.26842003124875L251.9298981080766,131.4054144042231L251.934458457163,-392.5472812091706L251.9486462098763,-240.52415496754088L251.95320655896273,114.90059752444094L253.97546802606064,225.36362713573055L254.0271519823733,476.59579479304745L254.03627268054615,152.20158306041043L256.06309449673046,279.08315285915415L256.0727219003573,94.5321094157956L256.0772822494438,-48.464446045612675L256.11021810395675,207.48347317788358L256.11477845304313,173.74248372989325L258.1279192219682,362.8678443071316L258.13703992014104,50.21363126089334L258.14160026922747,128.85551779884034L258.14666732376793,93.68905116234096L258.1512276728543,67.19825896421942L258.16034837102717,226.2790429842189L258.17909647282687,272.9045391460049L258.18416352736733,128.91452319222338L258.19328422554014,182.6111077344911L260.20642499446524,268.12202054076755L260.2109853435516,115.73169066133059L260.21554569263805,227.18058798185064L260.24392119806464,434.3220006705023L260.2484815471511,175.35886001101744L260.25304189623745,240.77953397683194L260.2672296489507,390.3035671120424L260.2717899980372,43.79043826231387L262.28493076696225,257.5911017079054L262.3082392178484,240.37610932587484L262.31735991602113,159.21936515796978L262.32242697056165,-13.164071421104609L262.326987319648,512.256835663046L262.3457354214477,154.7473787185834L264.36799688854563,110.73299786089554L264.37255723763207,-130.51320653969145L264.37711758671844,68.49690832946142L264.39130533943177,207.12293961009695L264.42424119394474,807.5717131955313L264.42880154303117,60.17647241232579L266.4510630101291,-38.14038381465548L268.52500843353965,209.7784717909598L268.5295687826261,96.7447634212214" fill="none"></path></g></g></g></g></g></g><g transform="translate(51, 178)" clip-path="url(#clip_1)"><clipPath id="clip_1"><rect width="278" height="21"></rect></clipPath><g><g><line x1="0" y1="0" x2="0" y2="5" style="visibility: inherit;" fill="rgb(0, 0, 0)" stroke="rgb(204, 204, 204)" stroke-width="1px"></line><line x1="25.3352727023038" y1="0" x2="25.3352727023038" y2="5" style="visibility: inherit;" fill="rgb(0, 0, 0)" stroke="rgb(204, 204, 204)" stroke-width="1px"></line><line x1="50.6705454046076" y1="0" x2="50.6705454046076" y2="5" style="visibility: inherit;" fill="rgb(0, 0, 0)" stroke="rgb(204, 204, 204)" stroke-width="1px"></line><line x1="76.00581810691139" y1="0" x2="76.00581810691139" y2="5" style="visibility: inherit;" fill="rgb(0, 0, 0)" stroke="rgb(204, 204, 204)" stroke-width="1px"></line><line x1="101.3410908092152" y1="0" x2="101.3410908092152" y2="5" style="visibility: inherit;" fill="rgb(0, 0, 0)" stroke="rgb(204, 204, 204)" stroke-width="1px"></line><line x1="126.676363511519" y1="0" x2="126.676363511519" y2="5" style="visibility: inherit;" fill="rgb(0, 0, 0)" stroke="rgb(204, 204, 204)" stroke-width="1px"></line><line x1="152.01163621382278" y1="0" x2="152.01163621382278" y2="5" style="visibility: inherit;" fill="rgb(0, 0, 0)" stroke="rgb(204, 204, 204)" stroke-width="1px"></line><line x1="177.3469089161266" y1="0" x2="177.3469089161266" y2="5" style="visibility: inherit;" fill="rgb(0, 0, 0)" stroke="rgb(204, 204, 204)" stroke-width="1px"></line><line x1="202.6821816184304" y1="0" x2="202.6821816184304" y2="5" style="visibility: inherit;" fill="rgb(0, 0, 0)" stroke="rgb(204, 204, 204)" stroke-width="1px"></line><line x1="228.0174543207342" y1="0" x2="228.0174543207342" y2="5" style="visibility: inherit;" fill="rgb(0, 0, 0)" stroke="rgb(204, 204, 204)" stroke-width="1px"></line><line x1="253.352727023038" y1="0" x2="253.352727023038" y2="5" style="visibility: inherit;" fill="rgb(0, 0, 0)" stroke="rgb(204, 204, 204)" stroke-width="1px"></line><line x1="278.6879997253418" y1="0" x2="278.6879997253418" y2="5" style="visibility: inherit;" fill="rgb(0, 0, 0)" stroke="rgb(204, 204, 204)" stroke-width="1px"></line></g><g transform="translate(0, 8)"><text style="text-anchor: middle; visibility: hidden; font-family: &quot;Helvetica Neue&quot;, sans-serif; font-size: 12px; font-weight: 200;" x="0" y="0" dx="0em" dy="0.95em" fill="rgb(50, 49, 63)" stroke="none" stroke-width="1px">-50k</text><text style="text-anchor: middle; visibility: inherit; font-family: &quot;Helvetica Neue&quot;, sans-serif; font-size: 12px; font-weight: 200;" x="25.3352727023038" y="0" dx="0em" dy="0.95em" fill="rgb(50, 49, 63)" stroke="none" stroke-width="1px">0</text><text style="text-anchor: middle; visibility: hidden; font-family: &quot;Helvetica Neue&quot;, sans-serif; font-size: 12px; font-weight: 200;" x="50.6705454046076" y="0" dx="0em" dy="0.95em" fill="rgb(50, 49, 63)" stroke="none" stroke-width="1px">50k</text><text style="text-anchor: middle; visibility: inherit; font-family: &quot;Helvetica Neue&quot;, sans-serif; font-size: 12px; font-weight: 200;" x="76.00581810691139" y="0" dx="0em" dy="0.95em" fill="rgb(50, 49, 63)" stroke="none" stroke-width="1px">100k</text><text style="text-anchor: middle; visibility: hidden; font-family: &quot;Helvetica Neue&quot;, sans-serif; font-size: 12px; font-weight: 200;" x="101.3410908092152" y="0" dx="0em" dy="0.95em" fill="rgb(50, 49, 63)" stroke="none" stroke-width="1px">150k</text><text style="text-anchor: middle; visibility: inherit; font-family: &quot;Helvetica Neue&quot;, sans-serif; font-size: 12px; font-weight: 200;" x="126.676363511519" y="0" dx="0em" dy="0.95em" fill="rgb(50, 49, 63)" stroke="none" stroke-width="1px">200k</text><text style="text-anchor: middle; visibility: hidden; font-family: &quot;Helvetica Neue&quot;, sans-serif; font-size: 12px; font-weight: 200;" x="152.01163621382278" y="0" dx="0em" dy="0.95em" fill="rgb(50, 49, 63)" stroke="none" stroke-width="1px">250k</text><text style="text-anchor: middle; visibility: inherit; font-family: &quot;Helvetica Neue&quot;, sans-serif; font-size: 12px; font-weight: 200;" x="177.3469089161266" y="0" dx="0em" dy="0.95em" fill="rgb(50, 49, 63)" stroke="none" stroke-width="1px">300k</text><text style="text-anchor: middle; visibility: hidden; font-family: &quot;Helvetica Neue&quot;, sans-serif; font-size: 12px; font-weight: 200;" x="202.6821816184304" y="0" dx="0em" dy="0.95em" fill="rgb(50, 49, 63)" stroke="none" stroke-width="1px">350k</text><text style="text-anchor: middle; visibility: inherit; font-family: &quot;Helvetica Neue&quot;, sans-serif; font-size: 12px; font-weight: 200;" x="228.0174543207342" y="0" dx="0em" dy="0.95em" fill="rgb(50, 49, 63)" stroke="none" stroke-width="1px">400k</text><text style="text-anchor: middle; visibility: hidden; font-family: &quot;Helvetica Neue&quot;, sans-serif; font-size: 12px; font-weight: 200;" x="253.352727023038" y="0" dx="0em" dy="0.95em" fill="rgb(50, 49, 63)" stroke="none" stroke-width="1px">450k</text><text style="text-anchor: middle; visibility: hidden; font-family: &quot;Helvetica Neue&quot;, sans-serif; font-size: 12px; font-weight: 200;" x="278.6879997253418" y="0" dx="0em" dy="0.95em" fill="rgb(50, 49, 63)" stroke="none" stroke-width="1px">500k</text></g><line x1="0" y1="0" x2="278.6879997253418" y2="0" fill="rgb(0, 0, 0)" stroke="rgb(204, 204, 204)" stroke-width="1px"></line></g></g></g></g></svg>