<svg viewBox="0 0 330 200" xmlns="http://www.w3.org/2000/svg"><g><g><g><g><g><line x1="51.3120002746582" y1="178.07699966430664" x2="46.3120002746582" y2="178.07699966430664" style="visibility: inherit;" fill="rgb(0, 0, 0)" stroke="rgb(204, 204, 204)" stroke-width="1px"></line><line x1="51.3120002746582" y1="165.35721397399902" x2="46.3120002746582" y2="165.35721397399902" style="visibility: inherit;" fill="rgb(0, 0, 0)" stroke="rgb(204, 204, 204)" stroke-width="1px"></line><line x1="51.3120002746582" y1="152.6374282836914" x2="46.3120002746582" y2="152.6374282836914" style="visibility: inherit;" fill="rgb(0, 0, 0)" stroke="rgb(204, 204, 204)" stroke-width="1px"></line><line x1="51.3120002746582" y1="139.9176425933838" x2="46.3120002746582" y2="139.9176425933838" style="visibility: inherit;" fill="rgb(0, 0, 0)" stroke="rgb(204, 204, 204)" stroke-width="1px"></line><line x1="51.3120002746582" y1="127.19785690307617" x2="46.3120002746582" y2="127.19785690307617" style="visibility: inherit;" fill="rgb(0, 0, 0)" stroke="rgb(204, 204, 204)" stroke-width="1px"></line><line x1="51.3120002746582" y1="114.47807121276855" x2="46.3120002746582" y2="114.47807121276855" style="visibility: inherit;" fill="rgb(0, 0, 0)" stroke="rgb(204, 204, 204)" stroke-width="1px"></line><line x1="51.3120002746582" y1="101.75828552246094" x2="46.3120002746582" y2="101.75828552246094" style="visibility: inherit;" fill="rgb(0, 0, 0)" stroke="rgb(204, 204, 204)" stroke-width="1px"></line><line x1="51.3120002746582" y1="89.03849983215332" x2="46.3120002746582" y2="89.03849983215332" style="visibility: inherit;" fill="rgb(0, 0, 0)" stroke="rgb(204, 204, 204)" stroke-width="1px"></line><line x1="51.3120002746582" y1="76.31871414184569" x2="46.3120002746582" y2="76.31871414184569" style="visibility: inherit;" fill="rgb(0, 0, 0)" stroke="rgb(204, 204, 204)" stroke-width="1px"></line><line x1="51.3120002746582" y1="63.5989284515381" x2="46.3120002746582" y2="63.5989284515381" style="visibility: inherit;" fill="rgb(0, 0, 0)" stroke="rgb(204, 204, 204)" stroke-width="1px"></line><line x1="51.3120002746582" y1="50.87914276123047" x2="46.3120002746582" y2="50.87914276123047" style="visibility: inherit;" fill="rgb(0, 0, 0)" stroke="rgb(204, 204, 204)" stroke-width="1px"></line><line x1="51.3120002746582" y1="38.15935707092282" x2="46.3120002746582" y2="38.15935707092282" style="visibility: inherit;" fill="rgb(0, 0, 0)" stroke="rgb(204, 204, 204)" stroke-width="1px"></line><line x1="51.3120002746582" y1="25.439571380615234" x2="46.3120002746582" y2="25.439571380615234" style="visibility: inherit;" fill="rgb(0, 0, 0)" stroke="rgb(204, 204, 204)" stroke-width="1px"></line><line x1="51.3120002746582" y1="12.719785690307617" x2="46.3120002746582" y2="12.719785690307617" style="visibility: inherit;" fill="rgb(0, 0, 0)" stroke="rgb(204, 204, 204)" stroke-width="1px"></line><line x1="51.3120002746582" y1="0" x2="46.3120002746582" y2="0" style="visibility: inherit;" fill="rgb(0, 0, 0)" stroke="rgb(204, 204, 204)" stroke-width="1px"></line></g><g transform="translate(41.3120002746582, 0)"><text style="text-anchor: end; visibility: hidden; font-family: &quot;Helvetica Neue&quot;, sans-serif; font-size: 12px; font-weight: 200;" x="0" y="178.07699966430664" dx="0em" dy="0.3em" fill="rgb(50, 49, 63)" stroke="none" stroke-width="1px">-1.2</text><text style="text-anchor: end; visibility: inherit; font-family: &quot;Helvetica Neue&quot;, sans-serif; font-size: 12px; font-weight: 200;" x="0" y="165.35721397399902" dx="0em" dy="0.3em" fill="rgb(50, 49, 63)" stroke="none" stroke-width="1px">-1</text><text style="text-anchor: end; visibility: hidden; font-family: &quot;Helvetica Neue&quot;, sans-serif; font-size: 12px; font-weight: 200;" x="0" y="152.6374282836914" dx="0em" dy="0.3em" fill="rgb(50, 49, 63)" stroke="none" stroke-width="1px">-0.8</text><text style="text-anchor: end; visibility: inherit; font-family: &quot;Helvetica Neue&quot;, sans-serif; font-size: 12px; font-weight: 200;" x="0" y="139.9176425933838" dx="0em" dy="0.3em" fill="rgb(50, 49, 63)" stroke="none" stroke-width="1px">-0.6</text><text style="text-anchor: end; visibility: hidden; font-family: &quot;Helvetica Neue&quot;, sans-serif; font-size: 12px; font-weight: 200;" x="0" y="127.19785690307617" dx="0em" dy="0.3em" fill="rgb(50, 49, 63)" stroke="none" stroke-width="1px">-0.4</text><text style="text-anchor: end; visibility: inherit; font-family: &quot;Helvetica Neue&quot;, sans-serif; font-size: 12px; font-weight: 200;" x="0" y="114.47807121276855" dx="0em" dy="0.3em" fill="rgb(50, 49, 63)" stroke="none" stroke-width="1px">-0.2</text><text style="text-anchor: end; visibility: hidden; font-family: &quot;Helvetica Neue&quot;, sans-serif; font-size: 12px; font-weight: 200;" x="0" y="101.75828552246094" dx="0em" dy="0.3em" fill="rgb(50, 49, 63)" stroke="none" stroke-width="1px">0</text><text style="text-anchor: end; visibility: inherit; font-family: &quot;Helvetica Neue&quot;, sans-serif; font-size: 12px; font-weight: 200;" x="0" y="89.03849983215332" dx="0em" dy="0.3em" fill="rgb(50, 49, 63)" stroke="none" stroke-width="1px">0.2</text><text style="text-anchor: end; visibility: hidden; font-family: &quot;Helvetica Neue&quot;, sans-serif; font-size: 12px; font-weight: 200;" x="0" y="76.31871414184569" dx="0em" dy="0.3em" fill="rgb(50, 49, 63)" stroke="none" stroke-width="1px">0.4</text><text style="text-anchor: end; visibility: inherit; font-family: &quot;Helvetica Neue&quot;, sans-serif; font-size: 12px; font-weight: 200;" x="0" y="63.5989284515381" dx="0em" dy="0.3em" fill="rgb(50, 49, 63)" stroke="none" stroke-width="1px">0.6</text><text style="text-anchor: end; visibility: hidden; font-family: &quot;Helvetica Neue&quot;, sans-serif; font-size: 12px; font-weight: 200;" x="0" y="50.87914276123047" dx="0em" dy="0.3em" fill="rgb(50, 49, 63)" stroke="none" stroke-width="1px">0.8</text><text style="text-anchor: end; visibility: inherit; font-family: &quot;Helvetica Neue&quot;, sans-serif; font-size: 12px; font-weight: 200;" x="0" y="38.15935707092282" dx="0em" dy="0.3em" fill="rgb(50, 49, 63)" stroke="none" stroke-width="1px">1</text><text style="text-anchor: end; visibility: hidden; font-family: &quot;Helvetica Neue&quot;, sans-serif; font-size: 12px; font-weight: 200;" x="0" y="25.439571380615234" dx="0em" dy="0.3em" fill="rgb(50, 49, 63)" stroke="none" stroke-width="1px">1.2</text><text style="text-anchor: end; visibility: inherit; font-family: &quot;Helvetica Neue&quot;, sans-serif; font-size: 12px; font-weight: 200;" x="0" y="12.719785690307617" dx="0em" dy="0.3em" fill="rgb(50, 49, 63)" stroke="none" stroke-width="1px">1.4</text><text style="text-anchor: end; visibility: hidden; font-family: &quot;Helvetica Neue&quot;, sans-serif; font-size: 12px; font-weight: 200;" x="0" y="0" dx="0em" dy="0.3em" fill="rgb(50, 49, 63)" stroke="none" stroke-width="1px">1.6</text></g><line x1="51.3120002746582" y1="0" x2="51.3120002746582" y2="178.07699966430664" fill="rgb(0, 0, 0)" stroke="rgb(204, 204, 204)" stroke-width="1px"></line></g></g><g transform="translate(51, 0)" clip-path="url(#clip_0)"><clipPath id="clip_0"><rect width="278" height="178"></rect></clipPath><g><g><g><line x1="0" y1="0" x2="0" y2="178.07699966430664" fill="rgb(0, 0, 0)" stroke="rgb(60, 60, 60)" stroke-width="1px" opacity="0.25"></line><line x1="25.3352727023038" y1="0" x2="25.3352727023038" y2="178.07699966430664" fill="rgb(0, 0, 0)" stroke="rgb(60, 60, 60)" stroke-width="1px" opacity="0.25"></line><line x1="50.6705454046076" y1="0" x2="50.6705454046076" y2="178.07699966430664" fill="rgb(0, 0, 0)" stroke="rgb(60, 60, 60)" stroke-width="1px" opacity="0.25"></line><line x1="76.00581810691139" y1="0" x2="76.00581810691139" y2="178.07699966430664" fill="rgb(0, 0, 0)" stroke="rgb(60, 60, 60)" stroke-width="1px" opacity="0.25"></line><line x1="101.3410908092152" y1="0" x2="101.3410908092152" y2="178.07699966430664" fill="rgb(0, 0, 0)" stroke="rgb(60, 60, 60)" stroke-width="1px" opacity="0.25"></line><line x1="126.676363511519" y1="0" x2="126.676363511519" y2="178.07699966430664" fill="rgb(0, 0, 0)" stroke="rgb(60, 60, 60)" stroke-width="1px" opacity="0.25"></line><line x1="152.01163621382278" y1="0" x2="152.01163621382278" y2="178.07699966430664" fill="rgb(0, 0, 0)" stroke="rgb(60, 60, 60)" stroke-width="1px" opacity="0.25"></line><line x1="177.3469089161266" y1="0" x2="177.3469089161266" y2="178.07699966430664" fill="rgb(0, 0, 0)" stroke="rgb(60, 60, 60)" stroke-width="1px" opacity="0.25"></line><line x1="202.6821816184304" y1="0" x2="202.6821816184304" y2="178.07699966430664" fill="rgb(0, 0, 0)" stroke="rgb(60, 60, 60)" stroke-width="1px" opacity="0.25"></line><line x1="228.0174543207342" y1="0" x2="228.0174543207342" y2="178.07699966430664" fill="rgb(0, 0, 0)" stroke="rgb(60, 60, 60)" stroke-width="1px" opacity="0.25"></line><line x1="253.352727023038" y1="0" x2="253.352727023038" y2="178.07699966430664" fill="rgb(0, 0, 0)" stroke="rgb(60, 60, 60)" stroke-width="1px" opacity="0.25"></line><line x1="278.6879997253418" y1="0" x2="278.6879997253418" y2="178.07699966430664" fill="rgb(0, 0, 0)" stroke="rgb(60, 60, 60)" stroke-width="1px" opacity="0.25"></line></g><g><line x1="0" y1="178.07699966430664" x2="278.6879997253418" y2="178.07699966430664" fill="rgb(0, 0, 0)" stroke="rgb(60, 60, 60)" stroke-width="1px" opacity="0.25"></line><line x1="0" y1="165.35721397399902" x2="278.6879997253418" y2="165.35721397399902" fill="rgb(0, 0, 0)" stroke="rgb(60, 60, 60)" stroke-width="1px" opacity="0.25"></line><line x1="0" y1="152.6374282836914" x2="278.6879997253418" y2="152.6374282836914" fill="rgb(0, 0, 0)" stroke="rgb(60, 60, 60)" stroke-width="1px" opacity="0.25"></line><line x1="0" y1="139.9176425933838" x2="278.6879997253418" y2="139.9176425933838" fill="rgb(0, 0, 0)" stroke="rgb(60, 60, 60)" stroke-width="1px" opacity="0.25"></line><line x1="0" y1="127.19785690307617" x2="278.6879997253418" y2="127.19785690307617" fill="rgb(0, 0, 0)" stroke="rgb(60, 60, 60)" stroke-width="1px" opacity="0.25"></line><line x1="0" y1="114.47807121276855" x2="278.6879997253418" y2="114.47807121276855" fill="rgb(0, 0, 0)" stroke="rgb(60, 60, 60)" stroke-width="1px" opacity="0.25"></line><line x1="0" y1="101.75828552246094" x2="278.6879997253418" y2="101.75828552246094" fill="rgb(0, 0, 0)" stroke="rgb(60, 60, 60)" stroke-width="1px" opacity="0.25"></line><line x1="0" y1="89.03849983215332" x2="278.6879997253418" y2="89.03849983215332" fill="rgb(0, 0, 0)" stroke="rgb(60, 60, 60)" stroke-width="1px" opacity="0.25"></line><line x1="0" y1="76.31871414184569" x2="278.6879997253418" y2="76.31871414184569" fill="rgb(0, 0, 0)" stroke="rgb(60, 60, 60)" stroke-width="1px" opacity="0.25"></line><line x1="0" y1="63.5989284515381" x2="278.6879997253418" y2="63.5989284515381" fill="rgb(0, 0, 0)" stroke="rgb(60, 60, 60)" stroke-width="1px" opacity="0.25"></line><line x1="0" y1="50.87914276123047" x2="278.6879997253418" y2="50.87914276123047" fill="rgb(0, 0, 0)" stroke="rgb(60, 60, 60)" stroke-width="1px" opacity="0.25"></line><line x1="0" y1="38.15935707092282" x2="278.6879997253418" y2="38.15935707092282" fill="rgb(0, 0, 0)" stroke="rgb(60, 60, 60)" stroke-width="1px" opacity="0.25"></line><line x1="0" y1="25.439571380615234" x2="278.6879997253418" y2="25.439571380615234" fill="rgb(0, 0, 0)" stroke="rgb(60, 60, 60)" stroke-width="1px" opacity="0.25"></line><line x1="0" y1="12.719785690307617" x2="278.6879997253418" y2="12.719785690307617" fill="rgb(0, 0, 0)" stroke="rgb(60, 60, 60)" stroke-width="1px" opacity="0.25"></line><line x1="0" y1="0" x2="278.6879997253418" y2="0" fill="rgb(0, 0, 0)" stroke="rgb(60, 60, 60)" stroke-width="1px" opacity="0.25"></line></g></g></g><g><g><line x1="0" y1="101.75828552246094" x2="278.6879997253418" y2="101.75828552246094" fill="rgb(0, 0, 0)" stroke="rgb(153, 153, 153)" stroke-width="1.5px"></line></g></g><g><g><line x1="25.3352727023038" y1="0" x2="25.3352727023038" y2="178.07699966430664" fill="rgb(0, 0, 0)" stroke="rgb(153, 153, 153)" stroke-width="1.5px"></line></g></g><g><g><g><g><g><path style="fill: none;" stroke="rgb(255, 112, 67)" stroke-width="2px" d="M25.34895374956304,89.03849964261373L25.358581153189917,89.03849964261373L25.363141502276335,89.03849964261373L25.38188960407604,89.03849964261373L25.38644995316245,89.03849964261373L25.396077356789327,89.03849964261373L25.40063770587574,89.03849964261373L27.413778474800804,89.03849964261373L27.41833882388722,89.03849964261373L27.422899172973633,89.03849964261373L27.427459522060047,89.03849964261373L27.43252657660051,89.03849964261373L27.437086925686923,89.03849964261373L27.45583502748663,89.03849964261373L27.460395376573043,89.03849964261373L29.50596529455705,89.03849964261373L29.511032349097512,89.03849964261373L29.52015304727034,89.03849964261373L29.53434079998363,89.03849964261373L29.538901149070043,89.03849964261373L29.548528552696922,89.03849964261373L29.553088901783337,89.03849964261373L29.55764925086975,89.03849964261373L31.57079001979481,89.03849964261373L31.57991071796764,89.03849964261373L31.589538121594515,89.03849964261373L31.594098470680933,89.03849964261373L31.60828622339422,89.03849964261373L31.612846572480635,89.03849964261373L31.61740692156705,89.03849964261373L31.621967270653464,89.03849964261373L31.627034325193925,89.03849964261373L33.64929579229182,89.03849964261373L33.65385614137823,89.03849964261373L33.66297683955106,89.03849964261373L33.672604243177936,89.03849964261373L33.67716459226435,89.03849964261373L33.681724941350765,89.03849964261373L33.68679199589123,89.03849964261373L33.70047304315047,89.03849964261373L33.70554009769093,89.03849964261373L33.710100446777346,89.03849964261373L33.71466079586376,89.03849964261373L35.73236191387523,89.03849964261373L35.74148261204806,89.03849964261373L35.74654966658852,89.03849964261373L35.76985811747465,89.03849964261373L35.77441846656105,89.03849964261373L35.77897881564747,89.03849964261373L35.78404587018793,89.03849964261373L35.78860621927435,89.03849964261373L35.79316656836077,89.03849964261373L37.825055439085524,89.03849964261373L37.86255164268494,89.03849964261373L37.871672340857764,89.03849964261373L39.884813109782826,89.03849964261373L39.889373458869244,89.03849964261373L39.922309313382236,89.03849964261373L39.93599036064148,89.03849964261373L39.945617764268356,89.03849964261373L39.95017811335477,89.03849964261373L41.96331888227983,89.03849964261373L41.98206698407954,89.03849964261373L41.986627333165956,89.03849964261373L41.99118768225236,89.03849964261373L42.00537543496566,89.03849964261373L42.00993578405207,89.03849964261373L42.02412353676536,89.03849964261373L44.05094535294966,89.03849964261373L44.06057275657653,89.03849964261373L44.06969345474937,89.03849964261373L44.07425380383578,89.03849964261373L44.07932085837625,89.03849964261373L44.08388120746265,89.03849964261373L44.08844155654907,89.03849964261373L44.09300190563548,89.03849964261373L44.10262930926236,89.03849964261373L46.120330427273835,89.03849964261373L46.13401147453308,89.03849964261373L46.139078529073544,89.03849964261373L46.143638878159955,89.03849964261373L46.152759576332784,89.03849964261373L46.157826630873245,89.03849964261373L46.16238697995966,89.03849964261373L46.17150767813249,89.03849964261373L46.176574732672954,89.03849964261373L46.185695430845776,89.03849964261373L48.198836199770845,89.03849964261373L48.20795689794367,89.03849964261373L48.212517247030085,89.03849964261373L48.226704999743376,89.03849964261373L48.24545310154308,89.03849964261373L48.250013450629496,89.03849964261373L48.25508050516995,89.03849964261373L48.25964085425637,89.03849964261373L50.27734197226784,89.03849964261373L50.28190232135426,89.03849964261373L50.29102301952709,89.03849964261373L50.30065042315396,89.03849964261373L50.30521077224038,89.03849964261373L50.30977112132679,89.03849964261373L50.31483817586726,89.03849964261373L50.32395887404009,89.03849964261373L50.32851922312649,89.03849964261373L52.36952879202409,89.03849964261373L52.3882768938238,89.03849964261373L52.4070249956235,89.03849964261373L52.41209205016396,89.03849964261373L52.41665239925038,89.03849964261373L54.443474215434684,89.03849964261373L54.4480345645211,89.03849964261373L54.453101619061556,89.03849964261373L54.457661968147974,89.03849964261373L54.47184972086126,89.03849964261373L54.476410069947676,89.03849964261373L54.49059782266097,89.03849964261373L54.49515817174738,89.03849964261373L56.51285928975885,89.03849964261373L56.51741963884527,89.03849964261373L56.52197998793168,89.03849964261373L56.53160739155856,89.03849964261373L56.53616774064498,89.03849964261373L56.540728089731395,89.03849964261373L56.5452884388178,89.03849964261373L56.55035549335827,89.03849964261373L56.55491584244468,89.03849964261373L56.56910359515797,89.03849964261373L56.57366394424439,89.03849964261373L58.59136506225586,89.03849964261373L58.61011316405556,89.03849964261373L58.61467351314197,89.03849964261373L58.62379421131481,89.03849964261373L58.63342161494169,89.03849964261373L58.6379819640281,89.03849964261373L60.669870834752864,89.03849964261373L60.68355188201211,89.03849964261373L60.688618936552565,89.03849964261373L60.69317928563898,89.03849964261373L60.697739634725394,89.03849964261373L60.70736703835227,89.03849964261373L60.72611514015198,89.03849964261373L60.73523583832481,89.03849964261373L62.752936956336285,89.03849964261373L62.7574973054227,89.03849964261373L62.76205765450911,89.03849964261373L62.780805756308816,89.03849964261373L62.78587281084928,89.03849964261373L62.794993509022106,89.03849964261373L62.80462091264898,89.03849964261373L62.81374161082181,89.03849964261373L64.84563048154658,89.03849964261373L64.8547511797194,89.03849964261373L64.85931152880582,89.03849964261373L64.8734992815191,89.03849964261373L64.88312668514598,89.03849964261373L64.8876870342324,89.03849964261373L64.89224738331882,89.03849964261373L66.90994850133029,89.03849964261373L66.9145088504167,89.03849964261373L66.91906919950311,89.03849964261373L66.93781730130283,89.03849964261373L66.94288435584328,89.03849964261373L66.95200505401611,89.03849964261373L66.9661928067294,89.03849964261373L68.9930146229137,89.03849964261373L68.99757497200012,89.03849964261373L69.00264202654058,89.03849964261373L69.007202375627,89.03849964261373L69.01632307379982,89.03849964261373L69.03051082651312,89.03849964261373L69.03507117559954,89.03849964261373L69.04013823013999,89.03849964261373L71.06239969723788,89.03849964261373L71.0669600463243,89.03849964261373L71.07608074449713,89.03849964261373L71.1044562499237,89.03849964261373L71.11357694809654,89.03849964261373L71.118644002637,89.03849964261373L71.12320435172342,89.03849964261373L71.12776470080983,89.03849964261373L73.14090546973489,89.03849964261373L73.15002616790771,89.03849964261373L73.15458651699413,89.03849964261373L73.17840167333429,89.03849964261373L73.18296202242071,89.03849964261373L73.19208272059353,89.03849964261373L73.20171012422041,89.03849964261373L73.20627047330683,89.03849964261373L75.2194112422319,89.03849964261373L75.22853194040471,89.03849964261373L75.23309228949113,89.03849964261373L75.23815934403159,89.03849964261373L75.242719693118,89.03849964261373L75.25184039129084,89.03849964261373L75.2569074458313,89.03849964261373L75.26602814400414,89.03849964261373L75.27058849309054,89.03849964261373L75.28021589671741,89.03849964261373L77.2979170147289,89.03849964261373L77.30703771290173,89.03849964261373L77.31159806198814,89.03849964261373L77.31666511652861,89.03849964261373L77.32578581470142,89.03849964261373L77.33034616378784,89.03849964261373L77.34453391650113,89.03849964261373L77.34909426558755,89.03849964261373L77.35416132012801,89.03849964261373L77.35872166921443,89.03849964261373L79.37642278722589,89.03849964261373L79.38098313631231,89.03849964261373L79.38554348539873,89.03849964261373L79.39010383448513,89.03849964261373L79.4139189908253,89.03849964261373L79.43266709262501,89.03849964261373L79.43722744171143,89.03849964261373L81.4549285597229,89.03849964261373L81.46860960698216,89.03849964261373L81.50154546149514,89.03849964261373L81.50610581058156,89.03849964261373L83.5334343322199,89.03849964261373L83.53799468130632,89.03849964261373L83.54255503039273,89.03849964261373L83.55218243401961,89.03849964261373L83.56130313219245,89.03849964261373L83.57093053581931,89.03849964261373L83.58005123399214,89.03849964261373L85.63068820651661,89.03849964261373L85.63524855560303,89.03849964261373L85.63980890468945,89.03849964261373L85.64436925377586,89.03849964261373L85.65399665740274,89.03849964261373L85.65855700648913,89.03849964261373L85.67274475920243,89.03849964261373L87.69500622630034,89.03849964261373L87.72287502627286,89.03849964261373L87.72794208081332,89.03849964261373L87.73250242989974,89.03849964261373L87.73706277898616,89.03849964261373L87.74162312807256,89.03849964261373L87.75125053169944,89.03849964261373L87.75581088078586,89.03849964261373L89.76895164971091,89.03849964261373L89.77807234788375,89.03849964261373L89.78263269697015,89.03849964261373L89.78769975151063,89.03849964261373L89.79682044968345,89.03849964261373L89.80644785331032,89.03849964261373L89.81100820239674,89.03849964261373L89.82975630419645,89.03849964261373L91.85657812038075,89.03849964261373L91.87076587309404,89.03849964261373L91.87532622218045,89.03849964261373L91.88495362580733,89.03849964261373L91.88951397489375,89.03849964261373L91.89863467306658,89.03849964261373L91.90826207669345,89.03849964261373L93.93052354379134,89.03849964261373L93.96345939830434,89.03849964261373L93.97714044556358,89.03849964261373L93.98220750010404,89.03849964261373L96.00446896720193,89.03849964261373L96.00902931628833,89.03849964261373L96.01358966537475,89.03849964261373L96.02321706900163,89.03849964261373L96.02777741808805,89.03849964261373L96.03233776717447,89.03849964261373L96.03689811626089,89.03849964261373L96.04652551988775,89.03849964261373L96.06983397077387,89.03849964261373L98.08297473969894,89.03849964261373L98.11084353967146,89.03849964261373L98.12047094329834,89.03849964261373L98.12503129238476,89.03849964261373L98.12959164147118,89.03849964261373L98.13415199055758,89.03849964261373L98.13921904509805,89.03849964261373L98.14377939418445,89.03849964261373L98.14833974327087,89.03849964261373L100.16148051219594,89.03849964261373L100.16604086128235,89.03849964261373L100.17060121036876,89.03849964261373L100.18022861399564,89.03849964261373L100.19390966125488,89.03849964261373L100.19897671579534,89.03849964261373L100.20353706488176,89.03849964261373L100.21265776305458,89.03849964261373L100.21772481759506,89.03849964261373L102.23998628469293,89.03849964261373L102.24910698286577,89.03849964261373L102.25873438649265,89.03849964261373L102.26329473557905,89.03849964261373L102.27748248829235,89.03849964261373L102.28204283737877,89.03849964261373L102.28660318646517,89.03849964261373L102.29623059009205,89.03849964261373L102.30079093917847,89.03849964261373L102.30535128826487,89.03849964261373L104.32305240627636,89.03849964261373L104.3321731044492,89.03849964261373L104.33724015898964,89.03849964261373L104.35092120624888,89.03849964261373L104.35598826078935,89.03849964261373L104.36054860987576,89.03849964261373L104.36510895896218,89.03849964261373L104.3696693080486,89.03849964261373L104.37473636258906,89.03849964261373L104.37929671167548,89.03849964261373L104.38385706076188,89.03849964261373L106.40155817877336,89.03849964261373L106.40611852785977,89.03849964261373L106.42486662965949,89.03849964261373L106.4294269787459,89.03849964261373L106.43449403328636,89.03849964261373L106.44361473145918,89.03849964261373L106.4481750805456,89.03849964261373L106.45324213508606,89.03849964261373L106.45780248417248,89.03849964261373L108.47550360218395,89.03849964261373L108.48462430035677,89.03849964261373L108.48918464944319,89.03849964261373L108.49425170398365,89.03849964261373L108.50337240215649,89.03849964261373L108.51299980578337,89.03849964261373L108.52212050395619,89.03849964261373L108.5266808530426,89.03849964261373L108.53174790758305,89.03849964261373L110.55400937468096,89.03849964261373L110.57275747648065,89.03849964261373L110.57731782556706,89.03849964261373L110.5864385237399,89.03849964261373L110.59150557828036,89.03849964261373L110.6006262764532,89.03849964261373L110.6193743782529,89.03849964261373L112.63251514717795,89.03849964261373L112.64163584535079,89.03849964261373L112.65126324897767,89.03849964261373L112.67001135077736,89.03849964261373L112.68369239803661,89.03849964261373L112.68875945257707,89.03849964261373L112.6978801507499,89.03849964261373L114.71102091967495,89.03849964261373L114.71558126876137,89.03849964261373L114.72014161784779,89.03849964261373L114.7247019669342,89.03849964261373L114.72976902147467,89.03849964261373L114.73432937056108,89.03849964261373L114.73888971964749,89.03849964261373L114.7434500687339,89.03849964261373L114.76219817053362,89.03849964261373L114.76726522507407,89.03849964261373L114.7763859232469,89.03849964261373L116.79408704125838,89.03849964261373L116.80827479397166,89.03849964261373L116.8173954921445,89.03849964261373L116.8219558412309,89.03849964261373L116.82702289577138,89.03849964261373L116.84070394303062,89.03849964261373L116.84577099757108,89.03849964261373L116.8503313466575,89.03849964261373L116.85489169574392,89.03849964261373L118.86803246466897,89.03849964261373L118.8771531628418,89.03849964261373L118.88171351192821,89.03849964261373L118.88678056646867,89.03849964261373L118.89590126464151,89.03849964261373L118.90046161372791,89.03849964261373L118.90552866826839,89.03849964261373L118.91008901735479,89.03849964261373L118.9146493664412,89.03849964261373L118.91920971552761,89.03849964261373L118.9288371191545,89.03849964261373L118.93339746824091,89.03849964261373L120.9556589353388,89.03849964261373L120.9744070371385,89.03849964261373L120.9885947898518,89.03849964261373L120.9931551389382,89.03849964261373L120.99771548802462,89.03849964261373L121.0027825425651,89.03849964261373L121.00734289165149,89.03849964261373L121.01190324073791,89.03849964261373L123.02504400966298,89.03849964261373L123.0296043587494,89.03849964261373L123.03872505692222,89.03849964261373L123.04379211146268,89.03849964261373L123.0483524605491,89.03849964261373L123.0671005623488,89.03849964261373L123.0858486641485,89.03849964261373L123.09040901323492,89.03849964261373L125.10811013124639,89.03849964261373L125.11267048033281,89.03849964261373L125.11723082941921,89.03849964261373L125.12229788395969,89.03849964261373L125.1268582330461,89.03849964261373L125.13141858213251,89.03849964261373L125.14560633484581,89.03849964261373L125.15016668393223,89.03849964261373L125.15472703301864,89.03849964261373L127.1866159037434,89.03849964261373L127.19573660191624,89.03849964261373L127.20080365645669,89.03849964261373L127.2053640055431,89.03849964261373L127.2099243546295,89.03849964261373L127.21955175825639,89.03849964261373L127.23323280551564,89.03849964261373L127.2382998600561,89.03849964261373L129.260561327154,89.03849964261373L129.2651216762404,89.03849964261373L129.2696820253268,89.03849964261373L129.27424237441323,89.03849964261373L129.2793094289537,89.03849964261373L129.28843012712653,89.03849964261373L129.3026178798398,89.03849964261373L129.30717822892623,89.03849964261373L129.3168056325531,89.03849964261373L131.339067099651,89.03849964261373L131.3436274487374,89.03849964261373L131.3481877978238,89.03849964261373L131.3578152014507,89.03849964261373L131.3623755505371,89.03849964261373L131.36693589962354,89.03849964261373L131.37149624870995,89.03849964261373L131.3765633032504,89.03849964261373L131.3811236523368,89.03849964261373L131.38568400142321,89.03849964261373L131.39024435050965,89.03849964261373L131.40443210322294,89.03849964261373L133.41757287214799,89.03849964261373L133.4363209739477,89.03849964261373L133.44088132303412,89.03849964261373L133.45000202120696,89.03849964261373L133.45962942483382,89.03849964261373L133.46875012300663,89.03849964261373L133.47381717754712,89.03849964261373L133.47837752663352,89.03849964261373L133.48293787571993,89.03849964261373L135.496078644645,89.03849964261373L135.50063899373143,89.03849964261373L135.50975969190424,89.03849964261373L135.5193870955311,89.03849964261373L135.52850779370394,89.03849964261373L135.54269554641724,89.03849964261373L135.54725589550367,89.03849964261373L135.55232295004413,89.03849964261373L135.55688329913053,89.03849964261373L135.56144364821694,89.03849964261373L137.5791447662284,89.03849964261373L137.58826546440125,89.03849964261373L137.59789286802814,89.03849964261373L137.60245321711454,89.03849964261373L137.6120806207414,89.03849964261373L137.62576166800065,89.03849964261373L137.63538907162754,89.03849964261373L137.63994942071395,89.03849964261373L139.65309018963902,89.03849964261373L139.66677123689826,89.03849964261373L139.68095898961155,89.03849964261373L139.68551933869796,89.03849964261373L139.69514674232485,89.03849964261373L139.70426744049763,89.03849964261373L139.71389484412452,89.03849964261373L139.71845519321093,89.03849964261373L141.74527700939527,89.03849964261373L141.7549044130221,89.03849964261373L141.75946476210854,89.03849964261373L141.76402511119494,89.03849964261373L141.7690921657354,89.03849964261373L141.77821286390824,89.03849964261373L141.78277321299467,89.03849964261373L141.78784026753513,89.03849964261373L141.79240061662153,89.03849964261373L143.81922243280584,89.03849964261373L143.8288498364327,89.03849964261373L143.83341018551914,89.03849964261373L143.83797053460555,89.03849964261373L143.84253088369195,89.03849964261373L143.8475979382324,89.03849964261373L143.86634604003214,89.03849964261373L143.87090638911855,89.03849964261373L143.87546673820498,89.03849964261373L145.88860750713002,89.03849964261373L145.90228855438926,89.03849964261373L145.90735560892972,89.03849964261373L145.91191595801615,89.03849964261373L145.91647630710256,89.03849964261373L145.92103665618896,89.03849964261373L145.93066405981585,89.03849964261373L145.93522440890226,89.03849964261373L145.9397847579887,89.03849964261373L145.94485181252912,89.03849964261373L145.95397251070196,89.03849964261373L147.97623397779986,89.03849964261373L147.9858613814267,89.03849964261373L147.99042173051316,89.03849964261373L147.99954242868597,89.03849964261373L148.00460948322643,89.03849964261373L148.00916983231284,89.03849964261373L148.01829053048567,89.03849964261373L148.02335758502613,89.03849964261373L148.03247828319897,89.03849964261373L150.045619052124,89.03849964261373L150.06892750301014,89.03849964261373L150.07804820118298,89.03849964261373L150.08311525572344,89.03849964261373L150.08767560480985,89.03849964261373L150.09223595389625,89.03849964261373L150.09679630298268,89.03849964261373L150.10186335752314,89.03849964261373L150.10642370660955,89.03849964261373L152.12412482462102,89.03849964261373L152.12868517370745,89.03849964261373L152.13324552279386,89.03849964261373L152.14743327550715,89.03849964261373L152.15199362459356,89.03849964261373L152.15655397368,89.03849964261373L152.16162102822045,89.03849964261373L152.1707417263933,89.03849964261373L154.20719094620446,89.03849964261373L154.21175129529087,89.03849964261373L154.21631164437727,89.03849964261373L154.22593904800416,89.03849964261373L154.24468714980384,89.03849964261373L154.25887490251714,89.03849964261373L156.281136369615,89.03849964261373L156.29481741687428,89.03849964261373L156.29988447141474,89.03849964261373L156.30900516958755,89.03849964261373L156.31356551867398,89.03849964261373L156.31863257321444,89.03849964261373L156.32319292230085,89.03849964261373L156.33231362047368,89.03849964261373L156.33738067501415,89.03849964261373L156.34194102410058,89.03849964261373L156.34650137318698,89.03849964261373L158.35964214211202,89.03849964261373L158.36420249119845,89.03849964261373L158.36876284028486,89.03849964261373L158.3733231893713,89.03849964261373L158.37839024391175,89.03849964261373L158.3875109420846,89.03849964261373L158.392071291171,89.03849964261373L158.40169869479786,89.03849964261373L158.4108193929707,89.03849964261373L158.41588644751116,89.03849964261373L158.42500714568396,89.03849964261373L160.44270826369547,89.03849964261373L160.44726861278187,89.03849964261373L160.4518289618683,89.03849964261373L160.45689601640876,89.03849964261373L160.470577063668,89.03849964261373L160.47564411820844,89.03849964261373L160.48020446729487,89.03849964261373L160.48476481638127,89.03849964261373L160.49439222000814,89.03849964261373L160.49895256909457,89.03849964261373L162.54452248707858,89.03849964261373L162.55871023979188,89.03849964261373L162.56327058887828,89.03849964261373L162.57289799250518,89.03849964261373L162.57745834159158,89.03849964261373L162.58201869067798,89.03849964261373L164.59515945960305,89.03849964261373L164.6088405068623,89.03849964261373L164.61390756140275,89.03849964261373L164.6230282595756,89.03849964261373L164.627588608662,89.03849964261373L164.63265566320246,89.03849964261373L164.6372160122889,89.03849964261373L164.6514037650022,89.03849964261373L166.6969736829862,89.03849964261373L166.7015340320726,89.03849964261373L166.706094381159,89.03849964261373L166.71572178478587,89.03849964261373L166.7248424829587,89.03849964261373L166.72990953749917,89.03849964261373L166.73446988658557,89.03849964261373L168.75217100459707,89.03849964261373L168.75673135368345,89.03849964261373L168.7612917027699,89.03849964261373L168.76585205185629,89.03849964261373L168.77091910639675,89.03849964261373L168.784600153656,89.03849964261373L168.78966720819648,89.03849964261373L168.79422755728288,89.03849964261373L168.81753600816901,89.03849964261373L170.83523712618046,89.03849964261373L170.8397974752669,89.03849964261373L170.84942487889376,89.03849964261373L170.8539852279802,89.03849964261373L170.863105926153,89.03849964261373L170.8914814315796,89.03849964261373L170.89604178066602,89.03849964261373L172.91374289867747,89.03849964261373L172.9183032477639,89.03849964261373L172.9228635968503,89.03849964261373L172.94161169865004,89.03849964261373L172.9466787531905,89.03849964261373L172.95123910227687,89.03849964261373L172.95579945136328,89.03849964261373L172.9603598004497,89.03849964261373L172.96998720407657,89.03849964261373L174.98768832208808,89.03849964261373L174.9922486711745,89.03849964261373L174.9968090202609,89.03849964261373L175.0013693693473,89.03849964261373L175.00643642388775,89.03849964261373L175.01099677297418,89.03849964261373L175.01555712206059,89.03849964261373L175.03430522386031,89.03849964261373L175.04393262748718,89.03849964261373L175.04849297657358,89.03849964261373L177.0849421963848,89.03849964261373L177.0940628945576,89.03849964261373L177.1036902981845,89.03849964261373L177.1082506472709,89.03849964261373L177.11281099635733,89.03849964261373L177.1224383999842,89.03849964261373L179.14469986708207,89.03849964261373L179.1492602161685,89.03849964261373L179.1634479688818,89.03849964261373L179.1725686670546,89.03849964261373L179.1867564197679,89.03849964261373L179.20094417248117,89.03849964261373L179.2055045215676,89.03849964261373L181.22320563957908,89.03849964261373L181.2277659886655,89.03849964261373L181.2323263377519,89.03849964261373L181.23688668683835,89.03849964261373L181.24195374137878,89.03849964261373L181.24651409046518,89.03849964261373L181.25107443955162,89.03849964261373L181.26070184317848,89.03849964261373L181.26526219226488,89.03849964261373L181.26982254135132,89.03849964261373L181.28401029406461,89.03849964261373L181.28857064315102,89.03849964261373L183.3062717611625,89.03849964261373L183.34376796476192,89.03849964261373L183.34832831384833,89.03849964261373L183.35288866293473,89.03849964261373L183.3579557174752,89.03849964261373L183.36251606656162,89.03849964261373L185.3802171845731,89.03849964261373L185.3847775336595,89.03849964261373L185.3893378827459,89.03849964261373L185.39389823183234,89.03849964261373L185.4035256354592,89.03849964261373L185.40808598454564,89.03849964261373L185.41264633363204,89.03849964261373L185.42227373725893,89.03849964261373L185.42683408634534,89.03849964261373L185.4364614899722,89.03849964261373L187.49115210612902,89.03849964261373L187.50533985884232,89.03849964261373L187.50990020792875,89.03849964261373L187.5149672624692,89.03849964261373L187.51952761155562,89.03849964261373L189.5372287295671,89.03849964261373L189.5417890786535,89.03849964261373L189.54634942773993,89.03849964261373L189.5559768313668,89.03849964261373L189.56965787862603,89.03849964261373L189.5747249331665,89.03849964261373L189.57928528225293,89.03849964261373L189.58384563133933,89.03849964261373L189.58840598042576,89.03849964261373L189.59347303496622,89.03849964261373L189.59803338405263,89.03849964261373L189.60259373313903,89.03849964261373L191.6202948511505,89.03849964261373L191.62941554932334,89.03849964261373L191.6344826038638,89.03849964261373L191.64360330203664,89.03849964261373L191.6532307056635,89.03849964261373L191.66235140383634,89.03849964261373L191.66691175292277,89.03849964261373L191.6719788074632,89.03849964261373L191.6765391565496,89.03849964261373L191.68109950563604,89.03849964261373L193.6942402745611,89.03849964261373L193.7129883763608,89.03849964261373L193.73629682724692,89.03849964261373L193.74085717633332,89.03849964261373L193.75048457996022,89.03849964261373L193.75504492904662,89.03849964261373L193.75960527813305,89.03849964261373L195.78186674523093,89.03849964261373L195.78642709431733,89.03849964261373L195.7914941488578,89.03849964261373L195.80061484703063,89.03849964261373L195.81024225065752,89.03849964261373L195.81480259974393,89.03849964261373L195.82899035245723,89.03849964261373L195.83811105063006,89.03849964261373L197.85581216864153,89.03849964261373L197.86037251772794,89.03849964261373L197.8699999213548,89.03849964261373L197.87456027044124,89.03849964261373L197.88874802315453,89.03849964261373L197.89330837224094,89.03849964261373L197.89786872132737,89.03849964261373L197.90749612495424,89.03849964261373L197.9120564740406,89.03849964261373L197.91661682312704,89.03849964261373L199.93431794113854,89.03849964261373L199.93887829022495,89.03849964261373L199.94343863931135,89.03849964261373L199.94850569385184,89.03849964261373L199.95306604293825,89.03849964261373L199.95762639202465,89.03849964261373L199.96725379565152,89.03849964261373L199.98093484291076,89.03849964261373L199.98600189745122,89.03849964261373L199.99512259562405,89.03849964261373L202.02194441180836,89.03849964261373L202.02701146634882,89.03849964261373L202.03613216452163,89.03849964261373L202.04069251360806,89.03849964261373L202.05488026632136,89.03849964261373L202.06450766994823,89.03849964261373L202.07362836812106,89.03849964261373L204.09132948613254,89.03849964261373L204.09588983521894,89.03849964261373L204.10045018430537,89.03849964261373L204.10551723884583,89.03849964261373L204.11463793701867,89.03849964261373L204.12882568973194,89.03849964261373L204.13338603881837,89.03849964261373L204.14301344244524,89.03849964261373L204.14757379153167,89.03849964261373L204.15213414061807,89.03849964261373L206.16983525862955,89.03849964261373L206.18858336042925,89.03849964261373L206.19770405860208,89.03849964261373L206.20277111314252,89.03849964261373L206.21189181131535,89.03849964261373L206.21645216040176,89.03849964261373L206.22151921494222,89.03849964261373L206.22607956402865,89.03849964261373L206.23063991311506,89.03849964261373L208.24378068204015,89.03849964261373L208.26252878383983,89.03849964261373L208.26708913292623,89.03849964261373L208.27164948201266,89.03849964261373L208.27620983109907,89.03849964261373L208.28127688563953,89.03849964261373L208.29039758381236,89.03849964261373L208.30002498743926,89.03849964261373L208.30458533652566,89.03849964261373L208.30914568561207,89.03849964261373L210.32228645453714,89.03849964261373L210.32684680362354,89.03849964261373L210.33140715270994,89.03849964261373L210.34559490542324,89.03849964261373L210.35978265813654,89.03849964261373L210.36890335630937,89.03849964261373L210.37853075993627,89.03849964261373L210.38309110902267,89.03849964261373L210.38765145810908,89.03849964261373L212.40079222703415,89.03849964261373L212.40535257612055,89.03849964261373L212.42410067792025,89.03849964261373L212.44284877971995,89.03849964261373L212.4519694778928,89.03849964261373L212.45703653243325,89.03849964261373L212.46159688151965,89.03849964261373L214.47929799953116,89.03849964261373L214.48385834861756,89.03849964261373L214.488418697704,89.03849964261373L214.50260645041726,89.03849964261373L214.51679420313053,89.03849964261373L214.52135455221696,89.03849964261373L214.52591490130337,89.03849964261373L214.53554230493026,89.03849964261373L214.54010265401666,89.03849964261373L214.5446630031031,89.03849964261373L216.56236412111454,89.03849964261373L216.56692447020097,89.03849964261373L216.57655187382784,89.03849964261373L216.58111222291427,89.03849964261373L216.58567257200068,89.03849964261373L216.59023292108708,89.03849964261373L216.59529997562757,89.03849964261373L216.59986032471397,89.03849964261373L216.6089810228868,89.03849964261373L216.61404807742727,89.03849964261373L218.63630954452515,89.03849964261373L218.65961799541128,89.03849964261373L218.67836609721098,89.03849964261373L220.723936015195,89.03849964261373L220.7284963642814,89.03849964261373L220.73356341882183,89.03849964261373L220.73812376790826,89.03849964261373L220.74268411699467,89.03849964261373L220.75687186970796,89.03849964261373L220.7614322187944,89.03849964261373L220.77105962242126,89.03849964261373L220.77561997150767,89.03849964261373L222.79332108951914,89.03849964261373L222.79788143860557,89.03849964261373L222.80244178769198,89.03849964261373L222.80700213677838,89.03849964261373L222.81662954040527,89.03849964261373L222.8257502385781,89.03849964261373L222.83081729311857,89.03849964261373L222.83537764220497,89.03849964261373L222.8444983403778,89.03849964261373L222.84956539491827,89.03849964261373L222.8541257440047,89.03849964261373L224.87182686201615,89.03849964261373L224.880947560189,89.03849964261373L224.90932306561558,89.03849964261373L224.91844376378842,89.03849964261373L224.9371918655881,89.03849964261373L226.95033263451316,89.03849964261373L226.9548929835996,89.03849964261373L226.97364108539927,89.03849964261373L226.9969495362854,89.03849964261373L227.0015098853718,89.03849964261373L229.02883840701014,89.03849964261373L229.0425194542694,89.03849964261373L229.04758650880987,89.03849964261373L229.0612675560691,89.03849964261373L229.06633461060957,89.03849964261373L229.0754553087824,89.03849964261373L229.0800156578688,89.03849964261373L229.08508271240927,89.03849964261373L229.0896430614957,89.03849964261373L231.10734417950718,89.03849964261373L231.11190452859358,89.03849964261373L231.12609228130688,89.03849964261373L231.13065263039329,89.03849964261373L231.13521297947972,89.03849964261373L231.13977332856612,89.03849964261373L231.14484038310658,89.03849964261373L231.16358848490626,89.03849964261373L233.1858499520042,89.03849964261373L233.1904103010906,89.03849964261373L233.194970650177,89.03849964261373L233.19953099926343,89.03849964261373L233.20915840289027,89.03849964261373L233.21371875197673,89.03849964261373L233.2182791010631,89.03849964261373L233.22334615560356,89.03849964261373L233.22790650469,89.03849964261373L233.2324668537764,89.03849964261373L233.2370272028628,89.03849964261373L233.2420942574033,89.03849964261373L233.2466546064897,89.03849964261373L235.26891607358758,89.03849964261373L235.2780367717604,89.03849964261373L235.30185192810058,89.03849964261373L235.306412277187,89.03849964261373L235.3109726262734,89.03849964261373L235.3206000299003,89.03849964261373L237.3474218460846,89.03849964261373L237.36160959879788,89.03849964261373L237.37073029697072,89.03849964261373L237.38947839877042,89.03849964261373L237.39403874785685,89.03849964261373L237.39910580239732,89.03849964261373L237.4036661514837,89.03849964261373L239.4259276185816,89.03849964261373L239.43504831675443,89.03849964261373L239.4401153712949,89.03849964261373L239.44467572038133,89.03849964261373L239.44923606946773,89.03849964261373L239.4537964185541,89.03849964261373L239.463423822181,89.03849964261373L239.4679841712674,89.03849964261373L239.4821719239807,89.03849964261373L239.48673227306713,89.03849964261373L241.50443339107858,89.03849964261373L241.508993740165,89.03849964261373L241.51355408925141,89.03849964261373L241.5373692455916,89.03849964261373L241.541929594678,89.03849964261373L241.5464899437644,89.03849964261373L243.59205986174842,89.03849964261373L243.5971269162889,89.03849964261373L243.60168726537532,89.03849964261373L243.61080796354815,89.03849964261373L243.61587501808862,89.03849964261373L243.62043536717502,89.03849964261373L243.62499571626145,89.03849964261373L243.62955606534786,89.03849964261373L243.63462311988832,89.03849964261373L243.63918346897472,89.03849964261373L245.6568845869862,89.03849964261373L245.66600528515903,89.03849964261373L245.67056563424543,89.03849964261373L245.67563268878592,89.03849964261373L245.68475338695873,89.03849964261373L245.68931373604516,89.03849964261373L245.698941139672,89.03849964261373L245.70806183784484,89.03849964261373L245.7131288923853,89.03849964261373L245.72224959055814,89.03849964261373L247.73539035948318,89.03849964261373L247.7541384612829,89.03849964261373L247.7586988103693,89.03849964261373L247.7632591594557,89.03849964261373L247.76781950854215,89.03849964261373L247.7728865630826,89.03849964261373L247.777446912169,89.03849964261373L247.78200726125544,89.03849964261373L247.7916346648823,89.03849964261373L247.79619501396874,89.03849964261373L247.80075536305515,89.03849964261373L249.8138961319802,89.03849964261373L249.83264423377992,89.03849964261373L249.84176493195272,89.03849964261373L249.84632528103916,89.03849964261373L249.85139233557962,89.03849964261373L249.86051303375245,89.03849964261373L249.87014043737932,89.03849964261373L249.87926113555216,89.03849964261373L251.89696225356363,89.03849964261373L251.90152260265003,89.03849964261373L251.90608295173647,89.03849964261373L251.91571035536333,89.03849964261373L251.92027070444976,89.03849964261373L251.92483105353617,89.03849964261373L251.9298981080766,89.03849964261373L251.934458457163,89.03849964261373L251.93901880624944,89.03849964261373L251.94357915533584,89.03849964261373L251.9486462098763,89.03849964261373L251.95320655896273,89.03849964261373L253.97546802606064,89.03849964261373L253.98002837514701,89.03849964261373L253.9896557787739,89.03849964261373L253.9942161278603,89.03849964261373L254.0084038805736,89.03849964261373L254.01296422966004,89.03849964261373L254.01752457874645,89.03849964261373L254.02208492783285,89.03849964261373L254.0271519823733,89.03849964261373L254.03627268054615,89.03849964261373L256.06309449673046,89.03849964261373L256.0727219003573,89.03849964261373L256.0772822494438,89.03849964261373L256.08184259853016,89.03849964261373L256.0960303512434,89.03849964261373L256.10059070032986,89.03849964261373L256.11021810395675,89.03849964261373L256.11477845304313,89.03849964261373L258.1279192219682,89.03849964261373L258.13703992014104,89.03849964261373L258.14160026922747,89.03849964261373L258.14666732376793,89.03849964261373L258.1512276728543,89.03849964261373L258.16034837102717,89.03849964261373L258.16997577465406,89.03849964261373L258.17909647282687,89.03849964261373L258.18416352736733,89.03849964261373L258.19328422554014,89.03849964261373L260.20642499446524,89.03849964261373L260.2109853435516,89.03849964261373L260.21554569263805,89.03849964261373L260.22517309626494,89.03849964261373L260.2388541435242,89.03849964261373L260.24392119806464,89.03849964261373L260.2484815471511,89.03849964261373L260.25304189623745,89.03849964261373L260.2576022453239,89.03849964261373L260.2672296489507,89.03849964261373L260.2717899980372,89.03849964261373L262.28493076696225,89.03849964261373L262.2894911160486,89.03849964261373L262.29405146513506,89.03849964261373L262.2986118142215,89.03849964261373L262.30367886876195,89.03849964261373L262.3082392178484,89.03849964261373L262.31735991602113,89.03849964261373L262.32242697056165,89.03849964261373L262.326987319648,89.03849964261373L262.3457354214477,89.03849964261373L264.36799688854563,89.03849964261373L264.37255723763207,89.03849964261373L264.37711758671844,89.03849964261373L264.39130533943177,89.03849964261373L264.3958656885182,89.03849964261373L264.40093274305866,89.03849964261373L264.40549309214504,89.03849964261373L264.41005344123147,89.03849964261373L264.41968084485836,89.03849964261373L264.42424119394474,89.03849964261373L264.42880154303117,89.03849964261373L266.4510630101291,89.03849964261373L266.45562335921545,89.03849964261373L266.46525076284235,89.03849964261373L266.4698111119288,89.03849964261373L266.4743714610152,89.03849964261373L266.4885592137285,89.03849964261373L266.4981866173554,89.03849964261373L266.50274696644175,89.03849964261373L266.5073073155282,89.03849964261373L268.5204480844532,89.03849964261373L268.52500843353965,89.03849964261373L268.5295687826261,89.03849964261373" fill="none"></path></g></g></g></g><g opacity="0.2"><g><g><g><path style="fill: none;" stroke="rgb(255, 112, 67)" stroke-width="2px" d="M25.34895374956304,89.03849964261373L25.358581153189917,89.03849964261373L25.363141502276335,89.03849964261373L25.38188960407604,89.03849964261373L25.38644995316245,89.03849964261373L25.396077356789327,89.03849964261373L25.40063770587574,89.03849964261373L27.413778474800804,89.03849964261373L27.41833882388722,89.03849964261373L27.422899172973633,89.03849964261373L27.427459522060047,89.03849964261373L27.43252657660051,89.03849964261373L27.437086925686923,89.03849964261373L27.45583502748663,89.03849964261373L27.460395376573043,89.03849964261373L29.50596529455705,89.03849964261373L29.511032349097512,89.03849964261373L29.52015304727034,89.03849964261373L29.53434079998363,89.03849964261373L29.538901149070043,89.03849964261373L29.548528552696922,89.03849964261373L29.553088901783337,89.03849964261373L29.55764925086975,89.03849964261373L31.57079001979481,89.03849964261373L31.57991071796764,89.03849964261373L31.589538121594515,89.03849964261373L31.594098470680933,89.03849964261373L31.60828622339422,89.03849964261373L31.612846572480635,89.03849964261373L31.61740692156705,89.03849964261373L31.621967270653464,89.03849964261373L31.627034325193925,89.03849964261373L33.64929579229182,89.03849964261373L33.65385614137823,89.03849964261373L33.66297683955106,89.03849964261373L33.672604243177936,89.03849964261373L33.67716459226435,89.03849964261373L33.681724941350765,89.03849964261373L33.68679199589123,89.03849964261373L33.70047304315047,89.03849964261373L33.70554009769093,89.03849964261373L33.710100446777346,89.03849964261373L33.71466079586376,89.03849964261373L35.73236191387523,89.03849964261373L35.74148261204806,89.03849964261373L35.74654966658852,89.03849964261373L35.76985811747465,89.03849964261373L35.77441846656105,89.03849964261373L35.77897881564747,89.03849964261373L35.78404587018793,89.03849964261373L35.78860621927435,89.03849964261373L35.79316656836077,89.03849964261373L37.825055439085524,89.03849964261373L37.86255164268494,89.03849964261373L37.871672340857764,89.03849964261373L39.884813109782826,89.03849964261373L39.889373458869244,89.03849964261373L39.922309313382236,89.03849964261373L39.93599036064148,89.03849964261373L39.945617764268356,89.03849964261373L39.95017811335477,89.03849964261373L41.96331888227983,89.03849964261373L41.98206698407954,89.03849964261373L41.986627333165956,89.03849964261373L41.99118768225236,89.03849964261373L42.00537543496566,89.03849964261373L42.00993578405207,89.03849964261373L42.02412353676536,89.03849964261373L44.05094535294966,89.03849964261373L44.06057275657653,89.03849964261373L44.06969345474937,89.03849964261373L44.07425380383578,89.03849964261373L44.07932085837625,89.03849964261373L44.08388120746265,89.03849964261373L44.08844155654907,89.03849964261373L44.09300190563548,89.03849964261373L44.10262930926236,89.03849964261373L46.120330427273835,89.03849964261373L46.13401147453308,89.03849964261373L46.139078529073544,89.03849964261373L46.143638878159955,89.03849964261373L46.152759576332784,89.03849964261373L46.157826630873245,89.03849964261373L46.16238697995966,89.03849964261373L46.17150767813249,89.03849964261373L46.176574732672954,89.03849964261373L46.185695430845776,89.03849964261373L48.198836199770845,89.03849964261373L48.20795689794367,89.03849964261373L48.212517247030085,89.03849964261373L48.226704999743376,89.03849964261373L48.24545310154308,89.03849964261373L48.250013450629496,89.03849964261373L48.25508050516995,89.03849964261373L48.25964085425637,89.03849964261373L50.27734197226784,89.03849964261373L50.28190232135426,89.03849964261373L50.29102301952709,89.03849964261373L50.30065042315396,89.03849964261373L50.30521077224038,89.03849964261373L50.30977112132679,89.03849964261373L50.31483817586726,89.03849964261373L50.32395887404009,89.03849964261373L50.32851922312649,89.03849964261373L52.36952879202409,89.03849964261373L52.3882768938238,89.03849964261373L52.4070249956235,89.03849964261373L52.41209205016396,89.03849964261373L52.41665239925038,89.03849964261373L54.443474215434684,89.03849964261373L54.4480345645211,89.03849964261373L54.453101619061556,89.03849964261373L54.457661968147974,89.03849964261373L54.47184972086126,89.03849964261373L54.476410069947676,89.03849964261373L54.49059782266097,89.03849964261373L54.49515817174738,89.03849964261373L56.51285928975885,89.03849964261373L56.51741963884527,89.03849964261373L56.52197998793168,89.03849964261373L56.53160739155856,89.03849964261373L56.53616774064498,89.03849964261373L56.540728089731395,89.03849964261373L56.5452884388178,89.03849964261373L56.55035549335827,89.03849964261373L56.55491584244468,89.03849964261373L56.56910359515797,89.03849964261373L56.57366394424439,89.03849964261373L58.59136506225586,89.03849964261373L58.61011316405556,89.03849964261373L58.61467351314197,89.03849964261373L58.62379421131481,89.03849964261373L58.63342161494169,89.03849964261373L58.6379819640281,89.03849964261373L60.669870834752864,89.03849964261373L60.68355188201211,89.03849964261373L60.688618936552565,89.03849964261373L60.69317928563898,89.03849964261373L60.697739634725394,89.03849964261373L60.70736703835227,89.03849964261373L60.72611514015198,89.03849964261373L60.73523583832481,89.03849964261373L62.752936956336285,89.03849964261373L62.7574973054227,89.03849964261373L62.76205765450911,89.03849964261373L62.780805756308816,89.03849964261373L62.78587281084928,89.03849964261373L62.794993509022106,89.03849964261373L62.80462091264898,89.03849964261373L62.81374161082181,89.03849964261373L64.84563048154658,89.03849964261373L64.8547511797194,89.03849964261373L64.85931152880582,89.03849964261373L64.8734992815191,89.03849964261373L64.88312668514598,89.03849964261373L64.8876870342324,89.03849964261373L64.89224738331882,89.03849964261373L66.90994850133029,89.03849964261373L66.9145088504167,89.03849964261373L66.91906919950311,89.03849964261373L66.93781730130283,89.03849964261373L66.94288435584328,89.03849964261373L66.95200505401611,89.03849964261373L66.9661928067294,89.03849964261373L68.9930146229137,89.03849964261373L68.99757497200012,89.03849964261373L69.00264202654058,89.03849964261373L69.007202375627,89.03849964261373L69.01632307379982,89.03849964261373L69.03051082651312,89.03849964261373L69.03507117559954,89.03849964261373L69.04013823013999,89.03849964261373L71.06239969723788,89.03849964261373L71.0669600463243,89.03849964261373L71.07608074449713,89.03849964261373L71.1044562499237,89.03849964261373L71.11357694809654,89.03849964261373L71.118644002637,89.03849964261373L71.12320435172342,89.03849964261373L71.12776470080983,89.03849964261373L73.14090546973489,89.03849964261373L73.15002616790771,89.03849964261373L73.15458651699413,89.03849964261373L73.17840167333429,89.03849964261373L73.18296202242071,89.03849964261373L73.19208272059353,89.03849964261373L73.20171012422041,89.03849964261373L73.20627047330683,89.03849964261373L75.2194112422319,89.03849964261373L75.22853194040471,89.03849964261373L75.23309228949113,89.03849964261373L75.23815934403159,89.03849964261373L75.242719693118,89.03849964261373L75.25184039129084,89.03849964261373L75.2569074458313,89.03849964261373L75.26602814400414,89.03849964261373L75.27058849309054,89.03849964261373L75.28021589671741,89.03849964261373L77.2979170147289,89.03849964261373L77.30703771290173,89.03849964261373L77.31159806198814,89.03849964261373L77.31666511652861,89.03849964261373L77.32578581470142,89.03849964261373L77.33034616378784,89.03849964261373L77.34453391650113,89.03849964261373L77.34909426558755,89.03849964261373L77.35416132012801,89.03849964261373L77.35872166921443,89.03849964261373L79.37642278722589,89.03849964261373L79.38098313631231,89.03849964261373L79.38554348539873,89.03849964261373L79.39010383448513,89.03849964261373L79.4139189908253,89.03849964261373L79.43266709262501,89.03849964261373L79.43722744171143,89.03849964261373L81.4549285597229,89.03849964261373L81.46860960698216,89.03849964261373L81.50154546149514,89.03849964261373L81.50610581058156,89.03849964261373L83.5334343322199,89.03849964261373L83.53799468130632,89.03849964261373L83.54255503039273,89.03849964261373L83.55218243401961,89.03849964261373L83.56130313219245,89.03849964261373L83.57093053581931,89.03849964261373L83.58005123399214,89.03849964261373L85.63068820651661,89.03849964261373L85.63524855560303,89.03849964261373L85.63980890468945,89.03849964261373L85.64436925377586,89.03849964261373L85.65399665740274,89.03849964261373L85.65855700648913,89.03849964261373L85.67274475920243,89.03849964261373L87.69500622630034,89.03849964261373L87.72287502627286,89.03849964261373L87.72794208081332,89.03849964261373L87.73250242989974,89.03849964261373L87.73706277898616,89.03849964261373L87.74162312807256,89.03849964261373L87.75125053169944,89.03849964261373L87.75581088078586,89.03849964261373L89.76895164971091,89.03849964261373L89.77807234788375,89.03849964261373L89.78263269697015,89.03849964261373L89.78769975151063,89.03849964261373L89.79682044968345,89.03849964261373L89.80644785331032,89.03849964261373L89.81100820239674,89.03849964261373L89.82975630419645,89.03849964261373L91.85657812038075,89.03849964261373L91.87076587309404,89.03849964261373L91.87532622218045,89.03849964261373L91.88495362580733,89.03849964261373L91.88951397489375,89.03849964261373L91.89863467306658,89.03849964261373L91.90826207669345,89.03849964261373L93.93052354379134,89.03849964261373L93.96345939830434,89.03849964261373L93.97714044556358,89.03849964261373L93.98220750010404,89.03849964261373L96.00446896720193,89.03849964261373L96.00902931628833,89.03849964261373L96.01358966537475,89.03849964261373L96.02321706900163,89.03849964261373L96.02777741808805,89.03849964261373L96.03233776717447,89.03849964261373L96.03689811626089,89.03849964261373L96.04652551988775,89.03849964261373L96.06983397077387,89.03849964261373L98.08297473969894,89.03849964261373L98.11084353967146,89.03849964261373L98.12047094329834,89.03849964261373L98.12503129238476,89.03849964261373L98.12959164147118,89.03849964261373L98.13415199055758,89.03849964261373L98.13921904509805,89.03849964261373L98.14377939418445,89.03849964261373L98.14833974327087,89.03849964261373L100.16148051219594,89.03849964261373L100.16604086128235,89.03849964261373L100.17060121036876,89.03849964261373L100.18022861399564,89.03849964261373L100.19390966125488,89.03849964261373L100.19897671579534,89.03849964261373L100.20353706488176,89.03849964261373L100.21265776305458,89.03849964261373L100.21772481759506,89.03849964261373L102.23998628469293,89.03849964261373L102.24910698286577,89.03849964261373L102.25873438649265,89.03849964261373L102.26329473557905,89.03849964261373L102.27748248829235,89.03849964261373L102.28204283737877,89.03849964261373L102.28660318646517,89.03849964261373L102.29623059009205,89.03849964261373L102.30079093917847,89.03849964261373L102.30535128826487,89.03849964261373L104.32305240627636,89.03849964261373L104.3321731044492,89.03849964261373L104.33724015898964,89.03849964261373L104.35092120624888,89.03849964261373L104.35598826078935,89.03849964261373L104.36054860987576,89.03849964261373L104.36510895896218,89.03849964261373L104.3696693080486,89.03849964261373L104.37473636258906,89.03849964261373L104.37929671167548,89.03849964261373L104.38385706076188,89.03849964261373L106.40155817877336,89.03849964261373L106.40611852785977,89.03849964261373L106.42486662965949,89.03849964261373L106.4294269787459,89.03849964261373L106.43449403328636,89.03849964261373L106.44361473145918,89.03849964261373L106.4481750805456,89.03849964261373L106.45324213508606,89.03849964261373L106.45780248417248,89.03849964261373L108.47550360218395,89.03849964261373L108.48462430035677,89.03849964261373L108.48918464944319,89.03849964261373L108.49425170398365,89.03849964261373L108.50337240215649,89.03849964261373L108.51299980578337,89.03849964261373L108.52212050395619,89.03849964261373L108.5266808530426,89.03849964261373L108.53174790758305,89.03849964261373L110.55400937468096,89.03849964261373L110.57275747648065,89.03849964261373L110.57731782556706,89.03849964261373L110.5864385237399,89.03849964261373L110.59150557828036,89.03849964261373L110.6006262764532,89.03849964261373L110.6193743782529,89.03849964261373L112.63251514717795,89.03849964261373L112.64163584535079,89.03849964261373L112.65126324897767,89.03849964261373L112.67001135077736,89.03849964261373L112.68369239803661,89.03849964261373L112.68875945257707,89.03849964261373L112.6978801507499,89.03849964261373L114.71102091967495,89.03849964261373L114.71558126876137,89.03849964261373L114.72014161784779,89.03849964261373L114.7247019669342,89.03849964261373L114.72976902147467,89.03849964261373L114.73432937056108,89.03849964261373L114.73888971964749,89.03849964261373L114.7434500687339,89.03849964261373L114.76219817053362,89.03849964261373L114.76726522507407,89.03849964261373L114.7763859232469,89.03849964261373L116.79408704125838,89.03849964261373L116.80827479397166,89.03849964261373L116.8173954921445,89.03849964261373L116.8219558412309,89.03849964261373L116.82702289577138,89.03849964261373L116.84070394303062,89.03849964261373L116.84577099757108,89.03849964261373L116.8503313466575,89.03849964261373L116.85489169574392,89.03849964261373L118.86803246466897,89.03849964261373L118.8771531628418,89.03849964261373L118.88171351192821,89.03849964261373L118.88678056646867,89.03849964261373L118.89590126464151,89.03849964261373L118.90046161372791,89.03849964261373L118.90552866826839,89.03849964261373L118.91008901735479,89.03849964261373L118.9146493664412,89.03849964261373L118.91920971552761,89.03849964261373L118.9288371191545,89.03849964261373L118.93339746824091,89.03849964261373L120.9556589353388,89.03849964261373L120.9744070371385,89.03849964261373L120.9885947898518,89.03849964261373L120.9931551389382,89.03849964261373L120.99771548802462,89.03849964261373L121.0027825425651,89.03849964261373L121.00734289165149,89.03849964261373L121.01190324073791,89.03849964261373L123.02504400966298,89.03849964261373L123.0296043587494,89.03849964261373L123.03872505692222,89.03849964261373L123.04379211146268,89.03849964261373L123.0483524605491,89.03849964261373L123.0671005623488,89.03849964261373L123.0858486641485,89.03849964261373L123.09040901323492,89.03849964261373L125.10811013124639,89.03849964261373L125.11267048033281,89.03849964261373L125.11723082941921,89.03849964261373L125.12229788395969,89.03849964261373L125.1268582330461,89.03849964261373L125.13141858213251,89.03849964261373L125.14560633484581,89.03849964261373L125.15016668393223,89.03849964261373L125.15472703301864,89.03849964261373L127.1866159037434,89.03849964261373L127.19573660191624,89.03849964261373L127.20080365645669,89.03849964261373L127.2053640055431,89.03849964261373L127.2099243546295,89.03849964261373L127.21955175825639,89.03849964261373L127.23323280551564,89.03849964261373L127.2382998600561,89.03849964261373L129.260561327154,89.03849964261373L129.2651216762404,89.03849964261373L129.2696820253268,89.03849964261373L129.27424237441323,89.03849964261373L129.2793094289537,89.03849964261373L129.28843012712653,89.03849964261373L129.3026178798398,89.03849964261373L129.30717822892623,89.03849964261373L129.3168056325531,89.03849964261373L131.339067099651,89.03849964261373L131.3436274487374,89.03849964261373L131.3481877978238,89.03849964261373L131.3578152014507,89.03849964261373L131.3623755505371,89.03849964261373L131.36693589962354,89.03849964261373L131.37149624870995,89.03849964261373L131.3765633032504,89.03849964261373L131.3811236523368,89.03849964261373L131.38568400142321,89.03849964261373L131.39024435050965,89.03849964261373L131.40443210322294,89.03849964261373L133.41757287214799,89.03849964261373L133.4363209739477,89.03849964261373L133.44088132303412,89.03849964261373L133.45000202120696,89.03849964261373L133.45962942483382,89.03849964261373L133.46875012300663,89.03849964261373L133.47381717754712,89.03849964261373L133.47837752663352,89.03849964261373L133.48293787571993,89.03849964261373L135.496078644645,89.03849964261373L135.50063899373143,89.03849964261373L135.50975969190424,89.03849964261373L135.5193870955311,89.03849964261373L135.52850779370394,89.03849964261373L135.54269554641724,89.03849964261373L135.54725589550367,89.03849964261373L135.55232295004413,89.03849964261373L135.55688329913053,89.03849964261373L135.56144364821694,89.03849964261373L137.5791447662284,89.03849964261373L137.58826546440125,89.03849964261373L137.59789286802814,89.03849964261373L137.60245321711454,89.03849964261373L137.6120806207414,89.03849964261373L137.62576166800065,89.03849964261373L137.63538907162754,89.03849964261373L137.63994942071395,89.03849964261373L139.65309018963902,89.03849964261373L139.66677123689826,89.03849964261373L139.68095898961155,89.03849964261373L139.68551933869796,89.03849964261373L139.69514674232485,89.03849964261373L139.70426744049763,89.03849964261373L139.71389484412452,89.03849964261373L139.71845519321093,89.03849964261373L141.74527700939527,89.03849964261373L141.7549044130221,89.03849964261373L141.75946476210854,89.03849964261373L141.76402511119494,89.03849964261373L141.7690921657354,89.03849964261373L141.77821286390824,89.03849964261373L141.78277321299467,89.03849964261373L141.78784026753513,89.03849964261373L141.79240061662153,89.03849964261373L143.81922243280584,89.03849964261373L143.8288498364327,89.03849964261373L143.83341018551914,89.03849964261373L143.83797053460555,89.03849964261373L143.84253088369195,89.03849964261373L143.8475979382324,89.03849964261373L143.86634604003214,89.03849964261373L143.87090638911855,89.03849964261373L143.87546673820498,89.03849964261373L145.88860750713002,89.03849964261373L145.90228855438926,89.03849964261373L145.90735560892972,89.03849964261373L145.91191595801615,89.03849964261373L145.91647630710256,89.03849964261373L145.92103665618896,89.03849964261373L145.93066405981585,89.03849964261373L145.93522440890226,89.03849964261373L145.9397847579887,89.03849964261373L145.94485181252912,89.03849964261373L145.95397251070196,89.03849964261373L147.97623397779986,89.03849964261373L147.9858613814267,89.03849964261373L147.99042173051316,89.03849964261373L147.99954242868597,89.03849964261373L148.00460948322643,89.03849964261373L148.00916983231284,89.03849964261373L148.01829053048567,89.03849964261373L148.02335758502613,89.03849964261373L148.03247828319897,89.03849964261373L150.045619052124,89.03849964261373L150.06892750301014,89.03849964261373L150.07804820118298,89.03849964261373L150.08311525572344,89.03849964261373L150.08767560480985,89.03849964261373L150.09223595389625,89.03849964261373L150.09679630298268,89.03849964261373L150.10186335752314,89.03849964261373L150.10642370660955,89.03849964261373L152.12412482462102,89.03849964261373L152.12868517370745,89.03849964261373L152.13324552279386,89.03849964261373L152.14743327550715,89.03849964261373L152.15199362459356,89.03849964261373L152.15655397368,89.03849964261373L152.16162102822045,89.03849964261373L152.1707417263933,89.03849964261373L154.20719094620446,89.03849964261373L154.21175129529087,89.03849964261373L154.21631164437727,89.03849964261373L154.22593904800416,89.03849964261373L154.24468714980384,89.03849964261373L154.25887490251714,89.03849964261373L156.281136369615,89.03849964261373L156.29481741687428,89.03849964261373L156.29988447141474,89.03849964261373L156.30900516958755,89.03849964261373L156.31356551867398,89.03849964261373L156.31863257321444,89.03849964261373L156.32319292230085,89.03849964261373L156.33231362047368,89.03849964261373L156.33738067501415,89.03849964261373L156.34194102410058,89.03849964261373L156.34650137318698,89.03849964261373L158.35964214211202,89.03849964261373L158.36420249119845,89.03849964261373L158.36876284028486,89.03849964261373L158.3733231893713,89.03849964261373L158.37839024391175,89.03849964261373L158.3875109420846,89.03849964261373L158.392071291171,89.03849964261373L158.40169869479786,89.03849964261373L158.4108193929707,89.03849964261373L158.41588644751116,89.03849964261373L158.42500714568396,89.03849964261373L160.44270826369547,89.03849964261373L160.44726861278187,89.03849964261373L160.4518289618683,89.03849964261373L160.45689601640876,89.03849964261373L160.470577063668,89.03849964261373L160.47564411820844,89.03849964261373L160.48020446729487,89.03849964261373L160.48476481638127,89.03849964261373L160.49439222000814,89.03849964261373L160.49895256909457,89.03849964261373L162.54452248707858,89.03849964261373L162.55871023979188,89.03849964261373L162.56327058887828,89.03849964261373L162.57289799250518,89.03849964261373L162.57745834159158,89.03849964261373L162.58201869067798,89.03849964261373L164.59515945960305,89.03849964261373L164.6088405068623,89.03849964261373L164.61390756140275,89.03849964261373L164.6230282595756,89.03849964261373L164.627588608662,89.03849964261373L164.63265566320246,89.03849964261373L164.6372160122889,89.03849964261373L164.6514037650022,89.03849964261373L166.6969736829862,89.03849964261373L166.7015340320726,89.03849964261373L166.706094381159,89.03849964261373L166.71572178478587,89.03849964261373L166.7248424829587,89.03849964261373L166.72990953749917,89.03849964261373L166.73446988658557,89.03849964261373L168.75217100459707,89.03849964261373L168.75673135368345,89.03849964261373L168.7612917027699,89.03849964261373L168.76585205185629,89.03849964261373L168.77091910639675,89.03849964261373L168.784600153656,89.03849964261373L168.78966720819648,89.03849964261373L168.79422755728288,89.03849964261373L168.81753600816901,89.03849964261373L170.83523712618046,89.03849964261373L170.8397974752669,89.03849964261373L170.84942487889376,89.03849964261373L170.8539852279802,89.03849964261373L170.863105926153,89.03849964261373L170.8914814315796,89.03849964261373L170.89604178066602,89.03849964261373L172.91374289867747,89.03849964261373L172.9183032477639,89.03849964261373L172.9228635968503,89.03849964261373L172.94161169865004,89.03849964261373L172.9466787531905,89.03849964261373L172.95123910227687,89.03849964261373L172.95579945136328,89.03849964261373L172.9603598004497,89.03849964261373L172.96998720407657,89.03849964261373L174.98768832208808,89.03849964261373L174.9922486711745,89.03849964261373L174.9968090202609,89.03849964261373L175.0013693693473,89.03849964261373L175.00643642388775,89.03849964261373L175.01099677297418,89.03849964261373L175.01555712206059,89.03849964261373L175.03430522386031,89.03849964261373L175.04393262748718,89.03849964261373L175.04849297657358,89.03849964261373L177.0849421963848,89.03849964261373L177.0940628945576,89.03849964261373L177.1036902981845,89.03849964261373L177.1082506472709,89.03849964261373L177.11281099635733,89.03849964261373L177.1224383999842,89.03849964261373L179.14469986708207,89.03849964261373L179.1492602161685,89.03849964261373L179.1634479688818,89.03849964261373L179.1725686670546,89.03849964261373L179.1867564197679,89.03849964261373L179.20094417248117,89.03849964261373L179.2055045215676,89.03849964261373L181.22320563957908,89.03849964261373L181.2277659886655,89.03849964261373L181.2323263377519,89.03849964261373L181.23688668683835,89.03849964261373L181.24195374137878,89.03849964261373L181.24651409046518,89.03849964261373L181.25107443955162,89.03849964261373L181.26070184317848,89.03849964261373L181.26526219226488,89.03849964261373L181.26982254135132,89.03849964261373L181.28401029406461,89.03849964261373L181.28857064315102,89.03849964261373L183.3062717611625,89.03849964261373L183.34376796476192,89.03849964261373L183.34832831384833,89.03849964261373L183.35288866293473,89.03849964261373L183.3579557174752,89.03849964261373L183.36251606656162,89.03849964261373L185.3802171845731,89.03849964261373L185.3847775336595,89.03849964261373L185.3893378827459,89.03849964261373L185.39389823183234,89.03849964261373L185.4035256354592,89.03849964261373L185.40808598454564,89.03849964261373L185.41264633363204,89.03849964261373L185.42227373725893,89.03849964261373L185.42683408634534,89.03849964261373L185.4364614899722,89.03849964261373L187.49115210612902,89.03849964261373L187.50533985884232,89.03849964261373L187.50990020792875,89.03849964261373L187.5149672624692,89.03849964261373L187.51952761155562,89.03849964261373L189.5372287295671,89.03849964261373L189.5417890786535,89.03849964261373L189.54634942773993,89.03849964261373L189.5559768313668,89.03849964261373L189.56965787862603,89.03849964261373L189.5747249331665,89.03849964261373L189.57928528225293,89.03849964261373L189.58384563133933,89.03849964261373L189.58840598042576,89.03849964261373L189.59347303496622,89.03849964261373L189.59803338405263,89.03849964261373L189.60259373313903,89.03849964261373L191.6202948511505,89.03849964261373L191.62941554932334,89.03849964261373L191.6344826038638,89.03849964261373L191.64360330203664,89.03849964261373L191.6532307056635,89.03849964261373L191.66235140383634,89.03849964261373L191.66691175292277,89.03849964261373L191.6719788074632,89.03849964261373L191.6765391565496,89.03849964261373L191.68109950563604,89.03849964261373L193.6942402745611,89.03849964261373L193.7129883763608,89.03849964261373L193.73629682724692,89.03849964261373L193.74085717633332,89.03849964261373L193.75048457996022,89.03849964261373L193.75504492904662,89.03849964261373L193.75960527813305,89.03849964261373L195.78186674523093,89.03849964261373L195.78642709431733,89.03849964261373L195.7914941488578,89.03849964261373L195.80061484703063,89.03849964261373L195.81024225065752,89.03849964261373L195.81480259974393,89.03849964261373L195.82899035245723,89.03849964261373L195.83811105063006,89.03849964261373L197.85581216864153,89.03849964261373L197.86037251772794,89.03849964261373L197.8699999213548,89.03849964261373L197.87456027044124,89.03849964261373L197.88874802315453,89.03849964261373L197.89330837224094,89.03849964261373L197.89786872132737,89.03849964261373L197.90749612495424,89.03849964261373L197.9120564740406,89.03849964261373L197.91661682312704,89.03849964261373L199.93431794113854,89.03849964261373L199.93887829022495,89.03849964261373L199.94343863931135,89.03849964261373L199.94850569385184,89.03849964261373L199.95306604293825,89.03849964261373L199.95762639202465,89.03849964261373L199.96725379565152,89.03849964261373L199.98093484291076,89.03849964261373L199.98600189745122,89.03849964261373L199.99512259562405,89.03849964261373L202.02194441180836,89.03849964261373L202.02701146634882,89.03849964261373L202.03613216452163,89.03849964261373L202.04069251360806,89.03849964261373L202.05488026632136,89.03849964261373L202.06450766994823,89.03849964261373L202.07362836812106,89.03849964261373L204.09132948613254,89.03849964261373L204.09588983521894,89.03849964261373L204.10045018430537,89.03849964261373L204.10551723884583,89.03849964261373L204.11463793701867,89.03849964261373L204.12882568973194,89.03849964261373L204.13338603881837,89.03849964261373L204.14301344244524,89.03849964261373L204.14757379153167,89.03849964261373L204.15213414061807,89.03849964261373L206.16983525862955,89.03849964261373L206.18858336042925,89.03849964261373L206.19770405860208,89.03849964261373L206.20277111314252,89.03849964261373L206.21189181131535,89.03849964261373L206.21645216040176,89.03849964261373L206.22151921494222,89.03849964261373L206.22607956402865,89.03849964261373L206.23063991311506,89.03849964261373L208.24378068204015,89.03849964261373L208.26252878383983,89.03849964261373L208.26708913292623,89.03849964261373L208.27164948201266,89.03849964261373L208.27620983109907,89.03849964261373L208.28127688563953,89.03849964261373L208.29039758381236,89.03849964261373L208.30002498743926,89.03849964261373L208.30458533652566,89.03849964261373L208.30914568561207,89.03849964261373L210.32228645453714,89.03849964261373L210.32684680362354,89.03849964261373L210.33140715270994,89.03849964261373L210.34559490542324,89.03849964261373L210.35978265813654,89.03849964261373L210.36890335630937,89.03849964261373L210.37853075993627,89.03849964261373L210.38309110902267,89.03849964261373L210.38765145810908,89.03849964261373L212.40079222703415,89.03849964261373L212.40535257612055,89.03849964261373L212.42410067792025,89.03849964261373L212.44284877971995,89.03849964261373L212.4519694778928,89.03849964261373L212.45703653243325,89.03849964261373L212.46159688151965,89.03849964261373L214.47929799953116,89.03849964261373L214.48385834861756,89.03849964261373L214.488418697704,89.03849964261373L214.50260645041726,89.03849964261373L214.51679420313053,89.03849964261373L214.52135455221696,89.03849964261373L214.52591490130337,89.03849964261373L214.53554230493026,89.03849964261373L214.54010265401666,89.03849964261373L214.5446630031031,89.03849964261373L216.56236412111454,89.03849964261373L216.56692447020097,89.03849964261373L216.57655187382784,89.03849964261373L216.58111222291427,89.03849964261373L216.58567257200068,89.03849964261373L216.59023292108708,89.03849964261373L216.59529997562757,89.03849964261373L216.59986032471397,89.03849964261373L216.6089810228868,89.03849964261373L216.61404807742727,89.03849964261373L218.63630954452515,89.03849964261373L218.65961799541128,89.03849964261373L218.67836609721098,89.03849964261373L220.723936015195,89.03849964261373L220.7284963642814,89.03849964261373L220.73356341882183,89.03849964261373L220.73812376790826,89.03849964261373L220.74268411699467,89.03849964261373L220.75687186970796,89.03849964261373L220.7614322187944,89.03849964261373L220.77105962242126,89.03849964261373L220.77561997150767,89.03849964261373L222.79332108951914,89.03849964261373L222.79788143860557,89.03849964261373L222.80244178769198,89.03849964261373L222.80700213677838,89.03849964261373L222.81662954040527,89.03849964261373L222.8257502385781,89.03849964261373L222.83081729311857,89.03849964261373L222.83537764220497,89.03849964261373L222.8444983403778,89.03849964261373L222.84956539491827,89.03849964261373L222.8541257440047,89.03849964261373L224.87182686201615,89.03849964261373L224.880947560189,89.03849964261373L224.90932306561558,89.03849964261373L224.91844376378842,89.03849964261373L224.9371918655881,89.03849964261373L226.95033263451316,89.03849964261373L226.9548929835996,89.03849964261373L226.97364108539927,89.03849964261373L226.9969495362854,89.03849964261373L227.0015098853718,89.03849964261373L229.02883840701014,89.03849964261373L229.0425194542694,89.03849964261373L229.04758650880987,89.03849964261373L229.0612675560691,89.03849964261373L229.06633461060957,89.03849964261373L229.0754553087824,89.03849964261373L229.0800156578688,89.03849964261373L229.08508271240927,89.03849964261373L229.0896430614957,89.03849964261373L231.10734417950718,89.03849964261373L231.11190452859358,89.03849964261373L231.12609228130688,89.03849964261373L231.13065263039329,89.03849964261373L231.13521297947972,89.03849964261373L231.13977332856612,89.03849964261373L231.14484038310658,89.03849964261373L231.16358848490626,89.03849964261373L233.1858499520042,89.03849964261373L233.1904103010906,89.03849964261373L233.194970650177,89.03849964261373L233.19953099926343,89.03849964261373L233.20915840289027,89.03849964261373L233.21371875197673,89.03849964261373L233.2182791010631,89.03849964261373L233.22334615560356,89.03849964261373L233.22790650469,89.03849964261373L233.2324668537764,89.03849964261373L233.2370272028628,89.03849964261373L233.2420942574033,89.03849964261373L233.2466546064897,89.03849964261373L235.26891607358758,89.03849964261373L235.2780367717604,89.03849964261373L235.30185192810058,89.03849964261373L235.306412277187,89.03849964261373L235.3109726262734,89.03849964261373L235.3206000299003,89.03849964261373L237.3474218460846,89.03849964261373L237.36160959879788,89.03849964261373L237.37073029697072,89.03849964261373L237.38947839877042,89.03849964261373L237.39403874785685,89.03849964261373L237.39910580239732,89.03849964261373L237.4036661514837,89.03849964261373L239.4259276185816,89.03849964261373L239.43504831675443,89.03849964261373L239.4401153712949,89.03849964261373L239.44467572038133,89.03849964261373L239.44923606946773,89.03849964261373L239.4537964185541,89.03849964261373L239.463423822181,89.03849964261373L239.4679841712674,89.03849964261373L239.4821719239807,89.03849964261373L239.48673227306713,89.03849964261373L241.50443339107858,89.03849964261373L241.508993740165,89.03849964261373L241.51355408925141,89.03849964261373L241.5373692455916,89.03849964261373L241.541929594678,89.03849964261373L241.5464899437644,89.03849964261373L243.59205986174842,89.03849964261373L243.5971269162889,89.03849964261373L243.60168726537532,89.03849964261373L243.61080796354815,89.03849964261373L243.61587501808862,89.03849964261373L243.62043536717502,89.03849964261373L243.62499571626145,89.03849964261373L243.62955606534786,89.03849964261373L243.63462311988832,89.03849964261373L243.63918346897472,89.03849964261373L245.6568845869862,89.03849964261373L245.66600528515903,89.03849964261373L245.67056563424543,89.03849964261373L245.67563268878592,89.03849964261373L245.68475338695873,89.03849964261373L245.68931373604516,89.03849964261373L245.698941139672,89.03849964261373L245.70806183784484,89.03849964261373L245.7131288923853,89.03849964261373L245.72224959055814,89.03849964261373L247.73539035948318,89.03849964261373L247.7541384612829,89.03849964261373L247.7586988103693,89.03849964261373L247.7632591594557,89.03849964261373L247.76781950854215,89.03849964261373L247.7728865630826,89.03849964261373L247.777446912169,89.03849964261373L247.78200726125544,89.03849964261373L247.7916346648823,89.03849964261373L247.79619501396874,89.03849964261373L247.80075536305515,89.03849964261373L249.8138961319802,89.03849964261373L249.83264423377992,89.03849964261373L249.84176493195272,89.03849964261373L249.84632528103916,89.03849964261373L249.85139233557962,89.03849964261373L249.86051303375245,89.03849964261373L249.87014043737932,89.03849964261373L249.87926113555216,89.03849964261373L251.89696225356363,89.03849964261373L251.90152260265003,89.03849964261373L251.90608295173647,89.03849964261373L251.91571035536333,89.03849964261373L251.92027070444976,89.03849964261373L251.92483105353617,89.03849964261373L251.9298981080766,89.03849964261373L251.934458457163,89.03849964261373L251.93901880624944,89.03849964261373L251.94357915533584,89.03849964261373L251.9486462098763,89.03849964261373L251.95320655896273,89.03849964261373L253.97546802606064,89.03849964261373L253.98002837514701,89.03849964261373L253.9896557787739,89.03849964261373L253.9942161278603,89.03849964261373L254.0084038805736,89.03849964261373L254.01296422966004,89.03849964261373L254.01752457874645,89.03849964261373L254.02208492783285,89.03849964261373L254.0271519823733,89.03849964261373L254.03627268054615,89.03849964261373L256.06309449673046,89.03849964261373L256.0727219003573,89.03849964261373L256.0772822494438,89.03849964261373L256.08184259853016,89.03849964261373L256.0960303512434,89.03849964261373L256.10059070032986,89.03849964261373L256.11021810395675,89.03849964261373L256.11477845304313,89.03849964261373L258.1279192219682,89.03849964261373L258.13703992014104,89.03849964261373L258.14160026922747,89.03849964261373L258.14666732376793,89.03849964261373L258.1512276728543,89.03849964261373L258.16034837102717,89.03849964261373L258.16997577465406,89.03849964261373L258.17909647282687,89.03849964261373L258.18416352736733,89.03849964261373L258.19328422554014,89.03849964261373L260.20642499446524,89.03849964261373L260.2109853435516,89.03849964261373L260.21554569263805,89.03849964261373L260.22517309626494,89.03849964261373L260.2388541435242,89.03849964261373L260.24392119806464,89.03849964261373L260.2484815471511,89.03849964261373L260.25304189623745,89.03849964261373L260.2576022453239,89.03849964261373L260.2672296489507,89.03849964261373L260.2717899980372,89.03849964261373L262.28493076696225,89.03849964261373L262.2894911160486,89.03849964261373L262.29405146513506,89.03849964261373L262.2986118142215,89.03849964261373L262.30367886876195,89.03849964261373L262.3082392178484,89.03849964261373L262.31735991602113,89.03849964261373L262.32242697056165,89.03849964261373L262.326987319648,89.03849964261373L262.3457354214477,89.03849964261373L264.36799688854563,89.03849964261373L264.37255723763207,89.03849964261373L264.37711758671844,89.03849964261373L264.39130533943177,89.03849964261373L264.3958656885182,89.03849964261373L264.40093274305866,89.03849964261373L264.40549309214504,89.03849964261373L264.41005344123147,89.03849964261373L264.41968084485836,89.03849964261373L264.42424119394474,89.03849964261373L264.42880154303117,89.03849964261373L266.4510630101291,89.03849964261373L266.45562335921545,89.03849964261373L266.46525076284235,89.03849964261373L266.4698111119288,89.03849964261373L266.4743714610152,89.03849964261373L266.4885592137285,89.03849964261373L266.4981866173554,89.03849964261373L266.50274696644175,89.03849964261373L266.5073073155282,89.03849964261373L268.5204480844532,89.03849964261373L268.52500843353965,89.03849964261373L268.5295687826261,89.03849964261373" fill="none"></path></g></g></g></g></g></g><g transform="translate(51, 178)" clip-path="url(#clip_1)"><clipPath id="clip_1"><rect width="278" height="21"></rect></clipPath><g><g><line x1="0" y1="0" x2="0" y2="5" style="visibility: inherit;" fill="rgb(0, 0, 0)" stroke="rgb(204, 204, 204)" stroke-width="1px"></line><line x1="25.3352727023038" y1="0" x2="25.3352727023038" y2="5" style="visibility: inherit;" fill="rgb(0, 0, 0)" stroke="rgb(204, 204, 204)" stroke-width="1px"></line><line x1="50.6705454046076" y1="0" x2="50.6705454046076" y2="5" style="visibility: inherit;" fill="rgb(0, 0, 0)" stroke="rgb(204, 204, 204)" stroke-width="1px"></line><line x1="76.00581810691139" y1="0" x2="76.00581810691139" y2="5" style="visibility: inherit;" fill="rgb(0, 0, 0)" stroke="rgb(204, 204, 204)" stroke-width="1px"></line><line x1="101.3410908092152" y1="0" x2="101.3410908092152" y2="5" style="visibility: inherit;" fill="rgb(0, 0, 0)" stroke="rgb(204, 204, 204)" stroke-width="1px"></line><line x1="126.676363511519" y1="0" x2="126.676363511519" y2="5" style="visibility: inherit;" fill="rgb(0, 0, 0)" stroke="rgb(204, 204, 204)" stroke-width="1px"></line><line x1="152.01163621382278" y1="0" x2="152.01163621382278" y2="5" style="visibility: inherit;" fill="rgb(0, 0, 0)" stroke="rgb(204, 204, 204)" stroke-width="1px"></line><line x1="177.3469089161266" y1="0" x2="177.3469089161266" y2="5" style="visibility: inherit;" fill="rgb(0, 0, 0)" stroke="rgb(204, 204, 204)" stroke-width="1px"></line><line x1="202.6821816184304" y1="0" x2="202.6821816184304" y2="5" style="visibility: inherit;" fill="rgb(0, 0, 0)" stroke="rgb(204, 204, 204)" stroke-width="1px"></line><line x1="228.0174543207342" y1="0" x2="228.0174543207342" y2="5" style="visibility: inherit;" fill="rgb(0, 0, 0)" stroke="rgb(204, 204, 204)" stroke-width="1px"></line><line x1="253.352727023038" y1="0" x2="253.352727023038" y2="5" style="visibility: inherit;" fill="rgb(0, 0, 0)" stroke="rgb(204, 204, 204)" stroke-width="1px"></line><line x1="278.6879997253418" y1="0" x2="278.6879997253418" y2="5" style="visibility: inherit;" fill="rgb(0, 0, 0)" stroke="rgb(204, 204, 204)" stroke-width="1px"></line></g><g transform="translate(0, 8)"><text style="text-anchor: middle; visibility: hidden; font-family: &quot;Helvetica Neue&quot;, sans-serif; font-size: 12px; font-weight: 200;" x="0" y="0" dx="0em" dy="0.95em" fill="rgb(50, 49, 63)" stroke="none" stroke-width="1px">-50k</text><text style="text-anchor: middle; visibility: inherit; font-family: &quot;Helvetica Neue&quot;, sans-serif; font-size: 12px; font-weight: 200;" x="25.3352727023038" y="0" dx="0em" dy="0.95em" fill="rgb(50, 49, 63)" stroke="none" stroke-width="1px">0</text><text style="text-anchor: middle; visibility: hidden; font-family: &quot;Helvetica Neue&quot;, sans-serif; font-size: 12px; font-weight: 200;" x="50.6705454046076" y="0" dx="0em" dy="0.95em" fill="rgb(50, 49, 63)" stroke="none" stroke-width="1px">50k</text><text style="text-anchor: middle; visibility: inherit; font-family: &quot;Helvetica Neue&quot;, sans-serif; font-size: 12px; font-weight: 200;" x="76.00581810691139" y="0" dx="0em" dy="0.95em" fill="rgb(50, 49, 63)" stroke="none" stroke-width="1px">100k</text><text style="text-anchor: middle; visibility: hidden; font-family: &quot;Helvetica Neue&quot;, sans-serif; font-size: 12px; font-weight: 200;" x="101.3410908092152" y="0" dx="0em" dy="0.95em" fill="rgb(50, 49, 63)" stroke="none" stroke-width="1px">150k</text><text style="text-anchor: middle; visibility: inherit; font-family: &quot;Helvetica Neue&quot;, sans-serif; font-size: 12px; font-weight: 200;" x="126.676363511519" y="0" dx="0em" dy="0.95em" fill="rgb(50, 49, 63)" stroke="none" stroke-width="1px">200k</text><text style="text-anchor: middle; visibility: hidden; font-family: &quot;Helvetica Neue&quot;, sans-serif; font-size: 12px; font-weight: 200;" x="152.01163621382278" y="0" dx="0em" dy="0.95em" fill="rgb(50, 49, 63)" stroke="none" stroke-width="1px">250k</text><text style="text-anchor: middle; visibility: inherit; font-family: &quot;Helvetica Neue&quot;, sans-serif; font-size: 12px; font-weight: 200;" x="177.3469089161266" y="0" dx="0em" dy="0.95em" fill="rgb(50, 49, 63)" stroke="none" stroke-width="1px">300k</text><text style="text-anchor: middle; visibility: hidden; font-family: &quot;Helvetica Neue&quot;, sans-serif; font-size: 12px; font-weight: 200;" x="202.6821816184304" y="0" dx="0em" dy="0.95em" fill="rgb(50, 49, 63)" stroke="none" stroke-width="1px">350k</text><text style="text-anchor: middle; visibility: inherit; font-family: &quot;Helvetica Neue&quot;, sans-serif; font-size: 12px; font-weight: 200;" x="228.0174543207342" y="0" dx="0em" dy="0.95em" fill="rgb(50, 49, 63)" stroke="none" stroke-width="1px">400k</text><text style="text-anchor: middle; visibility: hidden; font-family: &quot;Helvetica Neue&quot;, sans-serif; font-size: 12px; font-weight: 200;" x="253.352727023038" y="0" dx="0em" dy="0.95em" fill="rgb(50, 49, 63)" stroke="none" stroke-width="1px">450k</text><text style="text-anchor: middle; visibility: hidden; font-family: &quot;Helvetica Neue&quot;, sans-serif; font-size: 12px; font-weight: 200;" x="278.6879997253418" y="0" dx="0em" dy="0.95em" fill="rgb(50, 49, 63)" stroke="none" stroke-width="1px">500k</text></g><line x1="0" y1="0" x2="278.6879997253418" y2="0" fill="rgb(0, 0, 0)" stroke="rgb(204, 204, 204)" stroke-width="1px"></line></g></g></g></g></svg>