<svg viewBox="0 0 330 200" xmlns="http://www.w3.org/2000/svg"><g><g><g><g><g><line x1="71.9680004119873" y1="178.07699966430664" x2="66.9680004119873" y2="178.07699966430664" style="visibility: inherit;" fill="rgb(0, 0, 0)" stroke="rgb(204, 204, 204)" stroke-width="1px"></line><line x1="71.9680004119873" y1="163.23724969228113" x2="66.9680004119873" y2="163.23724969228113" style="visibility: inherit;" fill="rgb(0, 0, 0)" stroke="rgb(204, 204, 204)" stroke-width="1px"></line><line x1="71.9680004119873" y1="148.39749972025552" x2="66.9680004119873" y2="148.39749972025552" style="visibility: inherit;" fill="rgb(0, 0, 0)" stroke="rgb(204, 204, 204)" stroke-width="1px"></line><line x1="71.9680004119873" y1="133.55774974822992" x2="66.9680004119873" y2="133.55774974822992" style="visibility: inherit;" fill="rgb(0, 0, 0)" stroke="rgb(204, 204, 204)" stroke-width="1px"></line><line x1="71.9680004119873" y1="118.71799977620446" x2="66.9680004119873" y2="118.71799977620446" style="visibility: inherit;" fill="rgb(0, 0, 0)" stroke="rgb(204, 204, 204)" stroke-width="1px"></line><line x1="71.9680004119873" y1="103.87824980417888" x2="66.9680004119873" y2="103.87824980417888" style="visibility: inherit;" fill="rgb(0, 0, 0)" stroke="rgb(204, 204, 204)" stroke-width="1px"></line><line x1="71.9680004119873" y1="89.03849983215328" x2="66.9680004119873" y2="89.03849983215328" style="visibility: inherit;" fill="rgb(0, 0, 0)" stroke="rgb(204, 204, 204)" stroke-width="1px"></line><line x1="71.9680004119873" y1="74.19874986012782" x2="66.9680004119873" y2="74.19874986012782" style="visibility: inherit;" fill="rgb(0, 0, 0)" stroke="rgb(204, 204, 204)" stroke-width="1px"></line><line x1="71.9680004119873" y1="59.35899988810225" x2="66.9680004119873" y2="59.35899988810225" style="visibility: inherit;" fill="rgb(0, 0, 0)" stroke="rgb(204, 204, 204)" stroke-width="1px"></line><line x1="71.9680004119873" y1="44.51924991607663" x2="66.9680004119873" y2="44.51924991607663" style="visibility: inherit;" fill="rgb(0, 0, 0)" stroke="rgb(204, 204, 204)" stroke-width="1px"></line><line x1="71.9680004119873" y1="29.679499944051173" x2="66.9680004119873" y2="29.679499944051173" style="visibility: inherit;" fill="rgb(0, 0, 0)" stroke="rgb(204, 204, 204)" stroke-width="1px"></line><line x1="71.9680004119873" y1="14.8397499720256" x2="66.9680004119873" y2="14.8397499720256" style="visibility: inherit;" fill="rgb(0, 0, 0)" stroke="rgb(204, 204, 204)" stroke-width="1px"></line><line x1="71.9680004119873" y1="0" x2="66.9680004119873" y2="0" style="visibility: inherit;" fill="rgb(0, 0, 0)" stroke="rgb(204, 204, 204)" stroke-width="1px"></line></g><g transform="translate(61.968000411987305, 0)"><text style="text-anchor: end; visibility: hidden; font-family: &quot;Helvetica Neue&quot;, sans-serif; font-size: 12px; font-weight: 200;" x="0" y="178.07699966430664" dx="0em" dy="0.3em" fill="rgb(50, 49, 63)" stroke="none" stroke-width="1px">7.6e-3</text><text style="text-anchor: end; visibility: inherit; font-family: &quot;Helvetica Neue&quot;, sans-serif; font-size: 12px; font-weight: 200;" x="0" y="163.23724969228113" dx="0em" dy="0.3em" fill="rgb(50, 49, 63)" stroke="none" stroke-width="1px">7.8e-3</text><text style="text-anchor: end; visibility: hidden; font-family: &quot;Helvetica Neue&quot;, sans-serif; font-size: 12px; font-weight: 200;" x="0" y="148.39749972025552" dx="0em" dy="0.3em" fill="rgb(50, 49, 63)" stroke="none" stroke-width="1px">8e-3</text><text style="text-anchor: end; visibility: inherit; font-family: &quot;Helvetica Neue&quot;, sans-serif; font-size: 12px; font-weight: 200;" x="0" y="133.55774974822992" dx="0em" dy="0.3em" fill="rgb(50, 49, 63)" stroke="none" stroke-width="1px">8.2e-3</text><text style="text-anchor: end; visibility: hidden; font-family: &quot;Helvetica Neue&quot;, sans-serif; font-size: 12px; font-weight: 200;" x="0" y="118.71799977620446" dx="0em" dy="0.3em" fill="rgb(50, 49, 63)" stroke="none" stroke-width="1px">8.4e-3</text><text style="text-anchor: end; visibility: inherit; font-family: &quot;Helvetica Neue&quot;, sans-serif; font-size: 12px; font-weight: 200;" x="0" y="103.87824980417888" dx="0em" dy="0.3em" fill="rgb(50, 49, 63)" stroke="none" stroke-width="1px">8.6e-3</text><text style="text-anchor: end; visibility: hidden; font-family: &quot;Helvetica Neue&quot;, sans-serif; font-size: 12px; font-weight: 200;" x="0" y="89.03849983215328" dx="0em" dy="0.3em" fill="rgb(50, 49, 63)" stroke="none" stroke-width="1px">8.8e-3</text><text style="text-anchor: end; visibility: inherit; font-family: &quot;Helvetica Neue&quot;, sans-serif; font-size: 12px; font-weight: 200;" x="0" y="74.19874986012782" dx="0em" dy="0.3em" fill="rgb(50, 49, 63)" stroke="none" stroke-width="1px">9e-3</text><text style="text-anchor: end; visibility: hidden; font-family: &quot;Helvetica Neue&quot;, sans-serif; font-size: 12px; font-weight: 200;" x="0" y="59.35899988810225" dx="0em" dy="0.3em" fill="rgb(50, 49, 63)" stroke="none" stroke-width="1px">9.2e-3</text><text style="text-anchor: end; visibility: inherit; font-family: &quot;Helvetica Neue&quot;, sans-serif; font-size: 12px; font-weight: 200;" x="0" y="44.51924991607663" dx="0em" dy="0.3em" fill="rgb(50, 49, 63)" stroke="none" stroke-width="1px">9.4e-3</text><text style="text-anchor: end; visibility: hidden; font-family: &quot;Helvetica Neue&quot;, sans-serif; font-size: 12px; font-weight: 200;" x="0" y="29.679499944051173" dx="0em" dy="0.3em" fill="rgb(50, 49, 63)" stroke="none" stroke-width="1px">9.6e-3</text><text style="text-anchor: end; visibility: inherit; font-family: &quot;Helvetica Neue&quot;, sans-serif; font-size: 12px; font-weight: 200;" x="0" y="14.8397499720256" dx="0em" dy="0.3em" fill="rgb(50, 49, 63)" stroke="none" stroke-width="1px">9.8e-3</text><text style="text-anchor: end; visibility: hidden; font-family: &quot;Helvetica Neue&quot;, sans-serif; font-size: 12px; font-weight: 200;" x="0" y="0" dx="0em" dy="0.3em" fill="rgb(50, 49, 63)" stroke="none" stroke-width="1px">0.01</text></g><line x1="71.9680004119873" y1="0" x2="71.9680004119873" y2="178.07699966430664" fill="rgb(0, 0, 0)" stroke="rgb(204, 204, 204)" stroke-width="1px"></line></g></g><g transform="translate(71, 0)" clip-path="url(#clip_0)"><clipPath id="clip_0"><rect width="258" height="178"></rect></clipPath><g><g><g><line x1="0" y1="0" x2="0" y2="178.07699966430664" fill="rgb(0, 0, 0)" stroke="rgb(60, 60, 60)" stroke-width="1px" opacity="0.25"></line><line x1="23.457454508001156" y1="0" x2="23.457454508001156" y2="178.07699966430664" fill="rgb(0, 0, 0)" stroke="rgb(60, 60, 60)" stroke-width="1px" opacity="0.25"></line><line x1="46.91490901600231" y1="0" x2="46.91490901600231" y2="178.07699966430664" fill="rgb(0, 0, 0)" stroke="rgb(60, 60, 60)" stroke-width="1px" opacity="0.25"></line><line x1="70.37236352400346" y1="0" x2="70.37236352400346" y2="178.07699966430664" fill="rgb(0, 0, 0)" stroke="rgb(60, 60, 60)" stroke-width="1px" opacity="0.25"></line><line x1="93.82981803200462" y1="0" x2="93.82981803200462" y2="178.07699966430664" fill="rgb(0, 0, 0)" stroke="rgb(60, 60, 60)" stroke-width="1px" opacity="0.25"></line><line x1="117.28727254000577" y1="0" x2="117.28727254000577" y2="178.07699966430664" fill="rgb(0, 0, 0)" stroke="rgb(60, 60, 60)" stroke-width="1px" opacity="0.25"></line><line x1="140.74472704800692" y1="0" x2="140.74472704800692" y2="178.07699966430664" fill="rgb(0, 0, 0)" stroke="rgb(60, 60, 60)" stroke-width="1px" opacity="0.25"></line><line x1="164.20218155600807" y1="0" x2="164.20218155600807" y2="178.07699966430664" fill="rgb(0, 0, 0)" stroke="rgb(60, 60, 60)" stroke-width="1px" opacity="0.25"></line><line x1="187.65963606400925" y1="0" x2="187.65963606400925" y2="178.07699966430664" fill="rgb(0, 0, 0)" stroke="rgb(60, 60, 60)" stroke-width="1px" opacity="0.25"></line><line x1="211.1170905720104" y1="0" x2="211.1170905720104" y2="178.07699966430664" fill="rgb(0, 0, 0)" stroke="rgb(60, 60, 60)" stroke-width="1px" opacity="0.25"></line><line x1="234.57454508001155" y1="0" x2="234.57454508001155" y2="178.07699966430664" fill="rgb(0, 0, 0)" stroke="rgb(60, 60, 60)" stroke-width="1px" opacity="0.25"></line><line x1="258.0319995880127" y1="0" x2="258.0319995880127" y2="178.07699966430664" fill="rgb(0, 0, 0)" stroke="rgb(60, 60, 60)" stroke-width="1px" opacity="0.25"></line></g><g><line x1="0" y1="178.07699966430664" x2="258.0319995880127" y2="178.07699966430664" fill="rgb(0, 0, 0)" stroke="rgb(60, 60, 60)" stroke-width="1px" opacity="0.25"></line><line x1="0" y1="163.23724969228113" x2="258.0319995880127" y2="163.23724969228113" fill="rgb(0, 0, 0)" stroke="rgb(60, 60, 60)" stroke-width="1px" opacity="0.25"></line><line x1="0" y1="148.39749972025552" x2="258.0319995880127" y2="148.39749972025552" fill="rgb(0, 0, 0)" stroke="rgb(60, 60, 60)" stroke-width="1px" opacity="0.25"></line><line x1="0" y1="133.55774974822992" x2="258.0319995880127" y2="133.55774974822992" fill="rgb(0, 0, 0)" stroke="rgb(60, 60, 60)" stroke-width="1px" opacity="0.25"></line><line x1="0" y1="118.71799977620446" x2="258.0319995880127" y2="118.71799977620446" fill="rgb(0, 0, 0)" stroke="rgb(60, 60, 60)" stroke-width="1px" opacity="0.25"></line><line x1="0" y1="103.87824980417888" x2="258.0319995880127" y2="103.87824980417888" fill="rgb(0, 0, 0)" stroke="rgb(60, 60, 60)" stroke-width="1px" opacity="0.25"></line><line x1="0" y1="89.03849983215328" x2="258.0319995880127" y2="89.03849983215328" fill="rgb(0, 0, 0)" stroke="rgb(60, 60, 60)" stroke-width="1px" opacity="0.25"></line><line x1="0" y1="74.19874986012782" x2="258.0319995880127" y2="74.19874986012782" fill="rgb(0, 0, 0)" stroke="rgb(60, 60, 60)" stroke-width="1px" opacity="0.25"></line><line x1="0" y1="59.35899988810225" x2="258.0319995880127" y2="59.35899988810225" fill="rgb(0, 0, 0)" stroke="rgb(60, 60, 60)" stroke-width="1px" opacity="0.25"></line><line x1="0" y1="44.51924991607663" x2="258.0319995880127" y2="44.51924991607663" fill="rgb(0, 0, 0)" stroke="rgb(60, 60, 60)" stroke-width="1px" opacity="0.25"></line><line x1="0" y1="29.679499944051173" x2="258.0319995880127" y2="29.679499944051173" fill="rgb(0, 0, 0)" stroke="rgb(60, 60, 60)" stroke-width="1px" opacity="0.25"></line><line x1="0" y1="14.8397499720256" x2="258.0319995880127" y2="14.8397499720256" fill="rgb(0, 0, 0)" stroke="rgb(60, 60, 60)" stroke-width="1px" opacity="0.25"></line><line x1="0" y1="0" x2="258.0319995880127" y2="0" fill="rgb(0, 0, 0)" stroke="rgb(60, 60, 60)" stroke-width="1px" opacity="0.25"></line></g></g></g><g><g><line x1="0" y1="741.9874986012776" x2="258.0319995880127" y2="741.9874986012776" fill="rgb(0, 0, 0)" stroke="rgb(153, 153, 153)" stroke-width="1.5px"></line></g></g><g><g><line x1="23.457454508001156" y1="0" x2="23.457454508001156" y2="178.07699966430664" fill="rgb(0, 0, 0)" stroke="rgb(153, 153, 153)" stroke-width="1.5px"></line></g></g><g><g><g><g><g><path style="fill: none;" stroke="rgb(255, 112, 67)" stroke-width="2px" d="M25.39926259217349,-14.514086612307835L25.40348493398493,23.093303416064202L25.420843450320852,18.825149514580403L25.42506579213229,10.437007327555392L27.319020669108305,45.475156841503065L27.323712160009904,69.86353469387615L27.332156843632784,76.38441380251071L27.345293018157264,66.40850011227225L27.349515359968702,56.91450299442842L27.358429192681747,41.53120193279375L27.36265153449319,31.585920562082947L27.366873876304627,19.826896632802686L29.2308032115104,50.26439952446603L29.23924789513328,75.99306630842227L29.248161727846316,92.37199266095853L29.25238406965776,103.20321968669425L29.26552024418224,100.82864133870454L29.26974258599368,99.93600599086228L29.27396492780512,101.3640129397076L29.27818726961656,106.6861011169701L29.28287876051816,110.65281357079712L31.155252779346814,130.09200474051346L31.159475121158252,147.5214671765663L31.167919804781132,159.8637500558276L31.176833637494173,163.10477812889854L31.18105597930561,163.0876120448689L31.185278321117057,161.10803476825475L31.189969812018656,157.1403882838535L31.202636837452975,154.44033218303835L31.207328328354574,151.75680632318065L31.211550670166016,146.65090417979945L31.215773011977454,145.24727692323515L33.083924688994664,158.6854527460651L33.09236937261755,167.18461672970858L33.09706086351915,170.7871511006595L33.11864172166651,162.1729045460654L33.12286406347795,152.45238812024363L33.12708640528939,146.8050295914385L33.13177789619099,141.4487198758018L33.13600023800243,137.42741885250888L33.14022257981387,133.6680217997497L35.02151043135556,133.1118800839053L35.05622746402741,130.47122628654L35.064672147650285,133.01297464416513L36.92860148285605,144.1894119518562L36.932823824667494,154.24743771813093L36.9633185155279,145.30731446100668L36.97598554096222,143.92206316429485L36.98489937367526,144.5097694030233L36.9891217154867,145.61171521013782L38.85305105069247,155.52713968483306L38.87040956702839,157.42591093128237L38.87463190883984,155.49852132746213L38.87885425065127,148.30441811830934L38.891990425175756,134.7110754757124L38.89621276698719,122.63628403678608L38.909348941511674,117.0704908807826L40.78594530215177,123.74409976406291L40.79485913486481,122.26217496403683L40.80330381848769,112.58419611729717L40.807526160299126,101.7625094760527L40.81221765120073,91.01697538541134L40.81643999301217,81.18542172255026L40.82066233482361,73.13923168628601L40.824884676635044,67.65897383935256L40.833798509348085,66.396530235467L42.701950186365295,75.3958100500675L42.71461721179962,79.9667743047815L42.71930870270123,81.02030465220429L42.72353104451266,78.80571122204285L42.73197572813554,70.65186705186234L42.736667219037145,59.649439059285314L42.740889560848586,48.74398823414498L42.74933424447146,40.42156834807696L42.75402573537306,34.0601643801773L42.76247041899594,32.50415415012711L44.626399754201714,40.92237953582108L44.6348444378246,46.21662401948328L44.63906677963604,48.23533366032214L44.652202954160515,40.84200340279364L44.66956147049643,31.412151954382352L44.673783812307875,24.3582587401294L44.678475303209474,19.85280678992217L44.682697645020916,18.872522603679982L46.550849322038125,26.768547830963882L46.555071663849574,34.04305344905433L46.56351634747245,38.31503898219995L46.57243018018549,38.43859510002781L46.576652521996934,36.619691646496904L46.58087486380837,33.46395482150939L46.585566354709975,30.811635062410687L46.59401103833285,28.493295997564246L46.598233380144286,28.284734024367623L48.48796591530886,32.65535115238845L48.50532443164479,27.821893639398894L48.52268294798071,22.451038135286524L48.527374438882305,19.150954999356657L48.53159678069375,16.97700517083038L50.40819314133384,22.63119099072216L50.41241548314528,26.010417086144656L50.41710697404688,26.0650291454173L50.42132931585832,23.237824502161317L50.4344654903828,18.232463183489017L50.43868783219424,12.988146439541197L50.451824006718724,12.544141223382923L50.45604634853016,13.562898026589323L52.324198025547375,20.104277864171138L52.32842036735882,26.260309620886943L52.33264270917025,31.67343924737591L52.34155654188329,34.2659145405859L52.345778883694734,34.87997922687663L52.350001225506176,33.741470323157586L52.35422356731761,32.21442306707891L52.35891505821922,29.9594080818583L52.36313740003065,28.527729212731714L52.376273574555135,27.876696953631352L52.380495916366584,27.359587328427494L54.248647593383794,33.261566157447135L54.26600610971971,36.162304314494435L54.270228451531146,38.25395701601846L54.27867313515404,37.34298641527238L54.28758696786707,34.75059207591511L54.29180930967851,31.265274842430586L56.173097161220205,36.89060946995605L56.185764186654524,40.46555601178764L56.19045567755612,42.585457205420795L56.194678019367565,43.21834528631635L56.198900361179,42.5935056448767L56.20781419389204,39.66074844715763L56.225172710227966,39.10566256350418L56.23361739385085,40.374402801606266L58.10176907086806,45.442994760130574L58.1059914126795,49.761994250083376L58.110213754490935,52.69487319754707L58.12757227082686,48.11314984941362L58.13226376172846,42.929342194670426L58.14070844535134,39.99391425501875L58.14962227806438,39.808496703905604L58.15806696168726,41.57161839488137L60.039354813228954,43.374133430932005L60.04779949685183,43.16824816246012L60.05202183866328,41.588601426376215L60.065158013187755,39.72743400516438L60.0740718459008,39.37883682088852L60.07829418771224,39.68181562473134L60.08251652952368,39.75610660101313L61.95066820654089,44.12446325453152L61.954890548352324,47.04464518572058L61.95911289016377,47.7150803289874L61.97647140649969,41.99015321217772L61.98116289740128,36.28842998267092L61.989607581024174,33.70321999001615L62.00274375554865,35.14334099350441L63.87934011618874,38.162102856319166L63.883562458000185,39.64777493800315L63.888253948901784,39.26380192038005L63.89247629071322,36.64752480915496L63.9009209743361,32.53517709243718L63.914057148860586,28.9105462557456L63.91827949067203,26.096550617714627L63.92297098157363,23.60282918207662L65.79534500040228,28.12281417825318L65.79956734221372,32.33788601694397L65.8080120258366,34.34269832410362L65.83428437488556,32.58342479330693L65.84272905850844,33.12681740908391L65.84742054941003,34.12014433524803L65.85164289122147,35.63124832386518L65.85586523303293,37.493687774932255L67.7197945682387,41.74684486473777L67.72823925186157,45.00555940104567L67.73246159367301,46.91742974860716L67.75451160091053,43.72619373804966L67.75873394272197,41.18544664798034L67.76717862634486,40.42741081752163L67.77609245905789,40.79752382441765L67.78031480086933,42.2748449695693L69.64424413607512,46.33605267149284L69.65268881969799,49.90866747965174L69.65691116150943,52.91989390810302L69.66160265241102,55.27990232267237L69.66582499422246,57.01315153502924L69.67426967784534,57.35172316099266L69.67896116874695,57.25649960287477L69.68740585236984,56.06271532975747L69.69162819418126,54.57074220941686L69.70054202689431,53.82933765536086L71.56869370391152,57.64117874736901L71.5771383875344,60.75822198358327L71.58136072934583,62.918829074171896L71.58605222024745,63.79924086637348L71.59449690387032,61.710405166121575L71.59871924568176,59.088071226641546L71.61185542020625,57.42446111248185L71.6160777620177,56.55395805093531L71.62076925291929,55.825139282690586L71.62499159473073,55.48301130672945L73.49314327174794,59.12128528029942L73.49736561355938,62.55709674739657L73.50158795537082,65.40049538504313L73.50581029718225,67.29331859339433L73.52786030441978,63.07356890352783L73.5452188207557,62.79071736573603L73.54944116256715,63.31593652275403L75.41759283958434,66.80791171273565L75.43025986501867,67.50356305610433L75.46075455587908,66.10388701430885L75.46497689769052,65.72365916187401L77.34204240742076,69.14657477388025L77.3462647492322,72.23935236610258L77.35048709104365,74.48008487381216L77.35940092375668,73.59673128669094L77.36784560737956,69.98157197308586L77.37675944009261,66.88630198939245L77.38520412371548,65.31533834812547L79.2838504915931,66.33677622341057L79.28807283340454,66.37242676202366L79.29229517521598,65.84097114593187L79.29651751702743,65.27051603485086L79.30543134974047,64.18584281232381L79.3096536915519,63.34154256812997L79.32278986607638,63.55664894681502L81.19516388490504,66.77400716328341L81.22096708486384,68.59137500331137L81.22565857576544,70.29244354307981L81.22988091757688,71.59359112346007L81.23410325938832,73.11264378972156L81.23832560119975,74.55587787253174L81.2472394339128,75.66432018958533L81.25146177572424,76.72825510518521L83.11539111093,79.82192481113864L83.12383579455289,82.46087585420018L83.12805813636433,84.39766484125879L83.13274962726594,85.55009569165841L83.1411943108888,85.00287854069131L83.15010814360184,83.90837667388061L83.1543304854133,83.0491821729603L83.17168900174921,83.525219945591L85.04828536238931,86.00072281538513L85.0614215369138,86.5522174439326L85.06564387872523,86.0205504652624L85.07455771143826,84.30652585776697L85.0787800532497,82.24564588306616L85.08722473687259,80.14608518665176L85.09613856958563,78.85918520222793L86.96851258841427,81.61063814977149L86.9990072792747,81.84262387801053L87.011674304709,82.94109899022395L87.0163657956106,83.86258587939572L88.88873981443926,86.7262438686296L88.89296215625069,89.4350076818461L88.89718449806213,91.71180812971951L88.90609833077517,92.3160001143747L88.91032067258662,92.29630105605122L88.91454301439806,91.47434894007444L88.9187653562095,89.96721565479967L88.92767918892254,88.69534443625624L88.9492600470699,89.06085792034659L90.81318938227567,91.81903908754919L90.83899258223447,92.55538274612768L90.84790641494752,92.9524593087791L90.85212875675896,93.51281067235142L90.8563510985704,93.45019737552796L90.86057344038183,93.38984360523631L90.86526493128343,93.23516974189154L90.86948727309486,93.27651106037838L90.8737096149063,93.51087636833417L92.73763895011209,96.17330638143889L92.74186129192353,98.72152674287148L92.74608363373495,100.94121720834538L92.754997466448,102.00511662741172L92.76766449188233,100.01302465256995L92.77235598278392,96.98212813760016L92.77657832459536,93.8493598372623L92.78502300821823,91.25612795948217L92.78971449911985,88.61205357069508L94.66208851794849,91.22193870064177L94.67053320157139,93.31573362895308L94.67944703428442,94.16379347795878L94.68366937609585,94.1968089925971L94.69680555062034,93.04663093663618L94.70102789243178,91.86957618738674L94.70525023424322,90.82513382453524L94.71416406695626,89.93245132464719L94.7183864087677,88.85695110592495L94.72260875057913,87.29846553776459L96.59076042759635,89.62234989917371L96.59920511121923,90.40265190735094L96.60389660212084,90.13113281325958L96.61656362755515,87.68366587427965L96.62125511845674,85.23257478891858L96.62547746026819,83.11002311564113L96.62969980207963,81.62881299568822L96.63392214389107,80.8124034523222L96.63861363479268,80.58350168122907L96.64283597660412,80.74609670316671L96.64705831841556,81.1384587860395L98.51520999543277,83.41279547045899L98.51943233724421,85.27979039125522L98.53679085358013,84.3542405119647L98.54101319539156,82.98483389413803L98.54570468629318,81.5604900528929L98.55414936991605,80.20534126997279L98.55837171172749,79.02136192110548L98.56306320262908,78.42851795451544L98.56728554444052,78.26405071954001L100.43543722145775,80.69961718733103L100.44388190508062,82.45174882975121L100.44810424689206,83.25353631543823L100.45279573779366,83.34244440867833L100.46124042141655,82.44199364288558L100.47015425412958,81.58641782541157L100.47859893775245,81.04989004046658L100.48282127956391,80.54693134075109L100.4875127704655,80.63619824698378L102.35988678929417,83.00634228464355L102.37724530563007,83.22810605706964L102.38146764744151,82.51719303419398L102.3899123310644,80.6374982995829L102.394603821966,78.12788385150188L102.40304850558888,75.9474010547003L102.4204070219248,74.87182257815222L104.28433635713057,77.22027675696144L104.29278104075345,78.89548782929876L104.3016948734665,78.5305034723344L104.3190533898024,76.56060943089989L104.33172041523675,76.56903293315538L104.33641190613834,77.06930078422737L104.3448565897612,77.43441640505002L106.20878592496699,79.73341166380948L106.21300826677843,81.82487358975075L106.21723060858987,83.46564087864552L106.22145295040131,84.50436586474848L106.2261444413029,84.65830427753912L106.23036678311435,84.11841749275186L106.23458912492578,83.1181702076753L106.23881146673723,81.42604791131977L106.25616998307315,79.61604195256218L106.26086147397474,77.93899792506528L106.26930615759764,77.48135929264119L108.13745783461484,79.58280179257895L108.15059400913933,79.76746134492825L108.15903869276221,78.32889270572618L108.16326103457364,76.69142603532191L108.16795252547524,74.98274659665863L108.18061955090957,74.82206691289682L108.18531104181116,75.27317925069843L108.1895333836226,75.81728818311403L108.19375572543404,76.16865930142959L110.05768506063983,78.36501653235537L110.0661297442627,80.09569738095756L110.07035208607414,81.37288720038485L110.07504357697573,81.96832097647248L110.08348826059861,81.02548324803291L110.08771060241006,79.93032127712016L110.09240209331166,78.59893780223186L110.0966244351231,77.2513668974079L110.10084677693453,76.37694630932911L110.10506911874597,75.79814375437952L110.11398295145902,76.0019984397912L110.11820529327046,76.42648294129796L111.9905793120991,78.09318931008386L112.00793782843503,77.32670896208256L112.02107400295952,76.64571422640036L112.02529634477095,76.02168623545447L112.02951868658239,75.6836333714021L112.034210177484,75.63272073310507L112.03843251929543,75.77204162484946L112.04265486110687,76.0682080752752L113.90658419631265,78.16921578876313L113.91080653812409,80.11894207423602L113.91925122174696,81.01571597292744L113.92394271264855,81.41724547073737L113.92816505446,81.46950742511534L113.94552357079593,80.42580286459363L113.96288208713185,79.05615274565066L113.96710442894329,77.90660043860153L115.8352561059605,79.92892354688972L115.83947844777194,81.78444257368758L115.84370078958338,83.41492325041686L115.84839228048499,84.58832614509899L115.85261462229641,85.25589843474323L115.85683696410786,85.31769947680043L115.86997313863235,84.51918412035093L115.87419548044379,83.61794050508486L115.87841782225523,82.88882313621035L117.75970567379692,84.82272554246155L117.7681503574198,86.16068384173495L117.77284184832139,87.07108168407892L117.77706419013283,87.34888107652222L117.78128653194427,86.94171759912574L117.79020036465731,85.56876273398836L117.80286739009163,85.25945930653963L117.80755888099324,85.14091756900314L119.67993289982188,87.1085540446008L119.68415524163332,88.95403189967307L119.68837758344476,90.50957938431134L119.69259992525622,91.63685244003662L119.69729141615781,92.2454574553095L119.7057360997807,92.08536591651081L119.71887227430517,90.85033404130968L119.72309461611661,90.01652292813819L119.73200844882965,89.67915787405563L121.60438246765831,91.59885902465228L121.60860480946974,93.39056406084866L121.61282715128118,94.8646575145025L121.62174098399421,95.01865170973144L121.62596332580567,94.5474055646721L121.63018566761711,93.81036978368805L121.63440800942855,92.74921212173217L121.63909950033015,91.90255177639044L121.64332184214159,91.16928403198168L121.64754418395302,90.82095976620141L121.65176652576446,90.75878027772914L121.66490270028895,90.45811962816242L123.52883203549472,92.33207613814358L123.54619055183063,92.90065342986257L123.55041289364208,92.70153887812127L123.55885757726496,91.37413190784554L123.56777140997801,89.87785471939397L123.57621609360088,88.95742177974516L123.58090758450248,88.51444876929772L123.58512992631391,88.51205933289154L123.58935226812535,88.71217366468998L125.45328160333113,90.56007250614438L125.45750394514258,92.28086236161086L125.46594862876545,93.40086153870232L125.4748624614785,93.44993426188509L125.48330714510138,92.38012465371548L125.49644331962585,90.77384565594092L125.5006656614373,89.87300542787808L125.5053571523389,89.5405254910658L125.50957949415034,89.42849333010385L125.51380183596177,89.0970472840945L127.381953512979,90.77231891622041L127.39039819660188,91.87163341842134L127.39931202931491,92.34041989470863L127.40353437112634,92.52039497121716L127.41244820383939,92.42091684280417L127.42511522927371,92.51885153303046L127.43402906198675,92.49953545967355L127.43825140379819,92.40531690061702L129.30218073900397,94.18469424748835L129.3148477644383,95.48406099516356L129.32798393896277,95.94802185819482L129.3322062807742,95.83328215432725L129.34112011348725,95.47252092346474L129.3495647971101,95.21306975210393L129.35847862982317,94.97123943764163L129.36270097163458,94.67473821020623L131.2392973322747,96.14459559136846L131.24821116498774,97.23009666740934L131.25243350679918,98.12500136776637L131.25665584861062,98.80940958812671L131.2613473395122,99.19436059209315L131.2697920231351,99.26233179006219L131.27401436494654,99.45227353632737L131.27870585584816,99.5496645541624L131.28292819765957,99.56832111495787L133.1595245582997,100.92908591889345L133.1684383910127,101.47607637474766L133.17266073282417,101.73916481063316L133.17688307463558,101.44979131563615L133.18110541644702,101.09221100553125L133.18579690734862,100.6732767858582L133.20315542368456,100.99129716083966L133.20737776549598,101.41343795164134L133.21160010730745,102.05458892724073L135.07552944251321,103.73259445570157L135.0881964679475,104.84781390902552L135.09288795884913,105.5268880994497L135.09711030066057,105.59869874182907L135.10133264247202,105.04066339716843L135.10555498428343,103.62296219436193L135.1144688169965,101.60348506136849L135.1186911588079,99.45169461939226L135.12291350061938,97.49848366863469L135.12760499152097,95.91453415733223L135.13604967514385,95.41936514506914L137.0084236939725,96.66706359877656L137.01733752668554,97.0275947643194L137.02155986849698,96.86600980029274L137.03000455211986,96.58094466920353L137.03469604302148,96.45978291534033L137.0389183848329,96.60733612713514L137.04736306845578,96.51719678252725L137.05205455935737,96.41739124206691L137.06049924298028,95.7778583969542L138.92442857818602,97.41956336107633L138.9460094363334,97.63618633664986L138.9544541199563,97.1845881978371L138.9591456108579,96.73174618689264L138.9633679526693,96.05518905431057L138.96759029448074,95.52411700957082L138.9718126362922,95.14114060824939L138.9765041271938,95.0246128381079L138.98072646900522,94.9412540116491L140.84887814602246,96.56269343590968L140.8531004878339,98.11141609941761L140.85732282964534,99.44949176641705L140.87045900416982,99.25491456849142L140.87468134598123,98.73806169782732L140.8789036877927,97.68322149376141L140.8835951786943,96.4375483647122L140.89203986231718,95.06192148300087L142.7775500556703,96.5505697475595L142.78177239748175,97.70991764160082L142.78599473929316,98.32156877870132L142.79490857200622,97.61991562112271L142.81226708834214,95.98722980791345L142.82540326286662,94.70437034050902L144.69777728169527,96.29312493268988L144.71044430712962,97.05863468442364L144.7151357980312,97.16465318772839L144.72358048165407,96.48603529383159L144.72780282346554,95.29577779767797L144.73249431436713,94.25975515062981L144.73671665617854,93.29861717802824L144.74516133980143,92.63635762975727L144.74985283070302,91.91455017408572L144.7540751725145,91.26754608268438L144.75829751432593,90.89655324312442L146.62222684953167,92.4696114793244L146.62644919134314,93.96420361148964L146.63067153315455,95.2847058660498L146.63489387496602,96.28731712869642L146.63958536586762,96.97972018158023L146.6480300494905,96.62143789048761L146.65225239130194,95.83193131138937L146.66116622401498,94.70719006363981L146.66961090763786,93.85163912859952L146.67430239853945,93.23257970343306L146.68274708216234,93.1684773204059L148.55089875917955,94.66633370323916L148.555121100991,96.05961530903424L148.55934344280243,97.29225807620399L148.56403493370402,98.41023866639547L148.57670195913835,98.71715314025288L148.58139345003994,98.77686908148321L148.5856157918514,98.40031117572477L148.58983813366282,97.87578444245337L148.59875196637586,97.46401062772482L148.60297430818733,97.00631248116146L150.49692918516334,97.47122338236268L150.51006535968781,97.81464666778606L150.51428770149926,98.03041522596392L150.5232015342123,98.13016358895048L150.52742387602373,98.12269968059546L150.53164621783515,97.89783371341017L152.39557555304094,99.39738356852017L152.40824257847527,100.56582843509753L152.41293406937686,101.64019775821151L152.42137875299974,102.48768050798255L152.42560109481119,103.20128793517684L152.43029258571278,103.64581540212612L152.43451492752422,103.89122548949852L152.44765110204872,103.58493640801747L154.34160597902473,103.70662422319138L154.34582832083615,103.37469994343482L154.3500506626476,102.6545261506018L154.35896449536065,101.90824800334822L154.36740917898354,101.58438655086479L154.37210066988513,101.64973960195317L154.37632301169654,102.08212524648734L156.24447468871378,103.54303125645946L156.2486970305252,104.94852958140658L156.25291937233666,106.21311503276925L156.25714171414808,107.24597751487323L156.26183320504967,108.01702776644069L156.274500230484,108.07384790160786L156.27919172138562,107.9870029952031L156.28341406319706,107.64061710370989L156.30499492134442,107.14377947877809L158.1731465983616,108.54833118016978L158.17736894017307,109.87103687280528L158.1862827728861,110.87554731728228L158.19050511469754,111.71729984252458L158.1989497983204,112.3171132709436L158.22522214736938,112.26428659679843L158.22944448918082,112.15131585238872L160.09759616619803,113.49191431448531L160.10181850800947,114.63617215473623L160.10604084982091,115.3025123964039L160.12339936615686,114.05232265932254L160.12809085705845,112.61962313248824L160.13231319886987,110.9123508955589L160.1365355406813,109.12792376372145L160.14075788249275,107.66387974055559L160.14967171520578,106.74244731275891L162.017823392223,108.14816230757395L162.02204573403446,109.459854572172L162.0262680758459,110.47014734086683L162.03049041765732,111.14659003788228L162.0351819085589,111.37760198266419L162.03940425037038,111.25510161930328L162.0436265921818,111.0649870660799L162.06098510851774,110.50402333412376L162.06989894123078,110.10130253097391L162.0741212830422,109.90821594921697L163.95963147639537,110.33541099431976L163.96807616001823,110.01577747833339L163.97698999273126,109.23849835384812L163.9812123345427,108.50130974260553L163.98543467635415,107.85292706934507L163.99434850906718,107.57363598056178L165.86672252789583,108.95098250902737L165.8709448697073,110.25806692903832L165.88408104423178,110.65992208293594L165.89252572785463,110.20678166850823L165.9056619023791,109.05891192087722L165.91879807690358,107.81816193971389L165.92302041871505,106.77205623836797L167.79117209573224,108.13996337472913L167.7953944375437,109.44581216750113L167.79961677935512,110.51487486321383L167.8038391211666,111.27895060891976L167.80853061206818,111.58331729917964L167.81275295387962,111.67793028054025L167.81697529569107,111.41349461520197L167.8258891284041,110.60587132497837L167.8301114702155,109.6337242277953L167.83433381202698,108.91900420067076L167.84746998655146,108.72601098575349L167.8516923283629,108.70709069872112L169.7198440053801,109.95993774932923L169.75456103805197,108.93751525585594L169.7587833798634,108.02395569231187L169.76300572167483,107.2889463233697L169.76769721257642,106.81774998524654L169.77191955438786,106.6285521163029L171.6400712314051,107.96916949038132L171.64429357321652,109.236888299146L171.64851591502796,110.2586913640308L171.6527382568394,110.90121893509561L171.66165208955243,110.90583563839448L171.6658744313639,110.64851096309869L171.67009677317532,110.21386934071144L171.67901060588838,109.87496870346395L171.6832329476998,109.70681325954476L171.69214678041286,110.04843886300664L173.59454634101172,110.35045709460564L173.60768251553623,109.9452768900916L173.61190485734767,109.73299699994777L173.61659634824926,109.54214262136573L173.6208186900607,109.60339045358991L175.4889703670779,110.91602748464118L175.49319270888935,112.15955804413808L175.4974150507008,113.28057029116695L175.50632888341383,114.18053678569231L175.51899590884815,114.35648862083715L175.52368739974975,114.35542079146539L175.5279097415612,114.15543384643729L175.53213208337263,113.99049587573462L175.5363544251841,113.91965491609984L175.5410459160857,114.00243399050694L175.5452682578971,114.21991349604383L175.54949059970855,114.56014264916575L177.41764227672576,115.7932981574389L177.42608696034864,116.73163335795911L177.43077845125023,117.31439703431946L177.43922313487312,117.31300252164914L177.44813696758615,116.82887814903515L177.45658165120904,116.09670868746048L177.4608039930205,115.25254818319301L177.4654954839221,114.4011510989823L177.46971782573354,113.68742606570842L177.47394016754498,112.83925493319285L179.33786950275075,114.11529244723098L179.35522801908667,114.1775061249235L179.37680887723403,113.58410130480017L179.38103121904547,113.2101709818414L179.3899450517585,113.14073191876003L179.39416739356994,112.9782064029324L179.3983897353814,112.54948177289904L181.27076375421004,113.74290065296694L181.27498609602148,114.87277680376819L181.27967758692307,115.90211376575809L181.28812227054595,116.70408456457773L181.29703610325902,117.18619060334692L181.30125844507043,117.57190078356382L181.31439461959494,117.31262139115591L181.32283930321782,117.11972076183609L183.19099098023503,118.32039290899431L183.19521332204644,119.39863825210298L183.20412715475948,120.22007431151422L183.20834949657095,120.88410375786452L183.22148567109542,120.9212395742938L183.22570801290686,120.9151395519282L183.2299303547183,120.93385927458371L183.23884418743134,121.16565506524765L183.24306652924275,121.41243690351995L183.24728887105422,121.7866038176021L185.11544054807143,122.98530480628266L185.11966288988287,124.07212447381535L185.1238852316943,125.03029399065457L185.1285767225959,125.82652683717265L185.13279906440735,126.47086832772389L185.1370214062188,126.9065946378603L185.14593523893183,126.65642177222253L185.15860226436615,125.86644983652153L185.16329375526774,125.33108513955767L185.17173843889063,125.06766056565111L187.04833479953075,125.97819812179208L187.05302629043234,126.61749748285098L187.0614709740552,126.69782183482043L187.06569331586664,126.34451853897292L187.07882949039114,125.33481188023497L187.08774332310415,124.42070037000815L187.09618800672703,123.93304651666239L188.96433968374427,125.05750226843222L188.96856202555568,126.00457143749773L188.97278436736715,126.70589920647141L188.97747585826875,127.15962791182285L188.98592054189163,127.05953848553553L188.99905671641608,126.51173808921334L189.00327905822755,125.948641927832L189.01219289094058,125.6977043822532L189.01641523275202,125.5266762961744L189.02063757456347,125.51724258506732L190.88878925158068,126.62590851656549L190.9061477679166,126.60705864528059L190.91459245153948,126.23150838632588L190.91928394244107,125.55501851679122L190.92772862606395,124.94927426665119L190.9319509678754,124.54908825181323L190.936642458777,124.30094141038852L190.94086480058843,124.23987511462818L190.94508714239987,124.3536396307589L192.80901647760567,125.5344423470602L192.82637499394156,125.88391851544071L192.830597335753,125.89950354966155L192.83481967756447,125.68490543488738L192.83904201937588,125.16053119106633L192.84373351027747,124.58695788622578L192.85217819390036,124.2144929142836L192.86109202661342,124.29951266608983L192.86531436842486,124.60560203412616L192.86953671023628,124.95214475640256L194.73346604544207,126.12119151754914L194.73768838725348,127.24841459623377L194.74191072906493,128.25429602682408L194.7550469035894,128.63328618468776L194.7681830781139,128.04311805819265L194.7766277617368,127.1052038196087L194.78554159444982,126.48794718235703L194.78976393626127,125.93314922916163L194.79398627807268,125.49757122374334L196.65791561327848,126.65629231808707L196.66213795508992,127.77962954186538L196.67949647142584,128.25496767547958L196.69685498776175,128.1001623992509L196.70529967138464,128.14927452738223L196.70999116228626,128.3438886578869L196.71421350409767,128.6483461097892L198.58236518111488,129.79411203006387L198.58658752292632,130.85753225738077L198.5908098647378,131.71792251462955L198.60394603926227,131.45557327256205L198.61708221378672,130.77231759184423L198.6213045555982,130.29550906680072L198.6255268974096,130.1445802128058L198.63444073012266,130.37274506664687L198.63866307193408,130.78446148990147L198.64288541374555,131.22119825309255L200.51103709076273,132.32741256573075L200.5152594325742,133.36420330943537L200.52417326528723,134.15006085133984L200.52839560709867,134.75997923957578L200.53261794891012,135.22821324790345L200.53684029072153,135.4550350706548L200.54153178162315,135.5144427595308L200.5457541234346,135.47121252374666L200.55419880705747,135.43257087210173L200.55889029795907,135.34500513814402L202.43126431678772,136.4591013585806L202.45284517493508,136.73157976617335L202.470203691271,136.3268103767627L204.364158568247,137.23484271588882L204.36838091005845,138.00069351904443L204.37307240096004,138.59479704250165L204.3772947427715,139.0124616254056L204.38151708458292,139.30315555279176L204.3946532591074,139.29751763746208L204.39887560091887,139.20586219352404L204.4077894336319,139.16599593870947L204.41201177544332,139.16419500576927L206.28016345246056,140.26033462575612L206.284385794272,141.31129429297488L206.28860813608344,142.23929502029972L206.29283047789485,142.99749154171388L206.30174431060792,143.28030119894788L206.3101889942308,143.0106349878386L206.3148804851324,142.6275321546822L206.31910282694383,142.16696330562962L206.32754751056672,141.88140447461117L206.3322390014683,141.57040900999493L206.33646134327975,141.35215991160817L208.20461302029696,142.43462552388672L208.21305770391984,143.43385216224135L208.2393300529688,142.84132243364374L208.2477747365917,141.6208940069205L208.2651332529276,141.2178853836037L210.12906258813337,142.2962761968051L210.13328492994484,143.28622134761963L210.15064344628072,142.6424637488677L210.1722243044281,142.2614197495691L210.17644664623953,142.10458633388978L212.05351215596977,143.1771305765525L212.06617918140412,143.86151645765L212.07087067230572,144.2598942768018L212.08353769774004,143.62141907999728L212.08822918864163,142.66765613325015L212.09667387226452,141.6490870450212L212.10089621407596,140.75168363749913L212.10558770497755,140.21548741854974L212.109810046789,139.95509199382457L213.97796172380623,141.02393015715398L213.98218406561764,142.02572432344544L213.99532024014212,142.26578937106967L213.99954258195356,142.13924578046124L214.003764923765,141.65522095554013L214.00798726557645,140.7481137766941L214.01267875647804,139.80503618568645L214.03003727281396,138.9458019823241L215.90241129164264,140.00985468936597L215.90663363345405,141.03052877262382L215.9108559752655,141.9459149412662L215.91507831707693,142.66182902544895L215.92399214978997,142.79110523058299L215.92821449160144,142.73314068099896L215.93243683341285,142.50331666090923L215.93712832431444,142.203889655934L215.9413506661259,141.889112877723L215.94557300793736,141.57634358862794L215.94979534974877,141.252012018589L215.9544868406504,140.9290026583252L215.95870918246183,140.76758991267556L217.83108320129048,141.7741752759437L217.83952788491337,142.30775638669803L217.86157789215088,141.79515556267432L217.86580023396232,141.12511518828632L217.87002257577376,140.59312114581525L217.87893640848682,139.80034025664236L219.7555327691269,140.81161148312216L219.76866894365136,141.2086039591793L219.77711362727425,141.16246336501362L219.79447214361016,141.0695494051032L219.79869448542163,141.336124397905L219.80338597632323,141.69805879160782L219.80760831813464,142.2776947354618L221.6799823369633,143.2557664176544L221.68842702058618,143.9710962767167L221.69311851148777,144.47169829217643L221.69734085329924,144.77590024067268L221.70156319511068,144.90557016881493L221.7057855369221,144.92522815716003L221.71469936963516,144.86800874729278L221.71892171144657,144.83802348836036L221.73205788597107,144.8606460625976L221.73628022778252,144.83638925068254L223.6044319047997,145.8431928561152L223.60865424661117,146.76780203659317L223.6128765884226,147.51911067373425L223.63492659566015,147.111193166128L223.63914893747156,146.46897427225156L223.643371279283,145.62684840815962L225.537326156259,146.34273968995012L225.5420176471606,146.85196230426914L225.54623998897208,147.19724525288603L225.55468467259496,147.12820845075404L225.55937616349655,146.82888849474546L225.56359850530797,146.47792676968817L225.56782084711944,146.1134406482919L225.57204318893085,145.63378147978966L225.57673467983247,145.2283617565758L225.58095702164388,145.02453648740584L227.4491086986611,146.03856400932506L227.457553382284,146.93938136459096L227.46177572409542,147.66342267115786L227.46646721499704,148.15071690569428L227.4749118986199,148.0229144403555L227.47913424043136,147.7345290641981L227.4880480731444,147.02937798076834L227.49649275676728,146.681517145597L227.50118424766887,146.32100194142282L227.50962893129176,146.2106645125627L229.37355826649753,147.2156872078449L229.39091678283347,147.95200474270936L229.39513912464488,148.51304741531305L229.39936146645633,148.8090315897036L229.40358380826777,148.772206120019L229.40827529916936,148.41717648676462L229.4124976409808,147.91398954433237L229.41671998279224,147.3428775619214L229.42563381550528,147.02208347587435L229.42985615731675,146.9510193929521L229.43407849912816,147.0459720452293L231.29800783433393,148.04209643132816L231.31536635066988,148.598003208227L231.32381103429273,148.74912960400556L231.32803337610417,148.7893061920682L231.3327248670058,148.66329550564762L231.34116955062868,148.39967318916422L231.35008338334168,148.14208630307564L231.35852806696457,147.72143828979426L233.2266797439818,148.68956455496033L233.23090208579322,149.58994105349532L233.2351244276047,150.31917544763576L233.24403826031772,150.43374216793595L233.24826060212916,150.21492363112128L233.2524829439406,149.50822489595066L233.2571744348422,148.57052193855174L233.2613967766536,147.4565827817837L233.26561911846508,146.30692513025022L233.2698414602765,145.33042711880253L233.27453295117812,144.5204133482285L233.27875529298956,143.88370194245283L235.1511293118182,144.81501238091025L235.15535165362965,145.5809659647978L235.16426548634269,145.74081808120332L235.16848782815413,145.5478945994897L235.1816240026786,144.8837327999305L235.18584634449007,144.27352484392918L235.1900686863015,143.7223350878951L235.19429102811293,143.3957542306821L235.19898251901452,143.26948036876715L235.2074272026374,143.33545526152565L237.0840235632775,144.0189803031451L237.09293739599053,144.37763866915734L237.097159737802,144.5681843625035L237.10138207961342,144.72894112803993L237.1145182541379,144.70493657715303L237.11874059594933,144.92920129412582L237.1276544286624,145.22612534750098L237.1318767704738,145.46677100878077L238.9958061056796,146.44103112629233L239.0042507893025,147.29560442609258L239.00847313111393,147.960504334959L239.01316462201552,148.30117151885332L239.01738696382694,148.36891036866487L239.02583164744982,147.9258253834368L239.03474548016288,147.40153474677675L239.04319016378577,147.1316840839261L239.04788165468736,147.1996234265836L239.05632633831024,147.38912458401586L240.920255673516,148.35416149033767L240.92447801532745,149.23978788040023L240.9287003571389,149.93263083918367L240.93761418985193,150.0323583013337L240.95028121528625,149.49863994501348L240.95497270618785,148.82407962582047L240.9591950479993,148.2593418231592L240.96341738981073,147.86367390012745L240.9676397316222,147.5942125361612L240.9765535643352,147.3759579703257L240.98077590614668,147.16206082715286L242.84470524135244,148.12092783488L242.84892758316386,149.03704868402667L242.85314992497533,149.82676382257316L242.85737226678674,150.4599525512223L242.86206375768833,150.8610881840776L242.8662860994998,150.99095313517304L242.87473078312266,150.65745238057272L242.87942227402428,150.18958795796743L242.88364461583572,149.45185631761493L242.90100313217164,149.38722793836183L244.77337715100026,150.2689129826895L244.77759949281173,150.97158119969282L244.78182183462314,151.40151932398462L244.79495800914765,150.9327635011486L244.7991803509591,150.14158507370053L244.80387184186068,149.39412337390308L244.80809418367213,148.65395556055302L244.81231652548357,148.04159938143786L244.8212303581966,147.98741862081732L244.82545270000804,148.11602292356497L244.82967504181948,148.39323260498105L246.70204906064814,149.09718088568042L246.70627140245958,149.57496046437072L246.7151852351726,149.2034035567128L246.71940757698405,148.72474504556473L246.72362991879552,148.19318284350584L246.73676609332,147.6733872531978L246.745679926033,147.28802233809157L246.74990226784445,147.01440373936464L246.75412460965592,146.61141380212996L248.61805394486166,147.5541088239687L248.62227628667313,148.42983746117534L248.62649862848454,149.1235465014535" fill="none"></path></g></g></g></g><g opacity="0.2"><g><g><g><path style="fill: none;" stroke="rgb(255, 112, 67)" stroke-width="2px" d="M29.25238406965776,381.0448537919876L29.26552024418224,37.60488582689638L29.26974258599368,75.30138560829822L29.27396492780512,142.16079020984515L29.27818726961656,263.897731659623L31.176833637494173,274.5218642435844L31.18105597930561,162.48093337758462L31.185278321117057,89.23876377946758L31.189969812018656,9.27391167164646L31.202636837452975,51.21775644740973L31.207328328354574,46.587926509930554L31.211550670166016,-58.35295052308308L31.215773011977454,87.5452572752242L33.083924688994664,723.9906642537563L33.14022257981387,-53.15834200563975L35.02151043135556,104.94600723756237L35.05622746402741,-5.76932134048289L36.9633185155279,-349.77379147365525L36.97598554096222,65.90324337995088L36.98489937367526,178.16402534740124L38.87040956702839,271.5157122584027L38.87463190883984,37.87950103266874L38.87885425065127,-297.4638791582076L40.78594530215177,562.2371793177266L40.79485913486481,23.50843261705367L40.80330381848769,-541.368411771496L42.71461721179962,422.77354646831145L42.71930870270123,161.00496302527165L42.72353104451266,-91.37180111124468L46.56351634747245,433.0274944379491L46.57243018018549,49.96664716192694L46.576652521996934,-134.73529731815728L46.59401103833285,-196.19900375736972L46.598233380144286,7.882868870388904L48.48796591530886,464.134801373399L50.41241548314528,377.8248626638108L50.41710697404688,31.799614356908933L50.42132931585832,-276.162681114688L50.451824006718724,-35.664372135755855L50.45604634853016,125.08302753280643L52.324198025547375,741.9874986012776L52.34155654188329,327.26664155398055L52.345778883694734,104.8254225535984L52.350001225506176,-96.94882546883503L56.19045567755612,312.0027282047515L56.194678019367565,124.20362312700397L56.198900361179,-37.90614160995341L58.14070844535134,-361.08166340173204L58.14962227806438,14.314489667281379L58.15806696168726,285.51117147648995L60.039354813228954,294.31533911972997L60.04779949685183,14.328448467373477L60.05202183866328,-181.0404378870536L60.0740718459008,-10.34898252119541L60.07829418771224,83.16157211956714L60.08251652952368,50.48098057324141L61.95066820654089,678.48723259739L61.954890548352324,473.5999907591194L61.95911289016377,146.21837844651887L61.97647140649969,-804.0195438055074L65.83428437488556,-249.70232437772142L65.84272905850844,120.77300614397205L65.84742054941003,195.17033555268137L67.76717862634486,-87.53181812947213L67.77609245905789,103.58122356519092L67.78031480086933,294.1037803747697L69.66582499422246,359.6343694002221L69.67426967784534,116.74464846392686L69.67896116874695,40.473764760677284L69.68740585236984,-155.3187228044656L73.52786030441978,-742.6031729012609L73.5452188207557,8.557313864938038L73.54944116256715,164.44442518855993L75.41759283958434,741.9874986012776L79.2838504915931,272.8405889651643L79.28807283340454,73.60829372187936L79.29229517521598,-42.44980014290363L79.3096536915519,-110.70750335763717L79.32278986607638,108.07049806015854L81.19516388490504,735.1184991888755L86.96851258841427,702.6994796625925L86.9990072792747,134.38843357440328L87.011674304709,332.5992141525322L88.90609833077517,231.9616209687045L88.91032067258662,87.72817283880734L88.91454301439806,-99.7633894676041L88.92767918892254,-209.17025329444152L88.9492600470699,174.9417538211896L90.81318938227567,741.9874986012776L90.85212875675896,226.88269082430168L90.8563510985704,78.49988571257084L90.86057344038183,78.93316133919205L90.86526493128343,56.068301273473935L90.86948727309486,103.24185887582303L90.8737096149063,150.18240126079306L92.73763895011209,741.9874986012776L94.67944703428442,306.89536218788385L94.68366937609585,102.50328632441513L94.69680555062034,-197.1899403579675L96.59920511121923,291.3706196755477L96.60389660212084,19.999660174100143L96.61656362755515,-546.2926894673535L96.63392214389107,-133.0780007705884L96.63861363479268,20.445028820603113L96.64283597660412,123.58376947934968L96.64705831841556,184.7997072169273L98.56306320262908,-81.6724390333851L98.56728554444052,33.728831094390756L100.43543722145775,741.9874986012776L100.44810424689206,302.11523328901694L100.45279573779366,107.67598920012975L100.46124042141655,-164.6584039195559L100.48282127956391,-58.566478702709816L100.4875127704655,105.39103036921158L102.35988678929417,741.9874986012776L102.37724530563007,145.04590834175298L102.38146764744151,-116.16553239959086L104.3190533898024,-485.2758719400007L104.33172041523675,78.97752544641547L104.33641190613834,220.46527068789894L106.22145295040131,385.9351673777202L106.2261444413029,129.43927880907455L106.23036678311435,-73.31795897232007L108.13745783461484,701.2813830482851L108.15059400913933,134.52767606047053L108.15903869276221,-349.2846806466656L108.16795252547524,-435.31801744007237L108.18061955090957,26.722204477862675L108.18531104181116,210.63039768439273L110.10506911874597,-102.7008185483719L110.11398295145902,139.0102475672751L110.11820529327046,207.92076654671212L112.02951868658239,-30.19901817890235L112.034210177484,59.65129030701617L112.03843251929543,119.60019052435243L112.04265486110687,169.44018990766153L113.90658419631265,741.9874986012776L113.92394271264855,209.10339478817866L113.92816505446,98.12436927374003L113.94552357079593,-252.89246302253287L115.85261462229641,301.6187284441568L115.85683696410786,105.3893718979135L115.86997313863235,-175.36010458818754L117.80286739009163,-17.271787234200076L117.80755888099324,45.76629218767755L119.67993289982188,741.9874986012776L119.69729141615781,296.4238435148304L119.7057360997807,38.27069295010139L119.71887227430517,-325.12351795259224L121.61282715128118,596.2282568771545L121.62174098399421,147.49609237574154L121.62596332580567,-66.351895799624L121.64754418395302,-29.251616449878924L121.65176652576446,69.28389891512836L121.66490270028895,-13.577335108833296L123.54619055183063,290.38355284131205L123.55041289364208,23.41369244415131L123.55885757726496,-371.40087912724584L123.58090758450248,-66.78302923415188L123.58512992631391,87.6728213592342L123.58935226812535,159.12764261882532L125.45328160333113,741.9874986012776L125.46594862876545,489.6740673374564L125.4748624614785,110.84429130618332L125.48330714510138,-287.514986252959L125.5053571523389,-29.166481589911257L125.50957949415034,49.35715895988562L125.51380183596177,-29.66616517142606L127.39931202931491,261.2153616439044L127.40353437112634,157.4693095266952L127.41244820383939,56.458042028520765L127.42511522927371,127.98618154008079L127.43402906198675,85.49186249929927L127.43825140379819,58.16384886155818L129.30218073900397,741.9874986012776L129.32798393896277,265.44719302133177L129.3322062807742,53.842632791461824L129.34112011348725,-36.78162896689008L129.3495647971101,-0.065147516707043L129.35847862982317,6.011145804573573L129.36270097163458,-14.583819877850516L131.2613473395122,242.25716892673546L131.2697920231351,124.56572269374959L131.27401436494654,170.28024017162016L131.27870585584816,135.9270803211892L131.28292819765957,106.54857423229481L133.1595245582997,610.9022899922934L135.09288795884913,364.66285437597526L135.09711030066057,133.04610836752656L135.10133264247202,-108.59537105657222L137.01733752668554,236.82287675523543L137.02155986849698,34.11297450880659L137.03000455211986,-14.300843212617053L137.03469604302148,49.257581579030585L137.0389183848329,154.18104466341447L137.04736306845578,61.2908964940722L137.05205455935737,57.35285639680116L137.06049924298028,-154.92801460782823L138.9718126362922,-56.613352337347465L138.9765041271938,48.78021825706898L138.98072646900522,61.80985980442712L140.84887814602246,741.9874986012776L140.85732282964534,633.6868696817392L140.87045900416982,21.451720898532585L140.87468134598123,-108.23921434531132L144.71044430712962,408.6272354650704L144.7151357980312,140.37779535847665L144.72358048165407,-180.51995431134208L146.67430239853945,-165.63033720319663L146.68274708216234,66.32649907581292L148.55089875917955,722.7419411802324L148.57670195913835,228.1219835017857L148.58139345003994,123.98947302064046L148.5856157918514,-60.80299635113016L150.51428770149926,189.99839280964505L150.5232015342123,140.70347765963547L150.52742387602373,94.93277946654271L150.53164621783515,1.6662274155089563L152.39557555304094,741.9874986012776L152.44765110204872,-28.886130837566384L154.34160597902473,156.40595301274828L154.34582832083615,-40.559557480926514L154.36740917898354,-39.40229002972626L154.37210066988513,130.1367350928844L154.37632301169654,290.7998636886134L156.26183320504967,446.7117138757649L156.274500230484,133.0646970666591L156.27919172138562,69.7419825082499L156.28341406319706,-45.09533827521085L158.1989497983204,378.8031879722462L158.22522214736938,88.76506291495588L158.22944448918082,61.83522059469347L160.09759616619803,711.3238888842257L162.0351819085589,216.04699949538002L162.03940425037038,55.68443427094111L162.0436265921818,24.718356531967657L162.06098510851774,-144.58129589995468L162.06989894123078,-73.24588457382472L162.0741212830422,21.8964676182988L163.95963147639537,305.28934004461377L167.80853061206818,253.26893462513573L167.81275295387962,155.77165684420666L167.81697529569107,-11.965853830873755L167.83433381202698,-225.69270449850933L167.84746998655146,18.269598198328424L167.8516923283629,99.8290704592454L169.7198440053801,698.5006492726353L169.76769721257642,-115.52867942113136L169.77191955438786,17.250813100517178L171.6400712314051,741.9874986012776L171.6527382568394,415.7848866241791L171.66165208955243,113.09891393294093L171.6658744313639,-11.72357881541376L171.67901060588838,-51.645608872886186L171.6832329476998,29.475819656427603L171.69214678041286,273.2244905191825L173.60768251553623,-84.00963971019252L173.61190485734767,8.006701393978261L173.61659634824926,17.983926517235602L173.6208186900607,139.01750337920416L175.4889703670779,741.9874986012776L175.51899590884815,199.31236761961523L175.52368739974975,113.8392831615884L175.5279097415612,17.3881898063741L175.53213208337263,34.09735723741642L175.5363544251841,79.56904687606101L175.5410459160857,154.1843616060106L175.5452682578971,219.89869543069523L177.43077845125023,401.68819155393874L177.43922313487312,116.63180331268723L177.44813696758615,-119.90600710347911L179.33786950275075,741.9874986012776L179.35522801908667,144.8211854808643L179.37680887723403,-179.00114011716227L179.38103121904547,-71.34976815933359L179.3899450517585,78.83275472268795L179.39416739356994,32.596648021573856L179.3983897353814,-99.70458283949324L181.31439461959494,-11.963918947692633L181.32283930321782,20.8430619321403L183.19099098023503,718.1757961087056L183.20834949657095,453.626848159016L183.22148567109542,139.5483524005286L183.22570801290686,117.8523690850972L183.2299303547183,130.34217822493304L183.23884418743134,237.77863994371995L187.05302629043234,452.6492138802882L187.0614709740552,167.70114454569193L187.06569331586664,-54.179476604456625L188.97747585826875,360.5424515388871L188.98592054189163,75.52838886722178L188.99905671641608,-155.78910672638114L189.01219289094058,-3.8618720387882775L189.01641523275202,37.141965025822145L189.02063757456347,120.63749521832545L190.88878925158068,700.636280902692L190.9061477679166,116.83849029820941L190.91459245153948,-68.57044667564858L190.936642458777,-4.891506303007731L190.94086480058843,92.41777684598786L190.94508714239987,183.69153742644707L192.82637499394156,308.4990693816337L192.830597335753,134.05072735633343L192.83481967756447,13.344491266821763L192.83904201937588,-149.59457822214216L192.85217819390036,-71.29877016691788L192.86109202661342,168.96814751444788L192.86531436842486,285.567248537256L196.67949647142584,381.1248059291488L196.69685498776175,45.67473075142988L196.70529967138464,154.32173831186753L196.70999116228626,232.14688603329324L198.6213045555982,-125.57334904384362L198.6255268974096,49.082129136288756L198.63444073012266,253.02330811559426L200.53684029072153,258.21805483897907L200.54153178162315,167.69492527832415L200.5457541234346,112.0341062566082L200.55419880705747,114.46549428255193L200.55889029795907,87.79160936595858L202.43126431678772,741.9874986012776L204.38151708458292,298.2238376970041L204.3946532591074,136.21275200228206L204.39887560091887,89.01549208096469L204.4077894336319,117.31730478255685L204.41201177544332,138.17638201919885L206.28016345246056,741.9874986012776L206.3322390014683,-30.405566958483007L206.33646134327975,20.566235431303852L208.20461302029696,741.9874986012776L210.1722243044281,-70.14226284839594L210.17644664623953,54.61237078267931L212.05351215596977,741.9874986012776L213.99532024014212,277.454041498575L213.99954258195356,70.82337489756334L214.003764923765,-131.33626039275947L215.92399214978997,216.15158684161466L215.92821449160144,109.81493345384686L215.93243683341285,11.886625892846041L215.93712832431444,-28.09946261851445L215.9544868406504,-43.34219590720764L215.95870918246183,48.615269465881596L217.83108320129048,716.8757921524794L219.76866894365136,369.2108318445976L219.77711362727425,114.64322712332861L219.79447214361016,87.62797353121552L219.79869448542163,294.7757722138571L221.70156319511068,219.92630206751105L221.7057855369221,156.30665204377627L221.71469936963516,111.71554156143694L221.71892171144657,127.4522228850725L221.73205788597107,157.9869598806058L221.73628022778252,130.75168242961522L223.6044319047997,730.8644458076815L225.54623998897208,348.9804879873516L225.55468467259496,106.75450108513871L225.55937616349655,-28.34166853100362L225.57673467983247,-92.70479741706976L225.58095702164388,25.319345068606367L227.4491086986611,741.9874986012776L227.46646721499704,435.1365862083009L227.4749118986199,72.702837496103L227.47913424043136,-22.342839639937097L227.50118424766887,-66.7376285823672L227.50962893129176,80.95801658819599L229.37355826649753,741.9874986012776L229.39936146645633,324.3334968573994L229.40358380826777,126.91902436274248L229.40827529916936,-62.410538759756804L229.42563381550528,-43.86502898392473L229.42985615731675,104.63594220779372L229.43407849912816,203.62380561935004L231.32381103429273,238.98085887739498L231.32803337610417,172.79334246047932L231.3327248670058,73.32593898338267L231.34116955062868,-9.316584138145828L233.24403826031772,219.24988763829543L233.24826060212916,18.691264525863147L233.2524829439406,-275.54324208485826L235.16426548634269,242.4552180409135L235.16848782815413,28.74851088925243L235.1816240026786,-257.4732989537482L235.19429102811293,-54.83560931175623L235.19898251901452,66.5729893724888L235.2074272026374,183.4332650732578L237.10138207961342,242.68387977113514L237.1145182541379,130.06873776966347L237.11874059594933,281.7565306635973L240.9676397316222,-18.98699207125992L240.9765535643352,12.367720775228321L240.98077590614668,14.767874258391714L242.84470524135244,741.9874986012776L242.88364461583572,-309.689162126001L242.90100313217164,109.14021204741474L244.77337715100026,699.6658203761153L244.81231652548357,-235.13707661429038L244.8212303581966,114.06386781653559L244.82545270000804,228.68544912530552" fill="none"></path></g></g></g></g></g><g><g opacity="0.252336"><span fill="rgb(0, 0, 0)" stroke="none" stroke-width="1px">Alt + Scroll to Zoom</span></g></g></g><g transform="translate(71, 178)" clip-path="url(#clip_1)"><clipPath id="clip_1"><rect width="258" height="21"></rect></clipPath><g><g><line x1="0" y1="0" x2="0" y2="5" style="visibility: inherit;" fill="rgb(0, 0, 0)" stroke="rgb(204, 204, 204)" stroke-width="1px"></line><line x1="23.457454508001156" y1="0" x2="23.457454508001156" y2="5" style="visibility: inherit;" fill="rgb(0, 0, 0)" stroke="rgb(204, 204, 204)" stroke-width="1px"></line><line x1="46.91490901600231" y1="0" x2="46.91490901600231" y2="5" style="visibility: inherit;" fill="rgb(0, 0, 0)" stroke="rgb(204, 204, 204)" stroke-width="1px"></line><line x1="70.37236352400346" y1="0" x2="70.37236352400346" y2="5" style="visibility: inherit;" fill="rgb(0, 0, 0)" stroke="rgb(204, 204, 204)" stroke-width="1px"></line><line x1="93.82981803200462" y1="0" x2="93.82981803200462" y2="5" style="visibility: inherit;" fill="rgb(0, 0, 0)" stroke="rgb(204, 204, 204)" stroke-width="1px"></line><line x1="117.28727254000577" y1="0" x2="117.28727254000577" y2="5" style="visibility: inherit;" fill="rgb(0, 0, 0)" stroke="rgb(204, 204, 204)" stroke-width="1px"></line><line x1="140.74472704800692" y1="0" x2="140.74472704800692" y2="5" style="visibility: inherit;" fill="rgb(0, 0, 0)" stroke="rgb(204, 204, 204)" stroke-width="1px"></line><line x1="164.20218155600807" y1="0" x2="164.20218155600807" y2="5" style="visibility: inherit;" fill="rgb(0, 0, 0)" stroke="rgb(204, 204, 204)" stroke-width="1px"></line><line x1="187.65963606400925" y1="0" x2="187.65963606400925" y2="5" style="visibility: inherit;" fill="rgb(0, 0, 0)" stroke="rgb(204, 204, 204)" stroke-width="1px"></line><line x1="211.1170905720104" y1="0" x2="211.1170905720104" y2="5" style="visibility: inherit;" fill="rgb(0, 0, 0)" stroke="rgb(204, 204, 204)" stroke-width="1px"></line><line x1="234.57454508001155" y1="0" x2="234.57454508001155" y2="5" style="visibility: inherit;" fill="rgb(0, 0, 0)" stroke="rgb(204, 204, 204)" stroke-width="1px"></line><line x1="258.0319995880127" y1="0" x2="258.0319995880127" y2="5" style="visibility: inherit;" fill="rgb(0, 0, 0)" stroke="rgb(204, 204, 204)" stroke-width="1px"></line></g><g transform="translate(0, 8)"><text style="text-anchor: middle; visibility: hidden; font-family: &quot;Helvetica Neue&quot;, sans-serif; font-size: 12px; font-weight: 200;" x="0" y="0" dx="0em" dy="0.95em" fill="rgb(50, 49, 63)" stroke="none" stroke-width="1px">-50k</text><text style="text-anchor: middle; visibility: hidden; font-family: &quot;Helvetica Neue&quot;, sans-serif; font-size: 12px; font-weight: 200;" x="23.457454508001156" y="0" dx="0em" dy="0.95em" fill="rgb(50, 49, 63)" stroke="none" stroke-width="1px">0</text><text style="text-anchor: middle; visibility: hidden; font-family: &quot;Helvetica Neue&quot;, sans-serif; font-size: 12px; font-weight: 200;" x="46.91490901600231" y="0" dx="0em" dy="0.95em" fill="rgb(50, 49, 63)" stroke="none" stroke-width="1px">50k</text><text style="text-anchor: middle; visibility: hidden; font-family: &quot;Helvetica Neue&quot;, sans-serif; font-size: 12px; font-weight: 200;" x="70.37236352400346" y="0" dx="0em" dy="0.95em" fill="rgb(50, 49, 63)" stroke="none" stroke-width="1px">100k</text><text style="text-anchor: middle; visibility: hidden; font-family: &quot;Helvetica Neue&quot;, sans-serif; font-size: 12px; font-weight: 200;" x="93.82981803200462" y="0" dx="0em" dy="0.95em" fill="rgb(50, 49, 63)" stroke="none" stroke-width="1px">150k</text><text style="text-anchor: middle; visibility: hidden; font-family: &quot;Helvetica Neue&quot;, sans-serif; font-size: 12px; font-weight: 200;" x="117.28727254000577" y="0" dx="0em" dy="0.95em" fill="rgb(50, 49, 63)" stroke="none" stroke-width="1px">200k</text><text style="text-anchor: middle; visibility: hidden; font-family: &quot;Helvetica Neue&quot;, sans-serif; font-size: 12px; font-weight: 200;" x="140.74472704800692" y="0" dx="0em" dy="0.95em" fill="rgb(50, 49, 63)" stroke="none" stroke-width="1px">250k</text><text style="text-anchor: middle; visibility: hidden; font-family: &quot;Helvetica Neue&quot;, sans-serif; font-size: 12px; font-weight: 200;" x="164.20218155600807" y="0" dx="0em" dy="0.95em" fill="rgb(50, 49, 63)" stroke="none" stroke-width="1px">300k</text><text style="text-anchor: middle; visibility: hidden; font-family: &quot;Helvetica Neue&quot;, sans-serif; font-size: 12px; font-weight: 200;" x="187.65963606400925" y="0" dx="0em" dy="0.95em" fill="rgb(50, 49, 63)" stroke="none" stroke-width="1px">350k</text><text style="text-anchor: middle; visibility: hidden; font-family: &quot;Helvetica Neue&quot;, sans-serif; font-size: 12px; font-weight: 200;" x="211.1170905720104" y="0" dx="0em" dy="0.95em" fill="rgb(50, 49, 63)" stroke="none" stroke-width="1px">400k</text><text style="text-anchor: middle; visibility: hidden; font-family: &quot;Helvetica Neue&quot;, sans-serif; font-size: 12px; font-weight: 200;" x="234.57454508001155" y="0" dx="0em" dy="0.95em" fill="rgb(50, 49, 63)" stroke="none" stroke-width="1px">450k</text><text style="text-anchor: middle; visibility: hidden; font-family: &quot;Helvetica Neue&quot;, sans-serif; font-size: 12px; font-weight: 200;" x="258.0319995880127" y="0" dx="0em" dy="0.95em" fill="rgb(50, 49, 63)" stroke="none" stroke-width="1px">500k</text></g><line x1="0" y1="0" x2="258.0319995880127" y2="0" fill="rgb(0, 0, 0)" stroke="rgb(204, 204, 204)" stroke-width="1px"></line></g></g></g></g></svg>