<svg viewBox="0 0 330 200" xmlns="http://www.w3.org/2000/svg"><g><g><g><g><g><line x1="61.640000343322754" y1="178.07699966430664" x2="56.640000343322754" y2="178.07699966430664" style="visibility: inherit;" fill="rgb(0, 0, 0)" stroke="rgb(204, 204, 204)" stroke-width="1px"></line><line x1="61.640000343322754" y1="160.26929969787597" x2="56.640000343322754" y2="160.26929969787597" style="visibility: inherit;" fill="rgb(0, 0, 0)" stroke="rgb(204, 204, 204)" stroke-width="1px"></line><line x1="61.640000343322754" y1="142.46159973144532" x2="56.640000343322754" y2="142.46159973144532" style="visibility: inherit;" fill="rgb(0, 0, 0)" stroke="rgb(204, 204, 204)" stroke-width="1px"></line><line x1="61.640000343322754" y1="124.65389976501464" x2="56.640000343322754" y2="124.65389976501464" style="visibility: inherit;" fill="rgb(0, 0, 0)" stroke="rgb(204, 204, 204)" stroke-width="1px"></line><line x1="61.640000343322754" y1="106.84619979858398" x2="56.640000343322754" y2="106.84619979858398" style="visibility: inherit;" fill="rgb(0, 0, 0)" stroke="rgb(204, 204, 204)" stroke-width="1px"></line><line x1="61.640000343322754" y1="89.0384998321533" x2="56.640000343322754" y2="89.0384998321533" style="visibility: inherit;" fill="rgb(0, 0, 0)" stroke="rgb(204, 204, 204)" stroke-width="1px"></line><line x1="61.640000343322754" y1="71.23079986572264" x2="56.640000343322754" y2="71.23079986572264" style="visibility: inherit;" fill="rgb(0, 0, 0)" stroke="rgb(204, 204, 204)" stroke-width="1px"></line><line x1="61.640000343322754" y1="53.423099899292" x2="56.640000343322754" y2="53.423099899292" style="visibility: inherit;" fill="rgb(0, 0, 0)" stroke="rgb(204, 204, 204)" stroke-width="1px"></line><line x1="61.640000343322754" y1="35.61539993286132" x2="56.640000343322754" y2="35.61539993286132" style="visibility: inherit;" fill="rgb(0, 0, 0)" stroke="rgb(204, 204, 204)" stroke-width="1px"></line><line x1="61.640000343322754" y1="17.807699966430647" x2="56.640000343322754" y2="17.807699966430647" style="visibility: inherit;" fill="rgb(0, 0, 0)" stroke="rgb(204, 204, 204)" stroke-width="1px"></line><line x1="61.640000343322754" y1="0" x2="56.640000343322754" y2="0" style="visibility: inherit;" fill="rgb(0, 0, 0)" stroke="rgb(204, 204, 204)" stroke-width="1px"></line></g><g transform="translate(51.640000343322754, 0)"><text style="text-anchor: end; visibility: hidden; font-family: &quot;Helvetica Neue&quot;, sans-serif; font-size: 12px; font-weight: 200;" x="0" y="178.07699966430664" dx="0em" dy="0.3em" fill="rgb(50, 49, 63)" stroke="none" stroke-width="1px">-0.02</text><text style="text-anchor: end; visibility: inherit; font-family: &quot;Helvetica Neue&quot;, sans-serif; font-size: 12px; font-weight: 200;" x="0" y="160.26929969787597" dx="0em" dy="0.3em" fill="rgb(50, 49, 63)" stroke="none" stroke-width="1px">0</text><text style="text-anchor: end; visibility: hidden; font-family: &quot;Helvetica Neue&quot;, sans-serif; font-size: 12px; font-weight: 200;" x="0" y="142.46159973144532" dx="0em" dy="0.3em" fill="rgb(50, 49, 63)" stroke="none" stroke-width="1px">0.02</text><text style="text-anchor: end; visibility: inherit; font-family: &quot;Helvetica Neue&quot;, sans-serif; font-size: 12px; font-weight: 200;" x="0" y="124.65389976501464" dx="0em" dy="0.3em" fill="rgb(50, 49, 63)" stroke="none" stroke-width="1px">0.04</text><text style="text-anchor: end; visibility: hidden; font-family: &quot;Helvetica Neue&quot;, sans-serif; font-size: 12px; font-weight: 200;" x="0" y="106.84619979858398" dx="0em" dy="0.3em" fill="rgb(50, 49, 63)" stroke="none" stroke-width="1px">0.06</text><text style="text-anchor: end; visibility: inherit; font-family: &quot;Helvetica Neue&quot;, sans-serif; font-size: 12px; font-weight: 200;" x="0" y="89.0384998321533" dx="0em" dy="0.3em" fill="rgb(50, 49, 63)" stroke="none" stroke-width="1px">0.08</text><text style="text-anchor: end; visibility: hidden; font-family: &quot;Helvetica Neue&quot;, sans-serif; font-size: 12px; font-weight: 200;" x="0" y="71.23079986572264" dx="0em" dy="0.3em" fill="rgb(50, 49, 63)" stroke="none" stroke-width="1px">0.1</text><text style="text-anchor: end; visibility: inherit; font-family: &quot;Helvetica Neue&quot;, sans-serif; font-size: 12px; font-weight: 200;" x="0" y="53.423099899292" dx="0em" dy="0.3em" fill="rgb(50, 49, 63)" stroke="none" stroke-width="1px">0.12</text><text style="text-anchor: end; visibility: hidden; font-family: &quot;Helvetica Neue&quot;, sans-serif; font-size: 12px; font-weight: 200;" x="0" y="35.61539993286132" dx="0em" dy="0.3em" fill="rgb(50, 49, 63)" stroke="none" stroke-width="1px">0.14</text><text style="text-anchor: end; visibility: inherit; font-family: &quot;Helvetica Neue&quot;, sans-serif; font-size: 12px; font-weight: 200;" x="0" y="17.807699966430647" dx="0em" dy="0.3em" fill="rgb(50, 49, 63)" stroke="none" stroke-width="1px">0.16</text><text style="text-anchor: end; visibility: hidden; font-family: &quot;Helvetica Neue&quot;, sans-serif; font-size: 12px; font-weight: 200;" x="0" y="0" dx="0em" dy="0.3em" fill="rgb(50, 49, 63)" stroke="none" stroke-width="1px">0.18</text></g><line x1="61.640000343322754" y1="0" x2="61.640000343322754" y2="178.07699966430664" fill="rgb(0, 0, 0)" stroke="rgb(204, 204, 204)" stroke-width="1px"></line></g></g><g transform="translate(61, 0)" clip-path="url(#clip_0)"><clipPath id="clip_0"><rect width="268" height="178"></rect></clipPath><g><g><g><line x1="0" y1="0" x2="0" y2="178.07699966430664" fill="rgb(0, 0, 0)" stroke="rgb(60, 60, 60)" stroke-width="1px" opacity="0.25"></line><line x1="24.396363605152477" y1="0" x2="24.396363605152477" y2="178.07699966430664" fill="rgb(0, 0, 0)" stroke="rgb(60, 60, 60)" stroke-width="1px" opacity="0.25"></line><line x1="48.79272721030495" y1="0" x2="48.79272721030495" y2="178.07699966430664" fill="rgb(0, 0, 0)" stroke="rgb(60, 60, 60)" stroke-width="1px" opacity="0.25"></line><line x1="73.18909081545742" y1="0" x2="73.18909081545742" y2="178.07699966430664" fill="rgb(0, 0, 0)" stroke="rgb(60, 60, 60)" stroke-width="1px" opacity="0.25"></line><line x1="97.5854544206099" y1="0" x2="97.5854544206099" y2="178.07699966430664" fill="rgb(0, 0, 0)" stroke="rgb(60, 60, 60)" stroke-width="1px" opacity="0.25"></line><line x1="121.98181802576238" y1="0" x2="121.98181802576238" y2="178.07699966430664" fill="rgb(0, 0, 0)" stroke="rgb(60, 60, 60)" stroke-width="1px" opacity="0.25"></line><line x1="146.37818163091484" y1="0" x2="146.37818163091484" y2="178.07699966430664" fill="rgb(0, 0, 0)" stroke="rgb(60, 60, 60)" stroke-width="1px" opacity="0.25"></line><line x1="170.77454523606733" y1="0" x2="170.77454523606733" y2="178.07699966430664" fill="rgb(0, 0, 0)" stroke="rgb(60, 60, 60)" stroke-width="1px" opacity="0.25"></line><line x1="195.1709088412198" y1="0" x2="195.1709088412198" y2="178.07699966430664" fill="rgb(0, 0, 0)" stroke="rgb(60, 60, 60)" stroke-width="1px" opacity="0.25"></line><line x1="219.5672724463723" y1="0" x2="219.5672724463723" y2="178.07699966430664" fill="rgb(0, 0, 0)" stroke="rgb(60, 60, 60)" stroke-width="1px" opacity="0.25"></line><line x1="243.96363605152476" y1="0" x2="243.96363605152476" y2="178.07699966430664" fill="rgb(0, 0, 0)" stroke="rgb(60, 60, 60)" stroke-width="1px" opacity="0.25"></line><line x1="268.35999965667725" y1="0" x2="268.35999965667725" y2="178.07699966430664" fill="rgb(0, 0, 0)" stroke="rgb(60, 60, 60)" stroke-width="1px" opacity="0.25"></line></g><g><line x1="0" y1="178.07699966430664" x2="268.35999965667725" y2="178.07699966430664" fill="rgb(0, 0, 0)" stroke="rgb(60, 60, 60)" stroke-width="1px" opacity="0.25"></line><line x1="0" y1="160.26929969787597" x2="268.35999965667725" y2="160.26929969787597" fill="rgb(0, 0, 0)" stroke="rgb(60, 60, 60)" stroke-width="1px" opacity="0.25"></line><line x1="0" y1="142.46159973144532" x2="268.35999965667725" y2="142.46159973144532" fill="rgb(0, 0, 0)" stroke="rgb(60, 60, 60)" stroke-width="1px" opacity="0.25"></line><line x1="0" y1="124.65389976501464" x2="268.35999965667725" y2="124.65389976501464" fill="rgb(0, 0, 0)" stroke="rgb(60, 60, 60)" stroke-width="1px" opacity="0.25"></line><line x1="0" y1="106.84619979858398" x2="268.35999965667725" y2="106.84619979858398" fill="rgb(0, 0, 0)" stroke="rgb(60, 60, 60)" stroke-width="1px" opacity="0.25"></line><line x1="0" y1="89.0384998321533" x2="268.35999965667725" y2="89.0384998321533" fill="rgb(0, 0, 0)" stroke="rgb(60, 60, 60)" stroke-width="1px" opacity="0.25"></line><line x1="0" y1="71.23079986572264" x2="268.35999965667725" y2="71.23079986572264" fill="rgb(0, 0, 0)" stroke="rgb(60, 60, 60)" stroke-width="1px" opacity="0.25"></line><line x1="0" y1="53.423099899292" x2="268.35999965667725" y2="53.423099899292" fill="rgb(0, 0, 0)" stroke="rgb(60, 60, 60)" stroke-width="1px" opacity="0.25"></line><line x1="0" y1="35.61539993286132" x2="268.35999965667725" y2="35.61539993286132" fill="rgb(0, 0, 0)" stroke="rgb(60, 60, 60)" stroke-width="1px" opacity="0.25"></line><line x1="0" y1="17.807699966430647" x2="268.35999965667725" y2="17.807699966430647" fill="rgb(0, 0, 0)" stroke="rgb(60, 60, 60)" stroke-width="1px" opacity="0.25"></line><line x1="0" y1="0" x2="268.35999965667725" y2="0" fill="rgb(0, 0, 0)" stroke="rgb(60, 60, 60)" stroke-width="1px" opacity="0.25"></line></g></g></g><g><g><line x1="0" y1="160.26929969787597" x2="268.35999965667725" y2="160.26929969787597" fill="rgb(0, 0, 0)" stroke="rgb(153, 153, 153)" stroke-width="1.5px"></line></g></g><g><g><line x1="24.396363605152477" y1="0" x2="24.396363605152477" y2="178.07699966430664" fill="rgb(0, 0, 0)" stroke="rgb(153, 153, 153)" stroke-width="1.5px"></line></g></g><g><g><g><g><g><path style="fill: none;" stroke="rgb(255, 112, 67)" stroke-width="2px" d="M24.454914877804843,-2.004038691000659L24.45930622325377,2.336455087233958L26.397841275319188,5.032342373954776L26.402232620768114,-1.203232622025638L28.417372254553708,-6.3893856763674535L28.426154945451565,0.5566692851128892L28.439816909070448,5.234108155134919L28.444208254519374,3.115551190666764L28.453478872689335,5.312921944098946L28.45787021813826,4.480182412930304L28.462261563587187,8.11853681219182L30.400796615652606,7.265023301300488L30.40957930655046,10.422140808147162L30.418849924720416,13.050724714056969L30.423241270169346,16.709671390271808L30.436903233788232,18.826079388024965L30.44129457923716,19.616234717336283L30.445685924686085,15.028023167008143L30.45007727013501,14.77738267066087L30.454956542856042,17.007554421280787L32.40227428581932,13.714165433911433L32.40666563126824,13.519916683616344L32.41544832216609,15.632553815149663L32.42471894033605,15.990785543689611L32.42911028578498,16.35933340929799L32.43350163123391,18.584438510517884L32.43838090395494,20.20979445392871L32.45155494030172,22.040223387404893L32.45643421302275,23.83659831998304L32.460825558471676,25.71102050801528L32.465216903920606,26.695840416883016L34.40814330143495,24.703497109440377L34.4169259923328,23.7653914723563L34.421805265053834,24.19637920732697L34.44424991957058,24.854842222227205L34.4486412650195,24.195964083462286L34.45303261046843,25.598849076795346L34.45791188318946,26.898967564603822L34.46230322863839,28.06910180218472L34.46669457408732,28.943932370881015L36.42328293522054,29.522062559661094L36.459389553356175,28.72739239788274L36.46817224425403,28.44508561973396L38.40670729631944,29.79419842312666L38.41109864176837,30.346779157383935L38.442813914455066,31.56466751838545L38.455987950801855,32.96443736004284L38.46525856897181,32.28705607254457L38.469649914420735,32.635882533604615L40.408184966486154,33.51402221025404L40.42623827555396,35.14862538368027L40.43062962100289,36.64555164933506L40.435020966451816,37.64009043710638L40.4486829300707,38.85379879738656L40.453074275519626,40.04268638013434L40.46673623913852,40.86635987733905L42.418445327550714,41.39750832575385L42.42771594572067,42.53050003060088L42.43649863661853,42.224528103431396L42.44088998206745,43.00618338218254L42.44576925478849,43.80254633735214L42.45016060023741,44.62085082789372L42.45455194568634,45.404082843120534L42.45894329113526,44.84112547209051L42.46821390930522,43.16446214736493L44.41114030681957,42.00828793465078L44.42431434316635,40.77262264798725L44.429193615887385,40.24267232656396L44.43358496133631,40.96463271152629L44.44236765223416,41.991281787087615L44.447246924955195,43.139574013333004L44.451638270404125,43.87571322344735L44.46042096130198,44.466744976854784L44.465300234023005,45.482592383059654L44.47408292492086,45.31570351944606L46.412617976986276,46.170875044809776L46.421400667884136,46.95544624464861L46.425792013333066,46.779255813726195L46.439453976951945,47.21550030690884L46.457507286019755,48.139850483879286L46.461898631468685,49.029510390593174L46.46677790418971,50.01443026383345L46.47116924963864,50.64043084989697L48.41409564715298,50.743473547008605L48.41848699260191,51.11733547939798L48.42726968349977,51.86626613236723L48.43654030166973,51.5757522439815L48.44093164711866,52.11942556223366L48.44532299256758,52.450546151085675L48.45020226528862,53.038688055551916L48.45898495618647,53.41598726845025L48.46337630163539,53.46515949537472L50.42874735366647,54.28261985364145L50.4468006627343,55.053553633171674L50.46485397180211,55.68576029693885L50.469733244523134,56.38721705107251L50.474124589972064,57.15219962368228L52.42583367838426,57.73333058600528L52.43022502383319,58.21327952683092L52.435104296554215,58.97223565896313L52.439495642003145,59.67969664289109L52.45315760562203,60.15450512482933L52.45754895107096,60.39938920056828L52.47121091468985,60.61230075202879L52.47560226013877,61.22731280731446L54.41852865765311,61.902754737332785L54.42292000310204,62.56165059050501L54.427311348550965,63.259091563061034L54.43658196672092,63.91871397681669L54.44097331216985,64.0913684485635L54.44536465761878,64.59427499931269L54.449756003067705,65.01201804220807L54.454635275788746,65.69972957673139L54.45902662123767,66.07751175343547L54.472688584856556,66.47283197970023L54.477079930305486,66.42206219570913L56.42000632781983,67.01227263513003L56.43805963688764,67.58388014182624L56.44245098233656,68.11625146402201L56.45123367323442,68.71145802303208L56.460504291404376,68.25978499804383L56.464895636853306,68.88394770458336L58.421483997986535,68.9435737147487L58.43465803433332,69.5252334829762L58.439537307054344,69.95877002141685L58.443928652503274,70.4875358444925L58.4483199979522,70.99951163732881L58.457590616122154,71.28588817368433L58.47564392518998,71.53121034760306L58.48442661608783,71.47486744493185L60.42735301360217,71.9783129149355L60.4317443590511,72.50194585858026L60.436135704500025,72.85736551869064L60.454189013567834,73.2752071431927L60.45906828628887,73.7519717185717L60.46785097718672,73.97743428007904L60.47712159535668,74.28850203935276L60.48590428625454,73.75652612834922L62.442492647387766,74.1197532099137L62.45127533828562,74.58365570070256L62.45566668373455,74.87768415261655L62.46932864735343,75.27329921684452L62.478599265523385,75.6588458752929L62.482990610972315,76.12173464625207L62.487381956421245,76.54782657358201L64.43030835393559,77.01877548006621L64.43469969938451,77.39512330790298L64.43909104483345,77.79472645314593L64.45714435390126,77.18714255993937L64.46202362662228,77.61826495157119L64.47080631752014,77.92575036597208L64.48446828113903,78.31843038220724L66.43617736955123,78.75717235891362L66.44056871500015,78.95981645938184L66.44544798772118,79.2368856864558L66.4498393331701,79.57725110784261L66.45862202406796,79.8435197220269L66.47228398768685,80.14799907491542L66.47667533313579,79.90320617591124L66.48155460585681,80.10109207643785L68.42887234882008,80.43714859455227L68.433263694269,80.75375148268735L68.44204638516686,81.09740773162449L68.46937031240462,81.34664456572189L68.47815300330248,81.60566048045946L68.48303227602352,81.90333269976152L68.48742362147244,82.21779066183295L68.49181496692138,82.4517231772049L70.4303500189868,82.77642910990157L70.43913270988465,83.0861846382496L70.44352405533357,83.40386411701276L70.46645663712242,83.72663001735245L70.47084798257134,83.99794818750388L70.47963067346919,83.96471717191385L70.48890129163915,84.25736404934753L70.49329263708809,84.54524433579334L72.43182768915351,84.8083718523456L72.44061038005135,85.0745369126964L72.44500172550028,85.31985320539586L72.4498809982213,85.56085521118735L72.45427234367024,85.85979921939678L72.4630550345681,86.01338292111683L72.46793430728913,85.82176081753546L72.47671699818699,86.07174634979775L72.4811083436359,86.39123819207558L72.49037896180586,86.63852657150872L74.43330535932022,86.87035731056812L74.44208805021808,87.07576264211602L74.44647939566698,87.26110876597775L74.45135866838802,87.27105966183423L74.46014135928587,87.59104522148456L74.46453270473481,87.87127465585881L74.4781946683537,87.65970892312757L74.48258601380262,87.84943843110827L74.48746528652364,88.07270646192866L74.49185663197258,87.87433154088744L76.43478302948691,87.54024588399545L76.43917437493585,87.70963844726649L76.44356572038478,87.93929592527941L76.44795706583369,87.8314292908155L76.47088964762254,88.08769824574755L76.48894295669035,88.33556627874643L76.49333430213929,88.57763518022827L78.43626069965362,88.64405072423902L78.44943473600041,88.64514810297635L78.48115000868711,88.49509310414349L78.48554135413603,88.6542372963555L80.43773836982032,88.92961590207032L80.44212971526926,89.17926311579704L80.44652106071818,89.35656814193432L80.45579167888815,89.58411818966638L80.464574369786,89.84949707542835L80.47384498795597,90.06908390211876L80.48262767885382,90.19196307583394L82.45726934905485,90.32896805303717L82.46166069450378,90.42682229297758L82.46605203995271,90.35442151764485L82.47044338540165,90.30539816825338L82.4797140035716,90.21851925546926L82.48410534902052,90.4417309461274L82.49776731263941,90.47052667219442L84.44508505560269,90.57319781012397L84.47192105556834,90.44846070882632L84.47680032828937,90.1435892689717L84.48119167373831,90.34612001066884L84.48558301918725,90.54936919015542L84.48997436463615,90.7095443463429L84.49924498280612,90.44046389068171L84.50363632825504,90.64631039860951L86.44217138032046,90.79616151363923L86.45095407121832,90.84518503486689L86.45534541666724,91.05530509008842L86.46022468938828,91.06553283211481L86.46900738028613,91.21677200145186L86.47827799845608,91.43153123027527L86.48266934390502,91.54820299161803L86.50072265297284,91.76940873122872L88.45243174138503,91.71932542225534L88.46609370500391,91.89937899478514L88.47048505045284,91.93675318972502L88.47975566862279,91.8596229537306L88.48414701407172,91.89252235634243L88.49292970496958,92.1218279961453L88.50220032313955,92.25689242655028L90.44951806610281,92.26934915275487L90.48123333878951,92.48908154547932L90.49440737513629,92.66944856538476L90.49928664785732,92.74434362659568L92.4466043908206,92.96467877670159L92.45099573626952,93.09274050124361L92.45538708171844,92.6966513458554L92.4646576998884,92.7923168789967L92.46904904533733,92.94117582967077L92.47344039078627,92.8426695247146L92.47783173623519,93.01758132341179L92.48710235440515,93.11391049618716L92.50954700892188,93.33734159286338L94.4480820609873,93.45518348022853L94.47491806095297,93.55907871386069L94.48418867912292,93.60768036463882L94.48858002457186,93.76198515002355L94.49297137002078,93.68618903052743L94.4973627154697,93.80331547757409L94.50224198819075,93.98182818542821L94.50663333363966,94.11622707032724L94.51102467908859,94.23242527759395L96.44955973115401,94.3611471772554L96.45395107660293,94.5214991430531L96.45834242205186,94.69775013220362L96.46761304022182,94.57778727050241L96.4807870765686,94.68001014521016L96.48566634928963,94.73861389324263L96.49005769473857,94.82522542262349L96.49884038563641,94.73638698424018L96.50371965835745,94.94565938377572L98.45103740132072,95.10729957585046L98.45982009221858,94.97911252841499L98.46909071038854,94.8973445870643L98.47348205583745,95.00256030228873L98.48714401945634,95.20517422799946L98.49153536490527,95.3877308303135L98.4959267103542,95.51186421625188L98.50519732852416,95.62978784930971L98.50958867397308,95.7557788384531L98.51398001942201,95.90540737863604L100.45690641693635,96.06842779714435L100.46568910783421,95.68067178288305L100.47056838055524,95.72358640857517L100.48374241690202,95.85361214141545L100.48862168962305,95.92074449256049L100.49301303507198,96.05072795374454L100.4974043805209,96.19910141890588L100.50179572596984,96.31847081598009L100.50667499869087,96.0712861535299L100.51106634413979,96.12487349219046L100.51545768958873,96.27230484717049L102.45838408710306,96.24536779246635L102.462775432552,96.38250395540062L102.4808287416198,96.49471216320502L102.48522008706873,96.61573343251573L102.49009935978977,96.74524359628816L102.49888205068761,96.73125980976761L102.50327339613655,96.88883156364791L102.50815266885758,97.01368124063133L102.5125440143065,97.17240426355754L104.45547041182085,97.3319505013418L104.4642531027187,97.47636062441423L104.46864444816762,97.6223848736734L104.47352372088865,97.75173876509197L104.48230641178651,97.91609683471356L104.49157702995647,98.06689191307852L104.50035972085432,98.2284476069528L104.50475106630326,98.39801938192089L104.50963033902428,98.5344959773157L106.45694808198756,98.67720290691577L106.47500139105536,98.7583669050212L106.4793927365043,98.65431578099957L106.48817542740215,98.69812726417219L106.49305470012318,98.78294252585626L106.50183739102104,98.93213615536754L106.51989070008885,99.04694235486983L108.45842575215427,99.11229538405726L108.46720844305213,99.04855127273402L108.47647906122208,99.16818646829505L108.49453237028989,99.3079197762042L108.50770640663667,99.26291361671998L108.5125856793577,99.36416870171071L108.52136837025554,99.20913069193992L110.45990342232098,99.04685519100018L110.4642947677699,99.1720112930614L110.46868611321884,99.26979145104056L110.47307745866776,99.17308338981523L110.47795673138879,99.27271276287155L110.48234807683772,99.35243753985455L110.48673942228663,99.49697543554136L110.49113076773557,99.58594620768825L110.50918407680338,99.67287414936607L110.5140633495244,99.6748902950503L110.52284604042227,99.56481747483647L112.46577243793661,99.44605479248474L112.4794344015555,99.42938829677618L112.48821709245335,99.31166374109286L112.49260843790228,99.39730867156774L112.49748771062332,99.51435603728143L112.51066174697009,99.4679950896437L112.51554101969111,99.58543924757596L112.51993236514005,99.63779056355729L112.52432371058897,99.75032966154144L114.46285876265439,99.90011713417093L114.47164145355225,100.00543070493501L114.47603279900117,100.1086955309404L114.4809120717222,100.15254600529289L114.48969476262006,100.22682232822602L114.49408610806898,100.29620666221263L114.49896538079003,100.30743206760059L114.50335672623895,100.44672204325202L114.50774807168787,100.53486133492456L114.5121394171368,100.66166139898847L114.52141003530676,100.77987925601076L114.52580138075568,100.91820825681107L116.47311912371894,101.04912489024876L116.49117243278677,101.17506932682464L116.50483439640566,101.24198177872424L116.50922574185458,101.29571521467179L116.5136170873035,101.43854998958844L116.51849636002454,101.54580449855398L116.52288770547347,101.5977292922229L116.52727905092239,101.74113155304805L118.4658141029878,101.77360816296816L118.47020544843674,101.8804910846731L118.47898813933459,101.90828500809816L118.48386741205562,101.83131882483954L118.48825875750454,101.82437599834279L118.50631206657236,101.87045451620263L118.52436537564017,102.00577893541731L118.5287567210891,102.0992384307219L120.47168311860345,102.13546385626846L120.47607446405237,102.14591423400502L120.4804658095013,102.25859241229342L120.48534508222234,102.35279144479085L120.48973642767125,102.3366544370805L120.49412777312018,102.36654645924853L120.50778973673907,102.44376049716446L120.51218108218801,102.54189869342206L120.51657242763693,102.6319143932835L122.47316078877016,102.70913769521427L122.48194347966802,102.80790556254888L122.48682275238905,102.47485336185571L122.49121409783797,102.42767307016935L122.49560544328689,102.50254422202893L122.50487606145684,102.6040343733908L122.51805009780364,102.65228444955109L122.52292937052466,102.78544126488958L124.47024711348793,102.87413922884706L124.47463845893687,102.9829565074195L124.47902980438579,103.08927438739327L124.48342114983473,103.20294131770268L124.48830042255575,103.32869261336309L124.49708311345361,103.32500171547213L124.51074507707249,103.37631564671474L124.51513642252141,103.47304516753677L124.52440704069137,103.56034537057654L126.47172478365465,103.65934055041352L126.47611612910357,103.74698892449024L126.4805074745525,103.79727975405068L126.48977809272246,103.91372563093664L126.49416943817138,104.01117045068513L126.49856078362032,104.1000959791007L126.50295212906924,104.17286861076323L126.50783140179027,104.23199304911351L126.5122227472392,104.30852770708222L126.51661409268812,104.41491132962912L126.52100543813705,104.46513704389224L126.53466740175594,104.53181337024787L128.47320245382136,104.61720985672714L128.49125576288915,104.67328217454082L128.4956471083381,104.7590402054039L128.50442979923596,104.78681738016648L128.51370041740591,104.85745951922844L128.52248310830376,104.91944741606382L128.5273623810248,104.99214405955101L128.5317537264737,105.09449840181345L128.53614507192265,105.1452449057696L130.47468012398807,105.22231633930231L130.479071469437,105.28994914229519L130.48785416033485,105.21757420746546L130.4971247785048,105.19936976561165L130.50590746940267,105.14043141885661L130.51956943302156,105.1778646540886L130.52396077847047,105.2743541714247L130.5288400511915,105.375988227624L130.53323139664045,105.34514163292737L130.53762274208935,105.0972211052744L132.4805491396037,105.18966891682679L132.48933183050156,105.28962798252367L132.49860244867153,105.34152568107444L132.50299379412044,105.39770238089953L132.5122644122904,105.4930892017706L132.52543844863717,105.4899017147662L132.53470906680715,105.4942911023393L132.53910041225606,105.55396847470024L134.47763546432148,105.61769659873306L134.49080950066826,105.68214026299962L134.50447146428715,105.62697115303283L134.5088628097361,105.65724276515131L134.51813342790604,105.74430226500269L134.52691611880388,105.76984004060004L134.53618673697386,105.80337725155691L134.54057808242277,105.89880321346807L136.49228717083497,105.74399264900447L136.50155778900492,105.7688032713697L136.50594913445386,105.73252459131257L136.5103404799028,105.81973082625663L136.5152197526238,105.87519354743074L136.52400244352168,105.84939872670921L136.52839378897062,105.8735953636663L136.53327306169163,105.89502833449183L136.53766440714057,105.9209611881626L138.48937349555277,105.88785286316423L138.49864411372272,105.52409220489315L138.50303545917166,105.53369406122444L138.50742680462056,105.59420799338432L138.51181815006947,105.3915830784574L138.51669742279051,105.30335509656427L138.53475073185834,105.31552270411773L138.53914207730728,105.27538097182045L138.5435334227562,105.28209372216756L140.4820684748216,105.33691929719507L140.49524251116839,105.26125077248076L140.50012178388943,105.23339840035148L140.50451312933836,105.28378264007611L140.50890447478727,105.3368307029576L140.51329582023618,105.37796709360505L140.52256643840616,105.39150342710225L140.5269577838551,105.48309304232248L140.53134912930403,105.53083153520183L140.53622840202505,105.63182937889451L140.54501109292292,105.65030329643434L142.49232883588618,105.69511348464398L142.50159945405613,105.76525251970682L142.50599079950507,105.85411169018695L142.51477349040292,105.90377520428638L142.51965276312396,105.87851885088064L142.52404410857287,105.78838395318583L142.53282679947074,105.77401284477438L142.53770607219175,105.83089295702737L142.54648876308963,105.87394903201127L144.48502381515502,105.9449864812762L144.50746846967178,106.01104830684682L144.51625116056962,106.0721724675866L144.52113043329066,106.14912604125215L144.52552177873957,106.22252232357812L144.52991312418848,106.26267908628195L144.53430446963745,106.33339731182414L144.53918374235846,106.36608565644782L144.5435750878074,106.41534489696454L146.48650148532172,106.51909147319537L146.4908928307707,106.57739970250671L146.4952841762196,106.63654356699024L146.50894613983849,106.61204370317341L146.5133374852874,106.64989788864635L146.51772883073633,106.68634097411336L146.52260810345737,106.71179067917932L146.53139079435522,106.77073004759063L148.4923705009374,106.83116368873044L148.4967618463863,106.89214261948958L148.50115319183521,106.94371892007538L148.5104238100052,107.02550625207064L148.528477119073,107.07327979959157L148.54213908269188,107.15754894817019L150.48945682565514,107.22421291608256L150.50263086200195,107.20186264966885L150.507510134723,107.28394278245754L150.5162928256208,107.29274097541804L150.52068417106975,107.31617913877592L150.5255634437908,107.33766707081895L150.5299547892397,107.37718374202657L150.53873748013757,107.40689608621382L150.54361675285858,107.2935655695418L150.54800809830752,107.33446223848996L150.55239944375646,107.25109696288253L152.49093449582185,107.19409992725502L152.49532584127078,107.26670127524781L152.49971718671972,107.15360742070116L152.50410853216866,107.23361251756612L152.5089878048897,107.20893871599097L152.51777049578754,107.219920381275L152.52216184123645,107.26612986056098L152.5314324594064,107.34036068008164L152.54021515030428,107.36173445698196L152.5450944230253,107.3538580818097L152.55387711392316,107.37735689283477L154.4968035114375,107.31681482594409L154.50119485688643,107.28407726936612L154.50558620233537,107.3244016651658L154.5104654750564,107.32243376477332L154.52363951140316,107.34248317083316L154.5285187841242,107.33744073003224L154.53291012957314,107.35368966137747L154.53730147502205,107.41189193669362L154.546572093192,107.46694050189028L154.55096343864093,107.54096509821764L156.52072583612096,107.59384733767615L156.53438779973985,107.59272077051291L156.53877914518876,107.59882347227202L156.54804976335873,107.67287272324097L156.55244110880764,107.71880073381087L156.55683245425658,107.81012494074828L158.495367506322,107.85430072929414L158.50854154266878,107.90660000734707L158.5134208153898,107.93563508802036L158.52220350628767,107.82962960130206L158.52659485173658,107.89201958339797L158.53147412445762,107.94525022465086L158.53586546990655,107.93442794642525L158.54952743352544,107.96110230428278L160.51928983100547,107.99428039500893L160.52368117645437,108.02650782125002L160.52807252190328,108.09280482663618L160.53734314007326,108.13020031236894L160.54612583097114,108.19882107400574L160.55100510369215,108.18476405403031L160.55539644914106,108.17875409368195L162.4983228466554,108.24436308333972L162.50271419210432,108.31191030934902L162.5071055375533,108.39150241365195L162.5114968830022,108.44746953414884L162.5163761557232,108.51884912879967L162.52955019207,108.52135826576684L162.53442946479106,108.58382648929118L162.53882081023997,108.64539620136975L162.56126546475673,108.6792794972256L164.50419186227103,108.66230041003716L164.50858320772,108.69390227679446L164.51785382588992,108.77376199783602L164.52224517133888,108.75786954913568L164.5310278622367,108.81978883982276L164.55835178947447,108.83839909812635L164.56274313492344,108.73941047774353L166.50566953243774,108.76468228162082L166.5100608778867,108.77629746232455L166.5144522233356,108.82247981952399L166.53250553240343,108.85799145635893L166.53738480512447,108.73607411672273L166.54177615057338,108.70244554452704L166.5461674960223,108.56817006413247L166.55055884147123,108.5609936952258L166.55982945964118,108.38492066137525L168.50275585715553,108.42813735053178L168.50714720260447,108.37960149294668L168.5115385480534,108.41316269216087L168.51592989350232,108.44877712473668L168.52080916622333,108.47835775209359L168.5252005116723,108.52072219333142L168.5295918571212,108.57664395245816L168.54764516618903,108.55643246038454L168.55691578435898,108.59768249251648L168.5613071298079,108.61629402760506L170.52228683639007,108.68143280395552L170.5310695272879,108.76424554902785L170.5403401454579,108.80428315772086L170.5447314909068,108.74839430157914L170.54912283635574,108.76874773269606L170.55839345452569,108.77367883584434L172.50571119748895,108.82418518646526L172.5101025429379,108.86115882534791L172.52376450655677,108.93171656244715L172.53254719745462,108.99450038284125L172.5462091610735,109.06553550033199L172.5598711246924,109.10760496559571L172.56426247014133,109.14241665126366L174.50718886765566,109.11430385222636L174.5115802131046,109.11365653783034L174.5159715585535,109.14682122279046L174.52036290400247,109.15036883156814L174.52524217672348,109.15977541474788L174.52963352217242,109.07008105530657L174.53402486762135,109.07651990815523L174.5432954857913,108.99453749075865L174.5476868312402,108.92683568511188L174.55207817668915,108.95625451225486L174.56574014030804,108.79467780874091L174.57013148575695,108.82941857343306L176.5130578832713,108.89403970251219L176.54916450140695,108.86528797512248L176.55355584685586,108.90523289292024L176.55794719230477,108.97072760672145L176.5628264650258,108.9001565021495L176.56721781047474,108.93297992369575L178.5101442079891,108.95674796944307L178.514535553438,108.91419730739324L178.51892689888692,108.93268251128268L178.52331824433588,108.98262579851583L178.5325888625058,109.02400167289977L178.53698020795477,109.04166542800486L178.54137155340368,109.07748143824239L178.55064217157366,109.1134713766079L178.55503351702257,109.12657659555128L178.56430413519254,109.14730599825997L180.54284922357039,109.17656531172673L180.55651118718927,109.20295667736104L180.5609025326382,109.21201230168381L180.56578180535925,109.23146556871423L180.57017315080816,109.27802008591605L182.51309954832251,109.33377319181885L182.51749089377142,109.31596960651578L182.52188223922036,109.34565976833304L182.5311528573903,109.3766327283425L182.5443268937371,109.39103745256739L182.5492061664581,109.44786636950953L182.55359751190707,109.47139908159517L182.55798885735598,109.4807697863614L182.56238020280492,109.49371687534934L182.56725947552596,109.50155550398418L182.57165082097487,109.56471695781619L182.57604216642378,109.48827017787434L184.51896856393813,109.52637581786018L184.527751254836,109.56602103872352L184.53263052755702,109.61823256667158L184.5414132184549,109.61719967004018L184.5506838366248,109.6704777602435L184.5594665275227,109.73514455126357L184.56385787297162,109.76457917826994L184.56873714569267,109.6977091086791L184.57312849114157,109.72395171702713L184.5775198365905,109.73453425940555L186.51605488865593,109.70421516714777L186.53410819772373,109.55554606568124L186.5565528522405,109.45634367789151L186.5609441976894,109.34033140397453L186.57021481585937,109.2583848953878L186.57460616130828,109.16447930191725L186.57899750675722,109.15339037890907L188.52631524972048,109.14302298591743L188.53070659516942,109.16961496297844L188.53558586789043,109.18950908574138L188.5443685587883,109.19693590446386L188.55363917695826,109.07760888730135L188.5580305224072,109.12916874664351L188.57169248602608,109.1842341719271L188.58047517692393,109.22194996272573L190.52340157443828,109.22921467724862L190.5277929198872,109.28028684952932L190.53706353805714,109.34095911903282L190.54145488350608,109.40357689937919L190.55511684712496,109.44211024631845L190.5595081925739,109.49370470720336L190.56389953802284,109.54733970279402L190.5731701561928,109.56839024224584L190.5775615016417,109.6492728907972L190.58195284709063,109.67814220371932L192.524879244605,109.71893704802699L192.5292705900539,109.54925012937942L192.5336619355028,109.58620133450849L192.53854120822388,109.54964040874488L192.54293255367278,109.44124726621814L192.54732389912172,109.47589896910641L192.55659451729167,109.21986828224217L192.56976855363845,109.234139260091L192.5746478263595,109.22696464713295L192.58343051725734,109.01919242156733L194.53513960566954,109.01594323878864L194.54001887839058,109.0449729632377L194.5488015692884,109.08005472022633L194.55319291473737,109.07809897407643L194.56685487835625,109.09783131747291L194.5761254965262,109.16794961835105L194.58490818742405,109.20054107280687L196.5278345849384,109.22603341740921L196.5322259303873,109.16662709644991L196.53661727583625,109.18263262526428L196.5414965485573,109.22885998943426L196.55027923945516,109.2385772773192L196.56394120307402,109.22474387578696L196.56833254852296,109.2363362307706L196.5776031666929,109.25290097526434L196.58199451214185,109.25464486316581L196.58638585759076,109.2621901780953L198.5293122551051,109.29450783283035L198.5473655641729,109.35867039849995L198.55614825507078,109.43006248039984L198.5610275277918,109.46005792743519L198.56981021868967,109.48062735926614L198.57420156413858,109.51139506839543L198.57908083685962,109.57757996561983L198.58347218230855,109.6083820532015L198.58786352775746,109.65319402474873L200.5263985798229,109.6628860081984L200.5444518888907,109.65838864987246L200.5488432343396,109.66820473708792L200.55323457978855,109.65460393123996L200.5576259252375,109.65431097838051L200.5625051979585,109.65436095008977L200.57128788885638,109.59416374533492L200.58055850702635,109.60120392438289L200.58494985247526,109.56733796753846L200.58934119792417,109.59071527993486L202.52787624998962,109.59119417877406L202.53226759543853,109.52186507729292L202.53665894088743,109.39902681902767L202.55032090450632,109.31828716709762L202.5639828681252,109.25220895266368L202.57276555902308,109.27464542122968L202.58203617719306,109.22051853809202L202.58642752264197,109.17535772390646L202.59081886809088,109.16140119421428L204.52935392015632,109.1270250788475L204.53374526560523,109.18061761384504L204.55179857467303,109.11324203333456L204.56985188374085,109.16316961708854L204.57863457463873,109.18476346417786L204.58351384735974,109.21888164720714L204.58790519280868,109.27125459480366L206.53083159032303,109.3136478291755L206.53522293577194,109.34295037881942L206.53961428122088,109.29784112615805L206.55327624483976,109.3109425902054L206.56693820845862,109.34736190928055L206.57132955390756,109.37932025026136L206.5757208993565,109.37293492719341L206.58499151752645,109.41203647815168L206.58938286297538,109.35710181538647L206.59377420842432,109.37476822381485L208.53670060593865,109.36741524407019L208.54109195138759,109.35900577270667L208.55036256955754,109.35535868110408L208.55475391500647,109.3738164473076L208.55914526045538,109.40223524919912L208.56353660590432,109.41346752455254L208.56841587862536,109.4277956002619L208.57280722407427,109.46011208644032L208.58158991497214,109.50974176431073L208.58646918769315,109.53807366568518L210.53378693065642,109.56382815894302L210.55623158517318,109.47666121808011L210.57428489424098,109.48922904542212L212.544047291721,109.4664942282836L212.5484386371699,109.48645698031707L212.55331790989095,109.51552388176579L212.5577092553399,109.5646126880266L212.5621006007888,109.56571765626435L212.57576256440768,109.45677872911476L212.58015390985665,109.47803649285144L212.58942452802657,109.48541325910413L212.5938158734755,109.52751981028908L214.53674227098983,109.55158839306546L214.5411336164388,109.55252504250454L214.5455249618877,109.59234227872771L214.54991630733662,109.60828308234954L214.5591869255066,109.61416918117905L214.56796961640447,109.64329555276579L214.57284888912548,109.65534253410227L214.5772402345744,109.66780564908301L214.58602292547226,109.67515495263112L214.59090219819328,109.64777127521741L214.59529354364224,109.67931437154012L216.53821994115654,109.66334604317086L216.54700263205442,109.69121612491702L216.5743265592922,109.69284737166846L216.58310925019006,109.70242705023293L216.60116255925786,109.72437632945983L218.53969761132325,109.7415219503569L218.5440889567722,109.71896540939937L218.56214226584,109.70862857860146L218.58458692035677,109.73458128993703L218.58897826580568,109.775693979125L220.54117528148996,109.80917604655156L220.55434931783677,109.75083241894431L220.5592285905578,109.75855157900996L220.57240262690456,109.71875301998642L220.5772818996256,109.75000819208847L220.58606459052345,109.75794352647654L220.5904559359724,109.73031478026635L220.5953352086934,109.7523315945015L220.59972655414236,109.77614187345132L222.5426529516567,109.79691736254723L222.54704429710563,109.82558832758671L222.56070626072452,109.79358680164147L222.56509760617342,109.81556664229814L222.56948895162236,109.82226845244598L222.57388029707127,109.85244890257071L222.5787595697923,109.88601454521059L222.5968128788601,109.86834530077284L224.5441306218234,109.8830708928289L224.54852196727234,109.87697333041922L224.55291331272124,109.88785673513419L224.55730465817018,109.88903881223229L224.56657527634013,109.86099064367075L224.57096662178907,109.83743663085225L224.57535796723798,109.81114564249722L224.58023723995902,109.83207143606843L224.58462858540796,109.85521916660558L224.58901993085686,109.86469197717621L224.5934112763058,109.88968324687744L224.59829054902684,109.90517512198004L224.60268189447575,109.91074826062895L226.54999963743904,109.84000488543421L226.5587823283369,109.78411440421007L226.58171491012573,109.79441639955546L226.58610625557466,109.84052660907297L226.59049760102357,109.87514507970847L226.59976821919355,109.91362519184612L228.55147730760572,109.91267219855662L228.56513927122464,109.91180277081459L228.57392196212248,109.90741473852975L228.59197527119028,109.93036469112546L228.59636661663924,109.8982593929289L228.60124588936026,109.9320323628095L228.60563723480917,109.94005485508163L230.55295497777243,109.94386877091212L230.5617376686703,109.97167459342569L230.56661694139132,109.97336733334703L230.57100828684028,109.95144990705387L230.5753996322892,109.92964635542413L230.5797909777381,109.89771182880743L230.58906159590808,109.83168782573388L230.593452941357,109.83730764746824L230.60711490497587,109.76554261930346L230.61150625042484,109.77633885369931L232.55443264793914,109.78812258654551L232.5588239933881,109.7901756460297L232.563215338837,109.80912026039002L232.58614792062588,109.84904582472711L232.59053926607479,109.86505975171951L232.5949306115237,109.85848965440533L234.56469300900372,109.86640451289078L234.56957228172473,109.82805231731764L234.5739636271737,109.88068131911683L234.58274631807154,109.8710563412491L234.58762559079258,109.83216647301514L234.5920169362415,109.82991358975912L234.59640828169043,109.80131117761266L234.60079962713937,109.82839444043695L234.60567889986038,109.85007742096575L234.6100702453093,109.85101834838714L236.55299664282364,109.70779795341996L236.56177933372152,109.6676732379404L236.56617067917043,109.68684780580516L236.57104995189147,109.6769320764016L236.5798326427893,109.69171644223758L236.58422398823825,109.64750675323407L236.5934946064082,109.63565630690499L236.60227729730607,109.66579298018135L236.6071565700271,109.66805556400134L236.61593926092496,109.69445663991888L238.55447431299035,109.70236015853386L238.57252762205817,109.71293735349447L238.5769189675071,109.70613444011549L238.58131031295602,109.71447574964532L238.58570165840496,109.74281864745667L238.590580931126,109.7480386736442L238.5949722765749,109.77499371033205L238.59936362202384,109.73673961141863L238.6086342401938,109.69977913457006L238.61302558564273,109.69600961384516L238.61741693109167,109.67395645211091L240.55595198315706,109.63684973827948L240.57400529222488,109.6469088685792L240.58278798312273,109.63900672353539L240.58717932857166,109.66615634809203L240.5920586012927,109.61871568821796L240.60084129219055,109.60555596279957L240.6101119103605,109.56213772001297L240.61889460125838,109.5714271992976L242.5618209987727,109.57015913561168L242.56621234422164,109.57853854218871L242.57060368967058,109.57579102199125L242.57987430784053,109.58381392005649L242.58426565328946,109.60639417727016L242.58865699873837,109.64302178932805L242.5935362714594,109.65378598241146L242.59792761690832,109.63618496574803L242.60231896235726,109.63566782217293L242.60671030780617,109.59489686806008L242.6115895805272,109.58860136481783L242.61598092597615,109.59252638159461L244.5632986689394,109.5449746161797L244.56769001438835,109.51449253972619L244.5769606325583,109.5312285719137L244.58135197800723,109.55511329552321L244.59501394162612,109.47474810848541L244.59940528707506,109.49375243485429L244.60379663252397,109.50420174727516L244.60818797797288,109.53539538856926L244.61306725069392,109.52219312322822L244.62184994159176,109.53267759960292L246.573559030004,109.4757911479153L246.58282964817394,109.48602066142962L246.58722099362288,109.51112798265967L246.5916123390718,109.44834573258142L246.60527430269067,109.4532108073632L246.60966564813958,109.47232846950568L246.61893626630956,109.3752821567618L246.62332761175847,109.36994805657635L248.56186266382392,109.33147217461163L248.5706453547218,109.3792098536553L248.5750367001707,109.42172144810097L248.5799159728917,109.45070488144096L248.58430731834065,109.50073650278276L248.5930900092385,109.51548066516865L248.60236062740847,109.54350684015277L248.61114331830632,109.57069092607833L248.61602259102736,109.5825785787052L248.62480528192518,109.61208348761058L250.56334033399062,109.61646326994567L250.56773167943953,109.64596170081757L250.57212302488847,109.63456876038816L250.58139364305842,109.5571699687204L250.5945676794052,109.58725191032644L250.59944695212624,109.61193106597472L250.60383829757518,109.61820455606853L250.6082296430241,109.63649222491505L250.61262098847303,109.64871664519981L250.62189160664298,109.68208522576444L250.6262829520919,109.69929271185259L252.56481800415733,109.72449401130918L252.56920934960624,109.76869489305827L252.57360069505518,109.74815298321086L252.5779920405041,109.65324499910786L252.58287131322513,109.68551792288737L252.5872626586741,109.60918844033745L252.5960453495719,109.58636963647797L252.60092462229298,109.59511315229643L252.6053159677419,109.56392396920037L252.62336927680968,109.58508065231814L254.57068701977295,109.6204791178344L254.57507836522188,109.61592441239243L254.57946971067082,109.61265582665665L254.5931316742897,109.63335832206147L254.59752301973865,109.61706042598003L254.6024022924597,109.64089023206729L254.6067936379086,109.57831272504956L254.6111849833575,109.44430028408537L254.62045560152748,109.46721071045992L254.6248469469764,109.39354198410139L254.62923829242533,109.39247716912799L256.5765560353886,109.40130348791072L256.58094738083753,109.41006256504957L256.5902179990075,109.40314629847525L256.5946093444564,109.36535801758889L256.5990006899053,109.36800477180407L256.61266265352424,109.36956560780037L256.62193327169416,109.38072899797653L256.6263246171431,109.39316404326811L256.63071596259203,109.40237739956409L258.5692510146574,109.38236824324058L258.5736423601064,109.40281759574574L258.5780337055553,109.3838749319908" fill="none"></path></g></g></g></g><g opacity="0.2"><g><g><g><path style="fill: none;" stroke="rgb(255, 112, 67)" stroke-width="2px" d="M24.423199605118146,-86.16159717000653L24.441252914185956,66.68402650254517L24.445644259634886,16.689150500653767L24.454914877804843,50.385001787634806L24.45930622325377,28.288419152744353L26.397841275319188,23.828219318103237L26.402232620768114,-50.86387489341439L26.411015311665967,-58.10900626731814L26.415894584387,42.55555780599448L26.420285929835927,34.42524059534318L26.43833923890374,9.260088025908686L26.442730584352667,-170.03892901545282L28.412492981832678,72.51051479584882L28.417372254553708,24.88922964798715L28.426154945451565,117.5825040064779L28.439816909070448,88.63268013153282L28.444208254519374,-36.736910234277275L28.453478872689335,48.801798550954885L28.45787021813826,-12.816261259145335L28.462261563587187,87.24824136298417L30.400796615652606,-12.131936198249832L30.40957930655046,85.25304732032248L30.418849924720416,77.91782778550748L30.423241270169346,110.56863318731986L30.436903233788232,75.17598333056876L30.44129457923716,41.42264942839657L30.445685924686085,-116.0527428181963L30.45007727013501,7.373596826007798L30.454956542856042,85.04769540419525L32.40227428581932,-89.95320751942825L32.40666563126824,7.217528042974067L32.41544832216609,86.21891446877862L32.42471894033605,28.305746860866606L32.42911028578498,29.384443128673155L32.43350163123391,99.36768622077233L32.43838090395494,80.78365292080485L32.45155494030172,92.01713577727796L32.45643421302275,94.23753695444739L32.460825558471676,100.96976286082432L32.465216903920606,67.18101727949568L34.40814330143495,-59.10862662363263L34.4169259923328,-16.5957050631244L34.421805265053834,43.15122762518027L34.44424991957058,54.442902922560094L34.4486412650195,-6.039362769883553L34.45303261046843,91.31308817570579L34.45791188318946,89.03731395883634L34.46230322863839,85.10797088505237L34.46669457408732,72.4193652133068L36.42328293522054,58.8015446087925L36.459389553356175,-12.27241535108169L36.46817224425403,13.61243415509361L38.40670729631944,101.95467589366751L38.41109864176837,60.42533395507884L38.442813914455066,99.00820261608752L38.455987950801855,111.80095696840938L38.46525856897181,-6.502328349682841L38.469649914420735,52.93949205697298L40.408184966486154,85.45270736295473L40.42623827555396,133.36559156832857L40.43062962100289,127.9955311609672L40.435020966451816,99.26470842093246L40.4486829300707,115.19611307096969L40.453074275519626,115.93669016135317L40.46673623913852,94.21677289379554L42.418445327550714,76.29690427762421L42.42771594572067,118.03174739475696L42.43649863661853,21.54963896779745L42.44088998206745,96.5516218583023L42.44576925478849,99.09651289576723L42.45016060023741,102.19895544810308L42.45455194568634,101.24173225205249L42.45894329113526,4.18488723063146L42.46821390930522,-79.47644531295407L44.42431434316635,-51.89807105935108L44.429193615887385,0.00852480782751286L44.43358496133631,96.44272663287092L44.44236765223416,121.82950735575193L44.447246924955195,133.49532714409153L44.451638270404125,102.47783071381642L44.46042096130198,92.06062752859859L44.465300234023005,128.2185391625337L44.47408292492086,31.570268496220393L46.412617976986276,117.38908313286902L46.421400667884136,113.01254654133041L46.425792013333066,31.783693850626634L46.439453976951945,84.74293471846161L46.457507286019755,128.4999286707349L46.461898631468685,127.18515233059045L46.46677790418971,137.43596606588665L46.47116924963864,106.77408402675796L48.41409564715298,60.07704171471342L48.41848699260191,85.3212303923288L48.42726968349977,121.06412616863446L48.43654030166973,24.4701803881608L48.44093164711866,103.33772154632578L48.44532299256758,83.94430118181782L48.45020226528862,109.51003427470334L48.45898495618647,89.9836443154012L48.46337630163539,58.27526522871803L50.42874735366647,134.98457466479312L50.4468006627343,131.85632961600186L50.46485397180211,119.23670971637088L50.469733244523134,127.52959691754435L50.474124589972064,135.424057949483L52.42583367838426,117.71485996689182L52.43022502383319,108.18122063349202L52.435104296554215,138.66706257821562L52.439495642003145,134.59969820606352L52.45315760562203,110.86069661679547L52.45754895107096,86.76976575960532L52.47121091468985,83.7294827115212L52.47560226013877,128.5507641329634L54.41852865765311,136.44210392191906L54.42292000310204,135.86055764430768L54.427311348550965,141.46510930850337L54.43658196672092,138.46902783745549L54.44097331216985,83.7576899913588L54.44536465761878,122.32329728309716L54.449756003067705,113.33442928474534L54.454635275788746,145.85820905289583L54.45902662123767,110.44452646314257L54.472688584856556,113.2480262470584L54.477079930305486,60.3701532980494L56.42000632781983,137.88637370101696L56.43805963688764,136.726485312342L56.44245098233656,132.98022420209475L56.45123367323442,141.75334996163693L56.460504291404376,12.436087097256603L56.464895636853306,146.57258727218368L58.421483997986535,76.41728275832344L58.43465803433332,142.94044391348544L58.439537307054344,125.05672997161207L58.443928652503274,138.14917837985197L58.4483199979522,136.95862817381828L58.457590616122154,108.42968616948392L58.47564392518998,103.56340632056737L58.48442661608783,64.06913470853122L60.42735301360217,138.58814753843947L60.4317443590511,142.23657210987088L60.436135704500025,120.49798045549696L60.454189013567834,129.64430703583028L60.45906828628887,138.4820667388009L60.46785097718672,104.78300299291548L60.47712159535668,117.05879857385804L60.48590428625454,0.1541385877982009L62.442492647387766,124.68723251722952L62.45127533828562,139.56574505438687L62.45566668373455,116.31686817089533L62.46932864735343,131.36915367219333L62.478599265523385,130.65755339232973L62.482990610972315,142.5497843653395L62.487381956421245,138.05976853370163L64.43030835393559,145.40889932576485L64.43469969938451,132.36881383181898L64.43909104483345,136.50618891134786L64.45714435390126,-12.599479158831798L64.46202362662228,141.69500494137077L64.47080631752014,123.88808485448331L64.48446828113903,137.3490820715233L66.43617736955123,145.08455706941487L66.44056871500015,109.76660641840022L66.44544798772118,121.59276057795219L66.4498393331701,131.89727727235126L66.45862202406796,120.99866298955698L66.47228398768685,127.46620351064686L66.47667533313579,41.65418528937775L66.48155460585681,111.18763769766952L68.42887234882008,133.5122982808847L68.433263694269,131.0227719907633L68.44204638516686,135.95060766037906L68.46937031240462,121.33815538121485L68.47815300330248,123.38347837733204L68.48303227602352,130.165557930929L68.48742362147244,133.46468356991704L68.49181496692138,120.77104112083924L70.4303500189868,136.23608032491612L70.43913270988465,134.34284578071728L70.44352405533357,136.2365314291092L70.46645663712242,137.6739749403442L70.47084798257134,129.57197778557878L70.47963067346919,78.35519983623493L70.48890129163915,133.90018486502026L70.49329263708809,133.6182480612907L72.43182768915351,129.8799492717455L72.44061038005135,130.88672759018246L72.44500172550028,127.74641218728385L72.4498809982213,127.44035457699513L72.45427234367024,138.05471683012772L72.4630550345681,112.95534918320251L72.46793430728913,52.04920476251256L72.47671699818699,130.3362776494099L72.4811083436359,143.22573912159362L72.49037896180586,130.83178243607736L74.43330535932022,128.4913245216405L74.44208805021808,124.12085461811026L74.44647939566698,120.84023254339479L74.45135866838802,89.08199980949158L74.46014135928587,146.0858972604655L74.46453270473481,139.32724361395378L74.4781946683537,48.639321434825405L74.48258601380262,122.99698159214424L74.48746528652364,129.61497199551L74.49185663197258,50.80252525386693L76.43478302948691,24.83584013995963L76.43917437493585,119.64029207287143L76.44356572038478,131.41607845910096L76.44795706583369,67.32370551609657L76.47088964762254,137.01712577344387L76.48894295669035,135.8613006394492L76.49333430213929,135.1868683598467L78.43626069965362,101.48561377337651L78.44943473600041,88.85821232641499L78.48115000868711,59.24003115223225L78.48554135413603,119.8093068828579L80.43773836982032,143.06065986399747L80.44212971526926,138.45262389784625L80.44652106071818,124.4937419878261L80.45579167888815,134.86075651462167L80.464574369786,142.86541633043197L80.47384498795597,134.1124194370345L80.48262767885382,114.93639978263425L82.45726934905485,118.0272264019984L82.46166069450378,110.28796013871941L82.46605203995271,75.60185222437278L82.47044338540165,80.27728846407763L82.4797140035716,72.3777375837252L82.48410534902052,136.45590903700423L82.49776731263941,96.42947876414192L84.44508505560269,111.90115848729627L84.47192105556834,64.4380185285335L84.47680032828937,26.33016258283331L84.48119167373831,132.89828742761352L84.48558301918725,133.41282483089765L84.48997436463615,124.61530461703214L84.49924498280612,33.2698566147138L84.50363632825504,134.543721482811L86.44217138032046,122.87012512255475L86.45095407121832,101.37660577189686L86.45534541666724,136.35887188135405L86.46022468938828,93.27872825983584L86.46900738028613,124.06198883785652L86.47827799845608,138.23955843171169L86.48266934390502,117.06862004088524L86.50072265297284,140.3278607115184L88.45243174138503,80.68614144236344L88.46609370500391,131.70478182572668L88.47048505045284,100.2283399500788L88.47975566862279,74.68808761021685L88.48414701407172,99.24247163776792L88.49292970496958,143.52810829171545L88.50220032313955,122.64060596267203L90.44951806610281,95.081221205432L90.48123333878951,142.25945569684166L90.49440737513629,133.6627216276198L90.49928664785732,109.8240658149932L92.4466043908206,143.3816934701078L92.45099573626952,122.494411717747L92.45538708171844,1.4538493746709662L92.4646576998884,114.90329006163955L92.46904904533733,127.46093620580419L92.47344039078627,69.92390988829479L92.47783173623519,133.8471038326542L92.48710235440515,115.67369973373278L92.50954700892188,145.83461895715206L94.4480820609873,121.23330019186557L94.47491806095297,118.12894044670915L94.48418867912292,105.13839349043666L94.48858002457186,130.4882466913948L94.49297137002078,75.58818642087667L94.4973627154697,121.85889215021115L94.50224198819075,136.87697665640033L94.50663333363966,126.51315302838222L94.51102467908859,122.33014013567302L96.44955973115401,125.58466450604203L96.45395107660293,133.53868124229442L96.45834242205186,137.71670545333905L96.46761304022182,65.20695216117143L96.4807870765686,119.78460892828701L96.48566634928963,109.17507946051701L96.49005769473857,116.2263255888484L96.49884038563641,72.7182350089897L96.50371965835745,146.9699478736095L98.45103740132072,135.41170565525496L98.45982009221858,62.92003301717894L98.46909071038854,74.3862657356234L98.47348205583745,121.47411354128815L98.48714401945634,146.3328850985308L98.49153536490527,141.59047315392462L98.4959267103542,127.02103001093329L98.50519732852416,125.65058542319778L98.50958867397308,127.9241406054704L98.51398001942201,134.22024826542122L100.45690641693635,137.93359203734434L100.46568910783421,-4.186478832366788L100.47056838055524,106.80813244250737L100.48374241690202,129.53465554748698L100.48862168962305,113.35995979190785L100.49301303507198,129.91309216216615L100.4974043805209,134.9618701927225L100.50179572596984,127.59195212140926L100.50667499869087,31.129420289652188L100.51106634413979,110.24312170870475L100.51545768958873,135.22336302076076L102.45838408710306,89.10886041063515L102.462775432552,132.81502885150775L102.4808287416198,126.38699311673793L102.48522008706873,128.94447526829782L102.49009935978977,131.4364312188709L102.49888205068761,92.97527444948508L102.50327339613655,139.32702303727115L102.50815266885758,130.73006175748142L102.5125440143065,140.1521788469137L104.45547041182085,140.6508231197484L104.4642531027187,136.790638299094L104.46864444816762,137.48221751344727L104.47352372088865,133.1550254184402L104.48230641178651,143.0190007234612L104.49157702995647,139.55712266210818L104.50035972085432,142.7963310500395L104.50475106630326,145.2998979581704L104.50963033902428,136.38116671101403L106.45694808198756,138.3546132195441L106.47500139105536,121.38325253275201L106.4793927365043,69.57458276183937L106.48817542740215,110.97388396594626L106.49305470012318,122.6087168765527L106.50183739102104,140.94981398383604L106.51989070008885,131.46238297774312L108.45842575215427,117.61150735253858L108.46720844305213,80.95913245191122L108.47647906122208,133.204043196126L108.49453237028989,139.16146945688374L108.50770640663667,86.39451340981844L108.5125856793577,128.38776293990372L108.52136837025554,54.65884251945421L110.45990342232098,52.30138527421214L110.4642947677699,135.31375634039085L110.46868611321884,127.57553988944355L110.47307745866776,71.10907337955234L110.47795673138879,128.255085236058L110.48234807683772,122.60097844947589L110.48673942228663,141.74791349272186L110.49113076773557,125.65652275044488L110.50918407680338,125.20622125747767L110.5140633495244,100.26851475880329L110.52284604042227,67.07793997137793L112.46577243793661,64.31086021716776L112.4794344015555,94.48699093933294L112.48821709245335,64.31811768756812L112.49260843790228,124.91530880708291L112.49748771062332,134.4708018167774L112.51066174697009,85.5897302616014L112.51554101969111,134.824809149236L112.51993236514005,115.38250534321736L112.52432371058897,133.67516513776923L114.46285876265439,145.15793447352678L114.47164145355225,131.89898549778826L114.47603279900117,131.45368927119864L114.4809120717222,113.49341034337849L114.48969476262006,122.87590987044243L114.49408610806898,121.50173703922883L114.49896538079003,103.74597084105909L114.50335672623895,143.2101710515186L114.50774807168787,127.65551800932175L114.5121394171368,139.76598058655955L114.52141003530676,137.31914334765048L114.52580138075568,143.7689432012649L116.47311912371894,141.69393191044094L116.49117243278677,140.36290918546058L116.50483439640566,122.10793815115738L116.50922574185458,118.08885519543475L116.5136170873035,146.17630053092336L116.51849636002454,135.21289640839862L116.52288770547347,117.93244808425621L116.52727905092239,146.951361385772L118.4658141029878,112.03466874373363L118.47020544843674,135.72340538489973L118.47898813933459,110.7277900439106L118.48386741205562,77.35611682462101L118.48825875750454,99.61183309750405L118.50631206657236,116.58612430307986L118.52436537564017,145.31505804430606L118.5287567210891,132.07350643248435L120.47168311860345,113.77822957022411L120.47607446405237,105.51172201351777L120.4804658095013,138.62571688875468L120.48534508222234,132.81943375127543L120.48973642767125,97.10658615794821L120.49412777312018,112.07484355245812L120.50778973673907,127.57330758707633L120.51218108218801,134.54737841202325L120.51657242763693,132.04900086058404L122.47316078877016,127.9975843484342L122.48194347966802,135.21791328407528L122.48682275238905,-7.037404261522283L122.49121409783797,86.88250863844823L122.49560544328689,127.22153919087015L122.50487606145684,136.17927436601457L122.51805009780364,118.64674172150788L122.52292937052466,147.01458645783276L124.47024711348793,132.39505416469706L124.47463845893687,139.27257708302676L124.47902980438579,138.61612263229534L124.48342114983473,141.2610957787137L124.48830042255575,145.51647606651426L124.49708311345361,102.08430864420998L124.51074507707249,120.65947575661798L124.51513642252141,136.11678482597455L124.52440704069137,133.07968272584012L126.47172478365465,137.19859238593625L126.47611612910357,133.49984481990748L126.4805074745525,120.90202386701836L126.48977809272246,143.59562134131733L126.49416943817138,137.28211300050714L126.49856078362032,134.52074004603364L126.50295212906924,129.1155532165791L126.50783140179027,124.53558521867643L126.5122227472392,130.64104165208613L126.51661409268812,141.0869347322893L126.52100543813705,121.81155274547899L126.53466740175594,127.603345819227L128.47320245382136,134.22210741174638L128.49125576288915,124.14877664088459L128.4956471083381,134.6011045897243L128.50442979923596,114.47079723347105L128.51370041740591,129.53143147928353L128.52248310830376,126.61092986223133L128.5273623810248,130.47813333341915L128.5317537264737,141.04425231496214L128.53614507192265,123.00173145394191L130.47468012398807,132.39179361012506L130.479071469437,129.17581211272324L130.48785416033485,79.6101916030265L130.4971247785048,98.74660862130008L130.50590746940267,84.21110941036639L130.51956943302156,118.49470965761364L130.52396077847047,139.66249363603117L130.5288400511915,141.6629135217531L130.53323139664045,94.31202221738639L130.53762274208935,16.262737628263977L132.4805491396037,138.37464921129612L132.48933183050156,141.23481895946705L132.49860244867153,124.03707528201687L132.50299379412044,125.6705965378803L132.5122644122904,139.9768933569492L132.52543844863717,104.33554411975317L132.53470906680715,107.08671581727225L132.53910041225606,127.24227339903865L134.47763546432148,128.8186536847983L134.49080950066826,129.18451577009552L134.50447146428715,85.4719987010939L134.5088628097361,116.73557578563427L134.51813342790604,137.66009353557936L134.52691611880388,115.14807379134973L134.53618673697386,118.14043033586219L134.54057808242277,141.06258008127713L136.49228717083497,48.59981001462015L136.50155778900492,114.94260909917423L136.50594913445386,92.29554003714264L136.5103404799028,138.1742047117399L136.5152197526238,126.48730409473049L136.52400244352168,96.24685453868346L136.52839378897062,114.89635433467103L136.53327306169163,113.90065460450516L136.53766440714057,115.62360063276063L138.48937349555277,93.47986102498078L138.49864411372272,-31.02939403801207L138.50303545917166,109.14415892163576L138.50742680462056,128.38619734299834L138.51181815006947,28.94875608478455L138.51669742279051,71.96337184684461L138.53475073185834,109.92102999790626L138.53914207730728,90.05660378474596L138.5435334227562,107.83123343545996L140.4820684748216,126.1906599675296L140.49524251116839,76.43276624636223L140.50012178388943,94.60488171308506L140.50451312933836,124.54160878643103L140.50890447478727,125.64554035350903L140.51329582023618,121.15180622922091L140.52256643840616,110.59037242909498L140.5269577838551,140.716030894246L140.53134912930403,123.92432908623138L140.53622840202505,144.60797709872972L140.54501109292292,112.79091175399871L142.49232883588618,123.0427620338562L142.50159945405613,132.9615315720942L142.50599079950507,140.3634034099074L142.51477349040292,125.22139295291242L142.51965276312396,96.03914759331298L142.52404410857287,70.61869658613853L142.53282679947074,100.15780848271442L142.53770607219175,128.09413723046535L142.54648876308963,122.75253619057887L144.48502381515502,133.83578476604487L144.50746846967178,131.98837046686913L144.51625116056962,130.14489669549764L144.52113043329066,136.50256846850417L144.52552177873957,135.21720511683102L144.52991312418848,122.15057744823079L144.53430446963745,134.35551152602065L144.53918374235846,119.33855312184286L144.5435750878074,125.99368333145765L146.48650148532172,147.81610988071344L146.4908928307707,129.82242021935798L146.4952841762196,130.25020298904L146.50894613983849,96.81558415010338L146.5133374852874,121.80886602197612L146.51772883073633,121.30203719328543L146.52260810345737,116.93374983798344L146.53139079435522,130.4791317331406L148.4923705009374,131.1767013458225L148.4967618463863,131.4937015497359L148.50115319183521,127.78256354463923L148.5104238100052,140.11945057431754L148.528477119073,126.43248166750143L148.54213908269188,141.35584424397254L150.48945682565514,134.31747780374198L150.50263086200195,98.10512519097637L150.507510134723,140.73980508030382L150.5162928256208,110.88408769598347L150.52068417106975,116.89728337108144L150.5255634437908,116.13423399460908L150.5299547892397,123.57751951920642L150.53873748013757,119.60533149790808L150.54361675285858,60.69890874652354L150.54800809830752,124.17274155114174L150.55239944375646,72.8783703636463L152.49093449582185,83.65994632693565L152.49532584127078,137.2864482444803L152.49971718671972,60.32449890015609L152.50410853216866,140.4083579329129L152.5089878048897,96.96333404110598L152.51777049578754,111.78638232264193L152.52216184123645,126.50818093143062L152.5314324594064,138.2940010690135L152.54021515030428,116.28686310817062L152.5450944230253,104.06031085701039L152.55387711392316,117.21715604728311L154.4968035114375,81.93053889450292L154.50119485688643,93.53770850385752L154.50558620233537,124.27980582426005L154.5104654750564,106.49384218069501L154.52363951140316,115.79594565311362L154.5285187841242,105.20847717055057L154.53291012957314,114.22350589515818L154.53730147502205,132.05252013667854L154.546572093192,130.80409591622734L154.55096343864093,138.96534195811637L156.52072583612096,130.07340663172295L156.53438779973985,107.11318501918947L156.53877914518876,110.20000477189748L156.54804976335873,139.27762215271548L156.55244110880764,127.3474835012457L156.55683245425658,146.8924068773038L158.495367506322,126.7845983426802L158.50854154266878,130.34782724352968L158.5134208153898,120.41091734623339L158.52220350628767,62.22270554130655L158.52659485173658,134.76965502774732L158.53147412445762,130.90728268345077L158.53586546990655,103.25989280524988L158.54952743352544,119.49785260696524L160.51928983100547,122.36271251196715L160.52368117645437,122.00147424464896L160.52807252190328,136.8790431116377L160.53734314007326,124.38848544842267L160.54612583097114,138.0715121689633L160.55100510369215,102.05739497198488L160.55539644914106,105.55566486903147L162.4983228466554,136.91677333366886L162.50271419210432,137.86932793301537L162.5071055375533,143.26422063112278L162.5114968830022,133.00045755193122L162.5163761557232,139.87334172604022L162.52955019207,109.62493648317634L162.53442946479106,136.0937702197712L162.53882081023997,135.7940446528985L162.56126546475673,123.63874364564603L164.50419186227103,101.1565730678391L164.50858320772,122.68133470081005L164.51785382588992,144.16523491793913L164.52224517133888,101.7059715378087L164.5310278622367,136.32939089555953L164.55835178947447,117.11691804202766L164.56274313492344,64.65082029773167L166.50566953243774,120.03449411571006L166.5100608778867,113.96244261118612L166.5144522233356,129.46828684308076L166.53250553240343,124.75305724304997L166.53738480512447,54.098451701721004L166.54177615057338,93.61317558180497L166.5461674960223,48.24435317824705L166.55055884147123,105.33303499892094L166.55982945964118,29.08988535836525L168.50275585715553,127.91461766327689L168.50714720260447,86.46809646437129L168.5115385480534,123.58273706991017L168.51592989350232,124.5658888062348L168.52080916622333,121.88106922840896L168.5252005116723,127.73878985319791L168.5295918571212,133.97530698093772L168.54764516618903,99.36572259075541L168.55691578435898,127.37763450944465L168.5613071298079,117.09970974383887L170.52228683639007,138.40804253088277L170.5310695272879,146.60145213589098L170.5403401454579,127.11920156095135L170.5447314909068,83.15216885266247L170.54912283635574,118.10131363182586L170.55839345452569,111.03738019806423L172.50571119748895,132.03719917882697L172.5101025429379,125.87440275875772L172.52376450655677,141.4365437988654L172.53254719745462,137.95180536913978L172.5462091610735,141.8667247180444L172.5598711246924,128.55621055270626L172.56426247014133,125.25445291976817L174.50718886765566,96.08766782960936L174.5115802131046,108.813363553465L174.5159715585535,124.54986133961023L174.52036290400247,110.79992027760633L174.52524217672348,113.5386302217917L174.52963352217242,67.26864426900059L174.53402486762135,112.08073444250887L174.5432954857913,70.69985553758096L174.5476868312402,77.26673848942534L174.55207817668915,122.72931759240586L174.56574014030804,33.06326416205562L174.57013148575695,125.13092666054521L176.5130578832713,139.25063053233936L176.54916450140695,95.34358473090174L176.55355584685586,127.71212163472492L176.55794719230477,139.84157868373956L176.5628264650258,75.59931808022932L176.56721781047474,124.43887975728589L178.5101442079891,120.19737258189369L178.514535553438,88.7683231820595L178.51892689888692,117.69433140916428L178.52331824433588,132.68105256463562L178.5325888625058,128.6788346035431L178.53698020795477,117.44175618129577L178.54137155340368,126.12871938148922L178.55064217157366,126.26633269591801L178.55503351702257,115.37939073411957L178.56430413519254,119.04861916951398L180.54284922357039,123.16740941967669L180.55651118718927,121.83618767814056L180.5609025326382,113.55154307931849L180.56578180535925,118.56374518386718L180.57017315080816,131.635706496162L182.51309954832251,136.13798008916388L182.51749089377142,100.74738176140849L182.52188223922036,123.65044250218264L182.5311528573903,124.31548949270936L182.5443268937371,116.34615677401928L182.5492061664581,136.91624593979606L182.55359751190707,120.8581208148158L182.55798885735598,114.01977928090305L182.56238020280492,115.77172865521919L182.56725947552596,113.3065172127988L182.57165082097487,140.25646186366515L182.57604216642378,72.3016270189141L184.51896856393813,128.08195078336712L184.527751254836,128.8915965694301L184.53263052755702,135.0961251027727L184.5414132184549,109.11264465002981L184.5506838366248,135.72325114706902L184.5594665275227,141.38992748761922L184.56385787297162,124.18800280402658L184.56873714569267,76.89630234028806L184.57312849114157,122.60993751142809L184.5775198365905,114.93628700658599L186.51605488865593,94.78575459285275L186.53410819772373,36.327785797409405L186.5565528522405,60.54343701315712L186.5609441976894,52.08041719234227L186.57021481585937,68.77081459805675L186.57460616130828,62.72083071262496L186.57899750675722,103.66345857703743L188.52631524972048,104.00508376278461L188.53070659516942,122.36162455479561L188.53558586789043,119.06878618049853L188.5443685587883,112.88877151141273L188.55363917695826,49.70083593998393L188.5580305224072,134.81105544676106L188.57169248602608,136.63982023618996L188.58047517692393,128.04589230040443L190.52340157443828,112.85866362346754L190.5277929198872,134.8214325016731L190.53706353805714,139.71337387698472L190.54145488350608,140.7811192588101L190.55511684712496,128.77021637206684L190.5595081925739,135.3988541611662L190.56389953802284,136.50367632733128L190.5731701561928,120.15860083988736L190.5775615016417,150.38023089287952L190.58195284709063,124.23047957091279L192.524879244605,130.30284286804078L192.5292705900539,23.846210414744718L192.5336619355028,128.26723851373026L192.53854120822388,91.04787207960337L192.54293255367278,54.53513382838845L192.54732389912172,127.04564504193928L192.55659451729167,-20.723494178550425L192.56976855363845,116.48410841659287L192.5746478263595,105.57858162542823L192.58343051725734,3.262432226873642L194.53513960566954,107.3605062099857L194.54001887839058,123.84963485590882L194.5488015692884,126.98830505527974L194.55319291473737,108.07879012918052L194.56685487835625,119.1899076563393L194.5761254965262,145.06403182862994L194.58490818742405,125.90115390079563L196.5278345849384,122.30130263674215L196.5322259303873,78.6676757304472L196.53661727583625,117.4075750878425L196.5414965485573,133.0066652099999L196.55027923945516,114.24153347816821L196.56394120307402,102.0959046755261L196.56833254852296,115.21589199967048L196.5776031666929,117.80531299148865L196.58199451214185,110.15585958288541L196.58638585759076,113.16513253463819L198.5293122551051,126.02693236404139L198.5473655641729,142.6096352775443L198.55614825507078,146.46190255622167L198.5610275277918,125.03342513293157L198.56981021868967,120.16996136827916L198.57420156413858,125.51522431279176L198.57908083685962,144.03535837211584L198.58347218230855,125.65957765457591L198.58786352775746,133.0264590649424L200.5263985798229,114.72270907282032L200.5444518888907,107.30834065377616L200.5488432343396,114.80217638353872L200.55323457978855,102.5346897437995L200.5576259252375,109.50081317428607L200.5625051979585,109.68056824439886L200.57128788885638,77.99561672327224L200.58055850702635,113.30005249167891L200.58494985247526,91.75842088866398L200.58934119792417,121.89508331087768L202.52787624998962,109.84348319695103L202.53226759543853,72.96581823825102L202.53665894088743,44.57057389761073L202.55032090450632,66.66951819562964L202.5639828681252,74.31688193039727L202.57276555902308,121.14728191951977L202.58203617719306,80.55293302770232L202.58642752264197,85.23533484685908L202.59081886809088,101.75641560081084L204.52935392015632,90.87181540048527L204.53374526560523,137.6656593652557L204.55179857467303,73.27085754716273L204.56985188374085,135.74690592319342L204.57863457463873,120.6923930949421L204.58351384735974,127.41678769984952L204.58790519280868,137.23024596913126L206.53083159032303,131.9647472016994L206.53522293577194,125.0131917830951L206.53961428122088,85.15364518460126L206.55327624483976,116.32942279862172L206.56693820845862,128.874136183604L206.57132955390756,126.52906440201593L206.5757208993565,105.94343867711879L206.58499151752645,130.43116874320037L206.58938286297538,79.80149295031646L206.59377420842432,118.88768443169172L208.53670060593865,105.40463452180128L208.54109195138759,104.8229754681416L208.55036256955754,107.38645796885793L208.55475391500647,119.34680899196468L208.55914526045538,124.77035178174626L208.56353660590432,115.49272402874459L208.56841587862536,117.18915441788647L208.57280722407427,126.98037092858976L208.58158991497214,136.43895448492404L208.58646918769315,124.92397929502923L210.53378693065642,123.56179057741551L210.55623158517318,62.06038763842169L210.57428489424098,116.33147930303133L212.544047291721,97.078737107911L212.5484386371699,120.37283552828706L212.55331790989095,125.37989637181172L212.5577092553399,136.3789526518311L212.5621006007888,110.1697973756744L212.57576256440768,49.851226117293066L212.58015390985665,121.11875289625036L212.58942452802657,113.52824819146578L212.5938158734755,132.62299280143273L214.53674227098983,122.76406588304306L214.5411336164388,110.06712141761079L214.5455249618877,131.4858835160368L214.54991630733662,118.38050732402843L214.5591869255066,112.85593046276831L214.56796961640447,125.69766278946483L214.57284888912548,116.30099660057277L214.5772402345744,116.54859309760448L214.58602292547226,113.7359319182381L214.59090219819328,94.5049953037448L214.59529354364224,127.13625727978072L216.53821994115654,100.81885524047019L216.54700263205442,125.1402207336996L216.5743265592922,110.59780901439554L216.58310925019006,115.0211708845639L216.60116255925786,121.9206005502698L218.53969761132325,119.27617138243721L218.5440889567722,97.16532257744072L218.56214226584,103.95118344559728L218.58458692035677,124.20128715912415L218.58897826580568,132.71111401538445L220.54117528148996,128.50249266736174L220.55434931783677,77.15138849370186L220.5592285905578,114.07502295984182L220.57240262690456,87.44632254094066L220.5772818996256,127.2550436280338L220.58606459052345,114.2057569353262L220.5904559359724,94.23208390081933L220.5953352086934,122.11221700710641L220.59972655414236,123.15326929338931L222.5426529516567,121.4781170910017L222.54704429710563,125.95860998044603L222.56070626072452,91.7725112608124L222.56509760617342,122.2026932503014L222.56948895162236,113.6021098691967L222.57388029707127,126.88744346481622L222.5787595697923,128.84632693687794L222.5968128788601,99.87980225596127L224.5441306218234,118.21393378379273L224.54852196727234,106.42469387839321L224.55291331272124,116.05446484211444L224.55730465817018,110.55932252945249L224.56657527634013,93.94447180830775L224.57096662178907,96.4610560576572L224.57535796723798,94.86909609252345L224.58023723995902,121.73391307013108L224.58462858540796,123.03077792025636L224.58901993085686,115.26063423834987L224.5934112763058,124.1360462152006L224.59829054902684,118.74301929730353L224.60268189447575,113.09251471038083L226.54999963743904,69.42154566433851L226.5587823283369,77.82779269567777L226.58171491012573,115.6891566862308L226.58610625557466,136.24419356650628L226.59049760102357,129.71316344718363L226.59976821919355,131.98093719851119L228.55147730760572,109.36575058871371L228.56513927122464,109.41246972518039L228.57392196212248,107.38539986416976L228.59197527119028,123.13055155354834L228.59636661663924,91.41856031637795L228.60124588936026,129.3859371092463L228.60563723480917,114.5645638837214L230.55295497777243,112.14398522087473L230.5617376686703,126.02363200615821L230.56661694139132,110.95127900215354L230.57100828684028,97.28031434336381L230.5753996322892,97.31516877616409L230.5797909777381,91.40851661419683L230.58906159590808,71.5779099477468L230.593452941357,113.09574541246947L230.60711490497587,68.12526459611016L230.61150625042484,116.04516745201744L232.55443264793914,116.6352714415269L232.5588239933881,110.9840006408645L232.563215338837,120.83305467961674L232.58614792062588,133.0985179843723L232.59053926607479,119.1969694271265L232.5949306115237,106.0271151879917L234.56469300900372,114.48527237096062L234.56957228172473,87.43095846283532L234.5739636271737,140.6370528325605L234.58274631807154,104.24223189063846L234.58762559079258,87.07270876079627L234.5920169362415,108.51053001137971L234.59640828169043,93.03870765969373L234.60079962713937,125.71187588848932L234.60567889986038,122.57540813900223L234.6100702453093,110.40361861010433L236.55299664282364,25.536471290657772L236.56177933372152,86.06967858749294L236.56617067917043,120.97160005491506L236.57104995189147,103.83718676245303L236.5798326427893,118.40484704879893L236.58422398823825,83.57452178731458L236.5934946064082,102.64191986404762L236.60227729730607,127.4637688747813L236.6071565700271,111.00520585488164L236.61593926092496,125.3078357939105L238.55447431299035,114.3796576017568L238.57252762205817,115.97682184982392L238.5769189675071,105.67463696606994L238.58131031295602,114.66103715913025L238.58570165840496,126.56222387714956L238.590580931126,112.8478537075467L238.5949722765749,125.79266002541837L238.59936362202384,86.98927438673289L238.6086342401938,87.70660966034521L238.61302558564273,107.45145014208676L238.61741693109167,96.53351135172736L240.55595198315706,87.5117392828218L240.57400529222488,115.64877954400794L240.58278798312273,104.9209413677187L240.58717932857166,125.88706021170461L240.5920586012927,81.25561404892488L240.60084129219055,101.7325402480038L240.6101119103605,83.5690820014569L240.61889460125838,115.13644790755026L242.5618209987727,108.80999685672991L242.56621234422164,114.60506375282031L242.57060368967058,107.92654909790274L242.57987430784053,114.402882833815L242.58426565328946,123.17854439597193L242.58865699873837,131.67308843922052L242.5935362714594,116.13230353401812L242.59792761690832,99.03587918510974L242.60231896235726,109.32401018308384L242.60671030780617,85.00803803851576L242.6115895805272,105.78961546422265L242.61598092597615,111.96260816583242L244.5632986689394,80.81253022304688L244.56769001438835,91.08411962829402L244.5769606325583,119.65693317387627L244.58135197800723,124.01535925883994L244.59501394162612,60.78857233878249L244.59940528707506,121.01426920447184L244.60379663252397,115.84273112843223L244.60818797797288,128.46962840011915L244.61306725069392,101.50337268403626L244.62184994159176,115.90486741408577L246.573559030004,74.87944202858836L246.58282964817394,115.7112508408637L246.58722099362288,124.80013792625962L246.5916123390718,71.19283944787534L246.60527430269067,112.41957339647529L246.60966564813958,121.13630615646915L246.61893626630956,50.12810458356351L246.62332761175847,106.11138543158931L248.56186266382392,85.81190571057627L248.5706453547218,138.57884351445728L248.5750367001707,135.4411899579921L248.5799159728917,127.20139871542636L248.58430731834065,140.16158072070246L248.5930900092385,118.55682935855421L248.60236062740847,126.74040339952919L248.61114331830632,126.2613572820238L248.61602259102736,116.88601571708236L248.62480528192518,127.7504124200548L250.56334033399062,112.31064500161794L250.56773167943953,127.8029660585481L250.57212302488847,102.61756687150674L250.58139364305842,61.856992718426184L250.5945676794052,128.13799384547156L250.59944695212624,124.84035253829526L250.60383829757518,113.49169548405628L250.6082296430241,120.93497105782583L250.61262098847303,117.20586185774326L250.62189160664298,130.32327191749042L250.6262829520919,120.35007135124974L252.56481800415733,125.33271618032418L252.56920934960624,137.16093679511354L252.57360069505518,97.01009629782641L252.5779920405041,50.764758545467245L252.58287131322513,129.72243098479726L252.5872626586741,62.19053119812396L252.5960453495719,95.40187668008636L252.60092462229298,115.03350659407894L252.6053159677419,90.15275531672296L252.62336927680968,122.76030447013903L254.57068701977295,131.67802404980358L254.57507836522188,106.77607750925824L254.57946971067082,107.57347382631367L254.5931316742897,122.5568498451768L254.59752301973865,99.4370235888021L254.6024022924597,124.53445082430855L254.6067936379086,70.44414579895908L254.6111849833575,25.58671633710415L254.62045560152748,123.81184161196836L254.6248469469764,63.24075483068522L254.62923829242533,108.72498361799076L256.5765560353886,114.9374844228632L256.58094738083753,114.90732346383646L256.5902179990075,105.05987814224335L256.5946093444564,85.62110190467573L256.5990006899053,111.0320730899104L256.61266265352424,110.35147295555036L256.62193327169416,116.40764293892397L256.6263246171431,117.22512997728424L256.63071596259203,115.20862789538492L258.5692510146574,96.76523296149392L258.5736423601064,122.30506073270357L258.5780337055553,97.42528463647085" fill="none"></path></g></g></g></g></g></g><g transform="translate(61, 178)" clip-path="url(#clip_1)"><clipPath id="clip_1"><rect width="268" height="21"></rect></clipPath><g><g><line x1="0" y1="0" x2="0" y2="5" style="visibility: inherit;" fill="rgb(0, 0, 0)" stroke="rgb(204, 204, 204)" stroke-width="1px"></line><line x1="24.396363605152477" y1="0" x2="24.396363605152477" y2="5" style="visibility: inherit;" fill="rgb(0, 0, 0)" stroke="rgb(204, 204, 204)" stroke-width="1px"></line><line x1="48.79272721030495" y1="0" x2="48.79272721030495" y2="5" style="visibility: inherit;" fill="rgb(0, 0, 0)" stroke="rgb(204, 204, 204)" stroke-width="1px"></line><line x1="73.18909081545742" y1="0" x2="73.18909081545742" y2="5" style="visibility: inherit;" fill="rgb(0, 0, 0)" stroke="rgb(204, 204, 204)" stroke-width="1px"></line><line x1="97.5854544206099" y1="0" x2="97.5854544206099" y2="5" style="visibility: inherit;" fill="rgb(0, 0, 0)" stroke="rgb(204, 204, 204)" stroke-width="1px"></line><line x1="121.98181802576238" y1="0" x2="121.98181802576238" y2="5" style="visibility: inherit;" fill="rgb(0, 0, 0)" stroke="rgb(204, 204, 204)" stroke-width="1px"></line><line x1="146.37818163091484" y1="0" x2="146.37818163091484" y2="5" style="visibility: inherit;" fill="rgb(0, 0, 0)" stroke="rgb(204, 204, 204)" stroke-width="1px"></line><line x1="170.77454523606733" y1="0" x2="170.77454523606733" y2="5" style="visibility: inherit;" fill="rgb(0, 0, 0)" stroke="rgb(204, 204, 204)" stroke-width="1px"></line><line x1="195.1709088412198" y1="0" x2="195.1709088412198" y2="5" style="visibility: inherit;" fill="rgb(0, 0, 0)" stroke="rgb(204, 204, 204)" stroke-width="1px"></line><line x1="219.5672724463723" y1="0" x2="219.5672724463723" y2="5" style="visibility: inherit;" fill="rgb(0, 0, 0)" stroke="rgb(204, 204, 204)" stroke-width="1px"></line><line x1="243.96363605152476" y1="0" x2="243.96363605152476" y2="5" style="visibility: inherit;" fill="rgb(0, 0, 0)" stroke="rgb(204, 204, 204)" stroke-width="1px"></line><line x1="268.35999965667725" y1="0" x2="268.35999965667725" y2="5" style="visibility: inherit;" fill="rgb(0, 0, 0)" stroke="rgb(204, 204, 204)" stroke-width="1px"></line></g><g transform="translate(0, 8)"><text style="text-anchor: middle; visibility: hidden; font-family: &quot;Helvetica Neue&quot;, sans-serif; font-size: 12px; font-weight: 200;" x="0" y="0" dx="0em" dy="0.95em" fill="rgb(50, 49, 63)" stroke="none" stroke-width="1px">-50k</text><text style="text-anchor: middle; visibility: inherit; font-family: &quot;Helvetica Neue&quot;, sans-serif; font-size: 12px; font-weight: 200;" x="24.396363605152477" y="0" dx="0em" dy="0.95em" fill="rgb(50, 49, 63)" stroke="none" stroke-width="1px">0</text><text style="text-anchor: middle; visibility: hidden; font-family: &quot;Helvetica Neue&quot;, sans-serif; font-size: 12px; font-weight: 200;" x="48.79272721030495" y="0" dx="0em" dy="0.95em" fill="rgb(50, 49, 63)" stroke="none" stroke-width="1px">50k</text><text style="text-anchor: middle; visibility: inherit; font-family: &quot;Helvetica Neue&quot;, sans-serif; font-size: 12px; font-weight: 200;" x="73.18909081545742" y="0" dx="0em" dy="0.95em" fill="rgb(50, 49, 63)" stroke="none" stroke-width="1px">100k</text><text style="text-anchor: middle; visibility: hidden; font-family: &quot;Helvetica Neue&quot;, sans-serif; font-size: 12px; font-weight: 200;" x="97.5854544206099" y="0" dx="0em" dy="0.95em" fill="rgb(50, 49, 63)" stroke="none" stroke-width="1px">150k</text><text style="text-anchor: middle; visibility: inherit; font-family: &quot;Helvetica Neue&quot;, sans-serif; font-size: 12px; font-weight: 200;" x="121.98181802576238" y="0" dx="0em" dy="0.95em" fill="rgb(50, 49, 63)" stroke="none" stroke-width="1px">200k</text><text style="text-anchor: middle; visibility: hidden; font-family: &quot;Helvetica Neue&quot;, sans-serif; font-size: 12px; font-weight: 200;" x="146.37818163091484" y="0" dx="0em" dy="0.95em" fill="rgb(50, 49, 63)" stroke="none" stroke-width="1px">250k</text><text style="text-anchor: middle; visibility: inherit; font-family: &quot;Helvetica Neue&quot;, sans-serif; font-size: 12px; font-weight: 200;" x="170.77454523606733" y="0" dx="0em" dy="0.95em" fill="rgb(50, 49, 63)" stroke="none" stroke-width="1px">300k</text><text style="text-anchor: middle; visibility: hidden; font-family: &quot;Helvetica Neue&quot;, sans-serif; font-size: 12px; font-weight: 200;" x="195.1709088412198" y="0" dx="0em" dy="0.95em" fill="rgb(50, 49, 63)" stroke="none" stroke-width="1px">350k</text><text style="text-anchor: middle; visibility: inherit; font-family: &quot;Helvetica Neue&quot;, sans-serif; font-size: 12px; font-weight: 200;" x="219.5672724463723" y="0" dx="0em" dy="0.95em" fill="rgb(50, 49, 63)" stroke="none" stroke-width="1px">400k</text><text style="text-anchor: middle; visibility: hidden; font-family: &quot;Helvetica Neue&quot;, sans-serif; font-size: 12px; font-weight: 200;" x="243.96363605152476" y="0" dx="0em" dy="0.95em" fill="rgb(50, 49, 63)" stroke="none" stroke-width="1px">450k</text><text style="text-anchor: middle; visibility: hidden; font-family: &quot;Helvetica Neue&quot;, sans-serif; font-size: 12px; font-weight: 200;" x="268.35999965667725" y="0" dx="0em" dy="0.95em" fill="rgb(50, 49, 63)" stroke="none" stroke-width="1px">500k</text></g><line x1="0" y1="0" x2="268.35999965667725" y2="0" fill="rgb(0, 0, 0)" stroke="rgb(204, 204, 204)" stroke-width="1px"></line></g></g></g></g></svg>