<svg viewBox="0 0 330 200" xmlns="http://www.w3.org/2000/svg"><g><g><g><g><g><line x1="61.640000343322754" y1="178.07699966430664" x2="56.640000343322754" y2="178.07699966430664" style="visibility: inherit;" fill="rgb(0, 0, 0)" stroke="rgb(204, 204, 204)" stroke-width="1px"></line><line x1="61.640000343322754" y1="155.81737470626828" x2="56.640000343322754" y2="155.81737470626828" style="visibility: inherit;" fill="rgb(0, 0, 0)" stroke="rgb(204, 204, 204)" stroke-width="1px"></line><line x1="61.640000343322754" y1="133.55774974822998" x2="56.640000343322754" y2="133.55774974822998" style="visibility: inherit;" fill="rgb(0, 0, 0)" stroke="rgb(204, 204, 204)" stroke-width="1px"></line><line x1="61.640000343322754" y1="111.29812479019164" x2="56.640000343322754" y2="111.29812479019164" style="visibility: inherit;" fill="rgb(0, 0, 0)" stroke="rgb(204, 204, 204)" stroke-width="1px"></line><line x1="61.640000343322754" y1="89.03849983215328" x2="56.640000343322754" y2="89.03849983215328" style="visibility: inherit;" fill="rgb(0, 0, 0)" stroke="rgb(204, 204, 204)" stroke-width="1px"></line><line x1="61.640000343322754" y1="66.77887487411493" x2="56.640000343322754" y2="66.77887487411493" style="visibility: inherit;" fill="rgb(0, 0, 0)" stroke="rgb(204, 204, 204)" stroke-width="1px"></line><line x1="61.640000343322754" y1="44.519249916076575" x2="56.640000343322754" y2="44.519249916076575" style="visibility: inherit;" fill="rgb(0, 0, 0)" stroke="rgb(204, 204, 204)" stroke-width="1px"></line><line x1="61.640000343322754" y1="22.25962495803836" x2="56.640000343322754" y2="22.25962495803836" style="visibility: inherit;" fill="rgb(0, 0, 0)" stroke="rgb(204, 204, 204)" stroke-width="1px"></line><line x1="61.640000343322754" y1="0" x2="56.640000343322754" y2="0" style="visibility: inherit;" fill="rgb(0, 0, 0)" stroke="rgb(204, 204, 204)" stroke-width="1px"></line></g><g transform="translate(51.640000343322754, 0)"><text style="text-anchor: end; visibility: hidden; font-family: &quot;Helvetica Neue&quot;, sans-serif; font-size: 12px; font-weight: 200;" x="0" y="178.07699966430664" dx="0em" dy="0.3em" fill="rgb(50, 49, 63)" stroke="none" stroke-width="1px">0.11</text><text style="text-anchor: end; visibility: inherit; font-family: &quot;Helvetica Neue&quot;, sans-serif; font-size: 12px; font-weight: 200;" x="0" y="155.81737470626828" dx="0em" dy="0.3em" fill="rgb(50, 49, 63)" stroke="none" stroke-width="1px">0.115</text><text style="text-anchor: end; visibility: hidden; font-family: &quot;Helvetica Neue&quot;, sans-serif; font-size: 12px; font-weight: 200;" x="0" y="133.55774974822998" dx="0em" dy="0.3em" fill="rgb(50, 49, 63)" stroke="none" stroke-width="1px">0.12</text><text style="text-anchor: end; visibility: inherit; font-family: &quot;Helvetica Neue&quot;, sans-serif; font-size: 12px; font-weight: 200;" x="0" y="111.29812479019164" dx="0em" dy="0.3em" fill="rgb(50, 49, 63)" stroke="none" stroke-width="1px">0.125</text><text style="text-anchor: end; visibility: hidden; font-family: &quot;Helvetica Neue&quot;, sans-serif; font-size: 12px; font-weight: 200;" x="0" y="89.03849983215328" dx="0em" dy="0.3em" fill="rgb(50, 49, 63)" stroke="none" stroke-width="1px">0.13</text><text style="text-anchor: end; visibility: inherit; font-family: &quot;Helvetica Neue&quot;, sans-serif; font-size: 12px; font-weight: 200;" x="0" y="66.77887487411493" dx="0em" dy="0.3em" fill="rgb(50, 49, 63)" stroke="none" stroke-width="1px">0.135</text><text style="text-anchor: end; visibility: hidden; font-family: &quot;Helvetica Neue&quot;, sans-serif; font-size: 12px; font-weight: 200;" x="0" y="44.519249916076575" dx="0em" dy="0.3em" fill="rgb(50, 49, 63)" stroke="none" stroke-width="1px">0.14</text><text style="text-anchor: end; visibility: inherit; font-family: &quot;Helvetica Neue&quot;, sans-serif; font-size: 12px; font-weight: 200;" x="0" y="22.25962495803836" dx="0em" dy="0.3em" fill="rgb(50, 49, 63)" stroke="none" stroke-width="1px">0.145</text><text style="text-anchor: end; visibility: hidden; font-family: &quot;Helvetica Neue&quot;, sans-serif; font-size: 12px; font-weight: 200;" x="0" y="0" dx="0em" dy="0.3em" fill="rgb(50, 49, 63)" stroke="none" stroke-width="1px">0.15</text></g><line x1="61.640000343322754" y1="0" x2="61.640000343322754" y2="178.07699966430664" fill="rgb(0, 0, 0)" stroke="rgb(204, 204, 204)" stroke-width="1px"></line></g></g><g transform="translate(61, 0)" clip-path="url(#clip_0)"><clipPath id="clip_0"><rect width="268" height="178"></rect></clipPath><g><g><g><line x1="0" y1="0" x2="0" y2="178.07699966430664" fill="rgb(0, 0, 0)" stroke="rgb(60, 60, 60)" stroke-width="1px" opacity="0.25"></line><line x1="24.396363605152477" y1="0" x2="24.396363605152477" y2="178.07699966430664" fill="rgb(0, 0, 0)" stroke="rgb(60, 60, 60)" stroke-width="1px" opacity="0.25"></line><line x1="48.79272721030495" y1="0" x2="48.79272721030495" y2="178.07699966430664" fill="rgb(0, 0, 0)" stroke="rgb(60, 60, 60)" stroke-width="1px" opacity="0.25"></line><line x1="73.18909081545742" y1="0" x2="73.18909081545742" y2="178.07699966430664" fill="rgb(0, 0, 0)" stroke="rgb(60, 60, 60)" stroke-width="1px" opacity="0.25"></line><line x1="97.5854544206099" y1="0" x2="97.5854544206099" y2="178.07699966430664" fill="rgb(0, 0, 0)" stroke="rgb(60, 60, 60)" stroke-width="1px" opacity="0.25"></line><line x1="121.98181802576238" y1="0" x2="121.98181802576238" y2="178.07699966430664" fill="rgb(0, 0, 0)" stroke="rgb(60, 60, 60)" stroke-width="1px" opacity="0.25"></line><line x1="146.37818163091484" y1="0" x2="146.37818163091484" y2="178.07699966430664" fill="rgb(0, 0, 0)" stroke="rgb(60, 60, 60)" stroke-width="1px" opacity="0.25"></line><line x1="170.77454523606733" y1="0" x2="170.77454523606733" y2="178.07699966430664" fill="rgb(0, 0, 0)" stroke="rgb(60, 60, 60)" stroke-width="1px" opacity="0.25"></line><line x1="195.1709088412198" y1="0" x2="195.1709088412198" y2="178.07699966430664" fill="rgb(0, 0, 0)" stroke="rgb(60, 60, 60)" stroke-width="1px" opacity="0.25"></line><line x1="219.5672724463723" y1="0" x2="219.5672724463723" y2="178.07699966430664" fill="rgb(0, 0, 0)" stroke="rgb(60, 60, 60)" stroke-width="1px" opacity="0.25"></line><line x1="243.96363605152476" y1="0" x2="243.96363605152476" y2="178.07699966430664" fill="rgb(0, 0, 0)" stroke="rgb(60, 60, 60)" stroke-width="1px" opacity="0.25"></line><line x1="268.35999965667725" y1="0" x2="268.35999965667725" y2="178.07699966430664" fill="rgb(0, 0, 0)" stroke="rgb(60, 60, 60)" stroke-width="1px" opacity="0.25"></line></g><g><line x1="0" y1="178.07699966430664" x2="268.35999965667725" y2="178.07699966430664" fill="rgb(0, 0, 0)" stroke="rgb(60, 60, 60)" stroke-width="1px" opacity="0.25"></line><line x1="0" y1="155.81737470626828" x2="268.35999965667725" y2="155.81737470626828" fill="rgb(0, 0, 0)" stroke="rgb(60, 60, 60)" stroke-width="1px" opacity="0.25"></line><line x1="0" y1="133.55774974822998" x2="268.35999965667725" y2="133.55774974822998" fill="rgb(0, 0, 0)" stroke="rgb(60, 60, 60)" stroke-width="1px" opacity="0.25"></line><line x1="0" y1="111.29812479019164" x2="268.35999965667725" y2="111.29812479019164" fill="rgb(0, 0, 0)" stroke="rgb(60, 60, 60)" stroke-width="1px" opacity="0.25"></line><line x1="0" y1="89.03849983215328" x2="268.35999965667725" y2="89.03849983215328" fill="rgb(0, 0, 0)" stroke="rgb(60, 60, 60)" stroke-width="1px" opacity="0.25"></line><line x1="0" y1="66.77887487411493" x2="268.35999965667725" y2="66.77887487411493" fill="rgb(0, 0, 0)" stroke="rgb(60, 60, 60)" stroke-width="1px" opacity="0.25"></line><line x1="0" y1="44.519249916076575" x2="268.35999965667725" y2="44.519249916076575" fill="rgb(0, 0, 0)" stroke="rgb(60, 60, 60)" stroke-width="1px" opacity="0.25"></line><line x1="0" y1="22.25962495803836" x2="268.35999965667725" y2="22.25962495803836" fill="rgb(0, 0, 0)" stroke="rgb(60, 60, 60)" stroke-width="1px" opacity="0.25"></line><line x1="0" y1="0" x2="268.35999965667725" y2="0" fill="rgb(0, 0, 0)" stroke="rgb(60, 60, 60)" stroke-width="1px" opacity="0.25"></line></g></g></g><g><g><line x1="0" y1="667.7887487411499" x2="268.35999965667725" y2="667.7887487411499" fill="rgb(0, 0, 0)" stroke="rgb(153, 153, 153)" stroke-width="1.5px"></line></g></g><g><g><line x1="24.396363605152477" y1="0" x2="24.396363605152477" y2="178.07699966430664" fill="rgb(0, 0, 0)" stroke="rgb(153, 153, 153)" stroke-width="1.5px"></line></g></g><g><g><g><g><g><path style="fill: none;" stroke="rgb(255, 112, 67)" stroke-width="2px" d="M26.411015311665967,-41.57571442334256L26.415894584387,17.86382100838506L26.420285929835927,68.15871183722177L26.43833923890374,59.36580642255586L26.442730584352667,27.51194276883632L28.412492981832678,67.83022368435485L28.417372254553708,89.13593334886072L28.426154945451565,101.3327185205153L28.439816909070448,105.85565999551444L28.444208254519374,79.55895370708643L28.453478872689335,73.12819658508317L28.45787021813826,34.12102301671928L28.462261563587187,14.373444563293504L30.400796615652606,41.913482272576886L30.40957930655046,67.25021551752103L30.418849924720416,90.6378717367955L30.423241270169346,107.77843011891883L30.436903233788232,114.98355597419682L30.44129457923716,121.6917452621989L30.445685924686085,107.60669215617679L30.45007727013501,102.31021101519357L30.454956542856042,101.16345905195381L32.40227428581932,118.61020732831747L32.40666563126824,135.03058589322265L32.41544832216609,150.5125692939581L32.42471894033605,141.3263980432763L32.42911028578498,132.63682877855697L32.43350163123391,130.85532784373578L32.43838090395494,119.73260542805268L32.45155494030172,121.43455042009464L32.45643421302275,114.07207739843946L32.460825558471676,107.06024629115053L32.465216903920606,108.9467525065584L34.40814330143495,121.92282647471383L34.4169259923328,134.32209502791207L34.421805265053834,146.18217591139594L34.44424991957058,126.1046715825116L34.4486412650195,114.56218988865518L34.45303261046843,106.00590023044278L34.45791188318946,107.65555049952921L34.46230322863839,111.65924959101551L34.46669457408732,106.01526272724814L36.42328293522054,109.90346259284313L36.459389553356175,106.78428451132594L36.46817224425403,112.76774537673847L38.40670729631944,122.95398011156136L38.41109864176837,132.7827112790389L38.442813914455066,129.4670636538762L38.455987950801855,128.36293587507188L38.46525856897181,121.10022662996951L38.469649914420735,126.26940949879143L40.408184966486154,135.27278331003643L40.42623827555396,143.99024556515934L40.43062962100289,144.67560273481217L40.435020966451816,145.33986489944493L40.4486829300707,140.33506077623156L40.453074275519626,135.47970724978137L40.46673623913852,117.96138290672039L42.418445327550714,126.20398705526243L42.42771594572067,121.75873979239233L42.43649863661853,106.91052501467044L42.44088998206745,92.47493162623691L42.44576925478849,80.14332323914259L42.45016060023741,76.57548288477155L42.45455194568634,73.10282780848132L42.45894329113526,66.43496106124176L42.46821390930522,68.0542646689079L44.41114030681957,76.04309028877438L44.42431434316635,83.8295658428988L44.429193615887385,86.72855911067975L44.43358496133631,81.82747783351668L44.44236765223416,75.5184048389545L44.447246924955195,64.83163803242917L44.451638270404125,48.428678309277444L44.46042096130198,44.21879366019621L44.465300234023005,35.72861001687991L44.47408292492086,40.42393590169527L46.412617976986276,47.86780112396042L46.421400667884136,55.1442816605457L46.425792013333066,58.06702797470854L46.439453976951945,48.48177403380376L46.457507286019755,30.89535054677566L46.461898631468685,19.10433402502298L46.46677790418971,22.309741599705347L46.47116924963864,25.447617707260832L48.41409564715298,32.46163614626278L48.41848699260191,39.330925645770094L48.42726968349977,46.05991668562473L48.43654030166973,44.99732253758552L48.44093164711866,42.69221140101868L48.44532299256758,41.68467266585918L48.45020226528862,41.937130850191295L48.45898495618647,43.413470032337045L48.46337630163539,44.86139319966128L50.42874735366647,49.901415971277316L50.4468006627343,39.30121191545999L50.46485397180211,34.825224100893536L50.469733244523134,23.383508173405147L50.474124589972064,23.797701063172752L52.42583367838426,28.82258143601794L52.43022502383319,33.756832889392086L52.435104296554215,30.65750854092076L52.439495642003145,27.613096365191154L52.45315760562203,24.622151303755174L52.45754895107096,18.36206218117107L52.47121091468985,19.89649294198108L52.47560226013877,18.137016698663416L54.41852865765311,23.97100245103931L54.42292000310204,29.706825130396L54.427311348550965,35.346938816211235L54.43658196672092,39.838439859984874L54.44097331216985,42.161941017261256L54.44536465761878,38.21280115066128L54.449756003067705,38.45247972686536L54.454635275788746,32.54724739889065L54.45902662123767,28.767642281165934L54.472688584856556,29.08115996634038L54.477079930305486,28.388779709105904L56.42000632781983,33.66946497338756L56.43805963688764,37.88223883355445L56.44245098233656,36.15356671855008L56.45123367323442,33.47856216319926L56.460504291404376,29.8781197843268L56.464895636853306,23.45454397598499L58.421483997986535,28.554420401116204L58.43465803433332,32.63338008324047L58.439537307054344,37.59206258437354L58.443928652503274,35.94769972562838L58.4483199979522,37.107285036993005L58.457590616122154,33.647376613735645L58.47564392518998,34.80911485518146L58.48442661608783,35.95446365216293L60.42735301360217,40.69412334660569L60.4317443590511,45.367842969064384L60.436135704500025,49.085977546427216L60.454189013567834,46.555720633931315L60.45906828628887,38.781479490578675L60.46785097718672,36.35784745302561L60.47712159535668,36.5731578875006L60.48590428625454,38.512417902430286L62.442492647387766,41.28405763445505L62.45127533828562,39.754741369989944L62.45566668373455,35.702287829478365L62.46932864735343,33.38782175574141L62.478599265523385,35.29127945485669L62.482990610972315,33.00710225948603L62.487381956421245,29.096609444463752L64.43030835393559,33.46469946339684L64.43469969938451,37.77773130943072L64.43909104483345,40.40992958706428L64.45714435390126,37.34814315058159L64.46202362662228,29.499371533357646L64.47080631752014,26.544713518070097L64.48446828113903,28.396835178677662L66.43617736955123,32.59848781251566L66.44056871500015,35.96310757969377L66.44544798772118,33.813563064221626L66.4498393331701,32.467359175116314L66.45862202406796,28.8167266686107L66.47228398768685,23.670564485870102L66.47667533313579,20.115061538886664L66.48155460585681,14.317748976416397L68.42887234882008,18.42930541700852L68.433263694269,22.49348534386141L68.44204638516686,25.76197293343037L68.46937031240462,24.521823885290786L68.47815300330248,24.037107081824047L68.48303227602352,26.508153645275314L68.48742362147244,28.951518228131675L68.49181496692138,32.827839899271964L70.4303500189868,36.66121423086821L70.43913270988465,40.45234915023266L70.44352405533357,41.3252728668694L70.46645663712242,40.04186838885457L70.47084798257134,35.92405150217573L70.47963067346919,33.976427485669944L70.48890129163915,34.87028944897227L70.49329263708809,35.754614669048266L72.43182768915351,39.42300894468346L72.44061038005135,43.052674161186815L72.44500172550028,46.644218632700586L72.4498809982213,49.509786659541476L72.45427234367024,50.97513716488018L72.4630550345681,51.061306404962L72.46793430728913,49.788898835870924L72.47671699818699,49.88093309908129L72.4811083436359,49.299426263797585L72.49037896180586,50.06287316883484L74.43330535932022,53.48457621580097L74.44208805021808,56.871949844320966L74.44647939566698,58.24402083123054L74.45135866838802,59.6024614334862L74.46014135928587,57.67437044310677L74.46453270473481,55.1135204915649L74.4781946683537,51.92888031416537L74.48258601380262,53.29742741935311L74.48746528652364,52.723067236116876L74.49185663197258,52.15424937711816L76.43478302948691,55.416933041568655L76.43917437493585,58.648430931819206L76.44356572038478,61.84918645219997L76.44795706583369,64.39007413393625L76.47088964762254,58.75722033047536L76.48894295669035,57.54716048700456L76.49333430213929,58.213425064445644L78.43626069965362,61.34987872722316L78.44943473600041,63.22423365411318L78.48115000868711,61.397280435272066L78.48554135413603,60.198575979543634L80.43773836982032,63.27389919920786L80.44212971526926,66.32127967854862L80.44652106071818,68.73698732889873L80.45579167888815,69.92756404694978L80.464574369786,65.71384889327913L80.47384498795597,61.537744921774376L80.48262767885382,59.18243162366643L82.45726934905485,60.40131127693559L82.46166069450378,59.24980547142813L82.46605203995271,57.52078132920292L82.47044338540165,56.39220283181524L82.4797140035716,55.856530478953744L82.48410534902052,54.744638455842306L82.49776731263941,53.642333197960085L84.44508505560269,56.58462215533655L84.47192105556834,59.50175657519435L84.47680032828937,61.82194445684128L84.48119167373831,63.55249057656994L84.48558301918725,64.70057707897503L84.48997436463615,66.40475619449865L84.49924498280612,66.40369061365048L84.50363632825504,66.40263391806813L86.44217138032046,69.19927300756326L86.45095407121832,71.97278262152753L86.45534541666724,74.16796306742037L86.46022468938828,75.23817057960918L86.46900738028613,71.88765830906732L86.47827799845608,71.86157830984392L86.48266934390502,70.74056058239321L86.50072265297284,71.81114090029617L88.45243174138503,74.50425746031061L88.46609370500391,73.92495286443614L88.47048505045284,73.89018710515255L88.47975566862279,72.24157476476859L88.48414701407172,68.46129520684632L88.49292970496958,67.38248667643103L88.50220032313955,65.77965141365686L90.44951806610281,68.43481767976455L90.48123333878951,68.42489467837794L90.49440737513629,70.52340472868406L90.49928664785732,72.60568251762452L92.4466043908206,75.19546556594989L92.45099573626952,77.76536749994156L92.45538708171844,80.31561510619369L92.4646576998884,81.80974202051493L92.46904904533733,81.2259841195941L92.47344039078627,80.64664095969664L92.47783173623519,78.01863732332467L92.48710235440515,75.41036170345944L92.50954700892188,75.88115922548786L94.4480820609873,78.38157545053843L94.47491806095297,79.34348239427457L94.48418867912292,79.28822017164556L94.48858002457186,80.2401993592537L94.49297137002078,80.1815482234783L94.4973627154697,81.12379277714531L94.50224198819075,81.06184910762262L94.50663333363966,82.49164255694811L94.51102467908859,82.42445235605025L96.44955973115401,84.82776408366381L96.45395107660293,87.21379837867629L96.45834242205186,89.58273970383982L96.46761304022182,90.95587422097381L96.4807870765686,88.41563365866158L96.48566634928963,88.81218816448988L96.49005769473857,83.87106519183835L96.49884038563641,80.89882161749543L96.50371965835745,77.46536331916978L98.45103740132072,79.82338922478125L98.45982009221858,82.16498425564157L98.46909071038854,84.01255507683769L98.47348205583745,82.03655336184448L98.48714401945634,81.0240667871134L98.49153536490527,80.49208776791585L98.4959267103542,79.49159207892346L98.50519732852416,78.96871280659717L98.50958867397308,79.85764361542631L98.51398001942201,76.9960709482863L100.45690641693635,79.28765861421897L100.46568910783421,80.63306354943494L100.47056838055524,81.50539268353202L100.48374241690202,80.05829148022144L100.48862168962305,78.15944069138405L100.49301303507198,75.8131178714336L100.4974043805209,74.85876445120313L100.50179572596984,72.99568076805733L100.50667499869087,72.05734729688879L100.51106634413979,72.03511329584302L100.51545768958873,72.9204398296847L102.45838408710306,75.15735257757606L102.462775432552,77.37971924302133L102.4808287416198,75.53794128566933L102.48522008706873,75.05428923921136L102.49009935978977,74.12623231791173L102.49888205068761,72.75782829196183L102.50327339613655,71.84328413351756L102.50815266885758,70.49067362624405L102.5125440143065,72.24564983293334L104.45547041182085,74.43102509194291L104.4642531027187,76.60258392170844L104.46864444816762,77.88208579523497L104.47352372088865,77.40145116632316L104.48230641178651,77.36069806273088L104.49157702995647,75.14157766307879L104.50035972085432,74.24002947001254L104.50475106630326,72.47717147633199L104.50963033902428,73.31919140760782L106.45694808198756,75.44964533750793L106.47500139105536,74.9864022883505L106.4793927365043,74.5260004557692L106.48817542740215,72.78472477219017L106.49305470012318,70.20045487960122L106.50183739102104,69.33477815328301L106.51989070008885,68.47434825859594L108.45842575215427,70.58412090945627L108.46720844305213,72.25867428112183L108.47647906122208,70.97302750169563L108.49453237028989,70.53587519130099L108.50770640663667,70.10133396664752L108.5125856793577,69.25106952194277L108.52136837025554,70.07496474427076L110.45990342232098,72.14273207891702L110.4642947677699,74.19829048868226L110.46868611321884,75.82753296554428L110.47307745866776,76.20759699859084L110.47795673138879,76.99763737901944L110.48234807683772,78.60547319366907L110.48673942228663,75.28140625990326L110.49113076773557,74.02276415387057L110.50918407680338,73.58789918742738L110.5140633495244,71.11918803462626L110.52284604042227,69.88359337107042L112.46577243793661,71.89780186189736L112.4794344015555,71.06981415591986L112.48821709245335,69.43969566893401L112.49260843790228,68.62381954179493L112.49748771062332,67.8125749357855L112.51066174697009,67.80713038399759L112.51554101969111,67.8017165704699L112.51993236514005,68.19507997630679L112.52432371058897,68.98406104352058L114.46285876265439,70.95935661659253L114.47164145355225,72.92362090579637L114.47603279900117,74.08675434610078L114.4809120717222,75.24342704598425L114.48969476262006,74.4271923050835L114.49408610806898,71.26100921775618L114.49896538079003,71.24446698386318L114.50335672623895,70.05608403658981L114.50774807168787,69.65375106640789L114.5121394171368,68.47582273737181L114.52141003530676,68.46841012835924L114.52580138075568,68.84820740650585L116.47311912371894,70.77119668235422L116.49117243278677,70.75647978436201L116.50483439640566,70.74184228771367L116.50922574185458,71.49482421681124L116.5136170873035,71.86083267760058L116.51849636002454,71.46068595990702L116.52288770547347,71.82521266642297L116.52727905092239,72.18779793913042L118.4658141029878,74.06694787456372L118.47020544843674,75.93614079909571L118.47898813933459,77.0394660653578L118.48386741205562,76.25104199307542L118.48825875750454,76.97229613758533L118.50631206657236,74.68509699085936L118.52436537564017,72.40986415635123L118.5287567210891,72.01649376062677L120.47168311860345,73.86443620768515L120.47607446405237,75.70278301762224L120.4804658095013,77.15995840152674L120.48534508222234,78.60960489120814L120.48973642767125,79.31157192060658L120.49412777312018,80.37926725644861L120.50778973673907,79.59861412149607L120.51218108218801,78.45413909225401L120.51657242763693,78.04962615955058L122.47316078877016,79.84502925373414L122.48194347966802,81.63131453316012L122.48682275238905,82.6789132881333L122.49121409783797,82.62898164536276L122.49560544328689,82.9426442653711L122.50487606145684,82.16689851670904L122.51805009780364,81.75692659549667L122.52292937052466,81.71016313504474L124.47024711348793,83.46580841950825L124.47463845893687,85.2127084493391L124.47902980438579,86.95092753742918L124.48342114983473,88.32223715140492L124.48830042255575,90.04434959265578L124.49708311345361,90.68732131701762L124.51074507707249,89.54622301701453L124.51513642252141,86.6333077341999L124.52440704069137,86.927780320124L126.47172478365465,88.6372164867249L126.47611612910357,90.33831676598666L126.4805074745525,92.03114113803535L126.48977809272246,92.30754603658345L126.49416943817138,92.5826124528857L126.49856078362032,90.75214664127621L126.50295212906924,89.28053408171411L126.50783140179027,86.76790854555134L126.5122227472392,85.66213689265209L126.51661409268812,85.25773683747228L126.52100543813705,84.85526822693478L126.53466740175594,85.14817193827292L128.47320245382136,86.82398754554427L128.49125576288915,87.4555698208022L128.4956471083381,87.39459701335862L128.50442979923596,85.95734812667072L128.51370041740591,84.5268709169994L128.52248310830376,83.78885039065813L128.5273623810248,83.39652474130739L128.5317537264737,84.37244719535057L128.53614507192265,83.63893268570239L130.47468012398807,85.29129842970084L130.479071469437,86.93598259911897L130.48785416033485,88.57303781784105L130.4971247785048,89.18702628508983L130.50590746940267,88.10875918832522L130.51956943302156,87.37273486419859L130.52396077847047,86.30342760304157L130.5288400511915,85.57508899061617L130.53323139664045,85.18554612727564L130.53762274208935,84.79778264862617L132.4805491396037,86.41738614677948L132.48933183050156,87.36227689656857L132.49860244867153,87.96979683329793L132.50299379412044,88.5745656155478L132.5122644122904,88.18087318405128L132.52543844863717,88.45160950844986L132.53470906680715,88.72112767317661L132.53910041225606,87.99892746479706L134.47763546432148,89.5871250831873L134.49080950066826,91.16822226233718L134.50447146428715,92.41381309395133L134.5088628097361,92.34231699987451L134.51813342790604,91.28917596054269L134.52691611880388,92.20125564101073L134.53618673697386,92.7831015166405L134.54057808242277,91.0828861845171L136.49228717083497,92.64103153974158L136.50155778900492,94.19232709522028L136.50594913445386,95.41283222096975L136.5103404799028,96.30455666379018L136.5152197526238,96.86949300651209L136.52400244352168,97.1096165853027L136.52839378897062,98.31412352016761L136.53327306169163,98.54958654475233L136.53766440714057,98.78402932132006L138.48937349555277,99.9780654731788L138.49864411372272,100.52760646622752L138.50303545917166,101.71306598627042L138.50742680462056,100.98173413513753L138.51181815006947,100.88972283767608L138.51669742279051,99.52782568741374L138.53475073185834,100.07404703860533L138.53914207730728,100.93447237644588L138.5435334227562,101.47521983512621L140.4820684748216,102.96018367739926L140.49524251116839,104.1238618950486L140.50012178388943,104.65365027064335L140.50451312933836,104.55324727592814L140.50890447478727,104.45326719521225L140.51329582023618,103.41479498106222L140.52256643840616,102.06820921146662L140.5269577838551,100.41528979163428L140.53134912930403,98.45780154260386L140.53622840202505,95.88651330356338L140.54501109292292,94.2573986210183L142.49232883588618,95.73505328336456L142.50159945405613,95.96853221387335L142.50599079950507,95.8920187304226L142.51477349040292,95.19873625016605L142.51965276312396,93.89219054305276L142.52404410857287,94.12892329513706L142.53282679947074,94.97888933024521L142.53770607219175,94.59886529909426L142.54648876308963,92.07732713409861L144.48502381515502,93.53993035130725L144.50746846967178,93.16531174541699L144.51625116056962,92.79221670003263L144.52113043329066,91.81208453820838L144.52552177873957,90.5321121350347L144.52991312418848,90.47071036349666L144.53430446963745,90.40955641740955L144.53918374235846,89.7437906215316L144.5435750878074,89.38267395653548L146.48650148532172,90.83210731733391L146.4908928307707,92.27573455691346L146.4952841762196,93.71358977445666L146.50894613983849,94.2452205156038L146.5133374852874,93.87559120328751L146.51772883073633,92.31035974667677L146.52260810345737,91.05016332865246L146.53139079435522,89.49657806496683L148.4923705009374,90.9285350680116L148.4967618463863,92.05733997789844L148.50115319183521,93.47876160944215L148.5104238100052,92.81820049243525L148.528477119073,90.67926390179974L148.54213908269188,89.73175201639151L150.48945682565514,91.15059126615914L150.50263086200195,91.67918697273993L150.507510134723,91.91124855213972L150.5162928256208,90.37811414732096L150.52068417106975,88.26368154612554L150.5255634437908,87.6234556860476L150.5299547892397,86.10736042940759L150.53873748013757,84.88948174910128L150.54361675285858,83.67629695971286L150.54800809830752,82.46777958067432L150.55239944375646,81.55501878933269L152.49093449582185,82.97137975059842L152.49532584127078,84.38232079350814L152.49971718671972,85.7878722667149L152.50410853216866,87.18806429283525L152.5089878048897,88.29385880012524L152.51777049578754,88.52946236169745L152.52216184123645,87.61113296704836L152.5314324594064,87.2719967770049L152.54021515030428,86.07176882986866L152.5450944230253,86.02430555466414L152.55387711392316,85.9770210395946L154.4968035114375,87.36124458135923L154.50119485688643,88.74027293143253L154.50558620233537,90.11413459616365L154.5104654750564,91.48285787384924L154.52363951140316,91.70767944063836L154.5285187841242,92.21597257086968L154.53291012957314,91.58668442897167L154.53730147502205,90.39265975500582L154.546572093192,89.76936816404002L154.55096343864093,89.14838372700785L156.52072583612096,89.65924987533947L156.53438779973985,89.88622231868708L156.53877914518876,90.95725088762103L156.54804976335873,91.18058118710628L156.55244110880764,91.40309184318315L156.55683245425658,91.06378011020658L158.495367506322,92.4064935401751L158.50854154266878,93.7443040667916L158.5134208153898,95.07723782954477L158.52220350628767,96.4053207825597L158.52659485173658,97.17127364378071L158.53147412445762,98.21273473071996L158.53586546990655,97.58289594115891L158.54952743352544,98.3431235598868L160.51928983100547,99.37780330859096L160.52368117645437,100.13192050266699L160.52807252190328,98.39504920458566L160.53734314007326,97.49276514582189L160.54612583097114,97.14523531534158L160.55100510369215,97.34975709069974L160.55539644914106,97.82859757031768L162.4983228466554,99.12981841477594L162.50271419210432,100.42640504310992L162.5071055375533,101.71838152253143L162.5114968830022,102.7321277644989L162.5163761557232,103.74228128914659L162.52955019207,104.47591193571449L162.53442946479106,104.38914234652965L162.53882081023997,103.48590359869998L162.56126546475673,103.12967530410164L164.50419186227103,104.40413626168557L164.50858320772,105.67412427137349L164.51785382588992,106.93966220753401L164.52224517133888,107.93021921342795L164.5310278622367,108.64710022436057L164.55835178947447,109.09160140460337L164.56274313492344,108.45637514661111L166.50566953243774,109.70783449837585L166.5100608778867,110.95495061286069L166.5144522233356,112.19774544001234L166.53250553240343,110.75407715934708L166.53738480512447,109.85116941613326L166.54177615057338,108.41625768198868L166.5461674960223,107.52075031507121L166.55055884147123,106.09450949592723L166.55982945964118,105.73948919461053L168.50275585715553,106.98323138570147L168.50714720260447,108.22271799979302L168.5115385480534,109.45797022366033L168.51592989350232,110.6890091037902L168.52080916622333,111.38590740599241L168.5252005116723,111.28646842178358L168.5295918571212,110.3943505131938L168.54764516618903,109.76927947342611L168.55691578435898,109.14632401831456L168.5613071298079,108.26207978422717L170.52228683639007,109.22238713777223L170.5310695272879,109.39115113108805L170.5403401454579,107.45967837515826L170.5447314909068,106.8454374018222L170.54912283635574,106.75693708424109L170.55839345452569,106.93026575237607L172.50571119748895,108.14791960583061L172.5101025429379,109.3615086895296L172.52376450655677,110.31043663645359L172.53254719745462,109.17370599022006L172.5462091610735,108.56077282809122L172.5598711246924,106.65133092101989L172.56426247014133,106.30466317549394L174.50718886765566,107.51379323810936L174.5115802131046,108.71892942597411L174.5159715585535,109.66157844122782L174.52036290400247,110.60112310815093L174.52524217672348,110.76381734877216L174.52963352217242,111.18360314337183L174.53402486762135,111.34468056707523L174.5432954857913,110.22003392704495L174.5476868312402,109.61255874179952L174.55207817668915,109.00706633370291L174.56574014030804,108.91588144304835L174.57013148575695,109.33674951192785L176.5130578832713,110.5230204197218L176.54916450140695,110.68422950360366L176.55355584685586,110.07986502594417L176.55794719230477,109.47745583530165L176.5628264650258,107.85920212247088L176.56721781047474,107.77115480090515L178.5101442079891,108.95280073566292L178.514535553438,110.13064595218269L178.51892689888692,111.30470817163997L178.52331824433588,111.96892469959869L178.5325888625058,111.61996876558523L178.53698020795477,110.76716176212086L178.54137155340368,109.16045879680519L178.55064217157366,109.3223910307234L178.55503351702257,109.23215271781615L178.56430413519254,109.6449625668068L180.54284922357039,109.554247526354L180.55651118718927,109.46382009450953L180.5609025326382,109.37367895070396L180.56578180535925,108.78323912703101L180.57017315080816,109.44477184722007L182.51309954832251,110.60372408952445L182.51749089377142,111.75902794404578L182.52188223922036,112.91070003591976L182.5311528573903,114.05875688954579L182.5443268937371,114.45716279498512L182.5492061664581,114.6059024774759L182.55359751190707,114.25786760635373L182.55798885735598,114.40670201259641L182.56238020280492,114.802701478172L182.56725947552596,114.70273386727139L182.57165082097487,115.09728958585305L182.57604216642378,116.2311591179577L184.51896856393813,117.3615138544721L184.527751254836,118.48836954985622L184.53263052755702,118.87352975089006L184.5414132184549,119.01168710192037L184.5506838366248,118.41274539186671L184.5594665275227,116.83443798329344L184.56385787297162,116.48622201547263L184.56873714569267,116.13907507372721L184.57312849114157,115.05936892523727L184.5775198365905,114.715835303511L186.51605488865593,115.83757694810356L186.53410819772373,115.9807462458476L186.5565528522405,114.41872041889323L186.5609441976894,114.80775339289903L186.57021481585937,114.95256390066149L186.57460616130828,115.33972652058694L186.57899750675722,114.75553521788795L188.52631524972048,115.86920483578854L188.53070659516942,116.97950623753536L188.53558586789043,118.08645412726669L188.5443685587883,119.19006312377871L188.55363917695826,120.29034776114273L188.5580305224072,120.9051639219795L188.57169248602608,120.31394514905631L188.58047517692393,119.00271055396992L190.52340157443828,120.09896785478884L190.5277929198872,121.19194490889579L190.53706353805714,122.28165587255636L190.54145488350608,122.88883511501022L190.55511684712496,123.01539985553384L190.5595081925739,122.66325648102686L190.56389953802284,123.02894907632552L190.5731701561928,123.8709449726122L190.5775615016417,124.71044463041588L190.58195284709063,125.30923274409056L192.524879244605,126.38223582691766L192.5292705900539,127.4520702960671L192.5336619355028,128.51874963329118L192.53854120822388,129.34498998731084L192.54293255367278,130.40586673988122L192.54732389912172,131.22678998636724L192.55659451729167,130.62565751442799L192.56976855363845,130.02628640248136L192.5746478263595,129.90097259794078L192.58343051725734,129.54010051411834L194.53513960566954,130.5944700665159L194.54001887839058,131.64576614897896L194.5488015692884,131.28251887000312L194.55319291473737,131.15535038598006L194.56685487835625,130.55895339613048L194.5761254965262,129.72971035665287L194.58490818742405,128.90286911321846L196.5278345849384,129.9514695688307L196.5322259303873,130.9970406154717L196.53661727583625,131.33852674481173L196.5414965485573,131.67902882207545L196.55027923945516,131.08555059207325L196.56394120307402,130.26074690912554L196.56833254852296,128.97268465346357L196.5776031666929,128.3861027382687L196.58199451214185,128.49833749039772L196.58638585759076,128.8424140744009L198.5293122551051,129.88134932143882L198.5473655641729,130.68558851907227L198.55614825507078,129.63539370335747L198.5610275277918,128.58818738993153L198.56981021868967,128.0061391533692L198.57420156413858,128.11837822114018L198.57908083685962,128.4609655531803L198.58347218230855,128.34167271048207L198.58786352775746,127.5319841594016L200.5263985798229,128.56485605567624L200.5444518888907,129.3649895345815L200.5488432343396,129.7036373057979L200.55323457978855,129.58251756147814L200.5576259252375,128.7741397190741L200.5625051979585,127.51004678471278L200.57128788885638,126.93585484508426L200.58055850702635,127.27758927571846L200.58494985247526,127.84674196578368L200.58934119792417,127.72979713952789L202.52787624998962,128.753002964387L202.53226759543853,129.77335737608269L202.53665894088743,130.79087176871195L202.55032090450632,130.66878101112576L202.5639828681252,131.00133571145707L202.57276555902308,130.19820939868978L202.58203617719306,130.0775601574515L202.58642752264197,129.50414380583553L202.59081886809088,129.83771429616735L204.52935392015632,130.8488179389908L204.53374526560523,131.8571343056505L204.55179857467303,132.63692004564837L204.56985188374085,131.8356643108251L204.57863457463873,131.26196906842196L204.58351384735974,131.36533695731848L204.58790519280868,131.91835565477857L206.53083159032303,132.9194038213409L206.53522293577194,133.91771533781184L206.53961428122088,134.91330091337963L206.55327624483976,133.88847658627776L206.56693820845862,132.41845415995542L206.57132955390756,132.2952441519225L206.5757208993565,131.72514931966538L206.58499151752645,132.49711005233854L206.58938286297538,133.26697774011734L206.59377420842432,134.03476050014373L208.53670060593865,135.02331216080572L208.54109195138759,136.00919290811376L208.55036256955754,136.9924130606168L208.55475391500647,137.97298288390175L208.55914526045538,138.50673271122594L208.56353660590432,138.15143818507684L208.56841587862536,137.57538286520844L208.57280722407427,137.44393004823186L208.58158991497214,136.64880277472443L208.58646918769315,135.63464745271096L210.53378693065642,136.61194607475556L210.55623158517318,137.36584789210107L210.57428489424098,137.23532867340404L212.544047291721,138.2072510636034L212.5484386371699,139.17658659316822L212.55331790989095,140.14334509290273L212.5577092553399,140.88766574878295L212.5621006007888,141.4103232582105L212.57576256440768,142.1511035534844L212.58015390985665,142.2319431058395L212.58942452802657,142.31256896051337L212.5938158734755,141.51711553075182L214.53674227098983,142.47405794587814L214.5411336164388,143.4284792671836L214.5455249618877,144.38038896860434L214.54991630733662,145.3297964767873L214.5591869255066,145.18633894600075L214.56796961640447,144.171667858259L214.57284888912548,143.59509669843055L214.5772402345744,143.89021350443457L214.58602292547226,143.74982064920377L214.59090219819328,143.3926004158968L214.59529354364224,142.1682349595315L216.53821994115654,143.11550877881427L216.54700263205442,144.06031749376325L216.5743265592922,143.27068788823564L216.58310925019006,142.05045898406277L216.60116255925786,141.48185206611006L218.53969761132325,142.42658114330013L218.5440889567722,143.3688652865112L218.56214226584,142.1523366198546L218.58458692035677,141.58535027091688L218.58897826580568,141.2351233150303L220.54117528148996,142.1765604652725L220.55434931783677,142.9006169334948L220.5592285905578,143.62281184683127L220.57240262690456,144.12853185547965L220.5772818996256,143.34624193712807L220.58606459052345,142.13738797324754L220.5904559359724,140.50339402399862L220.5953352086934,139.7293799882353L220.59972655414236,139.17112711228074L222.5426529516567,140.10962590670482L222.54704429710563,141.04573266486062L222.56070626072452,141.55288088408764L222.56509760617342,141.63249343339086L222.56948895162236,140.64711038371507L222.57388029707127,139.87702291295415L222.5787595697923,138.4709934894853L222.5968128788601,138.34333528312897L224.5441306218234,139.27752910186393L224.54852196727234,140.20936219366286L224.55291331272124,141.13884303102282L224.55730465817018,142.0659800460689L224.56657527634013,142.7791220635682L224.57096662178907,142.4329746030142L224.57535796723798,142.51037488571257L224.58023723995902,142.58758081784137L224.58462858540796,142.45357338175762L224.58901993085686,142.31990172634622L224.5934112763058,142.3972668773358L224.59829054902684,142.4744385829475L224.60268189447575,142.5514175293374L226.54999963743904,143.46912050211978L226.5587823283369,144.38453603678605L226.58171491012573,144.6679258274521L226.58610625557466,143.9018142334038L226.59049760102357,143.13760625559559L226.59976821919355,142.3752951888032L228.55147730760572,143.28921872641178L228.56513927122464,143.9917400356435L228.57392196212248,143.4386181221827L228.59197527119028,143.51335427077763L228.59636661663924,144.00525938444972L228.60124588936026,144.4959510575443L228.60563723480917,144.9854335298526L230.55295497777243,145.89014806669488L230.5617376686703,146.5845711859467L230.56661694139132,147.277288319372L230.57100828684028,147.96830540045835L230.5753996322892,148.2424028141972L230.5797909777381,148.72329114845144L230.58906159590808,148.9956908161344L230.593452941357,148.64593764942128L230.60711490497587,148.71106429563648L230.61150625042484,148.77603208385582L232.55443264793914,149.66770248862446L232.5588239933881,150.55720232025408L232.563215338837,151.44453905120315L232.58614792062588,150.67954924422358L232.59053926607479,151.1531607221458L232.5949306115237,148.74194261399575L234.56469300900372,149.62985593725043L234.56957228172473,150.51562086255842L234.5739636271737,150.98816729540718L234.58274631807154,150.63799971232203L234.58762559079258,150.69917304578232L234.5920169362415,150.55509565387422L234.59640828169043,149.7964881990046L234.60079962713937,149.03970530170815L234.60567889986038,148.28474076482135L234.6100702453093,147.12253299679287L236.55299664282364,148.00695951234863L236.56177933372152,148.8892672831749L236.56617067917043,149.76946347369324L236.57104995189147,150.2396398313389L236.5798326427893,150.91250918004232L236.58422398823825,150.76907426199L236.5934946064082,149.40477909406692L236.60227729730607,149.6708772314425L236.6071565700271,149.12333140477648L236.61593926092496,148.3739743050973L238.55447431299035,149.25018097629427L238.57252762205817,149.92147539293694L238.5769189675071,150.59117892129876L238.58131031295602,150.85418480795903L238.58570165840496,151.1165686134224L238.590580931126,150.9737730415032L238.5949722765749,150.62917256951624L238.59936362202384,149.88137542966115L238.6086342401938,148.52973741945138L238.61302558564273,147.98820446108144L238.61741693109167,148.0527284510194L240.55595198315706,148.92293451503699L240.57400529222488,149.79109815001453L240.58278798312273,149.651290071074L240.58717932857166,149.9139136732836L240.5920586012927,149.5731708080915L240.60084129219055,148.22931055994928L240.6101119103605,147.8918325656604L240.61889460125838,146.55256823881453L242.5618209987727,147.42061963542963L242.56621234422164,148.28664917422225L242.57060368967058,149.1506634789797L242.57987430784053,149.0127570663343L242.58426565328946,148.8751709516481L242.58865699873837,147.14015918946637L242.5935362714594,146.60668791116527L242.59792761690832,144.47881210877594L242.60231896235726,143.15315549986818L242.60671030780617,142.02975658254735L242.6115895805272,140.3117640897357L242.61598092597615,139.99026287642323L244.5632986689394,140.8623182320915L244.56769001438835,141.7323652451193L244.5769606325583,141.40914817820516L244.58135197800723,141.28508880789852L244.59501394162612,140.56645616859086L244.59940528707506,139.84947238035735L244.60379663252397,140.32230934758815L244.60818797797288,140.39825998502735L244.61306725069392,140.86958525992944L244.62184994159176,140.35159819117072L246.573559030004,141.0199144074317L246.58282964817394,141.48931231333506L246.58722099362288,141.95764017160403L246.5916123390718,142.03061945522347L246.60527430269067,141.70940237803208L246.60966564813958,141.7826948455776L246.61893626630956,142.64287878040554L246.62332761175847,143.1078316894012L248.56186266382392,143.96476032282186L248.5706453547218,144.8197479777437L248.5750367001707,145.6728008148303L248.5799159728917,146.1316396299567L248.58430731834065,145.80536547481682L248.5930900092385,145.67572355419995L248.60236062740847,145.35060101579307L248.61114331830632,144.63491029495134L248.61602259102736,144.31188614947067L248.62480528192518,144.3803997188072L250.56334033399062,145.2298947661462L250.56773167943953,146.07748302484862L250.57212302488847,146.92317048493192L250.58139364305842,146.79236364880654L250.5945676794052,146.2722512848762L250.59944695212624,144.9745877135902L250.60383829757518,145.04173262343068L250.6082296430241,143.94209714629028L250.61262098847303,144.20514558237582L250.62189160664298,143.88500990000162L250.6262829520919,143.95374724899494L252.56481800415733,144.79817667068068L252.56920934960624,145.64072920615808L252.57360069505518,146.48141068572826L252.5779920405041,147.12662078225785L252.58287131322513,147.96388887985145L252.5872626586741,148.21919051511546L252.5960453495719,148.28067378529556L252.60092462229298,147.9557485802012L252.6053159677419,146.66644357373758L252.62336927680968,146.34449892326194L254.57068701977295,147.17998408084074L254.57507836522188,147.82095789182057L254.57946971067082,148.4605207579765L254.5931316742897,148.32891981021808L254.59752301973865,147.42831181063295L254.6024022924597,147.1063082404294L254.6067936379086,146.01663403226445L254.6111849833575,145.69726697048196L254.62045560152748,146.33792656900496L254.6248469469764,146.40193008176234L254.62923829242533,146.84906908005573L256.5765560353886,147.6782798400901L256.58094738083753,148.31427016087505L256.5902179990075,147.60978857068997L256.5946093444564,146.71565657368254L256.5990006899053,145.82347074564132L256.61266265352424,144.1693840470566L256.62193327169416,144.42737399506603L256.6263246171431,144.30333095626705L256.63071596259203,143.22643254773084L258.5692510146574,144.05700383996975L258.5736423601064,144.88577656503116L258.5780337055553,145.71275614522273" fill="none"></path></g></g></g></g><g opacity="0.2"><g><g><g><path style="fill: none;" stroke="rgb(255, 112, 67)" stroke-width="2px" d="M30.45007727013501,-54.145001408759896L30.454956542856042,66.17729028289175L32.40227428581932,667.7887487411499L32.42911028578498,-174.46735943926348L32.43350163123391,66.17729028289175L32.43838090395494,-294.7896511309151L38.442813914455066,-54.145001408759896L38.455987950801855,66.17729028289175L38.46525856897181,-294.7896511309151L48.44532299256758,-54.145001408759896L48.45020226528862,66.17729028289175L48.45898495618647,186.49954880511743L50.469733244523134,-1137.0456929724767L50.474124589972064,66.17729028289175L52.42583367838426,547.4664487571418L54.44536465761878,-415.1119428225668L54.449756003067705,66.17729028289175L54.454635275788746,-655.75652620587L54.45902662123767,-415.1119428225668L54.472688584856556,66.17729028289175L54.477079930305486,-54.145001408759896L60.46785097718672,-294.7896511309151L60.47712159535668,66.17729028289175L60.48590428625454,306.8218736661951L72.45427234367024,306.8218736661951L72.4630550345681,66.17729028289175L72.46793430728913,-174.46735943926348L72.47671699818699,66.17729028289175L72.4811083436359,-54.145001408759896L84.48997436463615,427.1441487731337L84.49924498280612,66.17729028289175L84.50363632825504,66.17729028289175L86.44217138032046,667.7887487411499L86.46900738028613,-655.75652620587L86.47827799845608,66.17729028289175L86.48266934390502,-174.46735943926348L88.46609370500391,-54.145001408759896L88.47048505045284,66.17729028289175L88.47975566862279,-294.7896511309151L90.44951806610281,667.7887487411499L90.48123333878951,66.17729028289175L90.49440737513629,547.4664487571418L94.47491806095297,306.8218736661951L94.48418867912292,66.17729028289175L94.48858002457186,306.8218736661951L94.49297137002078,66.17729028289175L94.4973627154697,306.8218736661951L94.50224198819075,66.17729028289175L94.50663333363966,427.1441487731337L94.51102467908859,66.17729028289175L96.44955973115401,667.7887487411499L100.50667499869087,-174.46735943926348L100.51106634413979,66.17729028289175L100.51545768958873,306.8218736661951L104.47352372088865,-54.145001408759896L104.48230641178651,66.17729028289175L104.49157702995647,-535.4341681753665L112.49748771062332,-174.46735943926348L112.51066174697009,66.17729028289175L112.51554101969111,66.17729028289175L112.51993236514005,186.49954880511743L114.49408610806898,-896.4011095891733L114.49896538079003,66.17729028289175L114.50335672623895,-294.7896511309151L114.5121394171368,-294.7896511309151L114.52141003530676,66.17729028289175L114.52580138075568,186.49954880511743L116.47311912371894,667.7887487411499L116.49117243278677,66.17729028289175L116.50483439640566,66.17729028289175L116.50922574185458,306.8218736661951L122.48682275238905,427.1441487731337L122.49121409783797,66.17729028289175L122.49560544328689,186.49954880511743L122.51805009780364,-54.145001408759896L122.52292937052466,66.17729028289175L124.47024711348793,667.7887487411499L128.49125576288915,306.8218736661951L128.4956471083381,66.17729028289175L128.50442979923596,-415.1119428225668L134.50447146428715,547.4664487571418L134.5088628097361,66.17729028289175L134.51813342790604,-294.7896511309151L138.50742680462056,-174.46735943926348L138.51181815006947,66.17729028289175L138.51669742279051,-415.1119428225668L140.50012178388943,306.8218736661951L140.50451312933836,66.17729028289175L140.50890447478727,66.17729028289175L140.51329582023618,-294.7896511309151L142.50159945405613,186.49954880511743L142.50599079950507,66.17729028289175L142.51477349040292,-174.46735943926348L144.52552177873957,-415.1119428225668L144.52991312418848,66.17729028289175L144.53430446963745,66.17729028289175L144.53918374235846,-174.46735943926348L152.54021515030428,-415.1119428225668L152.5450944230253,66.17729028289175L152.55387711392316,66.17729028289175L154.4968035114375,667.7887487411499L162.52955019207,427.1441487731337L162.53442946479106,66.17729028289175L162.53882081023997,-294.7896511309151L168.52080916622333,427.1441487731337L168.5252005116723,66.17729028289175L168.5295918571212,-294.7896511309151L170.5447314909068,-174.46735943926348L170.54912283635574,66.17729028289175L170.55839345452569,186.49954880511743L174.55207817668915,-174.46735943926348L174.56574014030804,66.17729028289175L174.57013148575695,306.8218736661951L176.5628264650258,-655.75652620587L176.56721781047474,66.17729028289175L178.5101442079891,667.7887487411499L178.55064217157366,186.49954880511743L178.55503351702257,66.17729028289175L178.56430413519254,306.8218736661951L180.54284922357039,66.17729028289175L180.55651118718927,66.17729028289175L180.5609025326382,66.17729028289175L180.56578180535925,-174.46735943926348L182.56238020280492,306.8218736661951L182.56725947552596,66.17729028289175L182.57165082097487,306.8218736661951L192.56976855363845,-174.46735943926348L192.5746478263595,66.17729028289175L192.58343051725734,-54.145001408759896L194.5488015692884,-54.145001408759896L194.55319291473737,66.17729028289175L194.56685487835625,-174.46735943926348L198.57908083685962,306.8218736661951L198.58347218230855,66.17729028289175L198.58786352775746,-294.7896511309151L200.5488432343396,306.8218736661951L200.55323457978855,66.17729028289175L200.5576259252375,-294.7896511309151L200.58494985247526,427.1441487731337L200.58934119792417,66.17729028289175L202.52787624998962,667.7887487411499L202.53665894088743,667.7887487411499L202.55032090450632,66.17729028289175L202.5639828681252,306.8218736661951L202.57276555902308,-294.7896511309151L202.58203617719306,66.17729028289175L202.58642752264197,-174.46735943926348L206.56693820845862,-655.75652620587L206.57132955390756,66.17729028289175L206.5757208993565,-174.46735943926348L208.56841587862536,-174.46735943926348L208.57280722407427,66.17729028289175L208.58158991497214,-294.7896511309151L210.55623158517318,547.4664487571418L210.57428489424098,66.17729028289175L212.544047291721,667.7887487411499L214.54991630733662,667.7887487411499L214.5591869255066,66.17729028289175L214.56796961640447,-415.1119428225668L214.5772402345744,306.8218736661951L214.58602292547226,66.17729028289175L214.59090219819328,-54.145001408759896L222.5787595697923,-655.75652620587L222.5968128788601,66.17729028289175L224.5441306218234,667.7887487411499L224.58023723995902,186.49954880511743L224.58462858540796,66.17729028289175L224.58901993085686,66.17729028289175L224.5934112763058,186.49954880511743L234.58762559079258,186.49954880511743L234.5920169362415,66.17729028289175L234.59640828169043,-294.7896511309151L236.5798326427893,547.4664487571418L236.58422398823825,66.17729028289175L236.5934946064082,-655.75652620587L238.58570165840496,306.8218736661951L238.590580931126,66.17729028289175L238.5949722765749,-54.145001408759896L240.57400529222488,667.7887487411499L240.58278798312273,66.17729028289175L240.58717932857166,306.8218736661951L242.57060368967058,667.7887487411499L242.57987430784053,66.17729028289175L242.58426565328946,66.17729028289175L242.58865699873837,-896.4011095891733L244.5769606325583,-54.145001408759896L244.58135197800723,66.17729028289175L244.59501394162612,-294.7896511309151L248.58430731834065,-54.145001408759896L248.5930900092385,66.17729028289175L248.60236062740847,-54.145001408759896L250.57212302488847,667.7887487411499L250.58139364305842,66.17729028289175L250.5945676794052,-174.46735943926348L254.57946971067082,547.4664487571418L254.5931316742897,66.17729028289175L254.59752301973865,-415.1119428225668L256.62193327169416,306.8218736661951L256.6263246171431,66.17729028289175L256.63071596259203,-535.4341681753665" fill="none"></path></g></g></g></g></g></g><g transform="translate(61, 178)" clip-path="url(#clip_1)"><clipPath id="clip_1"><rect width="268" height="21"></rect></clipPath><g><g><line x1="0" y1="0" x2="0" y2="5" style="visibility: inherit;" fill="rgb(0, 0, 0)" stroke="rgb(204, 204, 204)" stroke-width="1px"></line><line x1="24.396363605152477" y1="0" x2="24.396363605152477" y2="5" style="visibility: inherit;" fill="rgb(0, 0, 0)" stroke="rgb(204, 204, 204)" stroke-width="1px"></line><line x1="48.79272721030495" y1="0" x2="48.79272721030495" y2="5" style="visibility: inherit;" fill="rgb(0, 0, 0)" stroke="rgb(204, 204, 204)" stroke-width="1px"></line><line x1="73.18909081545742" y1="0" x2="73.18909081545742" y2="5" style="visibility: inherit;" fill="rgb(0, 0, 0)" stroke="rgb(204, 204, 204)" stroke-width="1px"></line><line x1="97.5854544206099" y1="0" x2="97.5854544206099" y2="5" style="visibility: inherit;" fill="rgb(0, 0, 0)" stroke="rgb(204, 204, 204)" stroke-width="1px"></line><line x1="121.98181802576238" y1="0" x2="121.98181802576238" y2="5" style="visibility: inherit;" fill="rgb(0, 0, 0)" stroke="rgb(204, 204, 204)" stroke-width="1px"></line><line x1="146.37818163091484" y1="0" x2="146.37818163091484" y2="5" style="visibility: inherit;" fill="rgb(0, 0, 0)" stroke="rgb(204, 204, 204)" stroke-width="1px"></line><line x1="170.77454523606733" y1="0" x2="170.77454523606733" y2="5" style="visibility: inherit;" fill="rgb(0, 0, 0)" stroke="rgb(204, 204, 204)" stroke-width="1px"></line><line x1="195.1709088412198" y1="0" x2="195.1709088412198" y2="5" style="visibility: inherit;" fill="rgb(0, 0, 0)" stroke="rgb(204, 204, 204)" stroke-width="1px"></line><line x1="219.5672724463723" y1="0" x2="219.5672724463723" y2="5" style="visibility: inherit;" fill="rgb(0, 0, 0)" stroke="rgb(204, 204, 204)" stroke-width="1px"></line><line x1="243.96363605152476" y1="0" x2="243.96363605152476" y2="5" style="visibility: inherit;" fill="rgb(0, 0, 0)" stroke="rgb(204, 204, 204)" stroke-width="1px"></line><line x1="268.35999965667725" y1="0" x2="268.35999965667725" y2="5" style="visibility: inherit;" fill="rgb(0, 0, 0)" stroke="rgb(204, 204, 204)" stroke-width="1px"></line></g><g transform="translate(0, 8)"><text style="text-anchor: middle; visibility: hidden; font-family: &quot;Helvetica Neue&quot;, sans-serif; font-size: 12px; font-weight: 200;" x="0" y="0" dx="0em" dy="0.95em" fill="rgb(50, 49, 63)" stroke="none" stroke-width="1px">-50k</text><text style="text-anchor: middle; visibility: inherit; font-family: &quot;Helvetica Neue&quot;, sans-serif; font-size: 12px; font-weight: 200;" x="24.396363605152477" y="0" dx="0em" dy="0.95em" fill="rgb(50, 49, 63)" stroke="none" stroke-width="1px">0</text><text style="text-anchor: middle; visibility: hidden; font-family: &quot;Helvetica Neue&quot;, sans-serif; font-size: 12px; font-weight: 200;" x="48.79272721030495" y="0" dx="0em" dy="0.95em" fill="rgb(50, 49, 63)" stroke="none" stroke-width="1px">50k</text><text style="text-anchor: middle; visibility: inherit; font-family: &quot;Helvetica Neue&quot;, sans-serif; font-size: 12px; font-weight: 200;" x="73.18909081545742" y="0" dx="0em" dy="0.95em" fill="rgb(50, 49, 63)" stroke="none" stroke-width="1px">100k</text><text style="text-anchor: middle; visibility: hidden; font-family: &quot;Helvetica Neue&quot;, sans-serif; font-size: 12px; font-weight: 200;" x="97.5854544206099" y="0" dx="0em" dy="0.95em" fill="rgb(50, 49, 63)" stroke="none" stroke-width="1px">150k</text><text style="text-anchor: middle; visibility: inherit; font-family: &quot;Helvetica Neue&quot;, sans-serif; font-size: 12px; font-weight: 200;" x="121.98181802576238" y="0" dx="0em" dy="0.95em" fill="rgb(50, 49, 63)" stroke="none" stroke-width="1px">200k</text><text style="text-anchor: middle; visibility: hidden; font-family: &quot;Helvetica Neue&quot;, sans-serif; font-size: 12px; font-weight: 200;" x="146.37818163091484" y="0" dx="0em" dy="0.95em" fill="rgb(50, 49, 63)" stroke="none" stroke-width="1px">250k</text><text style="text-anchor: middle; visibility: inherit; font-family: &quot;Helvetica Neue&quot;, sans-serif; font-size: 12px; font-weight: 200;" x="170.77454523606733" y="0" dx="0em" dy="0.95em" fill="rgb(50, 49, 63)" stroke="none" stroke-width="1px">300k</text><text style="text-anchor: middle; visibility: hidden; font-family: &quot;Helvetica Neue&quot;, sans-serif; font-size: 12px; font-weight: 200;" x="195.1709088412198" y="0" dx="0em" dy="0.95em" fill="rgb(50, 49, 63)" stroke="none" stroke-width="1px">350k</text><text style="text-anchor: middle; visibility: inherit; font-family: &quot;Helvetica Neue&quot;, sans-serif; font-size: 12px; font-weight: 200;" x="219.5672724463723" y="0" dx="0em" dy="0.95em" fill="rgb(50, 49, 63)" stroke="none" stroke-width="1px">400k</text><text style="text-anchor: middle; visibility: hidden; font-family: &quot;Helvetica Neue&quot;, sans-serif; font-size: 12px; font-weight: 200;" x="243.96363605152476" y="0" dx="0em" dy="0.95em" fill="rgb(50, 49, 63)" stroke="none" stroke-width="1px">450k</text><text style="text-anchor: middle; visibility: hidden; font-family: &quot;Helvetica Neue&quot;, sans-serif; font-size: 12px; font-weight: 200;" x="268.35999965667725" y="0" dx="0em" dy="0.95em" fill="rgb(50, 49, 63)" stroke="none" stroke-width="1px">500k</text></g><line x1="0" y1="0" x2="268.35999965667725" y2="0" fill="rgb(0, 0, 0)" stroke="rgb(204, 204, 204)" stroke-width="1px"></line></g></g></g></g></svg>