<svg viewBox="0 0 1723.0001220703125 400.0000305175781" xmlns="http://www.w3.org/2000/svg"><g><g><g><g><g><line x1="40" y1="368.12745228658764" x2="35" y2="368.12745228658764" style="visibility: inherit;" fill="rgb(0, 0, 0)" stroke="rgb(204, 204, 204)" stroke-width="1px"></line><line x1="40" y1="324.8764266340582" x2="35" y2="324.8764266340582" style="visibility: inherit;" fill="rgb(0, 0, 0)" stroke="rgb(204, 204, 204)" stroke-width="1px"></line><line x1="40" y1="281.62540098152874" x2="35" y2="281.62540098152874" style="visibility: inherit;" fill="rgb(0, 0, 0)" stroke="rgb(204, 204, 204)" stroke-width="1px"></line><line x1="40" y1="238.3743753289993" x2="35" y2="238.3743753289993" style="visibility: inherit;" fill="rgb(0, 0, 0)" stroke="rgb(204, 204, 204)" stroke-width="1px"></line><line x1="40" y1="195.12334967646984" x2="35" y2="195.12334967646984" style="visibility: inherit;" fill="rgb(0, 0, 0)" stroke="rgb(204, 204, 204)" stroke-width="1px"></line><line x1="40" y1="151.8723240239404" x2="35" y2="151.8723240239404" style="visibility: inherit;" fill="rgb(0, 0, 0)" stroke="rgb(204, 204, 204)" stroke-width="1px"></line><line x1="40" y1="108.62129837141094" x2="35" y2="108.62129837141094" style="visibility: inherit;" fill="rgb(0, 0, 0)" stroke="rgb(204, 204, 204)" stroke-width="1px"></line><line x1="40" y1="65.37027271888144" x2="35" y2="65.37027271888144" style="visibility: inherit;" fill="rgb(0, 0, 0)" stroke="rgb(204, 204, 204)" stroke-width="1px"></line><line x1="40" y1="22.11924706635199" x2="35" y2="22.11924706635199" style="visibility: inherit;" fill="rgb(0, 0, 0)" stroke="rgb(204, 204, 204)" stroke-width="1px"></line></g><g transform="translate(30, 0)"><text x="0" y="368.12745228658764" dx="0em" dy="0.3em" style="text-anchor: end; visibility: inherit; font-family: &quot;Helvetica Neue&quot;, sans-serif; font-size: 12px; font-weight: 200;" fill="rgb(50, 49, 63)" stroke="none" stroke-width="1px">0</text><text x="0" y="324.8764266340582" dx="0em" dy="0.3em" style="text-anchor: end; visibility: inherit; font-family: &quot;Helvetica Neue&quot;, sans-serif; font-size: 12px; font-weight: 200;" fill="rgb(50, 49, 63)" stroke="none" stroke-width="1px">50</text><text x="0" y="281.62540098152874" dx="0em" dy="0.3em" style="text-anchor: end; visibility: inherit; font-family: &quot;Helvetica Neue&quot;, sans-serif; font-size: 12px; font-weight: 200;" fill="rgb(50, 49, 63)" stroke="none" stroke-width="1px">100</text><text x="0" y="238.3743753289993" dx="0em" dy="0.3em" style="text-anchor: end; visibility: inherit; font-family: &quot;Helvetica Neue&quot;, sans-serif; font-size: 12px; font-weight: 200;" fill="rgb(50, 49, 63)" stroke="none" stroke-width="1px">150</text><text x="0" y="195.12334967646984" dx="0em" dy="0.3em" style="text-anchor: end; visibility: inherit; font-family: &quot;Helvetica Neue&quot;, sans-serif; font-size: 12px; font-weight: 200;" fill="rgb(50, 49, 63)" stroke="none" stroke-width="1px">200</text><text x="0" y="151.8723240239404" dx="0em" dy="0.3em" style="text-anchor: end; visibility: inherit; font-family: &quot;Helvetica Neue&quot;, sans-serif; font-size: 12px; font-weight: 200;" fill="rgb(50, 49, 63)" stroke="none" stroke-width="1px">250</text><text x="0" y="108.62129837141094" dx="0em" dy="0.3em" style="text-anchor: end; visibility: inherit; font-family: &quot;Helvetica Neue&quot;, sans-serif; font-size: 12px; font-weight: 200;" fill="rgb(50, 49, 63)" stroke="none" stroke-width="1px">300</text><text x="0" y="65.37027271888144" dx="0em" dy="0.3em" style="text-anchor: end; visibility: inherit; font-family: &quot;Helvetica Neue&quot;, sans-serif; font-size: 12px; font-weight: 200;" fill="rgb(50, 49, 63)" stroke="none" stroke-width="1px">350</text><text x="0" y="22.11924706635199" dx="0em" dy="0.3em" style="text-anchor: end; visibility: inherit; font-family: &quot;Helvetica Neue&quot;, sans-serif; font-size: 12px; font-weight: 200;" fill="rgb(50, 49, 63)" stroke="none" stroke-width="1px">400</text></g><line x1="40" y1="0" x2="40" y2="378" fill="rgb(0, 0, 0)" stroke="rgb(204, 204, 204)" stroke-width="1px"></line></g></g><g transform="translate(40, 0)" clip-path="url(#clip_0)"><clipPath id="clip_0"><rect width="1683" height="378"></rect></clipPath><g><g><g><line x1="20.578117666966453" y1="0" x2="20.578117666966453" y2="378" fill="rgb(0, 0, 0)" stroke="rgb(60, 60, 60)" stroke-width="1px" opacity="0.25"></line><line x1="139.31555151652367" y1="0" x2="139.31555151652367" y2="378" fill="rgb(0, 0, 0)" stroke="rgb(60, 60, 60)" stroke-width="1px" opacity="0.25"></line><line x1="258.0529853660808" y1="0" x2="258.0529853660808" y2="378" fill="rgb(0, 0, 0)" stroke="rgb(60, 60, 60)" stroke-width="1px" opacity="0.25"></line><line x1="376.79041921563805" y1="0" x2="376.79041921563805" y2="378" fill="rgb(0, 0, 0)" stroke="rgb(60, 60, 60)" stroke-width="1px" opacity="0.25"></line><line x1="495.5278530651952" y1="0" x2="495.5278530651952" y2="378" fill="rgb(0, 0, 0)" stroke="rgb(60, 60, 60)" stroke-width="1px" opacity="0.25"></line><line x1="614.2652869147524" y1="0" x2="614.2652869147524" y2="378" fill="rgb(0, 0, 0)" stroke="rgb(60, 60, 60)" stroke-width="1px" opacity="0.25"></line><line x1="733.0027207643096" y1="0" x2="733.0027207643096" y2="378" fill="rgb(0, 0, 0)" stroke="rgb(60, 60, 60)" stroke-width="1px" opacity="0.25"></line><line x1="851.7401546138669" y1="0" x2="851.7401546138669" y2="378" fill="rgb(0, 0, 0)" stroke="rgb(60, 60, 60)" stroke-width="1px" opacity="0.25"></line><line x1="970.4775884634241" y1="0" x2="970.4775884634241" y2="378" fill="rgb(0, 0, 0)" stroke="rgb(60, 60, 60)" stroke-width="1px" opacity="0.25"></line><line x1="1089.2150223129813" y1="0" x2="1089.2150223129813" y2="378" fill="rgb(0, 0, 0)" stroke="rgb(60, 60, 60)" stroke-width="1px" opacity="0.25"></line><line x1="1207.9524561625383" y1="0" x2="1207.9524561625383" y2="378" fill="rgb(0, 0, 0)" stroke="rgb(60, 60, 60)" stroke-width="1px" opacity="0.25"></line><line x1="1326.6898900120955" y1="0" x2="1326.6898900120955" y2="378" fill="rgb(0, 0, 0)" stroke="rgb(60, 60, 60)" stroke-width="1px" opacity="0.25"></line><line x1="1445.427323861653" y1="0" x2="1445.427323861653" y2="378" fill="rgb(0, 0, 0)" stroke="rgb(60, 60, 60)" stroke-width="1px" opacity="0.25"></line><line x1="1564.16475771121" y1="0" x2="1564.16475771121" y2="378" fill="rgb(0, 0, 0)" stroke="rgb(60, 60, 60)" stroke-width="1px" opacity="0.25"></line><line x1="1682.9021915607675" y1="0" x2="1682.9021915607675" y2="378" fill="rgb(0, 0, 0)" stroke="rgb(60, 60, 60)" stroke-width="1px" opacity="0.25"></line></g><g><line x1="0" y1="368.12745228658764" x2="1683" y2="368.12745228658764" fill="rgb(0, 0, 0)" stroke="rgb(60, 60, 60)" stroke-width="1px" opacity="0.25"></line><line x1="0" y1="324.8764266340582" x2="1683" y2="324.8764266340582" fill="rgb(0, 0, 0)" stroke="rgb(60, 60, 60)" stroke-width="1px" opacity="0.25"></line><line x1="0" y1="281.62540098152874" x2="1683" y2="281.62540098152874" fill="rgb(0, 0, 0)" stroke="rgb(60, 60, 60)" stroke-width="1px" opacity="0.25"></line><line x1="0" y1="238.3743753289993" x2="1683" y2="238.3743753289993" fill="rgb(0, 0, 0)" stroke="rgb(60, 60, 60)" stroke-width="1px" opacity="0.25"></line><line x1="0" y1="195.12334967646984" x2="1683" y2="195.12334967646984" fill="rgb(0, 0, 0)" stroke="rgb(60, 60, 60)" stroke-width="1px" opacity="0.25"></line><line x1="0" y1="151.8723240239404" x2="1683" y2="151.8723240239404" fill="rgb(0, 0, 0)" stroke="rgb(60, 60, 60)" stroke-width="1px" opacity="0.25"></line><line x1="0" y1="108.62129837141094" x2="1683" y2="108.62129837141094" fill="rgb(0, 0, 0)" stroke="rgb(60, 60, 60)" stroke-width="1px" opacity="0.25"></line><line x1="0" y1="65.37027271888144" x2="1683" y2="65.37027271888144" fill="rgb(0, 0, 0)" stroke="rgb(60, 60, 60)" stroke-width="1px" opacity="0.25"></line><line x1="0" y1="22.11924706635199" x2="1683" y2="22.11924706635199" fill="rgb(0, 0, 0)" stroke="rgb(60, 60, 60)" stroke-width="1px" opacity="0.25"></line></g></g></g><g><g><line x1="0" y1="368.12745228658764" x2="1683" y2="368.12745228658764" fill="rgb(0, 0, 0)" stroke="rgb(153, 153, 153)" stroke-width="1.5px"></line></g></g><g><g><line x1="20.578117666966453" y1="0" x2="20.578117666966453" y2="378" fill="rgb(0, 0, 0)" stroke="rgb(153, 153, 153)" stroke-width="1.5px"></line></g></g><g><g><g><g><g><path stroke="rgb(255, 112, 67)" stroke-width="2px" d="M20.60384213200996,366.27198433377794L20.70181832555092,366.3096124961148L20.750874696345868,365.4452990127847L20.946648977277015,365.5150063095958L21.01654970458425,365.65229914547524L21.0424760232653,365.78424747781025L21.043307185302247,365.7544987621474L21.09226856615011,365.7904789982746L21.162715485653052,365.82889218061644L21.23649892704717,365.78748040874586L21.406999945183443,365.8299173079047L21.67443820431449,365.8376166328609L21.701480654873727,365.8432824481736L21.749284345741557,365.8048802946712L21.99340850973625,365.734691849224L21.9937647220378,365.59910367844265L22.114752230258805,365.6125023915014L22.478914003003702,365.558671552326L22.551272595191623,365.5201077825189L22.62529351145344,365.3813298552463L22.625412248887287,365.2808734198043L22.79515928431861,365.2513401516431L23.235603921440163,365.10776251016046L23.258377761252504,364.9707090805797L23.307131351591135,364.9883902843391L23.573910617964323,364.832805309699L23.57414809283202,364.76660725367145L23.60095900539525,364.79563241841157L23.843658320183742,364.5747439055637L24.137011024252462,364.40814297128304L24.209488353874228,364.3465932302131L24.283034320400645,364.3750151423954L24.305926897646838,364.34535544082L24.694768246017368,364.362776116314L24.818492652088608,364.3546244192314L25.010538577596883,364.37468657338053L25.30590981804104,364.37470921709604L25.473875791964623,364.37629057560196L25.546353121586396,364.37620490776646L25.717400331918373,364.38864021454776L26.131509006212088,364.36302682647556L26.132933855418283,364.37906457830115L26.25428351281253,364.3409026914584L26.351078268886692,364.32102464693133L26.49876388910877,364.3030697995076L26.76459325601116,364.2813756426364L26.764949468312707,364.276613983388L27.03434095823058,364.28160356150494L27.05937080928607,364.2363904777923L27.254028958339035,364.25397851680043L27.351061189280895,364.2264191362512L27.397677505810226,364.1284049622304L27.618434142823325,364.1219165275054L27.619621517161818,364.1105285569405L27.934916899005934,364.1412047496172L27.983433014476866,364.1490963316055L28.251637130056242,364.182771818909L28.422452802392215,364.1804249327406L28.495286344315534,364.09491559662627L28.616754739143634,364.105789905378L29.20096666117022,364.0733765114991L29.273087778490442,364.0315652740029L29.299067529016728,364.0290799130787L29.371782333506196,364.039425989288L29.51756815478668,364.0355338761693L29.615906497500884,364.04161093367935L29.664897562707214,364.0467211426494L29.71305746587659,364.06475907384527L30.149583767681104,364.0167644941015L30.174494881302742,363.98128052477455L30.272120799413848,363.9845067283339L30.514582639334645,363.9363811804092L30.515176326503894,363.9498867828328L30.66298068415982,363.9470516174964L30.782311805178622,363.96569883260395L31.26949149626336,363.86627615882963L31.392503477731502,363.8829580027101L31.41658342931619,363.89675191330684L31.855959429533094,363.9011070045281L31.879564431382384,363.8871750514413L32.43969046495259,363.91363255102186L32.755460796532105,363.92473816897075L32.852136815172415,363.93343697481185L32.92592025656653,363.94457898368586L33.4146435342913,363.9617872658571L33.65793653624905,363.9167808920951L33.950220603413115,363.9165274245747L34.56005606366444,363.9283717464544L34.75186451430502,363.9011036616072L34.776419415625114,363.92128996638814L34.94865993716728,363.87156346528434L34.97214620158272,363.8779113838095L35.142486924183295,363.8369686862783L35.144149248257186,363.817120529633L35.89739578111201,363.8463302001246L36.483626239514045,363.8579463189169L36.797971721887365,363.86967064356736L36.87353622478922,363.87467784352134L36.96783749475254,363.85909088025767L37.18705054512559,363.8378671860329L37.23568539803037,363.85969248364506L37.23675403493501,363.84069190639116L37.38360849312015,363.85142162691227L37.38455839259095,363.86504879942873L37.45561087300652,363.8747906794478L37.552999316249924,363.8740393572609L37.62737644481329,363.89396749340665L37.65288124560417,363.8901264623804L37.8228657559032,363.8920490268704L37.82322196820475,363.8872562823044L37.89451192348802,363.90052346832795L38.08822017307019,363.8963019711955L38.13756745057807,363.90746391362984L38.21063846736908,363.9105059528386L38.283590746726254,363.91024594888853L38.722135584906205,363.9086037662062L39.04063687746425,363.928712783654L39.11335168195372,363.93500940598676L39.137550370972264,363.9288360130792L39.79376467288523,363.90376209106256L39.794952047223724,363.9048706656026L39.84192457605461,363.85227194820436L39.91570801744872,363.81248705064814L39.96636140672894,363.81425371916816L40.036820199975274,363.8084884211275L40.13373369348328,363.8254054094645L40.23266572336673,363.8344708822027L40.23397183513908,363.83683379349003L40.257220624686816,363.8421800634143L40.623288133245005,363.8272301061221L40.743687891168456,363.8470303331558L40.74392536603615,363.83938202423195L40.76931142939319,363.8619777453121L41.01355433082173,363.87324308390527L41.109636662292786,363.8814115426665L41.28033359719492,363.8707215148998L41.5478252881712,363.8495465200355L41.668581258396195,363.8527262410695L42.01080629023739,363.85307454582215L42.035836141292876,363.7931136412371L42.10724483401,363.76314357185686L42.42396506506031,363.75461378756836L42.83748005218478,363.73541713964187L42.837598789618625,363.74223976891875L43.13091587245719,363.6744981530789L43.44603908502222,363.6201714181919L43.5208792895776,363.62236898946526L43.546116931142315,363.60573181521033L43.715549312373945,363.61134804518963L43.78951679679052,363.623142490464L44.25120356082776,363.6310105075453L44.34779052639268,363.6093202442037L44.71413706792041,363.62644089015254L44.738252640735254,363.64499644100556L44.788229226642535,363.6403577179063L44.909929159466635,363.64059385504754L44.980281089022505,363.57977095860315L45.15233163067052,363.58244369199247L45.27415623780016,363.58248989546195L45.46832756337434,363.52940174004755L45.615514486374245,363.5445928704525L45.639630059189095,363.5546156671213L45.761828689235365,363.5166242915136L45.90614810320781,363.5134165493324L46.02834673325408,363.5270464603729L46.150420688994814,363.54122571386887L46.22476219632802,363.53176710842735L46.24738167747636,363.5218007078293L46.833885231976254,363.5133631871587L46.88024626302281,363.45193526335316L47.24783954760596,363.4519091867452L47.29656939045782,363.4564961625433L47.53909653596723,363.4037246186561L47.73451460459683,363.41280111037787L47.83135091877284,363.41133185868074L47.929184627393184,363.4099670210539L48.0257715929581,363.4090469050917L48.146598805643414,363.40251952693905L48.14759620008775,363.3877663801674L48.26842341277306,363.3753488936246L48.3911207400415,363.3685463071278L48.561425841411925,363.3440743520403L48.58579076283785,363.340614045248L48.877920471337916,363.32815360588273L48.87948186859304,363.32332774890546L48.92593195271498,363.3357932596383L48.974733038027146,363.3270340195696L49.00043969245558,363.27397400684714L49.04702038775476,363.21226192467105L49.14658172603761,363.2080315762605L49.43964946026509,363.2022531480275L49.60705736824958,363.1873669569735L49.658470677106436,363.2096268892278L50.338812425577636,363.16813003561754L50.36242930117031,363.1459713602586L50.46277430651657,363.12575001754806L50.73000477513838,363.12527426707936L50.802814569574934,363.12109910631705L50.899894295490334,363.1097022358176L50.97348775699028,363.1159863095276L51.530912513940414,363.0720668349576L51.555704890128204,362.9948446748926L51.65330706075254,362.99496500352933L51.72676991107526,363.00536750868065L52.044107576781585,363.00872327582493L52.31120743422617,362.9320971500006L52.55586591667318,362.93839587957893L52.653990532006446,362.93293915541767L53.21123124593412,362.93001138812537L53.4561568876073,362.8844729849691L53.57691285783229,362.88297274718883L53.700536337084756,362.886370502717L54.014911503816535,362.87325209179346L54.383460624742185,362.8824087885083L54.553611367448596,362.87569272571136L54.599592438706836,362.85913979806537L54.69824543562075,362.8705210950263L54.96554714670287,362.8516467240511L55.16039527564999,362.85026759344794L55.3078968528496,362.8120724565736L55.30844304504531,362.7549408689783L55.357428173379944,362.7561490683083L55.43001830356387,362.7535390062451L55.672486080356364,362.75902893874576L55.89189504749526,362.7570936085003L55.9640755335324,362.75142162933895L56.15810437418597,362.71863533151253L56.74355116552459,362.7064629442187L57.05993893176013,362.68520642366775L57.08337770120203,362.68383316810696L57.280291861498135,362.6779908571248L58.130570625294816,362.675450861885L58.2058739058422,362.68669821897055L58.23130746417278,362.690472161824L58.30418850106964,362.6132130710888L58.34978367566786,362.61885539175245L58.35035361535034,362.61401746051973L58.40107824709088,362.62097474424337L58.594857739133346,362.5962522211595L58.66887865539517,362.57674903786415L58.7913444446676,362.57179007774073L58.813215879982685,362.5676264553622L58.86123329823145,362.56303271899424L58.91053308076579,362.5662707062377L59.44559957892204,362.5543883147614L59.59281024940873,362.5424589994274L60.00822503547478,362.52168847275124L60.15350622266141,362.51958399525324L60.30116215852503,362.5102202213236L61.00446772670272,362.4859262511587L61.00684247537971,362.4557580010662L61.10206396045537,362.4478435071273L62.05196936812352,362.44069149791676L62.41709885095429,362.4262011186374L62.49006300405485,362.3871717570326L62.516957032821765,362.38443786085475L62.66350277367889,362.3590188685808L62.73615820945144,362.364805650383L62.76058249959429,362.3566246355497L62.88131472233252,362.3421804866435L63.00189258640675,362.33040602002194L63.050741166692454,362.31589986470635L63.367639503893535,362.30802550568944L64.19715702738162,362.3060141587951L64.29331653818468,362.28405621614877L64.438758020907,362.2547022492048L65.02453134018872,362.256907380784L65.07429419871507,362.25834692167973L65.1961366164598,362.1762036657522L65.24269356427222,362.1807736927439L65.31701726099034,362.16836404984014L65.95106328400358,362.15106467293117L66.1446527961519,362.07108648481267L66.31653710539253,362.0638900244359L66.4363669236335,362.05362583157887L67.09488473176314,362.04423017436557L67.33833209238489,362.0199313333497L67.70154396565898,361.9907499913175L67.77466841429525,361.98829609725055L67.94781727720635,361.99716529560317L68.1652967610452,361.9788002533667L68.43347119226613,361.98351128077366L68.48090086021733,361.9584435720296L68.65336104601212,361.93703765934816L68.6768176260691,361.91274820762374L69.11624705813122,361.8563174746504L69.40912481246455,361.8462825837901L69.43124559639072,361.8385422374485L69.43195802099382,361.7881487894221L69.60390169895136,361.74267849644315L69.67436049219769,361.7130832299275L69.942623976494,361.7065389408834L70.65064935766722,361.683066383354L70.79724259349787,361.69283017900625L70.96728647251383,361.66616341493074L71.03819053113709,361.64633752973333L71.43051682319111,361.6134351139589L71.74678585199278,361.53276430317123L71.76913223704328,361.52743905632565L71.98773972650369,361.52569425634016L72.03955674263564,361.50179187880383L72.81600457006466,361.48746081612103L73.03616751990852,361.49598108383003L73.0597012792975,361.4270454454596L73.18074815623542,361.4264936798059L73.42455766603041,361.4002182202557L73.45189696017428,361.3449611752594L73.71658051084002,361.3451658081181L74.10934019452758,361.31780071768276L74.13138973599344,361.28694901967094L74.37519924578844,361.2790483969054L75.71615451809672,361.2410411132127L75.88637650326343,361.2317702063863L76.12898676497655,361.196313733479L76.17634519046744,361.15309312552336L76.20075166999521,361.1290901721168L76.93133122672815,361.1147783863887L76.98312449537333,361.06730333903005L77.17592440358655,361.0216560834617L77.49174223013961,360.9227536814384L77.53990213330898,360.90786946987384L78.2969363903036,360.86832869851713L78.29825437581934,360.87536383566703L78.34483507111852,360.8757852135455L78.48984909907898,360.8813565128809L78.75855191188053,360.8886077983557L79.90303235239794,360.87031921134036L80.00254619570727,360.872289945791L80.26926609336353,360.8282724283493L80.65927106858578,360.81575398540497L81.41366935454894,360.7447317424889L81.53703754831864,360.7353762278357L82.0458986948243,360.68385910580855L82.09501443433616,360.6888843886208L82.65470113940113,360.66066488741916L82.89993549840231,360.6193574692429L83.24056351175824,360.5176868418232L83.7518706494012,360.44352059907214L84.0210721594249,360.36013687195094L84.38362503994115,360.22509613548556L85.0187753210892,360.17928007698544L85.55529635281012,360.18048565532973L85.8705264290656,360.12086301013204L86.25832882488996,360.07029430584134L86.91810524981841,359.9911046482376L87.0144013086704,359.96272959895214L87.6001865016955,359.8083888901991L87.69540204989946,359.75581911374854L88.47729398867048,359.63179067885676L88.98654696870786,359.6238077735157L89.98485569128478,359.54824419688686L90.37473005532979,359.45555971673946L90.47163761196612,359.4105720739853L91.34996215763806,359.3288295216717L93.15230735039894,359.18961385680814L93.19982607142553,359.14294073928096L93.41892632123643,359.05233259810666L93.51890324053777,358.9682527391242L93.88424051387777,358.82348422540645L95.24691286283714,358.7096585875595L95.29343418941939,358.6413698028287L95.92844198564683,358.5389216393574L96.56280859973147,358.4882191341878L96.75740144319582,358.3377132539184L97.04933523493004,358.26901210545L98.4373461522729,358.2004507278085L98.75216658438161,358.2638429326181L98.94742435747551,358.21625209025285L99.6292681344849,358.15535728183L99.84762033846255,358.0718102592923L101.0170118926016,358.02168383059745L101.35887477526956,357.9952669465012L101.43173800155134,357.9018720121622L101.74933095274044,357.8442201769741L102.3561445453003,357.78716692693L102.50241125318787,357.75354753381254L102.55326055923395,357.7511532476638L102.65043527509643,357.58116288685466L102.72335193322343,357.4802133401196L103.47865262368386,357.4050689887649L103.50038157407832,357.33525332042774L103.79339587646056,357.20756027358505L103.79467824074614,357.0572233864048L104.23389988229904,356.93881745756124L104.72072336108222,356.87107481229134L105.18186393292375,356.82092250814276L105.59582418542516,356.72419249027473L106.10932202872264,356.72506201251366L106.54719600040133,356.66813050675364L108.07940165741111,356.51807548885864L108.2265292116941,356.37150895404085L108.42239254570063,356.25432314747803L108.49554074182365,356.26686902618997L109.37083154606074,356.1343483881473L111.82937323011951,356.04548173114426L112.75718753821995,355.97185558807956L113.8270474384346,355.81852131326485L113.89928729318868,355.6373715309064L114.19173165588846,355.5243802721617L115.50747303411877,355.2218057247463L116.60360359157266,354.9240313906273L117.40714730140616,354.85914384736554L117.5794887497671,354.80507400635423L118.16175337787857,354.7727325641159L118.33430855362043,354.5252514836962L118.796992712102,354.39099401204754L119.28194013943036,354.0784411126726L119.30717778099508,353.73793556281976L120.45122482987895,353.51465417096074L121.78972817417824,353.3356277406902L123.27716388175503,353.049919739967L124.25195665555805,352.95671385485986L124.5674538910397,352.788320975395L127.02616774437756,352.65202476776346L127.31936015291058,352.6122114318211L127.66092025512222,352.3782123062116L127.73329072105352,352.2316896967995L127.92824571369111,352.1823629715944L128.0749101919821,352.00891033433663L130.0456606871718,352.0890930956753L130.8747745033848,351.82454998070835L132.773795714786,351.80126394692724L133.04376308125805,351.6419374543464L133.0669050071153,351.65863892758125L133.40694527017368,351.3724425592248L133.74715770251112,351.2604625041489L134.87012885688668,351.0642153098158L134.96642491573868,350.66448736922854L135.69777626579165,350.63397168342806L135.84277842000873,350.3386742779426L136.06051318933035,350.26309901178115L137.9875326876333,349.8555497994704L138.10672132373148,349.5207408422276L138.59578894001442,349.74224837776654L139.95713142971468,349.44927894966844L140.56823738050818,349.06757935836936L140.76318643627408,348.7845192383775L143.0754257912151,348.7490282043389L147.33617611998588,348.20566891303906L147.50917062423298,348.1839288795069L147.97161730784683,347.76567870598933L150.38300835692397,347.3095777183284L153.15799717593518,347.25522647924345L154.13255247487052,346.87236868857644L155.78701613064348,346.8767499129941L156.98278520571222,346.68338743489016L158.14857307873393,346.1763215940971L158.6134538797417,345.76236100235667L159.3938141056161,345.12190156532694L160.63343291500547,345.35260314203356L161.04902580722228,345.4067565280336L161.53375950716972,344.9686401230964L162.43775508603994,344.6075519670923L163.55560272014492,344.6003381681277L163.72643026622427,344.61767348211913L163.9453999048579,344.4580433338898L164.65075963064123,344.4512253773562L165.01720116211604,344.4049023839935L166.5527136566585,344.464730229495L170.93579916352445,344.49133635439694L171.0081933769425,344.2718751144627L171.398328963342,344.15583883065824L172.25100622330245,343.2275069026366L174.3942584623888,342.9260255516306L174.75846773010724,342.6786924181065L176.0270525364842,342.2690095680171L177.00055700912998,342.4299047481485L178.8008242967985,342.63945632905927L182.52647844305451,341.838916930562L183.52447251143175,341.54368025204354L186.23090233613823,341.80047033791783L186.71701932719,341.6442076726865L186.78928292943084,341.7858867927882L188.982096173406,341.6597560750759L189.07881968701986,341.5680941533434L190.3935874182926,341.69672196888735L190.8067224456288,341.2097474965096L192.09850854657995,341.3786809573416L193.39071616542128,341.5860332907418L197.35730637557313,341.72397705986305L198.67515534325432,341.3021580073802L200.88894355491897,341.05561834288415L201.010471318464,341.0502712967609L201.01278076155236,341.1305789649899L201.59463574551705,340.411363080927L201.5964821126134,340.59428735213567L204.2513502066707,340.16673778170684L208.16995268293226,339.92345171527217L208.5380446647376,339.46620670826053L210.3374570428824,339.62611164627276L210.77816290235842,339.67407766306826L212.06727147417632,339.94569626141185L214.40611395117136,340.06484406806146L218.05706444092093,340.00931882076463L219.495651568212,339.87029140899836L220.1043115278682,339.90511992161134L221.12873654902032,339.6666443078285L221.88197714500345,339.71922740505397L222.56307881305128,340.02398857972605L222.85796916688832,340.0305509200079L223.07629168650752,339.84754165317764L223.49097030048372,339.913164319262L225.78034082566538,339.92442548590634L226.31445148747915,339.4834581453337L226.507625418609,339.5244576966365L228.58044261193575,339.6459971802084L230.06572323508817,339.53396924294157L230.59909178794038,339.65804034888833L233.669273741245,339.8907014534512L234.05794885720812,339.9828838107563L235.10748684561946,340.1409850966797L236.0064835785246,340.05552917913L237.1988745736003,339.82473794778565L237.7594814937776,339.3621776390482L238.418082418111,338.14227584922673L239.78064196650814,338.1294338246679L241.14576624347654,337.28866771496035L241.65779767946597,336.58178111431204L242.02229785389736,335.49919700366127L245.45523454135574,335.7512643717524L248.50001262068824,335.3615830967869L249.20553857887893,335.47600016233866L249.2063578671725,335.8209900296618L251.22658031417566,335.47217569845316L255.4885714491301,335.23154627272083L255.6843160457028,335.1983608056689L256.82880242309193,334.95248136557876L257.5355157556211,335.31269204549767L257.9986986113248,335.4231126135862L258.50742914665324,335.4961765271905L259.0441579688834,335.38322881334136L259.53227568569554,335.5713164912279L259.9952210665316,335.18207130100507L260.55404692520113,335.1906142414621L261.235997565901,334.79702051237314L261.7487473633652,334.97294253497415L264.35268897204446,335.2637927759623L264.50154415598996,335.0835488625254L266.69245166415186,335.08649678912536L267.90908884321965,335.3777972166912L268.12801098687976,335.4296302688597L268.4924696032093,335.22556905917065L269.12807702347766,335.39594909564056L270.6129598762267,335.05278152165414L270.8316920399926,335.2817800564974L271.12414827643585,335.6196913443521L271.29573574209184,335.8264468438765L271.34480398663015,336.12200356936665L272.6834320052349,336.3611493595391L274.5569365421019,336.3034637577408L274.97298063656734,335.9389002576225L278.50131097838045,335.8414362156918L281.2315001636003,335.3850843430298L281.7158657775028,335.63230599181855L284.3974379204328,334.69037880600575L285.1257852134094,334.7090629736517L285.5649534231171,334.2104177479256L285.6400311025402,333.92997986330164L285.7584895034202,332.8931729143799L285.83178612133554,332.6063421815603L287.1739762629558,332.54233123034305L289.82647554520787,332.26253995092003L291.2380320956831,332.0116431072814L291.77444626371357,332.32511074950673L292.23835935463546,331.9159441234961L292.33499975204563,332.27941884416305L295.5508725366836,332.04836133663196L296.0113956738691,331.3256519916393L297.1804488263217,330.9342015747181L298.56977179230864,331.3646073919006L299.2778090472252,330.3962837368624L300.03161364601914,330.83022266641797L302.73291401358335,330.6953281354423L308.09122568588583,329.6050498511981L308.7236212585686,329.6252970149733L313.76727873116977,329.6275199275128L314.91035213309607,328.9258447244061L320.1468154507822,329.2715960347069L320.16953585874927,328.2673054026038L320.6102417182253,328.07320960975943L322.28981834125744,326.9581217385899L324.89708459808446,326.7585706696152L326.57467236909963,327.15075777405576L327.622084957445,326.4300780480157L327.9161204017584,325.9779209473939L329.42494665804315,325.6056493016148L330.7645483236056,323.7768151719907L331.1052357056784,323.3629380440527L331.25317661138325,323.7462463107519L332.030093451676,322.5440624996331L335.6843032839848,322.84601648939116L335.9758511790589,323.1645186015796L336.5359890863725,323.5266252220398L338.3389517137894,323.38383695947886L339.2869276381576,323.93508069405976L340.6502411692597,323.8652962319564L345.52392600530527,321.59268498408676L347.15541990450004,321.9843777620322L347.47148707966414,321.89769864600856L349.58798183803253,320.93279448063583L353.55757610526075,321.09406251672345L355.8223442341487,320.3081154641687L357.3107417149397,318.73834213385976L359.4267080917274,319.21097004803363L362.4235043740413,319.36328115090146L363.95668367800863,319.8017503408522L367.5138731531189,317.2142625075395L370.2885888760323,317.11487031006624L370.7530897172518,316.1272036525115L373.89440133030394,315.49466850679755L374.0384239006918,314.78693691834076L376.79211122407037,314.7222385756928L377.91046349226923,314.32938563993923L379.4225490911132,314.6913306693917L380.1752256842855,314.59302625305565L383.2203302915611,314.0675115630937L385.7768659797759,314.71251498214144L386.1660694773197,313.85113570313354L386.8264692737759,313.6528550524905L387.19063698339244,313.9367974247675L388.9679167038677,314.6137408580108L389.1132869441297,314.1170686102878L389.25951803078715,313.60979522512343L390.16258152080167,311.5684393795566L394.3002961206175,311.9960730997721L396.20082529742854,311.91367967899305L397.29545976321594,311.7574947733469L399.85292754028643,310.60683881352924L400.1456331253407,310.5858830428443L404.84577132807175,311.3047793829573L407.40193299336994,311.4947011260615L407.671300735801,311.2163844470181L408.33060814786575,309.3433404266791L411.64097811923295,308.8835318670405L413.54171508655327,309.1157484226895L418.72862927309393,308.25134641867857L431.8308123380421,308.91799399460217L431.8533487029868,308.0282144976131L433.2421254767779,307.7811633545461L433.55933846817874,308.39195107786963L433.9981801499434,308.731467059741L438.76999420461766,309.2909368742041L439.1836872978929,310.0500898839637L442.37344378395574,309.5678304852914L446.51638876773256,309.6033055227182L446.65924771126873,310.31576344497705L447.6589219143349,307.730172098579L451.72722261032226,306.8085484315958L457.76543076571903,304.862578812798L458.0335636388381,303.8771476762693L458.39917400827596,302.99746687459697L462.7824138738059,302.8276416495113L463.5113786014385,302.23034006620924L463.80409606023613,302.88059541892596L467.33513361554105,302.73207609484786L469.77329995595125,302.438707976347L469.91812400401756,302.5966271902734L470.3805884982464,300.00732699169777L472.74288755529847,300.79587986248214L475.3469479014115,300.2843777761186L489.9843109960874,301.17390556981275L493.3685178406939,301.8572485508545L496.78015896939144,300.3067571089443L497.43772094117855,301.1659010815517L498.65581265381104,301.7836618373923L500.3577415987654,302.22367186245674L502.7464716085923,300.9687198893879L504.4746177789406,300.2300625296732L505.79019886163525,299.8658291956217L507.54357079980485,298.9961200363607L507.9083500072058,297.80448896608846L508.6885677481596,297.84731772547445L508.90707431080125,296.21156407917783L510.95254627311243,296.686779081304L513.337809149871,296.0734981402816L514.7527734646977,296.13191301667257L520.1597674848784,294.8052603758091L524.4920630544153,293.0278873076232L526.6374644410544,293.2485087146706L527.7797719865323,293.73828309928825L527.9744895043021,292.7117292799285L528.0958510354399,291.9707367764208L528.9504102837268,292.21012687754205L529.5334170207998,289.77621591457086L531.0919764512524,287.90381881156736L534.283205281495,285.4840579977713L536.6466798391422,286.5475628032005L544.8285854990022,284.08045889696706L548.13986974861,282.855261555884L555.9337770958799,281.6505838822881L556.078238994773,281.91005209167L558.269508652108,279.623526284833L559.027385944883,279.47964233646167L560.9018403812207,280.3676505914306L571.7872608617863,278.01147897332476L575.243571013098,275.68285016777907L579.1904448723591,273.5410147643507L580.8215291274071,271.9703401000184L583.9887848697554,269.8463917493811L585.059244394011,270.9243784446229L588.8082066985316,271.624761233185L590.7815100485492,270.7387387110101L595.9195340967023,269.9401708823533L596.091804302603,269.6012849214328L597.2356020028757,268.70202522555167L602.9825234855527,269.549259176522L604.5159936962331,269.48138663439016L613.3800934085323,270.27456144565525L617.1084725788952,268.0247472840901L621.7832781501144,266.1408128297027L622.9291478186078,266.59927755133674L624.2448476387364,266.49484323219093L628.3594915551552,266.527350960834L628.4072952460231,267.4594354229838L628.5771432082731,268.16028357427126L633.180563834262,265.8786637584899L633.5930339319686,266.63719945636086L636.395819184244,265.6070706923115L639.8531920355886,265.79213242167947L641.0228151277237,265.2885919233785L641.2658528441987,266.2601700381647L642.7992696230338,267.0604879105081L647.258507383099,266.69561384688404L655.1000284413426,266.79718439586514L655.633278256761,264.32553465090234L657.0955060071315,261.94149589834086L663.425677638621,262.4826904941035L663.720704540507,262.59933044592043L668.2966908824048,261.5877575129092L670.393611774803,262.69198740411053L671.0742028718854,264.2028522903347L679.7444221653234,262.2808868770171L680.3294949337454,261.7791620369833L680.4500253028461,262.23563862100264L680.6947728383685,263.7452554226286L680.8387716612696,265.04841299472974L681.9106144766295,263.5297468618223L682.4710254800409,264.545627735055L684.0070426086774,262.1104064513284L684.5901977675426,259.78131124093494L692.4058281283352,259.7638470281537L696.4981790915489,258.1831262716365L700.2245041043061,259.83419101730465L710.1112418393781,260.7215258635485L710.575523016345,260.1994146191326L712.1094681767606,261.1243259131868L715.3728062505801,261.3924859399705L715.3972424144663,258.917841342068L719.8533276956629,257.6595548938223L724.0180550616795,258.4469109829274L726.5992406411615,257.52141404292104L731.7138912254613,256.1840792090753L734.2961988736931,253.23362907944156L736.7289032921464,254.61718024457707L738.1169082726175,252.24928099185806L741.3084398833164,252.74435639041886L741.7212840039394,254.11796881705192L743.7447361091434,255.64609916339612L744.9854829241543,256.20244516441244L748.978777183179,254.1093946119541L749.8567217690626,253.71022099089947L751.9520634535907,254.336448047724L754.2388929976879,252.0094275172059L773.089291783342,253.31829098890063L773.3073293331199,251.67824728146243L774.7711244176173,249.13578163664772L775.5226076995795,248.46254856648176L776.157093051098,249.57498751281074L784.4118738109831,247.62133597287635L786.0941160894052,245.07402915791945L791.1834637265517,243.11761495952553L803.0924721293608,240.70591206595793L805.1382053140264,240.09952238335202L817.5590670466742,238.67678164134577L819.4813133001363,238.49349206238332L821.9906567952677,236.7725285902637L824.1346452064439,234.6746721966938L825.1312856680753,235.38792865117165L826.1286623017965,234.22267125819133L826.1793335016918,235.74959708795225L827.9090054480649,235.33959823883794L829.2968620067439,236.88460095223732L839.791683824918,235.11062831421597L841.6918211681973,232.9346185271873L844.0548207761091,234.65056761814125L844.3447063471092,234.99808171375696L847.6330149032673,232.56927954211034L848.6562050551073,230.3145325177198L849.7999374497915,231.6874445303285L849.8508876826564,231.9245762988053L859.2253624437428,229.99760198414054L859.5906581589811,228.31753439902127L861.1011348655965,227.69678099369168L863.2213401687726,225.90986372806816L865.2395975112454,225.2811656886394L868.2591320121417,222.9233645113199L868.4815865944587,223.90573654077866L869.0639046544154,221.8822528621216L869.7933799530136,221.32658922729385L871.3538154349211,221.00118159552082L872.3037742744343,219.20510069152766L874.082051389354,218.8485729659962L875.5665364716997,218.99321018090865L877.1734279746007,217.23990600276784L877.4904984810809,216.63403385011398L879.8510995928289,214.813451238866L889.8377904997154,215.57872310092688L894.9040140216198,216.41300828463213L899.2616362857966,218.2083606640924L914.2395264670096,216.18247050985877L915.5287181550312,214.34153685816972L916.6030485196304,212.15229103838135L923.2983911920525,210.73183476110813L932.0153514763252,213.04156650171868L934.6948575879063,213.3706606751055L944.338237015432,214.78824428999204L945.6562818998791,214.23396467905343L951.2088836351896,215.14619473208455L953.83878718378,213.55148043473787L954.1055189551797,213.05318341974768L958.4142273334824,211.26079720828307L964.8943109120786,213.2620406122961L966.3535346053726,212.22564307222163L970.373705082549,210.3468262820843L973.5146545464281,208.64878764290634L974.9286392774254,210.3172749961277L977.8984999728706,209.0169004642462L978.1909562093136,207.19447585063165L979.5284146641952,208.41255343531813L982.7939790648992,208.18830697524703L984.5217274648442,206.84911084536049L985.4710926171883,207.6181400595941L988.9546708201835,205.62275975978176L992.5600201984631,204.26028795079043L994.9203125928831,202.3063199871976L995.6270615466424,203.41605102299184L996.0395969499377,204.07507535026167L996.8212098557392,201.77528007440114L1009.2148035367034,199.67350552433578L1012.1877692160435,198.25271073517544L1014.5967142739834,199.07998907658836L1017.5923291188305,197.56407960516952L1022.5877079508284,196.3417117111553L1024.8734985423796,196.3619926256572L1029.988350980317,196.72586248151023L1030.6952542927402,195.21742116294897L1038.2444141044878,194.48946372063077L1039.1692362292551,193.04957348284043L1042.0681275604884,191.77369301226156L1042.7759035930505,192.76742590416814L1047.4518668542498,192.02035703901225L1052.100841096735,190.33773702203231L1055.7294452014341,189.05028553202976L1056.2913760439988,191.27742390934844L1059.5796846001567,190.5866984996429L1070.9267027916842,191.37560928565563L1071.3659897388256,189.87655928046274L1074.6767931018264,188.36196627894356L1074.678443552157,189.46962091493066L1075.8953538273224,191.22869508760706L1077.5265924410346,192.0310241637274L1080.0848260745533,190.10459677479633L1081.1567995010907,189.53634189984632L1083.1762145335435,187.8574954475486L1084.4669438713333,187.4783663619039L1087.192906003908,188.16400679505247L1093.869084454507,186.7107230133064L1097.1295609561705,188.31271582985616L1109.9886588096701,187.40716399952814L1112.1819113821507,189.21809677246844L1122.9938690123934,191.4366185352051L1126.792891019025,189.7219677664352L1127.6460135443624,190.26887919370915L1130.032588469765,190.99374267910954L1139.5291549972073,189.3799842148103L1142.159094167028,189.82927124554408L1146.201397301874,188.25860445322527L1150.049641911708,186.8019830759127L1155.894557398541,185.2333932384791L1156.3568734709777,183.97082661411176L1159.644766446117,182.79427195575963L1159.8654993356436,181.19078052747992L1166.9261139758169,183.4190366812998L1168.4368934628887,181.95350185973544L1172.5535559156829,183.92995224349224L1174.2797251077575,182.07420929167284L1176.4715468941602,181.24795744057727L1177.5185557752304,181.23695049851477L1182.2197091830208,180.35871054217597L1190.0620792139164,179.6553158259736L1192.6440603342053,178.2562564476174L1197.0016410402802,176.71134137326476L1200.1201372554183,175.2455141559411L1203.5771657682046,174.36177734160532L1206.6720213602632,172.92568535779935L1206.9154212259114,174.53861601508467L1209.5203008603182,176.38861774599908L1209.9082991729083,174.46089016188276L1215.2422221762981,173.05698667341505L1219.6521542169576,171.82137222836974L1224.7390261786081,170.29481110023423L1225.8128222247549,169.7775165064441L1227.6402744479035,169.1514061413264L1230.1479437452174,171.1061344877246L1232.1930416846121,170.06230197853753L1238.4753680671317,169.58115611715408L1252.9182451820338,168.17026205152487L1261.1490528540248,166.55961927079372L1261.9522462884283,165.68994505022536L1262.1471478492208,168.31793097943344L1273.1054968616565,166.83480706045128L1277.0007496215517,168.0825071389254L1288.033766669264,170.63654124767146L1290.37089339034,169.93321477935186L1291.7846287727261,172.8119180195485L1292.0755948543745,171.4191273528026L1294.1695295003115,170.30512833154026L1297.7758762730355,168.28595749357373L1299.528672334651,166.83318675425002L1303.1077391819479,165.3348092676487L1317.1125523452772,164.76712336348862L1321.9339274048402,163.64175272065012L1327.6824043479007,161.9698622623945L1331.7466679711372,160.36733954970396L1332.8189085569006,161.8651345808763L1334.598266182468,160.44973016310678L1336.668631447786,159.53635551774485L1340.1500011345117,158.2435846658533L1350.500895372245,160.03362209952195L1354.297186417898,162.94053741157154L1354.5913465365168,161.65049534955187L1354.8846576824837,160.86593093362399L1356.39376890861,159.65697932075096L1358.5360949957121,159.24792631443316L1361.2397107432364,158.6263381372591L1370.9328292818018,159.89771293089893L1382.9396417088726,158.43817109821887L1383.2793673177312,157.18406881445637L1385.2528012789257,156.5459220743449L1388.0284787750534,155.37122204454846L1394.1154464576605,153.55819417142942L1404.1258373563435,152.50748510203832L1404.272454339661,151.1639720545933L1404.9516799562539,150.9381164149951L1407.656726489856,150.24119772586613L1408.680575634454,150.78426368481647L1414.2566755079233,149.76886410875926L1414.8633941105363,148.87659843399223L1420.4190414610248,147.73455173087046L1421.5117345697688,146.37800316130583L1424.7992772694786,145.24730891007064L1427.8210855922327,144.26357400721358L1430.8664632956063,144.05908592299934L1437.9029801735799,145.85589786665318L1438.4869546207387,145.65441407886104L1443.308484038966,148.7228413541006L1443.7244747015861,151.47628661504154L1452.8813809257585,150.34332719897247L1452.9757296906955,149.61083470294355L1454.0245908757338,148.5882843385313L1457.0943691217633,148.43249373803903L1457.7256010675942,147.11864764737425L1459.9409388027707,146.64917832639398L1461.2342625534902,146.77723873790544L1462.7418064454894,149.05644690417896L1464.665572538105,147.8781885579827L1474.0442327937346,149.02863227580164L1482.7601719360764,147.72939929821672L1489.6036098728675,146.46249625208537L1490.8223605782578,146.33378163256097L1491.9895317423839,149.55025082565928L1492.064894391648,151.06778420391436L1496.8603134481718,150.47985269905365L1497.8121305285247,149.0702489588894L1498.7859793397288,149.34114251319357L1498.83267283559,150.11182401355663L1503.387500166776,149.04689694783698L1505.6545183700355,147.83068702404478L1509.9381375285657,146.54352575813402L1512.34853712007,146.83851180774354L1512.5205698511031,149.38194784926992L1517.1005279601634,148.09919211711292L1529.469744845958,146.74447803520087L1529.666546205692,145.71491252534142L1531.2732596024423,144.52365116209313L1535.94886665134,146.71802692629032L1547.1255916152404,147.78363111478248L1554.9668336405143,146.3233354615999L1559.3986430533605,145.15286341665572L1559.6444710995308,147.55667053612135L1563.808147639258,149.58740866141193L1565.294942164692,148.37283706433308L1568.1684414956965,146.98154970324472L1568.8001780756215,146.02116155183725L1573.0610530786976,146.48157487423026L1575.1339652619718,149.15121570890747L1576.2769792951808,147.89587221466093L1577.3471716602103,148.11665845824754L1577.6149780053863,146.9503163176716L1586.796646921388,145.95188211920106" style="fill: none;" fill="none"></path></g></g></g></g><g opacity="0.2"><g><g><g><path stroke="rgb(255, 112, 67)" stroke-width="2px" d="M20.60384213200996,366.27198433377794L20.70181832555092,366.3466386078543L20.750874696345868,363.75793782907266L20.946648977277015,365.71750739428603L21.01654970458425,366.17985230215254L21.0424760232653,366.41298906002663L21.043307185302247,365.5857397121926L21.09226856615011,366.02672713278815L21.162715485653052,366.1148781723435L21.23649892704717,365.44335371389343L21.406999945183443,366.2186782663092L21.67443820431449,365.9145971279427L21.701480654873727,365.9045999974654L21.749284345741557,365.3581399011454L21.99340850973625,364.8621736250856L21.9937647220378,363.80714555564015L22.114752230258805,365.79993329578696L22.478914003003702,364.76472562953757L22.551272595191623,364.92248803698385L22.62529351145344,363.1285517066199L22.625412248887287,363.5774091296706L22.79515928431861,364.72948942593473L23.235603921440163,362.4700676112528L23.258377761252504,362.35829666495755L23.307131351591135,365.33742236716637L23.573910617964323,361.6575579159469L23.57414809283202,363.3720849728475L23.60095900539525,365.42585162038296L23.843658320183742,359.63800721776516L24.137011024252462,360.58034349288175L24.209488353874228,362.8944966786741L24.283034320400645,365.0627904232598L24.305926897646838,363.60992568646066L24.694768246017368,364.80496266698566L24.818492652088608,364.1430003852609L25.010538577596883,364.90692271477985L25.30590981804104,364.3753226102551L25.473875791964623,364.4199984858281L25.546353121586396,364.37379068210424L25.717400331918373,364.7457118190984L26.131509006212088,363.6141193088381L26.132933855418283,364.8562692671115L26.25428351281253,363.18600932412585L26.351078268886692,363.70952040254207L26.49876388910877,363.7418983680939L26.76459325601116,363.5928352419255L26.764949468312707,364.1232185483767L27.03434095823058,364.4446792754985L27.05937080928607,362.73783289552233L27.254028958339035,364.8449018982612L27.351061189280895,363.2881749901708L27.397677505810226,360.7485091113828L27.618434142823325,363.8953663032885L27.619621517161818,363.7080623072235L27.934916899005934,365.238181966185L27.983433014476866,364.43454850347L28.251637130056242,365.41451951805305L28.422452802392215,364.09364705539855L28.495286344315534,360.8995908849315L28.616754739143634,364.51634125749877L29.20096666117022,362.83731830601414L29.273087778490442,362.42149674442277L29.299067529016728,363.93245925825676L29.371782333506196,364.4453841934333L29.51756815478668,363.88142922189644L29.615906497500884,364.28435643617377L29.664897562707214,364.2526087307766L29.71305746587659,364.7976191874934L30.149583767681104,362.05077343170166L30.174494881302742,362.51609887613745L30.272120799413848,364.1187642424797L30.514582639334645,361.9183387792744L30.515176326503894,364.52044372313924L30.66298068415982,363.82640396311575L30.782311805178622,364.76486525196054L31.26949149626336,359.57564776015545L31.392503477731502,364.60776651505677L31.41658342931619,364.50006668638383L31.855959429533094,364.09282664476524L31.879564431382384,363.26996715377766L32.43969046495259,365.09302269946295L32.755460796532105,364.42279794634504L32.852136815172415,364.32587482386435L32.92592025656653,364.4501606414643L33.4146435342913,364.7470725705711L33.65793653624905,361.8515283155591L33.950220603413115,363.90483299230056L34.56005606366444,364.47775390950665L34.75186451430502,362.62971688066085L34.776419415625114,364.8672897453923L34.94865993716728,361.5295631328292L34.97214620158272,364.17834610069036L35.142486924183295,361.8899461367688L35.144149248257186,362.8688164646877L35.89739578111201,365.24832119392886L36.483626239514045,364.41800046214394L36.797971721887365,364.43743417103695L36.87353622478922,364.1182045153659L36.96783749475254,363.09780590038224L37.18705054512559,362.79697918127005L37.23568539803037,364.93443513793324L37.23675403493501,362.90132064726004L37.38360849312015,364.38395981420757L37.38455839259095,364.54398113509444L37.45561087300652,364.36197041688627L37.552999316249924,363.8363284981826L37.62737644481329,364.89781900282026L37.65288124560417,363.69595619757666L37.8228657559032,363.9895745224065L37.82322196820475,363.6433096759112L37.89451192348802,364.5780622054753L38.08822017307019,363.6800107806524L38.13756745057807,364.48118651749576L38.21063846736908,364.0673580299014L38.283590746726254,363.89679841274994L38.722135584906205,363.82341228975054L39.04063687746425,364.9750040106526L39.11335168195372,364.26358259950416L39.137550370972264,363.6057728990016L39.79376467288523,362.5879270851288L39.794952047223724,363.9632067143901L39.84192457605461,361.07692084905887L39.91570801744872,361.707691646472L39.96636140672894,363.9079611945343L40.036820199975274,363.5019057780233L40.13373369348328,364.7272569108252L40.23266572336673,364.31894278711053L40.23397183513908,363.9634158386691L40.257220624686816,364.12926005393024L40.623288133245005,363.022592105429L40.743687891168456,364.91515239449615L40.74392536603615,363.42586992254104L40.76931142939319,365.08632164810615L41.01355433082173,364.48497137821533L41.109636662292786,364.325914421361L41.28033359719492,363.28779097694826L41.5478252881712,362.69250613609853L41.668581258396195,364.0268209176742L42.01080629023739,363.87218238148546L42.035836141292876,360.49731579192684L42.10724483401,362.11268205531326L42.42396506506031,363.2839982792242L42.83748005218478,362.67433335998885L42.837598789618625,364.12003631205897L43.13091587245719,359.9167315217011L43.44603908502222,360.60131614198235L43.5208792895776,363.7446932913977L43.546116931142315,362.6780963595905L43.715549312373945,363.9250070918858L43.78951679679052,364.28291318991637L44.25120356082776,364.07184038402517L44.34779052639268,362.39215747426334L44.71413706792041,364.5886516485064L44.738252640735254,364.6894243901126L44.788229226642535,363.3788730562021L44.909929159466635,363.65392427985165L44.980281089022505,360.14128150055984L45.15233163067052,363.7337532455319L45.27415623780016,363.5851091928695L45.46832756337434,360.51572285322493L45.615514486374245,364.40810480025175L45.639630059189095,364.1250899425664L45.761828689235365,361.35145813020006L45.90614810320781,363.33037272241296L46.02834673325408,364.3057795067985L46.150420688994814,364.35233543851353L46.22476219632802,362.9900470879383L46.24738167747636,362.9503237867616L46.833885231976254,363.028991225874L46.88024626302281,359.9215252936368L47.24783954760596,363.4504088211819L47.29656939045782,363.720707107814L47.53909653596723,360.36077784891125L47.73451460459683,363.93673290057535L47.83135091877284,363.32643194655043L47.929184627393184,363.3310194815246L48.0257715929581,363.355769979288L48.146598805643414,363.0241929167251L48.14759620008775,362.5318388810479L48.26842341277306,362.6542363930273L48.3911207400415,362.9731311198727L48.561425841411925,361.92026791981334L48.58579076283785,363.13910567689356L48.877920471337916,362.6018781906342L48.87948186859304,363.04179730376853L48.92593195271498,364.0636358652182L48.974733038027146,362.8151589694364L49.00043969245558,360.170638094624L49.04702038775476,359.59991525095484L49.14658172603761,362.9602054245404L49.43964946026509,362.8634662654295L49.60705736824958,362.3139119959744L49.658470677106436,364.51674589441745L50.338812425577636,360.7295600593496L50.36242930117031,361.8428432646316L50.46277430651657,361.93568372022014L50.73000477513838,363.09725524769476L50.802814569574934,362.87503162176296L50.899894295490334,362.4375481671453L50.97348775699028,363.4868562544603L51.530912513940414,360.4783073436487L51.555704890128204,358.43130485598033L51.65330706075254,363.0020806021746L51.72676991107526,363.6209102795102L52.044107576781585,363.20741754568934L52.31120743422617,358.392272448625L52.55586591667318,363.3118002590717L52.653990532006446,362.6092573491208L53.21123124593412,362.7562399568204L53.4561568876073,360.180073023144L53.57691285783229,362.7938270555487L53.700536337084756,363.0883816961843L54.014911503816535,362.0928767074154L54.383460624742185,363.4274084502747L54.553611367448596,362.4757449023321L54.599592438706836,361.8728812656169L54.69824543562075,363.54899215120355L54.96554714670287,361.72592258140486L55.16039527564999,362.767971127671L55.3078968528496,360.53174829009026L55.30844304504531,359.3424300542739L55.357428173379944,362.8283498855013L55.43001830356387,362.5974915304606L55.672486080356364,363.08740537040796L55.89189504749526,362.64128099957253L55.9640755335324,362.4118526916237L56.15810437418597,360.75493545510676L56.74355116552459,361.97709816448213L57.05993893176013,361.41098636680067L57.08337770120203,362.6014793283504L57.280291861498135,362.32748568784007L58.130570625294816,362.52300451456017L58.2058739058422,363.36201277211615L58.23130746417278,362.91715552117284L58.30418850106964,357.97084206662555L58.34978367566786,362.95802055016907L58.35035361535034,362.3230973777708L58.40107824709088,363.0394903371159L58.594857739133346,361.10853615032664L58.66887865539517,361.4027018280526L58.7913444446676,362.27316864678556L58.813215879982685,362.3168137500243L58.86123329823145,362.28621767182085L58.91053308076579,362.7614536272101L59.44559957892204,361.8378964648703L59.59281024940873,361.82290839992186L60.00822503547478,361.26846218973725L60.15350622266141,362.39256747334304L60.30116215852503,361.94489467539984L61.00446772670272,361.01877192525757L61.00684247537971,360.6333109192595L61.10206396045537,361.9695952638185L62.05196936812352,362.00839503588116L62.41709885095429,361.5500989720451L62.49006300405485,360.0267704899926L62.516957032821765,362.2190537179534L62.66350277367889,360.82091478386667L62.73615820945144,362.7150556730076L62.76058249959429,361.8613340581361L62.88131472233252,361.4674891071744L63.00189258640675,361.61720435461547L63.050741166692454,361.43701924599145L63.367639503893535,361.8308287241957L64.19715702738162,362.1840949030639L64.29331653818468,360.9527488742618L64.438758020907,360.474566205165L65.02453134018872,362.3906651436091L65.07429419871507,362.34568527475477L65.1961366164598,357.19140246811463L65.24269356427222,362.45816196393264L65.31701726099034,361.4149729272687L65.95106328400358,361.100598502148L66.1446527961519,357.2135943901323L66.31653710539253,361.62672342781576L66.4363669236335,361.42997872859587L67.09488473176314,361.4732435308774L67.33833209238489,360.5429750053328L67.70154396565898,360.2166858584656L67.77466841429525,361.83908521471704L67.94781727720635,362.5365621199428L68.1652967610452,360.86169525570864L68.43347119226613,362.27012335181035L68.48090086021733,360.43309525197554L68.65336104601212,360.63428353277044L68.6768176260691,360.43425430369984L69.11624705813122,358.4208214187475L69.40912481246455,361.2352601012868L69.43124559639072,361.36715853761393L69.43195802099382,358.7187257601136L69.60390169895136,358.97269090433366L69.67436049219769,359.9099050782716L69.942623976494,361.30774909350316L70.65064935766722,360.2525059189068L70.79724259349787,362.2879818227905L70.96728647251383,360.0404596745568L71.03819053113709,360.43750872295414L71.43051682319111,359.60702300159994L71.74678585199278,356.61273207689266L71.76913223704328,361.2026140276849L71.98773972650369,361.41925234422223L72.03955674263564,360.0434327865954L72.81600457006466,360.61296605547005L73.03616751990852,362.01596104505495L73.0597012792975,357.2194803930168L73.18074815623542,361.3928119407953L73.42455766603041,359.7960787744169L73.45189696017428,357.97107387697037L73.71658051084002,361.35766173800545L74.10934019452758,359.64655780219374L74.13138973599344,359.40256050280243L74.37519924578844,360.7964336315751L75.71615451809672,358.91908909306204L75.88637650326343,360.66532879507633L76.12898676497655,359.02973769781215L76.17634519046744,358.5118148161078L76.20075166999521,359.6620833206641L76.93133122672815,360.2399865103889L76.98312449537333,358.1651585318594L77.17592440358655,358.2309736959979L77.49174223013961,354.875697967897L77.53990213330898,359.99773892537996L78.2969363903036,358.4502910306666L78.29825437581934,361.3056227904289L78.34483507111852,360.9015583855453L78.48984909907898,361.22214961763694L78.75855191188053,361.33220302251584L79.90303235239794,359.7514251724358L80.00254619570727,360.99286938782654L80.26926609336353,358.13483757376275L80.65927106858578,360.0496875411673L81.41366935454894,356.3981771661415L81.53703754831864,360.16277469175157L82.0458986948243,357.53052532862915L82.09501443433616,360.99650245814234L82.65470113940113,358.9331049569734L82.89993549840231,358.09038690895187L83.24056351175824,354.2926396790797L83.7518706494012,355.9021772734569L84.0210721594249,355.2540314245017L84.38362503994115,351.9551400567585L85.0187753210892,357.3732935688851L85.55529635281012,360.2543257538561L85.8705264290656,356.4688141504426L86.25832882488996,356.97262382438964L86.91810524981841,355.1399015398395L87.0144013086704,358.2243493647908L87.6001865016955,350.3522168942142L87.69540204989946,356.53477038066285L88.47729398867048,352.0318833050191L88.98654696870786,359.134622391959L89.98485569128478,354.91750797465136L90.37473005532979,353.7752868363373L90.47163761196612,356.6532997121902L91.34996215763806,354.3185900634858L93.15230735039894,350.65621842511354L93.19982607142553,356.2819024170786L93.41892632123643,353.4978090285974L93.51890324053777,353.8136650600503L93.88424051387777,349.9478769567499L95.24691286283714,351.7307789909566L95.29343418941939,354.4542411875664L95.92844198564683,352.2570066226312L96.56280859973147,355.3790959928687L96.75740144319582,349.1081262461321L97.04933523493004,354.0558054018392L98.4373461522729,353.9956254564399L98.75216658438161,362.15181923104507L98.94742435747551,355.29727849040455L99.6292681344849,354.42022693796116L99.84762033846255,352.94703424880345L101.0170118926016,354.9467993978356L101.35887477526956,356.37472059907526L101.43173800155134,352.17231912660924L101.74933095274044,354.307279203563L102.3561445453003,354.28681224749226L102.50241125318787,355.6908371844635L102.55326055923395,357.60424679292817L102.65043527509643,347.1506586480315L102.72335193322343,351.2857839737229L103.47865262368386,352.7939222786046L103.50038157407832,353.05094302964795L103.79339587646056,349.37127140998757L103.79467824074614,347.83100633617335L104.23389988229904,349.67196654991824L104.72072336108222,352.7134106685814L105.18186393292375,353.74275419306423L105.59582418542516,350.7870601032493L106.10932202872264,356.7784335761763L106.54719600040133,353.17354677858896L108.07940165741111,347.3070786590946L108.2265292116941,347.3743779044089L108.42239254570063,349.0605432543482L108.49554074182365,357.03705555098963L109.37083154606074,347.9987248329416L111.82937323011951,350.5896814316094L112.75718753821995,351.4515918912788L113.8270474384346,346.4043332810254L113.89928729318868,344.5151086685754L114.19173165588846,348.5867410583162L115.50747303411877,336.6433078270331L116.60360359157266,336.63980344858135L117.40714730140616,350.8747553591195L117.5794887497671,351.4848587381352L118.16175337787857,352.7867237836964L118.33430855362043,339.32767822004274L118.796992712102,346.14617740174526L119.28194013943036,334.883967953217L119.30717778099508,332.82635663624313L120.45122482987895,339.8018912401023L121.78972817417824,342.34052634655615L123.27716388175503,335.5024709512054L124.25195665555805,347.23212554766087L124.5674538910397,342.4456230522996L127.02616774437756,344.2805314486429L127.31936015291058,350.1667735680169L127.66092025512222,338.0050921344741L127.73329072105352,343.2315327167703L127.92824571369111,349.1524077966344L128.0749101919821,341.3541626048739L130.0456606871718,357.0146062452439L130.8747745033848,335.5737398455568L132.773795714786,350.37078317044666L133.04376308125805,341.85419979231915L133.0669050071153,352.68466123613223L133.40694527017368,333.79022240025665L133.74715770251112,344.38094905020114L134.87012885688668,339.0075324597882L134.96642491573868,326.1063116802243L135.69777626579165,348.75914195906097L135.84277842000873,332.19583249823614L136.06051318933035,345.61974023331766L137.9875326876333,324.8152584011388L138.10672132373148,328.9493789403533L138.59578894001442,363.35233943366853L139.95713142971468,331.44808657103846L140.56823738050818,325.6141147971119L140.76318643627408,331.391689836463L143.0754257912151,346.56822566968174L147.33617611998588,314.8176362548859L147.50917062423298,346.8480413796185L147.97161730784683,322.0645820000221L150.38300835692397,319.2822111026443L153.15799717593518,343.91530393847495L154.13255247487052,323.34518153999716L155.78701613064348,347.1459861434291L156.98278520571222,334.80067461905554L158.14857307873393,315.0152013647391L158.6134538797417,320.3226056284783L159.3938141056161,305.76229923698304L160.63343291500547,359.53059405846886L161.04902580722228,348.7348439451913L161.53375950716972,318.0431559362169L162.43775508603994,322.415775497426L163.55560272014492,344.1569872591569L163.72643026622427,345.68309127823875L163.9453999048579,334.6471683237861L164.65075963064123,344.03218914894427L165.01720116211604,341.5578306788953L166.5527136566585,348.1418648335724L170.93579916352445,346.12661623841L171.0081933769425,330.7830994117977L171.398328963342,337.0238166711089L172.25100622330245,286.16823038200243L174.3942584623888,324.395511737694L174.75846773010724,327.47625307197114L176.0270525364842,317.08744725650917L177.00055700912998,352.3195739670982L178.8008242967985,355.51997811124374L182.52647844305451,292.63168355985806L183.52447251143175,323.3960379248358L186.23090233613823,357.5850040594616L186.71701932719,332.0388779209685L186.78928292943084,350.4948487269716L188.982096173406,333.9064872499455L189.07881968701986,335.9335820961831L190.3935874182926,349.6036097214648L190.8067224456288,311.27468654161083L192.09850854657995,351.7633545315176L193.39071616542128,354.3324838351159L197.35730637557313,350.20377577872205L198.67515534325432,315.37154913628774L200.88894355491897,325.8999064292484L201.010471318464,340.72156619787665L201.01278076155236,346.0674575784446L201.59463574551705,296.1975899218044L201.5964821126134,351.8396242597143L204.2513502066707,313.882802055485L208.16995268293226,324.96716099779474L208.5380446647376,311.356369577576L210.3374570428824,349.4565726672073L210.77816290235842,342.62289774492126L212.06727147417632,356.644166714582L214.40611395117136,347.3898126786162L218.05706444092093,336.5957182356665L219.495651568212,331.323067374803L220.1043115278682,342.04634334492545L221.12873654902032,325.0053131857979L221.88197714500345,342.95202058764096L222.56307881305128,358.76071395560274L222.85796916688832,340.4340058775573L223.07629168650752,328.5960108804261L223.49097030048372,343.9477095397796L225.78034082566538,340.6167763727321L226.31445148747915,312.3720915632181L226.507625418609,342.0451867680447L228.58044261193575,347.1185071306635L230.06572323508817,332.64621772469854L230.59909178794038,347.2862701746155L233.669273741245,354.19540472631303L234.05794885720812,345.65055698507007L235.10748684561946,349.8616121604455L236.0064835785246,334.80137417482933L237.1988745736003,325.63475499223034L237.7594814937776,310.921971840378L238.418082418111,263.1371384170238L239.78064196650814,337.3398442917139L241.14576624347654,285.59411287794507L241.65779767946597,293.11864697383254L242.02229785389736,268.93593441477725L245.45523454135574,351.2498195474086L248.50001262068824,311.40164271538976L249.20553857887893,342.51107276454206L249.2063578671725,357.0331881954854L251.22658031417566,314.02474918152984L255.4885714491301,320.43599635987005L255.6843160457028,333.15788337698746L256.82880242309193,319.8340220169334L257.5355157556211,357.4611422650547L257.9986986113248,342.2126181829624L258.50742914665324,339.98872212857736L259.0441579688834,328.4382907515569L259.53227568569554,347.1365025429862L259.9952210665316,311.2479846297166L260.55404692520113,335.7159080576245L261.235997565901,310.59540468608657L261.7487473633652,345.7902124059974L264.35268897204446,353.1479354477477L264.50154415598996,324.00046731256356L266.69245166415186,335.2677633895131L267.90908884321965,353.2897703808855L268.12801098687976,338.6168371597043L268.4924696032093,322.67784162949835L269.12807702347766,345.8726477943986L270.6129598762267,313.9512925254895L270.8316920399926,349.3630120321488L271.12414827643585,356.39807322271287L271.29573574209184,348.54000611291843L271.34480398663015,354.2960640375903L272.6834320052349,351.06648313801117L274.5569365421019,332.7563053649131L274.97298063656734,313.5213924039505L278.50131097838045,329.8482256149002L281.2315001636003,307.32325895247357L281.7158657775028,350.8344038601577L284.3974379204328,276.76948077478346L285.1257852134094,335.8579904751162L285.5649534231171,303.54764424837407L285.6400311025402,316.685212585949L285.7584895034202,269.1374130772141L285.83178612133554,314.9683938239309L287.1739762629558,328.60612804081507L289.82647554520787,315.05739909698127L291.2380320956831,316.58327213066616L291.77444626371357,351.60117638448617L292.23835935463546,306.755015077083L292.33499975204563,354.6306505098972L295.5508725366836,317.83986568830926L296.0113956738691,286.8837703452743L297.1804488263217,306.86252888001655L298.56977179230864,357.8318301050184L299.2778090472252,270.85043377934704L300.03161364601914,357.51479687298854L302.73291401358335,322.4001311864657L308.09122568588583,262.55943073993853L308.7236212585686,330.8703788939533L313.76727873116977,329.764216226008L314.91035213309607,285.77680252823086L320.1468154507822,350.53337049160996L320.16953585874927,266.5089510496548L320.6102417182253,316.1373680209057L322.28981834125744,258.3861515763483L324.89708459808446,314.48722484363L326.57467236909963,351.2682439326115L327.622084957445,282.11192882304033L327.9161204017584,298.1725150662318L329.42494665804315,302.71277062942454L330.7645483236056,211.31235060123288L331.1052357056784,297.911461970115L331.25317661138325,347.31791187421436L332.030093451676,248.6152910941305L335.6843032839848,341.4148193701285L335.9758511790589,342.75097914756276L336.5359890863725,345.7945945289578L338.3389517137894,314.6029749258626L339.2869276381576,357.83422987830374L340.6502411692597,319.5738433655337L345.52392600530527,181.83643608056303L347.15541990450004,346.07189909765L347.47148707966414,316.56727804181895L349.58798183803253,261.5949677136842L353.55757610526075,331.01142517694973L355.8223442341487,271.9753524615295L357.3107417149397,222.20314048105766L359.4267080917274,348.2758512128989L362.4235043740413,328.7298636182014L363.95668367800863,346.76604651336737L367.5138731531189,158.09281356205636L370.2885888760323,311.00259234351694L370.7530897172518,255.3890500543281L373.89440133030394,276.59586555080864L374.0384239006918,271.2637656483378L376.79211122407037,310.74349932348326L377.91046349226923,290.1701777772569L379.4225490911132,336.9498188492813L380.1752256842855,308.54760694869424L383.2203302915611,281.749948307596L385.7768659797759,354.37830473829973L386.1660694773197,260.8788337879629L386.8264692737759,301.45916668277704L387.19063698339244,331.3984478092212L388.9679167038677,356.2438723213567L389.1132869441297,283.5730896478574L389.25951803078715,282.41385313526223L390.16258152080167,186.0304841311358L394.3002961206175,338.29442774255904L396.20082529742854,306.8466964809473L397.29545976321594,302.15251884877046L399.85292754028643,239.84436639556492L400.1456331253407,309.2971545619886L404.84577132807175,355.51516866529886L407.40193299336994,323.1744371345281L407.671300735801,294.1005592969353L408.33060814786575,194.15544166800865L411.64097811923295,280.606346206587L413.54171508655327,323.3965493925006L418.72862927309393,255.09251760123067L431.8308123380421,349.9153822610778L431.8533487029868,253.30866357720913L433.2421254767779,292.58803391940614L433.55933846817874,345.954141092359L433.9981801499434,329.61101351154605L438.76999420461766,343.69721742599313L439.1836872978929,356.7365138513584L442.37344378395574,279.9098064421148L446.51638876773256,311.7849530823521L446.65924771126873,354.13059682349507L447.6589219143349,148.72104964879082L451.72722261032226,250.13035731102673L457.76543076571903,185.18890533609024L458.0335636388381,243.27485591861904L458.39917400827596,248.89861118251903L462.7824138738059,292.3836778388808L463.5113786014385,265.4972878074173L463.80409606023613,342.8702336082472L467.33513361554105,293.5983772450893L469.77329995595125,284.397034357737L469.91812400401756,312.308412189054L470.3805884982464,140.7693443588403L472.74288755529847,349.29068885444957L475.3469479014115,268.8277606535665L489.9843109960874,355.87856231640416L493.3685178406939,343.881857252988L496.78015896939144,204.95373179570547L497.43772094117855,354.0020567498509L498.65581265381104,339.77510023384065L500.3577415987654,329.28369400481864L502.7464716085923,223.7908417059391L504.4746177789406,254.80360106665174L505.79019886163525,277.46594794384515L507.54357079980485,245.5101082050584L507.9083500072058,224.5206631663289L508.6885677481596,300.48123390808564L508.90707431080125,195.61468861382195L510.95254627311243,325.9119374686412L513.337809149871,258.35743679170866L514.7527734646977,299.7243607579147L520.1597674848784,213.2176237490879L524.4920630544153,183.7214221109779L526.6374644410544,306.8164835910185L527.7797719865323,323.85887986377975L527.9744895043021,229.57975812828334L528.0958510354399,246.40047111595226L528.9504102837268,306.93237226448935L529.5334170207998,140.09315110805323L531.0919764512524,172.7532587227378L534.283205281495,136.67113544927795L536.6466798391422,351.9520844499352L544.8285854990022,132.35590585985145L548.13986974861,207.50676719176715L555.9337770958799,207.56401197272874L556.078238994773,297.86711277388923L558.269508652108,139.00421995072483L559.027385944883,270.63090525802966L560.9018403812207,334.9793946203042L571.7872608617863,133.10891825410098L575.243571013098,132.47411758645794L579.1904448723591,141.81989234276855L580.8215291274071,175.37511456794263L583.9887848697554,139.22525317691418L585.059244394011,337.21971868610365L588.8082066985316,314.69776473321235L590.7815100485492,216.2490233027725L595.9195340967023,220.8288433646815L596.091804302603,248.7600463426447L597.2356020028757,213.3982015328868L602.9825234855527,321.65354678583583L604.5159936962331,265.3072726202549L613.3800934085323,319.05426811329295L617.1084725788952,129.66269532571914L621.7832781501144,150.28009548527757L622.9291478186078,294.79455822204034L624.2448476387364,260.0721997836934L628.3594915551552,268.5265556958667L628.4072952460231,324.7820493006317L628.5771432082731,311.2620153426892L633.180563834262,125.56042107316944L633.5930339319686,313.28669474163235L636.395819184244,202.25475322623072L639.8531920355886,277.17332244374853L641.0228151277237,234.32113597644323L641.2658528441987,326.0116835626525L642.7992696230338,316.2795989290097L647.258507383099,244.2560554867824L655.1000284413426,273.04371931894127L655.633278256761,112.32036451494162L657.0955060071315,115.32433620262714L663.425677638621,295.7658848143773L663.720704540507,269.77262951857176L668.2966908824048,199.37651678951138L670.393611774803,330.60159438661935L671.0742028718854,357.1203274365071L679.7444221653234,144.0809094003486L680.3294949337454,230.92331438810896L680.4500253028461,290.3087426171313L680.6947728383685,356.58601861572856L680.8387716612696,345.19203447305017L681.9106144766295,170.13243241244538L682.4710254800409,327.02187179814047L684.0070426086774,112.34531093781862L684.5901977675426,116.54290956392254L692.4058281283352,258.6898049792564L696.4981790915489,160.96942650141386L700.2245041043061,361.37402870327924L710.1112418393781,315.2922782478256L710.575523016345,228.08977032591952L712.1094681767606,318.0060266835434L715.3728062505801,277.8842294999147L715.3972424144663,106.72808926086253L719.8533276956629,180.27538397091365L724.0180550616795,306.86903606862944L726.5992406411615,200.60366960841L731.7138912254613,173.9384381952085L734.2961988736931,71.78192577156216L736.7289032921464,339.70512485771246L738.1169082726175,106.62423822636731L741.3084398833164,283.1913367824292L741.7212840039394,338.59470545887945L743.7447361091434,349.62564737823516L744.9854829241543,290.41755653787084L748.978777183179,125.38740641122689L749.8567217690626,229.16115979224077L751.9520634535907,292.84923220634397L754.2388929976879,108.89832245783526L773.089291783342,333.81303055831563L773.3073293331199,150.81600800466967L774.7711244176173,92.77482899166404L775.5226076995795,207.05889310654936L776.157093051098,317.98969271618347L784.4118738109831,127.47226740546509L786.0941160894052,88.41530300267391L791.1834637265517,122.79862767487376L803.0924721293608,92.3867735246888L805.1382053140264,202.806702731758L817.5590670466742,151.17856268381507L819.4813133001363,227.22122563566884L821.9906567952677,130.93366937422175L824.1346452064439,105.65697697701773L825.1312856680753,279.2530423630076L826.1286623017965,162.5595959702519L826.1793335016918,329.65520761757665L827.9090054480649,210.12475568146775L829.2968620067439,331.90194647783017L839.791683824918,126.01167414476632L841.6918211681973,99.11045485081485L844.0548207761091,340.1810966665807L844.3447063471092,256.3701308300016L847.6330149032673,83.19841201664843L848.6562050551073,91.64801622922613L849.7999374497915,316.12127823810835L849.8508876826564,246.50813670928957L859.2253624437428,111.48902827235776L859.5906581589811,124.99367530306802L861.1011348655965,189.5205546874527L863.2213401687726,116.01475815386993L865.2395975112454,186.61634229294404L868.2591320121417,77.91898338427842L868.4815865944587,284.3214559358356L869.0639046544154,97.43833176311796L869.7933799530136,187.15336354224178L871.3538154349211,200.98866286897913L872.3037742744343,108.74640006243101L874.082051389354,196.92217155421756L875.5665364716997,227.88837745805873L877.1734279746007,109.4119547857901L877.4904984810809,179.37298342104424L879.8510995928289,102.8478777694146L889.8377904997154,262.64283626700717L894.9040140216198,267.72143299605193L899.2616362857966,328.62229041902293L914.2395264670096,91.5904942657881L915.5287181550312,101.12435713109181L916.6030485196304,77.51395379041446L923.2983911920525,123.37395290257837L932.0153514763252,355.08978183342776L934.6948575879063,233.60991214030406L944.338237015432,301.9694662214322L945.6562818998791,180.14583416110545L951.2088836351896,271.24823683007605L953.83878718378,115.47673376799094L954.1055189551797,182.40797314775668L958.4142273334824,101.0292439441863L964.8943109120786,336.3382916102826L966.3535346053726,148.4873056261832L970.373705082549,94.79979217266634L973.5146545464281,104.21958784934424L974.9286392774254,312.92907655040017L977.8984999728706,129.043997640039L978.1909562093136,95.11554261079493L979.5284146641952,283.32420618237154L982.7939790648992,194.39717118577L984.5217274648442,124.48867522937854L985.4710926171883,254.91336532731043L988.9546708201835,82.907053636444L992.5600201984631,120.46839419318428L994.9203125928831,82.13746309027198L995.6270615466424,271.66441311924143L996.0395969499377,244.6050150254181L996.8212098557392,60.33806445713884L1009.2148035367034,70.41454501793072L1012.1877692160435,110.87394715803646L1014.5967142739834,249.95754063656733L1017.5923291188305,104.33576690445699L1022.5877079508284,121.16618127880031L1024.8734985423796,197.60926731574344L1029.988350980317,219.10383122065235L1030.6952542927402,102.44839182507883L1038.2444141044878,149.72013408626546L1039.1692362292551,104.49642714745096L1042.0681275604884,113.3071341309643L1042.7759035930505,253.881929735089L1047.4518668542498,146.07567289058773L1052.100841096735,86.85671913698121L1055.7294452014341,109.87210409496322L1056.2913760439988,328.2462890899802L1059.5796846001567,148.1071300610374L1070.9267027916842,239.8935728847106L1071.3659897388256,97.68507696378583L1074.6767931018264,95.2145891490324L1074.678443552157,257.5903144894933L1075.8953538273224,299.4116527274438L1077.5265924410346,241.37421567786973L1080.0848260745533,71.62942261287395L1081.1567995010907,154.5886990936013L1083.1762145335435,84.60853166830935L1084.4669438713333,164.16194826888645L1087.192906003908,230.33085664352905L1093.869084454507,97.33384716867664L1097.1295609561705,286.83519081649195L1109.9886588096701,131.7157727293289L1112.1819113821507,300.59037120838104L1122.9938690123934,327.8755971252773L1126.792891019025,84.27102900536522L1127.6460135443624,223.9039057579836L1130.032588469765,235.57281284492143L1139.5291549972073,90.13391355141454L1142.159094167028,217.46040311884678L1146.201397301874,91.66266730297929L1150.049641911708,97.21983277671296L1155.894557398541,88.76518648289772L1156.3568734709777,106.32303326866747L1159.644766446117,110.43621003195602L1159.8654993356436,82.57612415794051L1166.9261139758169,320.4566992510248L1168.4368934628887,91.8231691559867L1172.5535559156829,305.4815727846238L1174.2797251077575,67.94608987467097L1176.4715468941602,130.43350019512113L1177.5185557752304,180.56002397585652L1182.2197091830208,126.34698574623022L1190.0620792139164,136.39656640764468L1192.6440603342053,92.21415483771256L1197.0016410402802,81.69911880257655L1200.1201372554183,85.09719117505614L1203.5771657682046,120.01199344702547L1206.6720213602632,84.60607662351828L1206.9154212259114,273.73379809188L1209.5203008603182,290.1636639890613L1209.9082991729083,55.905705472680495L1215.2422221762981,86.71696637220799L1219.6521542169576,95.83112217156344L1224.7390261786081,76.41134829758312L1225.8128222247549,137.96391451925825L1227.6402744479035,130.64563718373427L1230.1479437452174,291.3218709667441L1232.1930416846121,105.86663252250867L1238.4753680671317,139.99069918510554L1252.9182451820338,81.40031609300564L1261.1490528540248,67.50513215219792L1261.9522462884283,112.20500380809256L1262.1471478492208,329.938996276342L1273.1054968616565,75.62272455469758L1277.0007496215517,244.81603008496003L1288.033766669264,327.70957472128134L1290.37089339034,126.67865437800415L1291.7846287727261,349.85209721198436L1292.0755948543745,85.76253471176653L1294.1695295003115,101.79421478241807L1297.7758762730355,44.10699779178913L1299.528672334651,77.48781944263857L1303.1077391819479,73.18462749218764L1317.1125523452772,129.85445280273328L1321.9339274048402,94.43148265734402L1327.6824043479007,59.148634853363205L1331.7466679711372,61.81222646001618L1332.8189085569006,253.9794979667856L1334.598266182468,73.4023873253222L1336.668631447786,103.36383315050506L1340.1500011345117,78.7382027928935L1350.500895372245,270.1208895014337L1354.297186417898,341.715773543683L1354.5913465365168,82.3129327970056L1354.8846576824837,112.61523387318061L1356.39376890861,85.30647714391188L1358.5360949957121,134.0911737555078L1361.2397107432364,120.39867620078422L1370.9328292818018,238.08724068176875L1382.9396417088726,68.67637330585478L1383.2793673177312,80.05679943067662L1385.2528012789257,117.29990810616613L1388.0284787750534,83.12718931937638L1394.1154464576605,42.05700899291651L1404.1258373563435,87.8888938824731L1404.272454339661,68.5379404576359L1404.9516799562539,137.04799802387237L1407.656726489856,107.38070880198916L1408.680575634454,184.18281214171208L1414.2566755079233,87.32180493406753L1414.8633941105363,94.0022721922046L1420.4190414610248,77.49869555504631L1421.5117345697688,62.95028491149702L1424.7992772694786,75.70962786063518L1427.8210855922327,83.76389066685772L1430.8664632956063,131.4830714407992L1437.9029801735799,256.3598090825467L1438.4869546207387,133.26316370264084L1443.308484038966,337.4310802237411L1443.7244747015861,320.8131361169409L1452.8813809257585,80.66633689546967L1452.9757296906955,104.56255496682326L1454.0245908757338,85.70144897363178L1457.0943691217633,138.85137361373256L1457.7256010675942,66.31712805830097L1459.9409388027707,117.77682035557939L1461.2342625534902,154.65295263146643L1462.7418064454894,289.22772435954613L1464.665572538105,75.41531286734897L1474.0442327937346,219.78090881553084L1482.7601719360764,67.8265846298413L1489.6036098728675,68.54797182344885L1490.8223605782578,138.41783382229485L1491.9895317423839,347.3630744690167L1492.064894391648,244.39607223486652L1496.8603134481718,114.3220707662565L1497.8121305285247,62.37963218839474L1498.7859793397288,166.00109359736916L1498.83267283559,197.50872927179955L1503.387500166776,83.55389194306258L1505.6545183700355,73.03378742835793L1509.9381375285657,67.38311906591497L1512.34853712007,164.98015134175472L1512.5205698511031,305.8032430484986L1517.1005279601634,69.20972518713148L1529.469744845958,63.429573010708L1529.666546205692,82.39664190488173L1531.2732596024423,71.26108669922058L1535.94886665134,281.6721194279695L1547.1255916152404,213.31828058552165L1554.9668336405143,56.51516374248018L1559.3986430533605,73.16884129019775L1559.6444710995308,295.39079092796567L1563.808147639258,274.47778885648063L1565.294942164692,73.67669238364465L1568.1684414956965,61.417386621951664L1568.8001780756215,86.95729677842172L1573.0610530786976,174.79699111714282L1575.1339652619718,313.3341094440555L1576.2769792951808,70.69225546096328L1577.3471716602103,161.69501102966424L1577.6149780053863,75.2202819972801L1586.796646921388,84.54818508344499" style="fill: none;" fill="none"></path></g></g></g></g></g></g><g transform="translate(40, 378)" clip-path="url(#clip_1)"><clipPath id="clip_1"><rect width="1683" height="22"></rect></clipPath><g><g><line x1="20.578117666966453" y1="0" x2="20.578117666966453" y2="5" style="visibility: inherit;" fill="rgb(0, 0, 0)" stroke="rgb(204, 204, 204)" stroke-width="1px"></line><line x1="139.31555151652367" y1="0" x2="139.31555151652367" y2="5" style="visibility: inherit;" fill="rgb(0, 0, 0)" stroke="rgb(204, 204, 204)" stroke-width="1px"></line><line x1="258.0529853660808" y1="0" x2="258.0529853660808" y2="5" style="visibility: inherit;" fill="rgb(0, 0, 0)" stroke="rgb(204, 204, 204)" stroke-width="1px"></line><line x1="376.79041921563805" y1="0" x2="376.79041921563805" y2="5" style="visibility: inherit;" fill="rgb(0, 0, 0)" stroke="rgb(204, 204, 204)" stroke-width="1px"></line><line x1="495.5278530651952" y1="0" x2="495.5278530651952" y2="5" style="visibility: inherit;" fill="rgb(0, 0, 0)" stroke="rgb(204, 204, 204)" stroke-width="1px"></line><line x1="614.2652869147524" y1="0" x2="614.2652869147524" y2="5" style="visibility: inherit;" fill="rgb(0, 0, 0)" stroke="rgb(204, 204, 204)" stroke-width="1px"></line><line x1="733.0027207643096" y1="0" x2="733.0027207643096" y2="5" style="visibility: inherit;" fill="rgb(0, 0, 0)" stroke="rgb(204, 204, 204)" stroke-width="1px"></line><line x1="851.7401546138669" y1="0" x2="851.7401546138669" y2="5" style="visibility: inherit;" fill="rgb(0, 0, 0)" stroke="rgb(204, 204, 204)" stroke-width="1px"></line><line x1="970.4775884634241" y1="0" x2="970.4775884634241" y2="5" style="visibility: inherit;" fill="rgb(0, 0, 0)" stroke="rgb(204, 204, 204)" stroke-width="1px"></line><line x1="1089.2150223129813" y1="0" x2="1089.2150223129813" y2="5" style="visibility: inherit;" fill="rgb(0, 0, 0)" stroke="rgb(204, 204, 204)" stroke-width="1px"></line><line x1="1207.9524561625383" y1="0" x2="1207.9524561625383" y2="5" style="visibility: inherit;" fill="rgb(0, 0, 0)" stroke="rgb(204, 204, 204)" stroke-width="1px"></line><line x1="1326.6898900120955" y1="0" x2="1326.6898900120955" y2="5" style="visibility: inherit;" fill="rgb(0, 0, 0)" stroke="rgb(204, 204, 204)" stroke-width="1px"></line><line x1="1445.427323861653" y1="0" x2="1445.427323861653" y2="5" style="visibility: inherit;" fill="rgb(0, 0, 0)" stroke="rgb(204, 204, 204)" stroke-width="1px"></line><line x1="1564.16475771121" y1="0" x2="1564.16475771121" y2="5" style="visibility: inherit;" fill="rgb(0, 0, 0)" stroke="rgb(204, 204, 204)" stroke-width="1px"></line><line x1="1682.9021915607675" y1="0" x2="1682.9021915607675" y2="5" style="visibility: inherit;" fill="rgb(0, 0, 0)" stroke="rgb(204, 204, 204)" stroke-width="1px"></line></g><g transform="translate(0, 8)"><text x="20.578117666966453" y="0" dx="0em" dy="0.95em" style="text-anchor: middle; visibility: inherit; font-family: &quot;Helvetica Neue&quot;, sans-serif; font-size: 12px; font-weight: 200;" fill="rgb(50, 49, 63)" stroke="none" stroke-width="1px">0</text><text x="139.31555151652367" y="0" dx="0em" dy="0.95em" style="text-anchor: middle; visibility: inherit; font-family: &quot;Helvetica Neue&quot;, sans-serif; font-size: 12px; font-weight: 200;" fill="rgb(50, 49, 63)" stroke="none" stroke-width="1px">20M</text><text x="258.0529853660808" y="0" dx="0em" dy="0.95em" style="text-anchor: middle; visibility: inherit; font-family: &quot;Helvetica Neue&quot;, sans-serif; font-size: 12px; font-weight: 200;" fill="rgb(50, 49, 63)" stroke="none" stroke-width="1px">40M</text><text x="376.79041921563805" y="0" dx="0em" dy="0.95em" style="text-anchor: middle; visibility: inherit; font-family: &quot;Helvetica Neue&quot;, sans-serif; font-size: 12px; font-weight: 200;" fill="rgb(50, 49, 63)" stroke="none" stroke-width="1px">60M</text><text x="495.5278530651952" y="0" dx="0em" dy="0.95em" style="text-anchor: middle; visibility: inherit; font-family: &quot;Helvetica Neue&quot;, sans-serif; font-size: 12px; font-weight: 200;" fill="rgb(50, 49, 63)" stroke="none" stroke-width="1px">80M</text><text x="614.2652869147524" y="0" dx="0em" dy="0.95em" style="text-anchor: middle; visibility: inherit; font-family: &quot;Helvetica Neue&quot;, sans-serif; font-size: 12px; font-weight: 200;" fill="rgb(50, 49, 63)" stroke="none" stroke-width="1px">100M</text><text x="733.0027207643096" y="0" dx="0em" dy="0.95em" style="text-anchor: middle; visibility: inherit; font-family: &quot;Helvetica Neue&quot;, sans-serif; font-size: 12px; font-weight: 200;" fill="rgb(50, 49, 63)" stroke="none" stroke-width="1px">120M</text><text x="851.7401546138669" y="0" dx="0em" dy="0.95em" style="text-anchor: middle; visibility: inherit; font-family: &quot;Helvetica Neue&quot;, sans-serif; font-size: 12px; font-weight: 200;" fill="rgb(50, 49, 63)" stroke="none" stroke-width="1px">140M</text><text x="970.4775884634241" y="0" dx="0em" dy="0.95em" style="text-anchor: middle; visibility: inherit; font-family: &quot;Helvetica Neue&quot;, sans-serif; font-size: 12px; font-weight: 200;" fill="rgb(50, 49, 63)" stroke="none" stroke-width="1px">160M</text><text x="1089.2150223129813" y="0" dx="0em" dy="0.95em" style="text-anchor: middle; visibility: inherit; font-family: &quot;Helvetica Neue&quot;, sans-serif; font-size: 12px; font-weight: 200;" fill="rgb(50, 49, 63)" stroke="none" stroke-width="1px">180M</text><text x="1207.9524561625383" y="0" dx="0em" dy="0.95em" style="text-anchor: middle; visibility: inherit; font-family: &quot;Helvetica Neue&quot;, sans-serif; font-size: 12px; font-weight: 200;" fill="rgb(50, 49, 63)" stroke="none" stroke-width="1px">200M</text><text x="1326.6898900120955" y="0" dx="0em" dy="0.95em" style="text-anchor: middle; visibility: inherit; font-family: &quot;Helvetica Neue&quot;, sans-serif; font-size: 12px; font-weight: 200;" fill="rgb(50, 49, 63)" stroke="none" stroke-width="1px">220M</text><text x="1445.427323861653" y="0" dx="0em" dy="0.95em" style="text-anchor: middle; visibility: inherit; font-family: &quot;Helvetica Neue&quot;, sans-serif; font-size: 12px; font-weight: 200;" fill="rgb(50, 49, 63)" stroke="none" stroke-width="1px">240M</text><text x="1564.16475771121" y="0" dx="0em" dy="0.95em" style="text-anchor: middle; visibility: inherit; font-family: &quot;Helvetica Neue&quot;, sans-serif; font-size: 12px; font-weight: 200;" fill="rgb(50, 49, 63)" stroke="none" stroke-width="1px">260M</text><text x="1682.9021915607675" y="0" dx="0em" dy="0.95em" style="text-anchor: middle; visibility: hidden; font-family: &quot;Helvetica Neue&quot;, sans-serif; font-size: 12px; font-weight: 200;" fill="rgb(50, 49, 63)" stroke="none" stroke-width="1px">280M</text></g><line x1="0" y1="0" x2="1683" y2="0" fill="rgb(0, 0, 0)" stroke="rgb(204, 204, 204)" stroke-width="1px"></line></g></g></g></g></svg>